<svg width="168" height="128" viewBox="0 0 168 128" fill="none" xmlns="http://www.w3.org/2000/svg">
<path d="M37.6617 111.242V119.999H2.56817V113.033L20.4798 96.1171C22.3815 94.3038 23.6641 92.7559 24.3275 91.4733C24.9909 90.1466 25.3226 88.8419 25.3226 87.5593C25.3226 85.7018 24.6813 84.2866 23.3987 83.3136C22.1604 82.2964 20.325 81.7878 17.8926 81.7878C15.8582 81.7878 14.0228 82.1858 12.3864 82.9819C10.75 83.7337 9.37902 84.8836 8.27336 86.4315L0.445312 81.3897C2.25859 78.6919 4.75737 76.5912 7.94167 75.0875C11.1259 73.5396 14.7746 72.7656 18.8877 72.7656C22.3373 72.7656 25.3447 73.3406 27.9098 74.4904C30.5192 75.5961 32.5315 77.1882 33.9467 79.2669C35.4062 81.3013 36.1359 83.7116 36.1359 86.4979C36.1359 89.0188 35.6052 91.3849 34.5438 93.5962C33.4823 95.8075 31.4258 98.3284 28.3742 101.159L17.6935 111.242H37.6617ZM64.3229 90.8763C67.2861 90.8763 69.9839 91.4733 72.4163 92.6674C74.8488 93.8616 76.7726 95.5643 78.1879 97.7756C79.6031 99.9427 80.3107 102.463 80.3107 105.338C80.3107 108.434 79.5368 111.154 77.9888 113.498C76.4409 115.842 74.3181 117.655 71.6203 118.938C68.9667 120.176 66.0035 120.795 62.7308 120.795C56.2295 120.795 51.1435 118.805 47.4727 114.825C43.8019 110.844 41.9665 105.161 41.9665 97.7756C41.9665 92.5127 42.9616 88.0016 44.9518 84.2423C46.942 80.4831 49.7061 77.6305 53.2442 75.6846C56.8266 73.7386 60.9617 72.7656 65.6497 72.7656C68.1264 72.7656 70.4925 73.0531 72.748 73.628C75.0478 74.1587 76.9937 74.9327 78.5859 75.9499L74.6055 83.8443C72.3058 82.2964 69.4089 81.5224 65.9151 81.5224C61.9789 81.5224 58.861 82.6723 56.5612 84.9721C54.2614 87.2718 53.0231 90.6109 52.8462 94.9893C55.5882 92.2473 59.4138 90.8763 64.3229 90.8763ZM62.1337 112.768C64.4335 112.768 66.291 112.149 67.7062 110.91C69.1657 109.672 69.8954 107.992 69.8954 105.869C69.8954 103.746 69.1657 102.065 67.7062 100.827C66.291 99.5446 64.3893 98.9034 62.001 98.9034C59.657 98.9034 57.7332 99.5668 56.2295 100.893C54.7258 102.176 53.974 103.834 53.974 105.869C53.974 107.903 54.7037 109.562 56.1632 110.844C57.6226 112.127 59.6128 112.768 62.1337 112.768Z" fill="#26BDE2" style="fill:#26BDE2;fill:color(display-p3 0.1490 0.7412 0.8863);fill-opacity:1;"/>
<path d="M38.9899 57.2425V65.9993H3.8963V59.0337L21.808 42.1171C23.7097 40.3038 24.9923 38.7559 25.6557 37.4733C26.3191 36.1466 26.6508 34.8419 26.6508 33.5593C26.6508 31.7018 26.0095 30.2866 24.7269 29.3136C23.4886 28.2964 21.6532 27.7878 19.2207 27.7878C17.1863 27.7878 15.3509 28.1858 13.7146 28.9819C12.0782 29.7337 10.7072 30.8836 9.60149 32.4315L1.77344 27.3897C3.58672 24.6919 6.0855 22.5912 9.26979 21.0875C12.4541 19.5396 16.1028 18.7656 20.2158 18.7656C23.6655 18.7656 26.6729 19.3406 29.238 20.4904C31.8474 21.5961 33.8597 23.1882 35.2749 25.2669C36.7344 27.3013 37.4641 29.7116 37.4641 32.4979C37.4641 35.0188 36.9334 37.3849 35.872 39.5962C34.8105 41.8075 32.754 44.3284 29.7024 47.1589L19.0217 57.2425H38.9899ZM59.3457 37.009C65.8912 37.009 70.7119 38.3136 73.8077 40.923C76.9478 43.5323 78.5178 47.0262 78.5178 51.4046C78.5178 54.2351 77.8102 56.8223 76.395 59.1663C74.9797 61.4661 72.8127 63.3236 69.8937 64.7389C67.019 66.1099 63.4588 66.7954 59.2131 66.7954C55.9403 66.7954 52.7118 66.3752 49.5275 65.5349C46.3874 64.6504 43.7117 63.4121 41.5004 61.8199L45.7462 53.5938C47.5152 54.9206 49.5496 55.9599 51.8494 56.7118C54.1492 57.4194 56.5153 57.7732 58.9477 57.7732C61.6455 57.7732 63.7684 57.2425 65.3163 56.1811C66.8642 55.1196 67.6382 53.6381 67.6382 51.7363C67.6382 49.7461 66.82 48.2424 65.1836 47.2252C63.5915 46.208 60.8052 45.6994 56.8248 45.6994H44.9501L47.3383 19.5617H75.6652V28.1858H56.2941L55.5644 37.009H59.3457Z" fill="#26BDE2" style="fill:#26BDE2;fill:color(display-p3 0.1490 0.7412 0.8863);fill-opacity:1;"/>
<g clip-path="url(#clip0_2126_1165)">
<path d="M93.7891 73.4863H167.216V122.437H93.7891V73.4863Z" fill="#E8422E" style="fill:#E8422E;fill:color(display-p3 0.9098 0.2588 0.1804);fill-opacity:1;"/>
<path d="M105.459 95.3473C104.203 95.3473 103.061 95.1351 102.033 94.7109C101.005 94.2703 100.164 93.6421 99.5117 92.8263L102.155 89.6934C103.069 90.8846 104.056 91.4801 105.117 91.4801C105.818 91.4801 106.349 91.268 106.708 90.8438C107.083 90.4195 107.27 89.7995 107.27 88.9836V81.6165H101.347V77.8717H112.068V88.6899C112.068 90.909 111.505 92.5734 110.379 93.6829C109.269 94.7925 107.629 95.3473 105.459 95.3473ZM131.762 81.7388V95.0046H127.332V93.585C126.842 94.1235 126.255 94.5314 125.569 94.8088C124.884 95.0862 124.158 95.2249 123.391 95.2249C121.678 95.2249 120.307 94.7191 119.279 93.7074C118.268 92.6957 117.762 91.1783 117.762 89.155V81.7388H122.412V88.3962C122.412 89.3916 122.6 90.1177 122.975 90.5745C123.35 91.0314 123.897 91.2599 124.615 91.2599C125.349 91.2599 125.945 91.0069 126.402 90.5011C126.875 89.979 127.111 89.1876 127.111 88.127V81.7388H131.762ZM137.449 76.8438H142.1V95.0046H137.449V76.8438ZM161.79 81.7388L156.062 95.5431C155.393 97.1748 154.578 98.317 153.615 98.9696C152.652 99.6386 151.477 99.9731 150.09 99.9731C149.389 99.9731 148.679 99.8589 147.961 99.6305C147.259 99.4184 146.688 99.1328 146.248 98.7738L147.863 95.5186C148.124 95.7633 148.434 95.951 148.793 96.0815C149.169 96.2284 149.544 96.3018 149.919 96.3018C150.36 96.3018 150.719 96.2121 150.996 96.0326C151.29 95.8531 151.534 95.5675 151.73 95.1759L146.052 81.7388H150.825L154.08 89.8403L157.36 81.7388H161.79ZM114.075 115.162V119.005H100.735V115.97L107.148 109.973C107.768 109.386 108.184 108.888 108.396 108.48C108.608 108.056 108.715 107.632 108.715 107.207C108.715 106.653 108.527 106.22 108.152 105.91C107.776 105.6 107.23 105.445 106.512 105.445C105.875 105.445 105.288 105.592 104.75 105.886C104.227 106.163 103.795 106.571 103.452 107.109L99.8544 105.102C100.523 103.993 101.462 103.12 102.669 102.484C103.877 101.847 105.304 101.529 106.952 101.529C108.258 101.529 109.408 101.741 110.403 102.165C111.415 102.59 112.198 103.202 112.753 104.001C113.324 104.784 113.61 105.698 113.61 106.742C113.61 107.672 113.406 108.554 112.998 109.386C112.606 110.202 111.839 111.132 110.697 112.176L107.466 115.162H114.075ZM123.024 119.347C121.556 119.347 120.25 118.996 119.108 118.295C117.966 117.593 117.069 116.573 116.416 115.235C115.78 113.881 115.461 112.282 115.461 110.438C115.461 108.594 115.78 107.003 116.416 105.665C117.069 104.311 117.966 103.283 119.108 102.581C120.25 101.88 121.556 101.529 123.024 101.529C124.477 101.529 125.774 101.88 126.916 102.581C128.058 103.283 128.947 104.311 129.584 105.665C130.236 107.003 130.563 108.594 130.563 110.438C130.563 112.282 130.236 113.881 129.584 115.235C128.947 116.573 128.058 117.593 126.916 118.295C125.774 118.996 124.477 119.347 123.024 119.347ZM123.024 115.382C123.84 115.382 124.485 114.991 124.958 114.207C125.447 113.408 125.692 112.151 125.692 110.438C125.692 108.725 125.447 107.477 124.958 106.693C124.485 105.894 123.84 105.494 123.024 105.494C122.192 105.494 121.531 105.894 121.042 106.693C120.569 107.477 120.332 108.725 120.332 110.438C120.332 112.151 120.569 113.408 121.042 114.207C121.531 114.991 122.192 115.382 123.024 115.382ZM145.267 115.162V119.005H131.927V115.97L138.34 109.973C138.96 109.386 139.376 108.888 139.588 108.48C139.8 108.056 139.906 107.632 139.906 107.207C139.906 106.653 139.719 106.22 139.344 105.91C138.968 105.6 138.422 105.445 137.704 105.445C137.067 105.445 136.48 105.592 135.941 105.886C135.419 106.163 134.987 106.571 134.644 107.109L131.046 105.102C131.715 103.993 132.654 103.12 133.861 102.484C135.068 101.847 136.496 101.529 138.144 101.529C139.45 101.529 140.6 101.741 141.595 102.165C142.607 102.59 143.39 103.202 143.945 104.001C144.516 104.784 144.802 105.698 144.802 106.742C144.802 107.672 144.598 108.554 144.19 109.386C143.798 110.202 143.031 111.132 141.889 112.176L138.658 115.162H145.267ZM153.09 108.113C155.488 108.113 157.259 108.602 158.401 109.581C159.56 110.56 160.139 111.866 160.139 113.498C160.139 114.558 159.861 115.537 159.307 116.435C158.768 117.316 157.936 118.026 156.81 118.564C155.701 119.086 154.322 119.347 152.674 119.347C151.466 119.347 150.267 119.2 149.076 118.907C147.901 118.613 146.889 118.197 146.041 117.658L147.779 114.012C148.464 114.468 149.215 114.819 150.03 115.064C150.863 115.309 151.695 115.431 152.527 115.431C153.359 115.431 154.02 115.276 154.509 114.966C155.015 114.64 155.268 114.191 155.268 113.62C155.268 113.049 155.023 112.616 154.534 112.323C154.044 112.029 153.18 111.882 151.939 111.882H147.289L148.146 101.872H159.062V105.616H152.16L151.939 108.113H153.09Z" fill="white" style="fill:white;fill-opacity:1;"/>
</g>
<defs>
<clipPath id="clip0_2126_1165">
<rect width="75" height="50" fill="white" style="fill:white;fill-opacity:1;" transform="translate(93 73)"/>
</clipPath>
</defs>
</svg>
