<svg width="82" height="128" viewBox="0 0 82 128" fill="none" xmlns="http://www.w3.org/2000/svg">
<path d="M37.6628 111.243V120H2.56925V113.034L20.4809 96.1178C22.3826 94.3045 23.6652 92.7566 24.3286 91.474C24.992 90.1473 25.3237 88.8426 25.3237 87.56C25.3237 85.7025 24.6824 84.2873 23.3998 83.3143C22.1615 82.2971 20.3261 81.7885 17.8937 81.7885C15.8593 81.7885 14.0239 82.1865 12.3875 82.9826C10.7511 83.7344 9.3801 84.8843 8.27444 86.4322L0.44639 81.3904C2.25967 78.6926 4.75845 76.5919 7.94275 75.0882C11.127 73.5403 14.7757 72.7663 18.8888 72.7663C22.3384 72.7663 25.3458 73.3413 27.9109 74.4911C30.5203 75.5968 32.5326 77.1889 33.9478 79.2676C35.4073 81.302 36.137 83.7123 36.137 86.4986C36.137 89.0195 35.6063 91.3856 34.5449 93.5969C33.4834 95.8082 31.4269 98.3291 28.3753 101.16L17.6946 111.243H37.6628ZM64.324 90.877C67.2872 90.877 69.985 91.474 72.4174 92.6681C74.8499 93.8623 76.7737 95.565 78.189 97.7763C79.6042 99.9434 80.3118 102.464 80.3118 105.339C80.3118 108.435 79.5379 111.155 77.9899 113.499C76.442 115.843 74.3192 117.656 71.6214 118.939C68.9678 120.177 66.0046 120.796 62.7319 120.796C56.2306 120.796 51.1446 118.806 47.4738 114.826C43.803 110.845 41.9676 105.162 41.9676 97.7763C41.9676 92.5134 42.9627 88.0023 44.9529 84.243C46.9431 80.4838 49.7072 77.6312 53.2453 75.6853C56.8277 73.7393 60.9628 72.7663 65.6508 72.7663C68.1275 72.7663 70.4936 73.0538 72.7491 73.6287C75.0489 74.1594 76.9948 74.9334 78.587 75.9506L74.6066 83.845C72.3069 82.2971 69.41 81.5231 65.9162 81.5231C61.98 81.5231 58.8621 82.673 56.5623 84.9728C54.2625 87.2725 53.0242 90.6116 52.8473 94.99C55.5893 92.248 59.4149 90.877 64.324 90.877ZM62.1348 112.769C64.4346 112.769 66.2921 112.15 67.7073 110.911C69.1668 109.673 69.8965 107.993 69.8965 105.87C69.8965 103.747 69.1668 102.066 67.7073 100.828C66.2921 99.5453 64.3904 98.9041 62.0021 98.9041C59.6581 98.9041 57.7343 99.5675 56.2306 100.894C54.7269 102.177 53.9751 103.835 53.9751 105.87C53.9751 107.904 54.7048 109.563 56.1643 110.845C57.6237 112.128 59.6139 112.769 62.1348 112.769Z" fill="#26BDE2" style="fill:#26BDE2;fill:color(display-p3 0.1490 0.7412 0.8863);fill-opacity:1;"/>
<path d="M38.9909 47.2432V56H3.89734V49.0344L21.809 32.1178C23.7107 30.3045 24.9933 28.7566 25.6567 27.474C26.3201 26.1473 26.6518 24.8426 26.6518 23.56C26.6518 21.7025 26.0105 20.2873 24.7279 19.3143C23.4896 18.2971 21.6542 17.7885 19.2217 17.7885C17.1873 17.7885 15.3519 18.1865 13.7156 18.9826C12.0792 19.7344 10.7082 20.8843 9.60253 22.4322L1.77448 17.3904C3.58776 14.6926 6.08654 12.5919 9.27083 11.0882C12.4551 9.54028 16.1038 8.76632 20.2168 8.76632C23.6665 8.76632 26.6739 9.34126 29.239 10.4911C31.8484 11.5968 33.8607 13.1889 35.2759 15.2676C36.7354 17.302 37.4651 19.7123 37.4651 22.4986C37.4651 25.0195 36.9344 27.3856 35.873 29.5969C34.8115 31.8082 32.755 34.3291 29.7034 37.1596L19.0227 47.2432H38.9909ZM59.3467 27.0097C65.8922 27.0097 70.7129 28.3143 73.8087 30.9237C76.9488 33.533 78.5188 37.0269 78.5188 41.4053C78.5188 44.2358 77.8112 46.823 76.396 49.167C74.9807 51.4668 72.8137 53.3243 69.8947 54.7396C67.02 56.1106 63.4598 56.7961 59.2141 56.7961C55.9413 56.7961 52.7128 56.3759 49.5285 55.5356C46.3884 54.6511 43.7127 53.4128 41.5014 51.8206L45.7472 43.5945C47.5162 44.9213 49.5506 45.9606 51.8504 46.7125C54.1502 47.4201 56.5163 47.7739 58.9487 47.7739C61.6465 47.7739 63.7694 47.2432 65.3173 46.1818C66.8652 45.1203 67.6392 43.6388 67.6392 41.737C67.6392 39.7468 66.821 38.2431 65.1846 37.2259C63.5925 36.2087 60.8062 35.7001 56.8258 35.7001H44.9511L47.3393 9.56239H75.6662V18.1865H56.2951L55.5654 27.0097H59.3467Z" fill="#26BDE2" style="fill:#26BDE2;fill:color(display-p3 0.1490 0.7412 0.8863);fill-opacity:1;"/>
</svg>
