<svg width="75" height="50" viewBox="0 0 75 50" fill="none" xmlns="http://www.w3.org/2000/svg">
<path d="M0.790039 0.486328H74.2166V49.4374H0.790039V0.486328Z" fill="#E8422E" style="fill:#E8422E;fill:color(display-p3 0.9098 0.2588 0.1804);fill-opacity:1;"/>
<path d="M12.458 22.3466C11.2016 22.3466 10.0594 22.1344 9.03147 21.7102C8.0035 21.2696 7.16317 20.6414 6.51049 19.8256L9.15385 16.6927C10.0676 17.8839 11.0548 18.4794 12.1154 18.4794C12.817 18.4794 13.3473 18.2673 13.7063 17.8431C14.0816 17.4188 14.2692 16.7988 14.2692 15.9829V8.61579H8.34615V4.87104H19.0664V15.6892C19.0664 17.9083 18.5035 19.5727 17.3776 20.6822C16.2681 21.7918 14.6282 22.3466 12.458 22.3466ZM38.7604 8.73817V22.0039H34.3304V20.5843C33.8409 21.1228 33.2534 21.5307 32.5681 21.8081C31.8828 22.0855 31.1567 22.2242 30.3898 22.2242C28.6765 22.2242 27.3059 21.7184 26.2779 20.7067C25.2663 19.695 24.7604 18.1776 24.7604 16.1543V8.73817H29.4108V15.3955C29.4108 16.3909 29.5984 17.117 29.9737 17.5738C30.349 18.0307 30.8956 18.2592 31.6136 18.2592C32.3478 18.2592 32.9434 18.0062 33.4003 17.5004C33.8735 16.9783 34.1101 16.1869 34.1101 15.1263V8.73817H38.7604ZM44.4481 3.84307H49.0985V22.0039H44.4481V3.84307ZM68.7885 8.73817L63.0612 22.5424C62.3922 24.1741 61.5763 25.3163 60.6136 25.9689C59.6509 26.6379 58.4761 26.9724 57.0892 26.9724C56.3875 26.9724 55.6777 26.8582 54.9598 26.6298C54.2582 26.4177 53.6871 26.1321 53.2465 25.7731L54.8619 22.5179C55.123 22.7626 55.433 22.9503 55.792 23.0808C56.1673 23.2277 56.5425 23.3011 56.9178 23.3011C57.3584 23.3011 57.7174 23.2114 57.9948 23.0319C58.2885 22.8524 58.5332 22.5668 58.729 22.1752L53.0507 8.73817H57.8234L61.0787 16.8396L64.3584 8.73817H68.7885ZM21.0734 42.1612V46.0039H7.73427V42.9689L14.1469 36.9724C14.7669 36.385 15.183 35.8874 15.3951 35.4794C15.6072 35.0552 15.7133 34.6309 15.7133 34.2067C15.7133 33.6519 15.5256 33.2195 15.1503 32.9095C14.7751 32.5995 14.2284 32.4445 13.5105 32.4445C12.8741 32.4445 12.2867 32.5913 11.7483 32.885C11.2261 33.1624 10.7937 33.5703 10.451 34.1088L6.85315 32.1018C7.52214 30.9923 8.46037 30.1193 9.66783 29.4829C10.8753 28.8466 12.303 28.5284 13.951 28.5284C15.2564 28.5284 16.4068 28.7405 17.4021 29.1647C18.4138 29.589 19.197 30.2009 19.7517 31.0004C20.3228 31.7836 20.6084 32.6974 20.6084 33.7417C20.6084 34.6717 20.4044 35.5529 19.9965 36.385C19.6049 37.2009 18.838 38.1309 17.6958 39.1752L14.465 42.1612H21.0734ZM30.0231 46.3466C28.5545 46.3466 27.2492 45.9957 26.107 45.2941C24.9648 44.5925 24.0673 43.5727 23.4147 42.2347C22.7783 40.8804 22.4601 39.2813 22.4601 37.4375C22.4601 35.5936 22.7783 34.0027 23.4147 32.6647C24.0673 31.3104 24.9648 30.2825 26.107 29.5808C27.2492 28.8792 28.5545 28.5284 30.0231 28.5284C31.4753 28.5284 32.7725 28.8792 33.9147 29.5808C35.0569 30.2825 35.9461 31.3104 36.5825 32.6647C37.2352 34.0027 37.5615 35.5936 37.5615 37.4375C37.5615 39.2813 37.2352 40.8804 36.5825 42.2347C35.9461 43.5727 35.0569 44.5925 33.9147 45.2941C32.7725 45.9957 31.4753 46.3466 30.0231 46.3466ZM30.0231 42.3815C30.8389 42.3815 31.4834 41.9899 31.9566 41.2067C32.4461 40.4072 32.6909 39.1508 32.6909 37.4375C32.6909 35.7242 32.4461 34.4759 31.9566 33.6927C31.4834 32.8932 30.8389 32.4934 30.0231 32.4934C29.1909 32.4934 28.53 32.8932 28.0405 33.6927C27.5673 34.4759 27.3307 35.7242 27.3307 37.4375C27.3307 39.1508 27.5673 40.4072 28.0405 41.2067C28.53 41.9899 29.1909 42.3815 30.0231 42.3815ZM52.2654 42.1612V46.0039H38.9262V42.9689L45.3388 36.9724C45.9589 36.385 46.3749 35.8874 46.5871 35.4794C46.7992 35.0552 46.9052 34.6309 46.9052 34.2067C46.9052 33.6519 46.7176 33.2195 46.3423 32.9095C45.967 32.5995 45.4204 32.4445 44.7024 32.4445C44.0661 32.4445 43.4787 32.5913 42.9402 32.885C42.4181 33.1624 41.9857 33.5703 41.643 34.1088L38.0451 32.1018C38.7141 30.9923 39.6523 30.1193 40.8598 29.4829C42.0672 28.8466 43.495 28.5284 45.143 28.5284C46.4484 28.5284 47.5987 28.7405 48.5941 29.1647C49.6057 29.589 50.3889 30.2009 50.9437 31.0004C51.5148 31.7836 51.8003 32.6974 51.8003 33.7417C51.8003 34.6717 51.5964 35.5529 51.1885 36.385C50.7968 37.2009 50.0299 38.1309 48.8878 39.1752L45.657 42.1612H52.2654ZM60.0886 35.1123C62.4872 35.1123 64.2576 35.6018 65.3998 36.5808C66.5583 37.5598 67.1375 38.8652 67.1375 40.4969C67.1375 41.5575 66.8601 42.5365 66.3053 43.434C65.7669 44.3151 64.9347 45.0249 63.8088 45.5633C62.6993 46.0855 61.3205 46.3466 59.6725 46.3466C58.465 46.3466 57.2657 46.1997 56.0746 45.906C54.8998 45.6123 53.8881 45.1962 53.0396 44.6578L54.7774 41.0109C55.4627 41.4678 56.2133 41.8186 57.0291 42.0633C57.8613 42.3081 58.6935 42.4305 59.5256 42.4305C60.3578 42.4305 61.0186 42.2755 61.5081 41.9654C62.014 41.6391 62.2669 41.1904 62.2669 40.6193C62.2669 40.0482 62.0221 39.6158 61.5326 39.3221C61.0431 39.0284 60.1783 38.8815 58.9382 38.8815H54.2879L55.1445 28.871H66.0606V32.6158H59.1585L58.9382 35.1123H60.0886Z" fill="white" style="fill:white;fill-opacity:1;"/>
</svg>
