<svg width="46" height="46" viewBox="0 0 46 46" fill="none" xmlns="http://www.w3.org/2000/svg">
<path fill-rule="evenodd" clip-rule="evenodd" d="M33.7813 30.3866C34.1945 30.1799 34.6692 30.132 35.1153 30.252C35.5615 30.3719 35.9481 30.6514 36.2019 31.0375L36.3113 31.2299L40.0846 38.7766C40.2193 39.0457 40.2876 39.3431 40.2838 39.644C40.2801 39.9449 40.2045 40.2405 40.0632 40.5063C39.922 40.772 39.7192 41 39.4718 41.1714C39.2245 41.3428 38.9397 41.4525 38.6413 41.4914L38.398 41.5065H8.21148C7.9105 41.5066 7.61387 41.4347 7.34635 41.2968C7.07883 41.1589 6.84819 40.959 6.67369 40.7137C6.49918 40.4685 6.38588 40.1851 6.34325 39.8872C6.30061 39.5892 6.32987 39.2854 6.42859 39.0011L6.52293 38.7747L10.2962 31.228C10.5077 30.7909 10.8796 30.4521 11.3346 30.2822C11.7895 30.1124 12.2924 30.1244 12.7387 30.316C13.1849 30.5075 13.5401 30.8637 13.7304 31.3105C13.9207 31.7573 13.9313 32.2603 13.7601 32.7147L13.6715 32.9166L11.2641 37.7332H35.3454L32.938 32.9166C32.7146 32.4692 32.6779 31.9515 32.836 31.4771C32.9942 31.0027 33.3342 30.6104 33.7813 30.3866ZM23.3047 3.77344C26.8073 3.77344 30.1665 5.16484 32.6432 7.64156C35.1199 10.1183 36.5113 13.4774 36.5113 16.98C36.5113 21.474 34.0794 25.1247 31.5626 27.7151C30.1725 29.1273 28.6442 30.3965 27.0007 31.5035L26.297 31.9676L25.6706 32.3619L25.3895 32.5317L24.9046 32.8109C23.9085 33.3769 22.701 33.3769 21.7048 32.8109L21.22 32.5298L20.6351 32.1733L20.3125 31.9676L19.6088 31.5035C17.9652 30.3965 16.4369 29.1273 15.0468 27.7151C12.53 25.1247 10.0981 21.474 10.0981 16.98C10.0981 13.4774 11.4895 10.1183 13.9663 7.64156C16.443 5.16484 19.8021 3.77344 23.3047 3.77344ZM23.3047 7.54675C20.8029 7.54675 18.4035 8.54061 16.6344 10.3097C14.8653 12.0788 13.8714 14.4782 13.8714 16.98C13.8714 20.0666 15.5506 22.8192 17.7523 25.0851C19.0767 26.4227 20.5402 27.6149 22.118 28.6414L22.7595 29.0508C22.9582 29.1728 23.14 29.2823 23.3047 29.3791L23.8519 29.0508L24.4914 28.6414C26.0692 27.6149 27.5328 26.4227 28.8571 25.0851C31.0589 22.8211 32.738 20.0666 32.738 16.98C32.738 14.4782 31.7441 12.0788 29.9751 10.3097C28.206 8.54061 25.8066 7.54675 23.3047 7.54675ZM23.3047 11.3201C24.8058 11.3201 26.2455 11.9164 27.3069 12.9778C28.3684 14.0393 28.9647 15.4789 28.9647 16.98C28.9647 18.4811 28.3684 19.9208 27.3069 20.9822C26.2455 22.0437 24.8058 22.64 23.3047 22.64C21.8036 22.64 20.364 22.0437 19.3025 20.9822C18.2411 19.9208 17.6448 18.4811 17.6448 16.98C17.6448 15.4789 18.2411 14.0393 19.3025 12.9778C20.364 11.9164 21.8036 11.3201 23.3047 11.3201ZM23.3047 15.0934C22.8043 15.0934 22.3245 15.2921 21.9707 15.646C21.6168 15.9998 21.4181 16.4797 21.4181 16.98C21.4181 17.4804 21.6168 17.9603 21.9707 18.3141C22.3245 18.6679 22.8043 18.8667 23.3047 18.8667C23.8051 18.8667 24.285 18.6679 24.6388 18.3141C24.9926 17.9603 25.1914 17.4804 25.1914 16.98C25.1914 16.4797 24.9926 15.9998 24.6388 15.646C24.285 15.2921 23.8051 15.0934 23.3047 15.0934Z" fill="#E8422E" style="fill:#E8422E;fill:color(display-p3 0.9098 0.2588 0.1804);fill-opacity:1;"/>
</svg>
