<?xml version="1.0" encoding="utf-8"?>
<!-- Generator: Adobe Illustrator 27.5.0, SVG Export Plug-In . SVG Version: 6.00 Build 0)  -->
<svg version="1.1" id="Capa_1" xmlns="http://www.w3.org/2000/svg" xmlns:xlink="http://www.w3.org/1999/xlink" x="0px" y="0px"
	 viewBox="0 0 2122 2122" style="enable-background:new 0 0 2122 2122;" xml:space="preserve">
<g>
	<path d="M1955.723,989.556c-52.157,9.71-104.2,20.033-156.116,30.959c16.42-13.055,29.362-31.394,29.974-49.943
		c0.355-5.549,0.637-42.752,0.828-84.437c29.164-7.444,58.376-14.703,87.629-21.786c13.687-3.314,27.385-6.586,41.09-9.826
		c8.013-1.894,4.621-14.261-3.404-12.345c-41.841,9.989-83.597,20.339-125.26,31.051c0.206-50.788,0.275-104.038,0.175-112.826
		c12.229,1.316,17.779,5.348,22.598,8.273c10.022,6.084,15.131,14.926,24.532,21.641c16.965,12.118,36.839,3.878,34.212-0.664
		c-2.797-4.834-12.884,2.603-24.016-13.345c-5.004-7.17-9.053-22.661-13.838-35.44c12.478-3.402,24.958-6.799,37.454-10.136
		c15.836-4.23,31.686-8.405,47.547-12.537c7.966-2.075,4.586-14.445-3.404-12.345c-28.981,7.617-57.914,15.423-86.806,23.377
		c-0.58-1.021-1.17-1.99-1.781-2.853c-8.273-11.675-19.081-15.922-37.4-10.66c-0.328-5.212,0.213-8.868-0.581-14.878
		c-0.15-1.138-10.254-0.979-10.433,0c-0.393,2.147-0.847,19-1.306,42.767c-65.221,18.477-130.174,37.894-194.776,58.429
		c0.069-17.961,0.095-41.639,0.084-67.089c95.332-32.045,191.669-61.103,288.753-87.354c15.864-4.29,31.748-8.5,47.649-12.645
		c7.965-2.076,4.586-14.446-3.404-12.346c-112.083,29.469-223.205,62.599-333.007,99.673c-0.063-72.537-0.401-153.815-0.848-157.205
		c-0.094-0.713-241.633,63.214-241.686,63.504c-1.053,5.757-2.548,117.169-3.383,184.489c-61.48,24.74-122.412,50.84-182.698,78.372
		c-38.127,17.413-75.96,35.468-113.54,54.037c-55.292-18.623-119.893-22.035-203.519-5.418
		c-6.929-54.895-14.409-109.726-21.767-164.545c-1.212-9.026-2.403-18.055-3.605-27.082c3.426-2.711,6.859-5.412,10.267-8.147
		c37.997-29.784,75.437-60.253,110.691-93.306c40.447-37.923,78.743-79.315,105.998-127.95c6.908-12.328,13.12-25.2,18.363-38.458
		c3.737-7.929,7.149-16.054,10.174-24.41c4.985-13.774,8.608-28.132,10.927-42.71c0.329-1.246,0.72-2.465,1.028-3.722
		c0.158-0.642,0.052-1.173-0.18-1.605c6.819-50.409-2.99-103.087-34.013-144.225c-18.304-24.273-42.499-43.713-71.271-54.052
		c-29.555-10.62-62.706-10.15-92.554-0.922c-30.303,9.368-58.214,26.964-79.75,50.25c-22.571,24.406-38.646,54.137-48.963,85.621
		c-18.792,57.349-17.25,118.953-7.758,178.363c7.073,64.79,22.379,129.471,34.04,192.524c1.097,5.932,2.124,11.876,3.174,17.816
		c-0.823,0.693-1.635,1.398-2.459,2.09c-55.953,46.964-113.904,91.588-168.463,140.191c-8.989,7.292-17.97,14.597-26.927,21.915
		c-42.292,34.555-83.083,71.16-119.655,111.79c-69.941,77.703-125.479,171.408-142.981,275.637
		c-7.124,42.427-8.002,85.986-1.22,128.471c-55.554,47.508-109.4,97.021-161.138,148.567c-11.991,11.947-23.807,24.027-35.379,36.38
		l0.418,0.418c48.613-46.276,97.228-92.44,147.883-136.501c16.266-14.148,32.744-28.033,49.311-41.808
		c1.226,6.791,2.627,13.555,4.266,20.274c0.609,2.497,1.354,4.958,2.019,7.441c-50.698,42.156-99.838,86.186-147.149,132.008
		c-11.928,11.553-23.678,23.246-35.181,35.223l0.418,0.418c48.17-44.597,96.399-89.006,146.736-131.175
		c12.192-10.214,24.487-20.294,36.858-30.275c4.642,16.095,10.496,31.826,17.465,47.055
		c-52.841,39.162-104.097,80.455-153.306,123.987c-11.774,10.415-23.355,20.993-34.705,31.868l0.418,0.417
		c49.432-41.949,99.179-83.358,151.103-122.223c12.895-9.652,25.89-19.161,38.972-28.543c6.932,14.457,14.962,28.373,23.92,41.668
		c-55.623,35.069-110.157,71.878-163.354,110.419c-11.688,8.469-23.238,17.074-34.647,25.915l0.359,0.464
		c50.594-34.393,100.901-69.118,152.61-101.844c16.045-10.155,32.217-20.091,48.442-29.935c2.958,4.217,5.977,8.392,9.136,12.463
		c6.713,8.65,13.902,16.764,21.441,24.462c-59.427,31.167-118.065,63.838-175.629,98.297c-12.776,7.648-25.111,16.059-37.667,24.068
		c-1.388,0.885-0.166,2.992,1.292,2.211c73.26-39.296,146.577-78.428,220.661-116.1c14.079,13.206,29.356,24.962,45.732,35.222
		c7.007,5.146,14.193,10.066,21.569,14.716c87.652,55.266,194.597,75.74,296.995,76.644c3.508,0.031,7.022-0.004,10.535-0.032
		c-22.867,50.145-56.69,95.867-104.259,124.834c-13.514,8.23-28.055,15.173-43.16,20.609c-0.166-0.673-0.6-1.266-1.394-1.603
		c-15.379-6.532-22.218-22.159-28.241-36.696c-5.97-14.409-12.253-28.506-21.221-41.349c-17.052-24.42-41.97-46.476-72.401-51.04
		c-16.955-2.543-34.918,0.772-50.117,8.981c-7.213,2.867-13.978,6.927-19.886,12.078c-30.73,26.796-26.251,72.92-2.488,102.588
		c7.014,8.757,15.404,16.165,24.654,22.422c5.219,4.677,10.831,8.92,16.843,12.531c47.064,28.266,107.833,23.552,157.719,5.84
		c52.371-18.595,96.33-53.529,128.814-98.323l0.765-1.096c15.148-20.08,28.11-41.972,38.721-64.974
		c2.414-5.233,4.694-10.505,6.879-15.808c78.518-4.897,210.735-31.962,330.139-139.477
		c84.34-75.942,135.359-185.195,125.451-322.695c79.294-22.22,159.142-42.434,239.524-60.378
		c115.24-25.725,231.474-46.994,348.365-63.691c15.076-2.153,30.162-4.229,45.259-6.228c9.661-1.279,9.785-16.662,0-15.364
		c-117.738,15.625-234.857,35.704-351.033,60.401c-95.207,20.24-189.753,43.571-283.48,69.823
		c-0.969-9.352-2.205-18.825-3.739-28.427c-3.217-20.144-8.199-39.114-14.499-56.973c82.25-25.466,165.18-48.741,248.606-70.037
		c121.161-30.93,243.371-57.68,366.201-81.088c15.512-2.956,31.035-5.856,46.566-8.71
		C1967.214,1000.416,1963.795,988.054,1955.723,989.556z M1609.272,659.036c-0.341,22.688-0.662,46.576-0.938,68.122
		c-13.505,4.607-27.001,9.242-40.465,13.971c-59.247,20.811-118.055,42.866-176.394,66.101c-0.002-25.479-0.043-53.263-0.115-79.179
		L1609.272,659.036z M1391.474,819.47c44.989-17.804,90.253-34.915,135.775-51.304c26.882-9.678,53.871-19.058,80.923-28.247
		c-0.42,33.384-0.704,58.59-0.74,60.068c-19.267-20.069-65.634-16.566-91.875,1.401c-21.554,14.758-32.172,31.586-35.421,48.037
		c-29.71,10.341-59.319,20.969-88.829,31.863C1391.409,866.872,1391.463,844.772,1391.474,819.47z M1376.648,825.379
		c-0.268,21.951-0.441,36.98-0.469,38.112c-15.342-15.981-47.845-16.979-73.71-7.665
		C1327.104,845.455,1351.83,835.302,1376.648,825.379z M1153.29,921.961c46.514-21.733,93.437-42.58,140.709-62.6
		c-3.437,1.656-6.71,3.486-9.695,5.531c-26.241,17.967-36.295,39.004-36.545,58.69c-0.055,4.335,0.547,8.592,1.642,12.683
		c-16.745,6.809-33.458,13.7-50.119,20.716c-16.814,7.081-33.571,14.296-50.294,21.591c-17.548-11.174-35.766-20.653-55.07-28.214
		C1113.642,940.753,1133.415,931.248,1153.29,921.961z M907.406,1303.091c87.402-36.724,176.144-70.238,265.863-100.864
		c6.055,26.219,10.001,54.204,11.638,83.769c-91.434,28.652-181.964,60.244-271.405,94.581c-1.941,0.745-3.872,1.516-5.812,2.263
		C908.145,1356.251,908.019,1329.654,907.406,1303.091z M907.14,1293.122c-0.721-26.239-1.838-52.436-3.348-78.528
		c-0.065-2.037-0.133-4.074-0.199-6.111c77.208-36.219,155.607-69.872,234.884-101.311c13.468,25.498,24.386,53.875,32.322,84.861
		C1081.819,1222.791,993.833,1256.406,907.14,1293.122z M1133.57,1098.009c-77.772,31.208-154.685,64.553-230.459,100.333
		c-0.424-8.146-0.984-16.255-1.955-24.364c-1.52-21.185-3.324-42.344-5.255-63.491c58.622-30.68,118.098-59.722,178.264-87.256
		C1096.974,1043.753,1117.009,1068.841,1133.57,1098.009z M1065.672,1015.988c-57.609,26.679-114.564,54.762-170.745,84.332
		c-1.368-14.538-2.783-29.073-4.31-43.597c43.112-24.221,86.693-47.606,130.705-70.154
		C1036.953,994.69,1051.786,1004.515,1065.672,1015.988z M1010.118,981.073c-40.594,21.068-80.798,42.884-120.617,65.382
		c-3.076-28.621-6.352-57.221-9.878-85.794C926.396,955.674,970.588,963.052,1010.118,981.073z M876.525,1211.006
		c-9.34,4.497-18.672,9.01-27.975,13.584c-8.653-20.631-25.424-37.854-46.969-44.876c-8.204-2.674-16.63-3.611-25.122-3.671
		c11.982-6.89,23.987-13.742,36.053-20.483c19.373-10.823,38.888-21.385,58.465-31.831
		C873.124,1152.773,874.988,1181.869,876.525,1211.006z M869.228,1100.07c0.354,4.476,0.653,8.965,0.994,13.444
		c-7.373,3.956-14.77,7.863-22.114,11.872c-30.723,16.771-61.167,34.052-91.353,51.772c-6.393,0.66-12.761,1.469-19.034,2.138
		c-13.8,1.472-30.78,2.583-44.042-3.623c34.617-22.44,69.583-44.344,104.952-65.572c22.525-13.518,45.236-26.72,68.042-39.755
		C867.561,1080.251,868.446,1090.156,869.228,1100.07z M855.926,965.253c1.631,14.991,5.248,48.803,6.289,58.163
		c1.231,12.187,2.417,24.379,3.549,36.576c-10.276,5.904-20.56,11.797-30.779,17.799c-50.524,29.676-100.298,60.633-149.316,92.742
		l-0.338-0.268C708.45,1002.278,855.926,965.253,855.926,965.253z M819.635,463.69c-1.589-27.915-1.519-56.455,5.185-83.744
		c0.323-0.977,0.598-1.966,0.936-2.938c8.694-24.955,22.772-47.404,43.176-64.382c18.182-15.128,41.53-25.465,65.43-25.39
		c24.282,0.077,46.14,11.817,62.375,29.425c17.544,19.028,27.323,43.41,31.752,68.652c2.985,17.012,3.689,34.641,3.03,52.24
		c-1.006,7.603-2.2,15.179-3.742,22.671c-7.733,37.58-22.396,73.401-43.226,105.612c-21.401,33.091-48.328,62.228-76.3,89.827
		c-19.781,19.518-40.395,38.153-61.383,56.36c-6.41-49.049-12.541-98.134-17.861-147.314
		C825.372,531.12,821.554,497.43,819.635,463.69z M454.949,1284.045c-0.177-56.241,14.75-111.57,37.472-162.801
		c71.156-160.429,292.022-320.253,335.389-353.983c10.08,59.161,18.627,118.575,25.832,178.152
		c-34.938,10.981-79.075,29.014-109.841,56.864c-30.082,27.233-71.327,69.381-84.938,150.082
		c-2.299,13.628-3.497,26.394-3.908,38.493c-52.407,35.125-103.891,71.625-154.247,109.637
		c-14.109,10.65-28.112,21.448-42.036,32.352C456.347,1316.675,455,1300.373,454.949,1284.045z M459.916,1341.505
		c2.442-1.894,4.859-3.819,7.305-5.708c60.916-47.046,123.559-91.834,187.581-134.558c0.105,12.995,1.232,25.092,3.293,36.269
		c-47.353,30.13-93.949,61.447-139.57,94.154c-17.648,12.653-35.091,25.605-52.437,38.693
		C463.681,1360.816,461.552,1351.205,459.916,1341.505z M468.049,1378.233c6.5-4.833,12.967-9.709,19.498-14.503
		c56.054-41.143,113.62-80.19,172.379-117.356c5.961,25.175,16.676,45.416,30.015,61.258
		c-49.626,27.638-98.577,56.481-146.614,86.804c-18.946,11.96-37.696,24.255-56.346,36.707
		C479.389,1414.023,473.034,1396.319,468.049,1378.233z M490.213,1438.028c6.353-4.171,12.675-8.39,19.055-12.523
		c60.794-39.391,123.113-76.378,186.549-111.35c2.87,2.978,5.802,5.841,8.85,8.457c26.399,22.652,74.272,27.098,106.091,10.597
		c26.249-13.612,44.784-42.716,44.264-78.208c-0.108-7.346-1.318-14.651-3.405-21.701c8.451-4.121,16.942-8.153,25.422-12.211
		c1.392,27.824,2.464,55.671,3.174,83.528c-109.489,47.342-216.804,99.735-321.115,157.614
		c-14.168,7.862-28.266,15.857-42.312,23.949C506.865,1470.82,498.002,1454.725,490.213,1438.028z M521.042,1492.55
		c1.21-0.687,2.412-1.387,3.622-2.073c105.775-59.946,214.748-114.196,326.054-163.095c9.883-4.342,19.806-8.589,29.725-12.845
		c0.586,26.217,0.857,52.43,0.734,78.631c-99.688,39.141-198.006,81.742-294.693,127.806c-10.519,5.012-21.003,10.103-31.483,15.203
		C542.714,1522.457,531.367,1507.886,521.042,1492.55z M867.026,1606.923c-4.182,21.318-9.297,42.426-15.654,63.154
		c-49.723-1.66-99.148-11.292-145.674-29.269c-54.15-20.923-102.401-53.712-141.909-95.035
		c102.692-49.181,207.201-94.586,313.238-136.063c1.333-0.521,2.672-1.024,4.005-1.544c-0.236,22.913-0.664,45.815-1.521,68.681
		C877.879,1520.375,874.396,1563.976,867.026,1606.923z M880.773,1668.23c15.658-58.241,21.071-119.15,22.718-179.515
		c0.154-5.643,0.237-11.29,0.356-16.936c1.778-24.537,2.876-49.14,3.509-73.762c91.674-35.115,184.472-67.288,278.202-96.477
		c0.133,4.876,0.287,9.738,0.295,14.694C1186.128,1498.746,1096.844,1639.932,880.773,1668.23z M1159.439,985.387l1.214-0.53
		c30.789-13.232,61.74-26.082,92.829-38.588c4.985,9.063,13.036,16.395,23.804,19.957c20.953,6.93,50.807,2.166,70.541-8.998
		c22.184-12.551,42.444-35.587,43.214-58.92c0.049-0.775,0.094-2.47,0.135-4.888c29.223-10.701,58.551-21.116,87.961-31.289
		c0.557,17.962,11.209,34.574,29.401,40.591c20.953,6.93,50.807,2.166,70.54-8.998c22.184-12.55,42.445-35.586,43.215-58.92
		c0.122-1.911,0.216-9.181,0.285-20.134c64.544-20.406,129.437-39.704,194.598-58.048c-0.642,36.351-1.273,83.622-1.735,120.496
		c-69.187,17.949-138.107,36.926-206.676,57.117c-122.099,35.953-243.083,75.714-362.381,120.109
		c-2.719,1.012-5.425,2.059-8.143,3.076C1213.033,1026.9,1185.011,1002.922,1159.439,985.387z M1722.844,937.156
		c-26.241,17.966-36.296,39.003-36.546,58.69c-0.238,18.744,10.638,36.397,29.527,42.645l0.504,0.127
		c-43.756,9.835-87.407,20.133-130.925,30.984c-97.935,24.418-195.178,51.607-291.472,81.849
		c-12.629-32.295-29.629-60.677-48.624-85.169c107.26-39.569,215.879-75.451,325.387-108.27
		c81.062-24.293,162.636-46.854,244.585-67.965c-0.32,26.027-0.531,44.449-0.561,45.707
		C1795.452,915.685,1749.085,919.188,1722.844,937.156z"/>
	<path d="M925.059,618.433l0.646-0.216l-0.361-0.509l0.361,0.508c31.296-22.272,56.396-55.966,74.077-89.714
		c16.805-32.081,26.661-67.494,26.661-103.708c0-3.941-0.117-7.891-0.354-11.847c-1.365-22.753-7.141-45.15-19.155-64.686
		c-0.492-0.81-1.341-1.182-2.126-1.174c-1.243,0.003-2.562,0.879-2.584,2.365l0.129,0.786c7.995,24.661,12.728,50.066,12.728,75.633
		c0,12.838-1.193,25.717-3.766,38.566c-7.441,37.161-23.951,71.513-46.21,102.07c-12.678,17.405-27.389,33.137-40.894,49.976
		l-0.257,0.742C923.963,617.772,924.3,618.388,925.059,618.433z"/>
	<path d="M995.434,340.034l0.348-0.518L995.434,340.034c0.708,0.475,1.481,0.693,2.226,0.691c0.656,0,1.283-0.176,1.856-0.45
		l0.004,0.01c0.009-0.004,0.016-0.013,0.025-0.017c0.01-0.005,0.022-0.003,0.031-0.008l-0.005-0.01
		c1.174-0.453,2.182-1.441,2.584-2.918l0.014-0.049l0.074-0.716l0.039-0.382l0.007-0.064l-0.045-0.437l-0.07-0.671l-0.005-0.052
		l-0.014-0.05c-0.401-1.472-1.41-2.459-2.584-2.912l0.005-0.01c-0.01-0.005-0.022-0.003-0.032-0.008
		c-0.009-0.004-0.016-0.013-0.026-0.017l-0.003,0.01c-0.575-0.275-1.204-0.453-1.861-0.453c-0.743-0.001-1.513,0.215-2.219,0.689
		l-0.799,0.536c-1.228,0.819-1.875,2.097-1.872,3.376c-0.003,1.279,0.645,2.557,1.872,3.375L995.434,340.034z"/>
	<path d="M975.694,524.832l1.207-0.627l-0.501-0.371l0.501,0.371c9.237-12.487,16.225-25.985,21.949-40.375
		c2.844-7.149,5.333-14.438,7.454-21.833c1.22-4.276,3.357-9.898,3.364-15.107c0-1.963-0.308-3.877-1.11-5.627
		c-0.296-0.643-0.944-0.917-1.5-0.909c-0.456,0.002-0.913,0.154-1.268,0.497c-4.879,4.855-5.172,14.018-6.697,19.91
		c-1.759,6.944-3.843,13.806-6.242,20.556c-5.041,14.188-11.574,27.975-18.436,41.399l-0.178,0.708
		C974.25,524.275,974.962,524.831,975.694,524.832z"/>
	<path d="M787.006,649.893c3.195,14.155,6.39,28.31,9.585,42.465c3.244,14.36,5.433,29.659,11.154,43.432
		c0.553,1.305,1.847,1.968,3.056,1.97c0.658,0,1.323-0.199,1.84-0.655c0.519-0.454,0.84-1.169,0.834-2.011l-0.005-0.184v-0.003
		c-0.728-14.359-5.064-28.474-8.204-42.303c-3.307-14.554-6.615-29.107-9.922-43.661c-6.62-29.135-13.917-58.007-22.13-86.728
		c-0.208-0.805-0.935-1.28-1.596-1.256c-0.891,0.001-1.802,0.698-1.812,1.799l0.029,0.331
		C774.75,592.206,780.502,621.08,787.006,649.893z"/>
	<path d="M776.857,649.252c-0.79,0.001-1.574,0.641-1.576,1.6l0.023,0.289c1.409,9.079,3.107,17.998,5.259,26.938l3.138,13.036
		c1.07,4.442,2.027,8.819,4.021,13.051c0.504,1.085,1.574,1.576,2.566,1.565c1.537-0.003,3.222-1.074,3.252-2.923l-0.007-0.203
		c-0.327-4.505-1.575-8.642-2.778-12.883c-1.267-4.462-2.535-8.925-3.801-13.388c-2.508-8.831-5.401-17.423-8.625-26.012
		l-0.584,0.219l0.584-0.219C778.087,649.64,777.451,649.237,776.857,649.252z"/>
	<path d="M345.206,1347.638c0.453,0.016,1.08-0.272,1.189-0.959l-0.617-0.087l0.617,0.087c4.272-30.28,6.637-60.462,13.798-90.214
		c7.286-30.278,17.254-59.65,29.825-88.146c24.677-55.939,59.272-106.307,98.118-153.332c21.621-26.174,44.866-50.668,67.628-75.877
		l0.315-0.786c-0.016-0.665-0.54-1.133-1.166-1.142l-0.754,0.272c-24.186,19.323-46.011,41.56-67.077,64.139
		c-20.814,22.309-39.456,46.778-56.495,72.04c-35.095,52.029-62.439,109.348-77.258,170.506
		c-6.031,24.892-10.886,51.657-10.887,77.874c0,8.301,0.487,16.548,1.578,24.662
		C344.123,1347.363,344.755,1347.656,345.206,1347.638z"/>
	<path d="M365.123,1169.022c0.67,0.015,1.411-0.36,1.765-1.109l-0.56-0.274l0.56,0.274c10.871-22.171,21.324-44.422,34.277-65.427
		c6.385-10.356,13.005-20.544,20.106-30.414c7.064-9.826,16.535-19.371,22.129-30.334l0.302-1.287
		c-0.019-1.572-1.155-3.143-2.836-3.192c-0.519-0.002-1.059,0.18-1.545,0.541c-9.402,6.95-16.581,18.022-23.271,27.255
		c-7.569,10.456-14.783,21.225-21.321,32.369c-12.759,21.749-24.409,44.637-31.805,68.848l-0.092,0.604
		C362.866,1168.191,364.01,1169.011,365.123,1169.022z"/>
	<path d="M644.172,1186.766c0.845,0.024,1.832-0.511,2.038-1.597l-0.612-0.121l0.612,0.12c3.757-19.029,7.879-38.27,12.651-57.071
		c4.897-19.296,10.954-38.384,19.353-56.431c14.696-31.575,35.997-58.708,64.064-79.403c1.254-0.919,1.814-2.251,1.807-3.514
		c-0.002-2.168-1.567-4.299-3.875-4.328c-0.716,0-1.473,0.222-2.214,0.69c-30.129,18.977-52.365,49.321-67.325,81.118
		c-8.615,18.313-15.161,37.589-19.87,57.252c-4.876,20.36-7.331,40.323-8.844,61.114l-0.006,0.155
		c-0.005,0.64,0.313,1.19,0.741,1.519C643.121,1186.604,643.646,1186.764,644.172,1186.766z"/>
	<path d="M644.899,1081.31c0.815,0.008,1.666-0.429,2.217-1.294l-0.523-0.339l0.523,0.339c6.851-10.578,13.748-21.097,20.459-31.778
		c3.292-5.24,6.664-10.43,10.113-15.567c3.258-4.869,7.64-10.377,8.677-16.565l0.038-0.467c-0.003-1.408-1.06-2.64-2.486-2.651
		l-1.247,0.335c-5.387,2.984-8.996,8.879-12.171,13.677c-3.523,5.341-6.958,10.74-10.309,16.189
		c-6.781,11.025-12.515,22.325-17.74,34.148l-0.266,1.217C642.198,1080.128,643.477,1081.301,644.899,1081.31z"/>
	<path d="M765.97,1742.578c1.781-0.267,2.683-1.74,2.648-3.134c0.003-1.806-1.288-3.798-3.509-3.908
		c-19.162-0.768-38.135-0.604-57.111-3.197c-18.941-2.587-37.64-6.915-56.071-12.021c-36.769-10.187-72.345-24.513-108.07-37.899
		l-0.441-0.082c-0.851,0.04-1.281,0.743-1.289,1.391c-0.012,0.405,0.218,0.896,0.677,1.125
		c34.934,18.088,71.099,33.76,108.93,44.899c18.184,5.354,36.766,9.311,55.562,11.794c11.745,1.551,23.774,2.773,35.764,2.773
		C750.742,1744.319,758.406,1743.817,765.97,1742.578z"/>
	<path d="M722.131,1757.565c-3.481-0.328-6.961-0.656-10.441-0.984c-6.858-0.647-13.72-0.523-20.546-0.626l0,0l-0.025,0
		c-0.494-0.005-0.932,0.236-1.195,0.561l-0.398,1.122c-0.026,0.621,0.408,1.368,1.213,1.524c6.633,1.404,13.253,3.042,20.038,3.927
		c3.352,0.438,6.703,0.875,10.055,1.312c1.676,0.219,3.352,0.438,5.027,0.657c1.179,0.152,2.418,0.42,3.714,0.422
		c0.621,0.001,1.256-0.064,1.895-0.24c1.563-0.44,2.421-1.904,2.419-3.317c0.008-1.075-0.519-2.205-1.64-2.802
		C729.227,1757.522,725.15,1757.867,722.131,1757.565z"/>
	<path d="M518.555,1909.492c-4.951-1.541-9.599-4.106-13.919-7.032c-8.494-5.752-15.917-13.393-22.331-21.417
		c-12.991-16.252-21.424-35.401-26.427-55.553c-0.29-1.177-1.371-1.741-2.326-1.725c-0.571,0.001-1.143,0.172-1.606,0.54
		c-0.463,0.362-0.792,0.961-0.785,1.655l0.009,0.203c1.846,22.623,11.06,44.315,24.93,62.187
		c6.972,8.982,15.069,17.323,24.515,23.785c4.835,3.307,10.169,6.002,15.826,7.656c2.409,0.702,5.231,1.476,7.981,1.478
		c2.579,0.007,5.152-0.711,7.081-2.877c0.538-0.601,0.828-1.346,0.827-2.098c0.001-0.742-0.283-1.485-0.832-2.081
		C527.98,1910.429,522.656,1910.807,518.555,1909.492z"/>
	<path d="M550.346,1924.31l-0.005-0.036l-0.009-0.034l-0.031-0.12l-0.012-0.045l-0.428-1.018l-0.01-0.025l-0.038-0.071l-0.006-0.011
		l-0.006-0.011c-0.354-0.593-0.907-1.242-1.613-1.608l0.001-0.001l-0.021-0.011l-0.019-0.01l-0.036-0.016l-0.892-0.376l-0.02-0.009
		l-0.068-0.023l-0.059-0.021l-1.133-0.155l-0.054-0.007l-0.112,0.005l-0.029,0.001l-0.998,0.134l-0.01,0.001l-0.051,0.01
		l-0.068,0.011l-1.018,0.425l-0.076,0.031l-0.783,0.606l-0.063,0.049l-0.604,0.781l-0.049,0.064l-0.389,0.922l-0.012,0.028
		l-0.009,0.028l-0.158,1.012l0.081,0.726l0.003,0.012l0.016,0.059l-0.045,0.142l-0.029,0.092v1.04v0.014l0,0.014
		c0.026,0.578,0.204,1.134,0.518,1.625l0.016,0.024l0.571,0.739l0.025,0.032l0.029,0.03c0.513,0.511,1.137,0.875,1.836,1.07
		l0.042,0.011l1.097,0.153l0.036,0.005l0.091,0.002l0.027,0l0.049-0.003l0.016-0.001l0.042-0.005l0.01-0.001l0.949-0.127l0.04-0.005
		l0.142-0.038l0.043-0.012l0.979-0.423l0.055-0.025l0.049-0.033c0.754-0.501,1.087-0.846,1.587-1.587l0.011-0.016l0.068-0.114
		l0.023-0.038l0.424-1.004l0.014-0.031l0.044-0.149l0.008-0.026l0.017-0.083l0.002-0.01l0.007-0.04l0.001-0.011l0.136-1.004
		l0.004-0.034l0.007-0.281l0.001-0.049l-0.078-0.595L550.346,1924.31z"/>
	<path d="M493.811,1914.939c-0.116-0.266-0.26-0.559-0.503-0.877c-0.575-0.727-1.317-1.21-2.072-1.583
		c-1.187-0.585-2.421-0.945-3.533-1.408l-0.403-0.18v0l-0.688-0.317c-0.457-0.216-0.91-0.437-1.36-0.666
		c-1.005-0.513-1.992-1.094-3.016-1.653c-1.874-1.022-3.647-2.232-5.499-3.396c-0.896-0.562-1.772-1.155-2.626-1.778
		c-0.649-0.464-1.372-1.182-2.291-1.658c-0.572-0.581-1.136-1.162-1.672-1.76c-0.555-0.627-1.309-0.912-2.022-0.908
		c-1.659,0.031-3.254,1.325-3.305,3.058c-0.002,0.535,0.183,1.094,0.563,1.582c0.622,0.809,1.265,1.593,1.918,2.368
		c0.433,0.952,1.068,1.702,1.71,2.492c0.78,0.954,1.597,1.877,2.447,2.768c1.805,1.891,3.944,3.454,6.056,4.884
		c1.953,1.321,4.11,2.338,6.226,3.247c1.258,0.539,2.63,1.223,4.079,1.581c0.603,0.147,1.326,0.273,2.051,0.274l1.188-0.144
		c0.799-0.228,1.375-0.67,1.902-0.912c1.114-0.544,1.631-1.727,1.635-2.838c-0.001-0.563-0.134-1.129-0.439-1.62L493.811,1914.939z"
		/>
	<path d="M868.012,1763.798c-0.017-1.98-1.689-3.426-3.472-3.434c-1.027-0.009-2.102,0.524-2.796,1.635l0,0l0,0l0,0l0,0
		c-14.451,22.751-28.902,45.251-46.326,65.831c-17.051,20.141-36.488,38.218-55.96,56.044l-0.378,0.847
		c0.024,0.666,0.489,1.217,1.225,1.253l0.625-0.186c22.89-14.668,42.487-33.275,60.425-53.585
		c17.856-20.218,34.475-42.409,46.273-66.795C867.889,1764.868,868.013,1764.32,868.012,1763.798z"/>
	<path d="M864.782,1787.518c-1.211-0.009-2.465,0.636-3.306,1.987l0,0l0,0h0l0,0c-2.149,3.403-3.934,7.035-5.929,10.449
		c-2.017,3.452-4.033,6.891-6.17,10.254c-2.118,3.333-4.561,6.544-6.613,10.01c-2.023,3.42-4.089,6.759-6.325,10.035l-0.424,1.321
		c0.038,1.473,1.329,2.552,2.72,2.575c0.604,0.005,1.244-0.235,1.731-0.75c2.741-2.867,5.475-5.763,8.144-8.703
		c2.807-3.094,5.102-6.723,7.405-10.095c4.505-6.601,9.302-13.602,12.479-21.059c0.26-0.61,0.381-1.222,0.381-1.805
		C868.862,1789.351,866.917,1787.53,864.782,1787.518z"/>
	<path d="M1169.731,1359.718c-1.068-0.031-2.238,0.673-2.474,2.036l0,0c-7.53,39.787-17.727,78.717-36.969,114.542
		c-18.984,35.348-44.445,67.135-74.972,93.197c-17.424,14.877-36.714,28.335-56.555,39.791l-0.477,0.275l0.533,1.264l0.237,0.56
		l0.566-0.222c77.707-30.46,135.886-101.465,161.742-179.569c7.006-21.169,11.342-43.427,11.342-65.795
		c0-1.124-0.011-2.248-0.032-3.372C1172.62,1360.701,1171.104,1359.71,1169.731,1359.718z"/>
	<path d="M1088.146,1513.447c0.492,0.003,1.011-0.179,1.448-0.552l-0.402-0.476l0.403,0.476
		c11.091-9.386,20.747-19.528,28.018-32.25c3.535-6.185,6.629-12.523,8.665-19.368c1.562-5.262,3.295-10.85,3.297-16.526
		c0-1.263-0.086-2.531-0.281-3.797c-0.129-0.948-1-1.439-1.711-1.406c-0.637,0.005-1.291,0.271-1.693,0.86
		c-3.699,5.581-5.225,12.214-7.976,18.007c-2.859,6.039-5.425,12.234-8.577,18.092c-6.325,11.756-13.699,23.573-22.776,33.316
		c-0.411,0.436-0.62,0.969-0.617,1.478C1085.966,1512.496,1086.959,1513.433,1088.146,1513.447z"/>
	<path d="M1345.284,1307.859c0-6.377-0.243-12.773-0.768-19.199c-0.196-2.561-2.235-3.961-4.179-3.937
		c-1.928-0.031-3.925,1.377-4.038,3.955c-1.958,37.622-5.868,74.94-16.002,111.283c-10.114,36.269-25.669,70.733-44.991,103.028
		c-11.195,18.713-23.958,36.791-37.771,53.662l-0.453,1.231c0.016,1.025,0.793,1.901,1.845,1.926
		c0.452,0.003,0.92-0.196,1.286-0.565c54.81-54.729,89.917-128.586,101.328-205.031
		C1343.849,1338.752,1345.284,1323.359,1345.284,1307.859z"/>
	<path d="M1352.008,1354.433c-0.774-0.006-1.59,0.376-2.087,1.153h0c-3.927,6.073-5.733,13.477-7.603,20.219
		c-1.933,6.984-3.448,14.063-4.958,21.124c-1.513,7.07-2.973,14.19-3.973,21.378c-0.992,7.133-1.136,14.32-1.758,21.399
		l-0.007,0.151c-0.006,0.486,0.232,0.926,0.561,1.18l1.114,0.377c0.652,0.015,1.426-0.382,1.645-1.21
		c1.913-7.163,4.496-14.204,6.339-21.479c1.708-6.742,3.251-13.515,4.861-20.266c1.611-6.753,3.382-13.478,4.926-20.27
		c1.468-6.469,3.43-13.321,3.433-20.164l-0.021-1.197C1354.434,1355.349,1353.215,1354.417,1352.008,1354.433z"/>
	<path d="M923.166,1308.754l0.36-0.041l-0.139-0.608l0.143,0.607c13.792-3.235,27.201-7.106,40.69-11.455
		c6.462-2.084,12.927-4.148,19.327-6.468c6.439-2.335,13.185-4.817,19.229-8.201c0.599-0.339,0.844-0.968,0.84-1.522l-0.377-1.152
		c-0.252-0.34-0.696-0.601-1.199-0.595l-0.219,0.016c-13.82,1.81-27.249,6.966-40.28,11.382
		c-13.319,4.517-26.282,9.408-39.175,14.98c-0.575,0.23-0.91,0.811-0.891,1.321C921.494,1307.887,922.142,1308.716,923.166,1308.754
		z"/>
	<path d="M994.79,1291.899L994.79,1291.899l-0.751-0.015c-4.196,0.002-8.308,1.314-12.11,2.656c-3.941,1.394-7.923,2.731-11.831,4.3
		c-8.136,3.266-16.081,6.89-24.191,10.098c-0.695,0.266-1.051,0.933-1.038,1.521l0.367,1.04l1.099,0.511l0.479-0.071
		c8.46-2.474,17.043-4.512,25.558-6.954c4.193-1.203,8.3-2.663,12.404-4.037c3.939-1.321,8.022-2.969,11.311-5.73
		c0.419-0.344,0.63-0.848,0.624-1.313C996.685,1292.876,995.895,1291.972,994.79,1291.899z"/>
	<path d="M1532.217,979.656l-0.063,0.002v-0.001c-0.001,0-0.001,0.001-0.002,0.001h-0.011v0.001
		c-10.332,0.469-21.416,3.601-31.169,6.606c-10.025,3.091-19.988,6.382-29.88,9.875c-20.112,7.1-39.31,15.345-58.198,25.243
		c-0.518,0.262-0.769,0.809-0.758,1.27c0.005,0.735,0.504,1.541,1.45,1.578l0.494-0.09c19.952-7.312,39.947-14.673,60.016-21.637
		c9.893-3.433,19.855-6.666,29.879-9.697c9.493-2.871,19.973-5.884,28.908-10.43c0.507-0.251,0.752-0.781,0.741-1.231
		C1533.621,980.455,1533.126,979.677,1532.217,979.656z"/>
	<path d="M1522.079,992.921c-0.858-0.12-1.725-0.174-2.597-0.174c-5.362,0.005-10.904,2.016-15.727,3.385
		c-6.167,1.757-12.249,3.71-18.288,5.866c-12.122,4.324-23.658,9.427-35.153,15.179c-0.707,0.343-1.045,1.057-1.031,1.69
		c0.006,1.025,0.724,2.123,1.968,2.161l0.643-0.113c11.753-4.174,23.709-7.998,35.641-11.659c5.885-1.806,11.799-3.55,17.719-5.246
		c5.481-1.583,12.653-2.538,17.611-6.076c0.816-0.602,1.232-1.601,1.241-2.58C1524.146,994.298,1523.461,993.091,1522.079,992.921z"
		/>
	<path d="M552.527,1416.572c5.476-3.055,11.039-5.979,16.58-8.944c5.729-3.067,11.235-6.391,16.859-9.582
		c0.617-0.342,0.917-0.986,0.907-1.562c-0.002-0.927-0.671-1.905-1.804-1.931l-0.555,0.088c-6.032,1.881-11.928,3.819-17.708,6.478
		c-6.121,2.816-12.018,5.96-17.841,9.328c-5.592,3.233-11.3,6.504-16.596,10.284c-5.287,3.776-10.266,7.886-15.316,11.901
		c-0.486,0.378-0.732,0.942-0.725,1.466c0.034,1.188,0.978,2.24,2.243,2.282l1.071-0.323l-0.339-0.523l0.34,0.523
		C530.265,1429.162,541.444,1422.755,552.527,1416.572z"/>
	<path d="M575.78,1412.479l0.428-1.143c-0.001-0.795-0.514-1.718-1.555-1.756l-0.605,0.124c-6.215,2.545-12.129,6.235-17.712,9.825
		c-5.771,3.712-11.524,7.441-17.217,11.281c-0.632,0.416-0.969,1.068-0.961,1.689c0.006,1.083,0.892,2.032,2.079,2.042l0.906-0.192
		c6.346-2.72,12.466-5.868,18.398-9.4C565.259,1421.545,571.217,1417.456,575.78,1412.479z"/>
	<path d="M323.145,1627.734c-4.1,2.224-8.238,4.402-12.324,6.683c-4.42,2.468-8.476,5.46-12.66,8.156
		c-0.461,0.295-0.658,0.801-0.652,1.236c0.001,0.658,0.427,1.452,1.333,1.485l0.53-0.107l0.044-0.018l-0.043,0.018
		c4.406-1.806,8.957-3.361,13.346-5.397c4.411-2.046,8.7-4.353,13.015-6.513c4.334-2.169,8.677-4.306,12.915-6.714
		c4.027-2.292,8.749-4.409,12.316-7.672c0.425-0.383,0.643-0.904,0.638-1.396c-0.023-1.128-0.946-2.068-2.133-2.092l-0.443,0.05
		c-4.705,1.053-9.262,3.805-13.423,5.78C331.356,1623.255,327.257,1625.504,323.145,1627.734z"/>
	<path d="M345.145,1625.761c-2.893,1.004-5.465,2.593-7.981,4.154c-2.553,1.586-5.105,3.171-7.658,4.756
		c-5.135,3.189-10.001,6.817-14.934,10.223c-0.506,0.341-0.77,0.893-0.763,1.404c0.001,0.867,0.662,1.693,1.653,1.71l0.827-0.212
		c5.303-2.776,10.77-5.387,15.975-8.442l7.771-4.561c2.548-1.497,5.174-3.031,7.409-5.124c0.473-0.44,0.687-1.035,0.683-1.591
		c-0.009-1.203-0.897-2.407-2.27-2.441L345.145,1625.761z"/>
	<path d="M338.931,1492.552c-4.369,3.269-8.6,6.674-12.822,10.109c-4.126,3.356-8.221,6.74-12.278,10.182
		c-4.306,3.654-8.33,7.62-12.496,11.375l-0.541,1.195c0.026,0.951,0.738,1.789,1.768,1.827l0.892-0.273
		c4.546-2.989,9.271-5.782,13.758-8.927c4.492-3.15,8.939-6.348,13.363-9.589c4.257-3.118,8.495-6.241,12.633-9.538
		c2.203-1.756,4.459-3.479,6.557-5.434c1.832-1.719,4.261-3.412,5.569-5.905l0.295-1.183c-0.003-1.325-1.067-2.468-2.47-2.471
		l-0.586,0.067c-2.6,0.601-4.697,2.364-6.708,3.629C343.445,1489.15,341.194,1490.859,338.931,1492.552z"/>
	<path d="M354.335,1499.436c-3.191,1.44-5.994,3.528-8.926,5.152c-1.545,0.857-2.966,1.694-4.415,2.771l-3.882,2.885
		c-5.423,4.032-10.37,8.461-15.511,12.744l-0.523,1.089c0.031,0.876,0.695,1.59,1.62,1.627l0.771-0.219
		c5.762-3.506,11.595-6.792,17.203-10.647c2.753-1.893,5.438-3.729,7.955-6.005c2.466-2.232,5.332-4.193,7.708-6.733l0.482-1.159
		c-0.014-0.942-0.794-1.663-1.733-1.67L354.335,1499.436z"/>
	<path d="M1251.302,967.047c2.065,2.242,4.559,4.13,6.912,5.934c4.944,3.787,10.247,7.034,15.951,9.569
		c9.074,4.033,19.08,7.1,29.142,7.101c2.343,0,4.69-0.167,7.026-0.527c1.894-0.253,2.88-1.702,2.838-3.129
		c-0.018-1.947-1.455-4.053-3.702-4.374c-10.886-1.395-21.447-2.48-31.643-6.511c-4.944-1.953-9.753-4.425-14.245-7.271
		c-2.241-1.419-4.41-2.948-6.493-4.588c-2.435-1.91-5.122-3.188-7.354-5.01l-1.252-0.434c-0.975,0.009-2.011,0.644-2.057,1.799
		l0.37,1.06C1248.286,962.713,1249.467,965.048,1251.302,967.047z"/>
	<path d="M1325.557,987.081c1.227,0.005,2.23-0.497,2.87-1.252c0.645-0.754,0.949-1.723,0.95-2.683
		c-0.001-0.959-0.305-1.927-0.949-2.68c-0.641-0.754-1.643-1.256-2.871-1.251c-1.227-0.006-2.23,0.497-2.87,1.253
		c-0.645,0.753-0.949,1.722-0.95,2.682c0,0.959,0.305,1.927,0.949,2.68C1323.326,986.584,1324.329,987.086,1325.557,987.081z"/>
	<path d="M1509.939,917.42c5.547,1.347,12.145,2.468,18.668,2.469c6.945-0.001,13.826-1.268,19.239-4.961
		c0.778-0.528,1.159-1.367,1.155-2.169c0.025-1.218-0.919-2.469-2.446-2.493l0,0l-0.926-0.012
		c-5.559,0.003-10.927,1.15-16.339,1.398c-1.072,0.05-2.143,0.074-3.214,0.075c-4.774,0-9.54-0.496-14.208-1.507
		c-11.498-2.487-23.15-7.234-32.132-14.835l-1.163-0.441c-0.963,0.016-1.765,0.755-1.787,1.739l0.511,1.199
		C1486.349,907.297,1497.115,914.306,1509.939,917.42z"/>
	<path d="M1568.192,912.127c1.398,0.005,2.529-0.564,3.255-1.419c0.73-0.853,1.077-1.956,1.078-3.048
		c0-1.092-0.348-2.193-1.078-3.045c-0.726-0.854-1.856-1.422-3.255-1.417c-1.399-0.005-2.529,0.564-3.256,1.418
		c-0.73,0.853-1.078,1.956-1.079,3.048c0.001,1.092,0.348,2.193,1.078,3.046C1565.661,911.564,1566.792,912.132,1568.192,912.127z"
		/>
	<path d="M1361.17,754.539c0.577,0.02,1.237-0.379,1.423-1.085l-0.6-0.17l0.6,0.17c2.469-8.738,3.535-18.346,4.429-27.309
		c0.973-9.761,1.641-19.547,1.919-29.357c0.117-4.13,0.172-8.248,0.172-12.359c0-15.508-0.792-30.912-2.059-46.427
		c-0.078-1.03-0.966-1.619-1.746-1.597l-1.109,0.408c-0.323,0.281-0.523,0.733-0.518,1.221l0,0.027l0,0
		c0.041,3.095,0.06,6.194,0.06,9.295c0,16.078-0.522,32.213-1.271,48.256c-0.438,9.396-0.948,18.792-1.534,28.18
		c-0.52,8.341-1.37,17.001-1.37,25.484c0,1.268,0.018,2.533,0.061,3.794C1359.66,753.995,1360.451,754.557,1361.17,754.539z"/>
	<path d="M1406.479,611.525l0.573-0.083l-0.171-0.6l0.172,0.599c13.663-3.915,27.08-8.334,40.529-12.888
		c6.472-2.191,12.935-4.401,19.371-6.713c6.482-2.331,13.461-4.341,19.594-7.796c0.735-0.401,1.132-1.116,1.12-1.798
		c-0.016-1.209-1.022-2.289-2.376-2.308l-0.38,0.031c-6.777,1.089-13.318,3.782-19.681,5.934
		c-6.729,2.279-13.411,4.663-20.091,7.063c-13.165,4.73-26.216,9.558-39.157,14.906c-0.826,0.335-1.237,1.12-1.227,1.826
		l0.435,1.233C1405.48,611.284,1405.952,611.53,1406.479,611.525z"/>
	<path d="M1694.866,937.391l-1.114,0.399l0,0h-0.001l0,0l0,0c-10.291,8.067-18.246,18.393-24.186,29.997
		c-5.076,9.925-9.555,21.789-9.559,33.301c0,1.258,0.053,2.513,0.166,3.759c0.127,1.358,1.262,2.195,2.375,2.189
		c0.87,0.021,1.795-0.563,2.093-1.627c1.717-5.761,2.814-11.609,4.376-17.328c1.647-6.031,3.904-11.827,6.546-17.505
		c5.151-11.072,12.413-21.253,20.543-30.376l0.466-1.154C1696.558,938.099,1695.78,937.398,1694.866,937.391z"/>
	<path d="M1674.225,1013.908l-0.605-1.15l-0.05-0.096l-0.08-0.073l-0.869-0.797l-0.088-0.081l-0.244-0.093
		c-0.43-0.358-0.972-0.667-1.651-0.667c-0.68,0-1.222,0.309-1.652,0.667l-0.133,0.051l-0.086,0.033l-0.699,0.54l-0.085,0.066
		l-0.698,1.087l-0.06,0.093l-0.29,1.3l-0.03,0.136l0.297,1.329l0.024,0.108l0.7,1.09l0.073,0.114l1.11,0.713l0.093,0.059
		l1.301,0.291l0.109,0.024l0.933-0.125l0.043-0.006l0.042-0.012c0.622-0.173,1.18-0.498,1.637-0.954l0.029-0.028l0.508-0.659
		l0.026-0.033l0.021-0.035c0.333-0.572,0.506-1.211,0.506-1.874v-0.043l-0.116-0.864L1674.225,1013.908z"/>
	<path d="M1798.444,862.794c0.826-0.002,1.745-0.456,2.026-1.432l-0.602-0.161l0.603,0.161c1.664-6.238,1.679-12.777,1.985-19.058
		c0.337-6.968,0.626-13.937,0.868-20.909c0.233-6.711,0.457-13.429,0.503-20.154c0.021-3.177,0.142-6.405,0.142-9.639
		c0-3.396-0.133-6.8-0.661-10.16c-0.157-0.974-1.055-1.434-1.794-1.415c-0.749-0.013-1.643,0.432-1.829,1.401
		c-1.146,6.292-0.92,12.744-1.177,19.009c-0.285,6.974-0.487,13.947-0.763,20.911c-0.267,6.708-0.577,13.414-0.931,20.118
		c-0.224,4.238-0.61,8.538-0.611,12.849c0,2.322,0.112,4.648,0.427,6.969C1796.751,862.3,1797.677,862.826,1798.444,862.794z"/>
	<path d="M1862.13,697.684c-3.098-0.001-6.059,0.915-8.679,2.526c-0.487,0.295-0.71,0.823-0.703,1.282
		c0.001,0.71,0.487,1.52,1.419,1.547l0.503-0.089c1.475-0.53,2.974-0.768,4.472-0.768c3.897-0.003,7.808,1.628,11.075,3.973
		c2.129,1.527,3.891,3.597,5.069,5.935c0.56,1.109,0.887,2.344,1.223,3.645c0.15,0.565,0.198,1.465,0.333,2.353
		c0.146,0.883,0.359,1.821,1.102,2.474c0.469,0.397,1.066,0.66,1.714,0.662l1.164-0.327c1.581-0.999,1.654-2.819,1.66-4.191
		l-0.004-0.541c-0.016-1.471-0.255-2.9-0.748-4.293c-0.967-2.726-2.49-5.182-4.434-7.304c-3.895-4.254-9.265-6.854-15.091-6.881l0,0
		L1862.13,697.684z"/>
	<path d="M1893.935,751.48c-0.008-1.091-0.916-1.777-1.797-1.779c-0.66-0.021-1.385,0.442-1.61,1.241h0
		c-0.62,2.028-0.92,4.144-0.92,6.262c0,4.353,1.263,8.716,3.641,12.349c1.828,2.792,4.152,5.203,6.892,7.114
		c1.274,0.885,2.732,1.822,4.387,2.194c0.854,0.189,1.718,0.32,2.578,0.414l0.511,0.027c0.756-0.003,1.358-0.161,1.984-0.22
		c0.968-0.138,1.609-0.926,1.644-1.831c0.021-0.524-0.335-1.11-0.919-1.343c-0.5-0.21-0.975-0.635-1.695-0.975
		c-0.59-0.272-1.165-0.577-1.723-0.912c-1.217-0.73-2.463-1.291-3.577-1.992c-2.145-1.347-4.048-3.171-5.507-5.247
		c-2.526-3.596-4.181-7.749-4.18-12.034c0-0.965,0.083-1.939,0.26-2.916L1893.935,751.48z"/>
	<path d="M1846.828,1158.747l-0.153,0.005l0,0c-0.001,0-0.002,0-0.002,0h-0.002l0,0c-9.652,0.661-19.423,2.982-28.836,4.759
		c-9.816,1.854-19.614,3.803-29.41,5.739c-20.004,3.952-39.989,8.001-59.954,12.148c-39.886,8.284-79.707,17.302-119.135,27.58
		c-0.584,0.13-0.958,0.699-0.932,1.179c0.002,0.631,0.481,1.302,1.289,1.316l0.263-0.026c39.634-7.788,79.177-16.105,118.706-24.368
		c19.547-4.086,39.113-8.08,58.698-11.981c9.792-1.951,19.589-3.877,29.39-5.782c10.043-1.952,20.687-3.462,30.531-6.562
		c0.97-0.308,1.436-1.218,1.427-2.029c-0.001-0.471-0.142-0.949-0.462-1.336C1847.932,1159.002,1847.412,1158.74,1846.828,1158.747z
		"/>
	<path d="M1828.914,1177.351v-0.003h-0.024c-7.819,0.003-16.272,2.171-23.757,3.828c-8.51,1.885-16.951,4.15-25.32,6.533
		c-16.13,4.592-31.583,10.345-46.857,17.249c-0.517,0.22-0.795,0.759-0.778,1.207c0.011,0.734,0.521,1.494,1.443,1.533l0.416-0.064
		c15.695-4.95,31.552-9.627,47.422-13.975c7.809-2.14,15.668-4.092,23.567-5.875c7.964-1.799,16.786-3.073,24.537-5.978
		c1.035-0.388,1.566-1.359,1.56-2.268c0-0.536-0.177-1.081-0.561-1.504C1830.18,1177.612,1829.589,1177.35,1828.914,1177.351z"/>
	<path d="M1785.507,655.256l0.417-0.066l-0.185-0.596l0.188,0.595c17.609-5.55,35.322-10.802,53.022-16.076
		c17.653-5.26,35.8-9.432,53.272-15.483c0.697-0.224,1.105-0.874,1.088-1.466c-0.002-0.785-0.623-1.588-1.588-1.589l-0.315,0.028
		c-18.188,3.195-36.045,9.025-53.642,14.312c-17.748,5.333-35.221,11.367-52.615,17.726c-0.596,0.208-0.91,0.789-0.896,1.281
		l0.309,0.885L1785.507,655.256z"/>
	<path d="M1841.276,623.137l0.392-0.041l-0.126-0.611l0.127,0.61c4.279-0.886,8.559-1.773,12.839-2.66
		c2.161-0.448,4.276-0.985,6.395-1.55c2.184-0.583,4.219-1.583,6.209-2.398c0.954-0.38,1.469-1.238,1.458-2.054
		c0-0.542-0.204-1.072-0.587-1.475c-0.38-0.404-0.952-0.663-1.601-0.66l-0.421,0.033c-2.123,0.331-4.378,0.528-6.549,1.16
		c-2.105,0.614-4.194,1.249-6.275,1.984c-4.123,1.456-8.245,2.913-12.368,4.37c-0.757,0.253-1.178,0.955-1.162,1.593
		C1839.608,622.264,1840.245,623.136,1841.276,623.137z"/>
	<path style="fill:#FFFFFF;" d="M1057.139,270.536c-11.527-13.638-26.933-28.749-44.749-33.489l-0.459-0.122l-0.623,1.069
		l-0.213,0.366l0.261,0.333c6.431,8.193,14.199,14.711,21.175,22.258c6.628,7.168,12.82,14.87,18.291,22.951
		c11.31,16.702,19.829,35.504,24.792,55.059c3.636,14.329,5.325,28.843,5.325,43.323c0,29.564-7.04,58.99-18.907,86.391
		l-0.189,0.921c0.028,1.302,0.964,2.513,2.302,2.565c0.569,0.005,1.15-0.287,1.572-0.816c21.233-26.112,31.774-60.143,31.775-93.64
		c0-3.806-0.136-7.604-0.408-11.385C1094.529,330.833,1079.994,297.598,1057.139,270.536z"/>
	<path style="fill:#FFFFFF;" d="M1052.967,489.327c-1.557-0.005-2.807,0.625-3.612,1.573c-0.81,0.945-1.197,2.171-1.197,3.387
		c0,1.215,0.387,2.44,1.196,3.384c0.805,0.946,2.055,1.577,3.613,1.571c1.557,0.006,2.806-0.625,3.612-1.573
		c0.809-0.945,1.196-2.171,1.197-3.387c0-1.215-0.387-2.44-1.196-3.384C1055.775,489.951,1054.525,489.322,1052.967,489.327z"/>
	<path style="fill:#FFFFFF;" d="M1213.682,1078.044c-21.441-30.797-47.412-59.311-81.154-76.79l-1.058-0.261
		c-1.304,0.022-2.378,1.052-2.406,2.328c-0.004,0.553,0.242,1.132,0.723,1.574c23.612,21.96,46.252,45.359,64.506,71.98
		c17.987,26.232,32.632,55.051,44.159,84.682c20.779,53.414,32.68,109.578,32.68,166.644c0,8.472-0.262,16.964-0.797,25.471
		c-1.123,17.865-4.097,35.587-9.037,52.794c-2.526,8.796-5.474,17.54-8.956,25.996c-3.629,8.813-7.356,18.147-12.093,26.322
		l-0.22,0.81c0.036,0.994,0.798,1.757,1.765,1.793l1.181-0.585c4.961-6.144,10.214-11.815,14.472-18.624
		c4.536-7.257,8.745-14.813,12.189-22.674c6.734-15.37,11.761-31.347,15.125-47.785c3.546-17.326,5.051-34.751,5.05-52.197
		c0-17.187-1.46-34.396-3.867-51.556C1276.588,1201.283,1252.277,1133.484,1213.682,1078.044z"/>
	<path style="fill:#FFFFFF;" d="M1225.507,1477.658c-2.001-0.005-3.583,0.798-4.611,2.004c-1.031,1.204-1.53,2.775-1.531,4.335
		c0,1.559,0.498,3.128,1.529,4.331c1.028,1.204,2.61,2.007,4.612,2.001c2.001,0.006,3.583-0.798,4.611-2.004
		c1.031-1.204,1.53-2.775,1.53-4.335c-0.001-1.559-0.498-3.129-1.529-4.332C1229.092,1478.454,1227.51,1477.652,1225.507,1477.658z"
		/>
	<path style="fill:#FFFFFF;" d="M797.735,1252.086c0.39,1.004,0.766,2.046,1.35,3.058c1.341,2.313,3.782,3.477,6.188,3.475
		c2.386,0.004,4.802-1.147,6.12-3.481c1.795-3.179,2.528-6.528,2.527-9.871c-0.003-5.612-2.04-11.206-4.533-16.191
		c-3.475-6.94-8.685-13.274-14.741-18.11c-6.351-5.07-13.533-9.384-21.659-11.084c-2.755-0.576-5.347-0.904-7.988-0.904
		c-1.684,0-3.387,0.133-5.162,0.418c-3.591,0.574-7.137,1.564-10.503,2.939c-2.062,0.829-3.759,2.539-3.758,4.943l0.062,0.806
		c0.371,2.48,2.439,4.538,5.097,4.545l0.07,0h0.004l0.404-0.003c5.685-0.002,11.206,1.764,16.81,3.809l1.228,0.48
		c0.607,0.275,1.214,0.556,1.831,0.832c1.448,0.646,2.866,1.324,4.241,2.086c1.382,0.767,2.725,1.601,4.029,2.497l1.39,1.002
		l1.222,1.008c2.261,1.952,4.333,4.119,6.215,6.446l0.706,0.954c0.415,0.594,0.814,1.198,1.2,1.812
		c0.898,1.427,1.719,2.903,2.452,4.419l0.565,1.294l0.459,1.227l0,0c0.545,1.569,0.925,3.225,1.456,4.879
		c0.598,1.858,1.207,3.725,2.102,5.53l0.323,0.652l0.176,0.34l0.076,0.133L797.735,1252.086z"/>
	<path style="fill:#FFFFFF;" d="M816.392,1277.881l-0.001-0.031l-0.004-0.029c-0.091-0.678-0.183-1.357-0.274-2.035l-0.006-0.043
		l-0.012-0.042c-0.39-1.395-1.106-2.623-2.127-3.65l-0.029-0.029l-0.836-0.646l-0.003,0.003c-0.804-0.726-1.757-1.228-2.827-1.484
		l0-0.002c-0.003-0.001-0.007-0.001-0.01-0.002c-0.004,0-0.007-0.003-0.011-0.004l-0.001,0.003c-0.69-0.183-1.528-0.229-2.219-0.3
		l-0.234-0.024l-0.541-0.054l-1.057-0.106l-0.018-0.002l-0.019,0l-0.272-0.005c-1.051-0.001-2.052,0.248-2.979,0.717l-0.002-0.003
		c-0.015,0.005-0.028,0.016-0.043,0.021c-0.017,0.009-0.037,0.011-0.054,0.02l0.002,0.004c-1.019,0.348-1.92,0.926-2.67,1.723
		l-0.003-0.003c-0.006,0.005-0.01,0.013-0.015,0.019c-0.006,0.005-0.012,0.008-0.017,0.014l0.003,0.002
		c-0.797,0.749-1.375,1.65-1.723,2.67l-0.004-0.002c-0.009,0.017-0.012,0.036-0.02,0.053c-0.005,0.016-0.016,0.028-0.021,0.044
		l0.003,0.001c-0.469,0.928-0.718,1.929-0.718,2.98l0.006,0.271l0.001,0.03l0.004,0.029c0.094,0.698,0.188,1.396,0.281,2.094
		l0.006,0.043l0.012,0.043c0.401,1.432,1.135,2.694,2.184,3.748l0.028,0.028l0.033,0.026c0.531,0.411,1.063,0.821,1.594,1.232
		l0.033,0.026l0.035,0.02c1.318,0.766,2.762,1.157,4.288,1.16h0.033l1.088-0.109l0.517-0.052l0.258-0.026
		c0.696-0.074,1.607-0.106,2.267-0.31l0.026-0.009l0.024-0.01c0.612-0.258,1.224-0.517,1.836-0.775l0.075-0.032l0.064-0.049
		c0.527-0.408,1.055-0.815,1.582-1.222l0.021-0.016l0.022-0.02c0.793-0.735,1.362-1.627,1.707-2.633l0.004,0.002
		c0.009-0.016,0.012-0.035,0.02-0.052c0.005-0.016,0.016-0.029,0.021-0.045l-0.004-0.001c0.457-0.903,0.7-1.878,0.698-2.901
		L816.392,1277.881z"/>
	<path style="fill:#FFFFFF;" d="M1300.255,927.594l-0.619-0.786l-0.825-1.26c-0.604-0.931-1.186-1.868-1.703-2.851
		c-0.264-0.501-0.499-1.013-0.745-1.523l-0.109-0.275c-0.385-1.052-0.74-2.11-1.032-3.191c-0.287-1.065-0.373-2.244-0.715-3.282
		l-0.026-0.064l-0.008-0.124c-0.053-0.613-0.116-1.222-0.15-1.836c-0.057-1.02-0.07-2.042-0.039-3.063
		c0.019-0.611,0.053-1.221,0.104-1.831l0.125-0.963c0.372-2.068,0.92-4.047,1.586-6.046l0.006-0.017
		c0.005,0.009,0.078-0.163,0.334-0.843c0.248-0.657,0.467-1.28,0.664-1.951c0.166-0.562,0.337-1.121,0.533-1.673
		c0.042-0.121,0.569-1.438,0.347-0.928c0.129-0.296,0.913-1.737,1.321-2.496c0.747-1.392,0.75-2.509,1.157-3.401
		c1.173-2.575-0.761-5.706-3.782-4.919c-1.617,0.421-2.661,0.256-4.339,1.355c-1.194,0.782-2.324,1.741-3.385,2.697
		c-2.077,1.873-4.081,4.074-5.244,6.627c-2.499,5.486-3.826,11.409-3.802,17.453c0.023,6.046,1.39,11.9,3.849,17.399
		c2.362,5.282,6.684,10.954,12.02,13.498c3.228,1.54,7.021,1.165,9.275-1.851c2.17-2.904,1.948-6.772-0.562-9.44
		C1303.088,930.519,1301.626,929.112,1300.255,927.594z"/>
	<path style="fill:#FFFFFF;" d="M1332.509,927.806c-0.005-0.016-0.016-0.029-0.021-0.045c-0.009-0.016-0.011-0.035-0.02-0.051
		l-0.004,0.002c-0.284-0.824-0.753-1.556-1.397-2.162l0.004-0.003c-0.006-0.006-0.014-0.01-0.019-0.015
		c-0.005-0.005-0.009-0.012-0.014-0.017l-0.002,0.003c-0.607-0.644-1.339-1.113-2.162-1.397l0.002-0.004
		c-0.017-0.009-0.037-0.012-0.055-0.021c-0.014-0.005-0.027-0.015-0.042-0.02l-0.001,0.003c-0.754-0.379-1.569-0.582-2.422-0.581
		l-0.223,0.004l-0.029,0.002l-0.029,0.004c-0.559,0.075-1.118,0.15-1.675,0.225l-0.043,0.006l-0.042,0.012
		c-1.166,0.326-2.195,0.925-3.053,1.779l-0.029,0.029l-1.01,1.308l-0.025,0.033l-0.021,0.035c-0.623,1.073-0.942,2.251-0.944,3.492
		v0.039l0.005,0.038c0.063,0.518,0.127,1.036,0.191,1.554l-0.003,0.16c-0.001,0.828,0.196,1.62,0.564,2.352l-0.004,0.001
		c0.005,0.016,0.016,0.03,0.022,0.047c0.009,0.016,0.011,0.034,0.02,0.05l0.004-0.002c0.277,0.8,0.732,1.51,1.357,2.099
		l-0.003,0.002c0.005,0.006,0.012,0.01,0.017,0.015c0.006,0.005,0.009,0.013,0.015,0.018l0.003-0.003
		c0.589,0.624,1.299,1.08,2.099,1.357l-0.003,0.004c0.018,0.01,0.036,0.012,0.054,0.02c0.015,0.005,0.028,0.016,0.044,0.021
		l0.001-0.004c0.732,0.367,1.524,0.565,2.352,0.564l0.214-0.004l0.031-0.001l0.03-0.004c0.541-0.072,1.083-0.145,1.624-0.219
		l0.044-0.005l0.042-0.012c1.132-0.316,2.133-0.899,2.965-1.729l0.029-0.029l0.98-1.268l0.025-0.032l0.021-0.036
		c0.593-1.021,0.893-2.142,0.908-3.32l0.006,0c0.065-0.532,0.131-1.065,0.196-1.597l0.003-0.029l0-0.024l0.004-0.221
		c0.001-0.853-0.202-1.668-0.581-2.422L1332.509,927.806z"/>
	<path style="fill:#FFFFFF;" d="M1532.008,857.271c-1.325-2.323-1.891-3.703-2.635-6.481c-0.614-2.302-0.923-4.694-0.923-7.101
		c0-2.392,0.305-4.799,0.92-7.147c1.096-4.187,3.248-8.058,6.254-11.421c3.479-3.896,6.421-7.51,10.929-10.151
		c1.318-0.776,1.905-2.209,1.902-3.57c-0.002-0.982-0.295-1.963-0.894-2.733c-0.593-0.77-1.538-1.31-2.679-1.304l-0.457,0.027
		c-6.488,0.747-13.538,2.874-18.625,7.329c-5.212,4.574-8.987,10.83-11.281,17.271c-1.419,3.988-2.042,8.219-2.042,12.447
		c0,3.297,0.378,6.593,1.057,9.773c0.722,3.384,2.072,7.812,4.171,11.701c2.1,3.879,4.953,7.269,8.801,8.407
		c0.629,0.185,1.279,0.27,1.93,0.27c3.895-0.013,7.956-3.041,7.995-7.262l-0.028-0.596
		C1535.973,862.184,1533.866,860.546,1532.008,857.271z"/>
	<path style="fill:#FFFFFF;" d="M1551.417,866.283c-2.096-0.005-3.75,0.835-4.825,2.096c-1.079,1.26-1.601,2.904-1.602,4.538
		c0.001,1.633,0.522,3.276,1.601,4.535c1.075,1.26,2.729,2.099,4.826,2.093c2.095,0.005,3.749-0.835,4.824-2.096
		c1.079-1.259,1.601-2.904,1.602-4.539c-0.001-1.633-0.522-3.276-1.6-4.534C1555.168,867.116,1553.514,866.277,1551.417,866.283z"/>
	<path style="fill:#FFFFFF;" d="M1583.306,613.508c-2.895-0.678-5.794-0.966-8.684-0.966c-10.486,0.005-20.836,3.784-30.589,6.688
		c-14.045,4.188-28.147,8.181-42.302,11.978c-27.941,7.497-56.305,13.671-83.116,24.907c-1.285,0.544-1.952,1.786-1.951,2.961
		c0,0.667,0.216,1.341,0.694,1.857c0.476,0.518,1.21,0.835,2.079,0.83h0.009l0.008,0l0.009,0
		c29.113-0.192,57.447-7.155,85.464-14.305c13.817-3.526,27.585-7.238,41.302-11.135c13.165-3.753,28.705-6.931,38.443-17.843
		c0.541-0.609,0.804-1.384,0.804-2.144C1585.494,615.12,1584.745,613.837,1583.306,613.508z"/>
	<path style="fill:#FFFFFF;" d="M1733.894,1000.275c-2.521-4.342-3.824-9.041-3.824-13.93l0.008-0.636
		c0.102-4.544,1.672-9.918,4.099-14.228c1.354-2.414,3.161-4.377,4.841-6.717c1.701-2.375,3.19-4.552,5.249-6.541
		c0.934-0.898,1.365-2.012,1.36-3.085c-0.014-2.434-2.071-4.659-4.715-4.677l-1.053,0.122l0,0
		c-3.505,0.816-7.222,2.052-10.346,3.992c-3.429,2.136-6.048,5.643-8.296,8.729c-4.664,6.415-7.082,14.025-7.495,21.888
		c-0.034,0.651-0.052,1.302-0.052,1.954c0.001,7.044,1.964,14.064,5.159,20.268c3.467,6.691,9.599,15.133,17.76,16.477l1.244,0.099
		c4.046-0.008,7.831-3.051,7.861-7.045c0.001-1.172-0.342-2.404-1.087-3.608C1741.415,1008.206,1736.643,1005.044,1733.894,1000.275
		z"/>
	<path style="fill:#FFFFFF;" d="M1769.488,996.213c-2.698-0.006-4.804,1.069-6.18,2.681c-1.38,1.611-2.053,3.723-2.054,5.825
		c0,2.101,0.673,4.212,2.052,5.821c1.376,1.61,3.482,2.683,6.182,2.678c2.699,0.005,4.804-1.069,6.18-2.682
		c1.38-1.61,2.053-3.723,2.054-5.825c-0.001-2.101-0.673-4.211-2.052-5.82C1774.294,997.28,1772.188,996.207,1769.488,996.213z"/>
	<path style="fill:#FFFFFF;" d="M1862.139,747.164c-0.626-2.112-1.609-4.212-2.833-6.046c-1.2-1.799-2.606-3.525-4.248-4.942
		c-0.626-0.539-1.281-1.141-2.001-1.535c-0.644-0.352-1.367-0.609-2.041-0.886c-1.367-0.561-2.833-0.909-4.21-0.479
		c-0.951-0.162-1.898-0.365-2.859-0.397c-2.68-0.089-3.829,3.887-1.392,5.139c0.502,0.258,0.994,0.535,1.468,0.841l0.322,0.217
		c0.52,1.03,1.364,1.856,2.202,2.82c0.706,0.814,1.511,1.513,2.241,2.306l0.526,0.618l-0.478,0.4l0.007,0.008l0,0l0.002,0.002
		l0.173,0.21l0.486-0.391l0.118,0.149l0.482,0.723c0.466,0.736,0.842,1.52,1.206,2.31c0.35,0.969,0.654,1.953,1.004,2.923
		c0.209,0.579,0.388,1.168,0.533,1.766c0.382,1.579,1.115,2.948,2.596,3.754c1.369,0.745,3.113,0.856,4.474,0
		c1.591-1.001,2.411-2.461,2.574-4.323l0.057-1.357C1862.55,749.748,1862.49,748.35,1862.139,747.164z M1844.898,739.465
		L1844.898,739.465l0.135,0.098L1844.898,739.465z M1849.504,745.05l0.003-0.003l0.25,0.293L1849.504,745.05z"/>
	<path style="fill:#FFFFFF;" d="M533.203,1621.03c1.678-0.029,2.797-1.496,2.806-2.948c0.014-0.863-0.452-1.784-1.408-2.266l0,0
		c-23.352-12.106-45.712-27.071-64.254-45.757c-18.35-18.491-32.854-40.32-44.135-63.779c-12.029-25.016-21.201-50.828-26.28-78.146
		c-4.018-21.614-5.77-43.706-5.77-65.768c0-10.938,0.431-21.867,1.229-32.728c1.398-19.022,3.95-38.038,6.97-56.881
		c1.514-9.446,2.883-18.905,4.543-28.308c1.686-9.573,1.723-19.068,3.875-28.429l0.059-0.507c-0.004-1.22-1.043-1.954-2.022-1.955
		c-0.759-0.017-1.592,0.469-1.894,1.386c-2.845,8.266-7.246,15.896-10.11,24.28c-3.064,8.98-5.821,18.185-8.101,27.396
		c-4.177,16.876-7.196,33.856-9.285,51.108c-2.06,17.01-3.182,34.077-3.182,51.136c0,17.915,1.237,35.82,3.925,53.643
		c4.378,29.015,12.52,58.358,25.962,84.602c12.679,24.756,29.964,47.521,49.726,67.021c21.641,21.354,47.017,38.75,76.622,46.802
		L533.203,1621.03z"/>
	<path style="fill:#FFFFFF;" d="M457.543,1534.916c3.439,5.516,7.852,10.603,12.228,15.32c4.378,4.719,9.074,9.184,14.246,13.061
		c5.034,3.766,10.666,7.945,17.304,8.661l0.286,0.015c1.878-0.046,3.168-1.788,3.188-3.49c0.001-0.57-0.157-1.158-0.521-1.661
		c-3.58-4.934-8.988-7.998-13.499-11.61c-4.708-3.76-9.354-7.542-13.651-11.725c-4.3-4.186-8.11-8.735-11.953-13.379
		c-3.837-4.637-7.622-9.225-11.021-14.162c-0.565-0.82-1.481-1.172-2.332-1.168c-0.662,0.002-1.313,0.199-1.836,0.592
		c-0.521,0.388-0.91,1.023-0.905,1.773l0.2,0.982C451.586,1523.902,454.231,1529.602,457.543,1534.916z"/>
	<path style="fill:#FFFFFF;" d="M1247.576,1298.335c0.409,0.957,1.34,1.404,2.189,1.389c1.172-0.01,2.396-0.704,2.764-1.969
		c0.876-3.223,1.194-6.546,1.194-9.886c0-5.77-0.95-11.595-1.669-17.066c-1.118-8.498-2.714-16.87-4.64-25.214
		c-1.969-8.534-4.12-17.103-6.836-25.456c-2.809-8.627-7.644-16.263-11.251-24.384l-1.021-0.668
		c-0.621,0.014-1.236,0.439-1.275,1.223l0.047,0.328c2.442,8.477,3.007,17.125,5.19,25.808c2.145,8.518,4.261,17.006,5.936,25.613
		c1.673,8.594,3.074,17.268,4.388,25.933C1243.815,1282.017,1244.205,1290.613,1247.576,1298.335z"/>
	<path style="fill:#FFFFFF;" d="M771.047,1250.834c-0.538-1.024-1.128-2.014-1.722-2.985c-1.168-1.907-2.432-3.754-3.784-5.535
		c-2.821-3.715-5.928-7.171-9.426-10.281c-0.821-0.727-1.895-1.141-2.981-1.143c-0.993-0.003-2.015,0.365-2.767,1.188
		c-0.746,0.814-1.151,1.872-1.151,2.936c-0.002,1.008,0.374,2.034,1.177,2.809c1.536,1.484,3.003,3.034,4.387,4.656l0,0l1.026,1.234
		l0.446,0.555l0.194,0.243c0.645,0.845,1.268,1.705,1.871,2.58c1.174,1.706,2.267,3.468,3.274,5.278
		c0.518,0.932,1.014,1.877,1.486,2.834c0.647,1.302,1.616,2.275,2.421,3.262c0.709,0.849,1.81,1.205,2.866,1.21
		c0.721-0.002,1.442-0.171,2.041-0.554c1.27-0.808,1.922-2.125,1.913-3.517l-0.087-0.929
		C771.989,1253.371,771.714,1252.104,771.047,1250.834z"/>
	<path style="fill:#FFFFFF;" d="M1056.329,323.367c-3.636-11.451-9.909-21.265-18.244-29.854c-0.489-0.508-1.131-0.74-1.734-0.736
		c-1.395,0.022-2.727,1.076-2.771,2.565c-0.002,0.456,0.151,0.933,0.458,1.357c6.322,8.792,10.935,19.104,13.874,29.543
		c1.451,5.157,2.411,10.434,2.773,15.773c0.077,1.147,0.104,2.299,0.104,3.456c0,2.324-0.106,4.667-0.107,7.02
		c0,2.061,0.082,4.132,0.395,6.205c0.28,2.074,1.922,3.096,3.512,3.054c1.839-0.014,3.793-1.093,4.524-2.922
		c1.101-2.859,1.445-5.989,1.446-9.12c0-3.012-0.321-6.029-0.619-8.811C1059.301,334.954,1058.142,329.076,1056.329,323.367z"/>
	<path style="fill:#FFFFFF;" d="M1309.137,889.734c-0.573,0-1.168,0.205-1.622,0.65c-1.044,1.027-1.45,2.26-1.903,3.41
		c-0.454,1.167-0.902,2.344-1.144,3.644c-0.437,2.357-0.759,4.743-0.959,7.132c-0.063,0.74-0.125,1.481-0.125,2.241
		c0,0.506,0.027,1.022,0.104,1.55c0.158,1.098,0.333,2.17,0.458,3.245c0.287,2.462,0.696,4.904,1.24,7.325
		c0.213,0.989,1.116,1.489,1.896,1.467c0.487-0.002,0.974-0.155,1.37-0.477c0.396-0.318,0.68-0.841,0.675-1.44l0-0.059v-0.013
		l0-0.004c-0.031-0.849-0.048-1.698-0.048-2.546c0-1.429,0.046-2.857,0.144-4.282c0.072-1.063,0.296-2.072,0.505-3.19
		c0.221-1.194,0.234-2.358,0.323-3.468c0.17-2.122,0.495-4.213,0.866-6.33c0.217-1.242,0.294-2.455,0.424-3.644
		c0.074-0.688,0.176-1.368,0.177-2.097c0-0.456-0.042-0.929-0.159-1.422C1311.093,890.32,1310.089,889.726,1309.137,889.734z"/>
	<path style="fill:#FFFFFF;" d="M1566.286,822.485L1566.286,822.485l-0.892-0.079c-1.426,0.005-2.607,0.574-3.782,1.047
		c-1.397,0.57-2.99,1.104-4.345,2.074c-2.486,1.787-4.862,3.741-7.072,5.866c-2.105,2.028-4.445,4.285-6.042,6.876
		c-1.529,2.486-2.727,5.188-3.805,7.848l-0.114,0.571c0.046,1.04,0.93,1.634,1.797,1.65l1.174-0.521
		c1.796-2.048,3.752-3.914,5.795-5.748c2.065-1.856,3.815-3.947,5.835-5.685c1.949-1.68,4.019-3.199,6.192-4.59
		c1.337-0.857,2.437-1.921,3.583-2.834c0.972-0.8,2.43-1.486,3.187-2.982l0.265-1.178
		C1568.079,823.838,1567.515,822.706,1566.286,822.485z"/>
	<path style="fill:#FFFFFF;" d="M1537.074,655.959c4.475-1.057,10.424-2.078,14.111-5.473c0.571-0.527,0.833-1.242,0.831-1.925
		c-0.003-1.2-0.761-2.395-2.048-2.754c-1.128-0.305-2.311-0.43-3.516-0.43c-3.981,0.004-8.234,1.34-11.648,2.22
		c-4.786,1.239-9.551,2.548-14.319,3.821c-9.911,2.644-19.821,5.287-29.732,7.932c-1.686,0.43-2.523,1.839-2.499,3.173
		c0.004,1.762,1.308,3.629,3.458,3.644l0.856-0.099c10.014-2.274,20.026-4.548,30.039-6.822
		C1527.426,658.15,1532.255,657.082,1537.074,655.959z"/>
	<path style="fill:#FFFFFF;" d="M1757.563,963.989l-0.273-0.011c-1.628,0.019-2.891,1.067-3.917,1.784
		c-1.151,0.822-2.395,1.725-3.412,2.828c-1.952,2.12-3.483,4.726-4.613,7.324c-1.234,2.84-1.778,5.998-1.778,9.154
		c0,2.926,0.467,5.851,1.3,8.533c0.48,1.61,1.813,2.424,3.092,2.403c1.726-0.003,3.49-1.346,3.497-3.471l-0.061-0.69
		c-0.192-1.093-0.277-2.128-0.277-3.134c-0.001-3.287,0.909-6.281,2.001-9.783c0.651-2.088,1.525-3.67,2.79-5.765
		c0.594-0.986,1.123-1.955,1.761-2.829c0.637-0.914,1.829-1.798,2.161-3.356l0.055-0.556
		C1759.911,965.123,1758.892,964.07,1757.563,963.989z"/>
	<path style="fill:#FFFFFF;" d="M591.65,1816.202c-5.282-12.249-14.095-22.435-24.667-30.373
		c-5.279-3.964-10.958-6.792-17.287-8.667c-3.411-1.011-7.047-1.293-10.664-1.294c-2.846,0-5.682,0.175-8.39,0.317
		c-2.508,0.12-3.964,2.114-3.942,4.075c-0.013,1.596,0.947,3.254,2.853,3.908c2.491,0.867,4.7,1.941,6.995,3.268
		c2.057,1.186,4.417,3.161,6.856,4.605c2.272,1.342,4.386,2.939,6.632,4.44c1.181,0.789,2.374,1.514,3.502,2.304
		c0.501,0.351,1.003,0.739,1.539,1.113v0l0.073,0.053l0.57,0.458c2.053,1.673,4.01,3.464,5.852,5.365
		c0.966,0.997,1.903,2.024,2.807,3.079c0.409,0.476,0.81,0.967,1.218,1.46l0.229,0.271l0.205,0.291l0.003,0.005
		c1.623,2.26,3.145,4.568,4.489,6.99c0.611,1.102,1.19,2.223,1.732,3.36c0.232,0.487,0.453,0.985,0.679,1.489h0
		c0.072,0.194,0.293,0.725,0.458,1.159c1.598,4.209,5.197,7.239,9.523,7.242c1.271,0,2.596-0.264,3.929-0.827
		c4.047-1.692,5.943-5.194,5.925-8.907C592.771,1819.671,592.381,1817.9,591.65,1816.202z"/>
	<path style="fill:#FFFFFF;" d="M600.049,1844.634c-2.666-0.005-4.748,1.056-6.109,2.651c-1.365,1.592-2.03,3.68-2.031,5.758
		c0.001,2.076,0.664,4.161,2.029,5.752c1.36,1.592,3.442,2.653,6.11,2.647c2.667,0.006,4.748-1.056,6.109-2.65
		c1.365-1.592,2.03-3.68,2.031-5.758c-0.001-2.076-0.665-4.162-2.029-5.753C604.8,1845.688,602.718,1844.628,600.049,1844.634z"/>
	<path style="fill:#FFFFFF;" d="M567.339,1846.643L567.339,1846.643c-0.954-1.417-1.987-2.765-2.963-4.121
		c-2.178-3.03-4.354-6.061-6.531-9.092c-4.282-5.966-8.564-11.932-12.846-17.897c-0.421-0.596-1.073-0.885-1.673-0.878
		c-1.018,0.001-2.028,0.744-2.052,1.911l0.3,1.039c3.775,6.401,7.551,12.801,11.326,19.202c1.827,3.098,3.653,6.195,5.478,9.293
		c0.951,1.613,1.832,3.38,2.943,4.995c1.126,1.631,2.681,2.851,4.158,3.968c0.427,0.325,0.918,0.485,1.388,0.484
		c1.537-0.048,2.667-1.431,2.697-2.898l-0.063-0.56C569.062,1850.208,568.466,1848.318,567.339,1846.643z"/>
</g>
</svg>
