<?xml version="1.0" encoding="utf-8"?>
<!-- Generator: Adobe Illustrator 27.5.0, SVG Export Plug-In . SVG Version: 6.00 Build 0)  -->
<svg version="1.1" xmlns="http://www.w3.org/2000/svg" xmlns:xlink="http://www.w3.org/1999/xlink" x="0px" y="0px"
	 viewBox="0 0 500 500" style="enable-background:new 0 0 500 500;" xml:space="preserve">
<g id="Background">
	<rect x="0" style="fill:#FFFFFF;" width="500" height="500"/>
</g>
<g id="Objects">
	<g>
		<text transform="matrix(1 0 0 1 178.588 50.5913)"><tspan x="0" y="0" style="fill:#6894D5; font-family:'BebasNeueBook'; font-size:29.8051px;">social </tspan><tspan x="64.884" y="0" style="fill:#6894D5; font-family:'BebasNeue'; font-size:29.8051px;">media</tspan></text>
		<text transform="matrix(1 0 0 1 211.5997 70.9854)" style="fill:#C75155; font-family:'Raleway-Medium'; font-size:16.6526px;"> ELEMENTS</text>
	</g>
	<g>
		<g>
			<g>
				<g>
					<path style="fill:#6894D5;" d="M226.353,361.569c0.026,0.418,0.087,2.168,0.505,2.229c0,0,3.413,0.013,7.455,0.013
						c2.021,0,4.199-0.003,6.187-0.013c1.987,0.01,4.166,0.013,6.187,0.013c4.042,0,7.455-0.013,7.455-0.013
						c0.419-0.061,0.48-1.811,0.505-2.229c0.192-3.092-0.139-6.088-2.744-7.799c-1.108-0.728-3.396-1.808-5.055-2.455
						c-2.961-1.155-3.171-4.629-1.959-4.858c2.818-0.532,3.114-0.991,3.49-1.606c0.267-0.437-0.304-0.974-0.348-2.27
						c-0.045-1.296,0.123-5.822-0.339-7.261c-0.399-1.242-1.986-6.427-7.192-6.427c-0.066-0.002-0.132-0.002-0.196-0.002
						c-1.756,0-2.661,0.581-3.296,1.424c-0.018,0.005-0.037,0.007-0.054,0.012c-3.812,1.492-2.458,3.695-3.312,4.682
						c-0.854,0.986-0.628,6.278-0.673,7.573s-0.616,1.832-0.348,2.27c0.376,0.615,0.672,1.074,3.49,1.606
						c1.212,0.229,1.002,3.703-1.959,4.858c-1.659,0.647-3.946,1.727-5.055,2.455C226.492,355.481,226.162,358.477,226.353,361.569z
						"/>
					<g>
						<path style="fill:#6894D5;" d="M271.22,352.759c-1.72-1.157-4.239-2.677-6.114-3.514c-1.955-0.874-2.954-2.416-3.111-3.994
							c-0.157-1.577,0.422-3.887,0.564-4.689c0.102-0.574,1.567-0.776,1.861-2.358c0.12-0.645,0.061-1.897-0.73-2.333
							c-0.024-0.172-0.012-1.194-0.003-1.358c0.092-1.852,0.575-1.336,0.346-3.828c-0.079-0.855-1.221-1.625-2.031-2.334
							c-0.813-0.712-1.495-1.886-4.471-1.889c-2.976,0.003-3.658,1.177-4.471,1.889c-0.81,0.709-1.952,1.479-2.031,2.334
							c-0.229,2.491,0.254,1.976,0.346,3.828c0.008,0.164,0.02,1.186-0.003,1.358c-0.791,0.436-0.85,1.688-0.73,2.333
							c0.294,1.582,1.779,1.804,1.881,2.378c0.142,0.801,0.741,3.091,0.584,4.669c-0.134,1.347-0.942,2.615-2.361,3.558
							c-0.501,0.333-0.456,0.838,0.087,1.097c1.01,0.482,1.962,0.994,2.655,1.449c4.503,2.957,4.167,8.358,4.041,10.392l-0.006,0.1
							c-0.023,0.419-0.055,0.971-0.155,1.553c-0.036,0.208,0.128,0.397,0.339,0.397h0.683h15.646
							C274.367,363.798,275.047,355.335,271.22,352.759z"/>
					</g>
				</g>
			</g>
		</g>
		<g>
			<path style="fill:#C85155;" d="M250.494,106c-10.63,0-19.248,7.858-19.248,17.552c0,5.518,2.795,10.44,7.162,13.657v8.056
				l7.041-4.774c1.608,0.397,3.298,0.613,5.045,0.613c10.63,0,19.248-7.858,19.248-17.552C269.742,113.858,261.125,106,250.494,106z
				 M252.821,128.682l-5.119-5.418l-9.24,5.418l9.705-10.769l5.118,5.418l9.24-5.418L252.821,128.682z"/>
		</g>
		<g>
			<g>
				<path style="fill:#C85155;" d="M269.248,231.578c-0.404-3.415-2.159-5.675-3.312-6.842v0c-3.759-3.885-9.852-3.885-13.611,0
					l-2.688,2.778l-2.688-2.778c-3.759-3.885-9.852-3.885-13.611,0l0,0c-1.153,1.167-2.909,3.427-3.312,6.842
					c-0.745,6.304,2.589,14.598,19.607,24.072v0.004c0.001-0.001,0.002-0.001,0.004-0.002c0.001,0.001,0.002,0.001,0.004,0.002
					v-0.004C266.66,246.176,269.993,237.882,269.248,231.578z"/>
			</g>
		</g>
		<g>
			<g>
				<path style="fill:#6894D5;" d="M359.066,160.214l-2.295-3.826c-1.06-1.766-1.62-3.789-1.62-5.848v-3.352
					c0-4.231-2.823-7.81-6.684-8.964v-2.4c0-1.475-1.199-2.674-2.674-2.674s-2.674,1.199-2.674,2.674v2.4
					c-3.861,1.154-6.684,4.733-6.684,8.964v3.352c0,2.059-0.56,4.08-1.619,5.846l-2.295,3.826c-0.124,0.207-0.127,0.464-0.008,0.674
					c0.119,0.21,0.34,0.34,0.58,0.34h25.401c0.241,0,0.463-0.13,0.582-0.338C359.193,160.679,359.189,160.42,359.066,160.214z"/>
				<path style="fill:#6894D5;" d="M345.792,166.517c1.86,0,3.456-1.099,4.21-2.674h-8.42
					C342.337,165.418,343.933,166.517,345.792,166.517z"/>
			</g>
		</g>
		<g>
			<g>
				<g>
					<g>
						<path style="fill:#6894D5;" d="M95.84,217.273h-5.761c-1.663,0-3.011,1.348-3.011,3.012v17.432
							c0,1.663,1.348,3.011,3.011,3.011h5.761c1.663,0,3.012-1.348,3.012-3.011v-17.432
							C98.852,218.622,97.503,217.273,95.84,217.273z"/>
						<path style="fill:#6894D5;" d="M128.807,223.427c0.165-1.692-1.001-3.142-2.574-3.435c1.81-0.469,3.047-2.361,2.427-4.415
							c-0.432-1.433-1.798-2.383-3.294-2.383H125.3h-10.986l2.1-7.345c0.357-1.254,0.538-2.551,0.538-3.855v-1.01
							c0-2.342-1.933-4.232-4.29-4.162c-1.311,0.039-2.338,1.151-2.338,2.463v2.631c0,1.289-0.42,2.543-1.196,3.571l-6.284,8.174
							c-0.966,1.256-1.49,2.797-1.49,4.382v17.586c0,1.126,0.913,2.04,2.04,2.04l21.095-0.028c1.424,0,2.578-1.154,2.578-2.578
							v-0.312c0-1.145-0.747-2.115-1.781-2.451c1.539-0.145,2.744-1.44,2.744-3.017c0-1.54-1.15-2.81-2.638-3.003h0.152
							C127.192,226.282,128.647,225.068,128.807,223.427z"/>
					</g>
				</g>
			</g>
		</g>
		<path style="fill:#6894D5;" d="M374.979,243.369c-0.15-0.039-0.226-0.127-0.226-0.245v-13.151c0-0.123,0.054-0.184,0.151-0.184
			c0.102-0.043,0.231-0.043,0.376,0l10.755,5.022c0.097,0,0.139,0.057,0.139,0.179c0,0.079-0.027,0.149-0.075,0.175l-10.82,8.147
			c0,0.039-0.064,0.057-0.145,0.057H374.979z M411.287,247.353h-35.254c-0.096,0-0.306-0.048-0.602-0.131
			c-0.103-0.079-0.156-0.14-0.156-0.179c0-0.123,0.027-0.202,0.092-0.245l13.755-10.402c0.086-0.079,0.215-0.079,0.366,0
			l3.597,1.655c0.554,0.245,1.081,0.245,1.581,0l4.135-1.952c0.21-0.088,0.323-0.066,0.377,0.053l12.325,10.769
			c0.053,0.044,0.08,0.145,0.08,0.302C411.475,247.305,411.373,247.353,411.287,247.353z M412.932,243.741
			c0,0.04-0.076,0.123-0.215,0.242h-0.161c-0.044,0-0.129-0.04-0.216-0.119l-10.238-8.996c-0.102-0.079-0.119-0.145-0.065-0.18
			c0-0.127,0.054-0.193,0.145-0.193l10.228-4.951h0.307c0.139,0.079,0.215,0.166,0.215,0.245V243.741z M412.932,226.304
			c0,0.162-0.107,0.245-0.301,0.245c-0.092,0.039-0.172,0.061-0.221,0.061c-0.059,0-0.124,0.018-0.231,0.057l-18.106,8.69
			c-0.048,0.04-0.134,0.062-0.231,0.062l-0.14-0.062l-18.724-8.69c-0.15,0-0.226-0.079-0.226-0.245v-3.244
			c0-0.323,0.124-0.582,0.382-0.766c0.242-0.179,0.548-0.271,0.897-0.271h35.62c0.354,0,0.656,0.092,0.904,0.271
			c0.258,0.184,0.376,0.443,0.376,0.766V226.304z"/>
		<path style="fill:#6894D5;" d="M179.539,144.783c-0.114-9.907-8.268-17.874-18.178-17.761l-0.002,0l-0.001,0l-0.001,0
			c-9.908,0.114-17.875,8.267-17.761,18.175c0.114,9.908,8.266,17.875,18.174,17.761l0.001,0l0.001,0l0.001,0
			C171.684,162.841,179.653,154.689,179.539,144.783z M161.751,160.984L161.751,160.984c-1.943,0.022-4.072-3.225-5.201-8.437
			c1.61,0.174,3.318,0.263,5.108,0.242c1.789-0.021,3.494-0.148,5.099-0.359C165.747,157.665,163.691,160.96,161.751,160.984z
			 M161.634,150.814c-1.955,0.022-3.779-0.095-5.458-0.309c-0.253-1.673-0.412-3.494-0.434-5.449
			c-0.022-1.955,0.094-3.779,0.309-5.458c1.673-0.253,3.494-0.412,5.449-0.435c1.954-0.022,3.778,0.094,5.456,0.309
			c0.253,1.673,0.412,3.494,0.435,5.45c0.022,1.955-0.095,3.779-0.309,5.458C165.409,150.633,163.588,150.792,161.634,150.814z
			 M154.128,150.18c-5.238-1.01-8.533-3.066-8.556-5.007c-0.022-1.941,3.225-4.071,8.438-5.201c-0.174,1.61-0.263,3.318-0.242,5.108
			C153.789,146.869,153.917,148.574,154.128,150.18z M161.381,128.995l0.002,0c1.941-0.021,4.071,3.225,5.201,8.437
			c-1.61-0.174-3.317-0.262-5.106-0.242c-1.79,0.021-3.495,0.148-5.101,0.359C157.386,132.313,159.44,129.018,161.381,128.995z
			 M169.005,139.798c5.238,1.009,8.533,3.065,8.556,5.006c0.022,1.942-3.225,4.073-8.438,5.203c0.174-1.61,0.263-3.318,0.242-5.108
			C169.344,143.11,169.216,141.404,169.005,139.798z M176.97,140.73c-1.912-1.371-4.782-2.428-8.294-3.016
			c-0.668-3.494-1.79-6.337-3.203-8.217C171.03,130.9,175.44,135.208,176.97,140.73z M157.305,129.589
			c-1.37,1.912-2.426,4.781-3.014,8.29c-3.496,0.668-6.341,1.791-8.221,3.205C147.474,135.528,151.783,131.118,157.305,129.589z
			 M146.165,149.249c1.912,1.371,4.782,2.428,8.292,3.016c0.668,3.495,1.79,6.339,3.204,8.218
			C152.104,159.081,147.694,154.772,146.165,149.249z M165.828,160.388c1.37-1.911,2.426-4.78,3.013-8.288
			c3.497-0.669,6.343-1.792,8.223-3.207C175.662,154.448,171.351,158.858,165.828,160.388z"/>
		<path style="fill:#6894D5;" d="M363.899,309.117c-1.541,0.676-3.183,1.124-4.894,1.341c1.761-1.051,3.105-2.704,3.737-4.695
			c-1.642,0.979-3.455,1.67-5.386,2.056c-1.559-1.66-3.781-2.688-6.205-2.688c-4.703,0-8.489,3.817-8.489,8.497
			c0,0.673,0.057,1.321,0.197,1.937c-7.062-0.344-13.311-3.729-17.508-8.885c-0.733,1.271-1.163,2.727-1.163,4.294
			c0,2.942,1.515,5.55,3.773,7.059c-1.365-0.026-2.704-0.422-3.838-1.046c0,0.026,0,0.06,0,0.093c0,4.128,2.944,7.557,6.806,8.346
			c-0.691,0.189-1.445,0.28-2.227,0.28c-0.544,0-1.093-0.031-1.608-0.145c1.101,3.364,4.224,5.837,7.937,5.917
			c-2.89,2.261-6.56,3.623-10.532,3.623c-0.697,0-1.365-0.031-2.033-0.117c3.763,2.426,8.222,3.812,13.031,3.812
			c15.631,0,24.177-12.948,24.177-24.172c0-0.375-0.013-0.738-0.031-1.098C361.327,312.331,362.744,310.837,363.899,309.117z"/>
		<g>
			<path style="fill:#6894D5;" d="M167.862,308.944l-14.15-3.651c-0.169-0.044-0.338-0.066-0.505-0.073
				c0.36-3.117-0.25-6.37-1.987-9.263c-4.185-6.969-13.258-9.233-20.226-5.049c-6.968,4.185-9.233,13.258-5.049,20.226
				c4.185,6.968,13.258,9.233,20.226,5.049c2.641-1.586,4.603-3.876,5.798-6.486c0.17,0.093,0.35,0.173,0.546,0.224l14.15,3.651
				c0.647,0.167,1.299,0.053,1.829-0.265c0.519-0.312,0.92-0.819,1.084-1.451C169.909,310.578,169.14,309.273,167.862,308.944z
				 M143.711,312.085c-4.708,2.827-10.839,1.297-13.667-3.411c-2.827-4.708-1.297-10.839,3.411-13.666
				c4.708-2.827,10.839-1.297,13.666,3.411C149.95,303.127,148.419,309.258,143.711,312.085z"/>
		</g>
		<g>
			<path style="fill:#6894D5;" d="M189.513,331.967c2.025,0,3.968,0.322,5.831,0.964c1.861,0.643,3.511,1.617,4.948,2.916
				c1.437,1.302,2.587,2.937,3.448,4.909c0.863,1.97,1.294,4.27,1.294,6.899c0,0.383-0.02,0.889-0.061,1.52
				c-0.041,0.629-0.13,1.3-0.267,2.011c-0.137,0.713-0.343,1.437-0.615,2.176c-0.274,0.739-0.652,1.411-1.13,2.013
				c-0.479,0.602-1.081,1.087-1.807,1.457s-1.594,0.554-2.607,0.554c-0.739,0-1.363-0.102-1.868-0.307
				c-0.508-0.206-0.911-0.459-1.213-0.761c-0.3-0.3-0.526-0.643-0.676-1.026c-0.152-0.383-0.254-0.752-0.309-1.109
				c-0.876,0.876-1.924,1.548-3.142,2.011c-1.218,0.467-2.498,0.7-3.84,0.7c-2.053,0-3.62-0.541-4.702-1.624
				c-1.081-1.081-1.622-2.483-1.622-4.209c0-1.148,0.226-2.12,0.678-2.916c0.452-0.794,1.033-1.429,1.746-1.909
				c0.711-0.479,1.525-0.822,2.444-1.026c0.916-0.205,1.853-0.309,2.812-0.309c1.068,0,1.978,0.104,2.731,0.309
				c0.754,0.205,1.322,0.389,1.704,0.554c0-0.657-0.068-1.259-0.205-1.807s-0.376-1.013-0.719-1.396
				c-0.342-0.383-0.807-0.685-1.396-0.904c-0.589-0.218-1.335-0.328-2.237-0.328c-1.15,0-2.17,0.158-3.059,0.472
				c-0.891,0.315-1.65,0.747-2.28,1.294l-1.15-3.407c2.026-1.37,4.409-2.054,7.146-2.054c1.861,0,3.312,0.28,4.353,0.841
				c1.04,0.563,1.813,1.267,2.32,2.115c0.507,0.85,0.815,1.787,0.924,2.813c0.109,1.026,0.165,1.992,0.165,2.894v3.368
				c0,0.602,0.013,1.198,0.041,1.787c0.026,0.589,0.109,1.109,0.246,1.561c0.137,0.45,0.342,0.82,0.615,1.109
				c0.274,0.287,0.643,0.431,1.109,0.431c0.685,0,1.246-0.267,1.685-0.8c0.437-0.535,0.766-1.178,0.985-1.93
				c0.219-0.752,0.37-1.533,0.452-2.341c0.082-0.807,0.122-1.47,0.122-1.992c0-1.861-0.307-3.585-0.924-5.174
				c-0.615-1.587-1.498-2.962-2.648-4.127c-1.15-1.163-2.533-2.074-4.148-2.731c-1.615-0.657-3.407-0.985-5.379-0.985
				c-1.944,0-3.709,0.322-5.296,0.965c-1.589,0.643-2.944,1.533-4.066,2.668c-1.124,1.137-1.992,2.491-2.609,4.066
				c-0.615,1.576-0.924,3.293-0.924,5.155c0,1.779,0.289,3.448,0.863,5.009c0.574,1.561,1.396,2.93,2.463,4.107
				c1.068,1.176,2.361,2.1,3.881,2.772c1.52,0.67,3.237,1.005,5.155,1.005c1.368,0,2.525-0.15,3.47-0.45
				c0.944-0.302,1.935-0.672,2.977-1.109l0.739,2.422c-1.15,0.548-2.341,0.959-3.572,1.233c-1.233,0.272-2.465,0.411-3.696,0.411
				c-2.054,0-3.983-0.37-5.79-1.109s-3.389-1.78-4.744-3.122c-1.355-1.341-2.422-2.963-3.203-4.866
				c-0.78-1.902-1.17-4.031-1.17-6.385c0-2.463,0.431-4.646,1.292-6.551c0.863-1.902,2.02-3.496,3.472-4.783
				c1.45-1.287,3.12-2.265,5.009-2.937C185.447,332.302,187.431,331.967,189.513,331.967z M191.361,352.908
				c0.574-0.272,1.033-0.629,1.374-1.068c0.343-0.437,0.513-0.931,0.513-1.478v-1.642c-0.383-0.137-0.978-0.302-1.785-0.493
				c-0.809-0.191-1.663-0.287-2.567-0.287c-1.231,0-2.183,0.239-2.853,0.719c-0.672,0.479-1.007,1.252-1.007,2.32
				c0,0.876,0.246,1.546,0.739,2.011c0.492,0.467,1.218,0.698,2.176,0.698c0.465,0,1.02-0.061,1.663-0.185
				C190.257,353.382,190.84,353.182,191.361,352.908z"/>
		</g>
		<g>
			<path style="fill:#6894D5;" d="M167.726,370.742h-5.887l-1.046,4.415h5.036v4.61h-6.158l-1.667,6.933h-4.957l1.704-6.933h-3.525
				l-1.704,6.933h-4.958l1.743-6.933h-4.376v-4.61h5.461l1.046-4.415h-4.61v-4.26h5.655l1.782-7.282h4.958l-1.821,7.282h3.564
				l1.78-7.282h4.958l-1.821,7.282h4.842V370.742z M155.875,375.157l1.046-4.415h-3.564l-1.046,4.415H155.875z"/>
		</g>
		<g>
			<path style="fill:#6894D5;" d="M304.952,279.558h-11.778c-1.043,0-1.893-0.85-1.893-1.893V263.54l1.621,1.621
				c0.43,0.43,0.993,0.645,1.557,0.645s1.127-0.215,1.557-0.645c0.86-0.86,0.86-2.253,0-3.113l-5.487-5.485
				c-0.86-0.86-2.253-0.86-3.113,0l-5.485,5.485c-0.86,0.86-0.86,2.253,0,3.113c0.86,0.86,2.253,0.86,3.113,0l1.835-1.835v14.339
				c0,3.472,2.825,6.297,6.297,6.297h11.778c1.215,0,2.202-0.986,2.202-2.202S306.167,279.558,304.952,279.558z"/>
			<path style="fill:#6894D5;" d="M320.635,271.421c-0.86-0.86-2.253-0.86-3.113,0l-1.835,1.835v-14.339
				c0-3.471-2.825-6.297-6.297-6.297h-12.145c-1.215,0-2.202,0.986-2.202,2.202s0.986,2.202,2.202,2.202h12.145
				c1.043,0,1.893,0.85,1.893,1.893v14.125l-1.621-1.621c-0.86-0.86-2.253-0.86-3.113,0c-0.86,0.86-0.86,2.253,0,3.113l5.487,5.485
				c0.43,0.43,0.993,0.645,1.557,0.645s1.127-0.215,1.557-0.645l5.485-5.485C321.495,273.675,321.495,272.281,320.635,271.421z"/>
		</g>
		<g>
			<path style="fill:#6894D5;" d="M201.621,233.458c-0.422,0-0.848-0.082-1.254-0.251c-1.228-0.509-2.02-1.695-2.02-3.022v-4.982
				h-0.492c-6.275,0-11.379-5.105-11.379-11.379v-3.73c0-6.275,5.105-11.379,11.379-11.379h10.176
				c6.275,0,11.379,5.105,11.379,11.379v3.73c-0.456,10.327-13.787,17.882-15.832,18.98
				C203.008,233.234,202.32,233.458,201.621,233.458z M197.855,203.495c-3.639,0-6.599,2.96-6.599,6.599v3.73
				c0,3.639,2.96,6.599,6.599,6.599h0.848c2.44,0,4.424,1.986,4.424,4.426v2.7c4.316-2.669,11.252-8.13,11.505-13.831l-0.003-3.625
				c0-3.639-2.96-6.599-6.599-6.599H197.855z"/>
		</g>
		<g>
			<path style="fill:#6894D5;" d="M209.229,254.081h-12.914c-5.248,0-9.518,4.27-9.518,9.518v12.914c0,5.248,4.27,9.518,9.518,9.518
				h12.914c5.248,0,9.518-4.27,9.518-9.518v-12.914C218.746,258.351,214.477,254.081,209.229,254.081z M215.532,276.513
				c0,3.482-2.822,6.304-6.304,6.304h-12.914c-3.482,0-6.304-2.822-6.304-6.304v-12.914c0-3.482,2.822-6.304,6.304-6.304h12.914
				c3.482,0,6.304,2.822,6.304,6.304V276.513L215.532,276.513z"/>
			<path style="fill:#6894D5;" d="M202.772,261.793c-4.556,0-8.263,3.707-8.263,8.263c0,4.556,3.707,8.263,8.263,8.263
				c4.556,0,8.263-3.707,8.263-8.263C211.035,265.5,207.328,261.793,202.772,261.793z M202.772,275.105
				c-2.789,0-5.049-2.261-5.049-5.049c0-2.789,2.261-5.049,5.049-5.049c2.789,0,5.049,2.261,5.049,5.049
				C207.821,272.845,205.56,275.105,202.772,275.105z"/>
			<circle style="fill:#6894D5;" cx="211.051" cy="261.855" r="1.98"/>
		</g>
		<g>
			<path style="fill:#6894D5;" d="M319.41,212.36c0,10.088-8.179,18.267-18.267,18.267s-18.267-8.179-18.267-18.267
				s8.179-18.267,18.267-18.267S319.41,202.272,319.41,212.36L319.41,212.36z M319.41,212.36"/>
			<path style="fill:#F1F2F2;" d="M302.617,218.555c-1.38-0.108-1.96-0.792-3.043-1.45c-0.596,3.123-1.323,6.117-3.478,7.681
				c-0.665-4.72,0.976-8.266,1.739-12.028c-1.299-2.189,0.156-6.594,2.898-5.508c3.374,1.334-2.922,8.136,1.305,8.985
				c4.412,0.887,6.214-7.656,3.477-10.435c-3.954-4.012-11.51-0.091-10.58,5.652c0.226,1.404,1.677,1.83,0.579,3.768
				c-2.53-0.561-3.285-2.557-3.188-5.216c0.157-4.355,3.913-7.404,7.681-7.827c4.767-0.533,9.239,1.75,9.856,6.232
				C310.559,213.469,307.713,218.948,302.617,218.555L302.617,218.555z M302.617,218.555"/>
		</g>
		<g>
			<path style="fill:#6894D5;" d="M266.641,176.682l-13.925-13.62c-0.381-0.373-0.99-0.373-1.371,0l-13.925,13.62
				c-0.625,0.611-0.977,1.448-0.977,2.322v15.652c0,0.541,0.439,0.98,0.98,0.98h9.707c0.541,0,0.98-0.439,0.98-0.98v-13.267
				c0-0.541,0.439-0.98,0.98-0.98h5.881c0.541,0,0.98,0.439,0.98,0.98v13.267c0,0.541,0.439,0.98,0.98,0.98h9.707
				c0.541,0,0.98-0.439,0.98-0.98v-15.652C267.617,178.13,267.265,177.293,266.641,176.682z"/>
		</g>
		<g>
			<path style="fill:#6894D5;" d="M249.798,289.141c-2.563,0-4.649,2.085-4.649,4.649c0,2.562,2.085,4.647,4.649,4.647
				c2.562,0,4.647-2.085,4.647-4.647C254.445,291.226,252.359,289.141,249.798,289.141z"/>
			<path style="fill:#6894D5;" d="M263.579,283.206h-5.119c-1.011,0-1.927-0.594-2.34-1.517l-0.566-1.266
				c-0.514-1.15-1.656-1.89-2.915-1.89h-5.685c-1.259,0-2.401,0.74-2.915,1.89l-0.566,1.266c-0.412,0.923-1.329,1.517-2.34,1.517
				h-5.119c-1.657,0-3.001,1.343-3.001,3.001v16.517c0,1.657,1.343,3.001,3.001,3.001h27.564c1.657,0,3.001-1.343,3.001-3.001
				v-16.517C266.58,284.55,265.236,283.206,263.579,283.206z M249.798,303.217c-5.2,0-9.429-4.23-9.429-9.428
				c0-5.199,4.23-9.429,9.429-9.429c5.198,0,9.428,4.23,9.428,9.429C259.226,298.987,254.996,303.217,249.798,303.217z"/>
		</g>
		<path style="fill:#C85155;" d="M393.647,178.017c-0.554-0.642-1.391-0.926-2.194-0.794h-30.966c-0.988,0-1.874,0.609-2.23,1.53
			c-0.356,0.921-0.107,1.967,0.624,2.63l10.711,9.72l1.666,14.232c0.115,0.98,0.822,1.79,1.779,2.036
			c0.198,0.051,0.398,0.076,0.596,0.076c0.759,0,1.489-0.363,1.945-1.001l18.207-25.478
			C394.425,180.071,394.369,178.851,393.647,178.017z M381.903,182.004l-9.716,5l-5.51-5H381.903z M375.286,198.631l-0.866-7.392
			l9.719-4.998L375.286,198.631z"/>
		<g>
			<path style="fill-rule:evenodd;clip-rule:evenodd;fill:#6894D5;" d="M308.347,116.694c3.38,0.083,6.533,1.086,9.59,2.448
				c2.436,1.086,4.658,2.567,6.688,4.287c0.429,0.346,0.98,0.644,0.883,1.349c-1.026,1.003-2.09,1.97-3.08,2.997
				c-0.394,0.406-0.597,0.406-1.015,0.012c-3.691-3.343-8.061-5.35-12.993-5.899c-7.177-0.812-13.531,1.206-18.94,6.042
				c-0.132,0.12-0.275,0.263-0.706,0.646c-1.074-1.207-2.149-2.425-3.223-3.643c-0.132-0.633,0.358-0.92,0.74-1.242
				c2.245-1.993,4.729-3.594,7.475-4.764c2.245-0.992,4.563-1.719,6.998-2.09c0.741-0.095,1.505-0.143,2.245-0.143
				c0.621,0.012,1.862,0,2.484,0C306.21,116.694,307.62,116.682,308.347,116.694z"/>
			<path style="fill-rule:evenodd;clip-rule:evenodd;fill:#6894D5;" d="M304.801,149.857c-1.696-0.43-3.093-1.266-3.894-2.902
				c-1.301-2.711-0.023-5.971,2.794-7.034c2.795-1.05,5.924,0.501,6.76,3.332c0.847,2.925-0.944,5.839-3.941,6.46
				c-0.071,0.023-0.179,0.095-0.263,0.143C305.756,149.857,305.255,149.857,304.801,149.857z"/>
			<path style="fill-rule:evenodd;clip-rule:evenodd;fill:#6894D5;" d="M305.613,124.36c5.23,0.048,9.888,1.768,13.9,5.242
				c0.478,0.418,0.526,0.658,0.024,1.112c-0.932,0.835-1.816,1.779-2.699,2.699c-0.3,0.286-0.454,0.311-0.764,0.023
				c-3.463-3.045-7.524-4.335-12.086-3.929c-3.368,0.311-6.365,1.624-8.885,3.906c-0.406,0.369-0.632,0.394-1.015-0.012
				c-0.872-0.944-1.803-1.864-2.759-2.771c-0.346-0.311-0.322-0.466,0.024-0.764C295.391,126.236,300.143,124.42,305.613,124.36z"/>
			<path style="fill-rule:evenodd;clip-rule:evenodd;fill:#6894D5;" d="M311.106,139.132c-3.2-2.865-7.571-2.997-10.771-0.334
				c-0.311,0.251-0.478,0.346-0.789,0.012c-0.907-0.932-1.815-1.851-2.782-2.747c-0.275-0.263-0.287-0.383,0-0.669
				c4.526-4.395,12.933-4.43,17.519-0.037c0.263,0.263,0.168,0.395-0.048,0.61C313.221,136.995,312.169,138.034,311.106,139.132z"/>
		</g>
		<path style="fill:#6894D5;" d="M349.059,249.962c-0.546,0.053-1.063,0.188-1.545,0.388l-7.939-6.524
			c0.15-0.494,0.254-1.008,0.254-1.552c0-0.709-0.145-1.382-0.394-2.002l8.079-6.639c0.481,0.2,0.999,0.334,1.545,0.388
			c2.957,0.289,5.589-1.873,5.879-4.83s-1.873-5.589-4.83-5.879c-2.957-0.289-5.589,1.873-5.879,4.83
			c-0.064,0.65-0.003,1.281,0.153,1.878l-8.594,7.062c-0.43-0.111-0.873-0.188-1.338-0.188c-2.971,0-5.38,2.409-5.38,5.38
			c0,2.971,2.409,5.38,5.38,5.38c0.648,0,1.262-0.133,1.837-0.343l8.094,6.652c-0.155,0.597-0.216,1.228-0.153,1.878
			c0.289,2.957,2.921,5.12,5.879,4.83s5.12-2.921,4.83-5.879C354.648,251.835,352.016,249.673,349.059,249.962z"/>
		<g>
			<circle style="fill-rule:evenodd;clip-rule:evenodd;fill:#6894D5;" cx="198.408" cy="118.434" r="6.782"/>
			<path style="fill-rule:evenodd;clip-rule:evenodd;fill:#6894D5;" d="M204.087,144.786h-11.499c-1.312,0-2.375-1.063-2.375-2.375
				V132.12c0-1.979,1.604-3.583,3.583-3.583h9.082c1.979,0,3.583,1.604,3.583,3.583v10.291
				C206.462,143.722,205.399,144.786,204.087,144.786z"/>
			<circle style="fill-rule:evenodd;clip-rule:evenodd;fill:#6894D5;" cx="215.411" cy="121.779" r="4.878"/>
			<path style="fill-rule:evenodd;clip-rule:evenodd;fill:#6894D5;" d="M218.828,140.731h-6.936c-1.312,0-2.375-1.063-2.375-2.375
				v-5.728c0-1.979,1.604-3.583,3.583-3.583h4.52c1.979,0,3.583,1.604,3.583,3.583v5.728
				C221.203,139.668,220.14,140.731,218.828,140.731z"/>
		</g>
		<g>
			<path style="fill:#C85155;" d="M375.406,302.268c-0.503,0-1.012-0.098-1.496-0.299c-1.463-0.605-2.408-2.018-2.408-3.601v-3.043
				c0-0.773-0.63-1.404-1.404-1.404h-0.697c-4.277,0-7.755-3.478-7.755-7.755v-13.224c0-4.277,3.478-7.755,7.755-7.755h22.206
				c4.275,0,7.753,3.478,7.753,7.755v13.224c0,4.277-3.478,7.755-7.753,7.755h-5.665c-0.375,0-0.728,0.146-0.993,0.411l-6.792,6.792
				C377.412,301.873,376.419,302.268,375.406,302.268z M369.402,269.969c-1.64,0-2.974,1.334-2.974,2.974v13.224
				c0,1.64,1.334,2.974,2.974,2.974h0.697c3.41,0,6.185,2.775,6.185,6.185v0.914l5.287-5.287c1.167-1.169,2.72-1.811,4.373-1.811
				h5.665c1.639,0,2.972-1.334,2.972-2.974v-13.224c0-1.64-1.334-2.974-2.972-2.974H369.402z"/>
		</g>
		<g>
			<path style="fill:#C85155;" d="M117.299,281.97c-0.308,0-0.619-0.059-0.915-0.182c-0.893-0.37-1.475-1.242-1.475-2.208v-7.181
				c-3.653,0.107-10.388,1.693-15.843,8.371c-0.601,0.733-1.575,1.049-2.495,0.791c-0.914-0.255-1.591-1.027-1.724-1.967
				c-0.053-0.374-1.233-9.215,4.474-16.034c3.505-4.189,8.742-6.637,15.588-7.291v-7.055c0-0.966,0.582-1.838,1.475-2.208
				c0.892-0.369,1.922-0.165,2.605,0.518l15.183,15.183c0.934,0.934,0.934,2.446,0,3.38l-15.183,15.183
				C118.532,281.727,117.92,281.97,117.299,281.97z M115.228,267.599c0.929,0,1.773,0.075,2.506,0.21
				c1.133,0.209,1.956,1.197,1.956,2.35v3.649l9.412-9.412l-9.412-9.412v3.522c0,1.287-1.018,2.342-2.303,2.389
				c-6.572,0.238-11.417,2.166-14.399,5.732c-1.773,2.118-2.667,4.537-3.106,6.665C105.213,269.09,111.074,267.599,115.228,267.599z
				"/>
		</g>
		<g>
			<path style="fill:#C85155;" d="M309.957,352.886H292.21c-2.14,0-3.875-1.735-3.875-3.875v-17.748c0-2.14,1.735-3.875,3.875-3.875
				h17.748c2.14,0,3.875,1.735,3.875,3.875v17.748C313.832,351.151,312.098,352.886,309.957,352.886z"/>
			<path style="fill:#FFFFFF;" d="M304.342,338.438h-2.032v-2.031c0-0.808-0.655-1.463-1.463-1.463
				c-0.808,0-1.463,0.655-1.463,1.463v2.031h-2.031c-0.808,0-1.463,0.655-1.463,1.463c0,0.808,0.655,1.463,1.463,1.463h2.031v2.032
				c0,0.808,0.655,1.463,1.463,1.463c0.808,0,1.463-0.655,1.463-1.463v-2.032h2.032c0.808,0,1.463-0.655,1.463-1.463
				C305.805,339.093,305.15,338.438,304.342,338.438z"/>
		</g>
		<g>
			<g>
				<g>
					<path style="fill:#6894D5;" d="M161.755,190.147c-5.058,0-9.173-4.115-9.173-9.173s4.115-9.173,9.173-9.173
						s9.173,4.115,9.173,9.173S166.813,190.147,161.755,190.147z M161.755,176.582c-2.422,0-4.392,1.97-4.392,4.392
						s1.97,4.392,4.392,4.392s4.392-1.97,4.392-4.392S164.177,176.582,161.755,176.582z"/>
				</g>
				<g>
					<path style="fill:#6894D5;" d="M169.809,209.527c-1.32,0-2.39-1.071-2.39-2.39v-6.754c0-1.83-1.489-3.32-3.32-3.32h-4.829
						c-1.83,0-3.32,1.489-3.32,3.32v6.289c0,1.32-1.071,2.39-2.39,2.39s-2.39-1.071-2.39-2.39v-6.289c0-4.466,3.634-8.1,8.1-8.1
						h4.829c4.466,0,8.1,3.634,8.1,8.1v6.754C172.2,208.456,171.129,209.527,169.809,209.527z"/>
				</g>
			</g>
			<path style="fill:#6894D5;" d="M150.757,188.438h-2.032v-2.031c0-0.808-0.655-1.463-1.463-1.463
				c-0.808,0-1.463,0.655-1.463,1.463v2.031h-2.031c-0.808,0-1.463,0.655-1.463,1.463s0.655,1.463,1.463,1.463h2.031v2.032
				c0,0.808,0.655,1.463,1.463,1.463c0.808,0,1.463-0.655,1.463-1.463v-2.032h2.032c0.808,0,1.463-0.655,1.463-1.463
				S151.565,188.438,150.757,188.438z"/>
		</g>
		<g>
			<circle style="fill:#C85155;" cx="124.434" cy="169.221" r="10.757"/>
			<g>
				<path style="fill:#FFFFFF;" d="M125.343,167.241h-4.14v-2.021h7.629l-4.846,9.831h-2.506L125.343,167.241z"/>
			</g>
		</g>
		<g>
			<circle style="fill:#C85155;" cx="206.354" cy="312.815" r="10.757"/>
			<g>
				<path style="fill:#FFFFFF;" d="M206.575,311.278c0.471,0,0.905,0.078,1.302,0.235s0.741,0.374,1.031,0.65
					c0.291,0.277,0.518,0.609,0.679,0.997s0.242,0.816,0.242,1.287c0,0.499-0.092,0.954-0.276,1.364
					c-0.186,0.41-0.441,0.764-0.769,1.06c-0.328,0.295-0.718,0.523-1.17,0.685c-0.453,0.162-0.951,0.243-1.496,0.243
					c-0.72,0-1.366-0.144-1.938-0.43c-0.573-0.286-1.007-0.688-1.302-1.204l1.232-1.371c0.268,0.323,0.579,0.581,0.935,0.775
					c0.354,0.193,0.717,0.291,1.087,0.291c0.434,0,0.779-0.125,1.038-0.374c0.258-0.249,0.388-0.582,0.388-0.997
					c0-0.396-0.12-0.715-0.36-0.955s-0.554-0.36-0.941-0.36c-0.249,0-0.479,0.056-0.692,0.166c-0.212,0.111-0.383,0.268-0.512,0.471
					h-1.925c0-0.009,0.019-0.104,0.056-0.283c0.036-0.181,0.08-0.413,0.131-0.699s0.111-0.607,0.181-0.963
					c0.069-0.354,0.141-0.718,0.214-1.087c0.167-0.867,0.355-1.851,0.568-2.949h4.888v2.021h-3.282l-0.276,1.676
					c0.056-0.064,0.164-0.122,0.325-0.173S206.307,311.278,206.575,311.278z"/>
			</g>
		</g>
		<g>
			<circle style="fill:#C85155;" cx="151.815" cy="342.394" r="10.757"/>
			<g>
				<path style="fill:#FFFFFF;" d="M153.488,341.97c0.286,0.056,0.549,0.154,0.789,0.298c0.24,0.143,0.445,0.323,0.616,0.54
					s0.302,0.466,0.395,0.747c0.092,0.282,0.139,0.584,0.139,0.907c0,0.434-0.088,0.823-0.264,1.17
					c-0.175,0.346-0.427,0.642-0.754,0.886c-0.328,0.245-0.723,0.434-1.184,0.568c-0.462,0.133-0.979,0.2-1.551,0.2
					c-1.403,0-2.502-0.411-3.296-1.232l1.191-1.578c0.249,0.259,0.532,0.455,0.852,0.589c0.318,0.134,0.698,0.2,1.142,0.2
					c1.043,0,1.564-0.383,1.564-1.149c0-0.415-0.154-0.729-0.464-0.941c-0.309-0.212-0.796-0.318-1.46-0.318h-0.416v-1.592h0.457
					c0.517,0,0.921-0.106,1.212-0.318c0.29-0.213,0.436-0.494,0.436-0.845c0-0.305-0.106-0.535-0.318-0.692
					s-0.494-0.235-0.845-0.235c-0.378,0-0.722,0.09-1.031,0.27c-0.31,0.181-0.57,0.437-0.782,0.769l-1.398-1.605
					c0.147-0.194,0.342-0.374,0.582-0.54c0.239-0.166,0.512-0.307,0.816-0.423c0.305-0.115,0.632-0.205,0.983-0.27
					c0.351-0.064,0.71-0.097,1.08-0.097c0.488,0,0.937,0.058,1.343,0.173s0.752,0.281,1.038,0.498s0.508,0.476,0.665,0.775
					c0.156,0.3,0.235,0.635,0.235,1.004c0,0.277-0.044,0.54-0.132,0.789s-0.21,0.476-0.367,0.679s-0.344,0.371-0.561,0.505
					S153.745,341.924,153.488,341.97z"/>
			</g>
		</g>
		<g>
			<circle style="fill:#C85155;" cx="137.87" cy="403.566" r="10.757"/>
			<g>
				<path style="fill:#FFFFFF;" d="M141,405.525v1.994h-5.981v-1.994h1.966v-3.53c-0.083,0.11-0.212,0.224-0.388,0.339
					c-0.175,0.116-0.371,0.222-0.588,0.318c-0.217,0.098-0.438,0.176-0.665,0.235c-0.227,0.061-0.427,0.091-0.603,0.091v-2.05
					c0.148,0,0.34-0.051,0.575-0.152s0.468-0.224,0.699-0.366c0.23-0.144,0.438-0.289,0.623-0.437s0.3-0.268,0.346-0.36h2.257v5.912
					H141z"/>
			</g>
		</g>
		<g>
			<circle style="fill:#C85155;" cx="340.127" cy="283.43" r="10.757"/>
			<g>
				<path style="fill:#FFFFFF;" d="M336.478,282.43c0-0.48,0.093-0.93,0.277-1.351c0.185-0.42,0.438-0.784,0.762-1.094
					c0.322-0.309,0.706-0.554,1.148-0.733c0.443-0.18,0.923-0.271,1.44-0.271c0.572,0,1.084,0.106,1.537,0.319
					c0.452,0.212,0.835,0.517,1.148,0.913c0.314,0.397,0.555,0.887,0.721,1.468c0.166,0.582,0.249,1.237,0.249,1.966
					c0,0.858-0.09,1.623-0.271,2.292c-0.18,0.669-0.436,1.232-0.768,1.689c-0.333,0.456-0.739,0.805-1.219,1.045
					c-0.48,0.24-1.021,0.36-1.62,0.36c-0.609,0-1.175-0.125-1.696-0.374s-0.98-0.609-1.377-1.08l1.246-1.412
					c0.23,0.295,0.507,0.526,0.83,0.692s0.665,0.249,1.024,0.249c0.545,0,0.977-0.194,1.295-0.582s0.487-0.937,0.506-1.647
					c-0.186,0.249-0.43,0.443-0.734,0.582c-0.305,0.138-0.66,0.207-1.066,0.207c-0.489,0-0.943-0.083-1.363-0.249
					s-0.782-0.395-1.087-0.686c-0.305-0.29-0.545-0.632-0.72-1.024C336.566,283.318,336.478,282.891,336.478,282.43z
					 M340.106,280.851c-0.203,0-0.397,0.042-0.582,0.125s-0.346,0.196-0.484,0.339c-0.139,0.144-0.249,0.312-0.332,0.506
					c-0.083,0.193-0.125,0.396-0.125,0.609c0,0.212,0.039,0.408,0.118,0.588c0.078,0.181,0.187,0.337,0.325,0.471
					s0.3,0.24,0.484,0.318c0.185,0.079,0.383,0.118,0.596,0.118c0.203,0,0.396-0.039,0.581-0.118
					c0.185-0.078,0.347-0.185,0.485-0.318c0.138-0.134,0.249-0.29,0.332-0.471c0.083-0.18,0.125-0.376,0.125-0.588
					c0-0.213-0.042-0.416-0.125-0.609c-0.083-0.194-0.194-0.362-0.332-0.506c-0.139-0.143-0.301-0.256-0.485-0.339
					S340.309,280.851,340.106,280.851z"/>
			</g>
		</g>
		<g>
			<circle style="fill:#C85155;" cx="202.237" cy="165.593" r="2.333"/>
			<path style="fill:#C85155;" d="M219.278,156.472h-23.506c-1.32,0-2.39,1.071-2.39,2.39v23.506c0,1.32,1.071,2.39,2.39,2.39
				h23.506c1.32,0,2.39-1.071,2.39-2.39v-23.506C221.669,157.543,220.598,156.472,219.278,156.472z M216.888,161.253v7.585
				l-1.582-1.582c-0.524-0.524-1.372-0.524-1.896,0l-4.467,4.467c-0.062,0.062-0.161,0.062-0.223,0l-1.825-1.825
				c-0.446-0.446-1.168-0.446-1.614,0l-7.118,7.118v-15.764H216.888z"/>
		</g>
		<g>
			<g>
				<g>
					<path style="fill:#6894D5;" d="M172.739,225.014h-21.57c-2.062,0-3.731,1.679-3.731,3.731v43.799
						c0,2.062,1.669,3.731,3.731,3.731h21.57c2.062,0,3.731-1.669,3.731-3.731v-43.799
						C176.47,226.693,174.801,225.014,172.739,225.014L172.739,225.014z M156.632,227.286h10.643c0.273,0,0.493,0.402,0.493,0.894
						c0,0.502-0.22,0.904-0.493,0.904h-10.643c-0.276,0-0.486-0.402-0.486-0.904C156.147,227.687,156.357,227.286,156.632,227.286
						L156.632,227.286z M161.958,272.588c-1.315,0-2.391-1.067-2.391-2.379c0-1.315,1.076-2.382,2.391-2.382
						c1.303,0,2.37,1.067,2.37,2.382C164.328,271.521,163.261,272.588,161.958,272.588L161.958,272.588z M172.871,264.425h-21.837
						v-33.107h21.837V264.425z M173.668,264.425"/>
				</g>
			</g>
			<g>
				<path style="fill:#6894D5;" d="M167.419,239.157h-11.355c-0.881,0-1.594-0.713-1.594-1.594s0.713-1.594,1.594-1.594h11.355
					c0.881,0,1.594,0.713,1.594,1.594S168.3,239.157,167.419,239.157z"/>
			</g>
			<g>
				<path style="fill:#6894D5;" d="M167.419,245.83h-11.355c-0.881,0-1.594-0.713-1.594-1.594s0.713-1.594,1.594-1.594h11.355
					c0.881,0,1.594,0.713,1.594,1.594S168.3,245.83,167.419,245.83z"/>
			</g>
			<g>
				<path style="fill:#6894D5;" d="M167.419,252.504h-11.355c-0.881,0-1.594-0.713-1.594-1.594s0.713-1.594,1.594-1.594h11.355
					c0.881,0,1.594,0.713,1.594,1.594S168.3,252.504,167.419,252.504z"/>
			</g>
			<g>
				<path style="fill:#6894D5;" d="M167.419,259.177h-11.355c-0.881,0-1.594-0.713-1.594-1.594c0-0.881,0.713-1.594,1.594-1.594
					h11.355c0.881,0,1.594,0.713,1.594,1.594C169.012,258.464,168.3,259.177,167.419,259.177z"/>
			</g>
		</g>
		<g>
			<g>
				<path style="fill:#6894D5;" d="M340.127,216.631c-0.797,0-1.542-0.397-1.986-1.06l-9.433-14.08
					c-3.642-5.438-2.926-12.74,1.701-17.366c5.357-5.36,14.078-5.36,19.435,0c4.627,4.627,5.343,11.929,1.701,17.366l-9.433,14.08
					C341.669,216.234,340.924,216.631,340.127,216.631z M340.127,184.885c-2.295,0-4.589,0.873-6.337,2.621
					c-3.016,3.018-3.483,7.78-1.11,11.325l7.447,11.115l7.447-11.115c2.373-3.545,1.906-8.307-1.11-11.325
					C344.717,185.758,342.423,184.885,340.127,184.885z"/>
			</g>
			<circle style="fill:#6894D5;" cx="339.994" cy="194.321" r="4.183"/>
		</g>
		<g>
			<path style="fill:#6894D5;" d="M307.593,175.994c-0.002,3.819-3.1,6.913-6.919,6.91c-1.83-0.001-3.585-0.728-4.88-2.021
				l-6.287-6.282c-1.299-1.295-2.028-3.055-2.025-4.89c0-1.322,0.379-2.616,1.092-3.729c0.267-0.42,0.58-0.81,0.933-1.161
				c0.401-0.4,0.955-0.609,1.521-0.573c0.473,0.034,0.919,0.237,1.254,0.573c0.734,0.78,0.734,1.996,0,2.776
				c-1.156,1.157-1.156,3.031,0,4.188l6.302,6.307c1.158,1.158,3.035,1.158,4.193,0c1.158-1.158,1.158-3.035,0-4.193l0,0
				l-3.734-3.729c-0.142-0.141-0.185-0.353-0.109-0.538c0.408-1.004,0.616-2.077,0.612-3.161v-0.198
				c-0.002-0.273,0.218-0.495,0.491-0.497c0.133-0.001,0.26,0.052,0.354,0.146l5.186,5.186
				C306.874,172.403,307.599,174.162,307.593,175.994z"/>
			<path style="fill:#6894D5;" d="M298.066,166.442v0.03v0.346c-0.01,0.246-0.033,0.492-0.069,0.736
				c-0.035,0.202-0.074,0.4-0.123,0.598l-0.079,0.291c-0.03,0.104-0.064,0.212-0.104,0.316c-0.039,0.104-0.074,0.212-0.119,0.316
				c-0.044,0.104-0.084,0.207-0.133,0.311c-0.341,0.735-0.809,1.404-1.383,1.976c-0.401,0.4-0.955,0.609-1.521,0.573
				c-0.477-0.032-0.926-0.235-1.264-0.573c-0.734-0.78-0.734-1.996,0-2.776c1.156-1.157,1.156-3.031,0-4.188l-1.61-1.62l-0.044-0.04
				l-4.628-4.633c-1.158-1.158-3.035-1.158-4.193,0c-1.158,1.158-1.158,3.035,0,4.193l3.714,3.719
				c0.142,0.141,0.185,0.353,0.109,0.538c-0.41,1.002-0.619,2.074-0.617,3.156v0.183c0.004,0.202-0.115,0.386-0.301,0.464
				c-0.185,0.08-0.4,0.039-0.543-0.104l-5.176-5.181c-2.7-2.7-2.7-7.079,0-9.779c2.7-2.7,7.079-2.7,9.779,0l6.287,6.287
				c0.885,0.884,1.513,1.992,1.818,3.205v0.054l0.059,0.286l0.03,0.158l0.049,0.341v0.168c0,0.128,0.025,0.242,0.03,0.351
				L298.066,166.442z"/>
		</g>
		<path style="fill:#6894D5;" d="M285.531,315.667v-17.195c0-1.702,1.791-2.809,3.313-2.047l17.195,8.598
			c1.687,0.844,1.687,3.251,0,4.095l-17.195,8.598C287.322,318.475,285.531,317.368,285.531,315.667z"/>
	</g>
	
		<radialGradient id="SVGID_1_" cx="213.713" cy="523.6711" r="109.1745" fx="127.4755" fy="514.3301" gradientTransform="matrix(1.3611 0 0 0.0901 -38.2489 390.333)" gradientUnits="userSpaceOnUse">
		<stop  offset="0" style="stop-color:#000000"/>
		<stop  offset="0.2259" style="stop-color:#353535;stop-opacity:0.774"/>
		<stop  offset="0.7403" style="stop-color:#BABABA;stop-opacity:0.2595"/>
		<stop  offset="0.9998" style="stop-color:#FFFFFF;stop-opacity:0"/>
	</radialGradient>
	<ellipse style="opacity:0.35;fill:url(#SVGID_1_);" cx="252.632" cy="437.5" rx="159" ry="13"/>
</g>
<g id="Designed_by_Freepik">
	<g>
		<g>
			<path style="fill:#B0AEAF;" d="M180.308,477.697v-0.161c-0.218,0.249-0.432,0.452-0.644,0.608
				c-0.211,0.157-0.441,0.276-0.689,0.357c-0.247,0.082-0.517,0.122-0.81,0.122c-0.388,0-0.747-0.082-1.078-0.246
				c-0.33-0.164-0.616-0.399-0.857-0.704c-0.242-0.305-0.425-0.662-0.549-1.074c-0.124-0.412-0.187-0.857-0.187-1.335
				c0-1.013,0.247-1.804,0.742-2.369c0.495-0.565,1.146-0.848,1.953-0.848c0.467,0,0.861,0.081,1.181,0.24
				c0.321,0.16,0.633,0.408,0.938,0.739v-2.392c0-0.333,0.066-0.583,0.199-0.754c0.132-0.17,0.321-0.255,0.567-0.255
				c0.245,0,0.434,0.078,0.567,0.234c0.133,0.157,0.199,0.386,0.199,0.692v7.147c0,0.309-0.071,0.54-0.214,0.695
				c-0.143,0.154-0.326,0.231-0.552,0.231c-0.221,0-0.405-0.08-0.549-0.24C180.38,478.222,180.308,477.994,180.308,477.697z
				 M177.12,475.317c0,0.439,0.068,0.813,0.205,1.122c0.137,0.309,0.324,0.541,0.561,0.697c0.238,0.157,0.497,0.236,0.778,0.236
				c0.285,0,0.545-0.074,0.781-0.223c0.235-0.148,0.423-0.376,0.564-0.682c0.141-0.307,0.211-0.691,0.211-1.149
				c0-0.432-0.07-0.803-0.211-1.114c-0.14-0.31-0.33-0.547-0.57-0.712c-0.24-0.164-0.502-0.245-0.786-0.245
				c-0.297,0-0.562,0.084-0.796,0.252c-0.234,0.168-0.415,0.409-0.543,0.724C177.184,474.536,177.12,474.901,177.12,475.317z"/>
			<path style="fill:#B0AEAF;" d="M187.454,475.727h-3.17c0.004,0.367,0.078,0.692,0.223,0.973c0.144,0.281,0.336,0.493,0.576,0.635
				c0.24,0.143,0.504,0.213,0.793,0.213c0.194,0,0.371-0.022,0.531-0.067c0.16-0.046,0.315-0.117,0.466-0.214
				c0.15-0.096,0.289-0.201,0.415-0.312c0.126-0.111,0.29-0.262,0.493-0.452c0.083-0.071,0.202-0.107,0.357-0.107
				c0.166,0,0.3,0.046,0.403,0.137c0.103,0.092,0.155,0.219,0.155,0.386c0,0.146-0.058,0.317-0.172,0.513
				c-0.116,0.196-0.289,0.384-0.52,0.564c-0.232,0.18-0.522,0.329-0.873,0.448c-0.35,0.119-0.753,0.178-1.208,0.178
				c-1.04,0-1.85-0.297-2.428-0.891c-0.578-0.593-0.866-1.399-0.866-2.416c0-0.479,0.071-0.923,0.213-1.332
				c0.143-0.41,0.351-0.761,0.623-1.054c0.273-0.293,0.609-0.517,1.01-0.674c0.399-0.156,0.843-0.234,1.33-0.234
				c0.633,0,1.176,0.133,1.629,0.4c0.454,0.267,0.794,0.612,1.019,1.035c0.225,0.424,0.339,0.856,0.339,1.294
				c0,0.408-0.117,0.672-0.35,0.793C188.207,475.666,187.878,475.727,187.454,475.727z M184.284,474.806h2.939
				c-0.039-0.554-0.189-0.969-0.448-1.244c-0.259-0.275-0.6-0.413-1.024-0.413c-0.404,0-0.735,0.139-0.994,0.418
				C184.497,473.847,184.34,474.26,184.284,474.806z"/>
			<path style="fill:#B0AEAF;" d="M194.838,476.503c0,0.447-0.108,0.831-0.327,1.149c-0.217,0.319-0.539,0.56-0.965,0.724
				c-0.425,0.164-0.943,0.246-1.552,0.246c-0.582,0-1.08-0.089-1.496-0.267c-0.415-0.178-0.722-0.401-0.92-0.667
				c-0.198-0.268-0.297-0.535-0.297-0.805c0-0.178,0.063-0.33,0.19-0.457c0.126-0.126,0.287-0.19,0.481-0.19
				c0.17,0,0.3,0.042,0.391,0.125c0.091,0.083,0.178,0.2,0.261,0.35c0.166,0.29,0.366,0.504,0.597,0.648
				c0.231,0.142,0.547,0.214,0.947,0.214c0.324,0,0.59-0.073,0.798-0.217c0.207-0.145,0.311-0.31,0.311-0.496
				c0-0.285-0.107-0.492-0.323-0.622c-0.216-0.131-0.571-0.256-1.066-0.375c-0.558-0.138-1.012-0.284-1.362-0.436
				c-0.35-0.151-0.63-0.353-0.84-0.602c-0.21-0.25-0.315-0.557-0.315-0.92c0-0.324,0.097-0.631,0.291-0.92
				c0.194-0.288,0.48-0.519,0.858-0.691c0.377-0.173,0.833-0.259,1.368-0.259c0.419,0,0.797,0.043,1.131,0.131
				c0.335,0.086,0.614,0.204,0.837,0.35c0.224,0.146,0.394,0.308,0.51,0.486c0.117,0.178,0.175,0.352,0.175,0.523
				c0,0.186-0.062,0.338-0.186,0.457c-0.124,0.118-0.301,0.178-0.532,0.178c-0.166,0-0.308-0.048-0.424-0.143
				c-0.117-0.095-0.25-0.237-0.401-0.427c-0.123-0.158-0.266-0.285-0.433-0.38c-0.166-0.095-0.392-0.142-0.677-0.142
				c-0.293,0-0.536,0.062-0.73,0.187c-0.194,0.124-0.291,0.279-0.291,0.465c0,0.171,0.071,0.31,0.213,0.419
				c0.143,0.109,0.334,0.2,0.576,0.27c0.242,0.071,0.573,0.158,0.997,0.261c0.502,0.123,0.913,0.27,1.232,0.439
				c0.318,0.17,0.56,0.371,0.725,0.603C194.756,475.943,194.838,476.207,194.838,476.503z"/>
			<path style="fill:#B0AEAF;" d="M196.494,471.28c-0.225,0-0.418-0.07-0.579-0.208c-0.16-0.138-0.24-0.334-0.24-0.588
				c0-0.23,0.082-0.418,0.246-0.567c0.164-0.149,0.355-0.223,0.573-0.223c0.21,0,0.396,0.067,0.558,0.202
				c0.162,0.135,0.244,0.33,0.244,0.588c0,0.25-0.08,0.444-0.238,0.585C196.899,471.21,196.711,471.28,196.494,471.28z
				 M197.295,472.954v4.683c0,0.325-0.077,0.571-0.232,0.737c-0.155,0.166-0.35,0.249-0.588,0.249c-0.238,0-0.431-0.085-0.579-0.255
				c-0.149-0.17-0.222-0.414-0.222-0.73v-4.636c0-0.32,0.074-0.561,0.222-0.724c0.148-0.162,0.341-0.243,0.579-0.243
				c0.238,0,0.433,0.081,0.588,0.243C197.218,472.439,197.295,472.665,197.295,472.954z"/>
			<path style="fill:#B0AEAF;" d="M204.395,473.221v4.707c0,0.538-0.058,1.001-0.173,1.39c-0.114,0.387-0.298,0.708-0.552,0.961
				c-0.253,0.253-0.585,0.441-0.994,0.563c-0.41,0.123-0.919,0.184-1.529,0.184c-0.558,0-1.057-0.078-1.496-0.234
				c-0.439-0.157-0.777-0.358-1.015-0.605c-0.237-0.247-0.357-0.502-0.357-0.763c0-0.198,0.068-0.359,0.202-0.483
				c0.134-0.125,0.297-0.187,0.486-0.187c0.237,0,0.445,0.105,0.623,0.314c0.087,0.107,0.177,0.215,0.27,0.324
				c0.093,0.109,0.197,0.202,0.309,0.279c0.113,0.076,0.249,0.134,0.407,0.172c0.158,0.037,0.341,0.056,0.546,0.056
				c0.42,0,0.745-0.058,0.977-0.175c0.232-0.117,0.394-0.28,0.487-0.49c0.093-0.209,0.147-0.433,0.163-0.673
				s0.027-0.624,0.035-1.155c-0.25,0.349-0.537,0.615-0.864,0.796c-0.326,0.182-0.715,0.273-1.166,0.273
				c-0.542,0-1.016-0.138-1.422-0.416c-0.405-0.277-0.717-0.665-0.935-1.163c-0.218-0.499-0.326-1.074-0.326-1.727
				c0-0.487,0.066-0.927,0.198-1.318c0.133-0.392,0.322-0.723,0.567-0.992c0.245-0.269,0.528-0.472,0.849-0.608
				c0.32-0.136,0.673-0.205,1.057-0.205c0.459,0,0.857,0.089,1.193,0.264c0.336,0.177,0.649,0.453,0.938,0.829v-0.22
				c0-0.281,0.069-0.498,0.208-0.653c0.139-0.154,0.317-0.231,0.535-0.231c0.313,0,0.52,0.102,0.623,0.306
				C204.343,472.543,204.395,472.837,204.395,473.221z M199.699,475.275c0,0.657,0.143,1.154,0.43,1.49
				c0.287,0.337,0.658,0.505,1.113,0.505c0.269,0,0.523-0.073,0.762-0.217c0.24-0.145,0.435-0.363,0.585-0.653
				c0.15-0.291,0.225-0.644,0.225-1.06c0-0.66-0.145-1.176-0.436-1.543c-0.291-0.368-0.674-0.552-1.149-0.552
				c-0.463,0-0.834,0.176-1.113,0.529C199.838,474.125,199.699,474.626,199.699,475.275z"/>
			<path style="fill:#B0AEAF;" d="M206.97,472.93v0.196c0.285-0.376,0.596-0.652,0.935-0.828c0.338-0.176,0.727-0.264,1.166-0.264
				c0.428,0,0.809,0.093,1.146,0.279c0.336,0.186,0.588,0.449,0.753,0.789c0.107,0.198,0.176,0.413,0.208,0.642
				c0.032,0.23,0.048,0.522,0.048,0.879v3.015c0,0.325-0.074,0.571-0.223,0.737c-0.148,0.166-0.341,0.249-0.579,0.249
				c-0.242,0-0.437-0.085-0.588-0.255c-0.151-0.17-0.226-0.414-0.226-0.73v-2.701c0-0.534-0.074-0.943-0.223-1.226
				c-0.149-0.283-0.444-0.425-0.888-0.425c-0.288,0-0.552,0.086-0.789,0.258c-0.237,0.173-0.412,0.41-0.522,0.71
				c-0.079,0.242-0.119,0.692-0.119,1.353v2.03c0,0.328-0.077,0.576-0.228,0.74c-0.152,0.164-0.349,0.246-0.59,0.246
				c-0.234,0-0.426-0.085-0.576-0.255c-0.15-0.17-0.225-0.414-0.225-0.73v-4.683c0-0.309,0.067-0.54,0.202-0.692
				c0.135-0.152,0.319-0.228,0.552-0.228c0.143,0,0.272,0.034,0.387,0.101c0.114,0.068,0.207,0.169,0.276,0.302
				C206.935,472.572,206.97,472.737,206.97,472.93z"/>
			<path style="fill:#B0AEAF;" d="M216.829,475.727h-3.17c0.004,0.367,0.078,0.692,0.223,0.973c0.144,0.281,0.336,0.493,0.576,0.635
				c0.239,0.143,0.503,0.213,0.792,0.213c0.194,0,0.371-0.022,0.532-0.067c0.16-0.046,0.315-0.117,0.466-0.214
				c0.15-0.096,0.288-0.201,0.416-0.312c0.126-0.111,0.29-0.262,0.492-0.452c0.083-0.071,0.202-0.107,0.356-0.107
				c0.166,0,0.301,0.046,0.404,0.137c0.103,0.092,0.154,0.219,0.154,0.386c0,0.146-0.057,0.317-0.172,0.513
				c-0.115,0.196-0.288,0.384-0.52,0.564c-0.232,0.18-0.522,0.329-0.872,0.448c-0.35,0.119-0.753,0.178-1.208,0.178
				c-1.041,0-1.85-0.297-2.428-0.891c-0.577-0.593-0.866-1.399-0.866-2.416c0-0.479,0.071-0.923,0.214-1.332
				c0.143-0.41,0.351-0.761,0.624-1.054c0.273-0.293,0.61-0.517,1.009-0.674c0.399-0.156,0.843-0.234,1.33-0.234
				c0.633,0,1.175,0.133,1.629,0.4c0.453,0.267,0.793,0.612,1.019,1.035c0.225,0.424,0.338,0.856,0.338,1.294
				c0,0.408-0.117,0.672-0.35,0.793C217.582,475.666,217.253,475.727,216.829,475.727z M213.659,474.806h2.938
				c-0.039-0.554-0.189-0.969-0.448-1.244c-0.259-0.275-0.601-0.413-1.024-0.413c-0.404,0-0.736,0.139-0.995,0.418
				C213.872,473.847,213.715,474.26,213.659,474.806z"/>
			<path style="fill:#B0AEAF;" d="M223.435,477.697v-0.161c-0.218,0.249-0.432,0.452-0.644,0.608
				c-0.212,0.157-0.441,0.276-0.689,0.357c-0.247,0.082-0.517,0.122-0.81,0.122c-0.388,0-0.747-0.082-1.078-0.246
				c-0.331-0.164-0.616-0.399-0.858-0.704c-0.242-0.305-0.424-0.662-0.549-1.074c-0.125-0.412-0.187-0.857-0.187-1.335
				c0-1.013,0.247-1.804,0.742-2.369c0.495-0.565,1.146-0.848,1.953-0.848c0.467,0,0.861,0.081,1.181,0.24
				c0.321,0.16,0.633,0.408,0.938,0.739v-2.392c0-0.333,0.066-0.583,0.199-0.754c0.132-0.17,0.322-0.255,0.567-0.255
				c0.245,0,0.434,0.078,0.567,0.234c0.132,0.157,0.199,0.386,0.199,0.692v7.147c0,0.309-0.071,0.54-0.214,0.695
				c-0.143,0.154-0.326,0.231-0.552,0.231c-0.222,0-0.405-0.08-0.549-0.24C223.508,478.222,223.435,477.994,223.435,477.697z
				 M220.248,475.317c0,0.439,0.068,0.813,0.204,1.122c0.137,0.309,0.324,0.541,0.562,0.697c0.237,0.157,0.496,0.236,0.777,0.236
				c0.285,0,0.546-0.074,0.781-0.223c0.236-0.148,0.424-0.376,0.564-0.682c0.141-0.307,0.211-0.691,0.211-1.149
				c0-0.432-0.07-0.803-0.211-1.114c-0.14-0.31-0.33-0.547-0.57-0.712c-0.24-0.164-0.502-0.245-0.787-0.245
				c-0.296,0-0.562,0.084-0.795,0.252c-0.233,0.168-0.414,0.409-0.543,0.724C220.312,474.536,220.248,474.901,220.248,475.317z"/>
			<path style="fill:#B0AEAF;" d="M230.059,470.55v2.475c0.305-0.316,0.615-0.559,0.932-0.727c0.316-0.168,0.709-0.252,1.175-0.252
				c0.538,0,1.01,0.128,1.416,0.382c0.405,0.256,0.72,0.626,0.944,1.111c0.223,0.484,0.336,1.06,0.336,1.725
				c0,0.491-0.063,0.94-0.187,1.35c-0.125,0.41-0.306,0.765-0.543,1.065c-0.238,0.301-0.526,0.534-0.864,0.698
				c-0.339,0.164-0.712,0.246-1.119,0.246c-0.25,0-0.484-0.029-0.703-0.089c-0.22-0.059-0.407-0.137-0.561-0.234
				c-0.154-0.096-0.286-0.196-0.395-0.3c-0.109-0.103-0.253-0.258-0.431-0.463v0.161c0,0.305-0.073,0.535-0.22,0.692
				c-0.146,0.156-0.332,0.234-0.558,0.234c-0.229,0-0.413-0.078-0.549-0.234c-0.137-0.157-0.205-0.388-0.205-0.692v-7.076
				c0-0.328,0.066-0.577,0.198-0.745c0.133-0.168,0.318-0.252,0.555-0.252c0.25,0,0.441,0.08,0.576,0.24
				C229.992,470.025,230.059,470.253,230.059,470.55z M230.136,475.364c0,0.645,0.148,1.14,0.442,1.486
				c0.295,0.347,0.682,0.521,1.161,0.521c0.407,0,0.759-0.177,1.053-0.532c0.295-0.355,0.442-0.862,0.442-1.523
				c0-0.427-0.061-0.796-0.184-1.104c-0.123-0.309-0.297-0.547-0.522-0.715c-0.226-0.168-0.489-0.252-0.79-0.252
				c-0.309,0-0.584,0.084-0.825,0.252c-0.242,0.168-0.431,0.411-0.57,0.73C230.206,474.545,230.136,474.925,230.136,475.364z"/>
			<path style="fill:#B0AEAF;" d="M236.963,478.825l0.148-0.363l-1.995-5.022c-0.122-0.288-0.184-0.499-0.184-0.629
				c0-0.139,0.036-0.267,0.107-0.385c0.071-0.119,0.169-0.214,0.293-0.285c0.125-0.072,0.255-0.107,0.389-0.107
				c0.233,0,0.409,0.074,0.529,0.223c0.119,0.148,0.223,0.361,0.314,0.638l1.371,3.989l1.3-3.71c0.103-0.3,0.196-0.536,0.279-0.706
				c0.083-0.17,0.171-0.285,0.264-0.344c0.093-0.06,0.225-0.09,0.395-0.09c0.123,0,0.24,0.032,0.353,0.098
				c0.113,0.065,0.2,0.153,0.261,0.264c0.061,0.111,0.092,0.227,0.092,0.35c-0.017,0.075-0.042,0.182-0.077,0.321
				c-0.036,0.138-0.079,0.28-0.13,0.421l-2.113,5.533c-0.182,0.486-0.361,0.868-0.535,1.145c-0.174,0.277-0.404,0.491-0.691,0.638
				c-0.287,0.149-0.674,0.223-1.161,0.223c-0.475,0-0.831-0.051-1.068-0.154c-0.238-0.104-0.356-0.292-0.356-0.565
				c0-0.186,0.056-0.33,0.169-0.43c0.112-0.101,0.28-0.152,0.501-0.152c0.087,0,0.173,0.012,0.256,0.037
				c0.103,0.023,0.192,0.035,0.267,0.035c0.186,0,0.333-0.027,0.44-0.084c0.106-0.055,0.202-0.151,0.288-0.288
				C236.754,479.291,236.852,479.09,236.963,478.825z"/>
		</g>
		<g>
			<path style="fill:#B0AEAF;" d="M260.439,472.174h0.386v-0.486c0-0.509,0.062-0.911,0.192-1.211
				c0.128-0.299,0.347-0.516,0.654-0.653c0.307-0.135,0.727-0.204,1.26-0.204c0.95,0,1.42,0.229,1.42,0.697
				c0,0.149-0.049,0.278-0.15,0.384c-0.096,0.106-0.214,0.16-0.349,0.16c-0.062,0-0.174-0.012-0.329-0.037
				c-0.148-0.021-0.283-0.035-0.389-0.035c-0.292,0-0.479,0.088-0.566,0.259c-0.079,0.172-0.122,0.418-0.122,0.74v0.386h0.396
				c0.62,0,0.926,0.186,0.926,0.56c0,0.262-0.079,0.431-0.245,0.503c-0.163,0.071-0.39,0.107-0.68,0.107h-0.396v4.294
				c0,0.319-0.075,0.563-0.231,0.73c-0.151,0.17-0.346,0.254-0.589,0.254c-0.229,0-0.419-0.084-0.574-0.254
				c-0.153-0.167-0.228-0.411-0.228-0.73v-4.294h-0.446c-0.243,0-0.427-0.052-0.558-0.164c-0.131-0.107-0.197-0.25-0.197-0.423
				C259.625,472.366,259.896,472.174,260.439,472.174"/>
			<path style="fill:#B0AEAF;" d="M265.745,476.283v1.355c0,0.327-0.083,0.574-0.234,0.737c-0.154,0.166-0.349,0.247-0.586,0.247
				c-0.239,0-0.43-0.082-0.579-0.25c-0.148-0.165-0.225-0.41-0.225-0.734v-4.514c0-0.729,0.262-1.093,0.788-1.093
				c0.271,0,0.464,0.084,0.583,0.255c0.119,0.171,0.184,0.421,0.198,0.755c0.192-0.334,0.39-0.584,0.593-0.755
				c0.208-0.171,0.477-0.255,0.819-0.255c0.343,0,0.67,0.084,0.991,0.255c0.322,0.171,0.482,0.398,0.482,0.678
				c0,0.196-0.069,0.362-0.204,0.488c-0.137,0.131-0.284,0.195-0.441,0.195c-0.062,0-0.207-0.039-0.433-0.112
				c-0.228-0.071-0.43-0.108-0.602-0.108c-0.237,0-0.433,0.064-0.582,0.186c-0.151,0.128-0.269,0.311-0.353,0.554
				c-0.081,0.247-0.137,0.541-0.17,0.878C265.759,475.383,265.745,475.796,265.745,476.283"/>
			<path style="fill:#B0AEAF;" d="M273.196,475.725h-3.171c0.006,0.367,0.078,0.694,0.222,0.974
				c0.147,0.279,0.337,0.491,0.578,0.635c0.24,0.142,0.502,0.212,0.793,0.212c0.194,0,0.371-0.021,0.531-0.07
				c0.159-0.043,0.316-0.116,0.466-0.213c0.151-0.095,0.288-0.199,0.415-0.313c0.126-0.109,0.292-0.26,0.494-0.449
				c0.084-0.071,0.203-0.109,0.355-0.109c0.168,0,0.301,0.046,0.406,0.139c0.104,0.092,0.152,0.219,0.152,0.386
				c0,0.147-0.055,0.317-0.167,0.512c-0.117,0.198-0.289,0.385-0.522,0.566c-0.234,0.178-0.524,0.329-0.873,0.446
				c-0.35,0.119-0.754,0.179-1.207,0.179c-1.044,0-1.853-0.296-2.429-0.889c-0.578-0.595-0.87-1.401-0.87-2.418
				c0-0.479,0.073-0.924,0.217-1.334c0.14-0.411,0.348-0.76,0.624-1.055c0.272-0.294,0.606-0.518,1.008-0.674
				c0.399-0.156,0.842-0.234,1.33-0.234c0.632,0,1.175,0.134,1.629,0.404c0.452,0.264,0.796,0.61,1.018,1.034
				c0.226,0.426,0.339,0.855,0.339,1.296c0,0.405-0.118,0.669-0.351,0.791C273.947,475.664,273.619,475.725,273.196,475.725
				 M270.024,474.803h2.938c-0.039-0.553-0.186-0.969-0.446-1.242c-0.261-0.276-0.599-0.413-1.025-0.413
				c-0.403,0-0.736,0.137-0.995,0.418C270.237,473.846,270.079,474.258,270.024,474.803"/>
			<path style="fill:#B0AEAF;" d="M279.938,475.725h-3.171c0.004,0.367,0.078,0.694,0.221,0.974
				c0.145,0.279,0.337,0.491,0.576,0.635c0.239,0.142,0.504,0.212,0.795,0.212c0.192,0,0.37-0.021,0.528-0.07
				c0.162-0.043,0.316-0.116,0.469-0.213c0.151-0.095,0.287-0.199,0.415-0.313c0.125-0.109,0.29-0.26,0.493-0.449
				c0.084-0.071,0.204-0.109,0.355-0.109c0.168,0,0.302,0.046,0.407,0.139c0.103,0.092,0.15,0.219,0.15,0.386
				c0,0.147-0.054,0.317-0.171,0.512c-0.111,0.198-0.284,0.385-0.519,0.566c-0.231,0.178-0.525,0.329-0.872,0.446
				c-0.349,0.119-0.755,0.179-1.209,0.179c-1.042,0-1.849-0.296-2.429-0.889c-0.577-0.595-0.868-1.401-0.868-2.418
				c0-0.479,0.073-0.924,0.217-1.334c0.142-0.411,0.349-0.76,0.623-1.055c0.272-0.294,0.608-0.518,1.009-0.674
				c0.398-0.156,0.844-0.234,1.331-0.234c0.63,0,1.174,0.134,1.633,0.404c0.45,0.264,0.791,0.61,1.013,1.034
				c0.225,0.426,0.341,0.855,0.341,1.296c0,0.405-0.12,0.669-0.351,0.791C280.688,475.664,280.36,475.725,279.938,475.725
				 M276.767,474.803h2.938c-0.04-0.553-0.19-0.969-0.447-1.242c-0.263-0.276-0.601-0.413-1.027-0.413
				c-0.403,0-0.735,0.137-0.996,0.418C276.978,473.846,276.819,474.258,276.767,474.803"/>
			<path style="fill:#B0AEAF;" d="M283.488,472.942v0.194c0.304-0.375,0.621-0.651,0.953-0.828c0.324-0.178,0.699-0.267,1.114-0.267
				c0.497,0,0.96,0.13,1.379,0.386c0.419,0.259,0.749,0.635,0.993,1.129c0.244,0.497,0.366,1.081,0.366,1.758
				c0,0.497-0.07,0.957-0.21,1.376c-0.14,0.418-0.336,0.767-0.58,1.05c-0.246,0.281-0.535,0.501-0.868,0.654
				c-0.339,0.151-0.695,0.227-1.08,0.227c-0.461,0-0.853-0.093-1.166-0.28c-0.314-0.182-0.614-0.458-0.901-0.816v2.433
				c0,0.71-0.26,1.069-0.777,1.069c-0.307,0-0.506-0.092-0.607-0.275c-0.095-0.187-0.146-0.452-0.146-0.807v-6.996
				c0-0.309,0.066-0.537,0.2-0.692c0.134-0.149,0.32-0.228,0.553-0.228c0.231,0,0.416,0.078,0.56,0.234
				C283.417,472.423,283.488,472.646,283.488,472.942 M286.665,475.297c0-0.428-0.067-0.796-0.197-1.102
				c-0.131-0.308-0.312-0.542-0.541-0.705c-0.229-0.164-0.489-0.248-0.77-0.248c-0.446,0-0.824,0.178-1.13,0.527
				c-0.308,0.354-0.462,0.872-0.462,1.558c0,0.642,0.153,1.146,0.46,1.504c0.305,0.358,0.679,0.536,1.133,0.536
				c0.268,0,0.519-0.079,0.748-0.233c0.232-0.158,0.416-0.392,0.552-0.704C286.595,476.118,286.665,475.74,286.665,475.297"/>
			<path style="fill:#B0AEAF;" d="M289.925,471.276c-0.226,0-0.418-0.071-0.577-0.209c-0.162-0.139-0.242-0.333-0.242-0.585
				c0-0.23,0.082-0.419,0.248-0.569c0.164-0.147,0.354-0.222,0.571-0.222c0.212,0,0.397,0.067,0.559,0.2
				c0.162,0.137,0.244,0.334,0.244,0.591c0,0.25-0.079,0.444-0.236,0.585C290.333,471.205,290.145,471.276,289.925,471.276
				 M290.728,472.95v4.689c0,0.322-0.078,0.568-0.231,0.732c-0.156,0.168-0.35,0.25-0.588,0.25c-0.238,0-0.428-0.084-0.58-0.254
				c-0.146-0.173-0.222-0.416-0.222-0.729v-4.642c0-0.319,0.076-0.559,0.222-0.721c0.152-0.165,0.342-0.245,0.58-0.245
				c0.238,0,0.432,0.079,0.588,0.245C290.65,472.438,290.728,472.664,290.728,472.95"/>
			<path style="fill:#B0AEAF;" d="M295.952,477.882l-1.428-2.354l-0.88,0.83v1.291c0,0.312-0.083,0.551-0.248,0.718
				c-0.161,0.17-0.354,0.254-0.566,0.254c-0.249,0-0.447-0.082-0.588-0.25c-0.142-0.165-0.215-0.41-0.215-0.734v-6.915
				c0-0.358,0.072-0.632,0.207-0.821c0.139-0.19,0.341-0.283,0.596-0.283c0.25,0,0.445,0.085,0.593,0.257
				c0.146,0.169,0.221,0.421,0.221,0.751v3.933l1.822-1.914c0.227-0.235,0.396-0.4,0.517-0.486c0.118-0.087,0.262-0.13,0.431-0.13
				c0.204,0,0.371,0.065,0.51,0.193c0.132,0.129,0.2,0.291,0.2,0.483c0,0.237-0.221,0.556-0.659,0.951l-0.861,0.789l1.662,2.614
				c0.121,0.196,0.212,0.34,0.265,0.441c0.052,0.1,0.081,0.2,0.081,0.289c0,0.258-0.071,0.459-0.213,0.61
				c-0.14,0.148-0.327,0.221-0.554,0.221c-0.198,0-0.352-0.051-0.458-0.16C296.282,478.354,296.133,478.16,295.952,477.882"/>
			<path style="fill:#B0AEAF;" d="M299.474,478.622c-0.245,0-0.455-0.079-0.634-0.238c-0.178-0.156-0.268-0.378-0.268-0.665
				c0-0.241,0.086-0.449,0.256-0.622c0.171-0.174,0.38-0.262,0.63-0.262c0.248,0,0.46,0.087,0.639,0.258
				c0.174,0.172,0.264,0.383,0.264,0.626c0,0.283-0.089,0.505-0.264,0.662C299.919,478.543,299.711,478.622,299.474,478.622"/>
			<path style="fill:#B0AEAF;" d="M307.536,476.615c0,0.2-0.061,0.418-0.182,0.646c-0.12,0.231-0.305,0.449-0.553,0.656
				c-0.247,0.207-0.557,0.377-0.935,0.502c-0.375,0.126-0.8,0.192-1.269,0.192c-1.004,0-1.786-0.293-2.349-0.876
				c-0.56-0.585-0.841-1.368-0.841-2.35c0-0.667,0.128-1.254,0.387-1.765c0.254-0.509,0.628-0.905,1.113-1.184
				c0.487-0.28,1.072-0.419,1.746-0.419c0.421,0,0.805,0.061,1.158,0.184c0.35,0.122,0.645,0.282,0.891,0.474
				c0.242,0.197,0.428,0.402,0.556,0.62c0.129,0.22,0.192,0.426,0.192,0.617c0,0.192-0.071,0.357-0.214,0.492
				c-0.147,0.134-0.322,0.203-0.524,0.203c-0.137,0-0.249-0.035-0.338-0.104c-0.09-0.07-0.19-0.181-0.299-0.339
				c-0.198-0.299-0.404-0.526-0.622-0.674c-0.214-0.152-0.488-0.226-0.821-0.226c-0.476,0-0.865,0.186-1.159,0.561
				c-0.292,0.372-0.44,0.888-0.44,1.534c0,0.305,0.039,0.587,0.114,0.842c0.073,0.255,0.182,0.472,0.325,0.652
				c0.144,0.179,0.315,0.316,0.516,0.409c0.203,0.096,0.425,0.141,0.665,0.141c0.326,0,0.604-0.075,0.836-0.225
				c0.235-0.151,0.439-0.38,0.616-0.689c0.099-0.182,0.204-0.324,0.318-0.427c0.114-0.102,0.256-0.156,0.422-0.156
				c0.198,0,0.363,0.077,0.491,0.227C307.469,476.285,307.536,476.446,307.536,476.615"/>
			<path style="fill:#B0AEAF;" d="M314.53,475.328c0,0.481-0.076,0.928-0.222,1.337c-0.154,0.408-0.37,0.758-0.656,1.049
				c-0.284,0.293-0.626,0.518-1.02,0.675c-0.4,0.154-0.844,0.234-1.337,0.234c-0.491,0-0.933-0.08-1.326-0.239
				c-0.389-0.156-0.732-0.384-1.016-0.676c-0.288-0.298-0.505-0.646-0.657-1.048c-0.143-0.402-0.219-0.846-0.219-1.332
				c0-0.491,0.077-0.941,0.224-1.349c0.151-0.409,0.368-0.758,0.649-1.046c0.282-0.289,0.621-0.511,1.019-0.669
				c0.402-0.156,0.844-0.234,1.326-0.234c0.49,0,0.936,0.078,1.337,0.239c0.398,0.157,0.739,0.384,1.027,0.674
				c0.286,0.297,0.502,0.643,0.65,1.045C314.455,474.396,314.53,474.839,314.53,475.328 M312.903,475.328
				c0-0.662-0.146-1.176-0.436-1.543c-0.289-0.372-0.681-0.555-1.171-0.555c-0.317,0-0.597,0.082-0.839,0.246
				c-0.242,0.164-0.425,0.406-0.556,0.728c-0.131,0.321-0.197,0.696-0.197,1.124c0,0.424,0.064,0.792,0.194,1.108
				c0.13,0.319,0.314,0.561,0.553,0.729c0.241,0.167,0.522,0.253,0.845,0.253c0.49,0,0.882-0.185,1.171-0.557
				C312.756,476.491,312.903,475.978,312.903,475.328"/>
			<path style="fill:#B0AEAF;" d="M320.712,475.447v2.154c0,0.342-0.075,0.595-0.231,0.767c-0.156,0.17-0.357,0.255-0.611,0.255
				c-0.245,0-0.446-0.085-0.595-0.255c-0.154-0.173-0.232-0.425-0.232-0.767v-2.582c0-0.408-0.013-0.726-0.04-0.953
				c-0.029-0.221-0.105-0.41-0.226-0.552c-0.123-0.147-0.318-0.22-0.582-0.22c-0.532,0-0.88,0.181-1.048,0.551
				c-0.167,0.36-0.254,0.883-0.254,1.567v2.189c0,0.336-0.076,0.591-0.226,0.765c-0.156,0.171-0.355,0.258-0.603,0.258
				c-0.247,0-0.448-0.087-0.604-0.258c-0.157-0.173-0.235-0.428-0.235-0.765v-4.637c0-0.306,0.07-0.538,0.209-0.695
				c0.143-0.16,0.329-0.239,0.556-0.239c0.223,0,0.407,0.077,0.557,0.222c0.148,0.149,0.222,0.354,0.222,0.615v0.153
				c0.283-0.334,0.584-0.582,0.903-0.738c0.323-0.162,0.676-0.241,1.07-0.241c0.407,0,0.757,0.082,1.049,0.244
				c0.293,0.163,0.533,0.409,0.725,0.735c0.275-0.33,0.568-0.577,0.881-0.738c0.313-0.161,0.658-0.241,1.039-0.241
				c0.441,0,0.826,0.089,1.146,0.262c0.319,0.174,0.558,0.425,0.717,0.747c0.138,0.295,0.206,0.756,0.206,1.385v3.164
				c0,0.342-0.076,0.595-0.229,0.767c-0.154,0.17-0.359,0.255-0.612,0.255c-0.247,0-0.446-0.087-0.603-0.258
				c-0.156-0.173-0.235-0.428-0.235-0.765v-2.726c0-0.349-0.015-0.627-0.043-0.836c-0.029-0.211-0.11-0.388-0.239-0.529
				c-0.132-0.142-0.331-0.215-0.596-0.215c-0.214,0-0.416,0.066-0.609,0.192c-0.192,0.124-0.342,0.298-0.45,0.508
				C320.774,474.269,320.712,474.753,320.712,475.447"/>
		</g>
		<g>
			<path style="fill:#B0AEAF;" d="M245.272,474.935c-0.001-0.003-0.001-0.006-0.001-0.011
				C245.271,474.929,245.271,474.932,245.272,474.935z"/>
			<path style="fill:#B0AEAF;" d="M245.354,475.453c0.001,0,0.001,0,0.001,0c-0.031-0.148-0.055-0.294-0.074-0.439
				C245.3,475.16,245.324,475.307,245.354,475.453z"/>
			<path style="fill:#B0AEAF;" d="M245.89,476.957c-0.004-0.006-0.007-0.013-0.011-0.021
				C245.884,476.944,245.887,476.951,245.89,476.957z"/>
			<path style="fill:#B0AEAF;" d="M245.839,476.857c-0.014-0.027-0.027-0.056-0.041-0.084
				C245.812,476.803,245.825,476.83,245.839,476.857z"/>
			<path style="fill:#B0AEAF;" d="M245.504,476.033c0.079,0.25,0.175,0.493,0.286,0.724c-0.113-0.236-0.206-0.479-0.284-0.724
				C245.506,476.033,245.505,476.033,245.504,476.033z"/>
			<path style="fill:#B0AEAF;" d="M251.545,468.725c0.313,0,0.544,0.025,0.809,0.07l0.075-0.477c0,0-0.732-0.225-1.694-0.146
				l-0.076-0.259c0.299-0.063,0.524-0.329,0.524-0.646c0-0.364-0.296-0.659-0.661-0.659c-0.364,0-0.66,0.295-0.66,0.659
				c0,0.317,0.224,0.583,0.522,0.646l0.084,0.289c-1.021,0.14-1.834,0.539-1.834,0.539l0.144,0.441
				c0.618-0.206,1.154-0.331,1.64-0.383C250.895,468.747,251.253,468.725,251.545,468.725z"/>
			<path style="fill:#B0AEAF;" d="M245.878,471.136l0.004-0.005c0.024-0.031,0.047-0.06,0.071-0.089l-0.196-0.141l-0.305-0.223
				c-0.017,0.024-0.497,0.465-0.876,1.28c-0.016-0.026-0.035-0.051-0.056-0.074c-0.114-0.124-0.272-0.187-0.474-0.184
				c-0.003,0-0.006,0-0.009,0c-0.125,0-0.21-0.042-0.267-0.092c0.056-0.071,0.089-0.16,0.089-0.258c0-0.23-0.187-0.418-0.418-0.418
				c-0.23,0-0.418,0.188-0.418,0.418c0,0.231,0.187,0.418,0.418,0.418c0.036,0,0.071-0.006,0.104-0.013
				c0.103,0.114,0.266,0.214,0.505,0.209c0.123-0.001,0.213,0.03,0.273,0.097c0.069,0.076,0.093,0.185,0.1,0.267
				c-0.001,0.001-0.001,0.003-0.002,0.003c-0.272,0.743-0.194,1.669-0.194,1.669l0.661,0.026c0.013-0.337,0.062-0.927,0.232-1.394
				C245.449,471.727,245.861,471.16,245.878,471.136z"/>
			<path style="fill:#B0AEAF;" d="M257.295,469.277c-0.23,0-0.418,0.187-0.418,0.418c0,0.036,0.005,0.07,0.015,0.103
				c-0.115,0.104-0.214,0.267-0.211,0.507c0.002,0.123-0.03,0.212-0.096,0.273c-0.053,0.047-0.12,0.072-0.185,0.088
				c-0.492-0.689-1.097-1.11-1.097-1.11l-0.474,0.508c0.358,0.326,0.724,0.734,1.08,1.244c0.246,0.352,0.499,0.806,0.71,1.259
				l0.64-0.304c0,0-0.292-0.722-0.704-1.37c0.072-0.025,0.144-0.064,0.207-0.12c0.125-0.113,0.187-0.273,0.183-0.474
				c-0.001-0.13,0.042-0.218,0.093-0.276c0.071,0.054,0.161,0.089,0.258,0.089c0.232,0,0.419-0.187,0.419-0.418
				C257.714,469.464,257.527,469.277,257.295,469.277z"/>
			<path style="fill:#B0AEAF;" d="M255.634,475.029c-0.881,0.429-2.33,0.996-4.238,1.262c-0.749,0.104-1.475,0.142-2.143,0.142
				c-0.869,0-1.637-0.065-2.227-0.139c-0.673-0.085-1.199-0.189-1.52-0.261c0.077,0.245,0.171,0.488,0.284,0.724
				c0.002,0.006,0.005,0.013,0.008,0.017c0.014,0.027,0.027,0.056,0.041,0.084c0.013,0.028,0.027,0.054,0.041,0.079
				c0.004,0.007,0.007,0.015,0.011,0.021c0.189,0.356,0.416,0.684,0.675,0.968c0.9,0.984,1.817,1.14,1.826,1.141l0.014,0.002
				l0.013,0.005c0.008,0.003,0.821,0.266,2.057,0.266c1.216,0,2.409-0.245,3.546-0.729c0.842-0.431,1.639-1.085,2.034-1.669
				c0.305-0.452,0.525-0.933,0.656-1.434c0.069-0.266,0.124-0.692,0.092-1.141C256.556,474.533,256.164,474.77,255.634,475.029z"/>
			<path style="fill:#B0AEAF;" d="M246.161,471.345c-0.026,0.037-0.408,0.578-0.71,1.408c-0.226,0.622-0.216,1.527-0.216,1.537
				v0.002c0,0.212,0.012,0.423,0.035,0.632c0,0.005,0,0.008,0.001,0.011c0.002,0.027,0.007,0.053,0.009,0.079
				c0.019,0.145,0.043,0.291,0.074,0.439c0.438,0.111,3.049,0.72,5.968,0.314c1.829-0.254,3.218-0.795,4.062-1.204
				c0.701-0.34,1.151-0.648,1.325-0.774c-0.173-0.643-0.651-1.65-1.09-2.279c-1.253-1.791-2.604-2.25-3.298-2.365
				c-0.265-0.043-0.477-0.068-0.777-0.068c-0.28,0-0.626,0.022-1.089,0.071c-0.464,0.048-0.982,0.17-1.583,0.372
				c-0.842,0.282-1.605,0.725-2.204,1.28l-0.02,0.019C246.56,470.901,246.374,471.073,246.161,471.345z M253.829,470.928
				c0.601,0,1.089,0.488,1.089,1.09c0,0.601-0.489,1.09-1.089,1.09c-0.601,0-1.089-0.489-1.089-1.09
				C252.74,471.416,253.228,470.928,253.829,470.928z M248.678,470.885c0.973,0,1.76,0.789,1.76,1.761
				c0,0.972-0.787,1.759-1.76,1.759c-0.972,0-1.76-0.787-1.76-1.759C246.918,471.673,247.707,470.885,248.678,470.885z"/>
		</g>
	</g>
</g>
</svg>
