<?xml version="1.0" encoding="utf-8"?>
<!-- Generator: Adobe Illustrator 27.5.0, SVG Export Plug-In . SVG Version: 6.00 Build 0)  -->
<svg version="1.1" xmlns="http://www.w3.org/2000/svg" xmlns:xlink="http://www.w3.org/1999/xlink" x="0px" y="0px"
	 viewBox="0 0 1122 1122" style="enable-background:new 0 0 1122 1122;" xml:space="preserve">
<g id="background">
	<rect style="fill:#FFFFFF;" width="1122" height="1122"/>
</g>
<g id="shadow">
	<path style="opacity:0.12;fill:#606060;" d="M1033.852,936.689c-73.459-82.434-330.564-32.973-330.564-32.973
		c-18.346,5.047-34.167,10.043-47.709,14.972c-0.003,0.001-74.417,24.184-110.227,13.88c-28.659-8.246-107.295-19.126-148.862,2.204
		c-13.859-6.706-33.05-13.615-58.641-20.656c0,0-196.794-37.858-253.021,25.239c-56.227,63.097,122.293,75.716,173.6,80.448
		c24.539,2.263,93.608-8.103,135.165-26.092c32.395,12.673,91.464,10.68,123.292,2.743c49.573-12.362,74.465,0.659,130.399,17.838
		c54.518,19.4,130.831,30.17,159.763,27.502C874.08,1035.611,1107.311,1019.123,1033.852,936.689z"/>
</g>
<g id="object">
	<g>
		<g>
			<path style="fill:#CAB5A1;" d="M752.071,803.46c0,0-33.879,32.596-0.313,80.172c33.566,47.575,32.468,42.303,32.468,42.303
				l19.641-7.696L778,858l18.008-44.689L752.071,803.46z"/>
			<path style="fill:#CAB5A1;" d="M783.991,794.983c0,0,2.227,73.512,53.78,80.602c51.553,7.09,64.589,2.288,64.589,2.288
				l2.613-14.771c0,0-72.426-17.6-54.973-53.102l-17.872-11.578L783.991,794.983z"/>
			<polygon style="fill:#8C9498;" points="788,924 779.081,938.666 786.19,944.536 803,930 799,920 			"/>
			<polygon style="fill:#8C9498;" points="902.649,876.243 911,891 918,889 915,867 904.647,864.948 			"/>
			<path style="fill:#B26650;" d="M823.206,645.134c0,0-23.514-12.612-48.045,24.242c-24.531,36.854-47.882,105.195-39.796,139.482
				c8.086,34.287,50.248,1.191,81.389,8.623c31.141,7.432,48.502,0.754,34.959-48.527c-13.543-49.281-11.02-77.612-9.277-91.646
				C844.181,663.274,837.24,646.878,823.206,645.134z"/>
			<g>
				<g>
					<path style="fill:#EACDB0;" d="M815.349,586.057c22.094-22.269,50.96,3.679,46.116,30.534
						c-2.755,15.272-19.506,37.43-36.73,31.389c-1.751,2.109-4.91,6.149-7.657,6.494c-2.975,0.373-7.807-5.167-9.752-7.261
						c-0.539-0.581-1.083-1.217-1.232-1.996c-0.186-0.975,0.771-2.601,1.929-4.338c-1.615-1.26-3.126-2.763-4.499-4.538
						c-5.761-7.445-6.482-17.942-3.638-26.929C802.73,600.425,808.71,592.748,815.349,586.057z"/>
				</g>
				<path style="fill:#5C3C30;" d="M838.049,584.884c0,0,22.266,12.472,19.558,22.427c-4.071,14.965-5.808,25.278-9.224,33.906
					l19.647-5.411l17.537-25.164c0,0,4.238-23.437-6.624-30.668c-10.862-7.231-34.665-17.983-34.665-17.983l-20.538,0.827
					l-13.665-4.787l-6.556,43.119C803.519,601.148,817.775,572.953,838.049,584.884z"/>
			</g>
			<path style="fill:#B26650;" d="M832.363,648.914c0,0,28.637,19.086,47.637,2.086s25-46,25-46l13,5c0,0-6,67-25,76s-55,6-55,6
				S816.727,677.827,832.363,648.914z"/>
			<path style="fill:#B26650;" d="M806,645c-2-1-48-26-22-65s26-39,26-39l-15-9c0,0-48,36-50,68s32,74,32,74L806,645z"/>
			<path style="fill:#EACDB0;" d="M806.14,538.684L813,535l-5-15l-7,2c0,0-4.882,11.471-3.941,11.235S806.14,538.684,806.14,538.684
				z"/>
			<polygon style="fill:#EACDB0;" points="905,605 902,600 914,591 918,600 916.224,609.317 			"/>
		</g>
		<g>
			<polygon style="fill:#A1BDCC;" points="327,336 451,356 560,319 579,344 456.576,404.475 360,399 			"/>
			<polygon style="fill:#A1BDCC;" points="255.916,367.421 196,470 122.126,538.209 142,565 228.959,507.669 295.483,418.796 			"/>
			<g>
				<g>
					<g>
						<polygon style="fill:#8C9498;" points="415.72,564.254 419.493,725.248 391.613,933.215 368.282,933.491 351.274,742.105 
							317.074,550.923 						"/>
						<polygon style="fill:#3A3029;" points="368.384,930.713 368.533,943.328 393.913,955.644 406.378,942.879 393.613,930.414 
													"/>
					</g>
					<polygon style="fill:#3A3029;" points="288.99,936.791 309.051,953.843 304.036,963.874 266.922,955.849 266.922,936.791 					
						"/>
					<polygon style="fill:#8C9498;" points="334.814,627.586 318.139,783.635 296.136,939.18 264.755,937.688 265.9,776.326 
						247.01,626.664 291.374,605.998 					"/>
				</g>
				<path style="fill:#A1BDCC;" d="M328.37,336.256c0.004,0.002,41.921,20.025,77.801,98.929
					c36.536,80.349,48.344,191.743,48.344,191.743s-213.151,67.414-213.705,30.419c0,0-48.202-292.688,47.659-313.421
					C292.826,342.983,325.738,334.762,328.37,336.256z"/>
				<path style="fill:#FFFFFF;" d="M317.067,337.125c22.074,37.856,42.886,82.676,65.384,120.284
					c13.331,22.285,16.889,47.007,21.841,72.033c4.923,24.881,9.845,49.761,14.768,74.642c2.08,10.512,4.16,21.024,6.24,31.537
					c0,0-89.906,22.313-89.906,22.313c1.017-31.113,2.801-62.206,3.241-93.334c0.406-28.71,2.641-61.19-6.482-88.803
					c-4.441-13.441-9.085-26.844-13.593-40.273c-8.272-24.638-14.005-50.232-22.493-74.797c-0.593-1.717-0.733-16.801-0.42-18.648
					L317.067,337.125z"/>
			</g>
			<g>
				<path style="fill:#EACDB0;" d="M316.836,348.004c-7.233-0.755-14.466-1.51-21.699-2.265c-0.04-5.8,0.384-11.602,1.267-17.334
					c-6.021-2.152-12.974-5.369-13.992-11.681c-0.321-1.988,0.033-4.016,0.387-5.999c1.46-8.196,2.921-16.393,4.381-24.589
					c0.505-2.835,1.042-5.753,2.598-8.176c2.73-4.252,7.994-6.091,12.977-6.929c12.715-2.139,26.544,0.685,36.351,9.056
					c2.61,2.228,4.967,4.902,6.105,8.139c1.756,4.991,0.395,10.479-0.976,15.59c-1.265,4.717-2.53,9.434-3.795,14.151
					c-1.455,5.425-3.547,11.591-8.792,13.601c-2.785,1.067-6.064,0.734-8.589,2.322C318.605,336.689,319.169,343.29,316.836,348.004
					z"/>
				<polygon style="fill:#3A3029;" points="357.34,294.105 339.701,319.123 345.997,294.736 				"/>
				<path style="fill:#3A3029;" d="M388.084,266.457c0.178-5.624-0.576-11.321-1.666-16.458
					c-1.874-8.827-12.247-12.857-21.244-13.541c-19.433-1.477-38.138-10.413-57.169-3.735c-10.878,3.818-25.46,4.656-35.317,10.074
					c-4.116,2.263-7.41,5.815-9.983,9.744c-8.915,13.614-9.062,32.449-0.36,46.2c1.952,3.085,4.293,5.908,6.754,8.605
					c5.094,5.582,11.186,12.476,18.221,14.571c0.201-6.303-5.438-26.211-0.57-31.352c7.726-8.159,25.082-5.208,34.603-3.14
					c10.385,2.256,19.613,9.667,29.912,11.293c7.411,1.17,16.895-2.417,23.222-6.218C384.4,286.544,387.762,276.619,388.084,266.457
					z"/>
			</g>
			<g>
				<path style="fill:#2E4661;" d="M572.914,314.076c-32.429-46.043-95.617-59.096-143.832-28.753
					c-32.015,20.148-49.632,54.525-49.814,89.743l-96.927,60.999c-31.83-15.072-70.445-14.06-102.46,6.088
					c-48.215,30.343-63.782,92.959-36.299,142.115l-0.169,0.055l100.4,159.535l0.198-0.075
					c18.891,25.461,54.51,32.459,81.791,15.291c21.58-13.581,31.78-38.407,27.785-62.072l-9.435-80.861l170.729-107.445
					l68.821,43.488c19.608,13.839,46.404,15.383,67.983,1.802c27.281-17.169,36.38-52.309,21.598-80.356l0.153-0.146l-100.4-159.535
					L572.914,314.076z"/>
				<path style="fill:#283D54;" d="M572.956,314.302c0,0,112.109,189.575,24.069,244.99c17.414,6.698,37.656,5.394,54.661-5.308
					c27.281-17.169,36.38-52.309,21.598-80.356l0.153-0.146L573.063,313.989L572.956,314.302z"/>
				<path style="fill:#283D54;" d="M291.917,506.628l-24.088,15.159c-2.771,1.744-6.432,0.911-8.176-1.86l-15.159-24.088
					c-1.744-2.771-5.405-3.604-8.176-1.86l-24.088,15.159c-2.771,1.744-3.604,5.405-1.86,8.176l15.159,24.088
					c1.744,2.772,0.911,6.432-1.86,8.177l-23.586,14.843c-2.771,1.744-3.604,5.405-1.86,8.176l15.159,24.088
					c1.744,2.772,5.405,3.604,8.176,1.86l23.586-14.843c2.771-1.744,6.432-0.911,8.176,1.86l14.843,23.586
					c1.744,2.772,5.405,3.604,8.176,1.86l24.088-15.159c2.772-1.744,3.604-5.405,1.86-8.176l-14.843-23.586
					c-1.744-2.772-0.911-6.432,1.86-8.177l24.088-15.159c2.771-1.744,3.604-5.405,1.86-8.176l-15.159-24.088
					C298.35,505.716,294.689,504.884,291.917,506.628z"/>
				<g>
					
						<ellipse transform="matrix(0.6006 -0.7996 0.7996 0.6006 -93.8781 532.4574)" style="fill:#283D54;" cx="486.015" cy="360.194" rx="19.768" ry="19.768"/>
					<path style="fill:#283D54;" d="M490.798,404.91c5.815,9.24,3.039,21.445-6.202,27.26c-9.24,5.815-21.445,3.039-27.26-6.202
						c-5.815-9.24-3.038-21.445,6.202-27.26C472.778,392.893,484.983,395.67,490.798,404.91z"/>
					<path style="fill:#283D54;" d="M556.291,363.694c5.815,9.24,3.039,21.445-6.202,27.26c-9.24,5.815-21.445,3.039-27.26-6.202
						c-5.815-9.24-3.039-21.445,6.202-27.26C538.271,351.677,550.476,354.453,556.291,363.694z"/>
					
						<ellipse transform="matrix(0.6595 -0.7517 0.7517 0.6595 -141.4996 542.8085)" style="fill:#283D54;" cx="528.435" cy="427.6" rx="19.768" ry="19.768"/>
				</g>
				<path style="fill:#FFDB8C;" d="M283.754,504.771l-24.088,15.159c-2.772,1.744-6.432,0.911-8.176-1.86l-15.159-24.088
					c-1.744-2.772-5.405-3.604-8.176-1.86l-24.088,15.159c-2.771,1.744-3.604,5.405-1.86,8.176l15.159,24.088
					c1.744,2.771,0.911,6.432-1.86,8.176l-23.586,14.843c-2.771,1.744-3.604,5.405-1.86,8.176l15.159,24.088
					c1.744,2.771,5.405,3.604,8.176,1.86l23.586-14.843c2.771-1.744,6.432-0.911,8.176,1.86L260,607.292
					c1.744,2.771,5.405,3.604,8.177,1.86l24.088-15.159c2.771-1.744,3.604-5.405,1.86-8.176l-14.843-23.586
					c-1.744-2.771-0.911-6.432,1.86-8.177l24.088-15.159c2.772-1.744,3.604-5.405,1.86-8.177l-15.159-24.088
					C290.186,503.859,286.525,503.026,283.754,504.771z"/>
				<g>
					<circle style="fill:#FFDB8C;" cx="477.851" cy="358.337" r="19.768"/>
					<circle style="fill:#FFDB8C;" cx="465.904" cy="413.582" r="19.768"/>
					
						<ellipse transform="matrix(0.6324 -0.7746 0.7746 0.6324 -93.1156 548.4991)" style="fill:#FFDB8C;" cx="531.396" cy="372.366" rx="19.768" ry="19.768"/>
					
						<ellipse transform="matrix(0.9863 -0.1647 0.1647 0.9863 -63.0228 91.5166)" style="fill:#FFDB8C;" cx="520.272" cy="425.743" rx="19.768" ry="19.768"/>
				</g>
				<path style="fill:#385575;" d="M206.808,458.357c14.097-8.871,29.538-13.844,45.063-15.207
					c-21.745-4.615-45.236-1.107-65.535,11.668c-41.39,26.048-53.827,80.717-27.779,122.106c3.997,6.351,8.673,12.015,13.867,16.968
					C146.048,547.068,160.829,487.293,206.808,458.357z"/>
				<path style="fill:#283D54;" d="M271.131,764.385L271.131,764.385c17.416,6.7,37.664,5.391,54.672-5.312
					c21.58-13.581,31.78-38.407,27.785-62.072l-9.153-78.443C344.436,618.565,353.529,712.53,271.131,764.385z"/>
				<polygon style="fill:#283D54;" points="489.245,492.353 414.966,538.859 340.687,585.366 344.185,616.297 429.66,562.328 
					515.542,509.009 				"/>
			</g>
			<path style="fill:#EACDB0;" d="M135.998,568.507C134,569,119,558,119,558v-23l23-11l8,20l-17.26,17L135.998,568.507z"/>
			<polygon style="fill:#EACDB0;" points="591,316 588.576,338.543 586,333 565,336 557,324 576,307 			"/>
		</g>
	</g>
</g>
</svg>
