<?xml version="1.0" encoding="utf-8"?>
<!-- Generator: Adobe Illustrator 27.5.0, SVG Export Plug-In . SVG Version: 6.00 Build 0)  -->
<svg version="1.1" xmlns="http://www.w3.org/2000/svg" xmlns:xlink="http://www.w3.org/1999/xlink" x="0px" y="0px"
	 viewBox="0 0 500 500" style="enable-background:new 0 0 500 500;" xml:space="preserve">
<g id="BACKGROUND">
	<g>
		<g>
			
				<radialGradient id="SVGID_1_" cx="250.0039" cy="233.746" r="302.4406" gradientTransform="matrix(0.9996 0.0294 -0.0244 0.8299 5.4671 32.0649)" gradientUnits="userSpaceOnUse">
				<stop  offset="0" style="stop-color:#F2F2F2"/>
				<stop  offset="0.262" style="stop-color:#F2F2F0"/>
				<stop  offset="0.4083" style="stop-color:#F3F0E8"/>
				<stop  offset="0.5261" style="stop-color:#F4EEDA"/>
				<stop  offset="0.6288" style="stop-color:#F5EAC6"/>
				<stop  offset="0.7216" style="stop-color:#F6E6AD"/>
				<stop  offset="0.8074" style="stop-color:#F8E08D"/>
				<stop  offset="0.8876" style="stop-color:#FBDA68"/>
				<stop  offset="0.9615" style="stop-color:#FDD23E"/>
				<stop  offset="1" style="stop-color:#FFCE25"/>
			</radialGradient>
			<path style="fill:url(#SVGID_1_);" d="M81.203,163.555c-8.355,15.721-13.059,33.372-12.956,50.875
				c0.127,21.461,6.863,42.851,19.13,60.462c13.473,19.342,32.834,33.438,52.62,45.747c19.158,11.918,37.023,24.953,54.038,39.915
				c16.469,14.483,33.239,29.059,52.882,38.814c19.367,9.619,42.964,14.59,64.053,7.747c22.901-7.431,36.69-30.911,41.43-53.305
				c3.732-17.632,5.549-36.415,18.788-49.97c6.337-6.489,13.014-12.647,19.992-18.44c13.965-11.593,26.07-25.93,33.518-42.578
				c6.676-14.922,9.508-31.722,6.898-47.859c-5.096-31.512-30.272-61.685-54.641-80.938c-22.292-17.612-52.562-25.338-80.499-19.622
				c-17.307,3.541-32.991,12.108-49.779,17.3c-28.344,8.765-52.974-2.529-81.273-2.806
				C129.427,108.546,97.592,132.717,81.203,163.555z"/>
		</g>
	</g>
</g>
<g id="OBJECTS">
	<g>
		<g>
			<g>
				<g>
					<g>
						
							<linearGradient id="SVGID_00000152264702923498330410000010417613728239823494_" gradientUnits="userSpaceOnUse" x1="318.803" y1="305.3201" x2="442.8035" y2="214.8198">
							<stop  offset="0" style="stop-color:#074C47"/>
							<stop  offset="0.274" style="stop-color:#0D8F82"/>
							<stop  offset="0.4988" style="stop-color:#11BFAD"/>
							<stop  offset="0.61" style="stop-color:#13D2BD"/>
						</linearGradient>
						<path style="fill:url(#SVGID_00000152264702923498330410000010417613728239823494_);" d="M321.3,321.977l6.314-1.772
							l3.017-0.849l10.098-2.839c1.826-2.898,4.03-5.286,6.497-7.315c0.891-0.728,1.819-1.416,2.776-2.057
							c6.508-4.384,14.373-6.88,21.869-9.676c2.002-0.749,3.982-1.519,5.897-2.354c0.03-0.013,0.064-0.027,0.094-0.04
							c11.751-5.123,24.821-12.272,29.603-24.969c1.577-4.186,2.07-8.68,1.721-13.121c-0.02-0.278-0.046-0.555-0.076-0.83
							c-0.055-0.525-0.115-1.054-0.187-1.581c-1.104-8.113-4.307-15.954-10.636-20.193c-0.792-0.538-1.641-1.018-2.543-1.425
							c-1.975-0.913-4.191-1.51-6.684-1.728c-3.088-0.271-6.168-0.049-9.201,0.537c-0.952,0.177-1.899,0.396-2.838,0.646
							c-8.296,2.206-16.195,6.882-23.05,11.402c-1.786,1.179-3.508,2.44-5.163,3.794c-0.79,0.632-1.567,1.293-2.323,1.971
							c-2.767,2.463-5.34,5.161-7.704,8.041c-0.58,0.71-1.151,1.435-1.704,2.166c-2.657,3.497-5.025,7.238-7.08,11.162
							c-0.62,1.183-1.209,2.38-1.772,3.598C321.335,289.37,318.73,306.331,321.3,321.977z"/>
					</g>
					<path style="fill:#FFFFFF;" d="M327.614,320.205l3.017-0.849c1.351-2.775,2.763-5.521,4.156-8.279
						c0.205,0.08,0.444,0.102,0.715,0.029c3.573-0.954,7.793-2.108,11.724-1.905c0.891-0.728,1.819-1.416,2.776-2.057
						c-4.466-0.952-9.553,0.194-13.906,1.337c1.718-3.443,3.384-6.917,4.859-10.484c1.003-2.421,2.221-4.7,3.581-6.873
						c3.565,4.001,9.904,4.933,14.908,5.577c4.122,0.531,8.272,0.718,12.427,0.767c2.002-0.749,3.982-1.519,5.897-2.354
						c-0.068-0.01-0.141-0.019-0.216-0.017c-5.283,0.03-10.572-0.004-15.83-0.53c-5.034-0.5-12.092-1.128-15.623-5.257
						c-0.072-0.091-0.147-0.154-0.227-0.21c3.95-5.762,8.853-10.863,13.453-16.198c2.678-3.105,5.285-6.279,7.901-9.439
						c6.462,3.987,16.027,1.586,22.76-0.166c6.538-1.703,12.819-4.153,19.2-6.312c-0.02-0.278-0.046-0.555-0.076-0.83
						c-0.055-0.525-0.115-1.054-0.187-1.581c-5.799,1.96-11.51,4.187-17.413,5.84c-6.477,1.818-16.257,4.818-22.739,1.189
						c1.384-1.656,2.77-3.307,4.182-4.938c5.238-6.033,10.691-12.028,16.958-17.01c2.327-1.847,5.258-4.046,8.376-5.274
						c-0.792-0.538-1.641-1.018-2.543-1.425c-2.566,1.281-4.956,3.008-6.99,4.591c-6.095,4.75-11.39,10.335-16.426,16.171
						c0.641-4.117,2.283-8.237,3.656-12.041c1.205-3.337,2.482-6.649,3.875-9.913c-0.952,0.177-1.899,0.396-2.838,0.646
						c-1.177,2.84-2.28,5.711-3.321,8.593c-1.771,4.893-3.873,10.228-4.026,15.497c-0.001,0.104,0.013,0.204,0.03,0.297
						c-1.142,1.362-2.276,2.733-3.405,4.102c-0.085,0.076-0.16,0.165-0.222,0.267c-3.137,3.801-6.26,7.61-9.507,11.276
						c-0.103,0.113-0.2,0.224-0.298,0.335c-2.965-3.932-4.615-8.965-5.817-13.668c-0.934-3.665-1.718-7.628-1.649-11.505
						c-0.79,0.632-1.567,1.293-2.323,1.971c0.156,3.428,0.83,6.859,1.661,10.108c1.332,5.199,3.216,10.608,6.533,14.905
						c-2.204,2.497-4.347,4.973-6.371,7.513c-3.194-8.154-6.387-16.308-9.527-24.486c-0.58,0.71-1.151,1.435-1.704,2.166
						c3.15,8.176,6.34,16.336,9.54,24.493c-3.092,4.089-5.84,8.404-7.997,13.273c-1.572-4.067-3.368-8.045-4.881-12.137
						c-1.737-4.706-2.986-9.528-3.741-14.468c-0.62,1.183-1.209,2.38-1.772,3.598c0.701,3.603,1.655,7.154,2.911,10.652
						c1.787,4.971,4.03,9.764,5.847,14.727c0.083,0.224,0.212,0.394,0.365,0.524C334.398,307.174,330.81,313.602,327.614,320.205z"
						/>
				</g>
				<g>
					<g>
						
							<linearGradient id="SVGID_00000170962898252260819200000009771662046173693083_" gradientUnits="userSpaceOnUse" x1="329.2906" y1="329.7257" x2="453.2907" y2="239.2256">
							<stop  offset="0" style="stop-color:#074C47"/>
							<stop  offset="0.0856" style="stop-color:#0A7067"/>
							<stop  offset="0.1771" style="stop-color:#0D8E81"/>
							<stop  offset="0.2783" style="stop-color:#0FA797"/>
							<stop  offset="0.391" style="stop-color:#11BAA8"/>
							<stop  offset="0.5217" style="stop-color:#12C8B4"/>
							<stop  offset="0.6863" style="stop-color:#13D0BB"/>
							<stop  offset="0.9955" style="stop-color:#13D2BD"/>
						</linearGradient>
						<path style="fill:url(#SVGID_00000170962898252260819200000009771662046173693083_);" d="M300.433,293.012l4.758,4.514
							l2.274,2.156l7.613,7.216c3.425,0.083,6.605,0.751,9.611,1.83c1.082,0.392,2.148,0.837,3.189,1.33
							c7.1,3.341,13.273,8.816,19.516,13.82c1.669,1.336,3.345,2.641,5.044,3.857c0.026,0.019,0.056,0.041,0.082,0.06
							c10.421,7.465,23.258,15.025,36.611,12.626c4.403-0.791,8.514-2.671,12.15-5.246c0.228-0.16,0.453-0.323,0.674-0.491
							c0.423-0.316,0.846-0.639,1.262-0.97c6.401-5.106,11.493-11.874,11.89-19.481c0.055-0.956,0.033-1.931-0.08-2.914
							c-0.228-2.163-0.851-4.373-1.941-6.625c-1.35-2.791-3.119-5.322-5.176-7.626c-0.64-0.727-1.314-1.428-2.01-2.106
							c-6.146-5.994-14.209-10.381-21.603-13.951c-1.928-0.929-3.893-1.762-5.904-2.49c-0.947-0.355-1.914-0.683-2.884-0.985
							c-3.533-1.114-7.168-1.941-10.853-2.495c-0.907-0.134-1.822-0.253-2.733-0.353c-4.365-0.49-8.79-0.606-13.213-0.36
							c-1.334,0.074-2.664,0.181-3.998,0.322C328.452,276.333,312.552,282.787,300.433,293.012z"/>
					</g>
					<path style="fill:#FFFFFF;" d="M305.191,297.526l2.274,2.156c3.075-0.262,6.157-0.457,9.239-0.674
						c0.037,0.217,0.14,0.434,0.341,0.629c2.65,2.579,5.803,5.612,7.644,9.091c1.082,0.392,2.148,0.837,3.189,1.33
						c-1.471-4.323-5.062-8.104-8.275-11.256c3.837-0.289,7.674-0.638,11.493-1.2c2.594-0.379,5.175-0.501,7.737-0.447
						c-1.609,5.111,0.839,11.032,2.851,15.66c1.656,3.812,3.623,7.471,5.709,11.064c1.669,1.336,3.345,2.641,5.044,3.857
						c-0.026-0.064-0.056-0.131-0.096-0.195c-2.733-4.521-5.414-9.08-7.657-13.865c-2.15-4.579-5.228-10.962-3.492-16.11
						c0.042-0.108,0.057-0.205,0.065-0.302c6.972,0.439,13.865,2.035,20.804,3.251c4.039,0.709,8.1,1.321,12.154,1.947
						c-0.113,7.593,6.851,14.576,11.805,19.46c4.813,4.742,10.135,8.88,15.26,13.253c0.228-0.16,0.453-0.323,0.674-0.491
						c0.423-0.316,0.846-0.639,1.262-0.97c-4.655-3.975-9.493-7.738-13.938-11.96c-4.88-4.63-12.468-11.491-12.674-18.917
						c2.132,0.34,4.259,0.683,6.383,1.061c7.865,1.406,15.807,3.017,23.297,5.845c2.779,1.052,6.169,2.442,8.821,4.491
						c0.055-0.956,0.033-1.931-0.08-2.914c-2.415-1.547-5.122-2.715-7.524-3.649c-7.203-2.8-14.711-4.485-22.304-5.819
						c3.864-1.559,8.243-2.261,12.213-3.031c3.483-0.675,6.981-1.275,10.498-1.752c-0.64-0.727-1.314-1.428-2.01-2.106
						c-3.042,0.445-6.073,0.968-9.081,1.552c-5.109,0.987-10.767,1.916-15.37,4.484c-0.09,0.052-0.169,0.115-0.24,0.178
						c-1.754-0.283-3.513-0.554-5.267-0.821c-0.108-0.034-0.224-0.053-0.344-0.054c-4.872-0.745-9.743-1.476-14.554-2.385
						c-0.149-0.03-0.295-0.057-0.44-0.084c1.857-4.561,5.334-8.557,8.756-12c2.669-2.68,5.67-5.385,9.034-7.311
						c-0.947-0.355-1.914-0.683-2.884-0.985c-2.864,1.891-5.464,4.228-7.829,6.606c-3.782,3.808-7.461,8.198-9.451,13.249
						c-3.273-0.613-6.498-1.184-9.717-1.621c5.365-6.921,10.731-13.842,16.144-20.729c-0.907-0.134-1.822-0.253-2.733-0.353
						c-5.406,6.895-10.779,13.815-16.144,20.744c-5.096-0.559-10.209-0.708-15.496-0.065c2.686-3.434,5.183-7.015,7.921-10.411
						c3.151-3.903,6.652-7.447,10.506-10.627c-1.334,0.074-2.664,0.181-3.998,0.322c-2.735,2.448-5.295,5.087-7.655,7.959
						c-3.353,4.082-6.319,8.464-9.65,12.568c-0.15,0.186-0.229,0.384-0.263,0.582C319.857,296.673,312.499,296.887,305.191,297.526z
						"/>
				</g>
			</g>
		</g>
		<g>
			<g>
				<g>
					<g>
						
							<linearGradient id="SVGID_00000048459116402480298060000006767678475103169703_" gradientUnits="userSpaceOnUse" x1="75.7838" y1="237.9896" x2="199.7842" y2="147.4893" gradientTransform="matrix(-0.9769 -0.2135 -0.2135 0.9769 305.94 33.0325)">
							<stop  offset="0" style="stop-color:#074C47"/>
							<stop  offset="0.274" style="stop-color:#0D8F82"/>
							<stop  offset="0.4988" style="stop-color:#11BFAD"/>
							<stop  offset="0.61" style="stop-color:#13D2BD"/>
						</linearGradient>
						<path style="fill:url(#SVGID_00000048459116402480298060000006767678475103169703_);" d="M175.102,265.098l-5.79-3.079
							l-2.766-1.473l-9.259-4.929c-1.165-3.221-2.808-6.025-4.785-8.534c-0.715-0.901-1.475-1.772-2.273-2.602
							c-5.422-5.672-12.572-9.79-19.299-14.121c-1.796-1.159-3.566-2.334-5.258-3.559c-0.026-0.019-0.057-0.04-0.083-0.059
							c-10.386-7.513-21.629-17.288-23.59-30.713c-0.647-4.426-0.169-8.921,1.12-13.186c0.079-0.267,0.163-0.532,0.252-0.795
							c0.165-0.502,0.338-1.005,0.52-1.505c2.811-7.69,7.614-14.667,14.702-17.457c0.889-0.356,1.821-0.644,2.788-0.849
							c2.124-0.471,4.417-0.58,6.899-0.261c3.075,0.394,6.037,1.269,8.875,2.489c0.892,0.376,1.771,0.793,2.635,1.237
							c7.634,3.926,14.353,10.181,20.085,16.059c1.493,1.533,2.906,3.133,4.234,4.809c0.637,0.786,1.255,1.598,1.849,2.422
							c2.178,2.997,4.115,6.182,5.81,9.5c0.415,0.818,0.818,1.647,1.202,2.48c1.849,3.984,3.364,8.143,4.534,12.416
							c0.353,1.288,0.674,2.583,0.963,3.893C182.029,233.235,180.954,250.361,175.102,265.098z"/>
					</g>
					<path style="fill:#FFFFFF;" d="M169.312,262.019l-2.766-1.473c-0.727-2.999-1.521-5.983-2.293-8.975
						c-0.217,0.034-0.456,0.005-0.704-0.124c-3.287-1.695-7.163-3.723-11.047-4.364c-0.715-0.901-1.475-1.772-2.273-2.602
						c4.566,0.024,9.292,2.229,13.3,4.275c-0.943-3.73-1.83-7.48-2.509-11.28c-0.463-2.58-1.167-5.066-2.031-7.479
						c-4.337,3.148-10.729,2.705-15.755,2.266c-4.14-0.361-8.235-1.065-12.304-1.903c-1.796-1.159-3.566-2.334-5.258-3.559
						c0.068,0.004,0.142,0.011,0.215,0.03c5.155,1.157,10.329,2.253,15.578,2.861c5.025,0.586,12.054,1.479,16.385-1.801
						c0.089-0.074,0.177-0.119,0.266-0.157c-2.629-6.472-6.33-12.502-9.685-18.697c-1.954-3.605-3.823-7.263-5.704-10.908
						c-7.165,2.516-15.996-1.872-22.2-5.02c-6.024-3.059-11.637-6.794-17.41-10.266c0.079-0.267,0.163-0.532,0.252-0.795
						c0.165-0.502,0.338-1.005,0.52-1.505c5.247,3.153,10.351,6.547,15.764,9.423c5.939,3.159,14.854,8.177,21.961,6.016
						c-0.999-1.914-2-3.822-3.031-5.717c-3.829-7.012-7.877-14.033-12.935-20.238c-1.879-2.301-4.273-5.075-7.058-6.941
						c0.889-0.356,1.821-0.644,2.788-0.849c2.234,1.799,4.2,3.996,5.848,5.978c4.941,5.942,8.921,12.528,12.595,19.305
						c0.252-4.159-0.472-8.535-1.001-12.544c-0.465-3.518-1.006-7.025-1.669-10.511c0.892,0.376,1.771,0.793,2.635,1.237
						c0.543,3.026,1.009,6.066,1.41,9.105c0.686,5.158,1.6,10.819,0.625,15.999c-0.021,0.102-0.056,0.196-0.093,0.284
						c0.825,1.574,1.64,3.155,2.45,4.734c0.067,0.092,0.121,0.196,0.16,0.309c2.253,4.383,4.491,8.771,6.88,13.045
						c0.076,0.132,0.148,0.262,0.219,0.391c3.736-3.209,6.422-7.773,8.601-12.111c1.695-3.381,3.307-7.085,4.067-10.887
						c0.637,0.786,1.255,1.598,1.849,2.422c-0.885,3.316-2.275,6.523-3.78,9.521c-2.411,4.795-5.407,9.677-9.565,13.167
						c1.62,2.91,3.185,5.787,4.621,8.7c4.861-7.284,9.721-14.568,14.535-21.887c0.415,0.818,0.818,1.647,1.202,2.48
						c-4.823,7.315-9.681,14.606-14.549,21.892c2.148,4.655,3.911,9.457,4.979,14.675c2.404-3.637,5.008-7.141,7.36-10.815
						c2.702-4.227,4.951-8.671,6.743-13.335c0.353,1.288,0.674,2.583,0.963,3.893c-1.453,3.37-3.144,6.636-5.118,9.785
						c-2.807,4.475-6.021,8.678-8.856,13.14c-0.129,0.201-0.291,0.339-0.468,0.435C165.467,247.84,167.6,254.886,169.312,262.019z"
						/>
				</g>
				<g>
					<g>
						
							<linearGradient id="SVGID_00000109728922493774520710000004680354596908298928_" gradientUnits="userSpaceOnUse" x1="86.2714" y1="262.3952" x2="210.2714" y2="171.8952" gradientTransform="matrix(-0.9769 -0.2135 -0.2135 0.9769 305.94 33.0325)">
							<stop  offset="0" style="stop-color:#074C47"/>
							<stop  offset="0.0856" style="stop-color:#0A7067"/>
							<stop  offset="0.1771" style="stop-color:#0D8E81"/>
							<stop  offset="0.2783" style="stop-color:#0FA797"/>
							<stop  offset="0.391" style="stop-color:#11BAA8"/>
							<stop  offset="0.5217" style="stop-color:#12C8B4"/>
							<stop  offset="0.6863" style="stop-color:#13D0BB"/>
							<stop  offset="0.9955" style="stop-color:#13D2BD"/>
						</linearGradient>
						<path style="fill:url(#SVGID_00000109728922493774520710000004680354596908298928_);" d="M201.672,241.255l-5.611,3.394
							l-2.682,1.62l-8.978,5.425c-3.364-0.65-6.613-0.676-9.78-0.264c-1.141,0.152-2.277,0.359-3.399,0.618
							c-7.649,1.749-14.849,5.779-22.016,9.336c-1.915,0.949-3.831,1.866-5.751,2.692c-0.029,0.013-0.063,0.029-0.093,0.041
							c-11.774,5.069-25.929,9.714-38.462,4.519c-4.132-1.713-7.748-4.427-10.75-7.719c-0.189-0.205-0.373-0.413-0.554-0.623
							c-0.346-0.399-0.69-0.805-1.026-1.217c-5.163-6.355-8.693-14.054-7.457-21.57c0.15-0.946,0.38-1.893,0.7-2.829
							c0.684-2.065,1.765-4.09,3.311-6.058c1.914-2.438,4.183-4.534,6.685-6.345c0.78-0.574,1.588-1.114,2.413-1.628
							c7.283-4.544,16.097-7.108,24.083-9.018c2.082-0.496,4.179-0.89,6.299-1.172c1.001-0.144,2.015-0.258,3.028-0.347
							c3.689-0.334,7.417-0.366,11.135-0.121c0.915,0.063,1.834,0.142,2.745,0.238c4.368,0.453,8.717,1.285,12.985,2.469
							c1.287,0.357,2.564,0.746,3.837,1.168C177.86,218.979,192.015,228.679,201.672,241.255z"/>
					</g>
					<path style="fill:#FFFFFF;" d="M196.06,244.649l-2.682,1.62c-2.948-0.912-5.917-1.76-8.882-2.63
						c-0.082,0.204-0.23,0.394-0.468,0.541c-3.14,1.954-6.867,4.243-9.408,7.25c-1.141,0.152-2.277,0.359-3.399,0.618
						c2.36-3.909,6.676-6.836,10.487-9.23c-3.687-1.102-7.361-2.261-10.972-3.626c-2.453-0.924-4.949-1.594-7.463-2.089
						c0.481,5.337-3.175,10.599-6.128,14.69c-2.432,3.37-5.134,6.526-7.94,9.59c-1.915,0.949-3.831,1.866-5.751,2.692
						c0.039-0.057,0.082-0.116,0.136-0.169c3.635-3.834,7.227-7.715,10.44-11.911c3.078-4.015,7.448-9.593,6.851-14.993
						c-0.018-0.115-0.012-0.213,0.001-0.309c-6.905-1.059-13.98-0.971-21.018-1.265c-4.097-0.17-8.195-0.439-12.29-0.692
						c-1.511,7.442-9.805,12.777-15.688,16.491c-5.714,3.605-11.797,6.511-17.737,9.69c-0.189-0.205-0.373-0.413-0.554-0.623
						c-0.346-0.399-0.69-0.805-1.026-1.217c5.396-2.89,10.927-5.533,16.17-8.709c5.756-3.481,14.634-8.565,16.42-15.776
						c-2.155-0.123-4.307-0.242-6.462-0.326c-7.983-0.306-16.087-0.427-24.008,0.736c-2.939,0.434-6.548,1.069-9.577,2.504
						c0.15-0.946,0.38-1.893,0.7-2.829c2.69-0.996,5.584-1.559,8.13-1.959c7.634-1.198,15.33-1.241,23.032-0.923
						c-3.442-2.348-7.571-3.968-11.284-5.568c-3.259-1.403-6.548-2.736-9.882-3.953c0.78-0.574,1.588-1.114,2.413-1.628
						c2.877,1.084,5.726,2.242,8.541,3.455c4.781,2.055,10.11,4.17,14.059,7.662c0.077,0.07,0.14,0.149,0.196,0.226
						c1.774,0.098,3.55,0.209,5.321,0.322c0.113-0.01,0.23-0.004,0.347,0.021c4.918,0.312,9.833,0.638,14.728,0.777
						c0.152,0.002,0.3,0.007,0.448,0.012c-0.841-4.853-3.384-9.498-5.992-13.592c-2.035-3.188-4.39-6.471-7.265-9.071
						c1.001-0.144,2.015-0.258,3.028-0.347c2.394,2.459,4.436,5.297,6.238,8.125c2.882,4.527,5.539,9.602,6.405,14.961
						c3.329,0.1,6.601,0.23,9.839,0.49c-3.764-7.907-7.528-15.813-11.347-23.697c0.915,0.063,1.834,0.142,2.745,0.238
						c3.81,7.89,7.581,15.798,11.344,23.712c5.098,0.541,10.125,1.488,15.153,3.244c-1.891-3.928-3.566-7.959-5.516-11.863
						c-2.245-4.486-4.909-8.695-7.996-12.624c1.287,0.357,2.564,0.746,3.837,1.168c2.149,2.976,4.087,6.1,5.779,9.409
						c2.405,4.704,4.367,9.618,6.745,14.338c0.107,0.214,0.142,0.424,0.133,0.625C181.914,240.686,189.057,242.465,196.06,244.649z"
						/>
				</g>
			</g>
		</g>
	</g>
	<g>
		
			<linearGradient id="SVGID_00000179630337881574944820000017408278105448559028_" gradientUnits="userSpaceOnUse" x1="249.9997" y1="355.635" x2="249.9997" y2="141.9697">
			<stop  offset="0.0188" style="stop-color:#FF9D3B"/>
			<stop  offset="0.9838" style="stop-color:#FFD239"/>
			<stop  offset="1" style="stop-color:#FFD039"/>
		</linearGradient>
		<path style="fill:url(#SVGID_00000179630337881574944820000017408278105448559028_);" d="M342.703,411.362H157.296
			c-3.966,0-7.181-3.215-7.181-7.181V152.248c0-3.966,3.215-7.181,7.181-7.181h185.407c3.966,0,7.181,3.215,7.181,7.181v251.934
			C349.884,408.147,346.669,411.362,342.703,411.362z"/>
		<rect x="164.105" y="159.458" style="fill:#E6E6E6;" width="178.605" height="244.712"/>
		
			<linearGradient id="SVGID_00000177486542952329837150000016337882816466314634_" gradientUnits="userSpaceOnUse" x1="139.3535" y1="404.388" x2="367.3529" y2="144.3889">
			<stop  offset="0" style="stop-color:#FFFFFF"/>
			<stop  offset="0.2367" style="stop-color:#FCFCFC"/>
			<stop  offset="0.4055" style="stop-color:#F3F3F3"/>
			<stop  offset="0.532" style="stop-color:#E6E6E6"/>
			<stop  offset="0.6382" style="stop-color:#F1F1F1"/>
			<stop  offset="0.8054" style="stop-color:#FCFCFC"/>
			<stop  offset="1" style="stop-color:#FFFFFF"/>
		</linearGradient>
		
			<rect x="161.011" y="155.499" style="fill:url(#SVGID_00000177486542952329837150000016337882816466314634_);" width="178.605" height="244.712"/>
		<g>
			<g>
				<g>
					<path style="fill:#13D2BD;" d="M321.288,373.975H281.93v-39.358h39.358V373.975z M284.502,371.402h34.213v-34.213h-34.213
						V371.402z"/>
				</g>
			</g>
			<g>
				<g>
					<path style="fill:#13D2BD;" d="M321.406,215.748h-39.358V176.39h39.358V215.748z M284.621,213.176h34.213v-34.213h-34.213
						V213.176z"/>
				</g>
				<g>
					<path style="fill:#FF9D3B;" d="M297.832,212.155c-0.049,0-0.097-0.002-0.146-0.005c-0.572-0.043-1.098-0.332-1.439-0.794
						l-9.201-12.439c-0.647-0.875-0.463-2.11,0.412-2.757c0.875-0.646,2.111-0.463,2.757,0.413l7.84,10.599l26.609-26.61
						c0.771-0.77,2.019-0.77,2.788,0c0.77,0.77,0.77,2.018,0.001,2.788l-28.227,28.228
						C298.854,211.949,298.353,212.155,297.832,212.155z"/>
				</g>
			</g>
			<g>
				<g>
					<path style="fill:#13D2BD;" d="M321.288,321.172H281.93v-39.358h39.358V321.172z M284.502,318.6h34.213v-34.213h-34.213V318.6z
						"/>
				</g>
			</g>
			<g>
				<g>
					<path style="fill:#13D2BD;" d="M321.406,268.145h-39.358v-39.358h39.358V268.145z M284.621,265.572h34.213v-34.213h-34.213
						V265.572z"/>
				</g>
				<g>
					<path style="fill:#FF9D3B;" d="M297.832,264.551c-0.049,0-0.097-0.002-0.146-0.005c-0.572-0.043-1.098-0.332-1.439-0.794
						l-9.201-12.439c-0.647-0.875-0.463-2.11,0.412-2.757c0.875-0.646,2.111-0.463,2.757,0.413l7.84,10.599l26.609-26.61
						c0.771-0.77,2.019-0.77,2.788,0c0.77,0.77,0.77,2.018,0.001,2.788l-28.227,28.228
						C298.854,264.345,298.353,264.551,297.832,264.551z"/>
				</g>
			</g>
		</g>
		<g>
			<g>
				<path style="fill:#FF9D3B;" d="M255.805,185.512h-79.4c-0.928,0-1.688-0.759-1.688-1.688l0,0c0-0.928,0.76-1.688,1.688-1.688
					h79.4c0.928,0,1.688,0.759,1.688,1.688l0,0C257.492,184.752,256.733,185.512,255.805,185.512z"/>
				<g>
					<path style="fill:#13D2BD;" d="M248.528,193.355h-72.124c-0.928,0-1.688-0.759-1.688-1.688l0,0c0-0.928,0.76-1.688,1.688-1.688
						h72.124c0.928,0,1.688,0.759,1.688,1.688l0,0C250.216,192.596,249.457,193.355,248.528,193.355z"/>
					<path style="fill:#13D2BD;" d="M248.528,210.002h-72.124c-0.928,0-1.688-0.759-1.688-1.688l0,0c0-0.928,0.76-1.688,1.688-1.688
						h72.124c0.928,0,1.688,0.759,1.688,1.688l0,0C250.216,209.243,249.457,210.002,248.528,210.002z"/>
					<g>
						<path style="fill:#13D2BD;" d="M218.521,201.625h-42.117c-0.928,0-1.688-0.759-1.688-1.688l0,0
							c0-0.928,0.76-1.688,1.688-1.688h42.117c0.928,0,1.688,0.759,1.688,1.688l0,0
							C220.209,200.866,219.449,201.625,218.521,201.625z"/>
						<path style="fill:#13D2BD;" d="M268.418,201.625h-42.117c-0.928,0-1.688-0.759-1.688-1.688l0,0
							c0-0.928,0.759-1.688,1.688-1.688h42.117c0.928,0,1.688,0.759,1.688,1.688l0,0
							C270.106,200.866,269.346,201.625,268.418,201.625z"/>
					</g>
				</g>
			</g>
			<g>
				<path style="fill:#FF9D3B;" d="M255.805,236.908h-79.4c-0.928,0-1.688-0.759-1.688-1.688l0,0c0-0.928,0.76-1.688,1.688-1.688
					h79.4c0.928,0,1.688,0.76,1.688,1.688l0,0C257.492,236.148,256.733,236.908,255.805,236.908z"/>
				<g>
					<path style="fill:#13D2BD;" d="M248.528,244.751h-72.124c-0.928,0-1.688-0.759-1.688-1.688l0,0c0-0.928,0.76-1.688,1.688-1.688
						h72.124c0.928,0,1.688,0.76,1.688,1.688l0,0C250.216,243.992,249.457,244.751,248.528,244.751z"/>
					<path style="fill:#13D2BD;" d="M248.528,261.398h-72.124c-0.928,0-1.688-0.759-1.688-1.688l0,0c0-0.928,0.76-1.688,1.688-1.688
						h72.124c0.928,0,1.688,0.759,1.688,1.688l0,0C250.216,260.639,249.457,261.398,248.528,261.398z"/>
					<g>
						<path style="fill:#13D2BD;" d="M218.521,253.022h-42.117c-0.928,0-1.688-0.76-1.688-1.688l0,0c0-0.928,0.76-1.688,1.688-1.688
							h42.117c0.928,0,1.688,0.759,1.688,1.688l0,0C220.209,252.262,219.449,253.022,218.521,253.022z"/>
						<path style="fill:#13D2BD;" d="M268.418,253.022h-42.117c-0.928,0-1.688-0.76-1.688-1.688l0,0
							c0-0.928,0.759-1.688,1.688-1.688h42.117c0.928,0,1.688,0.759,1.688,1.688l0,0
							C270.106,252.262,269.346,253.022,268.418,253.022z"/>
					</g>
				</g>
			</g>
			<g>
				<path style="fill:#FF9D3B;" d="M255.805,291.935h-79.4c-0.928,0-1.688-0.759-1.688-1.688l0,0c0-0.928,0.76-1.688,1.688-1.688
					h79.4c0.928,0,1.688,0.759,1.688,1.688l0,0C257.492,291.176,256.733,291.935,255.805,291.935z"/>
				<g>
					<path style="fill:#13D2BD;" d="M248.528,299.779h-72.124c-0.928,0-1.688-0.759-1.688-1.688l0,0c0-0.928,0.76-1.688,1.688-1.688
						h72.124c0.928,0,1.688,0.759,1.688,1.688l0,0C250.216,299.02,249.457,299.779,248.528,299.779z"/>
					<path style="fill:#13D2BD;" d="M248.528,316.426h-72.124c-0.928,0-1.688-0.759-1.688-1.688l0,0c0-0.928,0.76-1.688,1.688-1.688
						h72.124c0.928,0,1.688,0.759,1.688,1.688l0,0C250.216,315.667,249.457,316.426,248.528,316.426z"/>
					<g>
						<path style="fill:#13D2BD;" d="M218.521,308.049h-42.117c-0.928,0-1.688-0.759-1.688-1.688l0,0
							c0-0.928,0.76-1.688,1.688-1.688h42.117c0.928,0,1.688,0.759,1.688,1.688l0,0C220.209,307.29,219.449,308.049,218.521,308.049
							z"/>
						<path style="fill:#13D2BD;" d="M268.418,308.049h-42.117c-0.928,0-1.688-0.759-1.688-1.688l0,0
							c0-0.928,0.759-1.688,1.688-1.688h42.117c0.928,0,1.688,0.759,1.688,1.688l0,0
							C270.106,307.29,269.346,308.049,268.418,308.049z"/>
					</g>
				</g>
			</g>
			<g>
				<path style="fill:#FF9D3B;" d="M255.805,345.21h-79.4c-0.928,0-1.688-0.759-1.688-1.688l0,0c0-0.928,0.76-1.688,1.688-1.688
					h79.4c0.928,0,1.688,0.759,1.688,1.688l0,0C257.492,344.451,256.733,345.21,255.805,345.21z"/>
				<g>
					<path style="fill:#13D2BD;" d="M248.528,353.054h-72.124c-0.928,0-1.688-0.759-1.688-1.688l0,0c0-0.928,0.76-1.688,1.688-1.688
						h72.124c0.928,0,1.688,0.76,1.688,1.688l0,0C250.216,352.294,249.457,353.054,248.528,353.054z"/>
					<path style="fill:#13D2BD;" d="M248.528,369.701h-72.124c-0.928,0-1.688-0.759-1.688-1.688l0,0c0-0.928,0.76-1.688,1.688-1.688
						h72.124c0.928,0,1.688,0.759,1.688,1.688l0,0C250.216,368.941,249.457,369.701,248.528,369.701z"/>
					<g>
						<path style="fill:#13D2BD;" d="M218.521,361.324h-42.117c-0.928,0-1.688-0.759-1.688-1.688l0,0
							c0-0.928,0.76-1.688,1.688-1.688h42.117c0.928,0,1.688,0.759,1.688,1.688l0,0
							C220.209,360.565,219.449,361.324,218.521,361.324z"/>
						<path style="fill:#13D2BD;" d="M268.418,361.324h-42.117c-0.928,0-1.688-0.759-1.688-1.688l0,0
							c0-0.928,0.759-1.688,1.688-1.688h42.117c0.928,0,1.688,0.759,1.688,1.688l0,0
							C270.106,360.565,269.346,361.324,268.418,361.324z"/>
					</g>
				</g>
			</g>
		</g>
		
			<linearGradient id="SVGID_00000010308578632233142870000002780577650813218748_" gradientUnits="userSpaceOnUse" x1="250.1554" y1="166.6995" x2="251.0063" y2="96.049">
			<stop  offset="0" style="stop-color:#074C47"/>
			<stop  offset="0.0856" style="stop-color:#0A7067"/>
			<stop  offset="0.1771" style="stop-color:#0D8E81"/>
			<stop  offset="0.2783" style="stop-color:#0FA797"/>
			<stop  offset="0.391" style="stop-color:#11BAA8"/>
			<stop  offset="0.5217" style="stop-color:#12C8B4"/>
			<stop  offset="0.6863" style="stop-color:#13D0BB"/>
			<stop  offset="0.9955" style="stop-color:#13D2BD"/>
		</linearGradient>
		<path style="fill:url(#SVGID_00000010308578632233142870000002780577650813218748_);" d="M251.741,118.248h-2.847
			c-11.337,0-21.611,4.597-29.038,12.032c-5.939,5.939-10.068,13.694-11.484,22.36c-0.572,3.501,2.182,6.669,5.73,6.669h72.424
			c3.548,0,6.302-3.167,5.73-6.669C289.07,133.137,272.145,118.248,251.741,118.248z M250.797,138.241
			c-3.633,0-6.58-2.946-6.58-6.58c0-3.628,2.946-6.574,6.58-6.574c3.633,0,6.574,2.946,6.574,6.574
			C257.37,135.294,254.43,138.241,250.797,138.241z"/>
		<ellipse style="fill:#F2F2F2;" cx="250" cy="433.702" rx="89.616" ry="4.934"/>
	</g>
	<g>
		
			<linearGradient id="SVGID_00000021111822362023922330000017001040314127186605_" gradientUnits="userSpaceOnUse" x1="317.6719" y1="168.8918" x2="378.029" y2="116.8484">
			<stop  offset="0.1749" style="stop-color:#D56F5A"/>
			<stop  offset="0.3515" style="stop-color:#D97C5C"/>
			<stop  offset="0.7548" style="stop-color:#E1965F"/>
			<stop  offset="0.9981" style="stop-color:#E49F60"/>
		</linearGradient>
		<path style="fill:url(#SVGID_00000021111822362023922330000017001040314127186605_);" d="M300.223,141.422
			c1.13,2.72,4.05,4.03,8.47,4.13c1.15,0.03,2.3-0.04,3.43-0.19c3.07-0.41,6.04-1.46,8.74-3.01l18.11-10.39l1.95-1.12
			c1.56-0.9,3.32-1.35,5.06-1.35c1.87,0,3.75,0.52,5.4,1.56c3.6,2.26,5.42,6.51,4.55,10.68l-1.23,5.92l0.02,0.12l12.3,15.66
			l0.13,0.16c-0.68,5.87,4.01,4.77,14.46,2.1c1.45-0.38,2.08-2.17-0.58-2.31l-10.71-0.92l-0.03-0.07l-15.23-38
			c-2.98-7.41-11.17-11.56-18.72-8.96l-10.72,4.05l-0.01,0.01l-15.84,5.46c-5.31,1.82-9.31,6.43-9.99,12
			C299.563,138.732,299.723,140.212,300.223,141.422z"/>
		
			<linearGradient id="SVGID_00000121995940231521706430000000043259163866936487_" gradientUnits="userSpaceOnUse" x1="331.068" y1="173.8171" x2="391.4252" y2="121.7737">
			<stop  offset="6.610600e-04" style="stop-color:#D56F5A"/>
			<stop  offset="0.5359" style="stop-color:#DC875D"/>
			<stop  offset="0.9981" style="stop-color:#E49F60"/>
		</linearGradient>
		<path style="fill:url(#SVGID_00000121995940231521706430000000043259163866936487_);" d="M342.873,187.992l0.01,0.12
			c-3.81,4.52,0.71,6.19,10.88,9.74c1.43,0.48,2.94-0.64,0.8-2.24l-8.42-6.69l0.02-0.09l8.54-41.18l1.23-5.92
			c0.87-4.17-0.95-8.42-4.55-10.68c-1.65-1.04-3.53-1.56-5.4-1.56c-1.74,0-3.5,0.45-5.06,1.35l-1.95,1.12l-26.85,13.4l-0.02,0.01
			l28.39-0.54L342.873,187.992z"/>
		
			<linearGradient id="SVGID_00000137843830759278601060000017125442543245795494_" gradientUnits="userSpaceOnUse" x1="287.2845" y1="112.5454" x2="314.2532" y2="112.5454">
			<stop  offset="0" style="stop-color:#074C47"/>
			<stop  offset="0.0511" style="stop-color:#08544E"/>
			<stop  offset="0.5021" style="stop-color:#0E988A"/>
			<stop  offset="0.8287" style="stop-color:#12C2AF"/>
			<stop  offset="0.9955" style="stop-color:#13D2BD"/>
		</linearGradient>
		<path style="fill:url(#SVGID_00000137843830759278601060000017125442543245795494_);" d="M300.218,141.426h0.009
			c-0.506-1.211-0.66-2.694-0.443-4.475c0.678-5.568,4.682-10.178,9.988-12.004l7.48-2.582c-7.238-9.057-10.133-18.013-5.719-35.294
			l-6.001-3.406C285.078,109.065,287.175,127.044,300.218,141.426z"/>
		
			<linearGradient id="SVGID_00000021800244073018494740000011684989478228377266_" gradientUnits="userSpaceOnUse" x1="284.6414" y1="105.5763" x2="328.5912" y2="105.5763">
			<stop  offset="0" style="stop-color:#074C47"/>
			<stop  offset="0.2207" style="stop-color:#0B786D"/>
			<stop  offset="0.4541" style="stop-color:#0E9F90"/>
			<stop  offset="0.669" style="stop-color:#11BBA9"/>
			<stop  offset="0.8564" style="stop-color:#12CCB8"/>
			<stop  offset="0.9955" style="stop-color:#13D2BD"/>
		</linearGradient>
		<path style="fill:url(#SVGID_00000021800244073018494740000011684989478228377266_);" d="M332.353,113.239
			c-0.113-0.253-1.13-3.884-1.13-3.884l-31.534,4.633l7.499-14.327c1.379-2.634,2.347-5.525,2.362-8.497
			c0.019-3.845-2.104-6.86-6.414-5.351c-3.959,1.386-7.105,4.467-8.833,8.288c-8.971,19.838-8.297,31.381,6.098,31.633
			c4.117,0.072,8.169-1.04,11.79-3L332.353,113.239z"/>
		<path style="fill:#EDCACC;" d="M331.223,109.355l1.13,3.884l9.284-3.805C340.183,105.752,336.426,105.763,331.223,109.355z"/>
		<path style="fill:#FFD239;" d="M327.078,115.4l1.233,3.151l22.032-8.545c0,0,3.443-25.06,3.188-25.06c-0.255,0-3.252,0-3.252,0
			l-3.507,22.382L327.078,115.4z"/>
		<path style="fill:#E4AFB4;" d="M305.533,83.665l3.543-5.646l5.423,2.335c-1.705,2.231-2.397,4.593-2.966,6.718L305.533,83.665z"/>
		<g>
			<g>
				<path style="fill:#EDCACC;" d="M308.086,76.129c0.801,3.56,3.381,7.361,6.316,7.526c3.034,0.171,5.889-1.91,7.336-4.707
					c0.025,0.017,0.053,0.03,0.085,0.033c0.371,0.029,0.879,0.029,1.001-0.301c0.111-0.3-0.209-0.689-0.545-0.998
					c0.142-0.42,0.258-0.848,0.333-1.283c1.732-10.032-1.137-12.689-5.036-13.252c-2.98-0.431-6.979,3.326-8.786,7.114
					C308.456,69.939,306.923,75.482,308.086,76.129z"/>
				<g>
					<g>
						<path style="fill:#422410;" d="M318.681,79.039c-0.522-0.614-0.931-1.538-0.549-2.806c0.032-0.104,0.142-0.163,0.246-0.132
							c0.103,0.031,0.163,0.141,0.132,0.246c-0.682,2.266,1.474,3.246,1.566,3.287c0.1,0.043,0.144,0.16,0.101,0.26
							c-0.044,0.1-0.16,0.145-0.26,0.101C319.905,79.99,319.23,79.685,318.681,79.039z"/>
					</g>
				</g>
				<g>
					<g>
						<path style="fill:#422410;" d="M320.41,75.293c-0.184,0.629-0.084,1.211,0.222,1.301c0.307,0.09,0.704-0.347,0.888-0.976
							c0.184-0.629,0.084-1.211-0.223-1.301C320.991,74.227,320.593,74.664,320.41,75.293z"/>
					</g>
				</g>
				<g>
					<g>
						<path style="fill:#422410;" d="M319.818,73.026c-0.006-0.004-0.011-0.009-0.016-0.014c-0.079-0.075-0.082-0.2-0.006-0.279
							c0.9-0.94,1.898-0.528,2.305-0.183c0.082,0.071,0.091,0.195,0.021,0.277c-0.071,0.083-0.185,0.099-0.278,0.022
							c-0.028-0.024-0.899-0.746-1.762,0.156C320.011,73.079,319.897,73.086,319.818,73.026z"/>
					</g>
				</g>
			</g>
		</g>
		<g>
			<path style="fill:#422410;" d="M353.763,197.852c1.43,0.48,2.94-0.64,0.8-2.24l-8.42-6.69l0.02-0.09
				c-1.2-0.31-2.32-0.59-3.29-0.84l0.01,0.12C339.073,192.632,343.593,194.302,353.763,197.852z"/>
			<path style="fill:#422410;" d="M367.153,163.592c-0.68,5.87,4.01,4.77,14.46,2.1c1.45-0.38,2.08-2.17-0.58-2.31l-10.71-0.92
				l-0.03-0.07c-1.37,0.43-2.52,0.8-3.27,1.04L367.153,163.592z"/>
		</g>
		<g>
			<path style="fill:#422410;" d="M323.378,64.731c-0.677-1.911-1.718-3.818-3.768-4.483c-1.929-0.626-4.175-0.207-5.854,0.892
				c-0.308,0.201-0.625,0.435-0.992,0.445c-0.24,0.007-0.471-0.084-0.7-0.156c-1.64-0.517-3.495-0.082-4.884,0.931
				c-1.389,1.014-2.34,2.549-2.87,4.185c-0.752,2.318-0.637,4.875,0.198,7.155c0.423,1.156,1.032,2.246,1.811,3.201
				c0.202,0.248,2.449,2.258,2.425,2.313l2.586-2.607c0,0-0.675-1.007-0.764-1.44c-0.246-1.198-0.112-2.767,0.872-3.63
				c0.868-0.761,2.366-0.724,3.096,0.226c0.524,0.681,0.345,1.535,0.685,2.258c-0.092-0.197,2.713-2.691,2.695-3.368
				c0.016,0.593,7.545,1.96,8.88,0.496C324.233,68.644,323.861,66.095,323.378,64.731z"/>
		</g>
	</g>
	<g>
		<path style="fill:#E4AFB4;" d="M195.486,86.811l-0.708-1.03c0,0,0,0,0,0l0,0l-2.957-4.302l-5.199,2.501
			c1.682,2.019,3.422,3.694,3.54,5.796l-3.797,5.967l5.68,2.182l6.37-8.162C197.311,88.715,196.205,87.664,195.486,86.811z"/>
		
			<linearGradient id="SVGID_00000075856070450651348050000007863849189813593018_" gradientUnits="userSpaceOnUse" x1="214.8793" y1="145.5808" x2="169.8656" y2="94.1959">
			<stop  offset="0" style="stop-color:#074C47"/>
			<stop  offset="0.0511" style="stop-color:#08544E"/>
			<stop  offset="0.5021" style="stop-color:#0E988A"/>
			<stop  offset="0.8287" style="stop-color:#12C2AF"/>
			<stop  offset="0.9955" style="stop-color:#13D2BD"/>
		</linearGradient>
		<path style="fill:url(#SVGID_00000075856070450651348050000007863849189813593018_);" d="M207.14,120.362
			c1.114,7.527,4.503,13.618-3.735,23.078l-17.311-14.335c1.875-2.571,3.46-5.184,4.112-8.034L207.14,120.362z"/>
		
			<linearGradient id="SVGID_00000133516256642020980390000014646110262745871283_" gradientUnits="userSpaceOnUse" x1="178.0415" y1="97.767" x2="204.7915" y2="105.517">
			<stop  offset="0.0019" style="stop-color:#E49F60"/>
			<stop  offset="0.1451" style="stop-color:#E0925E"/>
			<stop  offset="0.4236" style="stop-color:#DA7F5C"/>
			<stop  offset="0.7068" style="stop-color:#D6735A"/>
			<stop  offset="0.9993" style="stop-color:#D56F5A"/>
		</linearGradient>
		<path style="fill:url(#SVGID_00000133516256642020980390000014646110262745871283_);" d="M186.471,108.503
			c-2.557-3.859-2.601-8.855-0.107-12.76l0,0c2.553,0.704,5.241-0.536,6.361-2.936l2.781-5.956
			c10.461,5.511,5.734,26.267,11.244,29.823l-16.248,0.679c-0.102-1.455-0.468-2.955-1.182-4.55L186.471,108.503z"/>
		<path style="fill:#422410;" d="M190.205,121.071c0.294-1.196,0.408-2.427,0.299-3.717l16.248-0.679
			c0.053,1.265,0.2,2.484,0.388,3.688L190.205,121.071z"/>
		
			<linearGradient id="SVGID_00000124124308138000482370000003269704755156720519_" gradientUnits="userSpaceOnUse" x1="184.3537" y1="172.3216" x2="139.3399" y2="120.9366">
			<stop  offset="0" style="stop-color:#074C47"/>
			<stop  offset="0.0511" style="stop-color:#08544E"/>
			<stop  offset="0.5021" style="stop-color:#0E988A"/>
			<stop  offset="0.8287" style="stop-color:#12C2AF"/>
			<stop  offset="0.9955" style="stop-color:#13D2BD"/>
		</linearGradient>
		<path style="fill:url(#SVGID_00000124124308138000482370000003269704755156720519_);" d="M204.639,141.562
			c-1.058,2.688-3.88,4.018-8.196,4.198c-1.127,0.047-2.245-0.003-3.337-0.122l-0.014,0.001c-3.003-0.356-5.935-1.322-8.599-2.794
			l-12.642-6.948l-5.229-2.866l-1.931-1.062c-1.536-0.845-3.275-1.254-4.967-1.224c-1.83,0.035-3.666,0.58-5.247,1.624
			c-3.472,2.266-5.183,6.454-4.256,10.519l1.315,5.756l-0.023,0.111l-11.73,15.527l-0.117,0.156
			c0.018,0.109,0.022,0.206,0.026,0.302c0.583,5.387-4.044,4.396-14.113,2.008c-1.432-0.326-2.07-2.075,0.525-2.266l10.434-1.084
			l0.038-0.07l0.062-0.168l14.113-37.232c2.78-7.29,10.714-11.492,18.14-9.09l2.111,0.752l8.415,3.008l0.014,0.013l15.578,5.036
			c5.22,1.682,9.22,6.114,9.97,11.549C205.231,138.921,205.113,140.372,204.639,141.562z"/>
		
			<linearGradient id="SVGID_00000120537211467708937670000004518564689500046261_" gradientUnits="userSpaceOnUse" x1="149.972" y1="164.2618" x2="193.0918" y2="164.2618">
			<stop  offset="0.0045" style="stop-color:#13D2BD"/>
			<stop  offset="0.1713" style="stop-color:#12C2AF"/>
			<stop  offset="0.4979" style="stop-color:#0E988A"/>
			<stop  offset="0.9489" style="stop-color:#08544E"/>
			<stop  offset="1" style="stop-color:#074C47"/>
		</linearGradient>
		<path style="fill:url(#SVGID_00000120537211467708937670000004518564689500046261_);" d="M168.085,145.625l-6.155-0.004
			c6.155,0.004,1.342,22.54,1.903,42.221l-0.009,0.111c0.043,0.039,0.073,0.093,0.116,0.133c3.592,4.242-0.811,5.955-10.574,9.572
			c-1.384,0.499-2.888-0.568-0.821-2.169l8.106-6.687l-0.017-0.082l-9.098-40.075l-1.315-5.756
			c-0.927-4.065,0.784-8.253,4.256-10.519c1.581-1.044,3.417-1.589,5.247-1.624c1.692-0.029,3.431,0.38,4.967,1.224l1.931,1.062
			l5.282,2.506l21.187,10.102L168.085,145.625z"/>
		<path style="fill:#FFD239;" d="M179.569,117.089l-1.075,3.126l-21.855-7.441c0,0-4.384-24.321-4.135-24.332
			s3.174-0.133,3.174-0.133l4.337,21.704L179.569,117.089z"/>
		<g>
			<g>
				<path style="fill:#EDCACC;" d="M191.783,73.895c-1.919-3.624-5.976-7.127-8.867-6.585c-3.783,0.709-6.475,3.42-4.374,13.142
					c0.091,0.422,0.222,0.835,0.378,1.239c-0.316,0.315-0.612,0.708-0.492,0.996c0.132,0.317,0.628,0.297,0.99,0.253
					c0.031-0.004,0.058-0.017,0.082-0.035c1.527,2.671,4.399,4.586,7.353,4.296c2.858-0.281,5.222-4.097,5.858-7.605
					C193.82,78.916,192.097,73.568,191.783,73.895z"/>
				<g>
					<g>
						<path style="fill:#422410;" d="M182.488,82.867c0.484-0.621,0.846-1.539,0.421-2.762c-0.035-0.1-0.145-0.153-0.246-0.119
							c-0.1,0.034-0.154,0.144-0.119,0.246c0.758,2.184-1.306,3.229-1.395,3.272c-0.096,0.047-0.134,0.162-0.088,0.258
							c0.047,0.096,0.162,0.135,0.258,0.088C181.332,83.845,181.978,83.521,182.488,82.867z"/>
					</g>
				</g>
				<g>
					<g>
						<path style="fill:#422410;" d="M180.648,79.282c0.205,0.606,0.132,1.179-0.164,1.279c-0.296,0.1-0.702-0.31-0.907-0.917
							c-0.205-0.606-0.132-1.179,0.164-1.279C180.036,78.265,180.442,78.675,180.648,79.282z"/>
					</g>
				</g>
				<g>
					<g>
						<path style="fill:#422410;" d="M181.132,77.044c0.005-0.004,0.01-0.009,0.015-0.015c0.074-0.077,0.072-0.199-0.005-0.273
							c-0.917-0.881-1.874-0.438-2.258-0.084c-0.077,0.073-0.081,0.194-0.009,0.272c0.072,0.078,0.185,0.089,0.273,0.01
							c0.026-0.025,0.847-0.765,1.726,0.081C180.946,77.104,181.057,77.107,181.132,77.044z"/>
					</g>
				</g>
			</g>
		</g>
		<path style="fill:#EDCACC;" d="M202.387,95.973c-1.833-3.655-3.018-9.316-5.995-9.164c-2.968,0.152-4.963,2.062-4.245,4.295
			c0.375,1.166,9.97,20.924,9.97,20.924l-30.277-0.426c-5.117-4.481-9.369-4.731-10.648-1.07l9.227,3.332
			c0,0,36.162,9.6,37.613,3.113C209.11,112.164,202.733,96.675,202.387,95.973z"/>
		<path style="fill:#422410;" d="M125.58,166.749c-1.432-0.326-2.07-2.075,0.525-2.266l10.434-1.084l0.038-0.07l0.062-0.168
			l3.054,1.58C140.276,170.127,135.649,169.137,125.58,166.749z"/>
		<path style="fill:#422410;" d="M153.366,197.657c-1.384,0.499-2.888-0.568-0.821-2.169l8.106-6.687l-0.017-0.082l3.306-0.634
			C167.532,192.327,163.129,194.04,153.366,197.657z"/>
		
			<linearGradient id="SVGID_00000142863278855418529970000001764150821686439561_" gradientUnits="userSpaceOnUse" x1="198.5635" y1="87.543" x2="159.5635" y2="51.543">
			<stop  offset="0.0188" style="stop-color:#FF9D3B"/>
			<stop  offset="0.0445" style="stop-color:#FF9F3B"/>
			<stop  offset="0.4153" style="stop-color:#FFBB3A"/>
			<stop  offset="0.7408" style="stop-color:#FFCC39"/>
			<stop  offset="0.9838" style="stop-color:#FFD239"/>
			<stop  offset="1" style="stop-color:#FFD039"/>
		</linearGradient>
		<path style="fill:url(#SVGID_00000142863278855418529970000001764150821686439561_);" d="M194.334,71.714l-3.203-3.045
			c-1.932-1.841-4.916-2.502-7.598-2.126c-0.057,0.008-4.698,0.775-5.899,3.853c-0.404,1.035-1.243,1.805-2.259,2.251
			c-4.677,2.055,0.181,7.748,2.547,4.018c0,0-0.229-1.308,0.88-2.482c0.998-1.057,2.741-0.833,3.536,0.385
			c1.178,1.803,3.567,4.189,3.967,4.464c-0.146-1.197-0.561-2.886,0.768-3.649c1.52-0.873,3.672,0.514,3.333,2.284
			c-0.16,0.832-0.792,1.573-1.581,1.807l0.471,10.229c0,0,2.909-1.78,5.562-4.735C198.297,81.136,198.065,75.261,194.334,71.714z"/>
	</g>
	<g>
		<g>
			<path style="fill:#EDCACC;" d="M133.743,326.349c-4.182-0.65-7.719-6.058-7.719-6.058c-11.308-2.49-23.778-6.023-33.094-11.459
				l8.472-7.08c7.509,5.865,17.05,10.402,26.964,13.793c2.058-0.169,3.569-0.063,4.654,0.168c1.434,0.322,1.287,2.401-0.159,2.549
				l-1.781,0.389l1.72,0.863c1.396,0.564,2.424,1.227,3.176,1.867C138.055,323.221,136.485,326.764,133.743,326.349z"/>
			
				<linearGradient id="SVGID_00000036948959441468666250000014880616783552292270_" gradientUnits="userSpaceOnUse" x1="36.508" y1="361.725" x2="116.1362" y2="296.2941" gradientTransform="matrix(0.582 0.8132 -0.8132 0.582 305.162 42.0945)">
				<stop  offset="0" style="stop-color:#074C47"/>
				<stop  offset="0.0511" style="stop-color:#08544E"/>
				<stop  offset="0.5021" style="stop-color:#0E988A"/>
				<stop  offset="0.8287" style="stop-color:#12C2AF"/>
				<stop  offset="0.9955" style="stop-color:#13D2BD"/>
			</linearGradient>
			<path style="fill:url(#SVGID_00000036948959441468666250000014880616783552292270_);" d="M92.93,308.832
				c-2.15-1.245-4.124-2.606-5.888-4.071c-2.858-2.382-5.108-5.389-6.554-8.794c-0.284-0.669-0.527-1.341-0.751-2.036
				c-1.238-3.945,1.956-7.881,6.066-7.468c1.855,0.185,3.493,1.253,4.421,2.875c2.692,4.681,6.542,8.8,11.179,12.415L92.93,308.832z
				"/>
		</g>
		<path style="fill:#F2F2F2;" d="M48.633,432.437c0,2.026,21.196,3.669,47.343,3.669c26.147,0,47.343-1.643,47.343-3.669
			c0-2.026-21.196-3.669-47.343-3.669C69.829,428.768,48.633,430.411,48.633,432.437z"/>
		<g>
			<polygon style="fill:#EFCCA7;" points="125.946,243.128 131.684,251.803 137.41,260.466 114.367,260.389 120.151,251.776 			"/>
			<path style="fill:#13D2BD;" d="M125.946,243.128l5.738,8.675c-3.561,0-8.102-0.015-11.533-0.027L125.946,243.128z"/>
			<g>
				
					<linearGradient id="SVGID_00000180354295916163066740000011134717690499620521_" gradientUnits="userSpaceOnUse" x1="113.8792" y1="333.9362" x2="137.4098" y2="333.9362">
					<stop  offset="0.0188" style="stop-color:#FF9D3B"/>
					<stop  offset="0.9838" style="stop-color:#FFD239"/>
					<stop  offset="1" style="stop-color:#FFD039"/>
				</linearGradient>
				<polygon style="fill:url(#SVGID_00000180354295916163066740000011134717690499620521_);" points="114.367,260.389 
					137.41,260.466 136.922,407.483 113.879,407.406 				"/>
				
					<rect x="122.644" y="398.671" transform="matrix(0.0033 -1 1 0.0033 -285.2151 534.2211)" style="fill:#13D2BD;" width="5.495" height="23.043"/>
				
					<linearGradient id="SVGID_00000143619425842140614690000001139340926522648968_" gradientUnits="userSpaceOnUse" x1="125.3814" y1="403.7219" x2="125.3814" y2="428.4245">
					<stop  offset="6.610600e-04" style="stop-color:#D56F5A"/>
					<stop  offset="0.5359" style="stop-color:#DC875D"/>
					<stop  offset="0.9981" style="stop-color:#E49F60"/>
				</linearGradient>
				<path style="fill:url(#SVGID_00000143619425842140614690000001139340926522648968_);" d="M113.861,412.902l23.042,0.076
					l-0.001,0.271c-0.005,1.423-0.027,11.024-0.052,14.882c-0.04,6.194-5.014,5.342-11.207,5.454l0,0
					c-6.249,0.113-11.433,1.064-11.614-5.183c-0.1-3.445-0.178-12.836-0.17-15.23L113.861,412.902z"/>
			</g>
		</g>
		<g>
			<path style="fill:#E4AFB4;" d="M86.248,275.813c0,0-1.777,6.088-2.438,11.387c-0.311,2.494,6.064,5.424,6.328,5.326
				c0.313-0.117,0.555-0.418,0.532-0.81c-0.15-2.605-0.058-7.228,1.965-10.774L86.248,275.813z"/>
			<g>
				<path style="fill:#EDCACC;" d="M83.855,278.841c1.79,3.275,5.399,6.287,8.332,5.622c3.032-0.687,5.251-4.23,5.886-7.388
					c0.029,0.01,0.061,0.015,0.093,0.008c0.373-0.076,0.873-0.219,0.9-0.578c0.025-0.326-0.399-0.619-0.817-0.827
					c0.022-0.453,0.017-0.215-0.031-0.664c-1.123-10.354-4.693-12.158-8.686-11.614c-1.716,0.234-3.383,1.858-4.628,3.995
					C82.673,271.224,83.236,277.876,83.855,278.841z"/>
				<g>
					<path style="fill:#422410;" d="M95.094,278.718c-0.687-0.457-1.348-1.25-1.33-2.605c0.002-0.111,0.093-0.2,0.205-0.199
						c0.11,0.001,0.2,0.092,0.199,0.205c-0.032,2.42,2.364,2.777,2.467,2.791c0.111,0.014,0.187,0.117,0.173,0.227
						c-0.015,0.111-0.117,0.188-0.227,0.173C96.565,279.308,95.816,279.199,95.094,278.718z"/>
				</g>
				<g>
					<path style="fill:#422410;" d="M95.739,274.547c-0.004,0.67,0.258,1.215,0.585,1.217c0.327,0.002,0.595-0.54,0.599-1.21
						c0.004-0.67-0.259-1.215-0.586-1.217C96.01,273.335,95.742,273.877,95.739,274.547z"/>
				</g>
				<g>
					<path style="fill:#422410;" d="M94.518,272.484c-0.007-0.003-0.014-0.006-0.02-0.009c-0.099-0.052-0.137-0.174-0.085-0.273
						c0.62-1.178,1.717-1.054,2.215-0.829c0.101,0.047,0.145,0.166,0.099,0.267c-0.046,0.102-0.154,0.149-0.267,0.1
						c-0.035-0.016-1.094-0.48-1.689,0.65C94.723,272.482,94.613,272.521,94.518,272.484z"/>
				</g>
			</g>
			<path style="fill:#422410;" d="M88.866,427.456c-2.311,6.097,2.388,6.198,14.29,6.159c1.654-0.016,2.811-1.761,0.002-2.628
				l-9.151-3.733c0,0-4.192-0.055-5.059,0L88.866,427.456z"/>
			<path style="fill:#422410;" d="M61.197,426.995c-2.311,6.097,2.791,6.053,14.693,6.015c1.654-0.016,2.811-1.761,0.002-2.628
				l-8.59-3.733c0,0-5.094-0.055-5.961,0L61.197,426.995z"/>
			
				<linearGradient id="SVGID_00000056415936859401441650000006920046987692581251_" gradientUnits="userSpaceOnUse" x1="74.8325" y1="381.7133" x2="98.1164" y2="381.7133">
				<stop  offset="6.610600e-04" style="stop-color:#D56F5A"/>
				<stop  offset="0.5359" style="stop-color:#DC875D"/>
				<stop  offset="0.9981" style="stop-color:#E49F60"/>
			</linearGradient>
			<path style="fill:url(#SVGID_00000056415936859401441650000006920046987692581251_);" d="M95.852,336.176h-21.02
				c9.642,28.756,14.121,59.189,14.118,91.076h5.02C98.752,397.407,99.423,367.054,95.852,336.176z"/>
			
				<linearGradient id="SVGID_00000044894286087946257770000017580066641334417598_" gradientUnits="userSpaceOnUse" x1="61.3421" y1="381.4121" x2="95.8521" y2="381.4121">
				<stop  offset="6.610600e-04" style="stop-color:#D56F5A"/>
				<stop  offset="0.5359" style="stop-color:#DC875D"/>
				<stop  offset="0.9981" style="stop-color:#E49F60"/>
			</linearGradient>
			<path style="fill:url(#SVGID_00000044894286087946257770000017580066641334417598_);" d="M95.852,336.176H71.381
				c-3.269,7.162,0.545,15.609,0.545,15.609c-0.018,24.16-3.849,49.861-10.584,74.865h5.961
				C78.442,402.068,86.474,370.641,95.852,336.176z"/>
			
				<linearGradient id="SVGID_00000183217960413748402630000006237824998399756988_" gradientUnits="userSpaceOnUse" x1="51.11" y1="342.5297" x2="130.7397" y2="277.0976">
				<stop  offset="0" style="stop-color:#074C47"/>
				<stop  offset="0.0511" style="stop-color:#08544E"/>
				<stop  offset="0.5021" style="stop-color:#0E988A"/>
				<stop  offset="0.8287" style="stop-color:#12C2AF"/>
				<stop  offset="0.9955" style="stop-color:#13D2BD"/>
			</linearGradient>
			<path style="fill:url(#SVGID_00000183217960413748402630000006237824998399756988_);" d="M95.852,336.176H71.381
				c4.685-16.158-1.142-31.457,3.321-41.133c1.698-3.68,4.162-6.438,7.716-7.886c5.222-2.128,11.305,0.612,13.031,5.98
				c1.053,3.276,0.649,7.689-0.107,12.639c-1.191,7.804-1.219,15.741-0.294,23.581L95.852,336.176z"/>
			<g>
				<path style="fill:#EDCACC;" d="M136.891,272.641c-2.773,3.197-9.233,3.32-9.233,3.32c-8.117,8.257-17.736,16.944-27.291,21.948
					l-1.496-10.939c8.958-3.246,17.871-8.918,26.012-15.515c0.951-1.833,1.843-3.057,2.615-3.854
					c1.035-1.044,2.718,0.185,2.075,1.489l-0.616,1.715l1.645-0.999c1.219-0.883,2.327-1.402,3.269-1.698
					C136.532,267.326,138.699,270.538,136.891,272.641z"/>
				
					<linearGradient id="SVGID_00000159460840551788209620000006852576689227086744_" gradientUnits="userSpaceOnUse" x1="43.4335" y1="331.3837" x2="123.0673" y2="265.9483" gradientTransform="matrix(0.9981 -0.0609 0.0609 0.9981 -17.8795 7.1062)">
					<stop  offset="0" style="stop-color:#074C47"/>
					<stop  offset="0.0511" style="stop-color:#08544E"/>
					<stop  offset="0.5021" style="stop-color:#0E988A"/>
					<stop  offset="0.8287" style="stop-color:#12C2AF"/>
					<stop  offset="0.9955" style="stop-color:#13D2BD"/>
				</linearGradient>
				<path style="fill:url(#SVGID_00000159460840551788209620000006852576689227086744_);" d="M100.367,297.909
					c-2.197,1.16-4.399,2.109-6.578,2.825c-3.537,1.156-7.28,1.464-10.932,0.879c-0.718-0.115-1.416-0.266-2.124-0.445
					c-3.999-1.047-5.637-5.844-3.104-9.107c1.143-1.473,2.917-2.293,4.785-2.218c5.396,0.206,10.93-0.867,16.457-2.874
					L100.367,297.909z"/>
			</g>
			<g>
				<path style="fill:#422410;" d="M88.861,276.54c-1.846,0.264-2.634-2.986-1.924-4.242c1.165-2.063,3.318-0.843,4.134,0.663
					c0.557-1.101,2.196-1.216,2.262-2.694c0.74,0,3.583,1.349,3.63-0.503c0.103,1.66,5.295-0.085,5.867-0.721
					c-1.418-0.502-2.168-2.303-2.82-3.555c-0.637-1.222-1.137-3.25-2.288-4.098c-1.763-1.298-5.58,0.171-7.117,1.369
					c-0.048,0.038-0.099,0.079-0.153,0.122c-0.692,0.567-1.602,0.758-2.475,0.562c-0.214-0.048-0.721-0.06-0.886-0.058
					c-1.199,0.018-2.609,0.744-3.466,1.579c-2.235,2.179-3.45,7.453-1.955,10.271c0.831,1.567,4.678,5.819,2.281,7.597
					c1.434,0.229,2.879-1.736,3.542-2.791c0.535-0.851,1.891-2.467,1.441-3.502"/>
			</g>
		</g>
	</g>
	<g>
		<ellipse style="fill:#F2F2F2;" cx="396.509" cy="433.702" rx="37.573" ry="2.404"/>
		<g>
			
				<linearGradient id="SVGID_00000035509068247088674270000014729363358235829377_" gradientUnits="userSpaceOnUse" x1="415.3531" y1="394.3144" x2="398.3532" y2="445.3142">
				<stop  offset="0" style="stop-color:#074C47"/>
				<stop  offset="0.0511" style="stop-color:#08544E"/>
				<stop  offset="0.5021" style="stop-color:#0E988A"/>
				<stop  offset="0.8287" style="stop-color:#12C2AF"/>
				<stop  offset="0.9955" style="stop-color:#13D2BD"/>
			</linearGradient>
			<path style="fill:url(#SVGID_00000035509068247088674270000014729363358235829377_);" d="M406.625,396.451
				c0,0-4.794,22.063-4.317,22.987c0,0,7.366,5.432,23.964,0.679v5.124c-38.457,13.228-37.391,1.961-32.859-28.792L406.625,396.451z
				"/>
			<path style="fill:#422410;" d="M428.564,433.651l3.198,0.001c2.621-0.187,0.645-6.375,0.337-7.101
				c-0.52-1.258-0.675-4.426-0.519-5.75c0.022-0.186,0.015-0.37-0.017-0.546c-0.215-1.186-1.614-1.752-2.673-1.178
				c-0.69,0.373-1.63,0.544-2.617,1.042v5.124l1.505,0.773c0.57,0.803,0.789,3.844,0.34,4.679l-0.409,0.76
				C427.277,432.261,427.672,433.279,428.564,433.651z"/>
			<g>
				<path style="fill:#EDCACC;" d="M331.45,352.357c3.235,2.999,9.942,2.394,9.942,2.394c9.345,7.636,20.295,15.547,30.762,19.649
					l0.311-11.503c-9.649-2.348-19.526-7.215-28.708-13.129c-1.193-1.791-2.256-2.958-3.146-3.697
					c-1.19-0.964-2.795,0.5-1.981,1.778l0.833,1.707l-1.818-0.848c-1.363-0.777-2.57-1.189-3.579-1.39
					C331.22,346.81,329.338,350.383,331.45,352.357z"/>
				
					<linearGradient id="SVGID_00000007394465346241562360000004035021602701917077_" gradientUnits="userSpaceOnUse" x1="426.2578" y1="403.6172" x2="358.755" y2="353.1151" gradientTransform="matrix(0.9973 -0.0729 0.0729 0.9973 -25.5619 27.5709)">
					<stop  offset="6.610600e-04" style="stop-color:#D56F5A"/>
					<stop  offset="0.2932" style="stop-color:#D6735A"/>
					<stop  offset="0.5764" style="stop-color:#DA7F5C"/>
					<stop  offset="0.8549" style="stop-color:#E0925E"/>
					<stop  offset="0.9981" style="stop-color:#E49F60"/>
				</linearGradient>
				<path style="fill:url(#SVGID_00000007394465346241562360000004035021602701917077_);" d="M372.155,374.401
					c2.407,0.953,4.797,1.687,7.135,2.182c3.795,0.797,7.708,0.692,11.427-0.327c0.731-0.2,1.437-0.436,2.15-0.702
					c4.025-1.538,5.178-6.694,2.184-9.787c-1.351-1.397-3.282-2.046-5.209-1.756c-5.567,0.825-11.423,0.34-17.376-1.114
					L372.155,374.401z"/>
			</g>
			<g>
				<g style="opacity:0.05;">
					<path d="M353.099,349.703H313.74v-39.358h39.358V349.703z M316.313,347.13h34.213v-34.212h-34.213V347.13z"/>
					<path d="M329.524,346.109c-0.049,0-0.097-0.002-0.146-0.005c-0.572-0.043-1.098-0.332-1.439-0.794l-9.201-12.439
						c-0.647-0.875-0.463-2.11,0.412-2.757c0.875-0.646,2.111-0.463,2.757,0.413l7.84,10.599l26.609-26.61
						c0.772-0.77,2.019-0.77,2.788,0c0.77,0.77,0.77,2.018,0.001,2.788l-28.228,28.228
						C330.547,345.903,330.045,346.109,329.524,346.109z"/>
				</g>
				<g>
					<g>
						<g>
							<path style="fill:#13D2BD;" d="M354.099,348.703H314.74v-39.358h39.358V348.703z M317.313,346.13h34.213v-34.212h-34.213
								V346.13z"/>
						</g>
						<g>
							<path style="fill:#FF9D3B;" d="M330.524,345.109c-0.049,0-0.097-0.002-0.146-0.005c-0.572-0.043-1.098-0.332-1.439-0.794
								l-9.201-12.439c-0.647-0.875-0.463-2.11,0.412-2.757c0.875-0.646,2.111-0.463,2.757,0.413l7.84,10.599l26.609-26.61
								c0.772-0.77,2.019-0.77,2.788,0c0.77,0.77,0.77,2.018,0.001,2.788l-28.228,28.228
								C331.547,344.903,331.045,345.109,330.524,345.109z"/>
						</g>
					</g>
				</g>
			</g>
			<polygon style="fill:#E4AFB4;" points="385.829,350.74 390.127,358.832 382.378,360.797 380.063,351.591 			"/>
			
				<linearGradient id="SVGID_00000049196421641696028970000015995622402424260256_" gradientUnits="userSpaceOnUse" x1="396.9753" y1="369.4052" x2="387.9753" y2="405.4051">
				<stop  offset="0" style="stop-color:#074C47"/>
				<stop  offset="0.0511" style="stop-color:#08544E"/>
				<stop  offset="0.5021" style="stop-color:#0E988A"/>
				<stop  offset="0.8287" style="stop-color:#12C2AF"/>
				<stop  offset="0.9955" style="stop-color:#13D2BD"/>
			</linearGradient>
			<path style="fill:url(#SVGID_00000049196421641696028970000015995622402424260256_);" d="M405.202,384.262
				c0,0,9.479,17.467-2.745,18.986c-1.794,0.223-3.619,0.066-5.38-0.344c-7.536-1.755-13.81-4.027-14.536-2.629
				c-0.859,1.652-3.461,10.348-0.267,27.314l-5.331-0.407c-9.388-28.388-8.458-45.973,13.889-38.881l0.062-3.861L405.202,384.262z"
				/>
			<path style="fill:#422410;" d="M382.208,427.389c2.367,6.246-2.446,6.348-14.637,6.309c-1.694-0.016-2.879-1.804-0.002-2.692
				l9.373-3.824c0,0,4.294-0.056,5.182,0L382.208,427.389z"/>
			
				<linearGradient id="SVGID_00000165201243374310705690000016826578701553270457_" gradientUnits="userSpaceOnUse" x1="432.0548" y1="396.9967" x2="381.142" y2="369.448">
				<stop  offset="6.610600e-04" style="stop-color:#D56F5A"/>
				<stop  offset="0.2932" style="stop-color:#D6735A"/>
				<stop  offset="0.5764" style="stop-color:#DA7F5C"/>
				<stop  offset="0.8549" style="stop-color:#E0925E"/>
				<stop  offset="0.9981" style="stop-color:#E49F60"/>
			</linearGradient>
			<path style="fill:url(#SVGID_00000165201243374310705690000016826578701553270457_);" d="M385.792,388.507
				c0,0,16.327,2.758,22.131,1.414c0,0-3.732-25.674-15.573-31.171c-4.515-2.096-9.878-1.909-13.981,0.91
				c-2.472,1.698-2.834,3.018-3.599,5.982c-1.539,5.966,1.339,12.183,6.624,15.349C383.862,382.469,381.938,388.004,385.792,388.507
				z"/>
			<g>
				<path style="fill:#EDCACC;" d="M334.939,333.727c2.523,3.618,9.205,4.455,9.205,4.455c7.507,9.45,16.522,19.51,25.876,25.745
					l2.752-11.174c-8.928-4.348-17.543-11.205-25.257-18.937c-0.784-2.004-1.575-3.371-2.287-4.281
					c-0.958-1.195-2.837-0.107-2.314,1.315l0.45,1.846l-1.595-1.216c-1.167-1.049-2.258-1.709-3.201-2.119
					C335.894,328.257,333.295,331.349,334.939,333.727z"/>
				
					<linearGradient id="SVGID_00000115494169323467953220000005485816013492883073_" gradientUnits="userSpaceOnUse" x1="435.4703" y1="390.6843" x2="384.5575" y2="363.1356">
					<stop  offset="6.610600e-04" style="stop-color:#D56F5A"/>
					<stop  offset="0.2932" style="stop-color:#D6735A"/>
					<stop  offset="0.5764" style="stop-color:#DA7F5C"/>
					<stop  offset="0.8549" style="stop-color:#E0925E"/>
					<stop  offset="0.9981" style="stop-color:#E49F60"/>
				</linearGradient>
				<path style="fill:url(#SVGID_00000115494169323467953220000005485816013492883073_);" d="M370.02,363.927
					c2.15,1.444,4.328,2.669,6.507,3.65c3.539,1.586,7.385,2.317,11.235,2.112c0.756-0.04,1.497-0.12,2.25-0.228
					c4.26-0.647,6.484-5.439,4.217-9.098c-1.023-1.652-2.772-2.698-4.716-2.824c-5.615-0.379-11.234-2.098-16.741-4.786
					L370.02,363.927z"/>
			</g>
			<g>
				<path style="fill:#EDCACC;" d="M390.535,340.204c-0.439-2.409-1.445-4.483-2.965-5.279c-3.535-1.851-7.467-1.373-12,7.891
					c-0.196,0.402-0.12,0.179-0.253,0.608c-0.46,0.054-0.953,0.184-1.04,0.495c-0.096,0.343,0.321,0.645,0.643,0.841
					c0.028,0.017,0.059,0.023,0.09,0.024c-0.472,3.155,0.402,7.202,2.994,8.862c2.508,1.607,6.882,0.017,9.652-2.43
					C388.559,350.526,391.322,344.521,390.535,340.204z"/>
				<g>
					<path style="fill:#422410;" d="M377.233,347.317c0.793-0.195,1.677-0.71,2.116-1.979c0.036-0.104-0.019-0.218-0.124-0.254
						c-0.103-0.036-0.218,0.018-0.255,0.124c-0.785,2.265-3.136,1.79-3.237,1.769c-0.108-0.024-0.214,0.046-0.237,0.154
						c-0.023,0.108,0.046,0.214,0.154,0.237C375.664,347.372,376.398,347.522,377.233,347.317z"/>
				</g>
				<g>
					<path style="fill:#422410;" d="M378.037,343.216c-0.222,0.625-0.65,1.044-0.955,0.936c-0.305-0.108-0.372-0.703-0.15-1.329
						c0.222-0.625,0.65-1.045,0.955-0.936C378.192,341.996,378.259,342.591,378.037,343.216z"/>
				</g>
				<g>
					<path style="fill:#422410;" d="M379.868,341.705c0.007,0,0.015-0.001,0.022-0.002c0.109-0.015,0.186-0.116,0.171-0.225
						c-0.181-1.306-1.244-1.56-1.784-1.518c-0.11,0.009-0.191,0.106-0.182,0.216c0.008,0.11,0.094,0.191,0.215,0.184
						c0.038-0.003,1.18-0.079,1.354,1.174C379.678,341.635,379.767,341.708,379.868,341.705z"/>
				</g>
			</g>
			<g>
				<g>
					<polygon style="fill:#422410;" points="379.421,339.092 379.414,339.08 379.418,339.085 					"/>
				</g>
				<g>
					
						<linearGradient id="SVGID_00000035500300410287681210000008198254851551248572_" gradientUnits="userSpaceOnUse" x1="388.9893" y1="357.0684" x2="379.4893" y2="314.0685">
						<stop  offset="0.0188" style="stop-color:#FF9D3B"/>
						<stop  offset="0.9838" style="stop-color:#FFD239"/>
						<stop  offset="1" style="stop-color:#FFD039"/>
					</linearGradient>
					<path style="fill:url(#SVGID_00000035500300410287681210000008198254851551248572_);" d="M376.658,333.446
						c0.18-0.751,2.192-5.253,2.238-5.774c0.023,1.549,0.261,3.048,1.402,4.161c0.153-0.569,0.245-1.178,0.396-1.764
						c0.21-0.815,0.65-1.472,0.907-2.229c-0.011,1.91,2.392,3.587,3.905,4.3c-0.057-0.722,0.584-1.404,1.063-1.888
						c0.155,1.125,0.746,2.066,1.415,2.953c0.802,1.064,4.492,4.429,5.408,8.22c0.507,2.096,0.611,4.401-0.619,6.255
						c-1.27,1.914-2.684,3.577-4.98,4.277c-2.091,0.638-3.709,0.113-5.647-0.728c0.456-0.717,4.353-6.155-1.883-12.317
						c-0.05,0.819,0.16,1.673,0.456,2.437c-3.917-2.469-4.159-4.824-4.252-5.529C376.366,335.063,376.483,334.172,376.658,333.446z"
						/>
				</g>
				<g>
					<path style="fill:#422410;" d="M379.535,328.34c-0.001-0.076-0.004-0.152-0.004-0.229
						C379.544,328.178,379.543,328.257,379.535,328.34z"/>
				</g>
			</g>
			<path style="fill:#EDCACC;" d="M382.107,347.903c0.51,0.989,1.844,1.316,2.981,0.73c1.137-0.586,1.645-1.863,1.136-2.852
				c-0.51-0.989-1.844-1.316-2.981-0.73C382.106,345.637,381.598,346.914,382.107,347.903z"/>
		</g>
	</g>
</g>
<g id="DESIGNED_BY_FREEPIK">
	<g>
		<g>
			<g id="XMLID_319_">
				<g id="XMLID_338_">
					<path id="XMLID_346_" style="fill:#1D262D;" d="M260.104,465.465c-0.432,0.443-0.803,0.931-1.108,1.453l-0.465-0.241
						c-0.067-0.298-0.349-0.503-0.659-0.466c-0.331,0.039-0.568,0.339-0.529,0.67c0.039,0.331,0.339,0.568,0.67,0.529
						c0.065-0.008,0.127-0.026,0.183-0.052l0.452,0.234c-0.251,0.554-0.433,1.139-0.539,1.744l0.746,0.132
						c0.23-1.306,0.85-2.507,1.792-3.473L260.104,465.465z"/>
					<path id="XMLID_345_" style="fill:#1D262D;" d="M265.591,463.163c-0.171,0-0.341,0.006-0.51,0.017l-0.074-0.626
						c0.188-0.149,0.296-0.389,0.266-0.645c-0.046-0.393-0.402-0.674-0.795-0.628c-0.393,0.046-0.674,0.402-0.628,0.795
						c0.03,0.254,0.189,0.461,0.404,0.564l0.074,0.624c-0.714,0.116-1.403,0.332-2.06,0.646l0.327,0.684
						c0.934-0.447,1.942-0.673,2.995-0.673c0.496,0,0.993,0.053,1.475,0.158l0.161-0.741
						C266.692,463.222,266.142,463.163,265.591,463.163z"/>
					<path id="XMLID_344_" style="fill:#1D262D;" d="M272.194,465.711c0.331-0.04,0.566-0.341,0.525-0.672
						c-0.04-0.331-0.341-0.566-0.672-0.526c-0.309,0.038-0.535,0.304-0.53,0.609l-0.416,0.363c-0.418-0.43-0.889-0.813-1.408-1.139
						l-0.404,0.641c1.134,0.715,2.021,1.726,2.563,2.925l0.691-0.313c-0.251-0.554-0.568-1.072-0.942-1.545l0.402-0.351
						C272.064,465.716,272.128,465.719,272.194,465.711z"/>
					<path id="XMLID_343_" style="fill:#1D262D;" d="M265.044,473.372c-0.386,0.023-0.775,0.035-1.157,0.035
						c-0.88,0-1.733-0.061-2.478-0.179c-0.39-0.062-0.846-0.155-1.27-0.292c1.046,1.861,3.069,3.125,5.388,3.125
						c2.855,0,5.262-1.916,5.95-4.504c-0.682,0.449-1.505,0.825-2.459,1.123C267.838,473.047,266.463,473.286,265.044,473.372z"/>
					<path id="XMLID_339_" style="fill:#1D262D;" d="M265.591,464.68c-3.352,0-6.079,2.666-6.079,5.943
						c0,0.426,0.046,0.849,0.137,1.261c0.673,0.483,2.706,0.89,5.348,0.731c2.88-0.173,5.297-0.957,6.672-2.159
						c-0.005-0.195-0.021-0.39-0.045-0.582C271.243,466.913,268.65,464.68,265.591,464.68z M263.432,471.194
						c-1.02,0-1.85-0.83-1.85-1.85c0-1.02,0.83-1.85,1.85-1.85s1.85,0.83,1.85,1.85
						C265.282,470.365,264.452,471.194,263.432,471.194z M268.169,470.286c-0.75,0-1.36-0.61-1.36-1.36s0.61-1.361,1.36-1.361
						c0.75,0,1.361,0.61,1.361,1.361S268.92,470.286,268.169,470.286z"/>
				</g>
				<path id="XMLID_336_" style="fill:#1D262D;" d="M281.595,466.547c-0.295-0.116-0.806-0.309-1.383-0.237
					c-0.551,0.069-0.844,0.341-0.844,1.007v0.866h2.228v1.717h-2.228v5.455h-1.932v-5.455h-1.34v-1.717h1.34v-0.888
					c0-1.68,0.896-2.783,2.568-2.783c0.643,0,1.157,0.122,1.59,0.308L281.595,466.547z"/>
				<path id="XMLID_334_" style="fill:#1D262D;" d="M286.297,469.879c-0.177-0.03-0.357-0.046-0.526-0.046
					c-0.896,0-1.51,0.548-1.51,1.614v3.908h-1.932v-7.172h1.873v0.785c0.451-0.673,1.14-0.977,2.021-0.977
					c0.414,0,0.848,0.128,1.094,0.337L286.297,469.879z"/>
				<path id="XMLID_331_" style="fill:#1D262D;" d="M293.965,471.757c0,0.222-0.015,0.489-0.037,0.651h-5.085
					c0.207,1.036,0.933,1.488,1.843,1.488c0.622,0,1.295-0.252,1.813-0.688l1.132,1.243c-0.814,0.748-1.85,1.088-3.057,1.088
					c-2.198,0-3.723-1.495-3.723-3.753c0-2.258,1.48-3.797,3.627-3.797C292.544,467.99,293.957,469.522,293.965,471.757z
					 M288.85,471.091h3.175c-0.177-0.918-0.733-1.436-1.561-1.436C289.553,469.655,289.021,470.203,288.85,471.091z"/>
				<path id="XMLID_328_" style="fill:#1D262D;" d="M301.618,471.757c0,0.222-0.015,0.489-0.037,0.651h-5.085
					c0.207,1.036,0.932,1.488,1.843,1.488c0.622,0,1.295-0.252,1.813-0.688l1.132,1.243c-0.814,0.748-1.85,1.088-3.057,1.088
					c-2.198,0-3.723-1.495-3.723-3.753c0-2.258,1.48-3.797,3.627-3.797C300.197,467.99,301.611,469.522,301.618,471.757z
					 M296.504,471.091h3.175c-0.178-0.918-0.733-1.436-1.562-1.436C297.207,469.655,296.674,470.203,296.504,471.091z"/>
				<path id="XMLID_325_" style="fill:#1D262D;" d="M309.964,471.764c0,2.154-1.495,3.775-3.471,3.775
					c-0.962,0-1.643-0.378-2.109-0.933v3.708h-1.924v-10.133h1.887v0.792c0.466-0.585,1.155-0.984,2.139-0.984
					C308.469,467.99,309.964,469.61,309.964,471.764z M304.287,471.764c0,1.132,0.747,1.976,1.843,1.976
					c1.14,0,1.85-0.881,1.85-1.976c0-1.095-0.71-1.976-1.85-1.976C305.034,469.788,304.287,470.632,304.287,471.764z"/>
				<path id="XMLID_322_" style="fill:#1D262D;" d="M313.067,465.836c0,0.696-0.54,1.229-1.236,1.229
					c-0.696,0-1.229-0.533-1.229-1.229c0-0.696,0.533-1.243,1.229-1.243C312.527,464.592,313.067,465.14,313.067,465.836z
					 M312.808,475.354h-1.932v-7.172h1.932V475.354z"/>
				<path id="XMLID_320_" style="fill:#1D262D;" d="M316.032,470.736l2.702-2.554h2.368l-3.479,3.375l3.501,3.797h-2.376
					l-2.716-2.901v2.901H314.1v-10.658h1.932V470.736z"/>
			</g>
			<g>
				<path style="fill:#1D262D;" d="M184.412,475.289v-1.055c-0.527,0.718-1.391,1.23-2.387,1.23c-1.846,0-3.149-1.406-3.149-3.706
					c0-2.256,1.289-3.721,3.149-3.721c0.952,0,1.816,0.469,2.387,1.245v-3.765h1.099v9.77H184.412z M184.412,473.37v-3.208
					c-0.395-0.615-1.245-1.143-2.124-1.143c-1.421,0-2.27,1.172-2.27,2.739c0,1.567,0.85,2.724,2.27,2.724
					C183.167,474.483,184.017,473.986,184.412,473.37z"/>
				<path style="fill:#1D262D;" d="M186.932,471.744c0-2.051,1.465-3.706,3.486-3.706c2.139,0,3.398,1.67,3.398,3.794v0.279h-5.727
					c0.088,1.333,1.025,2.446,2.549,2.446c0.805,0,1.626-0.322,2.182-0.894l0.527,0.718c-0.703,0.703-1.655,1.084-2.812,1.084
					C188.44,475.465,186.932,473.956,186.932,471.744z M190.403,468.947c-1.509,0-2.256,1.274-2.314,2.358h4.643
					C192.717,470.25,192.014,468.947,190.403,468.947z"/>
				<path style="fill:#1D262D;" d="M194.607,474.351l0.571-0.791c0.469,0.542,1.362,1.011,2.329,1.011
					c1.084,0,1.67-0.513,1.67-1.216c0-1.714-4.38-0.659-4.38-3.281c0-1.098,0.952-2.036,2.636-2.036
					c1.201,0,2.051,0.454,2.622,1.026l-0.513,0.762c-0.425-0.513-1.201-0.894-2.109-0.894c-0.967,0-1.567,0.483-1.567,1.113
					c0,1.552,4.38,0.527,4.38,3.281c0,1.187-0.952,2.138-2.783,2.138C196.306,475.465,195.324,475.113,194.607,474.351z"/>
				<path style="fill:#1D262D;" d="M201.477,466.471c0-0.41,0.337-0.747,0.732-0.747c0.41,0,0.747,0.337,0.747,0.747
					c0,0.41-0.337,0.732-0.747,0.732C201.814,467.203,201.477,466.881,201.477,466.471z M201.667,475.289v-7.075h1.099v7.075
					H201.667z"/>
				<path style="fill:#1D262D;" d="M204.582,477.105l0.556-0.82c0.586,0.703,1.289,0.967,2.3,0.967c1.172,0,2.27-0.571,2.27-2.124
					v-1.011c-0.513,0.718-1.377,1.26-2.373,1.26c-1.845,0-3.149-1.377-3.149-3.662c0-2.27,1.289-3.677,3.149-3.677
					c0.952,0,1.802,0.469,2.373,1.245v-1.069h1.099v6.87c0,2.344-1.641,3.076-3.369,3.076
					C206.237,478.16,205.416,477.926,204.582,477.105z M209.708,473.253v-3.091c-0.381-0.615-1.23-1.143-2.109-1.143
					c-1.421,0-2.27,1.128-2.27,2.695c0,1.553,0.849,2.695,2.27,2.695C208.478,474.41,209.327,473.868,209.708,473.253z"/>
				<path style="fill:#1D262D;" d="M217.413,475.289v-4.629c0-1.245-0.63-1.641-1.582-1.641c-0.864,0-1.685,0.527-2.095,1.099v5.17
					h-1.099v-7.075h1.099v1.025c0.498-0.586,1.464-1.201,2.519-1.201c1.48,0,2.256,0.747,2.256,2.285v4.966H217.413z"/>
				<path style="fill:#1D262D;" d="M219.932,471.744c0-2.051,1.465-3.706,3.486-3.706c2.139,0,3.399,1.67,3.399,3.794v0.279h-5.727
					c0.088,1.333,1.025,2.446,2.549,2.446c0.806,0,1.626-0.322,2.183-0.894l0.527,0.718c-0.703,0.703-1.655,1.084-2.812,1.084
					C221.441,475.465,219.932,473.956,219.932,471.744z M223.404,468.947c-1.509,0-2.256,1.274-2.314,2.358h4.643
					C225.718,470.25,225.015,468.947,223.404,468.947z"/>
				<path style="fill:#1D262D;" d="M233.35,475.289v-1.055c-0.527,0.718-1.392,1.23-2.388,1.23c-1.846,0-3.149-1.406-3.149-3.706
					c0-2.256,1.289-3.721,3.149-3.721c0.952,0,1.817,0.469,2.388,1.245v-3.765h1.098v9.77H233.35z M233.35,473.37v-3.208
					c-0.396-0.615-1.245-1.143-2.124-1.143c-1.421,0-2.27,1.172-2.27,2.739c0,1.567,0.849,2.724,2.27,2.724
					C232.105,474.483,232.954,473.986,233.35,473.37z"/>
				<path style="fill:#1D262D;" d="M239.692,475.289v-9.77h1.098v3.765c0.572-0.776,1.421-1.245,2.388-1.245
					c1.845,0,3.149,1.465,3.149,3.721c0,2.299-1.304,3.706-3.149,3.706c-0.996,0-1.86-0.513-2.388-1.23v1.055H239.692z
					 M242.899,474.483c1.436,0,2.286-1.157,2.286-2.724c0-1.568-0.85-2.739-2.286-2.739c-0.864,0-1.728,0.527-2.109,1.143v3.208
					C241.171,473.986,242.035,474.483,242.899,474.483z"/>
				<path style="fill:#1D262D;" d="M247.528,477.061c0.161,0.073,0.425,0.117,0.601,0.117c0.483,0,0.805-0.161,1.055-0.747
					l0.469-1.069l-2.959-7.148h1.187l2.358,5.8l2.344-5.8h1.201l-3.545,8.51c-0.425,1.025-1.143,1.421-2.08,1.435
					c-0.234,0-0.601-0.044-0.805-0.103L247.528,477.061z"/>
			</g>
		</g>
	</g>
</g>
</svg>
