<?xml version="1.0" encoding="utf-8"?>
<!-- Generator: Adobe Illustrator 27.5.0, SVG Export Plug-In . SVG Version: 6.00 Build 0)  -->
<svg version="1.1" xmlns="http://www.w3.org/2000/svg" xmlns:xlink="http://www.w3.org/1999/xlink" x="0px" y="0px"
	 viewBox="0 0 500 500" style="enable-background:new 0 0 500 500;" xml:space="preserve">
<g id="BACKGROUND">
</g>
<g id="OBJECTS">
	<g>
		<g>
			<path style="fill:#C3EDEF;" d="M361.464,101.065c-2.641-11.5-15.491-19.921-27.586-19.921c-14.242,0-26.219,9.675-29.731,22.809
				c-5.65-2.362-13.019-0.87-15.545,2.852c-3.276,4.827-1.806,11.039,4.028,11.039h11.045h11.975h30.342h18.09h2.741
				C380.116,117.845,377.823,98.232,361.464,101.065z"/>
			<path style="fill:#C3EDEF;" d="M183.311,119.532c-2.641-11.5-15.491-19.921-27.586-19.921c-14.242,0-26.219,9.675-29.731,22.809
				c-5.65-2.362-13.019-0.87-15.545,2.852c-3.276,4.827-1.806,11.039,4.028,11.039h11.045h11.975h30.342h18.09h2.742
				C201.964,136.311,199.671,116.699,183.311,119.532z"/>
			<path style="fill:#C3EDEF;" d="M431.642,232.055c-1.445-6.295-8.479-10.904-15.099-10.904c-7.795,0-14.351,5.296-16.274,12.485
				c-3.093-1.293-7.126-0.476-8.509,1.561c-1.793,2.642-0.988,6.042,2.205,6.042h6.045h6.555h16.608h9.902h1.501
				C441.852,241.24,440.596,230.505,431.642,232.055z"/>
			<path style="fill:#C3EDEF;" d="M114.31,185.013c-1.959-8.529-11.49-14.775-20.46-14.775c-10.563,0-19.446,7.176-22.051,16.917
				c-4.191-1.752-9.656-0.645-11.53,2.115c-2.43,3.58-1.34,8.188,2.987,8.188h8.192h8.882h22.504h13.417h2.033
				C128.144,197.458,126.443,182.912,114.31,185.013z"/>
		</g>
		<g>
			<g>
				<path style="fill:#A8AAE0;" d="M269.022,340.37c0.393-0.111,0.789-0.217,1.179-0.331c0,0-44.062-35.337-67.647-44.997
					c-20.39-8.352-61.579,33.762-72.367,45.328H269.022z"/>
				<path style="fill:#BCBFF5;" d="M180.208,308.517c3.05-0.795,5.764-2.609,8.317-4.38c0.44-0.305,1.117-0.085,1.368,0.359
					c4.203,7.439,14.143,1.676,19.298-1.692c0.378-0.247,0.9-0.135,1.212,0.156c3.755,3.499,9.28,4.879,13.733,3.859
					c-7.825-4.955-15.406-9.247-21.582-11.777c-8.563-3.507-20.795,1.887-32.903,10.181
					C171.478,308.266,176.83,309.397,180.208,308.517z"/>
				<path style="fill:#BFC1FF;" d="M181.067,340.37c0.393-0.111,0.789-0.217,1.179-0.331c0,0-44.062-35.337-67.647-44.997
					c-20.39-8.352-61.579,33.762-72.367,45.328H181.067z"/>
				<path style="fill:#DEDFFF;" d="M97.166,306.495c0.285-0.669,1.345-0.686,1.727,0c5.154,9.259,18.287,8.4,24.929,1.298
					c0.483-0.517,1.201-0.287,1.571,0.202c3.686,4.873,10.625,4.578,15.001,1.538c-9.284-6.08-18.515-11.509-25.795-14.491
					c-10.461-4.285-26.395,4.714-40.89,16.054C74.333,314.08,93.029,316.194,97.166,306.495z"/>
			</g>
			<g>
				<path style="fill:#2ED99E;" d="M190.631,349.802c0,0,2.528-15.945-13.723-6.69c0,0-0.181-14.933-14.626-1.394
					c0,0-4.202-23.627-12.279-1.268c0,0-7.741-27.628-14.976-6.501c0,0-7.991-13.174-15.238-12.261
					c-3.283,0.413-8.489,6.964-9.356,14.358c0,0-8.824-21.419-20.019-19.252s-11.376,15.349-11.376,15.349
					s-6.862-17.601-11.376-1.487c0,0-9.176-12.958-16.867,9.252c0,0-17.983-18.779-15.997,0.361c0,0-8.126-1.753-6.681,9.532
					H190.631z"/>
				<path style="fill:#2ED99E;" d="M307.863,349.802c0,0,2.528-15.945-13.724-6.69c0,0-0.181-14.933-14.626-1.394
					c0,0-4.202-23.627-12.279-1.268c0,0-7.741-27.628-14.976-6.501c0,0-7.991-13.174-15.238-12.261
					c-3.283,0.413-8.489,6.964-9.356,14.358c0,0-8.824-21.419-20.019-19.252c-11.196,2.167-11.376,15.349-11.376,15.349
					s-6.862-17.601-11.376-1.487c0,0-9.176-12.958-16.867,9.252c0,0-17.983-18.779-15.997,0.361c0,0-8.126-1.753-6.681,9.532
					H307.863z"/>
			</g>
			<g>
				<path style="fill:#A8AAE0;" d="M236.678,340.37c-0.393-0.111-0.789-0.217-1.179-0.331c0,0,44.062-35.337,67.647-44.997
					c20.39-8.352,61.579,33.762,72.367,45.328H236.678z"/>
				<path style="fill:#BCBFF5;" d="M325.493,308.517c-3.05-0.795-5.764-2.609-8.317-4.38c-0.44-0.305-1.117-0.085-1.368,0.359
					c-4.203,7.439-14.143,1.676-19.298-1.692c-0.378-0.247-0.9-0.135-1.212,0.156c-3.755,3.499-9.28,4.879-13.733,3.859
					c7.825-4.955,15.406-9.247,21.582-11.777c8.563-3.507,20.795,1.887,32.903,10.181
					C334.222,308.266,328.87,309.397,325.493,308.517z"/>
				<path style="fill:#BFC1FF;" d="M324.633,340.37c-0.393-0.111-0.789-0.217-1.179-0.331c0,0,44.061-35.337,67.647-44.997
					c20.39-8.352,61.579,33.762,72.367,45.328H324.633z"/>
				<path style="fill:#DEDFFF;" d="M408.534,306.495c-0.285-0.669-1.345-0.686-1.727,0c-5.154,9.259-18.287,8.4-24.93,1.298
					c-0.483-0.517-1.201-0.287-1.57,0.202c-3.686,4.873-10.625,4.578-15.001,1.538c9.284-6.08,18.514-11.509,25.795-14.491
					c10.461-4.285,26.395,4.714,40.89,16.054C431.368,314.08,412.671,316.194,408.534,306.495z"/>
			</g>
			<g>
				<path style="fill:#2ED99E;" d="M317.357,349.802c0,0-2.528-15.945,13.723-6.69c0,0,0.181-14.933,14.626-1.394
					c0,0,4.202-23.627,12.279-1.268c0,0,7.741-27.628,14.976-6.501c0,0,7.991-13.174,15.238-12.261
					c3.283,0.413,8.489,6.964,9.356,14.358c0,0,8.824-21.419,20.019-19.252s11.376,15.349,11.376,15.349s6.862-17.601,11.376-1.487
					c0,0,9.176-12.958,16.867,9.252c0,0,17.983-18.779,15.997,0.361c0,0,8.126-1.753,6.681,9.532H317.357z"/>
				<path style="fill:#2ED99E;" d="M200.125,349.802c0,0-2.528-15.945,13.724-6.69c0,0,0.181-14.933,14.626-1.394
					c0,0,4.202-23.627,12.279-1.268c0,0,7.741-27.628,14.976-6.501c0,0,7.991-13.174,15.238-12.261
					c3.283,0.413,8.489,6.964,9.356,14.358c0,0,8.824-21.419,20.019-19.252s11.376,15.349,11.376,15.349s6.862-17.601,11.376-1.487
					c0,0,9.176-12.958,16.867,9.252c0,0,17.983-18.779,15.997,0.361c0,0,8.126-1.753,6.681,9.532H200.125z"/>
			</g>
		</g>
		<g>
			<g>
				
					<ellipse transform="matrix(0.1613 -0.9869 0.9869 0.1613 -27.7448 346.9504)" style="fill:#C4C9F6;" cx="190.25" cy="189.798" rx="21.604" ry="21.604"/>
				
					<ellipse transform="matrix(0.9274 -0.3741 0.3741 0.9274 -57.1938 84.9651)" style="fill:#FFFFFF;" cx="190.25" cy="189.798" rx="13.787" ry="13.787"/>
				<polygon style="fill:#C4C9F6;" points="197.802,171.061 182.699,171.061 183.933,162.268 196.567,162.268 				"/>
				<polygon style="fill:#C4C9F6;" points="209.858,184.503 200.738,172.465 208.492,168.139 216.121,178.209 				"/>
				<polygon style="fill:#C4C9F6;" points="206.852,201.471 210.338,186.777 218.608,190.008 215.692,202.3 				"/>
				<polygon style="fill:#C4C9F6;" points="191.846,209.946 205.402,203.288 208.171,211.724 196.831,217.294 				"/>
				<polygon style="fill:#C4C9F6;" points="175.762,203.76 189.523,209.983 184.775,217.486 173.263,212.28 				"/>
				<polygon style="fill:#C4C9F6;" points="170.304,187.414 174.255,201.99 165.446,203.1 162.14,190.906 				"/>
				<polygon style="fill:#C4C9F6;" points="179.443,172.804 170.71,185.126 164.25,179.035 171.555,168.727 				"/>
			</g>
			<g>
				
					<ellipse transform="matrix(0.5057 -0.8627 0.8627 0.5057 23.794 383.6458)" style="fill:#C4C9F6;" cx="346.675" cy="171.06" rx="27.885" ry="27.885"/>
				
					<ellipse transform="matrix(0.2882 -0.9576 0.9576 0.2882 82.9536 453.7185)" style="fill:#FFFFFF;" cx="346.675" cy="171.06" rx="19.357" ry="19.357"/>
				<polygon style="fill:#C4C9F6;" points="341.333,196.581 360.522,193.154 360.95,204.606 344.896,207.474 				"/>
				<polygon style="fill:#C4C9F6;" points="323.134,182.596 337.653,195.604 328.894,202.994 316.748,192.113 				"/>
				<polygon style="fill:#C4C9F6;" points="322.767,160.356 321.967,179.833 310.693,177.776 311.362,161.482 				"/>
				<polygon style="fill:#C4C9F6;" points="339.693,145.924 324.156,157.698 318.572,147.69 331.569,137.841 				"/>
				<polygon style="fill:#C4C9F6;" points="362.618,150.559 343.893,145.138 348.58,134.68 364.244,139.215 				"/>
				<polygon style="fill:#C4C9F6;" points="372.597,170.438 364.868,152.543 375.919,149.505 382.385,164.476 				"/>
				<polygon style="fill:#C4C9F6;" points="363.607,190.784 372.498,173.436 381.872,180.031 374.434,194.543 				"/>
			</g>
		</g>
		<g>
			<path style="fill:#5452C3;" d="M253.462,149.386h-6.812c-2.107,0-3.815-1.708-3.815-3.815v-7.007h14.442v7.007
				C257.277,147.678,255.569,149.386,253.462,149.386z"/>
			<rect x="242.835" y="138.564" style="fill:#424099;" width="14.442" height="5.27"/>
			<path style="fill:#FCF57B;" d="M287.475,73.169c0-20.697-16.778-37.475-37.475-37.475c-20.697,0-37.475,16.778-37.475,37.475
				c0,10.149,5.089,18.946,10.24,27.334c1.523,2.48,11.815,23.425,13.775,26.626l26.92,0c3.076-6.91,6.18-13.971,9.87-20.565
				C279.637,95.296,287.475,86.23,287.475,73.169z"/>
			<polygon style="fill:#5452C3;" points="260.958,140.491 239.155,140.491 236.54,127.129 263.572,127.129 			"/>
			<g>
				<path style="fill:none;stroke:#5452C3;stroke-width:1.6223;stroke-miterlimit:10;" d="M246.787,131.389L236.54,84.749
					c0,0-2.605-11.28-8.186-8.967c-7.304,3.028,0.6,26.179,21.703,26.179c21.103,0,27.124-19.293,24.543-23.839
					c-2.58-4.546-9.014-2.535-11.027,6.627c-2.013,9.162-10.247,46.639-10.247,46.639"/>
			</g>
			<polygon style="fill:#424099;" points="262.915,130.49 263.572,127.129 236.54,127.129 237.198,130.49 			"/>
			<polygon style="fill:#424099;" points="261.652,136.941 262.241,133.93 237.871,133.93 238.46,136.941 			"/>
			<path style="fill:#FEFEFE;" d="M239.096,58.736c-2.524,4.371-7.488,6.23-11.088,4.152c-3.6-2.078-4.472-7.307-1.948-11.678
				c2.524-4.371,7.488-6.23,11.088-4.152C240.747,49.136,241.619,54.364,239.096,58.736z"/>
		</g>
		<g>
			<ellipse style="fill:#E4E7E4;" cx="106.015" cy="405.586" rx="49.015" ry="7.561"/>
			<ellipse style="fill:#E4E7E4;" cx="380.513" cy="405.586" rx="49.015" ry="7.561"/>
			<ellipse style="fill:#E4E7E4;" cx="291.035" cy="383.605" rx="49.015" ry="7.561"/>
			<g>
				<g>
					<g>
						<path style="fill:#883C79;" d="M301.199,277.004c-1.019,16.88-2.501,33.786-4.124,50.67
							c-0.82,8.444-1.624,16.888-2.628,25.329c-0.995,8.441-2.04,16.879-3.411,25.322l-6.036-0.083
							c-1.125-8.511-1.805-17.024-2.385-25.534c-0.581-8.51-0.894-17.014-1.195-25.518c-0.565-17.011-0.859-33.995-0.55-51
							L301.199,277.004z"/>
					</g>
					<g>
						<path style="fill:#A64993;" d="M310.474,270.309c-0.033,0.022-0.053,0.352-0.08,0.544l-0.065,0.732l-0.11,1.542
							c-0.066,1.048-0.106,2.122-0.138,3.206c-0.061,2.168-0.094,4.371-0.077,6.59c0.012,4.438,0.197,8.918,0.463,13.419
							c0.486,9.009,1.469,18.058,2.676,27.109l0.955,6.789c0.328,2.188,0.689,4.385,1.143,6.587
							c0.868,4.407,1.903,8.847,3.003,13.303c2.258,8.896,4.792,17.834,7.338,26.77l-6.82,2.341
							c-3.447-8.554-7.231-16.992-10.893-25.612c-1.855-4.303-3.67-8.659-5.354-13.137c-0.846-2.234-1.653-4.509-2.455-6.803
							l-2.249-6.702c-2.944-8.964-5.622-18.047-8.073-27.293c-1.238-4.62-2.321-9.298-3.383-14.042
							c-0.531-2.37-1.016-4.768-1.472-7.205c-0.232-1.218-0.437-2.45-0.651-3.708l-0.302-1.919l-0.142-1
							c-0.044-0.386-0.09-0.633-0.131-1.189L310.474,270.309z"/>
					</g>
					<g>
						<path style="fill:#00619F;" d="M275.395,383.402l15.812,0.202c0.746,0.012,1.361-0.583,1.373-1.329l0.05-2.828
							c-0.02-1.191-0.813-2.369-1.953-2.607c0,0-8.012,0.873-11.181,1.636c-3.396,0.818-5.319,1.515-5.487,1.992
							C273.44,382.077,274.366,383.199,275.395,383.402z"/>
					</g>
					<g>
						<path style="fill:#00619F;" d="M309.456,383.402l15.812,0.202c0.746,0.012,1.361-0.583,1.373-1.329l0.05-2.828
							c-0.02-1.191-0.813-2.369-1.953-2.607c0,0-8.012,0.873-11.181,1.636c-3.396,0.818-5.319,1.515-5.487,1.992
							C307.5,382.077,308.427,383.199,309.456,383.402z"/>
					</g>
				</g>
				<g>
					<g>
						<path style="fill:#E3A5A2;" d="M281.704,244.513l-21.38,24.058l-0.202,0.227c-1.541,1.734-4.195,1.89-5.928,0.349
							c-0.095-0.085-0.19-0.178-0.276-0.269l-18.223-19.459l-0.006-0.006c-1.462-1.561-1.381-4.011,0.18-5.473
							c1.532-1.435,3.926-1.38,5.396,0.099l18.79,18.94l-6.405,0.308l18.504-26.334c1.937-2.756,5.741-3.421,8.498-1.484
							c2.756,1.937,3.421,5.741,1.484,8.498C282.002,244.159,281.855,244.343,281.704,244.513z"/>
					</g>
					<path style="fill:#45C4BC;" d="M273.685,234.594l-11.049,15.112l8.426,7.741l15.655-18.345l-1.395-10.462l-5.486,0.826
						C277.833,230.092,275.089,232.771,273.685,234.594z"/>
					<g>
						<g>
							<g>
								<path style="fill:#E3A5A2;" d="M233.459,242.451c0.05,0.128,0.054,0.124,0.063,0.139c0.012,0.019,0.02,0.026,0.02,0.026
									s0.018,0.009,0.01-0.009c-0.005-0.023-0.009-0.051-0.031-0.094c-0.028-0.074-0.089-0.176-0.152-0.274
									c-0.126-0.2-0.299-0.418-0.485-0.632c-0.377-0.431-0.823-0.859-1.301-1.271c-0.958-0.826-2.04-1.588-3.155-2.312
									l-0.015-0.01c-0.556-0.361-0.714-1.105-0.354-1.661c0.312-0.481,0.91-0.664,1.426-0.472c1.319,0.49,2.633,1.031,3.934,1.723
									c0.651,0.348,1.298,0.733,1.944,1.199c0.323,0.236,0.645,0.487,0.969,0.797c0.163,0.156,0.324,0.314,0.492,0.517
									c0.081,0.092,0.169,0.207,0.255,0.328c0.04,0.052,0.093,0.141,0.138,0.211c0.021,0.032,0.049,0.081,0.078,0.139
									c0.027,0.053,0.05,0.087,0.115,0.255c0.387,1.091-0.184,2.289-1.275,2.676C235.044,244.113,233.846,243.542,233.459,242.451
									z"/>
							</g>
							<g>
								<path style="fill:#E3A5A2;" d="M236.343,241.83c0.052,0.175,0.052,0.149,0.065,0.182c0.016,0.032,0.022,0.036,0.022,0.036
									c0.009,0.009,0.021,0.018,0.016,0.002c0.005-0.013-0.005-0.047-0.022-0.087c-0.031-0.078-0.077-0.177-0.144-0.283
									c-0.12-0.21-0.294-0.442-0.473-0.671c-0.37-0.461-0.814-0.921-1.276-1.373c-0.942-0.898-1.992-1.749-3.076-2.568
									l-0.011-0.008c-0.529-0.399-0.634-1.152-0.235-1.682c0.346-0.459,0.958-0.598,1.459-0.368
									c1.295,0.594,2.581,1.235,3.851,2.003c0.633,0.393,1.265,0.808,1.891,1.307c0.314,0.256,0.626,0.519,0.941,0.847
									c0.157,0.158,0.315,0.338,0.478,0.547c0.08,0.103,0.162,0.216,0.249,0.355c0.04,0.059,0.088,0.146,0.134,0.233
									c0.022,0.042,0.044,0.082,0.075,0.155c0.029,0.074,0.046,0.087,0.11,0.304c0.295,1.12-0.373,2.266-1.493,2.561
									C237.784,243.618,236.638,242.949,236.343,241.83z"/>
							</g>
							<g>
								<path style="fill:#E3A5A2;" d="M233.452,245.695c0.024,0.001-0.102-0.192-0.172-0.3c-0.09-0.129-0.182-0.263-0.287-0.395
									c-0.203-0.267-0.436-0.532-0.675-0.793c-0.485-0.522-1.029-1.017-1.602-1.491c-0.574-0.474-1.189-0.913-1.823-1.335
									c-0.636-0.42-1.302-0.806-1.98-1.18l-0.028-0.016c-0.58-0.319-0.791-1.048-0.471-1.627c0.282-0.512,0.885-0.736,1.421-0.561
									c0.796,0.26,1.592,0.54,2.377,0.868c0.784,0.33,1.563,0.69,2.324,1.108c0.761,0.418,1.512,0.878,2.238,1.41
									c0.363,0.269,0.722,0.548,1.074,0.861c0.177,0.152,0.351,0.319,0.527,0.491c0.189,0.198,0.321,0.314,0.574,0.645
									c0.639,0.965,0.374,2.266-0.591,2.905C235.392,246.925,234.091,246.66,233.452,245.695z"/>
							</g>
							<g>
								<path style="fill:#E3A5A2;" d="M233.632,248.473c-0.525-0.546-1.157-1.139-1.764-1.694c-0.617-0.56-1.246-1.113-1.89-1.651
									c-1.285-1.078-2.617-2.109-3.99-3.09l-0.007-0.005c-0.539-0.385-0.663-1.133-0.278-1.672
									c0.343-0.481,0.976-0.631,1.492-0.385c1.582,0.755,3.138,1.572,4.665,2.452c0.764,0.439,1.519,0.897,2.269,1.369
									c0.757,0.481,1.474,0.946,2.254,1.511c0.942,0.681,1.153,1.997,0.472,2.939c-0.681,0.942-1.997,1.153-2.939,0.472
									C233.815,248.647,233.715,248.558,233.632,248.473z"/>
							</g>
						</g>
						<path style="fill:#E3A5A2;" d="M236.511,250.711c2.34,0.986,6.673-1.588,6.673-1.588c0.555-4.526-0.735-6.903-1.871-8.245
							l-5.7-1.526c0,0-1.779,2.026-1.782,2.03c-0.774,0.882-1.517,1.907-1.691,3.098C231.903,246.1,234.303,249.781,236.511,250.711
							z"/>
						<g>
							<path style="fill:#E3A5A2;" d="M238.673,236.374c0.854,0.41,1.463,0.847,2.101,1.44c0.613,0.583,1.151,1.301,1.536,2.124
								c0.383,0.817,0.633,1.742,0.663,2.651c0.068,0.922-0.071,1.8-0.256,2.656c-0.245,1.139-1.368,1.863-2.506,1.617
								c-1.139-0.245-1.863-1.368-1.617-2.506c0.03-0.138,0.072-0.27,0.126-0.394l0.025-0.055c0.203-0.462,0.402-0.932,0.466-1.392
								c0.101-0.467,0.076-0.923-0.017-1.391c-0.096-0.465-0.295-0.938-0.596-1.384c-0.28-0.431-0.737-0.893-1.075-1.171
								l-0.163-0.133c-0.526-0.431-0.602-1.207-0.171-1.733C237.556,236.256,238.173,236.134,238.673,236.374z"/>
						</g>
					</g>
				</g>
				<path style="fill:#70EAE2;" d="M279.934,286.827c1.806-17.554-4.376-52.072-4.376-52.072c-0.305-3.095,2.784-6.232,10.433-6.166
					l14.501-0.45c3.462-0.096,5.558,1.401,7.472,6.671c0,0,4.29,19.52,2.48,53.745C300.948,289.559,291.933,289.262,279.934,286.827
					z"/>
				<g>
					<path style="fill:#E3A5A2;" d="M296.323,229.447c0,0-0.493,3.004-4.19,3.107c-3.697,0.103-4.357-2.869-4.357-2.869
						s1.073-4.85-0.632-9.821c0.939-2.281,7.058-2.957,8.912,0.002C295.39,224.269,296.323,229.447,296.323,229.447z"/>
					<g>
						<path style="fill:#00619F;" d="M280.463,203.126c0,0-4.131,9.353,1.044,14.491l1.703-0.49L280.463,203.126z"/>
						<path style="fill:#FFB9B6;" d="M278.309,214.192c0.961,2.792,3.002,4.622,4.559,4.086c1.557-0.536,2.04-3.234,1.078-6.026
							c-0.961-2.792-3.002-4.622-4.559-4.086C277.831,208.701,277.348,211.399,278.309,214.192z"/>
						<path style="fill:#FFB9B6;" d="M302.055,199.867c-2.633-3.164-6.447-5.073-10.598-4.865c-0.138,0.007-0.282,0.023-0.424,0.036
							c-0.143,0.001-0.288-0.001-0.426,0.006c-4.151,0.208-5.748,0.046-8.168,3.376c-3.121,4.294-1.44,12.242-1.312,14.802
							c0.363,7.256,1.365,12.418,8.106,12.047c7.057-0.389,13.941-5.567,13.985-13.124
							C303.233,209.581,303.697,201.84,302.055,199.867z"/>
						<path style="fill:#00619F;" d="M280.54,206.326c-7.474-2.803-1.127-12.127,5.139-14.223
							c10.167-3.401,17.511-2.301,18.676,3.954c0,0,5.129,4.235,2.026,10.758c0,0,2.369,12.79-6.808,13.249
							c0,0,2.083-1.556,3.705-6.726c0,0-5.709-3.314-2.545-11.286C300.733,202.053,288.014,209.129,280.54,206.326z"/>
						<path style="fill:#FFB9B6;" d="M307.529,212.731c-0.678,2.874-2.526,4.898-4.129,4.52c-1.602-0.378-2.352-3.014-1.674-5.889
							c0.678-2.874,2.526-4.898,4.129-4.52C307.457,207.22,308.206,209.856,307.529,212.731z"/>
					</g>
				</g>
			</g>
			<g>
				<path style="fill:#946CFF;" d="M120.171,254.901c4.712-1.146,6.489-1.385,9.412-4.549c0.673-2.164-0.604-6.489-2.257-8.349
					c-8.41-9.461,0-20.781,0-20.781l-24.295,6.223c0,0,0.925,10.429-3.781,17.021c-1.799,2.52-0.392,6.485,2.344,7.935
					C107.752,255.665,117.379,255.58,120.171,254.901z"/>
				<g>
					<path style="fill:#4E6BC4;" d="M116.548,315.104c-1.136,8.763,5.83,38.407,8.265,48.198
						c-2.608,8.574-2.721,13.939-2.608,19.798c0,0,1.828,13.36,1.824,15.653l8.027,0.898c0.191-2.273,3.349-31.581,5.604-42.354
						c2.052-9.806-1.853-33.748-5.315-50.82C124.361,305.031,117.345,308.952,116.548,315.104z"/>
					<path style="fill:#8C3878;" d="M128.824,398.596l5.269,1.722c2.828,0.635,4.974,1.276,6.535,1.792
						c1.009,0.334,1.654,1.18,1.133,1.953c-0.192,0.285-0.481,0.472-0.855,0.528l-15.864-0.022
						c-0.665,0.001-1.204-0.442-1.205-0.989l-0.003-0.856l-0.005,0.001v-4.128H128.824z"/>
				</g>
				<g>
					<path style="fill:#6389FA;" d="M104.108,303.095c-2.237,3.065-1.22,11.077,1.198,17.949c2.933,8.336,3.266,22.813,2.517,31.87
						c-8.149,1.521-12.998,7.474-16.543,12.14c0,0-9.579,12.507-11.004,14.304l5.124,5.263c1.56-1.665,25.938-17.524,32.691-26.217
						c6.932-8.924,9.235-36.347,11.124-52.224C121.231,304.735,112.13,304.329,104.108,303.095z"/>
					<path style="fill:#8C3878;" d="M84.561,382.018l2.867,4.461c1.825,2.252,3.111,4.085,4.015,5.458
						c0.584,0.887,0.565,1.952-0.322,2.235c-0.327,0.104-0.67,0.072-0.998-0.116l-12.431-9.855c-0.522-0.411-0.67-1.093-0.332-1.523
						l0.528-0.673l-0.004-0.002l2.56-3.238L84.561,382.018z"/>
				</g>
				<g>
					<g>
						<path style="fill:#E3A5A2;" d="M136.762,256.44l19.369,17.528l-5.936,0.768l0.004-0.004c1.263-1.518,2.567-3.175,3.824-4.8
							c1.264-1.637,2.512-3.293,3.743-4.963c2.46-3.342,4.856-6.74,7.186-10.186l0.004-0.006c0.907-1.341,2.729-1.694,4.07-0.787
							c1.255,0.848,1.638,2.511,0.939,3.819c-2.011,3.734-4.097,7.429-6.261,11.088c-1.083,1.828-2.187,3.646-3.314,5.456
							c-1.137,1.819-2.257,3.586-3.501,5.432l-0.005,0.006c-1.335,1.788-3.833,2.194-5.661,0.955l-0.275-0.187l-21.602-14.689
							c-2.746-1.867-3.458-5.607-1.591-8.353c1.867-2.746,5.607-3.459,8.353-1.591C136.332,256.078,136.566,256.265,136.762,256.44z
							"/>
					</g>
					<path style="fill:#55A6CF;" d="M145.227,262.983l-9.305-8.984c-1.669-1.532-5.382-4.805-8.992-4.775l-3.304,0.955l0.407,10.388
						l13.862,11.504C140.28,269.011,142.849,266.079,145.227,262.983z"/>
					<g>
						<g>
							<g>
								<path style="fill:#E3A5A2;" d="M167.799,250.672c0.062-0.347,0.101-0.389,0.152-0.541c0.048-0.12,0.099-0.235,0.15-0.333
									c0.102-0.211,0.21-0.387,0.321-0.563c0.221-0.348,0.456-0.651,0.697-0.942c0.483-0.577,0.992-1.089,1.516-1.569
									c1.048-0.958,2.154-1.788,3.278-2.573c0.388-0.271,0.922-0.176,1.193,0.212c0.244,0.35,0.191,0.819-0.106,1.106
									l-0.007,0.007c-0.945,0.916-1.853,1.863-2.641,2.859c-0.393,0.497-0.754,1.007-1.056,1.516
									c-0.149,0.254-0.286,0.51-0.386,0.75c-0.05,0.118-0.098,0.24-0.123,0.338c-0.018,0.055-0.025,0.096-0.032,0.135
									c-0.002,0.006-0.011,0.125,0.023-0.056c-0.096,0.823-0.84,1.413-1.663,1.317
									C168.293,252.239,167.703,251.495,167.799,250.672z"/>
							</g>
							<g>
								<path style="fill:#E3A5A2;" d="M164.872,251.005c0.011-0.167,0.021-0.185,0.031-0.247l0.031-0.137
									c0.021-0.079,0.043-0.159,0.065-0.218c0.044-0.133,0.091-0.247,0.139-0.354c0.097-0.215,0.197-0.409,0.303-0.586
									c0.208-0.363,0.433-0.676,0.661-0.983c0.459-0.604,0.948-1.142,1.446-1.661c1.004-1.023,2.06-1.942,3.138-2.82
									c0.367-0.299,0.907-0.244,1.206,0.123c0.27,0.331,0.251,0.804-0.025,1.113l-0.006,0.006
									c-0.896,1.001-1.754,2.029-2.508,3.09c-0.369,0.533-0.72,1.071-1.006,1.608c-0.139,0.267-0.272,0.536-0.363,0.785
									c-0.051,0.126-0.086,0.246-0.111,0.348c-0.013,0.053-0.023,0.1-0.024,0.131c-0.005,0.023,0.002,0.03,0.002,0.03
									s0.001,0.008,0.007-0.012c0.003-0.02,0.006,0.005,0.014-0.12c-0.027,0.828-0.72,1.477-1.548,1.451
									C165.495,252.526,164.845,251.833,164.872,251.005z"/>
							</g>
							<g>
								<path style="fill:#E3A5A2;" d="M168.723,252.941c0.26-0.559,0.476-0.868,0.736-1.255c0.251-0.368,0.518-0.708,0.791-1.042
									c0.549-0.662,1.141-1.267,1.753-1.837c0.613-0.571,1.258-1.093,1.915-1.59c0.659-0.495,1.341-0.949,2.03-1.385
									c0.399-0.253,0.928-0.134,1.181,0.265c0.232,0.366,0.152,0.841-0.171,1.112l-0.016,0.013
									c-0.588,0.497-1.163,1.004-1.703,1.539c-0.539,0.537-1.057,1.088-1.53,1.668c-0.472,0.579-0.914,1.176-1.296,1.792
									c-0.188,0.308-0.37,0.619-0.524,0.931c-0.148,0.288-0.316,0.674-0.359,0.846c-0.2,0.809-1.019,1.303-1.828,1.102
									c-0.809-0.2-1.303-1.019-1.103-1.828c0.023-0.093,0.055-0.183,0.093-0.267L168.723,252.941z"/>
							</g>
							<g>
								<path style="fill:#E3A5A2;" d="M169.618,254.801c0.592-0.703,1.163-1.321,1.762-1.955c0.596-0.626,1.201-1.24,1.819-1.839
									c1.235-1.199,2.514-2.347,3.832-3.443c0.364-0.302,0.904-0.252,1.206,0.111c0.279,0.335,0.255,0.824-0.035,1.135
									c-1.137,1.22-2.225,2.481-3.26,3.78c-0.518,0.648-1.02,1.309-1.51,1.975c-0.483,0.661-0.974,1.355-1.391,2.005l-0.007,0.012
									c-0.449,0.699-1.379,0.901-2.077,0.453c-0.699-0.449-0.901-1.379-0.453-2.078
									C169.538,254.904,169.58,254.848,169.618,254.801z"/>
							</g>
						</g>
						<path style="fill:#E3A5A2;" d="M170.259,259.68c-2.03,1.461-6.755-0.058-6.755-0.058c-1.528-4.224-0.812-6.789-0.016-8.328
							l5.137-2.718c0,0,2.153,1.554,2.157,1.557c0.937,0.677,1.875,1.498,2.304,2.603
							C173.67,254.241,172.175,258.302,170.259,259.68z"/>
						<g>
							<path style="fill:#E3A5A2;" d="M166.369,247.996c-0.328,0.374-0.685,0.919-0.902,1.427c-0.227,0.521-0.352,1.062-0.369,1.585
								c-0.014,0.524,0.047,1.035,0.242,1.524c0.159,0.492,0.458,0.955,0.764,1.407l0.042,0.062
								c0.467,0.688,0.287,1.625-0.401,2.092c-0.688,0.467-1.625,0.287-2.092-0.401c-0.039-0.057-0.077-0.124-0.107-0.184
								c-0.356-0.729-0.678-1.486-0.819-2.322c-0.175-0.818-0.154-1.692,0.007-2.506c0.162-0.819,0.483-1.584,0.907-2.252
								c0.44-0.677,0.908-1.23,1.574-1.778c0.377-0.31,0.934-0.256,1.244,0.121c0.279,0.339,0.263,0.824-0.018,1.144
								L166.369,247.996z"/>
						</g>
					</g>
				</g>
				<path style="fill:#64C1F2;" d="M107.046,258.309c1.526-6.571,5.265-9.126,11.442-9.137c2.543-0.005,5.086-0.02,7.629-0.031
					c0.228-0.001,0.459,0.012,0.683,0.054c3.28,0.607,5.369,3.18,5.346,6.016c-0.002,0.254,0.009,0.504,0.052,0.754
					c0.18,1.038,0.845,4.019,3.194,9.93c0.709,1.784,1.881,6.56-1.9,9.922c-0.832,0.74-1.352,1.763-1.377,2.876
					c-0.186,8.287,0.005,17.775,1.344,24.969c0.388,2.085-1.009,4.079-3.089,4.491c-8.894,1.759-17.674,2.202-25.417,0.816
					c-2.078-0.372-3.973-2.441-3.17-4.393C108.571,288.068,105.975,262.918,107.046,258.309z"/>
				<g>
					<path style="fill:#E3A5A2;" d="M116.319,250.341c0,0,5.89,5.493,7.307,4.612c0.802-0.499,1.115-4.672,1.115-4.672
						s-1.223-4.737,0.283-9.689c-1.003-2.213-7.049-2.668-8.772,0.309C117.058,245.212,116.319,250.341,116.319,250.341z"/>
					<g>
						<path style="fill:#946CFF;" d="M111.086,241.385c0,0,0.564,0.667-0.163,1.994c0,0,1.634-0.809,1.274-2.145L111.086,241.385z"
							/>
						<path style="fill:#946CFF;" d="M108.09,237.226c0,0-0.85,2.954,4.791,4.919l-4.113-7.97L108.09,237.226z"/>
						<path style="fill:#946CFF;" d="M110.075,240.186c0,0,0.138,1.501-2.157,1.648c0,0,1.724,0.649,2.881-0.604L110.075,240.186z"
							/>
					</g>
					<g>
						<path style="fill:#946CFF;" d="M129.84,223.491c0,0,4.896,8.801,0.284,14.308l-1.715-0.327L129.84,223.491z"/>
						<path style="fill:#E3A5A2;" d="M132.411,233.102c-0.443,1.811-1.62,3.079-2.63,2.833c-1.01-0.247-1.469-1.915-1.027-3.726
							c0.443-1.811,1.62-3.079,2.63-2.833C132.394,229.623,132.854,231.291,132.411,233.102z"/>
						<path style="fill:#946CFF;" d="M130.904,227.445c0,0,1.718,2.715,0.252,6.353c-1.466,3.638,0.771,4.271,0.771,4.271
							s-2.867,0.271-3.525-3.734C127.743,230.33,130.904,227.445,130.904,227.445z"/>
						<path style="fill:#FFB9B6;" d="M108.367,222.244c2.297-3.341,5.866-5.558,9.955-5.729c0.136-0.006,0.278-0.003,0.419-0.002
							c0.14-0.012,0.282-0.027,0.418-0.033c4.09-0.171,5.642-0.474,8.316,2.574c3.449,3.929,2.518,11.877,2.623,14.399
							c0.299,7.15-0.217,12.303-6.863,12.547c-6.957,0.256-14.176-4.201-14.901-11.609
							C108.089,231.878,106.934,224.327,108.367,222.244z"/>
						<path style="fill:#946CFF;" d="M123.778,212.995c-1.326-0.445-2.839-0.59-3.952-0.66c-3.91-0.246-8.205-0.152-11.452,2.203
							c-6.383,4.628-7.427,13.886-1.907,20.611c1.493,1.26,19.476-2.482,24.116-12.122c1.37-2.847-3.722-3.375-3.855-6.805
							C126.66,214.474,125.351,213.523,123.778,212.995z"/>
						<path style="fill:#946CFF;" d="M123.693,217.974c0,0-0.302,10.145,8.169,11.365c0,0,3.808-11.392-7.781-16.234
							L123.693,217.974z"/>
						<path style="fill:#FFB9B6;" d="M106.467,235.149c0.699,2.085,2.208,3.46,3.37,3.07c1.162-0.389,1.538-2.396,0.839-4.481
							c-0.699-2.085-2.208-3.46-3.37-3.07C106.144,231.057,105.768,233.064,106.467,235.149z"/>
						<path style="fill:#946CFF;" d="M113.143,231.877c-0.074,0.197,1.387,1.309,0.299,4.159c-1.088,2.85,1.455,3.827,1.455,3.827
							s-5.444,0.925-4.691-7.588L113.143,231.877z"/>
					</g>
				</g>
				<g>
					<g>
						<g>
							<path style="fill:#FFB9B6;" d="M119.903,257.659l26.165,9.794l-4.332,1.14l12.148-11.517l6.1-5.741
								c2.065-1.926,4.027-3.784,6.256-5.766c1.337-1.189,3.385-1.069,4.574,0.268c1.137,1.279,1.077,3.207-0.1,4.413l-0.094,0.096
								c-1.814,1.851-3.768,3.958-5.646,5.967l-5.676,6.12l-11.316,12.291c-1.008,1.095-2.475,1.517-3.834,1.243l-0.498-0.103
								l-27.372-5.6c-3.559-0.728-5.854-4.204-5.126-7.763c0.728-3.559,4.204-5.854,7.763-5.126
								C119.245,257.443,119.597,257.547,119.903,257.659z"/>
						</g>
						<g>
							<g>
								<path style="fill:#FFB9B6;" d="M176.938,242.126c-0.147,1.171-0.346,2.291-0.724,3.479c-0.208,0.596-0.41,1.194-0.852,1.857
									c-0.235,0.331-0.496,0.682-0.982,1.028c-0.179,0.168-0.59,0.326-0.908,0.44c-0.345,0.112-0.814,0.121-1.221,0.095
									c-1.112-0.222-1.833-1.303-1.611-2.415c0.222-1.112,1.303-1.833,2.415-1.611c-0.136-0.039-0.323,0.029-0.406,0.07
									c-0.068,0.006-0.186,0.145-0.152,0.132c-0.009,0.072,0.124,0.036,0.258-0.035c0.29-0.155,0.63-0.52,0.944-0.883
									c0.632-0.755,1.221-1.688,1.728-2.604l0.022-0.039c0.213-0.385,0.698-0.525,1.083-0.312
									C176.826,241.491,176.977,241.812,176.938,242.126z"/>
							</g>
							<path style="fill:#FFB9B6;" d="M173.634,248.996c-0.84,0.566-1.798,1.166-3.142,1.301c-0.985,0.099-3.51-1.442-3.898-2.498
								c-0.938-2.551-0.24-4.935,0.556-6.622c0.728-1.544,2.298-2.8,4.004-1.98c0.514,0.247,2.508,1.265,2.932,1.627
								c0.755,0.645,1.029,1.678,0.724,2.624C174.098,245.658,173.634,248.996,173.634,248.996z"/>
							<g>
								<path style="fill:#FFB9B6;" d="M172.215,242.714c-0.01-0.556,0.042-0.9,0.1-1.323c0.058-0.403,0.142-0.792,0.235-1.176
									c0.189-0.767,0.44-1.503,0.725-2.219c0.289-0.714,0.621-1.402,0.983-2.07c0.361-0.668,0.763-1.307,1.177-1.933
									c0.268-0.404,0.812-0.514,1.215-0.246c0.377,0.25,0.498,0.742,0.294,1.134l-0.013,0.024
									c-0.324,0.618-0.633,1.241-0.898,1.879c-0.266,0.637-0.499,1.282-0.689,1.935c-0.185,0.652-0.336,1.31-0.428,1.963
									c-0.044,0.326-0.08,0.652-0.092,0.969c-0.016,0.296-0.011,0.677,0.015,0.844c0.114,0.72-0.378,1.396-1.099,1.51
									c-0.72,0.114-1.397-0.378-1.51-1.099c-0.009-0.059-0.014-0.117-0.016-0.175L172.215,242.714z"/>
							</g>
							<g>
								<path style="fill:#FFB9B6;" d="M171.077,241.816c0.109-0.884,0.267-1.658,0.459-2.471c0.194-0.802,0.428-1.596,0.707-2.378
									c0.571-1.557,1.33-3.097,2.508-4.402c0.324-0.36,0.878-0.388,1.238-0.064c0.338,0.305,0.383,0.813,0.118,1.171l-0.021,0.028
									c-0.833,1.119-1.377,2.495-1.749,3.922c-0.181,0.717-0.324,1.447-0.431,2.184c-0.104,0.726-0.182,1.505-0.2,2.184
									l-0.001,0.023c-0.02,0.728-0.626,1.303-1.354,1.283c-0.728-0.02-1.303-0.626-1.283-1.354
									C171.068,241.9,171.072,241.857,171.077,241.816z"/>
							</g>
							<g>
								<path style="fill:#FFB9B6;" d="M169.5,239.899c0.247-0.94,0.542-1.63,0.872-2.397c0.33-0.742,0.695-1.458,1.08-2.159
									c0.775-1.397,1.638-2.729,2.568-4.001c0.286-0.391,0.835-0.477,1.226-0.191c0.368,0.268,0.462,0.774,0.236,1.158
									c-0.772,1.3-1.466,2.639-2.062,4.004c-0.294,0.684-0.567,1.374-0.799,2.068c-0.223,0.671-0.444,1.442-0.532,2.008
									l-0.008,0.048c-0.112,0.72-0.787,1.213-1.507,1.101c-0.72-0.112-1.213-0.787-1.101-1.507
									C169.48,239.987,169.489,239.942,169.5,239.899z"/>
							</g>
							<g>
								<path style="fill:#FFB9B6;" d="M167.256,241.303c0.061-0.633,0.168-1.014,0.293-1.483c0.122-0.447,0.273-0.874,0.428-1.296
									c0.32-0.839,0.702-1.635,1.117-2.407c0.409-0.775,0.876-1.507,1.352-2.229c0.483-0.716,0.997-1.405,1.526-2.079
									c0.299-0.381,0.85-0.448,1.231-0.15c0.36,0.282,0.44,0.788,0.197,1.165l-0.011,0.017c-0.444,0.683-0.87,1.373-1.261,2.079
									c-0.382,0.71-0.754,1.423-1.061,2.156c-0.313,0.73-0.59,1.47-0.8,2.214c-0.1,0.372-0.196,0.744-0.261,1.11
									c-0.068,0.342-0.121,0.784-0.117,0.983l0,0.017c0.016,0.729-0.562,1.332-1.291,1.348c-0.729,0.016-1.332-0.562-1.348-1.291
									C167.249,241.408,167.251,241.351,167.256,241.303z"/>
							</g>
						</g>
						<path style="fill:#64C1F2;" d="M128.611,274.616l6.469-11.814l-15.71-6.67l-11.708,1.022
							C107.662,257.154,103.839,271.19,128.611,274.616z"/>
					</g>
					<g>
						<g>
							<path style="fill:#258FB8;" d="M120.63,256.666c2.577,0.624,5.029,1.545,7.447,2.545c1.206,0.507,2.399,1.046,3.569,1.636
								c1.172,0.587,2.326,1.216,3.434,1.955c-1.301-0.284-2.555-0.677-3.791-1.113c-1.238-0.433-2.454-0.916-3.656-1.432
								C125.234,259.212,122.869,258.087,120.63,256.666z"/>
						</g>
						<g>
							<path style="fill:#258FB8;" d="M128.611,274.616c-3.919-0.029-7.821-1.043-11.385-2.744c-1.782-0.859-3.45-1.966-4.951-3.254
								c-1.511-1.287-2.731-2.884-3.703-4.57c1.302,1.464,2.665,2.812,4.209,3.945c1.552,1.112,3.17,2.126,4.902,2.938
								c1.724,0.822,3.509,1.524,5.333,2.132C124.847,273.65,126.703,274.197,128.611,274.616z"/>
						</g>
					</g>
				</g>
			</g>
			<g>
				<g>
					<rect x="172.932" y="291.734" style="fill:#FF8F5C;" width="112.906" height="112.906"/>
					<polygon style="fill:#FFB28F;" points="285.837,291.734 172.932,291.734 200.182,274.616 313.088,274.616 					"/>
					<polygon style="fill:#DE7C50;" points="313.088,274.616 313.088,387.522 285.837,404.64 285.837,291.734 					"/>
				</g>
				<g>
					<g>
						<circle style="fill:#FFC9B0;" cx="229.279" cy="346.416" r="5.041"/>
						
							<ellipse transform="matrix(0.1611 -0.9869 0.9869 0.1611 -149.5476 516.8945)" style="fill:none;stroke:#FFC9B0;stroke-width:6.9794;stroke-miterlimit:10;" cx="229.279" cy="346.416" rx="18.176" ry="18.176"/>
						<circle style="fill:none;stroke:#FFC9B0;stroke-width:6.9794;stroke-miterlimit:10;" cx="229.279" cy="346.416" r="32.404"/>
					</g>
					<g>
						<polygon style="fill:#FFC9B0;" points="240.139,343.603 231.194,345.486 233.548,337.012 						"/>
						
							<line style="fill:none;stroke:#FFC9B0;stroke-width:1.7449;stroke-miterlimit:10;" x1="268.231" y1="308.92" x2="235.667" y2="341.375"/>
						<polygon style="fill:#FFC9B0;" points="274.612,306.105 278.692,306.162 281.527,303.327 274.79,302.406 274.79,295.282 
							271.491,298.581 271.155,302.988 269.968,300.104 267.084,302.988 267.084,310.063 274.79,310.063 277.329,307.524 						"/>
					</g>
				</g>
			</g>
			<g>
				<g>
					<g>
						<g>
							<path style="fill:#E09399;" d="M370.187,303.587c0.156-0.015,0.04-0.014,0.026-0.011c-0.043,0.005-0.089,0.01-0.148,0.025
								c-0.107,0.02-0.235,0.06-0.36,0.102c-0.254,0.084-0.524,0.203-0.792,0.334c-0.538,0.266-1.078,0.59-1.607,0.944
								c-1.06,0.712-2.077,1.545-3.065,2.417l-0.006,0.006c-0.318,0.281-0.803,0.25-1.083-0.067c-0.256-0.29-0.253-0.719-0.01-1.005
								c0.886-1.042,1.814-2.061,2.859-3.008c0.524-0.473,1.077-0.928,1.69-1.35c0.308-0.21,0.627-0.414,0.987-0.597
								c0.181-0.092,0.363-0.182,0.576-0.262c0.1-0.041,0.215-0.08,0.334-0.116c0.148-0.036,0.197-0.069,0.521-0.098
								c0.742-0.021,1.36,0.563,1.382,1.304C371.513,302.947,370.929,303.565,370.187,303.587z"/>
						</g>
						<g>
							<path style="fill:#E09399;" d="M370.536,300.697c0.11,0.002,0.086-0.002,0.102-0.003c0.015-0.004,0.009-0.004,0.004-0.004
								c-0.008-0.002-0.015-0.005-0.04-0.002c-0.036,0-0.088,0.007-0.144,0.017c-0.111,0.02-0.237,0.047-0.37,0.09
								c-0.263,0.075-0.545,0.189-0.825,0.308c-0.564,0.248-1.132,0.558-1.694,0.886c-1.122,0.672-2.216,1.449-3.285,2.264
								l-0.005,0.004c-0.337,0.257-0.818,0.192-1.075-0.145c-0.235-0.308-0.201-0.736,0.064-1.004
								c0.974-0.988,1.986-1.95,3.093-2.848c0.561-0.444,1.138-0.877,1.775-1.274c0.323-0.196,0.651-0.388,1.025-0.559
								c0.182-0.088,0.38-0.167,0.597-0.242c0.107-0.037,0.221-0.072,0.352-0.103c0.058-0.016,0.136-0.03,0.212-0.043l0.131-0.018
								c0.058-0.004,0.077-0.012,0.229-0.008c0.741,0.04,1.309,0.674,1.269,1.415C371.91,300.169,371.277,300.737,370.536,300.697z"
								/>
						</g>
						<g>
							<path style="fill:#E09399;" d="M373.052,304.6c-0.196,0.037-0.591,0.174-0.897,0.302c-0.327,0.131-0.654,0.29-0.98,0.455
								c-0.65,0.336-1.284,0.732-1.902,1.159c-0.619,0.428-1.212,0.903-1.792,1.4c-0.579,0.499-1.131,1.033-1.674,1.581
								l-0.012,0.012c-0.298,0.301-0.783,0.303-1.084,0.005c-0.278-0.276-0.301-0.712-0.067-1.014
								c0.497-0.643,1.011-1.277,1.563-1.884c0.554-0.605,1.131-1.196,1.752-1.75c0.621-0.553,1.274-1.082,1.978-1.564
								c0.354-0.239,0.715-0.472,1.099-0.685c0.403-0.22,0.733-0.405,1.292-0.607l0.016-0.006c0.701-0.252,1.474,0.111,1.726,0.811
								c0.253,0.701-0.111,1.473-0.811,1.726C373.193,304.568,373.119,304.587,373.052,304.6z"/>
						</g>
						<g>
							<path style="fill:#E09399;" d="M375.532,305.349c-0.687,0.368-1.418,0.802-2.117,1.232c-0.704,0.435-1.404,0.884-2.093,1.349
								c-1.379,0.929-2.726,1.914-4.034,2.951c-0.331,0.265-0.813,0.211-1.078-0.119c-0.246-0.307-0.214-0.749,0.057-1.022
								c1.212-1.209,2.471-2.372,3.777-3.488c0.652-0.559,1.318-1.102,1.995-1.636c0.684-0.536,1.353-1.047,2.101-1.566
								c0.611-0.424,1.45-0.272,1.874,0.338c0.424,0.611,0.272,1.45-0.338,1.874c-0.042,0.029-0.086,0.056-0.131,0.08
								L375.532,305.349z"/>
						</g>
					</g>
					<path style="fill:#E09399;" d="M378.874,303.943c1.631-1.896,0.528-6.735,0.528-6.735c-4.075-1.888-6.693-1.397-8.295-0.739
						l-3.154,4.882c0,0,1.361,2.28,1.364,2.284c0.593,0.992,1.33,1.998,2.394,2.521
						C373.159,306.869,377.335,305.732,378.874,303.943z"/>
					<g>
						<path style="fill:#E09399;" d="M366.177,297.675c0.628-0.654,1.22-1.084,1.955-1.488c0.72-0.385,1.539-0.659,2.404-0.763
							c0.86-0.103,1.775-0.055,2.613,0.192c0.86,0.214,1.62,0.607,2.347,1.033c0.884,0.519,1.181,1.656,0.662,2.54
							c-0.519,0.884-1.656,1.181-2.54,0.662c-0.094-0.055-0.181-0.117-0.261-0.185l-0.057-0.049
							c-0.391-0.335-0.793-0.668-1.23-0.867c-0.432-0.236-0.893-0.347-1.382-0.392c-0.488-0.042-1.009,0.015-1.529,0.175
							c-0.502,0.147-1.075,0.444-1.452,0.701l-0.135,0.092c-0.496,0.337-1.171,0.209-1.509-0.287
							C365.769,298.607,365.829,298.038,366.177,297.675z"/>
					</g>
				</g>
				<g>
					<rect x="295.942" y="300.09" style="fill:#FFC15C;" width="71.991" height="71.991"/>
					<g>
						<path style="fill:#FFE1B0;" d="M331.916,340.367l18.074-19.76c-0.411-0.171-0.861-0.269-1.334-0.269h-33.435
							c-0.708,0-1.332,0.263-1.883,0.627L331.916,340.367z"/>
						<path style="fill:#FFE1B0;" d="M351.917,322.681l-10.99,12.01l11.222,11.353v-22.211
							C352.15,323.424,352.047,323.046,351.917,322.681z"/>
						<path style="fill:#FFE1B0;" d="M322.619,334.738l-10.815-11.296c-0.016,0.134-0.079,0.253-0.079,0.391v22.525L322.619,334.738
							z"/>
						<path style="fill:#FFE1B0;" d="M339.022,336.775l-7.063,7.719l-7.385-7.714l-12.381,13.204
							c0.593,1.085,1.705,1.849,3.027,1.849h33.435c1.427,0,2.645-0.861,3.189-2.088L339.022,336.775z"/>
					</g>
					<polygon style="fill:#FFD48F;" points="367.933,300.09 295.942,300.09 313.317,289.175 385.308,289.175 					"/>
					<polygon style="fill:#DEA850;" points="385.308,289.175 385.308,361.166 367.933,372.081 367.933,300.09 					"/>
				</g>
				<g>
					<path style="fill:#FFA7AE;" d="M412.28,319.211c-5.488,2.078-12.176,3.522-18.452,3.284c0.531,12.105,0.498,24.077,2.518,36.46
						c2.276,13.951,8.769,26.64,11.212,40.564l6.291-0.244c-4.251-18.096,0.049-35.627-6.884-47.695
						C409.472,343.625,411.342,331.804,412.28,319.211z"/>
					<path style="fill:#00619F;" d="M407.279,398.025l-4.412,1.886c-3.098,0.696-5.448,1.397-7.158,1.963
						c-1.105,0.366-1.811,1.293-1.241,2.139c0.21,0.312,0.526,0.517,0.937,0.578l17.375-0.024c0.728,0.001,1.318-0.484,1.32-1.083
						l0.004-0.937l0.005,0.001v-4.521H407.279z"/>
				</g>
				<g>
					<path style="fill:#FFA7AE;" d="M403.868,304.667c-4.086,21.434-14.043,39.314-22.671,45.572
						c2.158,13.41-3.736,21.63-11.6,48.195l-5.876,0.527c0.34-4.206,0.923-12.325,1.376-16.466
						c2.995-27.373,8.12-54.248,16.388-80.531c0.657-2.032,1.292-3.993,2.022-6.104L403.868,304.667z"/>
					<path style="fill:#00619F;" d="M363.721,398.025l-4.158,1.886c-3.098,0.696-5.448,1.397-7.158,1.963
						c-1.105,0.366-1.811,1.293-1.241,2.139c0.21,0.312,0.526,0.517,0.937,0.578l17.375-0.024c0.728,0.001,1.319-0.484,1.32-1.083
						l0.003-0.937l0.005,0.001v-4.521H363.721z"/>
				</g>
				<path style="fill:#3B81E3;" d="M378.645,300.735c0,0-8.614,10.234-7.842,35.871c7.18,6.193,26.553,8.553,39.123,3.535
					c3.81-9.61,9.522-27.137-0.38-37.897L378.645,300.735z"/>
				<g>
					<g>
						<path style="fill:#E09399;" d="M392.767,255.295l17.975,23.969l0.128,0.171c1.554,2.072,1.134,5.011-0.938,6.565
							c-0.141,0.106-0.291,0.205-0.439,0.292l-26.267,15.42c-2.235,1.312-5.111,0.564-6.423-1.671
							c-1.312-2.235-0.564-5.111,1.671-6.423l26.267-15.42l-1.249,7.028l-20.042-22.27c-2.23-2.478-2.029-6.295,0.449-8.526
							c2.478-2.23,6.295-2.029,8.526,0.449C392.543,255.011,392.661,255.156,392.767,255.295z"/>
					</g>
					<path style="fill:#E03264;" d="M385.301,252.46c0,0,10.319-2.153,21.454,16.063l-12.338,8.901L385.301,252.46z"/>
				</g>
				<g>
					<path style="fill:#FF3972;" d="M372.52,256.277c-7.12,2.949-8.309,5.172-6.308,11.488c0,0,1.388,7.823,4.542,15.451
						c1.258,3.043,6.915,6.227,6.58,8.608c-0.997,7.084-3.334,13.535-2.846,17.085c0,0,24.267,15.228,39.698,0.877
						c-4.016-12.347-6.601-26.646-10.319-36.372c-4.868-12.733-10.316-16.667-10.316-16.667
						C388.979,247.367,372.52,256.277,372.52,256.277z"/>
				</g>
				<g>
					<path style="fill:#FFA7AE;" d="M335.095,321.999l-3.972-5.142c-0.359-0.464-0.273-1.131,0.191-1.49l5.098-3.938
						c0.464-0.359,3.664-1.826,4.022-1.362l2.906,4.847l-6.756,7.276C336.121,322.549,335.454,322.463,335.095,321.999z"/>
					<g>
						<path style="fill:#FFA7AE;" d="M372.891,276.06c0.055-0.12,0.021-0.058,0.012-0.047c-0.01,0.011-0.029,0.047-0.05,0.088
							l-0.125,0.245c-0.089,0.18-0.18,0.375-0.273,0.586c-0.184,0.41-0.371,0.852-0.552,1.303c-0.367,0.897-0.717,1.846-1.06,2.799
							c-0.683,1.915-1.329,3.883-1.947,5.873c-0.616,1.992-1.205,4.004-1.775,6.029l-0.84,3.047l-0.864,3.249
							c-0.109,0.393-0.257,0.818-0.382,1.061c-0.132,0.283-0.282,0.583-0.407,0.774c-0.274,0.463-0.527,0.79-0.788,1.132
							c-0.501,0.607-0.993,1.126-1.468,1.572c-0.956,0.907-1.889,1.65-2.827,2.356c-1.874,1.398-3.759,2.612-5.672,3.769
							c-3.846,2.282-7.714,4.331-11.987,6.018l-2.521-5.685c3.51-1.841,7.003-4.187,10.26-6.639
							c1.623-1.237,3.205-2.525,4.624-3.848c0.704-0.658,1.371-1.334,1.898-1.965c0.273-0.317,0.476-0.611,0.628-0.848
							c0.045-0.096,0.105-0.201,0.086-0.208c0.02-0.034-0.03,0.018-0.05,0.059c0,0-0.088,0.169-0.12,0.307l0.442-3.022l0.506-3.216
							c0.349-2.146,0.723-4.294,1.13-6.449c0.41-2.156,0.856-4.317,1.367-6.502c0.259-1.095,0.527-2.191,0.843-3.317
							c0.155-0.562,0.32-1.128,0.507-1.72c0.09-0.29,0.19-0.593,0.3-0.909l0.18-0.495l0.109-0.28c0.046-0.11,0.065-0.17,0.179-0.411
							L372.891,276.06z"/>
					</g>
					<path style="fill:#FF3972;" d="M373.814,276.714c1.026,9.008-2.511,17.125-2.511,17.125l-15.001-12.007
						c3.318-12.374,6.439-22.734,15.72-24.698C371.97,257.136,373.767,276.306,373.814,276.714z"/>
					<g>
						<path style="fill:#FFA7AE;" d="M330.949,308.636c0.801-0.155,1.442-0.173,2.2-0.098c0.734,0.087,1.511,0.301,2.233,0.743
							c0.687,0.409,1.19,0.823,1.688,1.256c0.488,0.427,0.941,0.873,1.358,1.274c0.739,0.71,0.762,1.885,0.052,2.624
							c-0.71,0.739-1.885,0.762-2.624,0.052c-0.09-0.087-0.176-0.189-0.245-0.289c-0.339-0.494-0.642-0.945-0.961-1.368
							c-0.311-0.412-0.651-0.825-0.935-1.075c-0.25-0.221-0.605-0.396-1.024-0.508c-0.398-0.111-0.943-0.152-1.302-0.139
							l-0.155,0.006c-0.69,0.026-1.271-0.513-1.297-1.203C329.913,309.286,330.353,308.751,330.949,308.636z"/>
					</g>
					<g>
						<path style="fill:#FFA7AE;" d="M325.263,317.585c0.407,0.073,1.074,0.063,1.621-0.037c0.575-0.098,1.144-0.278,1.695-0.503
							c0.554-0.216,1.085-0.516,1.604-0.822c0.517-0.319,1.012-0.679,1.495-1.055l0.013-0.01c0.587-0.457,1.434-0.352,1.892,0.236
							c0.457,0.587,0.352,1.434-0.236,1.892c-0.051,0.04-0.111,0.079-0.165,0.11c-0.621,0.351-1.254,0.679-1.915,0.961
							c-0.668,0.27-1.342,0.525-2.055,0.689c-0.707,0.171-1.434,0.287-2.177,0.3c-0.764-0.003-1.445-0.035-2.306-0.348
							c-0.388-0.141-0.588-0.57-0.447-0.958c0.126-0.347,0.483-0.544,0.834-0.48L325.263,317.585z"/>
					</g>
					<g>
						<path style="fill:#FFA7AE;" d="M327.347,318.533c0.305,0.154,0.849,0.308,1.307,0.325c0.481,0.03,0.969-0.033,1.445-0.155
							c0.478-0.113,0.944-0.329,1.396-0.553c0.225-0.121,0.445-0.263,0.665-0.39l0.64-0.453l0.061-0.043
							c0.609-0.431,1.453-0.286,1.883,0.323c0.431,0.609,0.286,1.453-0.323,1.883c-0.061,0.043-0.132,0.084-0.197,0.116
							l-0.888,0.425c-0.312,0.119-0.616,0.246-0.932,0.352c-0.642,0.195-1.295,0.367-1.983,0.413
							c-0.683,0.054-1.382,0.023-2.062-0.139c-0.694-0.179-1.296-0.402-1.955-0.924c-0.323-0.256-0.378-0.725-0.122-1.049
							c0.224-0.283,0.611-0.36,0.921-0.203L327.347,318.533z"/>
					</g>
					<g>
						<path style="fill:#FFA7AE;" d="M327.667,319.305c0.45,0.176,1.015,0.332,1.534,0.416c0.53,0.087,1.059,0.114,1.567,0.081
							c0.51-0.025,0.994-0.142,1.44-0.305c0.454-0.147,0.842-0.419,1.215-0.681l0.067-0.047c0.61-0.429,1.452-0.281,1.88,0.329
							c0.428,0.61,0.281,1.452-0.329,1.881c-0.054,0.038-0.116,0.074-0.173,0.103c-0.658,0.328-1.34,0.617-2.056,0.731
							c-0.707,0.129-1.42,0.165-2.102,0.087c-0.683-0.07-1.34-0.22-1.965-0.433c-0.633-0.222-1.198-0.471-1.808-0.841
							c-0.356-0.216-0.47-0.679-0.254-1.035c0.193-0.319,0.584-0.443,0.919-0.311L327.667,319.305z"/>
					</g>
					<g>
						<path style="fill:#FFA7AE;" d="M328.869,320.524c0.534,0.233,1.182,0.43,1.783,0.549c0.611,0.12,1.222,0.168,1.798,0.131
							c0.574-0.051,1.1-0.201,1.553-0.43c0.459-0.224,0.808-0.594,1.135-0.973l0.061-0.071c0.487-0.564,1.338-0.626,1.902-0.139
							c0.563,0.487,0.626,1.338,0.139,1.901c-0.034,0.04-0.076,0.082-0.114,0.117c-0.645,0.586-1.379,1.108-2.216,1.379
							c-0.825,0.276-1.675,0.364-2.477,0.314c-0.801-0.064-1.556-0.243-2.269-0.493c-0.72-0.259-1.366-0.554-2.043-0.975
							c-0.354-0.22-0.462-0.685-0.243-1.039c0.2-0.322,0.604-0.441,0.942-0.294L328.869,320.524z"/>
					</g>
				</g>
				<g>
					<path style="fill:#FFA7AE;" d="M359.947,238.131l-1.35,5.422c-0.184,0.74,0.334,1.471,1.094,1.541l2.498,0.232L359.947,238.131
						z"/>
					<path style="fill:#FFA7AE;" d="M377.637,249.012l1.181,6.192c0,0-0.218,1.795-3.416,2.405
						c-2.009,0.383-3.778-0.058-4.045-0.981l-1.199-6.189L377.637,249.012z"/>
					<path style="fill:#D68C92;" d="M370.951,254.331l-0.403-2.113l7.478-1.427l0.403,2.113c0,0-0.965,0.924-3.604,1.428
						C372.187,254.835,370.951,254.331,370.951,254.331"/>
					<path style="fill:#FFA7AE;" d="M378.527,223.987l3.473,17.416c-3.24,4.618-7.458,7.864-12.016,11.408
						c-0.33,0.257-2.361,0.573-2.889,0.569c-1.193-0.01-2.736,0.1-3.503-0.697c-3.005-3.122-3.096-8.77-3.94-12.842
						c-0.814-3.929-1.626-7.859-2.488-11.778C357.104,221.534,378.527,223.987,378.527,223.987z"/>
					<path style="fill:#4B0F03;" d="M361.749,235.989c0,0,5.375,4.797,1.009,6.392c0.331,4.986,3.618,9.478,7.791,9.836
						c4.344,0.017,6.931-0.744,10.743-2.718c5.169-2.677,6.738-7.258,6.184-13.889c-0.357-4.281-2.114-8.548-4.085-12.234
						c-4.103-7.673-12.859-8.867-20.909-3.95c-7.023,4.29-6.911,11.175-6.911,11.175S356.502,237.074,361.749,235.989z"/>
					<path style="fill:#FFA7AE;" d="M361.053,239.292c-0.347-1.82,0.228-3.458,1.284-3.66c1.056-0.201,2.194,1.11,2.541,2.93
						c0.347,1.82-0.228,3.458-1.284,3.66C362.538,242.423,361.4,241.112,361.053,239.292z"/>
				</g>
				<ellipse style="fill:#4B0F03;" cx="376.975" cy="215.397" rx="9.402" ry="8.094"/>
			</g>
			<g>
				<g>
					<rect x="162.606" y="211.312" style="fill:#5CB4FF;" width="75.595" height="75.595"/>
					<polygon style="fill:#8FCCFF;" points="238.201,211.312 162.606,211.312 180.851,199.85 256.446,199.85 					"/>
					<polygon style="fill:#509EDE;" points="256.446,199.85 256.446,275.446 238.201,286.907 238.201,211.312 					"/>
				</g>
				<g>
					<g>
						<g>
							<g>
								<g id="XMLID_59_">
									<g id="XMLID_60_">
										<g id="XMLID_67_">
											<g id="XMLID_68_">
												<polygon style="fill:#5CB4FF;" points="182.748,258.765 214.565,226.845 224.726,224.188 222.225,234.172 
													190.248,266.25 												"/>
												<path style="fill:#B0DBFF;" d="M224.035,224.885l-2.262,9.031l-31.526,31.626l-6.793-6.779l31.369-31.469
													L224.035,224.885 M225.415,223.491l-11.108,2.905l-32.267,32.37l8.208,8.192l32.427-32.53L225.415,223.491
													L225.415,223.491z"/>
											</g>
										</g>
										<g id="XMLID_65_">
											<path id="XMLID_66_" style="fill:#B0DBFF;" d="M214.307,226.396l-32.905,33.009l8.208,8.192l32.906-33.01
												c-0.632-0.539-3.217-0.041-3.867-0.624c-0.79-0.706,0.029-2.827-0.716-3.554c-0.715-0.697-2.88,0.289-3.531-0.431
												C213.697,229.199,214.789,227.086,214.307,226.396z"/>
										</g>
										<g id="XMLID_63_">
											<polygon style="fill:#B0DBFF;" points="219.841,224.974 225.415,223.491 224.079,228.926 											"/>
										</g>
									</g>
								</g>
								<path style="fill:#B0DBFF;" d="M181.617,272.848c-1.646-1.643-4.568-4.559-5.741-5.73c-1.173-1.171,0.154-2.33,0.154-2.33
									l2.173-2.177l8.208,8.192l-2.333,2.337C184.078,273.14,183.263,274.491,181.617,272.848z"/>
								
									<rect x="181.168" y="259.318" transform="matrix(0.7064 -0.7078 0.7078 0.7064 -133.6635 208.0087)" style="fill:#B0DBFF;" width="5.45" height="11.597"/>
								
									<rect x="184.296" y="258.42" transform="matrix(0.7065 -0.7078 0.7078 0.7065 -132.7589 208.3482)" style="fill:#5CB4FF;" width="0.989" height="11.597"/>
								
									<rect x="182.619" y="260.073" transform="matrix(0.7064 -0.7078 0.7078 0.7064 -134.4178 207.6947)" style="fill:#5CB4FF;" width="1.044" height="11.597"/>
							</g>
						</g>
					</g>
				</g>
			</g>
			<g>
				<g>
					<g>
						<path style="fill:#FFB9B6;" d="M302.662,249.117l-17.188,22.564l-0.242,0.318c-0.93,1.221-2.408,1.812-3.832,1.704
							l-16.894-1.404l-8.44-0.67l-4.208-0.315l-2.086-0.143l-1.985-0.113l-0.173-0.01c-2.295-0.131-4.049-2.098-3.918-4.392
							c0.129-2.259,2.042-3.993,4.29-3.922l1.165,0.038l1.087,0.051l2.149,0.112l4.258,0.248l8.485,0.533l16.949,1.128l-4.074,2.022
							l13.465-24.965c1.751-3.246,5.802-4.459,9.049-2.708c3.247,1.751,4.459,5.802,2.708,9.049
							C303.066,248.54,302.861,248.853,302.662,249.117z"/>
					</g>
					<g>
						<g>
							<path style="fill:#FFB9B6;" d="M239.796,258.929c0.688-0.052,1.247-0.002,1.876,0.156c0.611,0.157,1.227,0.426,1.78,0.822
								c0.547,0.393,1.068,0.888,1.451,1.456c0.411,0.563,0.699,1.173,0.951,1.797l0.062,0.154c0.444,1.104-0.09,2.359-1.194,2.803
								c-1.104,0.444-2.359-0.09-2.803-1.194c-0.123-0.306-0.17-0.634-0.151-0.943c0.022-0.349,0.039-0.71-0.016-1.036
								c-0.035-0.345-0.148-0.647-0.302-0.962c-0.157-0.311-0.394-0.598-0.695-0.852c-0.283-0.253-0.705-0.47-1.015-0.603
								l-0.196-0.085c-0.401-0.173-0.586-0.637-0.413-1.038C239.25,259.126,239.513,258.951,239.796,258.929z"/>
						</g>
						<path style="fill:#FFB9B6;" d="M244.618,261.474c1,0.237,2.107,0.541,3.133,1.451c0.751,0.667,1.337,3.613,0.816,4.629
							c-1.259,2.455-3.521,3.574-5.327,4.14c-1.455,0.456-3.488,0.595-4.352,0.765c-0.408,0.08-0.512-0.478-0.504-0.894
							l-0.245-6.617C240.065,264.631,244.618,261.474,244.618,261.474z"/>
						<g>
							<path style="fill:#FFB9B6;" d="M240.109,267.078c-0.206,0.045-0.231,0.039-0.318,0.049l-0.201,0.011
								c-0.127,0.005-0.239,0.002-0.35-0.002c-0.22-0.009-0.429-0.024-0.63-0.049c-0.405-0.043-0.786-0.111-1.165-0.182
								c-0.752-0.148-1.475-0.335-2.191-0.533c-1.425-0.408-2.806-0.885-4.171-1.393c-0.461-0.172-0.696-0.684-0.524-1.145
								c0.16-0.431,0.618-0.664,1.053-0.553l0.009,0.002c1.376,0.355,2.757,0.676,4.132,0.919c0.686,0.115,1.372,0.218,2.042,0.278
								c0.333,0.027,0.665,0.05,0.977,0.05c0.158,0.003,0.308-0.003,0.447-0.012c0.068-0.005,0.136-0.011,0.188-0.02
								c0.032-0.003,0.052-0.008,0.068-0.013c0,0,0.066-0.019-0.051,0.007c0.714-0.189,1.446,0.237,1.634,0.951
								C241.249,266.158,240.823,266.889,240.109,267.078z"/>
						</g>
						<g>
							<path style="fill:#FFB9B6;" d="M240.987,268.345c-0.32,0.214-0.398,0.219-0.568,0.293c-0.142,0.051-0.284,0.097-0.412,0.125
								c-0.268,0.07-0.511,0.103-0.753,0.128c-0.485,0.053-0.933,0.037-1.374,0.008c-0.877-0.068-1.699-0.237-2.498-0.442
								c-1.59-0.427-3.074-1.026-4.517-1.683c-0.447-0.204-0.645-0.732-0.441-1.179c0.191-0.42,0.668-0.62,1.096-0.474l0.015,0.005
								c1.431,0.492,2.882,0.916,4.319,1.155c0.716,0.112,1.43,0.183,2.101,0.168c0.332-0.01,0.661-0.033,0.943-0.096
								c0.14-0.029,0.28-0.063,0.383-0.106c0.061-0.019,0.099-0.041,0.138-0.06c0.009,0,0.107-0.077-0.051,0.03
								c0.587-0.448,1.426-0.334,1.874,0.253C241.688,267.058,241.574,267.897,240.987,268.345z"/>
						</g>
						<g>
							<path style="fill:#FFB9B6;" d="M240.518,270.899c-0.19,0.079-0.195,0.068-0.274,0.093c-0.073,0.02-0.103,0.022-0.155,0.033
								c-0.099,0.019-0.182,0.028-0.256,0.034c-0.163,0.018-0.293,0.015-0.432,0.016c-0.265-0.006-0.512-0.026-0.744-0.058
								c-0.472-0.06-0.901-0.16-1.327-0.266c-0.842-0.221-1.629-0.509-2.406-0.808c-1.541-0.616-3.007-1.332-4.444-2.085
								c-0.436-0.228-0.603-0.767-0.375-1.202c0.215-0.41,0.704-0.582,1.123-0.411l0.01,0.004c1.459,0.6,2.932,1.153,4.41,1.589
								c0.738,0.207,1.478,0.4,2.199,0.518c0.357,0.053,0.714,0.101,1.039,0.109c0.165,0.008,0.318,0.003,0.452-0.007
								c0.06-0.008,0.131-0.013,0.165-0.025c0.026-0.004,0.04-0.012,0.04-0.012s0.017-0.004-0.009,0
								c-0.031,0.01,0.012-0.012-0.131,0.047c0.671-0.307,1.465-0.012,1.772,0.659C241.484,269.798,241.189,270.592,240.518,270.899
								z"/>
						</g>
						<g>
							<path style="fill:#FFB9B6;" d="M243.256,271.532c-0.228,0.178-0.329,0.227-0.48,0.317c-0.142,0.083-0.276,0.14-0.415,0.209
								c-0.274,0.118-0.548,0.223-0.821,0.3c-0.548,0.168-1.095,0.252-1.636,0.304c-1.083,0.091-2.135-0.017-3.133-0.231
								c-1.008-0.197-1.951-0.538-2.875-0.899l-1.341-0.618l-1.289-0.692c-0.432-0.232-0.595-0.771-0.362-1.203
								c0.221-0.41,0.717-0.577,1.137-0.395l0.055,0.024l1.241,0.544l1.259,0.463c0.848,0.254,1.699,0.488,2.549,0.581
								c0.846,0.114,1.69,0.125,2.473-0.007c0.388-0.071,0.768-0.16,1.108-0.3c0.174-0.064,0.333-0.143,0.484-0.223
								c0.067-0.044,0.148-0.083,0.203-0.126c0.049-0.031,0.146-0.109,0.102-0.078c0.56-0.481,1.405-0.417,1.885,0.144
								C243.881,270.207,243.816,271.052,243.256,271.532z"/>
						</g>
					</g>
					<path style="fill:#70EAE2;" d="M296.138,260.681l-12.837-4.713l7.557-15.593l14.661-8.714
						C305.519,231.661,312.791,241.515,296.138,260.681z"/>
				</g>
				<g>
					<g>
						<path style="fill:#45C4BC;" d="M290.252,241.625c-0.763,2.582-1.82,5.022-2.957,7.423c-0.575,1.198-1.181,2.379-1.839,3.537
							c-0.655,1.159-1.351,2.297-2.156,3.383c0.354-1.304,0.816-2.556,1.32-3.788c0.501-1.233,1.053-2.442,1.637-3.635
							C287.439,246.165,288.699,243.824,290.252,241.625z"/>
					</g>
					<g>
						<path style="fill:#45C4BC;" d="M296.138,260.681c2.35-3.377,4.59-6.757,6.556-10.295c0.968-1.775,1.836-3.596,2.614-5.461
							c0.729-1.884,1.321-3.813,1.758-5.831c0.031,2.062-0.334,4.131-0.92,6.125c-0.623,1.983-1.466,3.89-2.438,5.72
							c-1,1.816-2.131,3.553-3.392,5.189C299.056,257.761,297.689,259.318,296.138,260.681z"/>
					</g>
				</g>
			</g>
			<g>
				<g>
					<rect x="148.4" y="358.701" style="fill:#965CFF;" width="54.445" height="54.445"/>
					<polygon style="fill:#B78FFF;" points="202.846,358.701 148.4,358.701 161.541,350.446 215.986,350.446 					"/>
					<polygon style="fill:#8250DE;" points="215.986,350.446 215.986,404.891 202.846,413.146 202.846,358.701 					"/>
				</g>
				<path style="fill:#CCB0FF;" d="M195.859,377.436l0.029-0.012c-0.026-0.077-0.075-0.144-0.105-0.219
					c-0.03-0.075-0.041-0.157-0.075-0.231l-0.029,0.012c-0.524-1.123-1.508-2.016-2.73-2.285c-1.603-0.352-3.091,0.233-4.029,1.311
					c-0.485,0.557-1.63,1.22-2.448,1.651c-0.485,0.256-1.081,0.031-1.285-0.478l-2.245-5.603c-0.488-1.219-1.872-1.811-3.091-1.322
					l-5.906,2.367c-0.576,0.231-0.857,0.885-0.628,1.462l0,0c0.447,1.123,1.055,2.21,1.967,3.004
					c1.078,0.938,1.663,2.426,1.311,4.029c-0.268,1.222-1.162,2.206-2.285,2.73l0.012,0.029c-0.074,0.035-0.155,0.045-0.231,0.075
					c-0.075,0.03-0.142,0.079-0.219,0.105l-0.012-0.029c-1.175,0.394-2.501,0.297-3.537-0.404c-1.311-0.886-1.917-2.295-1.838-3.67
					c0.051-0.876-0.595-2.86-0.975-3.943c-0.144-0.408-0.596-0.604-0.997-0.441l-5.885,2.391c-1.212,0.492-1.798,1.872-1.312,3.086
					l7.699,19.212c0.488,1.219,1.872,1.811,3.091,1.322l19.212-7.699c1.219-0.488,1.811-1.872,1.322-3.091l-2.514-6.274
					c-0.204-0.51,0.072-1.085,0.601-1.234c0.889-0.25,2.171-0.558,2.905-0.488c1.423,0.135,2.904-0.466,3.823-1.826
					C196.156,379.937,196.253,378.611,195.859,377.436z"/>
			</g>
		</g>
	</g>
</g>
<g id="DESIGNED_BY_FREEPIK">
	<g>
		<g id="XMLID_1_">
			<g id="XMLID_20_">
				<path id="XMLID_28_" style="fill:#1D262D;" d="M260.104,465.465c-0.432,0.443-0.803,0.931-1.108,1.453l-0.465-0.241
					c-0.067-0.298-0.349-0.503-0.659-0.466c-0.331,0.039-0.568,0.339-0.529,0.67c0.039,0.331,0.339,0.568,0.67,0.529
					c0.066-0.008,0.127-0.026,0.184-0.052l0.451,0.234c-0.251,0.554-0.433,1.139-0.539,1.744l0.747,0.132
					c0.23-1.306,0.85-2.507,1.792-3.473L260.104,465.465z"/>
				<path id="XMLID_27_" style="fill:#1D262D;" d="M265.592,463.163c-0.171,0-0.341,0.006-0.51,0.017l-0.074-0.626
					c0.188-0.149,0.296-0.389,0.266-0.645c-0.046-0.393-0.402-0.674-0.795-0.628c-0.393,0.046-0.674,0.402-0.628,0.795
					c0.03,0.254,0.189,0.461,0.404,0.564l0.074,0.624c-0.714,0.116-1.403,0.332-2.06,0.646l0.327,0.684
					c0.934-0.447,1.942-0.673,2.995-0.673c0.496,0,0.993,0.053,1.475,0.158l0.161-0.741
					C266.692,463.222,266.142,463.163,265.592,463.163z"/>
				<path id="XMLID_26_" style="fill:#1D262D;" d="M272.194,465.711c0.331-0.04,0.566-0.341,0.526-0.672
					c-0.04-0.331-0.341-0.566-0.672-0.526c-0.309,0.038-0.535,0.304-0.53,0.609l-0.416,0.363c-0.418-0.43-0.889-0.813-1.408-1.139
					l-0.404,0.641c1.134,0.715,2.021,1.726,2.563,2.925l0.69-0.313c-0.251-0.554-0.567-1.072-0.942-1.545l0.402-0.351
					C272.065,465.716,272.129,465.719,272.194,465.711z"/>
				<path id="XMLID_25_" style="fill:#1D262D;" d="M265.044,473.372c-0.386,0.023-0.775,0.035-1.157,0.035
					c-0.88,0-1.733-0.061-2.478-0.179c-0.39-0.062-0.846-0.155-1.27-0.292c1.046,1.861,3.069,3.125,5.388,3.125
					c2.855,0,5.262-1.916,5.95-4.504c-0.682,0.449-1.505,0.825-2.459,1.123C267.839,473.047,266.463,473.286,265.044,473.372z"/>
				<path id="XMLID_21_" style="fill:#1D262D;" d="M265.592,464.68c-3.352,0-6.08,2.666-6.08,5.943c0,0.426,0.046,0.849,0.137,1.261
					c0.673,0.483,2.706,0.89,5.348,0.731c2.879-0.173,5.297-0.957,6.672-2.159c-0.006-0.195-0.021-0.39-0.045-0.582
					C271.244,466.913,268.65,464.68,265.592,464.68z M263.432,471.194c-1.02,0-1.85-0.83-1.85-1.85c0-1.02,0.83-1.85,1.85-1.85
					c1.02,0,1.85,0.83,1.85,1.85C265.282,470.365,264.452,471.194,263.432,471.194z M268.17,470.286c-0.75,0-1.36-0.61-1.36-1.36
					s0.61-1.361,1.36-1.361c0.75,0,1.361,0.61,1.361,1.361S268.92,470.286,268.17,470.286z"/>
			</g>
			<path id="XMLID_18_" style="fill:#1D262D;" d="M281.595,466.547c-0.295-0.116-0.805-0.309-1.382-0.237
				c-0.551,0.069-0.844,0.341-0.844,1.007v0.866h2.228v1.717h-2.228v5.455h-1.932v-5.455h-1.34v-1.717h1.34v-0.888
				c0-1.68,0.896-2.783,2.568-2.783c0.643,0,1.157,0.122,1.59,0.308L281.595,466.547z"/>
			<path id="XMLID_16_" style="fill:#1D262D;" d="M286.298,469.879c-0.177-0.03-0.358-0.046-0.526-0.046
				c-0.896,0-1.51,0.548-1.51,1.614v3.908h-1.932v-7.172h1.873v0.785c0.451-0.673,1.14-0.977,2.021-0.977
				c0.414,0,0.848,0.128,1.094,0.337L286.298,469.879z"/>
			<path id="XMLID_13_" style="fill:#1D262D;" d="M293.965,471.757c0,0.222-0.015,0.489-0.037,0.651h-5.085
				c0.207,1.036,0.933,1.488,1.843,1.488c0.622,0,1.295-0.252,1.813-0.688l1.133,1.243c-0.814,0.748-1.85,1.088-3.057,1.088
				c-2.198,0-3.723-1.495-3.723-3.753c0-2.258,1.48-3.797,3.627-3.797C292.544,467.99,293.958,469.522,293.965,471.757z
				 M288.851,471.091h3.175c-0.177-0.918-0.733-1.436-1.562-1.436C289.554,469.655,289.021,470.203,288.851,471.091z"/>
			<path id="XMLID_10_" style="fill:#1D262D;" d="M301.618,471.757c0,0.222-0.015,0.489-0.037,0.651h-5.085
				c0.207,1.036,0.933,1.488,1.843,1.488c0.622,0,1.295-0.252,1.814-0.688l1.132,1.243c-0.814,0.748-1.85,1.088-3.057,1.088
				c-2.198,0-3.723-1.495-3.723-3.753c0-2.258,1.48-3.797,3.627-3.797C300.197,467.99,301.611,469.522,301.618,471.757z
				 M296.504,471.091h3.175c-0.178-0.918-0.733-1.436-1.562-1.436C297.207,469.655,296.674,470.203,296.504,471.091z"/>
			<path id="XMLID_7_" style="fill:#1D262D;" d="M309.964,471.764c0,2.154-1.495,3.775-3.471,3.775
				c-0.962,0-1.643-0.378-2.109-0.933v3.708h-1.924v-10.133h1.887v0.792c0.466-0.585,1.155-0.984,2.139-0.984
				C308.469,467.99,309.964,469.61,309.964,471.764z M304.287,471.764c0,1.132,0.748,1.976,1.843,1.976
				c1.14,0,1.85-0.881,1.85-1.976c0-1.095-0.71-1.976-1.85-1.976C305.035,469.788,304.287,470.632,304.287,471.764z"/>
			<path id="XMLID_4_" style="fill:#1D262D;" d="M313.068,465.836c0,0.696-0.54,1.229-1.236,1.229c-0.696,0-1.229-0.533-1.229-1.229
				c0-0.696,0.533-1.243,1.229-1.243C312.527,464.592,313.068,465.14,313.068,465.836z M312.809,475.354h-1.932v-7.172h1.932
				V475.354z"/>
			<path id="XMLID_2_" style="fill:#1D262D;" d="M316.032,470.736l2.701-2.554h2.368l-3.479,3.375l3.501,3.797h-2.376l-2.716-2.901
				v2.901H314.1v-10.658h1.932V470.736z"/>
		</g>
		<g>
			<path style="fill:#1D262D;" d="M184.412,475.289v-1.055c-0.527,0.718-1.391,1.23-2.387,1.23c-1.846,0-3.149-1.406-3.149-3.706
				c0-2.256,1.289-3.721,3.149-3.721c0.952,0,1.816,0.469,2.387,1.245v-3.765h1.099v9.77H184.412z M184.412,473.37v-3.208
				c-0.395-0.615-1.245-1.143-2.124-1.143c-1.421,0-2.27,1.172-2.27,2.739c0,1.567,0.85,2.724,2.27,2.724
				C183.168,474.483,184.017,473.986,184.412,473.37z"/>
			<path style="fill:#1D262D;" d="M186.932,471.744c0-2.051,1.465-3.706,3.486-3.706c2.139,0,3.398,1.67,3.398,3.794v0.279h-5.727
				c0.088,1.333,1.025,2.446,2.549,2.446c0.805,0,1.626-0.322,2.182-0.894l0.527,0.718c-0.703,0.703-1.655,1.084-2.812,1.084
				C188.44,475.465,186.932,473.956,186.932,471.744z M190.403,468.947c-1.509,0-2.256,1.274-2.314,2.358h4.643
				C192.718,470.25,192.015,468.947,190.403,468.947z"/>
			<path style="fill:#1D262D;" d="M194.607,474.351l0.571-0.791c0.469,0.542,1.362,1.011,2.329,1.011c1.084,0,1.67-0.513,1.67-1.216
				c0-1.714-4.38-0.659-4.38-3.281c0-1.098,0.952-2.036,2.636-2.036c1.201,0,2.051,0.454,2.622,1.026l-0.513,0.762
				c-0.424-0.513-1.201-0.894-2.109-0.894c-0.967,0-1.567,0.483-1.567,1.113c0,1.552,4.38,0.527,4.38,3.281
				c0,1.187-0.952,2.138-2.783,2.138C196.306,475.465,195.325,475.113,194.607,474.351z"/>
			<path style="fill:#1D262D;" d="M201.477,466.471c0-0.41,0.337-0.747,0.732-0.747c0.41,0,0.747,0.337,0.747,0.747
				c0,0.41-0.337,0.732-0.747,0.732C201.814,467.203,201.477,466.881,201.477,466.471z M201.667,475.289v-7.075h1.099v7.075H201.667
				z"/>
			<path style="fill:#1D262D;" d="M204.582,477.105l0.556-0.82c0.586,0.703,1.289,0.967,2.3,0.967c1.172,0,2.27-0.571,2.27-2.124
				v-1.011c-0.513,0.718-1.377,1.26-2.373,1.26c-1.845,0-3.149-1.377-3.149-3.662c0-2.27,1.289-3.677,3.149-3.677
				c0.952,0,1.802,0.469,2.373,1.245v-1.069h1.098v6.87c0,2.344-1.641,3.076-3.369,3.076
				C206.237,478.16,205.417,477.926,204.582,477.105z M209.709,473.253v-3.091c-0.381-0.615-1.23-1.143-2.109-1.143
				c-1.421,0-2.27,1.128-2.27,2.695c0,1.553,0.849,2.695,2.27,2.695C208.478,474.41,209.328,473.868,209.709,473.253z"/>
			<path style="fill:#1D262D;" d="M217.413,475.289v-4.629c0-1.245-0.63-1.641-1.582-1.641c-0.865,0-1.685,0.527-2.095,1.099v5.17
				h-1.099v-7.075h1.099v1.025c0.498-0.586,1.464-1.201,2.519-1.201c1.48,0,2.256,0.747,2.256,2.285v4.966H217.413z"/>
			<path style="fill:#1D262D;" d="M219.932,471.744c0-2.051,1.465-3.706,3.486-3.706c2.139,0,3.398,1.67,3.398,3.794v0.279h-5.727
				c0.088,1.333,1.025,2.446,2.549,2.446c0.806,0,1.626-0.322,2.183-0.894l0.527,0.718c-0.703,0.703-1.655,1.084-2.812,1.084
				C221.441,475.465,219.932,473.956,219.932,471.744z M223.404,468.947c-1.509,0-2.256,1.274-2.314,2.358h4.643
				C225.718,470.25,225.015,468.947,223.404,468.947z"/>
			<path style="fill:#1D262D;" d="M233.35,475.289v-1.055c-0.527,0.718-1.392,1.23-2.388,1.23c-1.846,0-3.149-1.406-3.149-3.706
				c0-2.256,1.289-3.721,3.149-3.721c0.952,0,1.817,0.469,2.388,1.245v-3.765h1.098v9.77H233.35z M233.35,473.37v-3.208
				c-0.396-0.615-1.245-1.143-2.124-1.143c-1.421,0-2.27,1.172-2.27,2.739c0,1.567,0.849,2.724,2.27,2.724
				C232.105,474.483,232.954,473.986,233.35,473.37z"/>
			<path style="fill:#1D262D;" d="M239.692,475.289v-9.77h1.098v3.765c0.572-0.776,1.421-1.245,2.388-1.245
				c1.845,0,3.149,1.465,3.149,3.721c0,2.299-1.304,3.706-3.149,3.706c-0.996,0-1.86-0.513-2.388-1.23v1.055H239.692z
				 M242.9,474.483c1.436,0,2.285-1.157,2.285-2.724c0-1.568-0.85-2.739-2.285-2.739c-0.864,0-1.728,0.527-2.109,1.143v3.208
				C241.171,473.986,242.036,474.483,242.9,474.483z"/>
			<path style="fill:#1D262D;" d="M247.528,477.061c0.161,0.073,0.425,0.117,0.601,0.117c0.483,0,0.805-0.161,1.055-0.747
				l0.469-1.069l-2.959-7.148h1.187l2.358,5.8l2.344-5.8h1.201l-3.545,8.51c-0.425,1.025-1.143,1.421-2.08,1.435
				c-0.234,0-0.601-0.044-0.805-0.103L247.528,477.061z"/>
		</g>
	</g>
</g>
</svg>
