<?xml version="1.0" encoding="utf-8"?>
<!-- Generator: Adobe Illustrator 27.5.0, SVG Export Plug-In . SVG Version: 6.00 Build 0)  -->
<svg version="1.1" xmlns="http://www.w3.org/2000/svg" xmlns:xlink="http://www.w3.org/1999/xlink" x="0px" y="0px"
	 viewBox="0 0 500 500" style="enable-background:new 0 0 500 500;" xml:space="preserve">
<g id="BACKGROUND">
	<polygon style="fill:#FFFFFF;" points="500,500 0,500 0,0 250,0 500,0 	"/>
</g>
<g id="OBJECTS">
	<g>
		<g>
			<path style="fill:#E7FAF9;" d="M390.641,223.759c-10.981,0-19.883-8.902-19.883-19.883s8.902-19.883,19.883-19.883h40.236h0.936
				c10.981,0,19.883-8.902,19.883-19.884v0c0-10.981-8.902-19.883-19.883-19.883h-48.407h-28.833
				c-10.981,0-19.884-8.902-19.884-19.883v0c0-10.981,8.902-19.884,19.884-19.884h15.231c10.981,0,19.884-8.902,19.884-19.883
				s-8.902-19.884-19.884-19.884h-239.61c-10.981,0-19.884,8.902-19.884,19.884s8.902,19.883,19.884,19.883h25.749
				c10.981,0,19.883,8.902,19.883,19.884v0c0,10.981-8.902,19.883-19.883,19.883h-39.35h-9.38c-10.981,0-19.884,8.902-19.884,19.883
				v0c0,10.981,8.902,19.884,19.884,19.884h24.257c10.981,0,19.884,8.902,19.884,19.883s-8.902,19.883-19.884,19.883H69.123h-8.665
				c-10.981,0-19.883,8.902-19.883,19.884l0,0c0,10.981,8.902,19.884,19.883,19.884h22.513h84.033
				c10.981,0,19.884,8.902,19.884,19.883v0c0,10.981-8.902,19.883-19.884,19.883H84.417c-10.981,0-19.883,8.902-19.883,19.884v0
				c0,10.981,8.902,19.883,19.883,19.883h28.739h28.364c10.981,0,19.883,8.902,19.883,19.884l0,0
				c0,10.981-8.902,19.884-19.883,19.884h-17.116c-10.981,0-19.884,8.902-19.884,19.884c0,10.981,8.902,19.884,19.884,19.884h217.98
				c10.981,0,19.884-8.902,19.884-19.884c0-10.981-8.902-19.884-19.884-19.884h-12.802c-10.981,0-19.883-8.902-19.883-19.884l0,0
				c0-10.981,8.902-19.884,19.883-19.884h57.263h0.168c10.981,0,19.884-8.902,19.884-19.883v0c0-10.981-8.902-19.884-19.884-19.884
				h-30.115c-10.981,0-19.884-8.902-19.884-19.883v0c0-10.981,8.902-19.883,19.884-19.883h60.133h22.513
				c10.981,0,19.884-8.902,19.884-19.884l0,0c0-10.981-8.902-19.884-19.884-19.884h-8.665H390.641z"/>
		</g>
		<g>
			<g>
				<path style="fill:#7FCBD0;" d="M438.333,138.332c0-5.523-4.477-10-10-10h-125.99c-5.523,0-10,4.477-10,10v6.158h145.99V138.332z
					"/>
				<path style="fill:#BCF0EB;" d="M292.344,144.49v76.167c0,5.523,4.477,10,10,10h125.99c5.523,0,10-4.477,10-10V144.49H292.344z"
					/>
			</g>
			<path style="fill:#E36B85;" d="M306.427,136.411c0,1.887-1.53,3.417-3.417,3.417c-1.887,0-3.417-1.53-3.417-3.417
				c0-1.887,1.53-3.417,3.417-3.417C304.897,132.995,306.427,134.524,306.427,136.411z"/>
			<path style="fill:#ECA85E;" d="M317.343,136.411c0,1.887-1.53,3.417-3.417,3.417c-1.887,0-3.417-1.53-3.417-3.417
				c0-1.887,1.53-3.417,3.417-3.417C315.814,132.995,317.343,134.524,317.343,136.411z"/>
			<path style="fill:#ADBF53;" d="M328.26,136.411c0,1.887-1.53,3.417-3.417,3.417s-3.417-1.53-3.417-3.417
				c0-1.887,1.53-3.417,3.417-3.417S328.26,134.524,328.26,136.411z"/>
			<g>
				<path style="fill:#FFFFFF;" d="M415.791,188.483c-2.793,0-5.056-2.264-5.056-5.057s2.264-5.056,5.056-5.056h4.465h9.471
					c2.793,0,5.056-2.264,5.056-5.057s-2.264-5.056-5.056-5.056h-0.944h-8.485h-15.636c-2.793,0-5.056-2.264-5.056-5.057
					c0-2.793,2.264-5.056,5.056-5.056h4.791c2.793,0,5.057-2.264,5.057-5.057c0-2.793-2.264-5.056-5.057-5.056h-44.382
					c-2.793,0-5.057,2.264-5.057,5.056c0,2.793,2.264,5.057,5.057,5.057h1.026c2.793,0,5.056,2.264,5.056,5.056
					c0,2.793-2.264,5.057-5.056,5.057h-11.872h-3.973c-2.793,0-5.056,2.264-5.056,5.056s2.264,5.057,5.056,5.057h4.016h1.332
					c2.793,0,5.056,2.264,5.056,5.056s-2.264,5.057-5.056,5.057h-1.332h-9.886c-2.793,0-5.056,2.264-5.056,5.057
					c0,2.793,2.264,5.056,5.056,5.056h6.628h2.254c2.793,0,5.056,2.264,5.056,5.056c0,2.793-2.264,5.056-5.056,5.056h-2.254h-8.737
					c-2.793,0-5.056,2.264-5.056,5.057c0,2.793,2.264,5.057,5.056,5.057h86.509c2.793,0,5.056-2.264,5.056-5.057
					c0-2.793-2.264-5.057-5.056-5.057h-5.268h-5.256c-2.793,0-5.056-2.264-5.056-5.056c0-2.793,2.264-5.056,5.056-5.056h5.256h1.305
					c2.793,0,5.056-2.264,5.056-5.056c0-2.793-2.264-5.057-5.056-5.057h-4.562H415.791z"/>
			</g>
			<g>
				<rect x="366.991" y="182.443" style="fill:#6BC3C0;" width="55.066" height="36.492"/>
				<rect x="396.593" y="190.028" style="fill:#454E6F;" width="15" height="23.833"/>
				<g>
					<rect x="383.593" y="190.028" style="fill:#454E6F;" width="8.161" height="17"/>
					<rect x="373.343" y="190.028" style="fill:#454E6F;" width="8.161" height="17"/>
				</g>
				<g>
					<rect x="370.792" y="156.212" style="fill:#E78882;" width="10.103" height="23.538"/>
					<rect x="369.048" y="156.212" style="fill:#F4D071;" width="13.59" height="3.691"/>
				</g>
				<g>
					<polygon style="fill:#F4D071;" points="360.472,183.528 394.523,156.212 428.575,183.528 					"/>
					<polygon style="fill:#454E6F;" points="374.696,178.528 394.523,162.622 414.351,178.528 					"/>
				</g>
			</g>
		</g>
		<g>
			<g>
				<g>
					<path style="fill:#7FCBD0;" d="M295.096,84.221c0-5.523-4.477-10-10-10H178.07c-5.523,0-10,4.477-10,10v6.158h127.026V84.221z"
						/>
					<path style="fill:#BCF0EB;" d="M168.07,90.38v76.167c0,5.523,4.477,10,10,10h107.026c5.523,0,10-4.477,10-10V90.38H168.07z"/>
				</g>
				<path style="fill:#E36B85;" d="M182.153,82.3c0,1.887-1.53,3.417-3.417,3.417c-1.887,0-3.417-1.53-3.417-3.417
					c0-1.887,1.53-3.417,3.417-3.417C180.623,78.884,182.153,80.413,182.153,82.3z"/>
				<path style="fill:#ECA85E;" d="M193.069,82.3c0,1.887-1.53,3.417-3.417,3.417c-1.887,0-3.417-1.53-3.417-3.417
					c0-1.887,1.53-3.417,3.417-3.417C191.539,78.884,193.069,80.413,193.069,82.3z"/>
				<path style="fill:#ADBF53;" d="M203.986,82.3c0,1.887-1.53,3.417-3.417,3.417c-1.887,0-3.417-1.53-3.417-3.417
					c0-1.887,1.53-3.417,3.417-3.417C202.456,78.884,203.986,80.413,203.986,82.3z"/>
			</g>
			<g>
				<g>
					<path style="fill:#7CA566;" d="M257.831,114.868c0.355,0.205,0.708,0.41,1.06,0.614c5.933,3.449,11.871,6.895,17.799,10.34
						c1.861,1.08,3.772,2.207,4.672,3.64c0.9,1.432,0.474,3.258-1.679,4.127c-1.613,0.649-3.767,0.622-5.547,1.098
						c-3.881,1.03-4.821,4.086-3.627,6.46c1.199,2.377,3.906,4.397,5.566,6.677c1.67,2.281,2.026,5.219-1.01,6.953
						c-3.637,2.078-9.788,1.242-14.306-0.156c-4.523-1.394-9.155-3.284-14.23-2.909c-4.873,0.364-8.644,2.756-13.439,3.375
						c-5.727,0.737-11.393-1.171-16.348-2.997c-6.692-2.465-13.38-4.934-20.072-7.399c-3.41-1.256-6.919-2.576-9.756-4.214
						c-1.632-0.942-3.042-1.99-4.083-3.192c-2.856-3.293-1.591-8.074,4.228-9.548c4.139-1.045,8.877-0.129,13.254,0.549
						c4.372,0.681,9.669,0.971,12.815-0.904c2.601-1.553,2.653-4.015,1.942-6.146c-0.716-2.128-2.031-4.256-1.587-6.404
						c0.764-3.731,6.769-6.49,13.062-7.397c4.881-0.71,10.137-0.543,14.865,0.467C247.823,109.274,252.963,112.058,257.831,114.868z
						"/>
				</g>
				<path style="fill:#E36B85;" d="M229.804,94.41c-7.085,0-12.829,5.744-12.829,12.829c0,11.058,12.829,22.205,12.829,22.205
					s12.829-11.147,12.829-22.205C242.633,100.154,236.889,94.41,229.804,94.41z M229.804,114.495c-4.001,0-7.256-3.255-7.256-7.256
					c0-4.001,3.255-7.256,7.256-7.256c4.001,0,7.256,3.255,7.256,7.256C237.059,111.24,233.804,114.495,229.804,114.495z"/>
			</g>
		</g>
		<g>
			<g>
				<path style="fill:#7FCBD0;" d="M194.001,166.847c0-5.523-4.477-10-10-10H76.975c-5.523,0-10,4.477-10,10v6.158h127.026V166.847z
					"/>
				<path style="fill:#BCF0EB;" d="M66.975,173.005v76.167c0,5.523,4.477,10,10,10h107.026c5.523,0,10-4.477,10-10v-76.167H66.975z"
					/>
			</g>
			<path style="fill:#E36B85;" d="M81.058,164.926c0,1.887-1.53,3.417-3.417,3.417c-1.887,0-3.417-1.53-3.417-3.417
				c0-1.887,1.53-3.417,3.417-3.417C79.528,161.51,81.058,163.039,81.058,164.926z"/>
			<path style="fill:#ECA85E;" d="M91.975,164.926c0,1.887-1.53,3.417-3.417,3.417c-1.887,0-3.417-1.53-3.417-3.417
				c0-1.887,1.53-3.417,3.417-3.417C90.445,161.51,91.975,163.039,91.975,164.926z"/>
			<path style="fill:#ADBF53;" d="M102.891,164.926c0,1.887-1.53,3.417-3.417,3.417c-1.887,0-3.417-1.53-3.417-3.417
				c0-1.887,1.53-3.417,3.417-3.417C101.361,161.51,102.891,163.039,102.891,164.926z"/>
			<g>
				<path style="fill:#FFFFFF;" d="M158.026,216.998c-2.793,0-5.056-2.264-5.056-5.057c0-2.793,2.264-5.056,5.056-5.056h4.465h9.471
					c2.793,0,5.057-2.264,5.057-5.057c0-2.793-2.264-5.056-5.057-5.056h-0.943h-8.485h-15.636c-2.793,0-5.057-2.264-5.057-5.057
					c0-2.793,2.264-5.056,5.057-5.056h4.791c2.793,0,5.056-2.264,5.056-5.057s-2.264-5.056-5.056-5.056h-44.383
					c-2.793,0-5.056,2.264-5.056,5.056s2.264,5.057,5.056,5.057h1.026c2.793,0,5.057,2.264,5.057,5.056
					c0,2.793-2.264,5.057-5.057,5.057H96.46h-3.973c-2.793,0-5.056,2.264-5.056,5.056c0,2.793,2.264,5.057,5.056,5.057h4.016h1.332
					c2.793,0,5.056,2.264,5.056,5.056c0,2.793-2.264,5.057-5.056,5.057h-1.332h-9.886c-2.793,0-5.056,2.264-5.056,5.057
					s2.264,5.057,5.056,5.057h6.628h2.254c2.793,0,5.056,2.264,5.056,5.056s-2.264,5.057-5.056,5.057h-2.254h-8.737
					c-2.793,0-5.056,2.264-5.056,5.057c0,2.793,2.264,5.056,5.056,5.056h86.509c2.793,0,5.057-2.264,5.057-5.056
					c0-2.793-2.264-5.057-5.057-5.057h-5.268h-5.256c-2.793,0-5.056-2.264-5.056-5.057s2.264-5.056,5.056-5.056h5.256h1.305
					c2.793,0,5.057-2.264,5.057-5.057s-2.264-5.057-5.057-5.057h-4.562H158.026z"/>
			</g>
			<g>
				<rect x="102.955" y="210.958" style="fill:#6BC3C0;" width="55.066" height="36.492"/>
				<rect x="132.558" y="218.543" style="fill:#454E6F;" width="15" height="23.833"/>
				<g>
					<rect x="119.558" y="218.543" style="fill:#454E6F;" width="8.161" height="17"/>
					<rect x="109.308" y="218.543" style="fill:#454E6F;" width="8.161" height="17"/>
				</g>
				<g>
					<rect x="106.757" y="184.727" style="fill:#E78882;" width="10.103" height="23.538"/>
					<rect x="105.013" y="184.727" style="fill:#F4D071;" width="13.59" height="3.691"/>
				</g>
				<g>
					<polygon style="fill:#F4D071;" points="96.437,212.043 130.488,184.727 164.539,212.043 					"/>
					<polygon style="fill:#454E6F;" points="110.66,207.043 130.488,191.137 150.316,207.043 					"/>
				</g>
			</g>
		</g>
		<g>
			<path style="fill:none;" d="M354.74,167.794c0.311,0.194,0.619,0.401,0.925,0.612c-0.161-0.111-0.323-0.219-0.485-0.325
				C355.033,167.986,354.888,167.886,354.74,167.794z"/>
			<path style="fill:none;" d="M330.684,200.754c0.201,0.16,0.401,0.301,0.602,0.444c-0.145-0.103-0.289-0.208-0.434-0.32
				C330.796,200.834,330.74,200.798,330.684,200.754z"/>
			<path style="fill:none;" d="M329.053,187.658c-0.044-0.044-0.088-0.087-0.131-0.131
				C328.965,187.571,329.009,187.615,329.053,187.658L329.053,187.658z"/>
			<path style="fill:none;" d="M329.416,170.867c0.141-0.191,0.289-0.376,0.439-0.559c-0.104,0.128-0.216,0.25-0.317,0.382
				C329.494,170.746,329.458,170.809,329.416,170.867z"/>
			<path style="fill:none;" d="M353.292,166.965c0.273,0.143,0.541,0.301,0.81,0.456c-0.17-0.098-0.34-0.199-0.512-0.292
				C353.491,167.075,353.393,167.018,353.292,166.965z"/>
			<path style="fill:none;" d="M347.46,186.37c0.355,0.218,0.689,0.441,1.017,0.664c-0.229-0.155-0.466-0.309-0.708-0.463
				C347.664,186.504,347.568,186.436,347.46,186.37z"/>
			<path style="fill:none;" d="M351.807,166.259c0.211,0.09,0.418,0.197,0.627,0.294c-0.159-0.074-0.315-0.156-0.475-0.226
				C351.908,166.306,351.858,166.281,351.807,166.259z"/>
			<path style="fill:none;" d="M331.129,168.916c0.239-0.228,0.487-0.446,0.742-0.659c-0.217,0.182-0.435,0.364-0.64,0.556
				C331.195,168.846,331.164,168.883,331.129,168.916z"/>
			<path style="fill:none;" d="M348.948,187.363c-0.081-0.058-0.155-0.118-0.238-0.176c0.368,0.257,0.717,0.516,1.049,0.779
				c-0.167-0.132-0.337-0.264-0.513-0.395C349.151,187.501,349.045,187.432,348.948,187.363z"/>
			<path style="fill:none;" d="M346.087,185.572c0.417,0.229,0.813,0.461,1.199,0.695c-0.277-0.168-0.567-0.333-0.86-0.499
				C346.31,185.704,346.205,185.637,346.087,185.572z"/>
			<path style="fill:none;" d="M323.079,207.722c-0.055-0.045-0.114-0.083-0.169-0.128c0.056,0.046,0.11,0.094,0.166,0.139
				L323.079,207.722z"/>
			<path style="fill:none;" d="M332.075,168.08c0.346-0.28,0.705-0.548,1.079-0.802c-0.035,0.024-0.071,0.048-0.106,0.072
				C332.712,167.583,332.388,167.827,332.075,168.08z"/>
			<path style="fill:none;" d="M337.995,165.032c0.032-0.009,0.062-0.021,0.094-0.03c-0.002,0.001-0.004,0.001-0.006,0.001
				C338.054,165.011,338.025,165.023,337.995,165.032z"/>
			<path style="fill:none;" d="M334.639,166.392c0.249-0.134,0.499-0.266,0.754-0.386c-0.045,0.021-0.091,0.037-0.136,0.058
				C335.048,166.166,334.844,166.282,334.639,166.392z"/>
			<path style="fill:#ECA85E;" d="M323.079,207.722l-0.003,0.011c-0.056-0.045-0.11-0.093-0.166-0.139
				c-0.068-0.055-0.134-0.113-0.202-0.169c-0.451-0.379-0.893-0.775-1.322-1.193c-0.057-0.056-0.114-0.114-0.171-0.17
				c-0.434-0.43-0.857-0.878-1.268-1.349c-0.043-0.049-0.085-0.101-0.128-0.151c-0.42-0.488-0.829-0.995-1.224-1.526
				c-0.025-0.033-0.048-0.068-0.073-0.101c-0.41-0.556-0.809-1.132-1.192-1.733l8.078-6.58l-6.225-4.983l-8.078,6.58
				c1.679,2.633,3.61,4.824,5.794,6.572l6.176,4.944l-1.076,3.615l6.225,4.983l1.458-4.897
				C327.269,210.571,325.072,209.327,323.079,207.722z"/>
			<path style="fill:#ECA85E;" d="M343.217,196.876c-0.034-0.053-0.078-0.106-0.116-0.16c-0.081-0.114-0.168-0.228-0.269-0.343
				c-0.055-0.063-0.116-0.126-0.177-0.189c-0.105-0.108-0.217-0.217-0.339-0.327c-0.072-0.064-0.144-0.129-0.222-0.193
				c-0.187-0.156-0.381-0.312-0.602-0.47l-2.458,8.257c0.301-0.045,0.588-0.106,0.861-0.179c0.233-0.063,0.453-0.138,0.665-0.221
				c0.056-0.022,0.11-0.047,0.165-0.07c0.136-0.059,0.265-0.125,0.393-0.192c0.116-0.062,0.229-0.127,0.338-0.196
				c0.104-0.066,0.205-0.136,0.302-0.209c0.085-0.064,0.168-0.131,0.248-0.2c0.089-0.077,0.172-0.159,0.254-0.243
				c0.093-0.094,0.182-0.192,0.266-0.295c0.066-0.08,0.128-0.164,0.189-0.249c0.112-0.157,0.213-0.324,0.307-0.498
				c0.042-0.078,0.087-0.152,0.126-0.233c0.123-0.26,0.234-0.532,0.321-0.826c0.279-0.938,0.281-1.759,0.007-2.47
				C343.412,197.207,343.323,197.042,343.217,196.876z"/>
			<path style="fill:#ECA85E;" d="M344.589,184.796c0.486,0.239,0.951,0.481,1.401,0.726c0.031,0.017,0.066,0.034,0.097,0.051
				c0.118,0.065,0.223,0.131,0.339,0.196c0.293,0.165,0.583,0.331,0.86,0.499c0.057,0.034,0.119,0.068,0.174,0.102
				c0.108,0.066,0.204,0.134,0.309,0.201c0.242,0.153,0.479,0.307,0.708,0.463c0.076,0.052,0.159,0.102,0.233,0.154
				c0.083,0.058,0.157,0.117,0.238,0.176c0.097,0.07,0.203,0.138,0.298,0.208c0.177,0.131,0.346,0.263,0.513,0.395
				c0.023,0.018,0.047,0.035,0.069,0.053c0.012,0.009,0.024,0.018,0.036,0.028l-5.042-4.036l-0.005,0.016L344.589,184.796z"/>
			<path style="fill:#ECA85E;" d="M352.489,179.16c-0.191-0.207-0.382-0.411-0.573-0.606c-0.105-0.107-0.21-0.209-0.315-0.313
				c-0.178-0.175-0.355-0.345-0.533-0.509c-0.108-0.1-0.216-0.198-0.324-0.293c-0.18-0.16-0.36-0.312-0.54-0.46
				c-0.911-0.751-1.824-1.37-2.739-1.841l-0.091,0.304l6.22,4.979c-0.279-0.338-0.558-0.66-0.837-0.971
				C352.668,179.351,352.578,179.258,352.489,179.16z"/>
			<path style="fill:#7D9293;" d="M330.478,200.578c0.069,0.057,0.137,0.121,0.206,0.176c0.056,0.045,0.112,0.081,0.168,0.124
				L330.478,200.578z"/>
			<path style="fill:#ECA85E;" d="M330.478,200.578l0.374,0.3c0.145,0.112,0.289,0.217,0.434,0.32
				c0.049,0.035,0.098,0.074,0.147,0.108c0.355,0.246,0.71,0.474,1.066,0.669l2.976-9.996c-2.749-1.338-4.88-2.779-6.423-4.319l0,0
				c-0.044-0.044-0.087-0.087-0.13-0.131c-0.107-0.109-0.224-0.217-0.325-0.328c-0.171-0.188-0.321-0.379-0.474-0.569
				c-0.079-0.098-0.169-0.194-0.243-0.293c-0.219-0.291-0.418-0.584-0.598-0.881c-1.435-2.389-1.591-5.49-0.451-9.319
				c0.148-0.499,0.315-0.981,0.497-1.45c0.06-0.156,0.132-0.302,0.196-0.455c0.129-0.307,0.257-0.613,0.401-0.907
				c0.085-0.174,0.18-0.338,0.27-0.507c0.138-0.259,0.276-0.518,0.426-0.766c0.104-0.173,0.217-0.338,0.328-0.505
				c0.152-0.231,0.305-0.46,0.468-0.681c0.042-0.057,0.078-0.12,0.122-0.177c0.1-0.132,0.212-0.254,0.317-0.382
				c0.121-0.149,0.241-0.3,0.368-0.445c0.165-0.188,0.34-0.367,0.514-0.546c0.13-0.134,0.258-0.271,0.393-0.4
				c0.035-0.033,0.066-0.07,0.101-0.103c0.205-0.192,0.423-0.374,0.64-0.556c0.069-0.058,0.134-0.12,0.204-0.177
				c0.313-0.253,0.637-0.497,0.973-0.729c0.035-0.024,0.07-0.048,0.106-0.072c0.364-0.246,0.735-0.473,1.111-0.688
				c0.123-0.07,0.249-0.131,0.374-0.198c0.206-0.111,0.409-0.227,0.618-0.328c0.044-0.022,0.091-0.037,0.136-0.058
				c0.288-0.136,0.582-0.257,0.876-0.376c0.15-0.061,0.298-0.129,0.45-0.185c0.419-0.155,0.844-0.292,1.276-0.413
				c0.03-0.008,0.058-0.02,0.088-0.028c0.002-0.001,0.004-0.001,0.006-0.001c0.254-0.07,0.516-0.121,0.775-0.179
				c0.188-0.042,0.373-0.094,0.564-0.13c0.269-0.051,0.545-0.082,0.819-0.121c0.187-0.026,0.371-0.062,0.56-0.082
				c0.301-0.032,0.609-0.046,0.915-0.063c0.169-0.01,0.334-0.029,0.505-0.035c0.48-0.015,0.967-0.013,1.461,0.007l0.979-3.289
				l6.635,1.14l-6.226-4.983l-6.635-1.14l-0.979,3.288c-0.494-0.02-0.98-0.022-1.46-0.007c-0.171,0.005-0.336,0.025-0.505,0.035
				c-0.306,0.018-0.614,0.031-0.915,0.063c-0.189,0.02-0.373,0.056-0.56,0.082c-0.274,0.038-0.55,0.07-0.819,0.121
				c-0.191,0.036-0.376,0.087-0.564,0.13c-0.259,0.058-0.52,0.109-0.774,0.178c-0.032,0.009-0.062,0.021-0.094,0.03
				c-0.432,0.121-0.858,0.258-1.277,0.413c-0.152,0.056-0.3,0.125-0.45,0.185c-0.295,0.119-0.589,0.24-0.876,0.376
				c-0.254,0.12-0.505,0.252-0.754,0.386c-0.124,0.067-0.251,0.128-0.374,0.198c-0.376,0.215-0.747,0.442-1.111,0.688
				c-0.374,0.254-0.733,0.522-1.079,0.802c-0.07,0.057-0.135,0.119-0.204,0.177c-0.254,0.213-0.503,0.432-0.742,0.659
				c-0.135,0.129-0.263,0.266-0.393,0.4c-0.174,0.179-0.349,0.359-0.514,0.546c-0.127,0.144-0.247,0.295-0.368,0.445
				c-0.15,0.184-0.298,0.368-0.439,0.559c-0.163,0.221-0.316,0.45-0.468,0.681c-0.11,0.167-0.224,0.332-0.328,0.505
				c-0.15,0.248-0.288,0.507-0.426,0.766c-0.09,0.169-0.185,0.334-0.27,0.507c-0.144,0.294-0.273,0.602-0.402,0.91
				c-0.064,0.152-0.134,0.297-0.194,0.452c-0.182,0.469-0.349,0.951-0.497,1.45c-1.14,3.829-0.984,6.929,0.451,9.318
				c0.713,1.183,1.742,2.313,3.088,3.39l4.877,3.904l-2.514,8.443C327.826,198.027,329.15,199.483,330.478,200.578z"/>
			<path style="fill:#ECA85E;" d="M350.282,165.676c0.515,0.173,1.023,0.369,1.525,0.583c0.051,0.022,0.101,0.046,0.152,0.068
				c0.16,0.07,0.316,0.152,0.475,0.226c0.287,0.134,0.576,0.264,0.859,0.412c0.1,0.052,0.199,0.11,0.298,0.164
				c0.172,0.093,0.341,0.194,0.512,0.292c0.213,0.123,0.427,0.242,0.638,0.373c0.148,0.092,0.293,0.191,0.439,0.287
				c0.162,0.106,0.324,0.214,0.485,0.325c0.162,0.112,0.324,0.223,0.484,0.339c0.055,0.04,0.112,0.074,0.166,0.114
				c0.247,0.183,0.493,0.372,0.737,0.568l-6.224-4.982c-0.048-0.039-0.099-0.07-0.148-0.109l-0.003,0.01L350.282,165.676z"/>
			<path style="fill:#ECA85E;" d="M337.12,176.954c-0.533,1.791-0.045,3.305,1.472,4.559l2.319-7.788
				C338.913,174.086,337.653,175.163,337.12,176.954z"/>
			<path style="fill:#F4D071;" d="M349.829,188.019c-0.022-0.018-0.047-0.035-0.069-0.053c-0.332-0.263-0.681-0.522-1.049-0.779
				c-0.074-0.052-0.157-0.102-0.233-0.154c-0.328-0.223-0.661-0.445-1.017-0.664c-0.056-0.035-0.118-0.068-0.174-0.102
				c-0.386-0.234-0.782-0.466-1.199-0.695c-0.031-0.017-0.065-0.034-0.097-0.051c-0.45-0.245-0.915-0.487-1.401-0.726l0.229-0.769
				l0.005-0.016l2.551-8.568l0.091-0.304c0.915,0.471,1.828,1.091,2.739,1.841c0.18,0.148,0.36,0.301,0.54,0.46
				c0.108,0.096,0.216,0.194,0.324,0.293c0.178,0.164,0.356,0.334,0.533,0.509c0.105,0.103,0.21,0.206,0.315,0.313
				c0.191,0.195,0.382,0.399,0.573,0.606c0.089,0.097,0.179,0.19,0.268,0.29c0.279,0.312,0.558,0.633,0.837,0.971l7.486-7.037
				c-1.553-1.835-3.198-3.377-4.931-4.639c-0.16-0.117-0.322-0.227-0.484-0.339c-0.306-0.211-0.613-0.419-0.925-0.612
				c-0.21-0.131-0.424-0.25-0.638-0.373c-0.269-0.155-0.537-0.314-0.81-0.456c-0.283-0.148-0.572-0.278-0.859-0.412
				c-0.209-0.098-0.415-0.204-0.627-0.294c-0.502-0.214-1.01-0.41-1.525-0.583l0.396-1.329l0.003-0.01l0.621-2.086l-6.635-1.14
				l-0.979,3.289c-0.494-0.02-0.98-0.022-1.461-0.007c-0.171,0.005-0.336,0.025-0.505,0.035c-0.306,0.018-0.614,0.031-0.915,0.063
				c-0.189,0.02-0.373,0.056-0.56,0.082c-0.274,0.038-0.55,0.07-0.819,0.121c-0.191,0.036-0.375,0.087-0.564,0.13
				c-0.259,0.058-0.521,0.109-0.775,0.179c-0.032,0.009-0.062,0.021-0.094,0.03c-0.432,0.121-0.858,0.258-1.276,0.413
				c-0.152,0.056-0.299,0.124-0.45,0.185c-0.295,0.119-0.589,0.24-0.876,0.376c-0.255,0.12-0.505,0.252-0.754,0.386
				c-0.124,0.067-0.251,0.128-0.374,0.198c-0.376,0.214-0.747,0.442-1.111,0.688c-0.374,0.254-0.733,0.522-1.079,0.802
				c-0.07,0.057-0.135,0.119-0.204,0.177c-0.254,0.213-0.503,0.431-0.742,0.659c-0.135,0.129-0.263,0.266-0.393,0.4
				c-0.174,0.179-0.349,0.359-0.514,0.546c-0.127,0.145-0.247,0.295-0.368,0.445c-0.149,0.184-0.298,0.368-0.439,0.559
				c-0.163,0.221-0.316,0.45-0.468,0.681c-0.11,0.167-0.224,0.332-0.328,0.505c-0.15,0.248-0.288,0.507-0.426,0.766
				c-0.09,0.169-0.185,0.334-0.27,0.507c-0.143,0.294-0.272,0.6-0.401,0.907c-0.064,0.153-0.135,0.299-0.196,0.455
				c-0.182,0.469-0.349,0.951-0.497,1.45c-1.14,3.829-0.984,6.93,0.451,9.319c0.179,0.297,0.379,0.591,0.598,0.881
				c0.074,0.099,0.164,0.195,0.243,0.293c0.154,0.19,0.303,0.382,0.474,0.569c0.101,0.111,0.218,0.218,0.325,0.328
				c0.043,0.044,0.087,0.087,0.131,0.131c1.543,1.54,3.674,2.981,6.423,4.319l-2.976,9.996c-0.356-0.194-0.711-0.423-1.066-0.669
				c-0.049-0.034-0.098-0.073-0.147-0.108c-0.201-0.143-0.402-0.284-0.602-0.444c-0.069-0.055-0.137-0.119-0.206-0.176
				c-1.328-1.095-2.651-2.551-3.971-4.369c-0.366-0.505-0.733-1.027-1.098-1.587l-8.078,6.58c0.384,0.602,0.782,1.178,1.192,1.733
				c0.024,0.033,0.048,0.068,0.073,0.101c0.395,0.531,0.805,1.038,1.224,1.526c0.043,0.05,0.085,0.102,0.128,0.151
				c0.411,0.471,0.834,0.919,1.268,1.349c0.057,0.057,0.113,0.115,0.171,0.17c0.429,0.418,0.87,0.814,1.322,1.193
				c0.067,0.056,0.134,0.113,0.202,0.169c0.055,0.045,0.114,0.084,0.169,0.128c1.993,1.604,4.19,2.849,6.603,3.714l-1.458,4.897
				l6.635,1.14l1.398-4.695c4.151,0.193,7.806-0.753,10.95-2.842c3.141-2.096,5.29-5.067,6.436-8.915
				c1.144-3.842,0.955-7.003-0.57-9.476C352.317,190.314,351.234,189.139,349.829,188.019z M337.12,176.954
				c0.533-1.791,1.793-2.868,3.791-3.23l-2.319,7.788C337.074,180.26,336.586,178.745,337.12,176.954z M343.469,199.841
				c-0.088,0.294-0.198,0.566-0.321,0.826c-0.039,0.081-0.084,0.156-0.126,0.233c-0.094,0.174-0.195,0.341-0.307,0.498
				c-0.061,0.085-0.123,0.169-0.189,0.249c-0.084,0.103-0.173,0.201-0.266,0.295c-0.082,0.084-0.165,0.166-0.254,0.243
				c-0.08,0.07-0.163,0.136-0.248,0.2c-0.097,0.073-0.198,0.143-0.302,0.209c-0.109,0.069-0.222,0.134-0.338,0.196
				c-0.127,0.068-0.256,0.134-0.393,0.192c-0.055,0.024-0.109,0.048-0.165,0.07c-0.212,0.083-0.432,0.158-0.665,0.221
				c-0.273,0.074-0.559,0.134-0.861,0.179l2.458-8.257c0.221,0.158,0.416,0.314,0.602,0.47c0.077,0.065,0.15,0.129,0.222,0.193
				c0.122,0.109,0.234,0.218,0.339,0.327c0.061,0.063,0.122,0.126,0.177,0.189c0.101,0.115,0.188,0.229,0.269,0.343
				c0.038,0.053,0.082,0.107,0.116,0.16c0.106,0.166,0.195,0.331,0.259,0.494C343.75,198.082,343.748,198.903,343.469,199.841z"/>
		</g>
		<g>
			<path style="fill:#E4E4E0;" d="M320,138.143h-68.206c-5.523,0-10,4.477-10,10v37c0,5.523,4.477,10,10,10h2.472l-12.472,13.833
				l31.652-13.833H320c5.523,0,10-4.477,10-10v-37C330,142.62,325.523,138.143,320,138.143z"/>
			<g>
				<g>
					<path style="fill:#7FCBD0;" d="M276.393,172.329l-3.321,3.321l2.802,2.802l3.321-3.321c-0.521-0.398-1.03-0.82-1.506-1.296
						C277.213,173.358,276.79,172.85,276.393,172.329z"/>
					<path style="fill:#64B0B2;" d="M280.607,168.115l-4.214,4.214c0.397,0.521,0.82,1.03,1.296,1.506
						c0.476,0.476,0.985,0.898,1.506,1.296l4.214-4.214L280.607,168.115z"/>
				</g>
				<g>
					<circle style="fill:#454E6F;" cx="291.726" cy="159.797" r="14.734"/>
					<circle style="fill:#D1F4F5;" cx="291.726" cy="159.797" r="11.763"/>
					<g>
						<path style="fill:#FFFFFF;" d="M300.724,161.003c-1.281,1.281-3.359,1.281-4.64,0c-1.281-1.281-1.281-3.359,0-4.64
							s3.359-1.281,4.64,0C302.005,157.644,302.005,159.721,300.724,161.003z"/>
						<circle style="fill:#FFFFFF;" cx="296.303" cy="165.599" r="1.61"/>
					</g>
				</g>
				<path style="fill:#454E6F;" d="M272.508,175.086l-13.014,13.014c-0.338,0.338,0.267,1.492,1.352,2.577
					c1.085,1.085,2.239,1.69,2.577,1.352l13.014-13.014L272.508,175.086z"/>
			</g>
		</g>
		<g>
			<g>
				<g>
					<g>
						<polygon style="fill:#D4CFBE;" points="215.538,417.327 207.295,417.327 171.709,429.213 251.124,429.213 						"/>
						<path style="fill:#A59B95;" d="M251.124,429.213h-79.415c-2.005,0.67-1.524,3.633,0.591,3.633h78.233
							C252.648,432.846,253.129,429.883,251.124,429.213z"/>
					</g>
					<rect x="201.75" y="359.309" style="fill:#D4CFBE;" width="19.333" height="9.333"/>
					<g>
						<rect x="207.295" y="368.643" style="fill:#A59B95;" width="8.242" height="7"/>
						<rect x="207.295" y="375.643" style="fill:#D4CFBE;" width="8.242" height="41.684"/>
					</g>
				</g>
				<g>
					<g>
						<path style="fill:#F4D071;" d="M172.978,249.406c1.46-5.743,4.04-11.08,7.029-16.22h-31.34l4,52.123l20,74h17.466
							c-5.438-21.387-11.283-65.006-12.054-82.676C171.667,269.468,170.608,258.725,172.978,249.406z"/>
						<path style="fill:#ECA85E;" d="M270.199,342.143h-41.917l-17.353-108.956h-30.922c-2.988,5.139-5.568,10.477-7.029,16.22
							c-2.37,9.319-1.311,20.062,5.101,27.228c0.771,17.67,6.616,61.288,12.054,82.676h80.066c1.549,0,2.805-1.256,2.805-2.805
							v-11.557C273.005,343.398,271.749,342.143,270.199,342.143z"/>
					</g>
					<path style="fill:#E58064;" d="M151.056,235.565l19.22,101.021c0.613,3.224,3.432,5.557,6.714,5.557h51.292
						c2.31,0,4.182,1.872,4.182,4.182v8.803c0,2.31-1.872,4.182-4.182,4.182h-58.474c-4.727,0-8.79-3.352-9.688-7.993
						l-21.905-113.174c-0.304-1.571,0.71-3.094,2.277-3.42l7.095-1.474C149.188,232.915,150.751,233.959,151.056,235.565z"/>
				</g>
			</g>
			<g>
				<path style="fill:#454F6B;" d="M245.964,287.143h33.87v5.5H247.87c-2.045,0-3.703-1.658-3.703-3.703l0,0
					C244.167,287.947,244.971,287.143,245.964,287.143z"/>
				<g>
					<path style="fill:#454F6B;" d="M352.748,244.976h-62.403c-1.292,0-2.426,0.861-2.774,2.105l-12.17,43.561
						c-0.281,1.005,0.475,2.001,1.519,2.001h62.403c1.292,0,2.426-0.861,2.774-2.105l12.17-43.56
						C354.547,245.972,353.791,244.976,352.748,244.976z"/>
					<path style="fill:#606F89;" d="M354.279,244.976h-62.403c-1.292,0-2.426,0.861-2.774,2.105l-12.17,43.561
						c-0.281,1.005,0.475,2.001,1.519,2.001h62.403c1.292,0,2.426-0.861,2.774-2.105l12.17-43.56
						C356.079,245.972,355.323,244.976,354.279,244.976z"/>
					<path style="fill:#FFFFFF;" d="M323.031,268.809c-1.029,3.682-4.847,6.667-8.529,6.667c-3.682,0-5.833-2.985-4.804-6.667
						c1.029-3.682,4.847-6.667,8.529-6.667C321.909,262.143,324.06,265.128,323.031,268.809z"/>
				</g>
			</g>
			<g>
				<g>
					<g>
						<polygon style="fill:#402C49;" points="261.574,334.143 251.333,334.143 265.34,355.7 276.275,344.431 						"/>
						<path style="fill:#56438C;" d="M285.912,334.5c-1.05-0.229-2.139-0.357-3.259-0.357h-21.079l14.701,10.289L285.912,334.5z"/>
						<path style="fill:#EBA58E;" d="M301.333,428.143c0.598-1.794,1.32-2.774,2.655-3.498L296,421.768l1.85-72.033
							c0.191-7.426-4.973-13.713-11.938-15.235l-9.637,9.932l3.47,2.429c7.879,5.514,9.045,16.729,2.469,23.746l-6.385,6.813
							l10.504,44.348l-1.687,6.375H301.333z"/>
						<path style="fill:#DE7274;" d="M279.745,346.86l-3.47-2.429L265.34,355.7l8.41,12.943l2.079,8.777l6.385-6.813
							C288.79,363.589,287.624,352.374,279.745,346.86z"/>
						<path style="fill:#6CA8BF;" d="M301.333,428.143h-16.687l-1.245,4.703h35.939c-2.427-2.617-5.448-4.635-8.834-5.854
							l-6.518-2.347C302.653,425.369,301.931,426.349,301.333,428.143z"/>
						<path style="fill:#D4CFBE;" d="M282.75,435.309h38.583c-0.605-0.873-1.276-1.691-1.992-2.463h-35.939L282.75,435.309z"/>
					</g>
					<g>
						<path style="fill:#D4CFBE;" d="M208,419.143l34,16.167c0-0.831-0.082-1.652-0.206-2.463l-32.236-15.328L208,419.143z"/>
						<path style="fill:#56438C;" d="M266.989,347.631l8.406-2.391c-0.154-0.126-0.291-0.263-0.451-0.384l-23.611-17.88H195
							l0.949,3.151c1.853,6.15,6.668,10.96,12.82,12.807l47.897,14.376C258.34,352.604,262.186,348.998,266.989,347.631z"/>
						<path style="fill:#EBA58E;" d="M275.395,345.24l-8.406,2.391c-4.804,1.367-8.65,4.972-10.323,9.678l-3.075,2.788
							c-6.258,5.674-11.766,12.124-16.391,19.192l-19.368,29.603l-4.782,4.984l14.136,7.891c1.476-1.476,3.429-2.437,5.858-2.264
							l-7.212-7.361l49.716-41.451C283.553,364.019,283.399,351.756,275.395,345.24z"/>
						<path style="fill:#6CA8BF;" d="M227.188,421.768l-14.136-7.891l-3.493,3.641l32.236,15.328
							c-0.514-3.362-2.051-6.506-4.46-8.965l-4.289-4.378C230.617,419.331,228.663,420.292,227.188,421.768z"/>
					</g>
				</g>
				<g>
					<path style="fill:#472948;" d="M220.49,203.624c-8.204,4.199-18.263,5.046-27.105,2.445c2.347,7.267,2.178,15.321-0.472,22.484
						c-2.103,5.683-5.672,10.723-7.897,16.359c-2.377,6.021-3.042,12.654-2.128,19.059c2.131,2.366,4.835,4.201,7.889,5.136
						c6.519,1.996,16.028-0.244,22.345-2.808c3.723-1.511,7.188-4.017,9.587-7.199C216.78,241.248,215.757,221.852,220.49,203.624z"
						/>
					<path style="fill:#654059;" d="M231.576,188.109c-0.137-3.642-2.076-6.966-7.335-7.259c-4.26-7.207-13.753-10.477-21.856-8.374
						c-8.103,2.103-14.539,8.931-17.21,16.865c-2.018,5.995-2.035,12.517-0.652,18.652c1.293,5.736,3.471,11.127,2.707,17.162
						c-1.117,8.824-8.301,16.043-9.163,24.895c-0.492,5.05,1.437,10.161,4.822,13.92c-0.915-6.405-0.25-13.038,2.128-19.059
						c2.225-5.636,5.795-10.676,7.897-16.359c2.65-7.162,2.819-15.216,0.472-22.484c8.842,2.601,18.901,1.754,27.105-2.445
						c-4.734,18.228-3.71,37.624,2.22,55.475c1.673-2.218,2.833-4.763,3.183-7.541c0.559-4.436-0.932-8.834-1.935-13.191
						c-3.061-13.301-1.519-27.616,4.303-39.961C229.816,195.109,231.712,191.751,231.576,188.109z"/>
				</g>
				<g>
					<path style="fill:#468097;" d="M208.25,224.946l6.38,0.92c1.202,0.173,2.238,0.936,2.761,2.032l11.984,25.12l3.089,8.606
						v31.019h-25.959L208.25,224.946z"/>
					<g>
						<path style="fill:#EBA58E;" d="M200.592,217.473l-1.676,9.337h6.75l4.479,0.581l0.783-4.452c-2.107-0.164-4.18-0.77-6.026-1.8
							C203.245,220.213,201.777,218.956,200.592,217.473z"/>
						<path style="fill:#DE7274;" d="M201.818,210.643l-1.226,6.83c1.184,1.483,2.653,2.74,4.311,3.665
							c1.846,1.03,3.919,1.636,6.026,1.8l1.488-8.462L201.818,210.643z"/>
					</g>
					<g>
						<polygon style="fill:#402C49;" points="210.146,292.643 223.024,292.643 206.154,233.971 						"/>
						<path style="fill:#56438C;" d="M232.639,254.486l-15.456-22.797c-1.6-2.361-4.136-3.922-6.965-4.289l-4.552-0.59l0.487,7.162
							l16.87,58.672h5.642l1.403-25.245c0.052-0.931,0.305-1.84,0.742-2.663l2.16-4.068
							C234.014,258.704,233.886,256.325,232.639,254.486z"/>
					</g>
					<g>
						<path style="fill:#6CA8BF;" d="M212.769,238.713l-4.169-10.679c-0.57-1.461-1.929-2.465-3.493-2.582l-6.685-0.499
							c-1.134-0.085-2.183,0.603-2.557,1.677l-6.994,20.066c-1.668,4.785-2.18,9.898-1.492,14.919l0.54,3.949l6.122-23.74
							l14.749,1.313l7.292,25.36l0.378-6.45C216.925,254.094,215.667,246.134,212.769,238.713z"/>
						<polygon style="fill:#468097;" points="194.041,241.824 187.919,265.564 191.625,292.643 209.822,292.643 214.667,292.643 
							216.081,268.497 208.79,243.137 						"/>
					</g>
				</g>
				<g>
					<g>
						<path style="fill:#94C7D3;" d="M204.939,246.043l6.266,34.796l4.129-1.363l-6.544-36.339c-0.723-4.016-4.461-6.765-8.51-6.258
							c-2.251,0.281-4.15,1.516-5.352,3.248c0.479-0.161,0.981-0.277,1.501-0.342C200.478,239.279,204.216,242.027,204.939,246.043z
							"/>
						<path style="fill:#6CA8BF;" d="M193.593,245.275l4.074,40.034l13.538-4.47l-6.266-34.796c-0.723-4.016-4.461-6.765-8.51-6.259
							c-0.52,0.065-1.022,0.181-1.501,0.342C193.919,241.58,193.4,243.382,193.593,245.275z"/>
					</g>
					<path style="fill:#EBA58E;" d="M213.931,279.939l1.116,6.199l31.766-10.334c2.062-0.671,4.292-0.618,6.319,0.151l9.27,3.513
						c1.616,0.612,2.802,2.014,3.14,3.708l0.79,3.966H254v-2.667l-4.833-2.667l-32.4,17.721c-5.133,2.807-11.524-0.096-12.786-5.809
						l-2.162-9.783L213.931,279.939z"/>
				</g>
				<path style="fill:#EBA58E;" d="M226.494,192.387c-5.245,5.795-14.443,7.77-22.368,7.579c-0.653,1.791-1.798,3.427-3.229,4.769
					c-0.447-2.123-2.329-3.718-4.585-3.718c-2.589,0-4.688,2.099-4.688,4.688c0,2.589,2.099,4.688,4.688,4.688
					c0.57,0,1.109-0.117,1.614-0.303c3.027,4.452,8.117,7.386,13.907,7.386c9.297,0,16.833-7.536,16.833-16.833
					C228.667,197.641,227.872,194.828,226.494,192.387z"/>
			</g>
			<g>
				<g>
					<rect x="172.667" y="292.643" style="fill:#A59B95;" width="84" height="9.333"/>
					
						<rect x="256.667" y="292.643" transform="matrix(-1 -1.224647e-16 1.224647e-16 -1 642.6667 594.6187)" style="fill:#D4CFBE;" width="129.333" height="9.333"/>
				</g>
				<g>
					<rect x="184.333" y="335.643" style="fill:#984058;" width="5.333" height="99.667"/>
					<polygon style="fill:#472948;" points="251.333,301.976 189.667,301.976 184.333,301.976 179,301.976 179,435.309 
						184.333,435.309 184.333,335.643 189.667,335.643 251.333,335.643 251.333,435.309 256.667,435.309 256.667,301.976 					"/>
					<rect x="367.667" y="335.643" style="fill:#472948;" width="5.333" height="99.667"/>
					<polygon style="fill:#984058;" points="374.784,301.976 373,301.976 367.667,301.976 262,301.976 256.667,301.976 
						256.667,435.309 262,435.309 262,335.643 367.667,335.643 373,335.643 373,435.309 378.333,435.309 378.333,301.976 					"/>
				</g>
			</g>
		</g>
	</g>
</g>
<g id="DESIGNED_BY_FREEPIK">
	<g>
		<g id="XMLID_319_">
			<g id="XMLID_338_">
				<path id="XMLID_346_" style="fill:#1D262D;" d="M259.392,472.635c-0.402,0.412-0.747,0.865-1.03,1.351l-0.432-0.224
					c-0.062-0.277-0.325-0.467-0.613-0.433c-0.308,0.036-0.528,0.315-0.491,0.623s0.315,0.528,0.622,0.492
					c0.061-0.007,0.118-0.024,0.171-0.049l0.42,0.218c-0.233,0.515-0.402,1.058-0.501,1.621l0.694,0.122
					c0.214-1.214,0.79-2.33,1.666-3.228L259.392,472.635z"/>
				<path id="XMLID_345_" style="fill:#1D262D;" d="M264.493,470.496c-0.159,0-0.317,0.006-0.474,0.016l-0.068-0.582
					c0.174-0.139,0.275-0.362,0.247-0.599c-0.043-0.365-0.374-0.627-0.739-0.584c-0.366,0.043-0.627,0.374-0.584,0.739
					c0.028,0.236,0.176,0.429,0.376,0.524l0.068,0.58c-0.664,0.108-1.304,0.308-1.914,0.6l0.304,0.636
					c0.868-0.415,1.805-0.626,2.784-0.626c0.461,0,0.923,0.049,1.371,0.147l0.149-0.689
					C265.516,470.55,265.005,470.496,264.493,470.496z"/>
				<path id="XMLID_344_" style="fill:#1D262D;" d="M270.63,472.863c0.307-0.038,0.526-0.317,0.488-0.625
					c-0.038-0.307-0.318-0.526-0.625-0.489c-0.288,0.035-0.497,0.282-0.492,0.566l-0.387,0.337c-0.389-0.4-0.827-0.755-1.309-1.059
					l-0.376,0.596c1.054,0.664,1.878,1.605,2.383,2.719l0.642-0.291c-0.233-0.515-0.527-0.996-0.876-1.436l0.374-0.326
					C270.51,472.868,270.57,472.871,270.63,472.863z"/>
				<path id="XMLID_343_" style="fill:#1D262D;" d="M263.984,479.985c-0.359,0.022-0.72,0.032-1.076,0.032
					c-0.818,0-1.611-0.056-2.304-0.167c-0.363-0.057-0.786-0.144-1.181-0.271c0.973,1.73,2.853,2.905,5.009,2.905
					c2.654,0,4.892-1.781,5.53-4.186c-0.634,0.418-1.399,0.767-2.285,1.044C266.582,479.683,265.303,479.905,263.984,479.985z"/>
				<path id="XMLID_339_" style="fill:#1D262D;" d="M264.493,471.905c-3.116,0-5.651,2.479-5.651,5.525
					c0,0.396,0.043,0.789,0.127,1.173c0.626,0.449,2.515,0.827,4.971,0.679c2.677-0.161,4.924-0.89,6.202-2.006
					c-0.005-0.181-0.019-0.362-0.042-0.541C269.747,473.981,267.336,471.905,264.493,471.905z M262.486,477.961
					c-0.948,0-1.719-0.771-1.719-1.719s0.771-1.72,1.719-1.72s1.719,0.771,1.719,1.72S263.434,477.961,262.486,477.961z
					 M266.89,477.116c-0.697,0-1.264-0.567-1.264-1.264c0-0.697,0.567-1.265,1.264-1.265c0.697,0,1.265,0.567,1.265,1.265
					C268.154,476.549,267.587,477.116,266.89,477.116z"/>
			</g>
			<path id="XMLID_336_" style="fill:#1D262D;" d="M279.369,473.641c-0.274-0.108-0.749-0.287-1.285-0.221
				c-0.512,0.064-0.784,0.316-0.784,0.936v0.805h2.071v1.596H277.3v5.07h-1.796v-5.07h-1.245v-1.596h1.245v-0.826
				c0-1.562,0.832-2.587,2.387-2.587c0.597,0,1.076,0.113,1.478,0.286L279.369,473.641z"/>
			<path id="XMLID_334_" style="fill:#1D262D;" d="M283.74,476.738c-0.164-0.028-0.332-0.043-0.489-0.043
				c-0.832,0-1.403,0.509-1.403,1.5v3.633h-1.796v-6.667h1.741v0.729c0.42-0.626,1.06-0.908,1.878-0.908
				c0.385,0,0.788,0.119,1.017,0.313L283.74,476.738z"/>
			<path id="XMLID_331_" style="fill:#1D262D;" d="M290.867,478.483c0,0.207-0.014,0.454-0.034,0.605h-4.726
				c0.193,0.963,0.867,1.383,1.713,1.383c0.578,0,1.204-0.234,1.686-0.64l1.053,1.156c-0.757,0.695-1.72,1.011-2.841,1.011
				c-2.043,0-3.461-1.39-3.461-3.488c0-2.098,1.376-3.53,3.371-3.53C289.547,474.982,290.861,476.406,290.867,478.483z
				 M286.113,477.864h2.951c-0.165-0.853-0.681-1.335-1.452-1.335C286.767,476.53,286.272,477.039,286.113,477.864z"/>
			<path id="XMLID_328_" style="fill:#1D262D;" d="M297.982,478.483c0,0.207-0.014,0.454-0.034,0.605h-4.727
				c0.192,0.963,0.867,1.383,1.713,1.383c0.578,0,1.204-0.234,1.686-0.64l1.052,1.156c-0.757,0.695-1.72,1.011-2.841,1.011
				c-2.043,0-3.461-1.39-3.461-3.488c0-2.098,1.376-3.53,3.371-3.53C296.66,474.982,297.975,476.406,297.982,478.483z
				 M293.227,477.864h2.952c-0.165-0.853-0.681-1.335-1.452-1.335C293.881,476.53,293.386,477.039,293.227,477.864z"/>
			<path id="XMLID_325_" style="fill:#1D262D;" d="M305.739,478.491c0,2.002-1.39,3.509-3.227,3.509
				c-0.894,0-1.527-0.351-1.961-0.867v3.447h-1.789v-9.419h1.754v0.736c0.434-0.543,1.073-0.915,1.988-0.915
				C304.35,474.982,305.739,476.488,305.739,478.491z M300.462,478.491c0,1.052,0.695,1.837,1.713,1.837
				c1.06,0,1.72-0.819,1.72-1.837c0-1.018-0.66-1.837-1.72-1.837C301.157,476.654,300.462,477.438,300.462,478.491z"/>
			<path id="XMLID_322_" style="fill:#1D262D;" d="M308.624,472.98c0,0.647-0.502,1.142-1.149,1.142s-1.142-0.495-1.142-1.142
				c0-0.647,0.495-1.156,1.142-1.156S308.624,472.333,308.624,472.98z M308.383,481.827h-1.796v-6.667h1.796V481.827z"/>
			<path id="XMLID_320_" style="fill:#1D262D;" d="M311.38,477.534l2.511-2.374h2.202l-3.234,3.137l3.254,3.529h-2.208l-2.525-2.697
				v2.697h-1.796v-9.907h1.796V477.534z"/>
		</g>
		<g>
			<path style="fill:#1D262D;" d="M189.033,481.767v-0.98c-0.49,0.667-1.293,1.144-2.219,1.144c-1.716,0-2.927-1.307-2.927-3.445
				c0-2.097,1.198-3.459,2.927-3.459c0.885,0,1.688,0.436,2.219,1.157v-3.499h1.021v9.082H189.033z M189.033,479.983v-2.982
				c-0.368-0.572-1.157-1.062-1.974-1.062c-1.321,0-2.11,1.089-2.11,2.546c0,1.457,0.79,2.532,2.11,2.532
				C187.876,481.018,188.666,480.555,189.033,479.983z"/>
			<path style="fill:#1D262D;" d="M191.375,478.472c0-1.906,1.361-3.445,3.24-3.445c1.988,0,3.159,1.552,3.159,3.526v0.259h-5.324
				c0.082,1.239,0.953,2.274,2.369,2.274c0.749,0,1.511-0.3,2.029-0.831l0.49,0.667c-0.654,0.654-1.538,1.008-2.614,1.008
				C192.778,481.93,191.375,480.528,191.375,478.472z M194.602,475.871c-1.403,0-2.097,1.184-2.151,2.192h4.316
				C196.753,477.083,196.1,475.871,194.602,475.871z"/>
			<path style="fill:#1D262D;" d="M198.51,480.895l0.531-0.735c0.436,0.504,1.266,0.94,2.165,0.94c1.008,0,1.552-0.477,1.552-1.13
				c0-1.593-4.071-0.613-4.071-3.05c0-1.021,0.885-1.892,2.451-1.892c1.117,0,1.906,0.422,2.437,0.953l-0.477,0.708
				c-0.395-0.477-1.116-0.831-1.961-0.831c-0.898,0-1.457,0.449-1.457,1.035c0,1.443,4.071,0.49,4.071,3.05
				c0,1.103-0.885,1.988-2.587,1.988C200.089,481.93,199.177,481.603,198.51,480.895z"/>
			<path style="fill:#1D262D;" d="M204.896,473.57c0-0.381,0.313-0.694,0.681-0.694c0.381,0,0.694,0.313,0.694,0.694
				c0,0.381-0.313,0.681-0.694,0.681C205.209,474.251,204.896,473.951,204.896,473.57z M205.072,481.767v-6.576h1.021v6.576H205.072
				z"/>
			<path style="fill:#1D262D;" d="M207.782,483.455l0.517-0.763c0.545,0.654,1.198,0.899,2.138,0.899c1.089,0,2.11-0.531,2.11-1.974
				v-0.94c-0.477,0.667-1.28,1.171-2.206,1.171c-1.715,0-2.927-1.28-2.927-3.404c0-2.11,1.198-3.417,2.927-3.417
				c0.885,0,1.675,0.436,2.206,1.157v-0.994h1.021v6.386c0,2.179-1.525,2.859-3.132,2.859
				C209.32,484.436,208.558,484.218,207.782,483.455z M212.547,479.874v-2.873c-0.354-0.572-1.144-1.062-1.961-1.062
				c-1.321,0-2.11,1.048-2.11,2.505c0,1.444,0.79,2.505,2.11,2.505C211.404,480.95,212.193,480.446,212.547,479.874z"/>
			<path style="fill:#1D262D;" d="M219.709,481.767v-4.303c0-1.157-0.585-1.525-1.471-1.525c-0.803,0-1.566,0.49-1.947,1.021v4.806
				h-1.021v-6.576h1.021v0.953c0.463-0.545,1.361-1.117,2.342-1.117c1.375,0,2.097,0.694,2.097,2.124v4.616H219.709z"/>
			<path style="fill:#1D262D;" d="M222.051,478.472c0-1.906,1.362-3.445,3.241-3.445c1.988,0,3.159,1.552,3.159,3.526v0.259h-5.324
				c0.082,1.239,0.953,2.274,2.369,2.274c0.749,0,1.511-0.3,2.029-0.831l0.49,0.667c-0.654,0.654-1.539,1.008-2.614,1.008
				C223.453,481.93,222.051,480.528,222.051,478.472z M225.278,475.871c-1.403,0-2.097,1.184-2.151,2.192h4.316
				C227.429,477.083,226.776,475.871,225.278,475.871z"/>
			<path style="fill:#1D262D;" d="M234.523,481.767v-0.98c-0.49,0.667-1.293,1.144-2.22,1.144c-1.715,0-2.927-1.307-2.927-3.445
				c0-2.097,1.198-3.459,2.927-3.459c0.885,0,1.689,0.436,2.22,1.157v-3.499h1.021v9.082H234.523z M234.523,479.983v-2.982
				c-0.368-0.572-1.157-1.062-1.974-1.062c-1.321,0-2.11,1.089-2.11,2.546c0,1.457,0.789,2.532,2.11,2.532
				C233.366,481.018,234.155,480.555,234.523,479.983z"/>
			<path style="fill:#1D262D;" d="M240.418,481.767v-9.082h1.021v3.499c0.531-0.722,1.321-1.157,2.22-1.157
				c1.715,0,2.927,1.361,2.927,3.459c0,2.137-1.212,3.445-2.927,3.445c-0.926,0-1.729-0.477-2.22-1.144v0.98H240.418z
				 M243.4,481.018c1.335,0,2.124-1.076,2.124-2.532c0-1.457-0.79-2.546-2.124-2.546c-0.803,0-1.607,0.49-1.961,1.062v2.982
				C241.793,480.555,242.597,481.018,243.4,481.018z"/>
			<path style="fill:#1D262D;" d="M247.703,483.414c0.15,0.068,0.395,0.109,0.558,0.109c0.449,0,0.749-0.15,0.98-0.694l0.436-0.994
				l-2.751-6.645h1.103l2.192,5.392l2.179-5.392h1.116l-3.295,7.911c-0.395,0.953-1.062,1.321-1.934,1.334
				c-0.218,0-0.558-0.041-0.749-0.095L247.703,483.414z"/>
		</g>
	</g>
</g>
</svg>
