<?xml version="1.0" encoding="utf-8"?>
<!-- Generator: Adobe Illustrator 27.5.0, SVG Export Plug-In . SVG Version: 6.00 Build 0)  -->
<svg version="1.1" xmlns="http://www.w3.org/2000/svg" xmlns:xlink="http://www.w3.org/1999/xlink" x="0px" y="0px"
	 viewBox="0 0 500 500" style="enable-background:new 0 0 500 500;" xml:space="preserve">
<g id="BACKGROUND">
	<rect style="fill:#FFFFFF;" width="500" height="500"/>
</g>
<g id="OBJECTS">
	<g>
		<g>
			<g>
				<path style="fill:#DDEDEE;" d="M277.053,411.863c-44.835,7.264-81.55,6.126-122.935-3.346
					c-47.595-10.893-98.555-48.927-96.273-105.183s31.656-71.425,53.546-73.129c16.333-1.271,32.299,4.398,47.887,9.438
					c40.376,13.053,68.776,18.99,111.037,15.167c65.213-5.9,101.247-39.963,136.264-21.925
					c30.337,15.628,45.823,61.995,14.402,104.259C386.628,383.35,337.247,402.111,277.053,411.863z"/>
			</g>
			<path style="fill:none;stroke:#DDEDEE;stroke-width:3;stroke-miterlimit:10;" d="M281.902,410.147
				c-44.373,9.697-81.095,10.562-122.935,3.36c-48.118-8.282-101.075-43.482-101.864-99.779
				c-0.788-56.297,27.716-73.044,49.48-75.939c16.24-2.16,32.491,2.631,48.331,6.813c41.028,10.833,69.709,15.213,111.699,9.091
				c64.795-9.446,98.919-45.423,134.866-29.32c31.144,13.951,49.134,59.405,20.063,103.319
				C389.759,375.703,341.474,397.128,281.902,410.147z"/>
			<g>
				<path style="fill:#DDEDEE;" d="M375.363,198.001h75.984c0,0-3.406-12.839-14.149-6.288
					c-4.978-17.555-23.319-13.625-27.512-2.882c-2.62-7.598-10.668-2.882-10.144,1.572
					C391.682,182.28,378.339,188.238,375.363,198.001z"/>
				<path style="fill:#DDEDEE;" d="M189.802,123.177h-37.075c0,0,1.662-6.264,6.904-3.068c2.429-8.566,11.378-6.648,13.424-1.406
					c1.278-3.708,5.205-1.406,4.95,0.767C181.84,115.506,188.35,118.413,189.802,123.177z"/>
				<path style="fill:#DDEDEE;" d="M60.489,176.97c0,0,59.398,0,71.542,0c0-8.448-14.256-16.632-26.927-7.128
					c-0.528-18.479-27.455-16.632-29.303,2.112C63.129,167.202,60.489,176.97,60.489,176.97z"/>
			</g>
		</g>
		<g>
			<g>
				<path style="fill:#412308;" d="M345.096,207.511c-3.927,2.09-4.37,8.804-3.104,13.808c1.267,5.004,10.481,22.865,5.477,33.886
					c12.339-0.191,17.169-7.7,17.169-7.7s2.437-14.912-0.794-21.246C360.614,219.926,345.096,207.511,345.096,207.511z"/>
				<path style="fill:#E5AC2F;" d="M360.163,258.59c-2.487-0.355-4.017-0.676-8.957,5.891c-5.11,6.793-7.142,10.971-11.542,17.013
					c-4.385,6.021-2.923,8.951,0.721,10.4c6.191,2.461,13.675,2.504,13.675,2.504l-4.177-9.778L360.163,258.59z"/>
				<path style="opacity:0.23;fill:#76B6BA;" d="M409.142,444.953c0,3.667-19.639,6.639-43.865,6.639s-43.865-2.972-43.865-6.639
					c0-3.667,19.639-6.639,43.865-6.639S409.142,441.287,409.142,444.953z"/>
				<path style="fill:#0E1920;" d="M359.114,435.107l1.372,8.464h-19.902c0,0,0-1.296,1.678-1.906
					c1.677-0.61,10.218-2.059,12.2-3.203c1.983-1.144,1.83-3.126,1.83-3.126L359.114,435.107z"/>
				<path style="fill:#0E1920;" d="M392.196,438.676l1.372,8.464h-19.901c0,0,0-1.296,1.678-1.906
					c1.677-0.61,10.218-2.059,12.2-3.203c1.982-1.144,1.83-3.126,1.83-3.126L392.196,438.676z"/>
				<path style="fill:#345C68;" d="M345.322,316.776c-0.993,6.812,3.69,48.961,5.819,72.093c2.129,23.132,4.541,47.719,4.541,47.719
					l3.974-0.71c0,0,7.663-51.834,7.522-64.181c-0.142-12.347-10.502-52.367-10.502-52.367L345.322,316.776z"/>
				<path style="fill:#3E6E7D;" d="M348.302,318.763c0.426,4.683,13.056,43.852,22.565,70.106c9.508,26.254,17.376,50.9,17.376,50.9
					h5.961c0,0-8.577-66.794-10.848-81.411c-2.271-14.617-1.135-30.654-6.67-43.284
					C370.299,309.965,348.302,318.763,348.302,318.763z"/>
				<path style="fill:#F1CC30;" d="M361.182,256.024c-1.648,0.457-3.323,3.064-7.73,8.34c-3.273,3.918-9.49,9.425-9.15,12.556
					c0.34,3.131,2.927,5.922,5.173,6.33c-0.953,6.33-4.696,26.001-6.534,33.76c4.333,6.967,28.862,5.265,34.975-2.55
					c-2.042-4.356-4.074-21.885-3.461-30.121c0.613-8.236-0.073-17.856-1.679-23.051C371.2,256.19,365.065,254.947,361.182,256.024z
					"/>
				<path style="fill:#E5AC2F;" d="M369.145,260.829c1.091-1.77,2.751-2.298,4.248-1.885c1.945,0.536,3.756,3.286,3.554,10.596
					c-0.107,3.878-3.524,26.976-5.96,29.279c-3.275,3.097-10.165-2.092-8.525-6.014c1.64-3.922,3.21-7.999,4.155-13.574
					C367.755,272.533,367.853,262.924,369.145,260.829z"/>
				<path style="fill:#EBC280;" d="M347.884,283.823c-3.774-0.697-6.496,1.192-4.993,2.736
					C345.022,286.221,347.884,283.823,347.884,283.823z"/>
				<path style="fill:#E5AC2F;" d="M367.415,288.517c-2.501-1.251-7.762-3.08-19.234-4.849c-3.242,0.061-5.562,2.865-5.562,2.865
					s13.541,9.487,18.364,12.108c4.824,2.62,8.754,2.978,10.6-0.596C373.43,294.472,367.415,288.517,367.415,288.517z"/>
				<path style="fill:#EBC280;" d="M361.936,286.685c4.281-2.032,10.456-0.991,12.698,3.991c1.959,4.354-0.113,7.857-2.394,4.789
					c-2.104-2.83-2.83-5.442-6.095-6.821C364.838,287.774,361.936,286.685,361.936,286.685z"/>
				<path style="fill:#DAA05E;" d="M357.914,259.888c-1.481,1.805-2.89,4.272-0.82,4.996c2.07,0.725,7.764-2.588,9.421-6.522
					c1.656-3.934-1.242-15.528-1.242-15.528l-5.073,0.104c0,0,0.271,8.817,0.271,11.54
					C360.471,256.023,359.817,257.569,357.914,259.888z"/>
				<g>
					<path style="fill:#EBC280;" d="M369.809,247.063c0,0-19.905,8.02-23.993,3.419c-0.74-0.834-1.141-1.726-1.911-4.161
						c-0.222-0.708-0.987-3.599-1.158-4.358c-1.557-6.963-2.372-16.048-0.577-22.028c2.964-9.875,11.939-17.458,21.366-13.825
						C372.96,209.743,394.319,217.504,369.809,247.063z"/>
					<path style="fill:#EBC280;" d="M346.062,228.919c0.02-0.011,0.026-0.015,0.049-0.024l-0.47-1.272
						c-2.673,2.868-5.801,4.874-8.672,7.024c5.656,5.83,11.698,0.895,10.517-6.036C346.915,228.608,346.366,228.793,346.062,228.919
						C345.72,229.101,345.773,229.04,346.062,228.919z"/>
					<g>
						
							<linearGradient id="SVGID_1_" gradientUnits="userSpaceOnUse" x1="-1735.3141" y1="2100.8528" x2="-1733.7894" y2="2106.0256" gradientTransform="matrix(-0.9934 0.1149 0.1149 0.9934 -1618.8007 -1662.1919)">
							<stop  offset="0" style="stop-color:#DA9C68"/>
							<stop  offset="1" style="stop-color:#DA9C68;stop-opacity:0"/>
						</linearGradient>
						<path style="fill:url(#SVGID_1_);" d="M344.101,224.828c-1.972,2.954-2.647,5.862,1.616,6.825
							c4.263,0.963,3.522-4.839,3.522-4.839S346.043,225.304,344.101,224.828z"/>
						<path style="fill:#643619;" d="M343.055,229.328c0.038,0.326,0.333,0.56,0.659,0.522c0.326-0.038,0.56-0.333,0.522-0.659
							c-0.038-0.326-0.333-0.56-0.659-0.522C343.251,228.707,343.018,229.002,343.055,229.328z"/>
						<path style="fill:#994D1D;" d="M345.294,224.974c4.639,1.377,4.821,2.429,2.585,1.778
							C344.832,225.865,342.129,224.035,345.294,224.974z"/>
					</g>
					<g>
						<path style="fill:#994D1D;" d="M347.977,243.634c0.998-0.134,1.809-0.61,2.56-1.182c0.378-0.283,0.726-0.606,1.068-0.941
							c0.335-0.342,0.647-0.704,0.912-1.131c-0.055,0.508-0.305,0.978-0.593,1.395c-0.288,0.424-0.656,0.787-1.06,1.104
							c-0.411,0.306-0.865,0.571-1.366,0.714C349.005,243.742,348.463,243.791,347.977,243.634z"/>
					</g>
				</g>
			</g>
			<g>
				<ellipse style="opacity:0.23;fill:#76B6BA;" cx="161.875" cy="449" rx="36.45" ry="5.517"/>
				<path style="fill:#254148;" d="M146.486,443.301c0,0-3.026,6.106-1.454,6.734c1.571,0.629,8.704,0.623,7.943-1.164
					c-0.761-1.787-3.774-5.409-3.774-5.409L146.486,443.301z"/>
				<path style="fill:#254148;" d="M168.772,442.669c-1.973,2.806-4.56,6.927-1.798,7.146c2.762,0.219,18.885,0,20.773,0
					c0.117-1.505-1.126-1.454-12.864-3.229c-1.643-0.248-1.113-3.303-1.113-3.303L168.772,442.669z"/>
				<path style="fill:#345C68;" d="M194.373,384.82c-1.62-8.315-7.505-38.986-10.543-54.824
					c-4.833,9.937-16.989,12.976-24.039,16.048c5.914,15.692,14.111,37.087,16.002,42.758c0.626,1.877,0.885,3.687,0,6.636
					c-0.885,2.949-9.585,47.925-9.585,47.925l9.733,2.064c0,0,16.663-44.091,18.137-48.662
					C195.553,392.193,195.007,388.073,194.373,384.82z"/>
				<path style="fill:#3E6E7D;" d="M184.166,321.832c-0.565,0.106-34.798,3.882-40.402,4.325c-1.101-0.103-1.999-0.215-2.624-0.322
					l2.654,119.296l8.405-1.032c0,0,8.247-83.764,9.862-98.754c0.111-0.047,19.3-3.854,21.769-15.349
					C184.376,327.454,184.531,324.731,184.166,321.832z"/>
				<path style="fill:#ECC78E;" d="M211.864,273.436c0.29-0.455-0.447-8.566-0.447-8.566l2.357-5.85l3.56-4.286l1.09,0.231
					l-2.432,4.35l-1.245,3.255l3.609-5.14l4.383-6.88l1.199,0.678l-4.241,8.596l5.533-7.579l0.458,0.52l-4.059,7.914l4.689-4.911
					l0.429,1.006l-3.671,5.268l2.388-2.785l0.193,0.843l-5.169,6.575l-7.017,7.798L211.864,273.436z"/>
				<path style="fill:#91B242;" d="M164.964,256.509c8.597,1.335,15.546,4.674,19.474,12.433c3.473,6.86,8.356,17.959,8.999,19.246
					c0.643,1.286,1.849,1.045,3.055-0.322c1.206-1.367,14.392-19.216,14.392-19.216s3.055,0.965,4.583,3.779
					c-5.226,12.141-13.186,28.222-14.633,30.312c-1.447,2.09-5.146,2.251-7.076,1.126c-1.93-1.126-15.438-10.533-15.438-10.533
					S166.09,261.493,164.964,256.509z"/>
				<path style="fill:#BFCD3C;" d="M154.668,256.202c-8.281,1.316-15.551,5.044-15.551,17.12c0,6.233,0.947,56.035,0.947,56.035
					s31.913,4.598,44.083-5.679c-1.217-17.309-5.15-44.842-6.646-52.173C175.363,261.032,169.137,253.903,154.668,256.202z"/>
				<path style="fill:#ECC78E;" d="M135.995,335.371c0.064,0.602,6.373,7.214,6.373,7.214l2.014,6.786l-0.135,6.252l-1.118,0.558
					l-0.901-5.521l-1.179-3.729l0.418,7.036l0.952,9.105l-1.527,0.241l-2.276-10.514l0.43,10.523l-0.765-0.137l-1.959-9.788
					l-0.691,7.589l-1.079-0.585l-0.453-7.192l-0.154,4.114l-0.758-0.606l-0.049-9.386l0.721-11.751L135.995,335.371z"/>
				<g>
					<path style="fill:#DBBDA6;" d="M163.631,255.078c0,0,0.074,3.716,0.131,4.435c0.058,0.719-8.71,2.265-9.277-1.76
						c-0.206-1.463-0.181-3.77-0.181-3.77C158.199,255.367,162.048,255.235,163.631,255.078z"/>
					<path style="fill:#BF9C80;" d="M154.304,253.983l-0.131-4.445l9.287-0.24l0.171,5.779
						C162.048,255.235,158.199,255.367,154.304,253.983z"/>
				</g>
				<g>
					<path style="fill:#381C14;" d="M172.902,249.071c0,0,9.339-10.282,9.55-24.409c0.23-15.327-9.044-21.758-20.695-21.933
						c-12.803-0.192-18.727,4.019-22.751,12.241c-3.62,7.395-2.389,14.95,0.523,21.861
						C144.044,247.542,153.97,249.525,172.902,249.071z"/>
					<path style="fill:#DBBDA6;" d="M180.251,225.927c0,13.209,1.285,17.6-0.832,21.437c-1.993,3.612-7.906,8.589-21.72,5.133
						c-9.895-2.475-12.384-10.08-12.384-10.08s-1.315,0.779-3.031,0.551c-1.423-0.189-3.313-1.595-3.139-4.1
						c0.243-3.491,1.854-4.544,3.195-4.915c2.393-0.662,4.006,1.609,4.006,1.609s0.003-5.023,0.568-8.718
						c0.565-3.695,1.188-7.571,18.65-8.641c4.314-0.264,10.155-0.371,12.468,0.733C180.171,219.956,180.251,222.375,180.251,225.927
						z"/>
					<g>
						<g>
							<path style="fill:#926053;" d="M169.468,236.024c0.586-0.323,1.232-0.558,1.916-0.639c0.674-0.074,1.428,0.003,2.017,0.495
								c0.273,0.25,0.461,0.676,0.36,1.054c-0.01,0.196-0.124,0.349-0.185,0.523c-0.104,0.144-0.207,0.291-0.325,0.42
								c-0.486,0.508-1.1,0.816-1.711,1.081c0.537-0.398,1.098-0.765,1.498-1.268c0.417-0.47,0.588-1.171,0.111-1.542
								c-0.426-0.4-1.114-0.502-1.747-0.482C170.755,235.686,170.113,235.841,169.468,236.024z"/>
						</g>
					</g>
					<g>
						<path style="fill:#926053;" d="M161.211,244.841c-0.082,0.77,0.38,1.454,0.886,1.945c0.525,0.498,1.206,0.814,1.929,0.914
							c0.72,0.129,1.467,0.081,2.21-0.024c0.372-0.05,0.739-0.148,1.113-0.219c0.369-0.096,0.734-0.207,1.114-0.291
							c-0.339,0.183-0.692,0.34-1.043,0.512c-0.368,0.118-0.734,0.259-1.113,0.355c-0.762,0.185-1.563,0.238-2.362,0.133
							c-0.787-0.147-1.575-0.507-2.108-1.128C161.323,246.445,160.927,245.601,161.211,244.841z"/>
					</g>
					<g>
						
							<linearGradient id="SVGID_00000040558930218158603450000009401969693077307051_" gradientUnits="userSpaceOnUse" x1="1741.9707" y1="1283.6547" x2="1739.8035" y2="1288.6843" gradientTransform="matrix(-0.9915 -0.13 -0.13 0.9915 2058.075 -817.3545)">
							<stop  offset="0" style="stop-color:#B88F6C"/>
							<stop  offset="1" style="stop-color:#B88F6C;stop-opacity:0"/>
						</linearGradient>
						<path style="fill:url(#SVGID_00000040558930218158603450000009401969693077307051_);" d="M167.635,228.154
							c0.408,1.555,1.872,6.085-2.532,7.009c-4.404,0.924-4.015-4.587-4.015-4.587S165.628,228.614,167.635,228.154z"/>
						<path style="fill:#5E443D;" d="M166.64,227.99c-5.058,0.989-7.605,3.365-4.366,2.936
							C165.513,230.497,169.975,227.337,166.64,227.99z"/>
						<path style="fill:none;stroke:#452F20;stroke-width:0.6145;stroke-miterlimit:10;" d="M167.411,235.033
							c-0.789-1.766-2.704-1.475-3.287,0.358"/>
					</g>
					<g>
						
							<linearGradient id="SVGID_00000001637923940967862060000006267293170259443605_" gradientUnits="userSpaceOnUse" x1="1730.4156" y1="1282.3894" x2="1731.2335" y2="1287.5828" gradientTransform="matrix(-0.9915 -0.13 -0.13 0.9915 2058.075 -817.3545)">
							<stop  offset="0" style="stop-color:#B88F6C"/>
							<stop  offset="1" style="stop-color:#B88F6C;stop-opacity:0"/>
						</linearGradient>
						<path style="fill:url(#SVGID_00000001637923940967862060000006267293170259443605_);" d="M173.034,227.988
							c-0.424,1.197-1.855,5.531,1.549,6.551c3.405,1.019,3.531-4.568,3.531-4.568S174.583,228.483,173.034,227.988z"/>
						<path style="fill:#5E443D;" d="M173.894,227.869c3.762,0.682,6.066,3.092,2.649,2.245
							C173.126,229.267,171.93,227.512,173.894,227.869z"/>
						<path style="fill:none;stroke:#452F20;stroke-width:0.6145;stroke-miterlimit:10;" d="M175.768,234.379
							c-0.591-2.184-2.921-1.879-3.201-0.176"/>
					</g>
					<path style="fill:#381C14;" d="M146.435,219.708c1.912,1.885,3.671,2.705,12.213,3.028c12.213,0.462,20.422-2.436,21.011-3.029
						l-2.767-6.851c-2.21-0.791-8.655-2.773-16.419-0.533C151.955,214.782,147.734,217.88,146.435,219.708z"/>
				</g>
			</g>
			<g>
				<g>
					<path style="opacity:0.23;fill:#76B6BA;" d="M306.688,447.8c0,3.047-16.319,5.517-36.45,5.517
						c-20.131,0-36.45-2.47-36.45-5.517c0-3.047,16.319-5.517,36.45-5.517C290.369,442.283,306.688,444.753,306.688,447.8z"/>
					<path style="fill:#0E1920;" d="M253.66,440.651c-1.22,2.135-5.619,6.904-0.815,7.209s8.669,0.264,7.144-2.405
						c-1.525-2.669-2.669-4.728-2.669-4.728L253.66,440.651z"/>
					<path style="fill:#0E1920;" d="M273.526,437.599l-1.373,8.464h19.901c0,0,0-1.296-1.677-1.906
						c-1.678-0.61-10.218-2.059-12.2-3.203c-1.983-1.144-1.83-3.126-1.83-3.126L273.526,437.599z"/>
					<path style="fill:#1F3649;" d="M290.057,326.955c0.556,7.924-1.112,37.671-3.614,57.272c-2.502,19.6-9.314,54.353-9.314,54.353
						l-4.448-0.695c0,0-1.529-57.828-2.224-70.756c-0.695-12.928,2.502-29.47,2.502-29.47L290.057,326.955z"/>
					<path style="fill:#274658;" d="M290.706,324.27c-0.093,3.089-0.943,17.863-14.551,20.313
						c-19.145,3.447-26.778-8.926-25.395-18.229C271.63,330.125,290.706,324.27,290.706,324.27z"/>
					<path style="fill:#274658;" d="M278.193,341.335c-1.056,4.223-8.622,37.654-12.669,57.008
						c-4.047,19.355-6.327,41.998-6.327,41.998s-2.641,2.919-7.645,0c-0.139-12.233-1.668-96.427-0.278-110.328
						C260.587,341.69,278.193,341.335,278.193,341.335z"/>
					<path style="fill:#5699B4;" d="M276.964,260.359c5.535,0.494,9.42,3.422,12.057,8.137c3.316,5.929,5.502,12.439,6.697,15.831
						c1.989,5.643-0.254,15.728-6.279,11.669C287.252,294.522,277.684,264.994,276.964,260.359z"/>
					<path style="fill:#79BDD2;" d="M266.331,258.903c-9.728,1.262-15.117,7.677-16.889,16.771
						c-1.772,9.094-0.644,43.499,0.489,51.569c10.798,3.611,31.917,3.611,41.304-1.317c-0.283-12.459-1.802-39.176-2.793-49.086
						C287.45,266.93,280.183,257.107,266.331,258.903z"/>
					<g>
						<path style="fill:#F1CA8E;" d="M245.07,295.223c3.346,0.541,4.563,7.726,5.273,11.48l0.622,28.785l-5.398-0.263
							c0,0-4.421-22.307-4.652-28.276C240.684,300.981,242.37,294.787,245.07,295.223z"/>
						<path style="fill:#F1CA8E;" d="M244.49,284.389c0,0-2.482,12.782-3.112,16.264c-0.63,3.483,2.186,6.78,4.927,7.484
							c2.742,0.704,3.593,0.579,4.038-1.433c0.445-2.012,4.557-19.499,4.557-19.499L244.49,284.389z"/>
						<path style="fill:#F1CA8E;" d="M248.956,330.652c-0.011,0.48,3.89,7.892,3.89,7.892l1.615,7.102l-0.853,0.954l-3.161-6.269
							l-0.298,5.359l-0.864,7.732l-1.41,0.037l-0.174-8.985l-0.801,8.335l-0.675-0.185l-0.671-7.912l0.478,7.171l-0.91-0.572
							l-1.323-6.864l0.55,5.938l-0.943-0.677l-1.295-6.553l3.738-12.422L248.956,330.652z"/>
					</g>
					<path style="fill:#5699B4;" d="M259.355,264.092c-4.847-3.677-12.007,0.066-17.54,19.919
						c7.204,4.094,15.482,4.154,15.482,4.154S265.103,268.453,259.355,264.092z"/>
					<path style="fill:#F1CA8E;" d="M295.351,298.173c-4.434,0.704-6.907-5.698-4.808-11.076c2.099-5.379,4.305-15.273,4.607-23.721
						c0.066-1.902,3.888-1.921,3.823,0.899c-0.066,2.82,0.099,11.37,0.451,22.383C299.609,292.451,298.519,297.67,295.351,298.173z"
						/>
					<path style="fill:#E5B381;" d="M275.337,250.884c-0.075,5.85-0.15,8.175,0.075,10.05c0.332,2.764,2.925,7.275,0.45,8.625
						s-8.51-4.236-10.125-7.725c-0.811-1.752-0.714-2.127-0.757-3.408c-0.082-2.451-0.218-8.443-0.218-8.443L275.337,250.884z"/>
					<g>
						<path style="fill:#994D1D;" d="M250.207,229.643c-0.406,0.54-0.474,8.581,3.675,15.092c4.149,6.511,12.877,7.677,13.345,7.012
							C267.697,251.082,262.832,212.825,250.207,229.643z"/>
						<path style="fill:#F1CA8E;" d="M288.548,239.549c-1.057,12.63-8.379,18.351-16.732,18.351
							c-11.315,0-18.322-14.465-18.392-26.28c-0.071-11.816-3.323-20.299,15.177-20.616
							C288.995,210.655,290.347,218.043,288.548,239.549z"/>
						<path style="fill:#F1CA8E;" d="M283.846,233.872c0.285,3.083,1.387,5.015,3.676,4.802c2.29-0.212,5.828-3.214,5.542-6.297
							c-0.287-3.083-2.374-5.41-4.665-5.199C286.108,227.391,283.56,230.788,283.846,233.872z"/>
						<path style="fill:#994D1D;" d="M289.474,233.416c1.863-5.346,1.349-12.772,1.238-16.928
							c-0.254-9.56-5.972-11.264-10.325-12.364c0.756-0.019,0.246-0.478,0.999-0.472c-2.923-2.538-11.15-3.914-14.31-1.962
							c-5.3,0.927-8.579,2.144-11.804,4.899c-6.799,5.803-6.918,13.89-4.286,27.078c0.636,0.246,3.546,2.462,4.241,2.424
							c-1.714-5.282-1.433-16.178,4.109-19.07c2.679-1.397,6.024-0.52,8.806-0.221c2.137,0.23,8.424,0.025,12.697-0.632
							c2.382-0.423,4.147-0.001,4.685,0.618c2.707,3.119,4.091,7.119,3.445,14.548C288.964,232.24,289.075,233.016,289.474,233.416z
							"/>
						<path style="fill:#F1CA8E;" d="M257.093,233.482c1.175,2.865,1.181,5.051-0.731,5.833c-1.908,0.783-6.075-0.386-7.251-3.251
							c-1.173-2.865-0.576-5.821,1.336-6.607C252.356,228.675,255.919,230.615,257.093,233.482z"/>
						<g>
							
								<linearGradient id="SVGID_00000153698753109475290060000011613287965559751569_" gradientUnits="userSpaceOnUse" x1="494.1003" y1="172.1913" x2="489.5536" y2="175.0176" gradientTransform="matrix(0.9679 0.2513 -0.2513 0.9679 -158.1968 -54.4719)">
								<stop  offset="0" style="stop-color:#D38278"/>
								<stop  offset="1" style="stop-color:#EEB9AD;stop-opacity:0"/>
							</linearGradient>
							<path style="fill:url(#SVGID_00000153698753109475290060000011613287965559751569_);" d="M271.207,235.011
								c2.839-0.568,5.232-0.102,5.764,2.004c0.532,2.106-2.341,3.391-4.698,3.668C269.916,240.96,268.997,235.453,271.207,235.011z
								"/>
							<g>
								<path style="fill:#A56052;" d="M269.958,235.408c1.077-0.445,2.248-0.722,3.449-0.699c1.178,0.026,2.477,0.295,3.387,1.285
									c0.437,0.496,0.633,1.274,0.409,1.914c-0.206,0.641-0.632,1.135-1.102,1.515c-0.947,0.772-2.071,1.194-3.192,1.497
									c1.033-0.533,2.052-1.106,2.859-1.87c0.824-0.732,1.257-1.882,0.536-2.643c-0.67-0.764-1.827-1.09-2.924-1.2
									C272.258,235.103,271.106,235.201,269.958,235.408z"/>
							</g>
							<path style="fill:#643619;" d="M275.643,246.904c-3.893,0.753-6.548,0.589-7.709-0.45
								C267.627,254.368,272.004,254.723,275.643,246.904z"/>
							<g>
								
									<linearGradient id="SVGID_00000061457428183481310960000010061023899252096400_" gradientUnits="userSpaceOnUse" x1="481.2894" y1="166.5501" x2="483.1759" y2="172.9508" gradientTransform="matrix(0.9679 0.2513 -0.2513 0.9679 -158.1968 -54.4719)">
									<stop  offset="0" style="stop-color:#DA9C68"/>
									<stop  offset="1" style="stop-color:#DA9C68;stop-opacity:0"/>
								</linearGradient>
								<path style="fill:url(#SVGID_00000061457428183481310960000010061023899252096400_);" d="M269.969,227.333
									c0.26,1.947,1.352,7.66-4.126,8.117c-5.479,0.457-4.177-6.166-4.177-6.166S267.466,227.588,269.969,227.333z"/>
								<path style="fill:#643619;" d="M268.151,234.884c-0.104,0.4-0.512,0.639-0.912,0.536c-0.4-0.104-0.639-0.512-0.536-0.912
									c0.104-0.4,0.512-0.64,0.912-0.536C268.015,234.076,268.255,234.484,268.151,234.884z"/>
								<path style="fill:#994D1D;" d="M268.788,226.984c-6.282,0.437-9.728,2.934-5.736,2.902
									C267.044,229.854,272.93,226.695,268.788,226.984z"/>
							</g>
							<g>
								
									<linearGradient id="SVGID_00000013900290209244856720000002470430313459557556_" gradientUnits="userSpaceOnUse" x1="606.2126" y1="134.1158" x2="608.0991" y2="140.5165" gradientTransform="matrix(-0.9679 0.2513 0.2513 0.9679 833.3581 -54.4719)">
									<stop  offset="0" style="stop-color:#DA9C68"/>
									<stop  offset="1" style="stop-color:#DA9C68;stop-opacity:0"/>
								</linearGradient>
								<path style="fill:url(#SVGID_00000013900290209244856720000002470430313459557556_);" d="M276.128,227.333
									c-0.26,1.947-1.352,7.66,4.126,8.117c5.478,0.457,4.177-6.166,4.177-6.166S278.631,227.588,276.128,227.333z"/>
								<path style="fill:#643619;" d="M277.946,234.884c0.104,0.4,0.512,0.639,0.912,0.536c0.4-0.104,0.64-0.512,0.536-0.912
									c-0.104-0.4-0.512-0.64-0.912-0.536C278.082,234.076,277.843,234.484,277.946,234.884z"/>
								<path style="fill:#994D1D;" d="M277.31,226.984c6.282,0.437,9.728,2.934,5.736,2.902
									C279.053,229.854,273.167,226.695,277.31,226.984z"/>
							</g>
							<path style="fill:#E9A29D;" d="M262.663,236.908c0,0.422-1.094,0.764-2.443,0.764c-1.349,0-2.443-0.342-2.443-0.764
								c0-0.422,1.094-0.764,2.443-0.764C261.569,236.145,262.663,236.486,262.663,236.908z"/>
							<path style="fill:#E9A29D;" d="M288.424,236.908c0,0.422-1.094,0.764-2.443,0.764c-1.349,0-2.443-0.342-2.443-0.764
								c0-0.422,1.094-0.764,2.443-0.764C287.33,236.145,288.424,236.486,288.424,236.908z"/>
						</g>
						<path style="fill:#994D1D;" d="M263.16,215.223c0.901,1.75,6.681,8.059,13.68,7.423c-2.704-0.477-3.977-1.538-3.977-1.538
							s5.302,1.644,11.081-1.431c-1.909,0.159-4.931-0.106-4.931-0.106s5.037-1.379,5.885-4.03
							C272.969,213.579,263.16,215.223,263.16,215.223z"/>
					</g>
					<g>
						<path style="fill:#EBC086;" d="M295.988,256.635c0.265-3.022,0.174-8.792,0.326-10.822c0.151-2.03-1.23-2.293-2.068-1.795
							c-0.837,0.498-0.871,3.06-0.928,6.014c-0.049,2.534,0.14,7.254,0.14,7.254L295.988,256.635z"/>
						<path style="fill:#F1CA8E;" d="M298.973,264.275c1.096-2.641,1.804-6.086,1.549-7.966c-0.446-3.294-3.426-3.978-5.419-3.731
							c-1.992,0.246-3.166,3.97-2.958,5.362c0.559,3.726,3.016,4.923,3.085,6.486C295.663,265.377,298.605,265.437,298.973,264.275z
							"/>
						<path style="fill:#F1CA8E;" d="M298.287,251.919c-3.165-0.329-3.536,1.066-4.155,3.274c-0.497,1.773,1.472,2.718,3.805,3.073
							c1.656,0.252,2.633-0.706,2.633-0.706S301.084,252.211,298.287,251.919z"/>
						<g>
							<path style="fill:#C48D54;" d="M299.421,256.019c-0.051,0.495-0.151,1.001-0.422,1.448c-0.272,0.451-0.778,0.743-1.296,0.821
								c-0.52,0.073-1.034,0.014-1.532-0.072c-0.496-0.102-1.014-0.229-1.448-0.538c-0.926-0.575-1.265-1.787-1.016-2.779
								c0.1-0.511,0.379-0.973,0.684-1.363c0.305-0.397,0.654-0.787,1.102-1.018c-0.421,0.276-0.71,0.692-0.974,1.107
								c-0.281,0.416-0.51,0.837-0.584,1.321c-0.184,0.94,0.118,1.991,0.95,2.488c0.394,0.266,0.865,0.396,1.338,0.502
								c0.48,0.094,0.971,0.158,1.444,0.101c0.472-0.045,0.92-0.263,1.199-0.659C299.151,256.988,299.319,256.507,299.421,256.019z"
								/>
						</g>
						<path style="fill:#EBC086;" d="M294.783,259.033c-1.597,1.427-3.105,0.183-3.842-1.418c-0.736-1.601-0.866-2.825-0.046-3.454
							s4.821,0.497,4.782,1.764c-0.039,1.267-1.122,1.352-2.056,0.923C295.184,258.096,294.783,259.033,294.783,259.033"/>
						<g>
							<path style="fill:#C48D54;" d="M299.738,255.263c0.092,0.232,0.038,0.462-0.071,0.68c-0.073,0.095-0.164,0.212-0.321,0.243
								c-0.167,0.034-0.288-0.083-0.331-0.187c0.12,0.023,0.218,0.009,0.259-0.034c0.045-0.041,0.099-0.098,0.137-0.181
								c0.057-0.07,0.093-0.161,0.147-0.247C299.607,255.449,299.669,255.36,299.738,255.263z"/>
						</g>
						<g>
							<path style="fill:#C48D54;" d="M294.367,259.43c0.233-0.298,0.286-0.678,0.237-1.025c-0.056-0.35-0.215-0.679-0.438-0.958
								c-0.429-0.583-1.079-0.964-1.72-1.338c0.711,0.217,1.405,0.601,1.885,1.212c0.226,0.31,0.405,0.674,0.431,1.067
								C294.791,258.776,294.659,259.185,294.367,259.43z"/>
						</g>
						<g>
							<path style="fill:#C48D54;" d="M295.477,255.469c0.148,0.191,0.23,0.443,0.209,0.701c-0.013,0.258-0.153,0.506-0.351,0.677
								c-0.208,0.162-0.463,0.244-0.711,0.257c-0.251,0.021-0.492-0.043-0.72-0.115c0.474-0.001,0.966-0.016,1.298-0.302
								C295.552,256.425,295.629,255.92,295.477,255.469z"/>
						</g>
					</g>
				</g>
			</g>
		</g>
		<path style="fill:#994D1D;" d="M251.996,229.241c0.566,4.874,1.918,8.176,3.585,10.755c0.437,0.299,1.321,0.943,1.321,0.943
			s-4.615-10.057,0.473-19.216c-1.212,2.918-0.079,5.415-0.079,5.415s0.763-5.087,3.607-7.885c1.318,2.104,7.866,2.361,7.866,2.361
			s-4.033-2.884-4.689-5.791c-3.775-2.554-8.753,0.007-10.354,3.859C252.405,222.858,251.57,225.574,251.996,229.241z"/>
		<path style="fill:#994D1D;" d="M283.595,215.024c2.928,2.408,3.492,7.857,3.353,10.648c0.372-0.326,0.992-2.455,0.992-2.455
			s0.764,12.956,0.02,15.329c0.783-0.667,1.019-1.116,1.019-1.116s1.214-6.56,0.795-11.212c-0.419-4.652-1.768-8.886-3.024-9.909
			S283.595,215.024,283.595,215.024z"/>
		<path style="fill:#381C14;" d="M180.386,219.199c-0.273,1.6-7.064,5.854-20.566,6.595c4.332-0.429,11.981-1.99,17.327-6.049
			C178.031,218.935,180.386,219.199,180.386,219.199z"/>
		<path style="fill:#381C14;" d="M138.536,233.841c-0.963-1.872-2.461-6.741-2.3-8.72c-1.284,2.033-0.802,7.383-0.802,7.383
			s-4.708-10.967,3.638-20.436c-1.551,0.053-3.531,2.086-3.531,2.086s1.498-4.226,7.489-6.58c-0.16-1.498,0.91-4.868,2.728-5.938
			c-1.123,2.14-1.444,5.243-1.444,5.243s8.024-8.559,25.892-4.975c-4.547-0.268-6.954,0.214-6.954,0.214s14.23,0.374,20.382,10.378
			c-2.996-1.337-6.045-4.333-6.045-4.333s4.654,4.761,4.012,9.255c-5.029-4.333-24.769-3.156-29.583-1.605
			c-4.815,1.551-11.93,16.691-11.93,16.691L138.536,233.841z"/>
		<path style="fill:#381C14;" d="M167.373,220.24c-1.334,1.945-8.225,4.112-12.726,3.89c4.89,1.612,21.896-1.056,20.895-4.279
			C174.487,218.073,167.373,220.24,167.373,220.24z"/>
		<path style="fill:#381C14;" d="M146.716,227.134c-0.11,4.525,0.221,12.804,1.656,15.673c-3.127-1.177-5.114-10.118-5.114-10.228
			S146.716,227.134,146.716,227.134z"/>
		<path style="fill:#91B242;" d="M146.602,258.105c-4.992-0.147-9.518,3.585-12.423,13.906c-3.44,12.222-5.36,21.738-5.228,24.642
			c0.132,2.905,9.451,9.896,12.85,0.264c4.225-11.97,6.693-20.716,8.009-26.141C152.01,261.711,150.805,258.229,146.602,258.105z"/>
		<path style="fill:#91B242;" d="M128.951,296.654c0.916,6.494,3.298,39.742,3.713,43.574c2.589,2.589,7.452-0.391,7.452-0.391
			s-0.213-20.819,1.331-42.01C141.815,292.764,128.951,296.654,128.951,296.654z"/>
		<path style="fill:#412308;" d="M361.608,253.028c2.344-12.847-1.996-24.392-1.996-24.392s1.042,8.246-0.174,10.156
			c1.302-7.986-5.208-15.364-5.208-15.364s-0.087,1.823,1.91,5.382c-3.906-3.819-8.68-10.243-8.68-10.243s2.951,5.295,5.816,7.986
			c-7.726-4.601-12.15-11.465-9.548-18.229c0.868-2.257,2.431-5.121,7.725-5.903c4.353-0.642,19.097-0.174,27.864,6.337
			c8.767,6.51,11.945,16.727,4.914,27.837c-5.448,8.128-7.313,8.798-7.313,8.798s1.136-1.486,1.515-2.593
			c-2.084,2.351-9.191,7.198-9.191,7.198s0.588-0.641,1.282-1.977C367.103,250.641,361.608,253.028,361.608,253.028z"/>
		<g>
			<path style="fill:none;stroke:#345A6E;stroke-width:1.5;stroke-miterlimit:10;stroke-dasharray:5.1369;" d="M272.641,182.02
				c19.727-9.861,35.547-27.529,42.773-48.402c1.578-4.559,1.429-11.474-3.351-12.121c-2.289-0.309-4.433,1.255-5.86,3.071
				c-4.782,6.088-3.985,15.329,0.457,21.67c4.442,6.34,11.8,10.105,19.305,12.007c6.5,1.648,13.225,2.072,19.913,2.671"/>
			<path style="fill:none;stroke:#345A6E;stroke-width:1.5;stroke-miterlimit:10;stroke-dasharray:5.1369;" d="M126.839,217.365
				c-10.988,0.798-21.644-4.699-29.718-12.194c-11.451-10.63-18.938-27.049-14.573-42.052c3.817-13.122,16.29-22.695,29.742-25.099
				c13.452-2.405,27.507,1.625,39.047,8.945c9.33,5.919,17.176,13.837,25.566,21.045"/>
			<path style="fill:#365E6B;" d="M203.761,176.277v-6.998l-6.11-0.677c-0.412-1.634-1.06-3.173-1.904-4.582l3.846-4.804
				l-3.452-4.948h-1.496l-4.809,3.85c-1.407-0.841-2.944-1.485-4.575-1.895l-0.678-6.124h-6.998l-0.678,6.124
				c-1.631,0.41-3.168,1.054-4.575,1.895l-3.313-3.85h-1.497l-4.948,4.948l3.846,4.804c-0.845,1.408-1.492,2.948-1.904,4.582
				l-6.11,0.677v6.998l6.101,0.676c0.41,1.639,1.056,3.185,1.901,4.598l-3.834,4.789l4.948,4.948h1.497l3.288-3.83
				c1.415,0.849,2.962,1.498,4.604,1.911l0.674,6.087h6.998l0.674-6.087c1.642-0.412,3.19-1.062,4.605-1.911l4.784,3.83h1.496
				l3.452-4.948l-3.834-4.789c0.845-1.413,1.491-2.959,1.901-4.598L203.761,176.277z M181.084,180.414
				c-4.208,0-7.618-3.411-7.618-7.618c0-4.207,3.411-7.618,7.618-7.618c4.207,0,7.618,3.411,7.618,7.618
				C188.702,177.003,185.291,180.414,181.084,180.414z"/>
			<path style="fill:#5DA1BA;" d="M205.258,176.277v-6.998l-6.11-0.677c-0.412-1.634-1.06-3.173-1.904-4.582l3.846-4.804
				l-4.948-4.948l-4.809,3.85c-1.407-0.841-2.944-1.485-4.575-1.895l-0.678-6.124h-6.998l-0.678,6.124
				c-1.631,0.41-3.169,1.054-4.575,1.895l-4.809-3.85l-4.948,4.948l3.846,4.804c-0.844,1.408-1.492,2.948-1.904,4.582l-6.11,0.677
				v6.998l6.101,0.676c0.41,1.639,1.056,3.185,1.901,4.598l-3.834,4.789l4.948,4.948l4.784-3.83
				c1.415,0.849,2.962,1.498,4.605,1.911l0.674,6.087h6.998l0.674-6.087c1.642-0.412,3.19-1.062,4.604-1.911l4.784,3.83l4.948-4.948
				l-3.834-4.789c0.845-1.413,1.491-2.959,1.901-4.598L205.258,176.277z M182.58,180.414c-4.207,0-7.618-3.411-7.618-7.618
				c0-4.207,3.411-7.618,7.618-7.618c4.207,0,7.618,3.411,7.618,7.618C190.198,177.003,186.787,180.414,182.58,180.414z"/>
			<path style="fill:#365E6B;" d="M371.685,165.145v-6.295l-5.496-0.609c-0.371-1.47-0.953-2.855-1.713-4.122l3.46-4.322
				l-3.174-4.451h-1.277l-4.326,3.464c-1.265-0.756-2.648-1.336-4.116-1.704l-0.61-5.508h-6.295l-0.61,5.508
				c-1.467,0.369-2.85,0.948-4.116,1.704l-3.049-3.464h-1.277l-4.451,4.451l3.46,4.322c-0.76,1.267-1.342,2.652-1.713,4.122
				l-5.496,0.609v6.295l5.488,0.608c0.369,1.475,0.95,2.865,1.71,4.136l-3.449,4.308l4.451,4.451h1.277l3.026-3.445
				c1.273,0.764,2.665,1.348,4.142,1.719l0.606,5.476h6.295l0.607-5.476c1.477-0.371,2.869-0.955,4.142-1.719l4.303,3.445h1.277
				l3.174-4.451l-3.449-4.308c0.76-1.271,1.341-2.661,1.71-4.136L371.685,165.145z M351.285,168.866
				c-3.785,0-6.853-3.068-6.853-6.853s3.068-6.853,6.853-6.853c3.785,0,6.853,3.068,6.853,6.853S355.07,168.866,351.285,168.866z"/>
			<path style="fill:#5DA1BA;" d="M372.962,165.145v-6.295l-5.496-0.609c-0.371-1.47-0.953-2.855-1.713-4.122l3.46-4.322
				l-4.451-4.451l-4.326,3.464c-1.265-0.756-2.648-1.336-4.116-1.704l-0.61-5.508h-6.295l-0.61,5.508
				c-1.467,0.369-2.85,0.948-4.116,1.704l-4.326-3.464l-4.451,4.451l3.46,4.322c-0.76,1.267-1.342,2.652-1.713,4.122l-5.496,0.609
				v6.295l5.488,0.608c0.369,1.475,0.95,2.865,1.71,4.136l-3.449,4.308l4.451,4.451l4.303-3.445
				c1.273,0.764,2.665,1.348,4.142,1.719l0.606,5.476h6.295l0.607-5.476c1.477-0.371,2.869-0.955,4.142-1.719l4.303,3.445
				l4.451-4.451l-3.449-4.308c0.76-1.271,1.341-2.661,1.71-4.136L372.962,165.145z M352.563,168.866
				c-3.785,0-6.853-3.068-6.853-6.853s3.068-6.853,6.853-6.853c3.785,0,6.853,3.068,6.853,6.853S356.347,168.866,352.563,168.866z"
				/>
			<path style="fill:none;stroke:#345A6E;stroke-width:1.5;stroke-miterlimit:10;stroke-dasharray:5.1369;" d="M345.877,160.916
				c1.033,0.092,2.066,0.189,3.096,0.295c10.707,1.1,30.189,5.259,39.666,10.362c15.202,8.186,18.243,30.872,0.234,41.163"/>
			<path style="fill:#365E6B;" d="M281.043,184.721v-3.516l-3.07-0.34c-0.207-0.821-0.532-1.594-0.957-2.302l1.932-2.414
				l-2.486-2.486h-0.678l-1.738,1.934c-0.707-0.422-1.479-0.746-2.298-0.952l-0.341-3.076h-3.516l-0.341,3.076
				c-0.819,0.206-1.592,0.529-2.299,0.952l-2.416-1.934h-0.678l-1.808,2.486l1.932,2.414c-0.424,0.708-0.75,1.481-0.957,2.302
				l-3.07,0.34v3.516l3.065,0.339c0.206,0.824,0.531,1.6,0.955,2.31l-1.926,2.406l1.808,2.486h0.678l2.404-1.924
				c0.711,0.426,1.488,0.753,2.313,0.96l0.339,3.058h3.516l0.339-3.058c0.825-0.207,1.603-0.533,2.313-0.96l1.725,1.924h0.678
				l2.486-2.486l-1.926-2.406c0.424-0.71,0.749-1.486,0.955-2.31L281.043,184.721z M269.65,186.8c-2.114,0-3.827-1.714-3.827-3.827
				s1.714-3.827,3.827-3.827s3.827,1.714,3.827,3.827S271.764,186.8,269.65,186.8z"/>
			<path style="fill:#5DA1BA;" d="M280.365,184.721v-3.516l-3.07-0.34c-0.207-0.821-0.532-1.594-0.957-2.302l1.932-2.414
				l-2.486-2.486l-2.416,1.934c-0.707-0.422-1.479-0.746-2.299-0.952l-0.341-3.076h-3.516l-0.341,3.076
				c-0.819,0.206-1.592,0.529-2.299,0.952l-2.416-1.934l-2.486,2.486l1.932,2.414c-0.424,0.708-0.75,1.481-0.957,2.302l-3.07,0.34
				v3.516l3.065,0.339c0.206,0.824,0.531,1.6,0.955,2.31l-1.926,2.406l2.486,2.486l2.404-1.924c0.711,0.426,1.488,0.753,2.313,0.96
				l0.339,3.058h3.516l0.339-3.058c0.825-0.207,1.603-0.533,2.313-0.96l2.404,1.924l2.486-2.486l-1.926-2.406
				c0.424-0.71,0.749-1.486,0.955-2.31L280.365,184.721z M268.972,186.8c-2.114,0-3.827-1.714-3.827-3.827s1.714-3.827,3.827-3.827
				c2.114,0,3.827,1.714,3.827,3.827S271.085,186.8,268.972,186.8z"/>
			<path style="fill:none;stroke:#345A6E;stroke-width:1.5;stroke-miterlimit:10;stroke-dasharray:5.1369;" d="M176.902,168.01
				c3.119,2.679,6.313,5.261,9.686,7.605c21.462,14.912,50,19.11,74.847,11.01c3.847-1.254,7.591-2.798,11.205-4.605"/>
		</g>
		<g>
			<circle style="fill:none;stroke:#345A6E;stroke-width:1.0274;stroke-miterlimit:10;" cx="410.657" cy="162.311" r="5.722"/>
			<path style="fill:none;stroke:#345A6E;stroke-width:1.0274;stroke-miterlimit:10;" d="M376.906,114.805
				c0,1.264-1.025,2.289-2.289,2.289c-1.264,0-2.289-1.025-2.289-2.289c0-1.264,1.025-2.289,2.289-2.289
				C375.882,112.516,376.906,113.54,376.906,114.805z"/>
			<path style="fill:none;stroke:#345A6E;stroke-width:1.0274;stroke-miterlimit:10;" d="M452.135,214.656
				c0,1.382-1.12,2.502-2.502,2.502c-1.382,0-2.502-1.12-2.502-2.502c0-1.382,1.12-2.502,2.502-2.502
				C451.015,212.154,452.135,213.275,452.135,214.656z"/>
			<circle style="fill:none;stroke:#345A6E;stroke-width:1.0274;stroke-miterlimit:10;" cx="318.638" cy="210.68" r="2.729"/>
			<path style="fill:none;stroke:#345A6E;stroke-width:1.0274;stroke-miterlimit:10;" d="M427.608,136.398
				c0,0.628-0.509,1.137-1.137,1.137c-0.628,0-1.137-0.509-1.137-1.137c0-0.628,0.509-1.137,1.137-1.137
				C427.099,135.261,427.608,135.77,427.608,136.398z"/>
			<path style="fill:none;stroke:#345A6E;stroke-width:1.0274;stroke-miterlimit:10;" d="M423.912,368.745
				c0,2.013-1.632,3.645-3.645,3.645c-2.013,0-3.645-1.632-3.645-3.645c0-2.013,1.632-3.645,3.645-3.645
				C422.28,365.1,423.912,366.732,423.912,368.745z"/>
			<path style="fill:none;stroke:#345A6E;stroke-width:1.0274;stroke-miterlimit:10;" d="M402.128,279.78
				c0,2.487-2.016,4.503-4.503,4.503s-4.503-2.016-4.503-4.503s2.016-4.503,4.503-4.503S402.128,277.293,402.128,279.78z"/>
			<path style="fill:none;stroke:#345A6E;stroke-width:1.0274;stroke-miterlimit:10;" d="M455.224,276.757
				c0,0.947-0.768,1.715-1.715,1.715s-1.715-0.768-1.715-1.715c0-0.947,0.768-1.715,1.715-1.715S455.224,275.809,455.224,276.757z"
				/>
			<circle style="fill:none;stroke:#345A6E;stroke-width:1.0274;stroke-miterlimit:10;" cx="215.783" cy="226.157" r="2.359"/>
			<path style="fill:none;stroke:#345A6E;stroke-width:1.0274;stroke-miterlimit:10;" d="M233.465,154.105
				c0,1.303-1.056,2.359-2.359,2.359c-1.303,0-2.359-1.056-2.359-2.359c0-1.303,1.056-2.359,2.359-2.359
				C232.409,151.746,233.465,152.802,233.465,154.105z"/>
			<path style="fill:none;stroke:#345A6E;stroke-width:1.0274;stroke-miterlimit:10;" d="M155.529,96.234
				c0,2.487-2.016,4.503-4.503,4.503c-2.487,0-4.503-2.016-4.503-4.503c0-2.487,2.016-4.503,4.503-4.503
				C153.513,91.731,155.529,93.747,155.529,96.234z"/>
			<circle style="fill:none;stroke:#345A6E;stroke-width:1.0274;stroke-miterlimit:10;" cx="128.321" cy="198.156" r="2.359"/>
			<circle style="fill:none;stroke:#345A6E;stroke-width:1.0274;stroke-miterlimit:10;" cx="66.971" cy="230.017" r="3.216"/>
			<path style="fill:none;stroke:#345A6E;stroke-width:1.0274;stroke-miterlimit:10;" d="M117.956,263.369
				c0,1.066-0.864,1.93-1.93,1.93c-1.066,0-1.93-0.864-1.93-1.93s0.864-1.93,1.93-1.93
				C117.092,261.439,117.956,262.303,117.956,263.369z"/>
			<path style="fill:none;stroke:#345A6E;stroke-width:1.0274;stroke-miterlimit:10;" d="M116.66,307.419
				c0,1.066-0.864,1.93-1.93,1.93c-1.066,0-1.93-0.864-1.93-1.93c0-1.066,0.864-1.93,1.93-1.93
				C115.796,305.49,116.66,306.354,116.66,307.419z"/>
			<circle style="fill:none;stroke:#345A6E;stroke-width:1.0274;stroke-miterlimit:10;" cx="47.993" cy="363.756" r="3.216"/>
			<path style="fill:none;stroke:#345A6E;stroke-width:1.0274;stroke-miterlimit:10;" d="M119.251,393.362
				c0,3.198-2.592,5.79-5.79,5.79c-3.197,0-5.79-2.592-5.79-5.79c0-3.197,2.592-5.789,5.79-5.789
				C116.659,387.573,119.251,390.165,119.251,393.362z"/>
			<circle style="fill:none;stroke:#345A6E;stroke-width:1.0274;stroke-miterlimit:10;" cx="215.569" cy="345.164" r="1.715"/>
			<circle style="fill:none;stroke:#345A6E;stroke-width:1.0274;stroke-miterlimit:10;" cx="315.492" cy="306.138" r="1.715"/>
			<circle style="fill:none;stroke:#345A6E;stroke-width:1.0274;stroke-miterlimit:10;" cx="310.775" cy="390.622" r="2.573"/>
			<circle style="fill:none;stroke:#345A6E;stroke-width:1.0274;stroke-miterlimit:10;" cx="94.635" cy="119.654" r="1.629"/>
		</g>
		<g>
			<g>
				<path style="fill:#F1DA3D;" d="M288.432,105.175c0-14.397-12.167-25.953-26.78-24.945
					c-12.305,0.849-22.284,10.801-23.165,23.103c-0.498,6.957,1.853,13.361,6.004,18.169c4.123,4.775,6.206,10.981,6.206,17.29
					v1.106h25.025v-1.037c0-6.421,2.479-12.524,6.668-17.391C286.154,117.094,288.432,111.401,288.432,105.175z"/>
				<g>
					<path style="fill:#FFFFFF;" d="M263.585,84.151c2.811-0.396,5.758,0.218,8.397,1.386c2.662,1.158,5.066,2.914,7.047,5.057
						c1.977,2.145,3.534,4.709,4.412,7.489c0.9,2.764,1.125,5.741,0.516,8.503c-0.474-2.788-1.242-5.375-2.392-7.762
						c-1.162-2.377-2.659-4.549-4.436-6.479c-1.775-1.932-3.823-3.616-6.075-5.026C268.785,85.93,266.326,84.832,263.585,84.151z"/>
				</g>
				<path style="fill:none;stroke:#919CA2;stroke-width:0.8566;stroke-linecap:round;stroke-miterlimit:10;" d="M259.27,141.254
					c0,0-0.034-9.137-0.193-14.207c-0.202-6.467-0.145-10.49-1.534-13.763c-1.242-2.927-2.923-3.589-4.225-2.011
					c-1.348,1.632-0.054,5.737,3.26,6.877c2.861,0.984,7.162,1.251,10.91,0.375c2.509-0.586,4.227-1.506,5.643-2.877
					c1.812-1.756,1.468-4.668,0.367-5.335c-1.463-0.886-3.325,0.133-4.437,3.002c-0.472,1.218-1.727,4.039-1.814,12.693
					c-0.043,4.272-0.276,14.965-0.276,14.965"/>
				
					<linearGradient id="SVGID_00000114784568588426733680000003181772650059746738_" gradientUnits="userSpaceOnUse" x1="247.9616" y1="135.654" x2="268.187" y2="99.3424">
					<stop  offset="0" style="stop-color:#E7C13C"/>
					<stop  offset="1" style="stop-color:#E7C13C;stop-opacity:0"/>
				</linearGradient>
				<path style="fill:url(#SVGID_00000114784568588426733680000003181772650059746738_);" d="M249.334,84.544
					c-6.106,4.194-10.292,11.021-10.849,18.789c-0.498,6.957,1.853,13.361,6.004,18.169c4.123,4.775,6.206,10.981,6.206,17.29v1.106
					h25.025v-1.037c0-6.421,2.478-12.524,6.668-17.391c1.27-1.476,2.366-3.104,3.267-4.849
					C255.211,128.835,243.242,103.107,249.334,84.544z"/>
				<ellipse style="fill:#8F8F8F;" cx="263.115" cy="151.682" rx="11.707" ry="6.321"/>
				<g>
					<g>
						<path style="fill:#BEBEBE;" d="M250.499,143.848h25.443c1.139,0,2.063-0.924,2.063-2.063s-0.924-2.063-2.063-2.063h-25.443
							c-1.139,0-2.063,0.924-2.063,2.063S249.36,143.848,250.499,143.848z"/>
						<path style="fill:#BEBEBE;" d="M275.943,147.855h-25.443c-1.139,0-2.063,0.924-2.063,2.063s0.924,2.063,2.063,2.063h25.443
							c1.139,0,2.063-0.924,2.063-2.063S277.082,147.855,275.943,147.855z"/>
					</g>
					<path style="fill:#8F8F8F;" d="M275.943,143.759h-25.443c-1.139,0-2.063,0.924-2.063,2.063s0.924,2.063,2.063,2.063h25.443
						c1.139,0,2.063-0.923,2.063-2.063S277.082,143.759,275.943,143.759z"/>
				</g>
			</g>
			<g>
				<polygon style="fill:#345A6E;" points="259.2,73.392 254.331,45.483 261.956,46.187 				"/>
				<polygon style="fill:#345A6E;" points="271.707,73.877 277.791,55.453 280.723,58.62 				"/>
				<polygon style="fill:#345A6E;" points="290.038,83.31 315.487,62.843 316.377,71.385 				"/>
				<polygon style="fill:#345A6E;" points="239.723,82.703 225.478,63.786 220.524,68.988 				"/>
				<polygon style="fill:#345A6E;" points="231.014,102.14 199.442,90.911 198.556,101.152 				"/>
				<polygon style="fill:#345A6E;" points="299.258,103.526 316.923,101.602 316.749,105.275 				"/>
			</g>
		</g>
	</g>
</g>
<g id="DESIGNED_BY_FREEPIK">
	<g>
		<g id="XMLID_319_">
			<g id="XMLID_338_">
				<path id="XMLID_346_" style="fill:#A5B7C6;" d="M260.104,465.465c-0.432,0.443-0.803,0.931-1.108,1.453l-0.465-0.241
					c-0.067-0.298-0.349-0.503-0.659-0.466c-0.331,0.039-0.568,0.339-0.529,0.67s0.339,0.568,0.67,0.529
					c0.065-0.008,0.127-0.026,0.184-0.052l0.451,0.234c-0.251,0.554-0.433,1.139-0.539,1.744l0.746,0.132
					c0.23-1.306,0.85-2.507,1.792-3.473L260.104,465.465z"/>
				<path id="XMLID_345_" style="fill:#A5B7C6;" d="M265.592,463.163c-0.171,0-0.341,0.006-0.51,0.017l-0.074-0.626
					c0.188-0.149,0.296-0.389,0.266-0.645c-0.046-0.393-0.402-0.674-0.795-0.628s-0.674,0.402-0.628,0.795
					c0.03,0.254,0.189,0.461,0.405,0.564l0.073,0.624c-0.714,0.116-1.403,0.332-2.06,0.646l0.327,0.684
					c0.934-0.447,1.942-0.673,2.995-0.673c0.496,0,0.993,0.053,1.475,0.158l0.161-0.741
					C266.693,463.222,266.142,463.163,265.592,463.163z"/>
				<path id="XMLID_344_" style="fill:#A5B7C6;" d="M272.194,465.711c0.331-0.04,0.566-0.341,0.525-0.672
					c-0.04-0.331-0.341-0.566-0.672-0.526c-0.309,0.038-0.535,0.304-0.53,0.609l-0.416,0.363c-0.418-0.43-0.89-0.813-1.408-1.139
					l-0.404,0.641c1.134,0.715,2.021,1.726,2.563,2.925l0.691-0.313c-0.251-0.554-0.568-1.072-0.942-1.545l0.402-0.351
					C272.065,465.716,272.129,465.719,272.194,465.711z"/>
				<path id="XMLID_343_" style="fill:#A5B7C6;" d="M265.044,473.372c-0.386,0.023-0.775,0.035-1.157,0.035
					c-0.88,0-1.733-0.061-2.478-0.179c-0.39-0.062-0.846-0.155-1.27-0.292c1.046,1.861,3.069,3.125,5.388,3.125
					c2.855,0,5.262-1.916,5.95-4.504c-0.682,0.449-1.505,0.825-2.459,1.123C267.839,473.047,266.464,473.286,265.044,473.372z"/>
				<path id="XMLID_339_" style="fill:#A5B7C6;" d="M265.592,464.68c-3.352,0-6.08,2.666-6.08,5.943
					c0,0.426,0.046,0.849,0.137,1.261c0.674,0.483,2.706,0.89,5.348,0.731c2.879-0.173,5.297-0.957,6.672-2.159
					c-0.005-0.195-0.021-0.39-0.045-0.582C271.244,466.913,268.65,464.68,265.592,464.68z M263.432,471.194
					c-1.02,0-1.85-0.83-1.85-1.85c0-1.02,0.83-1.85,1.85-1.85c1.02,0,1.85,0.83,1.85,1.85
					C265.282,470.365,264.452,471.194,263.432,471.194z M268.17,470.286c-0.75,0-1.36-0.61-1.36-1.36s0.61-1.361,1.36-1.361
					c0.75,0,1.361,0.61,1.361,1.361S268.92,470.286,268.17,470.286z"/>
			</g>
			<path id="XMLID_336_" style="fill:#A5B7C6;" d="M281.595,466.547c-0.295-0.116-0.806-0.309-1.382-0.237
				c-0.551,0.069-0.844,0.341-0.844,1.007v0.866h2.228v1.717h-2.228v5.455h-1.932v-5.455h-1.34v-1.717h1.34v-0.888
				c0-1.68,0.896-2.783,2.568-2.783c0.642,0,1.157,0.122,1.59,0.308L281.595,466.547z"/>
			<path id="XMLID_334_" style="fill:#A5B7C6;" d="M286.298,469.879c-0.177-0.03-0.358-0.046-0.526-0.046
				c-0.896,0-1.51,0.548-1.51,1.614v3.908h-1.932v-7.172h1.873v0.785c0.451-0.673,1.14-0.977,2.021-0.977
				c0.414,0,0.848,0.128,1.094,0.337L286.298,469.879z"/>
			<path id="XMLID_331_" style="fill:#A5B7C6;" d="M293.965,471.757c0,0.222-0.015,0.489-0.037,0.651h-5.085
				c0.207,1.036,0.933,1.488,1.843,1.488c0.622,0,1.295-0.252,1.813-0.688l1.132,1.243c-0.814,0.748-1.85,1.088-3.057,1.088
				c-2.198,0-3.723-1.495-3.723-3.753c0-2.258,1.48-3.797,3.627-3.797C292.544,467.99,293.958,469.522,293.965,471.757z
				 M288.851,471.091h3.175c-0.177-0.918-0.733-1.436-1.562-1.436C289.554,469.655,289.021,470.203,288.851,471.091z"/>
			<path id="XMLID_328_" style="fill:#A5B7C6;" d="M301.618,471.757c0,0.222-0.015,0.489-0.037,0.651h-5.085
				c0.207,1.036,0.932,1.488,1.843,1.488c0.622,0,1.295-0.252,1.813-0.688l1.132,1.243c-0.814,0.748-1.85,1.088-3.057,1.088
				c-2.198,0-3.723-1.495-3.723-3.753c0-2.258,1.48-3.797,3.627-3.797C300.197,467.99,301.611,469.522,301.618,471.757z
				 M296.504,471.091h3.175c-0.178-0.918-0.733-1.436-1.562-1.436C297.207,469.655,296.674,470.203,296.504,471.091z"/>
			<path id="XMLID_325_" style="fill:#A5B7C6;" d="M309.964,471.764c0,2.154-1.495,3.775-3.471,3.775
				c-0.962,0-1.643-0.378-2.109-0.933v3.708h-1.924v-10.133h1.887v0.792c0.466-0.585,1.155-0.984,2.139-0.984
				C308.469,467.99,309.964,469.61,309.964,471.764z M304.287,471.764c0,1.132,0.747,1.976,1.843,1.976
				c1.14,0,1.85-0.881,1.85-1.976c0-1.095-0.71-1.976-1.85-1.976C305.035,469.788,304.287,470.632,304.287,471.764z"/>
			<path id="XMLID_322_" style="fill:#A5B7C6;" d="M313.068,465.836c0,0.696-0.54,1.229-1.236,1.229
				c-0.696,0-1.229-0.533-1.229-1.229c0-0.696,0.533-1.243,1.229-1.243C312.527,464.592,313.068,465.14,313.068,465.836z
				 M312.809,475.354h-1.932v-7.172h1.932V475.354z"/>
			<path id="XMLID_320_" style="fill:#A5B7C6;" d="M316.032,470.736l2.702-2.554h2.368l-3.479,3.375l3.501,3.797h-2.376
				l-2.716-2.901v2.901H314.1v-10.658h1.932V470.736z"/>
		</g>
		<g>
			<path style="fill:#A5B7C6;" d="M184.412,475.289v-1.055c-0.527,0.718-1.391,1.23-2.387,1.23c-1.846,0-3.149-1.406-3.149-3.706
				c0-2.256,1.289-3.721,3.149-3.721c0.952,0,1.816,0.469,2.387,1.245v-3.765h1.099v9.77H184.412z M184.412,473.37v-3.208
				c-0.395-0.615-1.245-1.143-2.124-1.143c-1.421,0-2.27,1.172-2.27,2.739c0,1.567,0.85,2.724,2.27,2.724
				C183.168,474.483,184.017,473.986,184.412,473.37z"/>
			<path style="fill:#A5B7C6;" d="M186.932,471.744c0-2.051,1.465-3.706,3.486-3.706c2.139,0,3.398,1.67,3.398,3.794v0.279h-5.727
				c0.088,1.333,1.025,2.446,2.549,2.446c0.805,0,1.626-0.322,2.182-0.894l0.527,0.718c-0.703,0.703-1.655,1.084-2.812,1.084
				C188.44,475.465,186.932,473.956,186.932,471.744z M190.403,468.947c-1.509,0-2.256,1.274-2.314,2.358h4.643
				C192.718,470.25,192.015,468.947,190.403,468.947z"/>
			<path style="fill:#A5B7C6;" d="M194.607,474.351l0.571-0.791c0.469,0.542,1.362,1.011,2.329,1.011c1.084,0,1.67-0.513,1.67-1.216
				c0-1.714-4.38-0.659-4.38-3.281c0-1.098,0.952-2.036,2.636-2.036c1.201,0,2.051,0.454,2.622,1.026l-0.513,0.762
				c-0.424-0.513-1.201-0.894-2.109-0.894c-0.967,0-1.567,0.483-1.567,1.113c0,1.552,4.38,0.527,4.38,3.281
				c0,1.187-0.952,2.138-2.783,2.138C196.306,475.465,195.325,475.113,194.607,474.351z"/>
			<path style="fill:#A5B7C6;" d="M201.477,466.471c0-0.41,0.337-0.747,0.732-0.747c0.41,0,0.747,0.337,0.747,0.747
				c0,0.41-0.337,0.732-0.747,0.732C201.814,467.203,201.477,466.881,201.477,466.471z M201.667,475.289v-7.075h1.099v7.075H201.667
				z"/>
			<path style="fill:#A5B7C6;" d="M204.582,477.105l0.556-0.82c0.586,0.703,1.289,0.967,2.3,0.967c1.172,0,2.27-0.571,2.27-2.124
				v-1.011c-0.513,0.718-1.377,1.26-2.373,1.26c-1.845,0-3.149-1.377-3.149-3.662c0-2.27,1.289-3.677,3.149-3.677
				c0.952,0,1.802,0.469,2.373,1.245v-1.069h1.098v6.87c0,2.344-1.641,3.076-3.369,3.076
				C206.237,478.16,205.417,477.926,204.582,477.105z M209.709,473.253v-3.091c-0.381-0.615-1.23-1.143-2.109-1.143
				c-1.421,0-2.27,1.128-2.27,2.695c0,1.553,0.849,2.695,2.27,2.695C208.478,474.41,209.328,473.868,209.709,473.253z"/>
			<path style="fill:#A5B7C6;" d="M217.413,475.289v-4.629c0-1.245-0.63-1.641-1.582-1.641c-0.865,0-1.685,0.527-2.095,1.099v5.17
				h-1.099v-7.075h1.099v1.025c0.498-0.586,1.464-1.201,2.519-1.201c1.48,0,2.256,0.747,2.256,2.285v4.966H217.413z"/>
			<path style="fill:#A5B7C6;" d="M219.932,471.744c0-2.051,1.465-3.706,3.486-3.706c2.139,0,3.398,1.67,3.398,3.794v0.279h-5.727
				c0.088,1.333,1.025,2.446,2.549,2.446c0.806,0,1.626-0.322,2.183-0.894l0.527,0.718c-0.703,0.703-1.655,1.084-2.812,1.084
				C221.441,475.465,219.932,473.956,219.932,471.744z M223.404,468.947c-1.509,0-2.256,1.274-2.314,2.358h4.643
				C225.718,470.25,225.015,468.947,223.404,468.947z"/>
			<path style="fill:#A5B7C6;" d="M233.35,475.289v-1.055c-0.527,0.718-1.392,1.23-2.388,1.23c-1.846,0-3.149-1.406-3.149-3.706
				c0-2.256,1.289-3.721,3.149-3.721c0.952,0,1.817,0.469,2.388,1.245v-3.765h1.098v9.77H233.35z M233.35,473.37v-3.208
				c-0.396-0.615-1.245-1.143-2.124-1.143c-1.421,0-2.27,1.172-2.27,2.739c0,1.567,0.849,2.724,2.27,2.724
				C232.105,474.483,232.954,473.986,233.35,473.37z"/>
			<path style="fill:#A5B7C6;" d="M239.692,475.289v-9.77h1.098v3.765c0.572-0.776,1.421-1.245,2.388-1.245
				c1.845,0,3.149,1.465,3.149,3.721c0,2.299-1.304,3.706-3.149,3.706c-0.996,0-1.86-0.513-2.388-1.23v1.055H239.692z
				 M242.9,474.483c1.436,0,2.285-1.157,2.285-2.724c0-1.568-0.85-2.739-2.285-2.739c-0.864,0-1.728,0.527-2.109,1.143v3.208
				C241.171,473.986,242.036,474.483,242.9,474.483z"/>
			<path style="fill:#A5B7C6;" d="M247.528,477.061c0.161,0.073,0.425,0.117,0.601,0.117c0.483,0,0.805-0.161,1.055-0.747
				l0.469-1.069l-2.959-7.148h1.187l2.358,5.8l2.344-5.8h1.201l-3.545,8.51c-0.425,1.025-1.143,1.421-2.08,1.435
				c-0.234,0-0.601-0.044-0.805-0.103L247.528,477.061z"/>
		</g>
	</g>
</g>
</svg>
