<?xml version="1.0" encoding="utf-8"?>
<!-- Generator: Adobe Illustrator 27.5.0, SVG Export Plug-In . SVG Version: 6.00 Build 0)  -->
<svg version="1.1" xmlns="http://www.w3.org/2000/svg" xmlns:xlink="http://www.w3.org/1999/xlink" x="0px" y="0px"
	 viewBox="0 0 500 500" style="enable-background:new 0 0 500 500;" xml:space="preserve">
<g id="BACKGROUND">
	<rect style="fill:#FFFFFF;" width="500" height="500"/>
</g>
<g id="OBJECTS">
	<g>
		<g>
			<g>
				<path style="fill:#30B19F;" d="M95.718,217.16c0,0-10.241,73.142,33.033,124.387c43.273,51.243,188.276,63.229,242.039-2.304
					c53.426-65.123,42.4-136.6,7.317-185.417c-34.88-48.533-126.837-74.788-195.532-43.17
					C104.792,146.457,95.718,217.16,95.718,217.16z"/>
				<path style="fill:#33BDAA;" d="M402.789,205.624c-32.283,19.12-86.335,29.516-184.302,29.179
					c-51.706-0.18-91.717,9.294-122.676,23.55c2.654,24.965,10.777,56.949,32.939,83.194
					c43.273,51.243,188.276,63.229,242.039-2.304C407.439,294.573,413.756,246.91,402.789,205.624z"/>
				<path style="fill:#3FCCB9;" d="M296.39,314.86c-55.595,24.763-100.759,40.552-138.207,48.957
					c59.893,30.807,167.855,29.978,212.608-24.573c14.333-17.471,24.01-35.4,29.844-53.225
					C368.959,289.08,334.237,298.002,296.39,314.86z"/>
			</g>
			<g>
				<g>
					<g>
						<path style="fill:#182638;" d="M246.308,188.314c-0.202,0-0.408-0.014-0.615-0.038c-2.76-0.338-4.724-2.85-4.386-5.611
							c3.352-27.35-6.234-33.607-18.372-41.528c-6.884-4.493-14.687-9.587-20.495-18.802c-17.233-27.342,23.873-62.337,25.63-63.814
							c2.131-1.788,5.307-1.512,7.096,0.618c1.789,2.129,1.513,5.307-0.617,7.097c-10.099,8.501-34.015,34.18-23.586,50.728
							c4.635,7.353,10.874,11.425,17.479,15.737c13.264,8.657,26.981,17.61,22.865,51.188
							C250.994,186.443,248.819,188.316,246.308,188.314z"/>
					</g>
				</g>
				<g>
					<g>
						<g>
							<path style="fill:#182638;" d="M153.074,198.712c0,0,1.264-11.72,6.508-14.763c5.246-3.041,25.986-6.577,30.476-2.81
								c4.489,3.766,8.337,12.564,8.337,12.564L153.074,198.712z"/>
						</g>
						<g>
							<g>
								<path style="fill:#131D2B;" d="M188.859,194.758l9.537-1.055c0,0-3.849-8.798-8.337-12.564
									c-1.323-1.109-4.06-1.583-7.391-1.623C185.866,184.29,187.751,189.95,188.859,194.758z"/>
							</g>
						</g>
					</g>
					<path style="fill:#2E3E52;" d="M148.714,199.984c0,0,1.783-5.672,5.192-7.646c7.22-4.183,34.152-7.91,39.206-8.051
						c4.621-0.128,7.032,5.176,7.032,5.176"/>
					<path style="fill:#223145;" d="M148.714,199.984c0,0,1.783-5.672,5.192-7.646c7.22-4.183,34.152-7.91,39.206-8.051
						c4.621-0.128,7.032,5.176,7.032,5.176"/>
				</g>
				<g>
					<g>
						<g>
							<path style="fill:#182638;" d="M346.879,198.892c0,0-1.24-11.721-6.48-14.773c-5.239-3.051-25.974-6.625-30.47-2.868
								c-4.498,3.758-8.359,12.549-8.359,12.549L346.879,198.892z"/>
						</g>
						<g>
							<g>
								<path style="fill:#131D2B;" d="M311.103,194.872l-9.533-1.072c0,0,3.862-8.791,8.359-12.549
									c1.324-1.107,4.062-1.574,7.394-1.609C314.117,184.41,312.219,190.066,311.103,194.872z"/>
							</g>
						</g>
					</g>
					<path style="fill:#2E3E52;" d="M351.241,200.175c0,0-1.774-5.678-5.179-7.659c-7.214-4.195-34.139-7.972-39.191-8.123
						c-4.621-0.137-7.042,5.164-7.042,5.164"/>
					<path style="fill:#223145;" d="M351.241,200.175c0,0-1.774-5.678-5.179-7.659c-7.214-4.195-34.139-7.972-39.191-8.123
						c-4.621-0.137-7.042,5.164-7.042,5.164"/>
				</g>
				<g>
					<path style="fill:#2E3E52;" d="M260.349,203.751c-0.001,1.391-1.13,2.518-2.521,2.516l-21.407-0.02
						c-1.39,0-2.517-1.128-2.515-2.52l2.54-24.237c0.001-1.392,1.13-2.518,2.521-2.517l16.37,0.015
						c1.39,0.002,2.517,1.13,2.516,2.522L260.349,203.751z"/>
				</g>
				<g>
					<path style="fill:#223145;" d="M247.285,182.229c-3.348,0.086-7.273-0.218-11.193,0.633l-2.186,20.865
						c-0.002,1.392,1.125,2.52,2.515,2.52l21.407,0.02c1.391,0.002,2.52-1.125,2.521-2.516l-2.208-21.449
						C254.691,182.255,250.378,182.27,247.285,182.229z"/>
				</g>
				<g>
					<path style="fill:#2E3E52;" d="M396.73,315.949c-13.379-54.577-33.056-108.744-42.705-115.048
						c-9.647-6.305-39.586-15.147-106.743-16.05c-62.122,1.622-94.87,9.565-104.529,15.854
						c-9.66,6.285-29.439,60.414-42.921,114.968c-13.483,54.555,8.746,72.623,33.093,70.547
						c24.346-2.076,53.625-78.851,59.686-88.931c2.31-3.838,47.546-4.473,55.157-4.552c7.451,0.087,53.905,0.796,56.218,4.659
						c6.043,10.09,35.177,86.919,59.519,89.039C387.849,388.558,410.11,370.528,396.73,315.949z"/>
				</g>
				<g>
					<g>
						<path style="fill:#2E3E52;" d="M307.208,286.902c-0.01,11.823-9.603,21.398-21.427,21.386
							c-11.822-0.012-21.397-9.604-21.386-21.425c0.012-11.825,9.604-21.4,21.427-21.387
							C297.644,265.485,307.219,275.081,307.208,286.902z"/>
					</g>
					<g>
						<path style="fill:#223145;" d="M307.208,286.902c-0.01,11.823-9.603,21.398-21.427,21.386
							c-11.822-0.012-21.397-9.604-21.386-21.425c0.012-11.825,9.604-21.4,21.427-21.387
							C297.644,265.485,307.219,275.081,307.208,286.902z"/>
					</g>
					<g>
						<g>
							<path style="fill:#182638;" d="M302.488,286.897c-0.009,9.275-7.533,16.783-16.807,16.774
								c-9.271-0.008-16.781-7.531-16.772-16.806c0.008-9.271,7.531-16.781,16.804-16.773
								C294.986,270.101,302.497,277.626,302.488,286.897z"/>
						</g>
						<g>
							<path style="fill:#131D2B;" d="M298.695,276.257c0.823,1.982,1.28,4.159,1.278,6.44c-0.008,9.276-7.533,16.784-16.806,16.773
								c-5.233-0.004-9.905-2.407-12.98-6.163c2.522,6.078,8.507,10.358,15.495,10.365c9.273,0.009,16.798-7.5,16.807-16.774
								C302.492,282.861,301.067,279.153,298.695,276.257z"/>
						</g>
					</g>
				</g>
				<g>
					<g>
						<path style="fill:#2E3E52;" d="M210.383,236.909c-0.016,18.426-14.972,33.355-33.401,33.336
							c-18.429-0.015-33.355-14.971-33.339-33.399c0.018-18.43,14.972-33.356,33.401-33.339
							C195.474,203.524,210.4,218.477,210.383,236.909z"/>
					</g>
					<g>
						<path style="fill:#223145;" d="M210.383,236.909c-0.016,18.426-14.972,33.355-33.401,33.336
							c-18.429-0.015-33.355-14.971-33.339-33.399c0.018-18.43,14.972-33.356,33.401-33.339
							C195.474,203.524,210.4,218.477,210.383,236.909z"/>
					</g>
					<path style="fill:#DDE1E1;" d="M206.106,236.904c-0.015,16.064-13.053,29.078-29.12,29.066
						c-16.066-0.015-29.08-13.054-29.064-29.119c0.015-16.068,13.053-29.081,29.12-29.066
						C193.107,207.799,206.12,220.837,206.106,236.904z"/>
					<path style="fill:#CCCECE;" d="M202.045,222.055c1.402,3.414,2.18,7.151,2.176,11.072
						c-0.016,16.067-13.052,29.08-29.119,29.062c-10.644-0.008-19.941-5.735-25.005-14.268c4.346,10.579,14.742,18.038,26.889,18.05
						c16.067,0.012,29.105-13.002,29.12-29.066C206.11,231.48,204.626,226.404,202.045,222.055z"/>
				</g>
				<g>
					<path style="fill:#2E3E52;" d="M168.317,230.404l-10.377-0.01c-1.691-0.002-3.062,1.367-3.065,3.06l-0.006,6.804
						c-0.002,1.69,1.368,3.064,3.06,3.063l10.376,0.011l6.833-6.496L168.317,230.404z"/>
				</g>
				<g>
					<path style="fill:#2E3E52;" d="M185.814,230.421l10.376,0.01c1.69,0.001,3.061,1.374,3.059,3.064l-0.006,6.805
						c-0.002,1.69-1.374,3.06-3.065,3.06l-10.377-0.01l-6.821-6.509L185.814,230.421z"/>
				</g>
				<g>
					<path style="fill:#223145;" d="M168.308,240.395l-10.376-0.01c-1.69-0.003-3.062-1.372-3.059-3.066l-0.003,2.939
						c-0.002,1.69,1.368,3.064,3.06,3.063l10.376,0.011l6.833-6.496l-1.55-1.46L168.308,240.395z"/>
				</g>
				<g>
					<path style="fill:#223145;" d="M196.182,240.421l-10.377-0.01l-5.271-5.031l-1.553,1.461l6.821,6.509l10.377,0.01
						c1.691,0,3.064-1.37,3.065-3.06l0.002-2.938C199.245,239.054,197.872,240.423,196.182,240.421z"/>
				</g>
				<g>
					<path style="fill:#2E3E52;" d="M183.532,228.134l0.01-10.376c0.001-1.691-1.369-3.064-3.06-3.064l-6.805-0.007
						c-1.691-0.003-3.064,1.368-3.065,3.058l-0.01,10.378l6.496,6.833L183.532,228.134z"/>
				</g>
				<g>
					<path style="fill:#2E3E52;" d="M183.516,245.63l-0.011,10.379c-0.001,1.689-1.373,3.059-3.065,3.057l-6.804-0.005
						c-1.691,0-3.062-1.373-3.06-3.066l0.01-10.376l6.509-6.821L183.516,245.63z"/>
				</g>
				<g>
					<path style="fill:#223145;" d="M180.483,214.694l-2.519-0.002c1.691,0.002,3.062,1.373,3.06,3.064l-0.01,10.375l-5.179,5.492
						l1.265,1.332l6.433-6.822l0.01-10.376C183.544,216.067,182.174,214.694,180.483,214.694z"/>
				</g>
				<g>
					<path style="fill:#223145;" d="M177.096,238.798l-1.268,1.329l5.17,5.501l-0.009,10.378c-0.002,1.691-1.374,3.061-3.066,3.059
						l2.519,0.002c1.692,0.002,3.064-1.368,3.065-3.057l0.011-10.379L177.096,238.798z"/>
				</g>
				<g>
					<path style="fill:#223145;" d="M137.398,207.223c-10.48,17.128-26.243,62.632-37.565,108.449
						c-13.483,54.555,8.746,72.623,33.093,70.547c24.346-2.076,53.625-78.851,59.686-88.931
						C130.859,279.391,130.876,234.336,137.398,207.223z"/>
				</g>
				<g>
					<path style="fill:#223145;" d="M396.73,315.949c-11.897-48.531-28.768-96.704-39.145-111.223
						c7.459,30.606,3.22,74.674-53.533,92.783c6.177,10.509,35.195,86.811,59.454,88.926
						C387.849,388.558,410.11,370.528,396.73,315.949z"/>
				</g>
				<g>
					<path style="fill:#19283B;" d="M176.357,331.613c7.874-16.028,13.867-30.351,16.255-34.324
						c-22.093-6.401-36.275-16.281-45.086-27.57l-0.357,0.246C147.168,269.965,153.225,315.294,176.357,331.613z"/>
				</g>
				<g>
					<path style="fill:#19283B;" d="M304.052,297.509c2.322,3.946,7.865,17.182,15.17,32.279
						c19.391-16.256,25.754-53.093,26.644-58.865C337.113,281.811,323.746,291.225,304.052,297.509z"/>
				</g>
				<g>
					<g>
						<g>
							<path style="fill:#2E3E52;" d="M255.085,222.633l-15.53-0.014c-2.777-0.001-5.038,2.144-5.043,4.787l-0.002,3.221
								c-0.003,2.642,2.255,4.791,5.033,4.794l15.529,0.016c2.778,0.003,5.039-2.144,5.042-4.786l0.003-3.221
								C260.12,224.788,257.862,222.638,255.085,222.633z"/>
						</g>
						<g>
							<path style="fill:#2E3E52;" d="M255.067,241.943l-15.53-0.013c-2.778-0.003-5.039,2.143-5.041,4.786l-0.003,3.217
								c-0.003,2.643,2.255,4.795,5.032,4.798l15.53,0.016c2.778,0,5.039-2.145,5.042-4.788l0.003-3.22
								C260.102,244.097,257.844,241.947,255.067,241.943z"/>
						</g>
					</g>
					<g>
						<g>
							<path style="fill:#2E3E52;" d="M255.085,222.633l-15.53-0.014c-2.777-0.001-5.038,2.144-5.043,4.787l-0.002,3.221
								c-0.003,2.642,2.255,4.791,5.033,4.794l15.529,0.016c2.778,0.003,5.039-2.144,5.042-4.786l0.003-3.221
								C260.12,224.788,257.862,222.638,255.085,222.633z"/>
						</g>
						<g>
							<path style="fill:#2E3E52;" d="M255.067,241.943l-15.53-0.013c-2.778-0.003-5.039,2.143-5.041,4.786l-0.003,3.217
								c-0.003,2.643,2.255,4.795,5.032,4.798l15.53,0.016c2.778,0,5.039-2.145,5.042-4.788l0.003-3.22
								C260.102,244.097,257.844,241.947,255.067,241.943z"/>
						</g>
					</g>
					<path style="fill:#DDE1E1;" d="M257.596,230.647c-0.002,1.256-1.13,2.272-2.52,2.27l-15.531-0.013
						c-1.391-0.001-2.517-1.021-2.515-2.276l0.002-3.219c0.002-1.255,1.131-2.272,2.521-2.27l15.53,0.014
						c1.391,0.001,2.517,1.021,2.516,2.275L257.596,230.647z"/>
					<path style="fill:#DDE1E1;" d="M257.578,249.956c-0.001,1.254-1.13,2.272-2.52,2.271l-15.531-0.013
						c-1.39-0.002-2.518-1.021-2.515-2.275l0.003-3.221c0.001-1.255,1.13-2.271,2.52-2.269l15.53,0.013
						c1.391,0.001,2.517,1.02,2.516,2.275L257.578,249.956z"/>
					<path style="fill:#CCCECE;" d="M255.077,230.714l-15.53-0.013c-1.391-0.002-2.518-1.02-2.516-2.275l-0.001,2.202
						c-0.001,1.255,1.124,2.275,2.515,2.276l15.531,0.013c1.39,0.002,2.518-1.014,2.52-2.27l0.001-2.203
						C257.597,229.698,256.468,230.714,255.077,230.714z"/>
					<path style="fill:#CCCECE;" d="M255.059,250.023l-15.53-0.016c-1.391,0.001-2.518-1.02-2.517-2.275l-0.001,2.206
						c-0.003,1.254,1.125,2.273,2.515,2.275l15.531,0.013c1.39,0.001,2.519-1.016,2.52-2.271l0.003-2.203
						C257.578,249.008,256.45,250.025,255.059,250.023z"/>
				</g>
				<g>
					<path style="fill:#223145;" d="M210.962,116.964c-10.429-16.548,13.487-42.227,23.586-50.728
						c2.13-1.79,2.407-4.967,0.617-7.097c-1.788-2.131-4.965-2.406-7.096-0.618c-1.183,0.994-20.2,17.181-27.243,35.997
						C200.63,103.485,205.135,112.302,210.962,116.964C211.095,116.871,210.962,116.964,210.962,116.964z"/>
				</g>
				<g>
					<g>
						<g>
							<g>
								<g>
									<g>
										<g>
											<path style="fill:#2E3E52;" d="M334.837,216.847c-0.008,8.226-6.685,14.892-14.91,14.885
												c-8.229-0.008-14.892-6.687-14.885-14.912c0.008-8.23,6.684-14.895,14.913-14.886
												C328.18,201.943,334.844,208.619,334.837,216.847z"/>
										</g>
										<g>
											<path style="fill:#223145;" d="M334.837,216.847c-0.008,8.226-6.685,14.892-14.91,14.885
												c-8.229-0.008-14.892-6.687-14.885-14.912c0.008-8.23,6.684-14.895,14.913-14.886
												C328.18,201.943,334.844,208.619,334.837,216.847z"/>
										</g>
										<path style="fill:#F8C437;" d="M331.122,216.845c-0.007,6.175-5.018,11.176-11.192,11.17
											c-6.176-0.005-11.176-5.017-11.171-11.19c0.006-6.174,5.016-11.178,11.192-11.174
											C326.125,205.657,331.128,210.67,331.122,216.845z"/>
										<path style="fill:#D3A32D;" d="M328.776,210c0.47,1.24,0.739,2.58,0.738,3.985c-0.007,6.174-5.015,11.176-11.191,11.172
											c-3.593-0.005-6.782-1.711-8.825-4.349c1.603,4.207,5.661,7.203,10.431,7.207c6.174,0.006,11.185-4.995,11.192-11.17
											C331.123,214.265,330.243,211.895,328.776,210z"/>
									</g>
								</g>
							</g>
							<g>
								<g>
									<g>
										<g>
											<path style="fill:#2E3E52;" d="M334.798,258.057c-0.006,8.225-6.685,14.893-14.91,14.885
												c-8.228-0.009-14.893-6.688-14.883-14.914c0.007-8.228,6.683-14.892,14.911-14.884
												C328.142,243.151,334.806,249.828,334.798,258.057z"/>
										</g>
										<g>
											<path style="fill:#223145;" d="M334.798,258.057c-0.006,8.225-6.685,14.893-14.91,14.885
												c-8.228-0.009-14.893-6.688-14.883-14.914c0.007-8.228,6.683-14.892,14.911-14.884
												C328.142,243.151,334.806,249.828,334.798,258.057z"/>
										</g>
										<path style="fill:#30B19F;" d="M331.081,258.053c-0.006,6.174-5.015,11.178-11.19,11.169
											c-6.176-0.004-11.177-5.018-11.172-11.191c0.005-6.173,5.016-11.176,11.192-11.171
											C326.086,246.865,331.088,251.878,331.081,258.053z"/>
										<path style="fill:#289986;" d="M328.738,251.208c0.47,1.241,0.74,2.579,0.739,3.985
											c-0.005,6.173-5.016,11.176-11.191,11.172c-3.594-0.003-6.782-1.711-8.825-4.348c1.603,4.206,5.661,7.203,10.431,7.206
											c6.174,0.009,11.184-4.995,11.19-11.169C331.084,255.471,330.204,253.101,328.738,251.208z"/>
									</g>
								</g>
							</g>
						</g>
						<g>
							<g>
								<g>
									<g>
										<g>
											<path style="fill:#2E3E52;" d="M312.665,237.431c-0.008,8.226-6.686,14.892-14.911,14.884
												c-8.228-0.007-14.892-6.685-14.885-14.912c0.008-8.229,6.684-14.89,14.912-14.884
												C306.007,222.528,312.672,229.204,312.665,237.431z"/>
										</g>
										<g>
											<path style="fill:#223145;" d="M312.665,237.431c-0.008,8.226-6.686,14.892-14.911,14.884
												c-8.228-0.007-14.892-6.685-14.885-14.912c0.008-8.229,6.684-14.89,14.912-14.884
												C306.007,222.528,312.672,229.204,312.665,237.431z"/>
										</g>
										<path style="fill:#935AAF;" d="M308.948,237.428c-0.006,6.174-5.017,11.178-11.191,11.172
											c-6.175-0.007-11.176-5.017-11.17-11.194c0.006-6.174,5.016-11.174,11.191-11.169
											C303.952,226.243,308.953,231.252,308.948,237.428z"/>
										<path style="fill:#704689;" d="M306.602,230.582c0.472,1.24,0.743,2.579,0.741,3.986
											c-0.006,6.174-5.017,11.176-11.191,11.17c-3.594-0.002-6.782-1.707-8.826-4.346c1.603,4.207,5.661,7.203,10.43,7.208
											c6.175,0.007,11.186-4.997,11.191-11.172C308.95,234.848,308.07,232.477,306.602,230.582z"/>
									</g>
								</g>
							</g>
							<g>
								<g>
									<g>
										<g>
											<path style="fill:#2E3E52;" d="M356.972,237.472c-0.008,8.227-6.687,14.893-14.913,14.885
												c-8.227-0.008-14.89-6.685-14.883-14.911c0.008-8.229,6.684-14.892,14.91-14.884
												C350.314,222.569,356.98,229.243,356.972,237.472z"/>
										</g>
										<g>
											<path style="fill:#223145;" d="M356.972,237.472c-0.008,8.227-6.687,14.893-14.913,14.885
												c-8.227-0.008-14.89-6.685-14.883-14.911c0.008-8.229,6.684-14.892,14.91-14.884
												C350.314,222.569,356.98,229.243,356.972,237.472z"/>
										</g>
										<path style="fill:#EA4A3F;" d="M353.254,237.47c-0.007,6.174-5.016,11.176-11.192,11.17
											c-6.175-0.005-11.175-5.018-11.17-11.191c0.005-6.176,5.018-11.177,11.191-11.171
											C348.258,226.284,353.26,231.294,353.254,237.47z"/>
										<path style="fill:#C63936;" d="M350.908,230.624c0.472,1.24,0.744,2.579,0.743,3.986
											c-0.006,6.174-5.018,11.177-11.194,11.17c-3.593-0.003-6.78-1.708-8.825-4.345c1.605,4.205,5.662,7.201,10.432,7.206
											c6.176,0.005,11.185-4.996,11.192-11.17C353.257,234.889,352.375,232.516,350.908,230.624z"/>
									</g>
								</g>
							</g>
						</g>
					</g>
					<g>
						<g>
							<path style="fill:#182638;" d="M339.512,242.98c-0.113-0.017-0.224-0.055-0.326-0.114c-0.286-0.166-0.463-0.473-0.463-0.804
								l0.007-8.474c0-0.047,0.003-0.093,0.01-0.138c0.042-0.277,0.208-0.523,0.454-0.665c0.288-0.166,0.641-0.165,0.929,0.001
								l7.336,4.243c0.286,0.166,0.463,0.473,0.463,0.804c0,0.047-0.003,0.093-0.01,0.138c-0.042,0.277-0.208,0.523-0.454,0.666
								l-7.343,4.231C339.929,242.973,339.716,243.011,339.512,242.98z M340.584,235.196l-0.004,5.259l4.557-2.626L340.584,235.196z
								"/>
						</g>
					</g>
					<g>
						<g>
							<g>
								<path style="fill:#182638;" d="M319.953,222.119c-0.446-0.068-0.788-0.453-0.788-0.918l0.008-9.128
									c0-0.513,0.416-0.928,0.929-0.928c0.505,0,0.927,0.417,0.927,0.929l-0.008,9.128c0,0.513-0.416,0.928-0.929,0.928
									C320.046,222.13,319.999,222.126,319.953,222.119z"/>
							</g>
						</g>
						<g>
							<g>
								<path style="fill:#182638;" d="M315.392,217.551c-0.446-0.068-0.788-0.453-0.788-0.918c0-0.513,0.416-0.928,0.929-0.928
									l9.131,0.008c0.502,0,0.927,0.416,0.927,0.929c0,0.513-0.416,0.928-0.929,0.928l-9.131-0.008
									C315.484,217.562,315.438,217.558,315.392,217.551z"/>
							</g>
						</g>
					</g>
					<g>
						<g>
							<path style="fill:#182638;" d="M297.105,242.432c-1.074-0.163-2.066-0.663-2.848-1.446c-0.968-0.969-1.499-2.257-1.497-3.626
								c0.001-1.368,0.534-2.655,1.504-3.623c0.969-0.967,2.256-1.499,3.625-1.498c2.818,0,5.124,2.305,5.122,5.129
								c-0.001,1.37-0.535,2.657-1.505,3.625c-0.969,0.967-2.256,1.499-3.625,1.497
								C297.618,242.491,297.359,242.471,297.105,242.432z M298.375,234.133c-0.159-0.024-0.323-0.037-0.489-0.037
								c-0.873-0.001-1.693,0.338-2.311,0.955c-0.618,0.617-0.958,1.438-0.96,2.311c-0.001,0.874,0.338,1.695,0.955,2.313
								c0.617,0.619,1.433,0.96,2.312,0.96c0.873,0.001,1.693-0.338,2.311-0.954c0.619-0.618,0.96-1.439,0.961-2.313l0,0
								C301.156,235.732,299.948,234.372,298.375,234.133z"/>
						</g>
					</g>
					<g>
						<g>
							<path style="fill:#182638;" d="M315.351,261.543c-0.195-0.03-0.377-0.121-0.518-0.262c-0.174-0.175-0.272-0.411-0.271-0.657
								l0.006-5.667c0-0.512,0.416-0.927,0.929-0.927l8.816,0.009c0.516,0.002,0.928,0.417,0.927,0.929l-0.006,5.665
								c0,0.512-0.416,0.927-0.929,0.927l-8.816-0.007C315.444,261.553,315.397,261.55,315.351,261.543z M316.424,255.888
								l-0.004,3.81l6.959,0.005l0.004-3.808L316.424,255.888z"/>
						</g>
					</g>
				</g>
				<g>
					<g>
						<path style="fill:#2E3E52;" d="M232.496,286.832c-0.011,11.822-9.604,21.397-21.427,21.387
							c-11.822-0.012-21.397-9.605-21.386-21.427c0.012-11.824,9.605-21.398,21.426-21.387
							C222.931,265.416,232.507,275.01,232.496,286.832z"/>
					</g>
					<g>
						<path style="fill:#223145;" d="M232.496,286.832c-0.011,11.822-9.604,21.397-21.427,21.387
							c-11.822-0.012-21.397-9.605-21.386-21.427c0.012-11.824,9.605-21.398,21.426-21.387
							C222.931,265.416,232.507,275.01,232.496,286.832z"/>
					</g>
					<g>
						<g>
							<path style="fill:#182638;" d="M227.879,286.828c-0.009,9.275-7.532,16.782-16.804,16.775
								c-9.273-0.009-16.783-7.533-16.775-16.807c0.009-9.272,7.534-16.782,16.806-16.773
								C220.377,270.032,227.888,277.555,227.879,286.828z"/>
						</g>
						<g>
							<path style="fill:#131D2B;" d="M224.087,276.186c0.823,1.985,1.28,4.159,1.278,6.442
								c-0.008,9.273-7.532,16.782-16.805,16.775c-5.235-0.004-9.906-2.407-12.982-6.162c2.522,6.076,8.505,10.356,15.497,10.363
								c9.272,0.008,16.795-7.5,16.804-16.775C227.882,282.791,226.459,279.085,224.087,276.186z"/>
						</g>
					</g>
				</g>
			</g>
			<g style="opacity:0.5;">
				<g>
					<path style="fill:#FFFFFF;" d="M351.434,175.402c-0.162-0.025-0.316-0.076-0.456-0.151c-0.179-0.091-0.341-0.224-0.471-0.39
						c-0.11-0.14-0.195-0.299-0.249-0.474c-0.04-0.13-0.061-0.264-0.064-0.398l-0.495-12.376c-0.007-0.102-0.002-0.204,0.013-0.305
						c0.005-0.034,0.011-0.068,0.02-0.101c0.039-0.176,0.111-0.34,0.207-0.486c0.115-0.174,0.262-0.317,0.427-0.423
						c0.175-0.114,0.377-0.188,0.593-0.219c0.17-0.024,0.347-0.017,0.52,0.024c0.135,0.03,0.263,0.079,0.381,0.142l10.967,5.758
						c0.123,0.06,0.237,0.142,0.34,0.236c0.129,0.122,0.233,0.263,0.31,0.416c0.095,0.191,0.145,0.393,0.153,0.595
						c0.004,0.093-0.001,0.186-0.015,0.279c-0.017,0.111-0.047,0.222-0.091,0.329c-0.066,0.163-0.162,0.317-0.286,0.45
						c-0.092,0.098-0.196,0.183-0.308,0.251l-10.472,6.62c-0.116,0.077-0.243,0.135-0.378,0.178
						c-0.167,0.051-0.341,0.071-0.511,0.06C351.524,175.413,351.478,175.408,351.434,175.402z M352.719,163.999l0.295,7.37
						l6.234-3.942L352.719,163.999z"/>
				</g>
			</g>
			<g>
				<g>
					<path style="fill:#FFFFFF;" d="M185.906,153.579c-0.415-0.063-0.8-0.303-1.033-0.69l-6.914-11.479
						c-0.416-0.692-0.192-1.59,0.498-2.005c0.693-0.418,1.59-0.194,2.006,0.497l6.913,11.478c0.417,0.692,0.193,1.59-0.497,2.006
						C186.574,153.569,186.231,153.629,185.906,153.579z"/>
				</g>
				<g>
					<path style="fill:#FFFFFF;" d="M176.71,151.296c-0.416-0.063-0.801-0.303-1.035-0.691c-0.416-0.692-0.193-1.59,0.499-2.006
						l11.48-6.912c0.692-0.417,1.59-0.194,2.006,0.498c0.417,0.691,0.193,1.589-0.498,2.006l-11.48,6.913
						C177.377,151.286,177.034,151.346,176.71,151.296z"/>
				</g>
			</g>
			<g style="opacity:0.5;">
				<g>
					<path style="fill:#FFFFFF;" d="M391.684,243.727c-0.556-0.084-1.037-0.487-1.193-1.064l-3.498-12.933
						c-0.21-0.779,0.251-1.582,1.03-1.792c0.78-0.211,1.581,0.25,1.793,1.028l3.497,12.935c0.21,0.78-0.251,1.581-1.029,1.793
						C392.082,243.747,391.879,243.757,391.684,243.727z"/>
				</g>
				<g>
					<path style="fill:#FFFFFF;" d="M383.467,239.009c-0.556-0.084-1.037-0.485-1.194-1.062c-0.21-0.78,0.251-1.582,1.03-1.792
						l12.936-3.499c0.781-0.209,1.582,0.25,1.793,1.028c0.21,0.781-0.25,1.583-1.029,1.794l-12.937,3.5
						C383.864,239.03,383.661,239.038,383.467,239.009z"/>
				</g>
			</g>
			<g>
				<g>
					<path style="fill:#FFFFFF;" d="M116.53,216.656c-3.141-0.476-5.513-3.129-5.64-6.307c-0.146-3.663,2.714-6.762,6.377-6.91
						c0.424-0.015,0.851,0.007,1.268,0.07c3.141,0.476,5.514,3.128,5.64,6.307c0.071,1.773-0.552,3.47-1.758,4.775
						c-1.204,1.307-2.845,2.064-4.619,2.134C117.374,216.74,116.948,216.72,116.53,216.656z M118.153,206.031
						c-0.257-0.039-0.521-0.053-0.784-0.044c-2.258,0.09-4.021,2.002-3.932,4.259c0.078,1.96,1.541,3.595,3.476,3.888
						c0.257,0.039,0.521,0.054,0.783,0.044c1.094-0.044,2.106-0.511,2.849-1.316c0.743-0.804,1.129-1.851,1.085-2.944
						C121.55,207.96,120.088,206.324,118.153,206.031z"/>
				</g>
			</g>
			<g>
				<g>
					<path style="fill:#FFFFFF;" d="M274.584,132.909c-0.276-0.185-0.481-0.46-0.581-0.78c-0.114-0.371-0.076-0.771,0.104-1.114
						l3.879-7.355c0.377-0.715,1.261-0.987,1.976-0.611l11.444,6.034c0.707,0.37,0.988,1.26,0.611,1.975l-3.879,7.357
						c-0.18,0.343-0.49,0.6-0.861,0.715c-0.37,0.114-0.771,0.077-1.114-0.104l-11.444-6.035
						C274.672,132.965,274.627,132.939,274.584,132.909z M279.89,126.315l-2.516,4.77l8.86,4.673l2.515-4.771L279.89,126.315z"/>
				</g>
			</g>
			<path style="fill:#FFFFFF;" d="M293.925,363.527c-0.417,2.748-2.984,4.638-5.731,4.222c-2.749-0.417-4.64-2.983-4.223-5.732
				c0.417-2.748,2.983-4.638,5.733-4.221C292.45,358.212,294.342,360.779,293.925,363.527z"/>
			<path style="opacity:0.5;fill:#FFFFFF;" d="M210.601,172.05c-0.377,2.483-2.695,4.189-5.178,3.813
				c-2.482-0.376-4.19-2.693-3.813-5.176c0.376-2.482,2.694-4.189,5.177-3.813C209.27,167.25,210.978,169.568,210.601,172.05z"/>
		</g>
		<polygon style="fill:#F8C437;" points="83.522,332.507 416.478,327.093 403.351,406.764 83.522,406.764 		"/>
		
			<text transform="matrix(0.9954 0.0038 -0.0991 0.9951 88.3888 391.9867)" style="fill:#2E3E52; font-family:'Commando'; font-size:66.0994px; letter-spacing:1.005;">GAMEzone</text>
		
			<text transform="matrix(0.9955 0 0 1 146.1445 424.9707)" style="fill:#2E3E52; font-family:'Montserrat-Bold'; font-size:13.8632px; letter-spacing:6.027;">READY TO PLAY</text>
	</g>
</g>
</svg>
