<svg width="83" height="502" viewBox="0 0 83 502" fill="none" xmlns="http://www.w3.org/2000/svg">
<mask id="path-1-outside-1_452_3291" maskUnits="userSpaceOnUse" x="0" y="0.208984" width="83" height="502" fill="black">
<rect fill="white" y="0.208984" width="83" height="502"/>
<path d="M64.6 476.609H47.9L47.9 424.909H64.6V476.609ZM3.99999 436.709L79 402.609V424.709L12.8 453.309V447.309L79 476.009V498.109L3.99999 464.009V436.709ZM42.3 332.706L38.4 331.006C38.5333 325.206 39.4333 320.439 41.1 316.706C42.7 312.906 44.9667 310.073 47.9 308.206C50.7667 306.339 54.1 305.406 57.9 305.406C61.9667 305.406 65.6 306.339 68.8 308.206C71.9333 310.073 74.4333 312.873 76.3 316.606C78.1 320.273 79 324.873 79 330.406L79 385.806L40.5 380.006L3.99999 385.806L3.99999 332.406C3.99999 325.473 5.63333 320.073 8.9 316.206C12.1 312.339 16.5667 310.406 22.3 310.406C25.4333 310.406 28.4333 311.139 31.3 312.606C34.1667 314.073 36.6 316.439 38.6 319.706C40.5333 322.906 41.7667 327.239 42.3 332.706ZM74.2 365.306L64.5 373.306V336.006C64.5 333.006 63.7667 330.673 62.3 329.006C60.8333 327.339 58.8 326.506 56.2 326.506C53.6 326.506 51.5333 327.406 50 329.206C48.4 331.006 47.6 333.673 47.6 337.206V368.006H33.4V340.006C33.4 337.606 32.7 335.606 31.3 334.006C29.8333 332.339 27.8667 331.506 25.4 331.506C23.4 331.506 21.7667 332.206 20.5 333.606C19.1667 335.006 18.5 337.006 18.5 339.606V373.206L8.8 365.306L40.5 360.206L74.2 365.306ZM80.6 242.318C80.6 251.184 78.9667 258.984 75.7 265.718C72.4333 272.384 67.8667 277.584 62 281.318C56.1333 284.984 49.3 286.818 41.5 286.818C33.7 286.818 26.8667 284.984 21 281.318C15.1333 277.584 10.5667 272.384 7.3 265.718C4.03333 258.984 2.4 251.184 2.4 242.318C2.4 233.384 4.03333 225.584 7.3 218.918C10.5667 212.251 15.1333 207.051 21 203.318C26.8667 199.584 33.7 197.718 41.5 197.718C49.3 197.718 56.1333 199.584 62 203.318C67.8667 207.051 72.4333 212.251 75.7 218.918C78.9667 225.584 80.6 233.384 80.6 242.318ZM62.1 242.318C62.1 237.451 61.2667 233.251 59.6 229.718C57.9333 226.184 55.5667 223.484 52.5 221.618C49.4333 219.684 45.7667 218.718 41.5 218.718C37.2333 218.718 33.5667 219.684 30.5 221.618C27.4333 223.484 25.0667 226.184 23.4 229.718C21.7333 233.251 20.9 237.451 20.9 242.318C20.9 247.118 21.7333 251.284 23.4 254.818C25.0667 258.351 27.4333 261.084 30.5 263.018C33.5667 264.951 37.2333 265.918 41.5 265.918C45.7667 265.918 49.4333 264.951 52.5 263.018C55.5667 261.084 57.9333 258.351 59.6 254.818C61.2667 251.284 62.1 247.118 62.1 242.318ZM45.5 155.333C48.9 155.333 51.8667 154.7 54.4 153.433C56.8667 152.1 58.7667 150.167 60.1 147.633C61.4333 145.033 62.1 141.867 62.1 138.133C62.1 134.333 61.4333 131.167 60.1 128.633C58.7667 126.1 56.8667 124.2 54.4 122.933C51.8667 121.667 48.9 121.033 45.5 121.033H3.99999V100.233H46.5C53.3667 100.233 59.3667 101.833 64.5 105.033C69.5667 108.167 73.5333 112.567 76.4 118.233C79.2 123.9 80.6 130.533 80.6 138.133C80.6 145.667 79.2 152.3 76.4 158.033C73.5333 163.7 69.5667 168.133 64.5 171.333C59.3667 174.467 53.3667 176.033 46.5 176.033H3.99999V155.333H45.5ZM13.1 51.7402V30.9402H79V51.7402H13.1ZM3.99999 80.3402L3.99999 2.34023H22.4V80.3402H3.99999Z"/>
</mask>
<path d="M64.6 476.609V478.609H66.6V476.609H64.6ZM47.9 476.609H45.9V478.609H47.9V476.609ZM47.9 424.909V422.909H45.9V424.909H47.9ZM64.6 424.909H66.6V422.909H64.6V424.909ZM3.99999 436.709L3.1722 434.888L1.99999 435.421V436.709H3.99999ZM79 402.609H81V399.503L78.1722 400.788L79 402.609ZM79 424.709L79.7932 426.545L81 426.024V424.709H79ZM12.8 453.309H10.8V456.352L13.5932 455.145L12.8 453.309ZM12.8 447.309L13.5955 445.474L10.8 444.262V447.309H12.8ZM79 476.009H81V474.696L79.7955 474.174L79 476.009ZM79 498.109L78.1722 499.93L81 501.215V498.109H79ZM3.99999 464.009H1.99999V465.297L3.1722 465.83L3.99999 464.009ZM64.6 474.609H47.9V478.609H64.6V474.609ZM49.9 476.609L49.9 424.909H45.9L45.9 476.609H49.9ZM47.9 426.909H64.6V422.909H47.9V426.909ZM62.6 424.909V476.609H66.6V424.909H62.6ZM4.82778 438.53L79.8278 404.43L78.1722 400.788L3.1722 434.888L4.82778 438.53ZM77 402.609V424.709H81V402.609H77ZM78.2068 422.873L12.0068 451.473L13.5932 455.145L79.7932 426.545L78.2068 422.873ZM14.8 453.309V447.309H10.8V453.309H14.8ZM12.0045 449.144L78.2045 477.844L79.7955 474.174L13.5955 445.474L12.0045 449.144ZM77 476.009V498.109H81V476.009H77ZM79.8278 496.288L4.82778 462.188L3.1722 465.83L78.1722 499.93L79.8278 496.288ZM5.99999 464.009V436.709H1.99999L1.99999 464.009H5.99999ZM42.3 332.706L41.5008 334.539L44.6211 335.899L44.2905 332.512L42.3 332.706ZM38.4 331.006L36.4005 330.96L36.3697 332.303L37.6008 332.839L38.4 331.006ZM41.1 316.706L42.9263 317.521L42.935 317.502L42.9433 317.482L41.1 316.706ZM47.9 308.206L48.9737 309.893L48.9826 309.888L48.9913 309.882L47.9 308.206ZM68.8 308.206L69.8236 306.488L69.8157 306.483L69.8077 306.478L68.8 308.206ZM76.3 316.606L78.0953 315.725L78.0921 315.718L78.0889 315.711L76.3 316.606ZM79 385.806L78.7021 387.784L81 388.13V385.806H79ZM40.5 380.006L40.7979 378.028L40.4918 377.982L40.1861 378.031L40.5 380.006ZM3.99999 385.806H1.99999V388.149L4.31386 387.781L3.99999 385.806ZM8.9 316.206L10.4278 317.497L10.4343 317.489L10.4408 317.481L8.9 316.206ZM38.6 319.706L40.3119 318.672L40.3057 318.662L38.6 319.706ZM74.2 365.306L75.4725 366.849L78.9283 363.999L74.4993 363.328L74.2 365.306ZM64.5 373.306H62.5V377.548L65.7725 374.849L64.5 373.306ZM62.3 329.006L60.7986 330.327L62.3 329.006ZM50 329.206L51.4948 330.535L51.5088 330.519L51.5225 330.503L50 329.206ZM47.6 368.006V370.006H49.6V368.006H47.6ZM33.4 368.006H31.4V370.006H33.4V368.006ZM31.3 334.006L32.8052 332.689L32.8014 332.685L31.3 334.006ZM20.5 333.606L21.9483 334.985L21.9659 334.967L21.9831 334.948L20.5 333.606ZM18.5 373.206L17.237 374.757L20.5 377.414V373.206H18.5ZM8.8 365.306L8.48232 363.331L4.07835 364.04L7.53701 366.857L8.8 365.306ZM40.5 360.206L40.7993 358.228L40.4906 358.182L40.1823 358.231L40.5 360.206ZM43.0992 330.872L39.1992 329.172L37.6008 332.839L41.5008 334.539L43.0992 330.872ZM40.3995 331.052C40.5291 325.414 41.4031 320.933 42.9263 317.521L39.2737 315.891C37.4636 319.945 36.5376 324.997 36.4005 330.96L40.3995 331.052ZM42.9433 317.482C44.4154 313.986 46.4435 311.503 48.9737 309.893L46.8262 306.519C43.4898 308.642 40.9846 311.826 39.2567 315.93L42.9433 317.482ZM48.9913 309.882C51.4979 308.25 54.443 307.406 57.9 307.406V303.406C53.757 303.406 50.0354 304.429 46.8087 306.53L48.9913 309.882ZM57.9 307.406C61.6482 307.406 64.9275 308.262 67.7923 309.933L69.8077 306.478C66.2725 304.416 62.2852 303.406 57.9 303.406V307.406ZM67.7764 309.924C70.5356 311.568 72.7902 314.058 74.5111 317.5L78.0889 315.711C76.0765 311.687 73.331 308.577 69.8236 306.488L67.7764 309.924ZM74.5047 317.487C76.131 320.8 77 325.075 77 330.406H81C81 324.67 80.069 319.745 78.0953 315.725L74.5047 317.487ZM77 330.406L77 385.806H81L81 330.406H77ZM79.2979 383.828L40.7979 378.028L40.2021 381.984L78.7021 387.784L79.2979 383.828ZM40.1861 378.031L3.68612 383.831L4.31386 387.781L40.8139 381.981L40.1861 378.031ZM5.99999 385.806L5.99999 332.406H1.99999L1.99999 385.806H5.99999ZM5.99999 332.406C5.99999 325.771 7.56233 320.888 10.4278 317.497L7.37223 314.915C3.70433 319.257 1.99999 325.174 1.99999 332.406H5.99999ZM10.4408 317.481C13.2041 314.142 17.0675 312.406 22.3 312.406V308.406C16.0658 308.406 10.9959 310.536 7.35921 314.931L10.4408 317.481ZM22.3 312.406C25.1076 312.406 27.7963 313.06 30.389 314.386L32.2109 310.825C29.0704 309.219 25.759 308.406 22.3 308.406V312.406ZM30.389 314.386C32.8707 315.656 35.0497 317.737 36.8943 320.75L40.3057 318.662C38.1503 315.141 35.4627 312.489 32.2109 310.825L30.389 314.386ZM36.8882 320.74C38.6119 323.593 39.7926 327.602 40.3094 332.9L44.2905 332.512C43.7407 326.876 42.4548 322.219 40.3118 318.672L36.8882 320.74ZM72.9275 363.763L63.2275 371.763L65.7725 374.849L75.4725 366.849L72.9275 363.763ZM66.5 373.306V336.006H62.5V373.306H66.5ZM66.5 336.006C66.5 332.692 65.6875 329.828 63.8014 327.685L60.7986 330.327C61.8458 331.517 62.5 333.32 62.5 336.006H66.5ZM63.8014 327.685C61.8889 325.511 59.2664 324.506 56.2 324.506V328.506C58.3335 328.506 59.7777 329.167 60.7986 330.327L63.8014 327.685ZM56.2 324.506C53.0798 324.506 50.4316 325.615 48.4775 327.909L51.5225 330.503C52.6351 329.197 54.1201 328.506 56.2 328.506V324.506ZM48.5052 327.877C46.4565 330.182 45.6 333.407 45.6 337.206H49.6C49.6 333.938 50.3435 331.83 51.4948 330.535L48.5052 327.877ZM45.6 337.206V368.006H49.6V337.206H45.6ZM47.6 366.006H33.4V370.006H47.6V366.006ZM35.4 368.006V340.006H31.4V368.006H35.4ZM35.4 340.006C35.4 337.188 34.5655 334.701 32.8051 332.689L29.7948 335.323C30.8345 336.511 31.4 338.024 31.4 340.006H35.4ZM32.8014 332.685C30.9103 330.536 28.37 329.506 25.4 329.506V333.506C27.3633 333.506 28.7564 334.143 29.7986 335.327L32.8014 332.685ZM25.4 329.506C22.8727 329.506 20.6874 330.418 19.0169 332.264L21.9831 334.948C22.8459 333.994 23.9273 333.506 25.4 333.506V329.506ZM19.0517 332.227C17.2564 334.112 16.5 336.673 16.5 339.606H20.5C20.5 337.338 21.0769 335.9 21.9483 334.985L19.0517 332.227ZM16.5 339.606L16.5 373.206H20.5V339.606H16.5ZM19.763 371.655L10.063 363.755L7.53701 366.857L17.237 374.757L19.763 371.655ZM9.11768 367.28L40.8177 362.18L40.1823 358.231L8.48232 363.331L9.11768 367.28ZM40.2007 362.183L73.9007 367.283L74.4993 363.328L40.7993 358.228L40.2007 362.183ZM75.7 265.718L77.496 266.598L77.4994 266.591L75.7 265.718ZM62 281.318L63.06 283.014L63.0669 283.009L63.0738 283.005L62 281.318ZM21 281.318L19.9262 283.005L19.9331 283.009L19.94 283.014L21 281.318ZM7.3 265.718L5.50057 266.591L5.50402 266.598L7.3 265.718ZM7.3 218.918L9.09598 219.798L7.3 218.918ZM21 203.318L19.9262 201.63L21 203.318ZM62 203.318L63.0738 201.63L62 203.318ZM75.7 218.918L73.904 219.798L75.7 218.918ZM59.6 229.718L61.4089 228.864L59.6 229.718ZM52.5 221.618L51.4334 223.309L51.4467 223.318L51.4601 223.326L52.5 221.618ZM30.5 221.618L31.5399 223.326L31.5533 223.318L31.5666 223.309L30.5 221.618ZM23.4 229.718L21.5911 228.864H21.5911L23.4 229.718ZM23.4 254.818L21.5911 255.671H21.5911L23.4 254.818ZM30.5 263.018L29.4334 264.709L30.5 263.018ZM52.5 263.018L53.5666 264.709L52.5 263.018ZM59.6 254.818L61.4089 255.671L59.6 254.818ZM78.6 242.318C78.6 250.937 77.013 258.429 73.9006 264.845L77.4994 266.591C80.9203 259.539 82.6 251.431 82.6 242.318H78.6ZM73.904 264.838C70.7879 271.197 66.4613 276.108 60.9262 279.63L63.0738 283.005C69.272 279.061 74.0788 273.571 77.496 266.598L73.904 264.838ZM60.94 279.622C55.4304 283.065 48.9742 284.818 41.5 284.818V288.818C49.6258 288.818 56.8363 286.903 63.06 283.014L60.94 279.622ZM41.5 284.818C34.0258 284.818 27.5696 283.065 22.06 279.622L19.94 283.014C26.1637 286.903 33.3742 288.818 41.5 288.818V284.818ZM22.0737 279.63C16.5386 276.108 12.2121 271.197 9.09598 264.838L5.50402 266.598C8.92119 273.571 13.728 279.061 19.9262 283.005L22.0737 279.63ZM9.09941 264.845C5.98697 258.429 4.4 250.937 4.4 242.318H0.399997C0.399997 251.431 2.07969 259.539 5.50058 266.591L9.09941 264.845ZM4.4 242.318C4.4 233.628 5.98812 226.14 9.09598 219.798L5.50402 218.038C2.07854 225.028 0.399997 233.14 0.399997 242.318H4.4ZM9.09598 219.798C12.2121 213.438 16.5386 208.527 22.0737 205.005L19.9262 201.63C13.728 205.575 8.92119 211.064 5.50402 218.038L9.09598 219.798ZM22.0737 205.005C27.5815 201.5 34.0327 199.718 41.5 199.718V195.718C33.3673 195.718 26.1518 197.669 19.9262 201.63L22.0737 205.005ZM41.5 199.718C48.9673 199.718 55.4185 201.5 60.9262 205.005L63.0738 201.63C56.8482 197.669 49.6327 195.718 41.5 195.718V199.718ZM60.9262 205.005C66.4613 208.527 70.7879 213.438 73.904 219.798L77.496 218.038C74.0788 211.064 69.272 205.575 63.0738 201.63L60.9262 205.005ZM73.904 219.798C77.0119 226.14 78.6 233.628 78.6 242.318H82.6C82.6 233.14 80.9215 225.028 77.496 218.038L73.904 219.798ZM64.1 242.318C64.1 237.227 63.2284 232.722 61.4089 228.864L57.7911 230.571C59.3049 233.78 60.1 237.675 60.1 242.318H64.1ZM61.4089 228.864C59.5905 225.009 56.9706 221.997 53.5399 219.909L51.4601 223.326C54.1627 224.971 56.2762 227.359 57.7911 230.571L61.4089 228.864ZM53.5666 219.926C50.1277 217.758 46.0763 216.718 41.5 216.718V220.718C45.457 220.718 48.7389 221.611 51.4334 223.309L53.5666 219.926ZM41.5 216.718C36.9236 216.718 32.8723 217.758 29.4334 219.926L31.5666 223.309C34.2611 221.611 37.543 220.718 41.5 220.718V216.718ZM29.4601 219.909C26.0294 221.997 23.4095 225.009 21.5911 228.864L25.2089 230.571C26.7238 227.359 28.8373 224.971 31.5399 223.326L29.4601 219.909ZM21.5911 228.864C19.7716 232.722 18.9 237.227 18.9 242.318H22.9C22.9 237.675 23.6951 233.78 25.2089 230.571L21.5911 228.864ZM18.9 242.318C18.9 247.347 19.7732 251.817 21.5911 255.671L25.2089 253.964C23.6935 250.752 22.9 246.889 22.9 242.318H18.9ZM21.5911 255.671C23.4072 259.521 26.0194 262.557 29.4334 264.709L31.5666 261.326C28.8473 259.611 26.7262 257.181 25.2089 253.964L21.5911 255.671ZM29.4334 264.709C32.8723 266.877 36.9237 267.918 41.5 267.918V263.918C37.543 263.918 34.2611 263.024 31.5666 261.326L29.4334 264.709ZM41.5 267.918C46.0763 267.918 50.1277 266.877 53.5666 264.709L51.4334 261.326C48.7389 263.024 45.457 263.918 41.5 263.918V267.918ZM53.5666 264.709C56.9806 262.557 59.5928 259.521 61.4089 255.671L57.7911 253.964C56.2738 257.181 54.1527 259.611 51.4334 261.326L53.5666 264.709ZM61.4089 255.671C63.2268 251.817 64.1 247.347 64.1 242.318H60.1C60.1 246.889 59.3065 250.752 57.7911 253.964L61.4089 255.671ZM54.4 153.433L55.2944 155.222L55.323 155.208L55.351 155.193L54.4 153.433ZM60.1 147.633L61.8698 148.565L61.8748 148.555L61.8796 148.546L60.1 147.633ZM60.1 128.633L61.8698 127.702L60.1 128.633ZM54.4 122.933L55.3136 121.154L55.304 121.149L55.2944 121.144L54.4 122.933ZM3.99999 121.033H1.99999V123.033H3.99999L3.99999 121.033ZM3.99999 100.233V98.2332H1.99999V100.233H3.99999ZM64.5 105.033L63.442 106.73L63.4481 106.734L64.5 105.033ZM76.4 118.233L78.1931 117.347L78.1889 117.339L78.1846 117.33L76.4 118.233ZM76.4 158.033L78.1846 158.936L78.191 158.923L78.1971 158.911L76.4 158.033ZM64.5 171.333L65.542 173.04L65.5551 173.032L65.568 173.024L64.5 171.333ZM3.99999 176.033H1.99999V178.033H3.99999V176.033ZM3.99999 155.333V153.333H1.99999V155.333H3.99999ZM45.5 157.333C49.1489 157.333 52.4331 156.653 55.2944 155.222L53.5056 151.644C51.3002 152.747 48.6511 153.333 45.5 153.333V157.333ZM55.351 155.193C58.1744 153.666 60.3559 151.441 61.8698 148.565L58.3302 146.702C57.1775 148.892 55.5589 150.533 53.449 151.674L55.351 155.193ZM61.8796 148.546C63.3924 145.596 64.1 142.098 64.1 138.133H60.1C60.1 141.635 59.4743 144.47 58.3204 146.721L61.8796 148.546ZM64.1 138.133C64.1 134.111 63.3957 130.601 61.8698 127.702L58.3302 129.565C59.471 131.732 60.1 134.556 60.1 138.133H64.1ZM61.8698 127.702C60.3516 124.817 58.1585 122.615 55.3136 121.154L53.4864 124.712C55.5749 125.785 57.1817 127.383 58.3302 129.565L61.8698 127.702ZM55.2944 121.144C52.4331 119.714 49.1489 119.033 45.5 119.033V123.033C48.6511 123.033 51.3002 123.619 53.5056 124.722L55.2944 121.144ZM45.5 119.033H3.99999L3.99999 123.033H45.5V119.033ZM5.99999 121.033V100.233H1.99999L1.99999 121.033H5.99999ZM3.99999 102.233H46.5V98.2332H3.99999V102.233ZM46.5 102.233C53.0444 102.233 58.6674 103.754 63.442 106.73L65.558 103.336C60.066 99.9124 53.6889 98.2332 46.5 98.2332V102.233ZM63.4481 106.734C68.1809 109.661 71.9034 113.775 74.6154 119.136L78.1846 117.33C75.1633 111.358 70.9525 106.672 65.5519 103.332L63.4481 106.734ZM74.6069 119.119C77.246 124.46 78.6 130.779 78.6 138.133H82.6C82.6 130.287 81.154 123.34 78.1931 117.347L74.6069 119.119ZM78.6 138.133C78.6 145.417 77.2473 151.741 74.6029 157.156L78.1971 158.911C81.1527 152.859 82.6 145.916 82.6 138.133H78.6ZM74.6154 157.13C71.9018 162.494 68.1745 166.647 63.432 169.642L65.568 173.024C70.9589 169.619 75.1649 164.905 78.1846 158.936L74.6154 157.13ZM63.458 169.626C58.681 172.542 53.0522 174.033 46.5 174.033V178.033C53.6811 178.033 60.0523 176.391 65.542 173.04L63.458 169.626ZM46.5 174.033H3.99999V178.033H46.5V174.033ZM5.99999 176.033V155.333H1.99999L1.99999 176.033H5.99999ZM3.99999 157.333H45.5V153.333H3.99999V157.333ZM13.1 51.7402H11.1V53.7402H13.1V51.7402ZM13.1 30.9402V28.9402H11.1V30.9402H13.1ZM79 30.9402H81V28.9402H79V30.9402ZM79 51.7402V53.7402H81V51.7402H79ZM3.99999 80.3402H1.99999V82.3402H3.99999V80.3402ZM3.99999 2.34024V0.34024H1.99999V2.34024H3.99999ZM22.4 2.34024H24.4V0.34024H22.4V2.34024ZM22.4 80.3402V82.3402H24.4V80.3402H22.4ZM15.1 51.7402V30.9402H11.1V51.7402H15.1ZM13.1 32.9402H79V28.9402H13.1V32.9402ZM77 30.9402V51.7402H81V30.9402H77ZM79 49.7402H13.1V53.7402H79V49.7402ZM5.99999 80.3402L5.99999 2.34024H1.99999L1.99999 80.3402H5.99999ZM3.99999 4.34024H22.4V0.34024H3.99999V4.34024ZM20.4 2.34024V80.3402H24.4V2.34024H20.4ZM22.4 78.3402H3.99999V82.3402H22.4V78.3402Z" fill="#E9E9E9" style="fill:#E9E9E9;fill:color(display-p3 0.9137 0.9137 0.9137);fill-opacity:1;" mask="url(#path-1-outside-1_452_3291)"/>
</svg>
