<svg width="2605" height="1818" viewBox="0 0 2605 1818" fill="none" xmlns="http://www.w3.org/2000/svg">
<path opacity="0.1" d="M223.191 1805.96H2500.66C2689.43 1648.49 2592.28 1174.65 2434.61 1078.59C2264.89 975.193 2534.39 617.599 2272.94 501.532C2102.24 425.749 1830.74 508.348 1867.26 305.592C1917.9 24.4318 1325.98 -47.6042 889.909 28.1838C418.458 110.121 848.987 512.975 330.529 594.14C63.9345 635.876 115.451 992.956 140.309 1066.75C161.96 1131.01 305.196 1232.95 106.129 1373.34C-185.778 1579.18 216.31 1802.17 223.191 1805.96Z" fill="#9BC1F9"/>
<path d="M2246.17 603.281C2246.17 603.281 2208.89 684.447 2183.8 718.733C2158.71 753.019 2134.81 785.805 2114.79 880.965C2094.77 976.125 2098.21 985.689 2092.73 1010.27C2087.25 1034.85 2051.59 1134.43 2051.39 1152.69C2051.18 1170.95 1979.33 1274.9 1960.92 1323.55C1942.52 1372.2 1909.91 1441.7 1911.75 1477.09L1919.93 1475.01C1919.93 1475.01 1926.61 1392.5 1983.41 1309.12C2040.21 1225.75 2032.09 1210 2096.6 1167.17C2161.1 1124.33 2202.76 1006.01 2202.76 1006.01C2202.76 1006.01 2268.38 877.491 2265.33 810.68C2262.27 743.869 2279.69 683.613 2246.17 603.281Z" fill="#256653"/>
<path d="M2158.86 478.445C2158.86 478.445 2156.69 531.761 2139.49 563.435C2122.3 595.108 2107.48 614.345 2104.36 648.613C2101.24 682.881 2090.43 771.227 2042.48 814.358C1994.52 857.488 1988.4 986.723 1951.89 1025.82C1915.39 1064.91 1910.62 1093.01 1917.36 1160.06C1924.1 1227.11 1947 1320.03 1894.05 1441.32L1882.08 1411.15C1882.08 1411.15 1919.96 1311.37 1910.79 1252.94C1901.62 1194.52 1869.71 1106.24 1881.39 1063.89C1893.07 1021.55 1849.63 1013.28 1875.79 949.243C1901.94 885.204 1891.2 862.954 1926.81 807.583C1926.81 807.583 1930.46 804.991 1939.82 758.144C1949.18 711.297 2024.65 625.433 2059.43 596.131C2094.2 566.831 2144.32 519.872 2158.86 478.445Z" fill="#256653"/>
<path d="M2017.21 742.43C2017.21 742.43 1975.56 813.734 1974.97 859.628C1974.38 905.522 1979.35 942.852 1958.28 1005.7C1937.21 1068.55 1979.03 1108.27 1966.98 1142.97C1954.92 1177.67 1953.99 1218.75 1954.36 1249.91C1954.72 1281.06 1906.65 1384.16 1899.34 1436.37C1892.02 1488.57 1901.37 1488.75 1901.37 1488.75C1901.37 1488.75 1909.34 1419.82 1920.4 1397.03C1931.46 1374.24 1965.09 1295.67 1972.95 1265.27C1980.8 1234.87 2002.1 1215.35 2020.47 1163.87C2038.85 1112.39 2064.96 1069.02 2062.97 995.969C2060.97 922.913 2090.37 845.805 2017.21 742.43Z" fill="#3C8F7C"/>
<path d="M1929.04 1440.9C1929.04 1440.9 1948.46 1350.41 2030.35 1341.37C2112.25 1332.34 2160.36 1348.53 2218.21 1282.42C2276.06 1216.3 2309.67 1111.39 2328.15 1093.33C2328.15 1093.33 2299.08 1078.37 2250.75 1123.55C2202.42 1168.74 2168.48 1203.01 2140.5 1229.31C2112.52 1255.62 2089.8 1238.47 2060.27 1255.81C2035.51 1270.35 2003.5 1312.35 1989.4 1334.35C1984.82 1341.5 1979.39 1348.06 1973.15 1353.81C1967.48 1359.05 1960.72 1365.47 1956.39 1370.19C1947.72 1379.64 1922.7 1441.23 1922.7 1441.23L1929.04 1440.9Z" fill="#3C8F7C"/>
<path d="M1900.17 1424.94C1900.17 1424.94 1929.04 1314.27 1909.7 1260.11C1890.37 1205.96 1829.85 1165.88 1832.28 1131.86C1834.71 1097.84 1873.57 1005.89 1841.89 937.438C1841.89 937.438 1829.85 998.5 1817.98 1012.08C1806.1 1025.67 1724.61 1080.44 1739.05 1152.79C1753.5 1225.13 1832.73 1242.04 1852.24 1263.34C1871.75 1284.63 1898.1 1284.61 1898.26 1298.77C1898.43 1312.93 1903.57 1364.42 1894.82 1415.23L1900.17 1424.94Z" fill="#3C8F7C"/>
<path d="M1931.73 1350.88L1972.28 1234.08C1972.28 1234.08 1996.1 1140.14 2009.9 1061.8C2023.71 983.458 2017.21 742.43 2017.21 742.43C2017.21 742.43 1975.56 813.734 1974.97 859.628C1974.38 905.522 1979.35 942.853 1958.28 1005.7C1937.21 1068.55 1979.03 1108.27 1966.98 1142.97C1954.92 1177.67 1953.99 1218.75 1954.36 1249.91C1954.72 1281.06 1906.65 1384.16 1899.34 1436.37C1895.33 1464.97 1896.32 1477.93 1898.04 1483.83C1891.54 1438.17 1931.73 1350.88 1931.73 1350.88Z" fill="#327F6B"/>
<path d="M2131.45 1281.3C2095.28 1288.52 2062.94 1286.06 2020 1318.02C1977.06 1349.98 1951.81 1384.11 1951.81 1384.11C1951.81 1384.11 1932.5 1418.61 1924.53 1436.79C1923.38 1439.57 1922.7 1441.23 1922.7 1441.23L1929.03 1440.91C1929.03 1440.91 1948.46 1350.41 2030.35 1341.38C2112.25 1332.34 2160.35 1348.53 2218.21 1282.42C2276.06 1216.31 2309.67 1111.39 2328.15 1093.33C2328.15 1093.33 2266.61 1141.2 2228.59 1183.57C2190.57 1225.94 2167.62 1274.08 2131.45 1281.3Z" fill="#327F6B"/>
<path d="M1817.98 1012.08C1806.1 1025.67 1724.61 1080.44 1739.05 1152.79C1753.5 1225.13 1832.73 1242.04 1852.24 1263.34C1871.75 1284.63 1898.1 1284.61 1898.26 1298.77C1898.43 1312.93 1903.57 1364.42 1894.82 1415.23L1897.16 1419.47C1901.43 1399.64 1907.37 1369.44 1909.3 1346.51C1912.45 1309.28 1906.42 1293.86 1894.45 1263.7C1882.48 1233.53 1808.11 1172.09 1789.48 1139.79C1770.84 1107.48 1825.41 1053.49 1837.52 1027.42C1849.63 1001.35 1841.89 937.438 1841.89 937.438C1841.89 937.438 1829.85 998.499 1817.98 1012.08Z" fill="#327F6B"/>
<path d="M2011.31 1371.47L2024.04 1340.71C2033.92 1318.08 2059.19 1307.27 2080.49 1316.57C2134.17 1340 2157.51 1405.23 2132.62 1462.25L2114.42 1503.94C2106.45 1522.21 2109.22 1542.3 2119.98 1556.47C2129.74 1569.33 2131.33 1587.22 2124.56 1602.73L2114.97 1624.71C2104.58 1648.51 2084.37 1666.13 2060.4 1673.4C2046.38 1677.65 2034 1688.17 2027.45 1703.17L2013.87 1734.29C1998.85 1768.7 1960.42 1785.13 1928.03 1770.99L1909.55 1762.92C1877.16 1748.78 1863.08 1709.43 1878.1 1675.03C1902.39 1633.89 1900.45 1603.18 1891.84 1582.36C1879.19 1551.74 1879.34 1516.5 1893.03 1485.14L1894.95 1480.75C1909.4 1447.65 1937.3 1422.93 1970.52 1412.35C1985.19 1407.68 2000.48 1396.27 2011.31 1371.47Z" fill="#50BFA5"/>
<path d="M1782.09 1805.96C1808.14 1772.19 1950.99 1591.24 2044.13 1561.08C2146.94 1527.8 2050.04 1660 2050.04 1660C2050.04 1660 2232.43 1460.56 2299.36 1478.54C2360.72 1495.02 2299.36 1618.64 2299.36 1618.64C2299.36 1618.64 2368.47 1550.19 2452.27 1550.19C2533.82 1550.19 2395.29 1792.97 2387.81 1805.96H1782.09Z" fill="#96D9C9"/>
<path d="M2331.75 1414.53C2257.23 1530.92 2202.85 1660.2 2171.75 1797.55L2166.64 1796.19C2197.61 1661.71 2251.63 1532.65 2326.03 1416.39C2343.32 1389.37 2361.99 1357.32 2394.36 1346.78C2394.99 1346.57 2395.22 1347.52 2394.63 1347.75C2365.06 1358.89 2347.93 1389.27 2331.75 1414.53Z" fill="#3C8F7C"/>
<path d="M2189.71 1802.37C2272.98 1689.13 2374.22 1584.47 2494.6 1493.45C2495.8 1492.54 2497.43 1494.64 2496.22 1495.57C2382.05 1583.33 2281.04 1686.96 2196.04 1804.07L2189.71 1802.37Z" fill="#3C8F7C"/>
<path d="M2338.56 1342.36C2340.48 1345.18 2347.83 1352.54 2349.98 1362.2C2352.88 1371.37 2350.59 1382.85 2350.35 1382.45C2349.79 1382.68 2358.84 1375.03 2361.67 1362.86C2365.33 1351.18 2362.77 1334.99 2358.21 1329.63C2350.35 1317.5 2336.61 1316.27 2333.94 1322.15C2331.11 1327.99 2334.71 1335.94 2338.56 1342.36Z" fill="#3C8F7C"/>
<path d="M2356.39 1446.24C2353.61 1444.27 2346.39 1436.78 2336.77 1434.43C2327.66 1431.35 2316.14 1433.41 2316.53 1433.67C2316.3 1434.22 2324.12 1425.32 2336.35 1422.73C2348.09 1419.3 2364.23 1422.18 2369.5 1426.84C2381.47 1434.94 2382.43 1448.7 2376.5 1451.25C2370.6 1453.97 2362.73 1450.22 2356.39 1446.24Z" fill="#3C8F7C"/>
<path d="M2329.49 1491.77C2326.71 1489.8 2319.5 1482.31 2309.87 1479.96C2300.76 1476.89 2289.24 1478.95 2289.64 1479.2C2289.4 1479.75 2297.22 1470.85 2309.45 1468.26C2321.19 1464.83 2337.33 1467.71 2342.6 1472.37C2354.57 1480.47 2355.53 1494.23 2349.6 1496.78C2343.7 1499.5 2335.83 1495.75 2329.49 1491.77Z" fill="#3C8F7C"/>
<path d="M2425.45 1597.38C2422.67 1595.41 2415.46 1587.92 2405.83 1585.57C2396.72 1582.5 2385.2 1584.56 2385.6 1584.81C2385.36 1585.36 2393.19 1576.46 2405.41 1573.87C2417.15 1570.44 2433.29 1573.32 2438.56 1577.98C2450.53 1586.08 2451.49 1599.84 2445.56 1602.4C2439.66 1605.11 2431.79 1601.36 2425.45 1597.38Z" fill="#3C8F7C"/>
<path d="M2474.48 1554.19C2471.7 1552.21 2464.49 1544.73 2454.86 1542.38C2445.75 1539.3 2434.23 1541.36 2434.63 1541.61C2434.39 1542.16 2442.22 1533.27 2454.44 1530.68C2466.18 1527.25 2482.32 1530.13 2487.6 1534.79C2499.57 1542.89 2500.52 1556.65 2494.59 1559.2C2488.7 1561.92 2480.82 1558.17 2474.48 1554.19Z" fill="#3C8F7C"/>
<path d="M2300.92 1393.88C2303.26 1396.36 2311.67 1402.47 2315.32 1411.68C2319.63 1420.27 2319.18 1431.97 2318.88 1431.61C2318.37 1431.93 2326.1 1422.94 2326.97 1410.48C2328.74 1398.37 2323.66 1382.79 2318.32 1378.21C2308.64 1367.47 2294.88 1368.42 2293.17 1374.65C2291.3 1380.87 2296.1 1388.15 2300.92 1393.88Z" fill="#3C8F7C"/>
<path d="M2261.36 1445.51C2264.69 1447.28 2276.32 1450.48 2282.17 1459.18C2288.79 1466.93 2289.64 1480.18 2289.19 1479.91C2288.57 1480.48 2297.49 1467.13 2297.1 1452.84C2297.92 1438.57 2289.45 1423.36 2281.98 1420.55C2268.15 1412.72 2250.45 1419.7 2249 1427.38C2247.33 1435.12 2254.42 1441.19 2261.36 1445.51Z" fill="#3C8F7C"/>
<path d="M2219.72 1523.72C2223.3 1524.9 2235.3 1526.1 2242.53 1533.7C2250.36 1540.22 2253.42 1553.14 2252.94 1552.95C2252.42 1553.61 2258.96 1538.96 2256.18 1524.94C2254.59 1510.73 2243.68 1497.16 2235.84 1495.64C2220.89 1490.26 2204.62 1500.11 2204.48 1507.93C2204.13 1515.84 2212.15 1520.63 2219.72 1523.72Z" fill="#3C8F7C"/>
<path d="M2342.93 1578.2C2345.54 1579.82 2354.82 1583.09 2359.08 1590.5C2364.03 1597.18 2363.96 1608 2363.61 1607.76C2363.08 1608.19 2371.09 1597.84 2371.59 1586.2C2373.07 1574.63 2367.04 1561.78 2361.12 1559.06C2350.32 1551.91 2335.53 1556.58 2333.91 1562.75C2332.11 1568.95 2337.54 1574.29 2342.93 1578.2Z" fill="#3C8F7C"/>
<path d="M2407.08 1360.66C2405.52 1359.38 2401.58 1354.63 2395.99 1352.82C2390.73 1350.6 2383.83 1351.32 2384.05 1351.48C2383.89 1351.8 2388.91 1346.88 2396.25 1345.88C2403.35 1344.37 2412.77 1346.78 2415.69 1349.76C2422.41 1355.08 2422.38 1363.26 2418.76 1364.51C2415.15 1365.86 2410.66 1363.3 2407.08 1360.66Z" fill="#3C8F7C"/>
<path d="M2392.14 1327.43C2392.21 1329.45 2393.57 1335.47 2391.59 1341C2390.14 1346.52 2385.35 1351.55 2385.36 1351.27C2385.01 1351.21 2391.97 1350.24 2397.24 1345.03C2402.77 1340.33 2406.62 1331.4 2406.03 1327.27C2405.93 1318.7 2399.43 1313.73 2396.23 1315.83C2392.96 1317.87 2392.24 1322.99 2392.14 1327.43Z" fill="#3C8F7C"/>
<path d="M2509.79 1510.2C2508.23 1508.91 2504.29 1504.16 2498.7 1502.35C2493.45 1500.13 2486.54 1500.85 2486.76 1501.01C2486.6 1501.33 2491.62 1496.41 2498.96 1495.41C2506.06 1493.9 2515.48 1496.31 2518.4 1499.29C2525.12 1504.61 2525.09 1512.79 2521.47 1514.04C2517.86 1515.39 2513.37 1512.83 2509.79 1510.2Z" fill="#3C8F7C"/>
<path d="M2491.76 1476.67C2491.99 1478.68 2493.84 1484.57 2492.32 1490.24C2491.32 1495.86 2486.97 1501.27 2486.95 1500.99C2486.6 1500.96 2493.46 1499.42 2498.28 1493.8C2503.41 1488.66 2506.51 1479.44 2505.59 1475.37C2504.78 1466.84 2497.9 1462.42 2494.88 1464.78C2491.79 1467.07 2491.49 1472.24 2491.76 1476.67Z" fill="#3C8F7C"/>
<path d="M2479.22 1693.28C2403.13 1701.62 2332.26 1735.21 2264.03 1767.96C2218.03 1790.05 2220.35 1796.34 2210.97 1799.63C2209.46 1800.16 2207.94 1798.51 2208.68 1797.05C2212.28 1789.91 2221.73 1785.08 2228.31 1780.97C2235.97 1776.19 2243.96 1771.97 2252.08 1768.03C2269.44 1759.59 2287.26 1752.01 2304.96 1744.32C2340.97 1728.67 2377.57 1713.95 2415.61 1703.99C2436.47 1698.53 2457.69 1694.59 2479.17 1692.66C2479.57 1692.62 2479.62 1693.23 2479.22 1693.28Z" fill="#3C8F7C"/>
<path d="M2410.63 1669.69C2411.13 1672.81 2414.38 1681.87 2412.38 1690.83C2411.19 1699.66 2404.74 1708.37 2404.69 1707.94C2404.14 1707.91 2414.74 1705.07 2421.91 1695.98C2429.59 1687.64 2433.83 1673.06 2432.13 1666.77C2430.32 1653.5 2419.29 1647.05 2414.74 1650.93C2410.06 1654.71 2409.93 1662.78 2410.63 1669.69Z" fill="#3C8F7C"/>
<path d="M2343.6 1693.69C2344.1 1696.81 2347.35 1705.87 2345.35 1714.83C2344.16 1723.66 2337.71 1732.38 2337.66 1731.94C2337.11 1731.91 2347.71 1729.07 2354.88 1719.99C2362.56 1711.64 2366.8 1697.06 2365.1 1690.77C2363.29 1677.5 2352.26 1671.05 2347.71 1674.93C2343.03 1678.71 2342.9 1686.78 2343.6 1693.69Z" fill="#3C8F7C"/>
<path d="M2275.49 1724.04C2275.98 1727.17 2279.23 1736.23 2277.23 1745.18C2276.04 1754.01 2269.59 1762.73 2269.54 1762.3C2268.99 1762.27 2279.6 1759.43 2286.77 1750.34C2294.44 1742 2298.68 1727.42 2296.98 1721.13C2295.18 1707.86 2284.14 1701.41 2279.59 1705.29C2274.91 1709.06 2274.79 1717.14 2275.49 1724.04Z" fill="#3C8F7C"/>
<path d="M2430.65 1732.31C2429.27 1729.74 2426.61 1721.24 2420.13 1715.76C2414.33 1709.92 2404.71 1707.09 2404.92 1707.44C2404.53 1707.77 2413.93 1703.95 2424.28 1706.64C2434.59 1708.5 2445.86 1716.88 2448.12 1722.47C2454.19 1733.25 2449.66 1744.16 2444.14 1743.85C2438.58 1743.67 2433.98 1737.79 2430.65 1732.31Z" fill="#3C8F7C"/>
<path d="M2360.92 1756.99C2359.54 1754.42 2356.88 1745.92 2350.41 1740.44C2344.6 1734.6 2334.98 1731.77 2335.19 1732.12C2334.8 1732.45 2344.2 1728.63 2354.56 1731.32C2364.86 1733.18 2376.13 1741.56 2378.39 1747.15C2384.46 1757.93 2379.93 1768.84 2374.41 1768.53C2368.86 1768.35 2364.26 1762.47 2360.92 1756.99Z" fill="#3C8F7C"/>
<path d="M2483.75 1706.91C2482.55 1705.48 2479.75 1700.49 2474.96 1697.91C2470.55 1695.01 2464.13 1694.5 2464.31 1694.69C2464.11 1694.95 2469.51 1691.31 2476.36 1691.63C2483.08 1691.44 2491.26 1695.21 2493.42 1698.42C2498.66 1704.39 2497.26 1711.84 2493.75 1712.37C2490.24 1713 2486.57 1709.91 2483.75 1706.91Z" fill="#3C8F7C"/>
<path d="M2475.7 1674.13C2475.43 1675.99 2475.65 1681.69 2472.92 1686.4C2470.68 1691.19 2465.48 1694.97 2465.53 1694.72C2465.22 1694.6 2471.72 1694.88 2477.4 1691.02C2483.23 1687.67 2488.22 1680.17 2488.38 1676.31C2489.72 1668.48 2484.63 1662.87 2481.36 1664.25C2478.04 1665.55 2476.53 1670.1 2475.7 1674.13Z" fill="#3C8F7C"/>
<path d="M515.921 1228.04C426.508 1148.31 380.533 1033.81 357.71 951.801C332.933 862.767 329.324 791.71 329.29 791.003L324.43 790.703C324.464 791.416 328.089 862.996 353.016 952.625C376.051 1035.45 422.51 1151.12 513.031 1231.83L515.921 1228.04Z" fill="#3C8F7C"/>
<path d="M339.473 770.388C343.88 790.888 340.191 810.253 330.795 824.236C316.062 813.391 304.476 796.012 300.069 775.512C295.663 755.012 299.351 735.647 308.748 721.664C323.481 732.509 335.067 749.888 339.473 770.388Z" fill="#3C8F7C"/>
<path d="M312.047 828.765C327.452 843.098 336.457 861.924 338.202 880.052C321.29 880.822 302.685 873.959 287.28 859.626C271.875 845.293 262.87 826.467 261.125 808.34C278.036 807.569 296.642 814.432 312.047 828.765Z" fill="#3C8F7C"/>
<path d="M304.823 890.095C323.968 896.101 339.668 909.434 348.96 925.629C335.066 934.55 316.454 937.117 297.309 931.111C278.164 925.105 262.464 911.772 253.172 895.577C267.066 886.656 285.678 884.088 304.823 890.095Z" fill="#3C8F7C"/>
<path d="M334.304 963.88C349.469 968.663 361.593 980.897 368.461 996.347C356.964 1006 341.909 1009.67 326.744 1004.88C311.579 1000.1 299.454 987.867 292.586 972.417C304.083 962.759 319.139 959.098 334.304 963.88Z" fill="#3C8F7C"/>
<path d="M360.2 858.574C372.135 846.559 387.941 841.438 403.242 843.08C404.089 859.274 398.505 875.686 386.571 887.7C374.637 899.715 358.83 904.836 343.529 903.194C342.681 887.001 348.265 870.588 360.2 858.574Z" fill="#3C8F7C"/>
<path d="M374.036 911.449C385.971 899.434 401.777 894.313 417.078 895.955C417.925 912.148 412.341 928.56 400.407 940.575C388.473 952.59 372.666 957.711 357.365 956.068C356.518 939.875 362.102 923.463 374.036 911.449Z" fill="#3C8F7C"/>
<path d="M462.044 1336.16C379.476 1324.13 308.815 1275.21 264.077 1236.29C215.51 1194.05 186.146 1154.12 185.855 1153.73L182.914 1155.42C183.207 1155.82 212.781 1196.04 261.665 1238.57C306.837 1277.88 378.229 1327.29 461.821 1339.48L462.044 1336.16Z" fill="#50BFA5"/>
<path d="M183.864 1137.84C194.292 1148.06 199.578 1160.74 199.482 1172.47C186.756 1171.82 173.353 1166.16 162.924 1155.94C152.497 1145.71 147.21 1133.04 147.306 1121.3C160.033 1121.95 173.436 1127.61 183.864 1137.84Z" fill="#50BFA5"/>
<path d="M190.322 1182.29C204.777 1184.71 217.235 1192.2 225.206 1202.07C215.671 1209.01 202.222 1212.16 187.767 1209.73C173.312 1207.31 160.854 1199.83 152.883 1189.96C162.418 1183.02 175.867 1179.87 190.322 1182.29Z" fill="#50BFA5"/>
<path d="M209.655 1220.73C223.089 1216.87 237.331 1218.6 248.947 1224.45C244.294 1234.96 234.459 1243.6 221.026 1247.45C207.593 1251.31 193.35 1249.58 181.734 1243.73C186.387 1233.21 196.221 1224.58 209.655 1220.73Z" fill="#50BFA5"/>
<path d="M255.108 1252.3C265.759 1249.26 277.501 1251.72 287.422 1258.06C284.444 1268.09 277.098 1275.99 266.447 1279.03C255.797 1282.07 244.054 1279.61 234.133 1273.27C237.111 1263.24 244.457 1255.33 255.108 1252.3Z" fill="#50BFA5"/>
<path d="M229.751 1181.15C232.078 1169.58 239.301 1160.54 248.826 1155.62C255.533 1164.71 258.584 1176.4 256.257 1187.96C253.93 1199.52 246.707 1208.57 237.182 1213.48C230.475 1204.4 227.423 1192.71 229.751 1181.15Z" fill="#50BFA5"/>
<path d="M258.078 1206.58C260.406 1195.01 267.628 1185.97 277.153 1181.05C283.859 1190.14 286.911 1201.83 284.584 1213.39C282.257 1224.95 275.033 1234 265.509 1238.91C258.803 1229.82 255.751 1218.14 258.078 1206.58Z" fill="#50BFA5"/>
<path d="M511.751 1583.29C416.506 1619.44 311.662 1600.35 240.479 1577.96C163.204 1553.65 107.796 1520.33 107.244 1519.99L105.133 1524.03C105.687 1524.36 161.5 1557.94 239.286 1582.42C311.166 1605.04 417.09 1624.33 513.515 1587.72L511.751 1583.29Z" fill="#96D9C9"/>
<path d="M95.5259 1500.65C112.816 1507.36 126.106 1520.47 133.093 1535.74C119.141 1542.87 101.443 1543.94 84.1529 1537.23C66.8639 1530.51 53.5729 1517.4 46.5859 1502.14C60.5369 1495.01 78.2359 1493.93 95.5259 1500.65Z" fill="#96D9C9"/>
<path d="M129.273 1554.21C146.136 1548.29 163.935 1550.18 178.39 1557.98C172.422 1572.94 159.996 1585.45 143.133 1591.37C126.27 1597.3 108.471 1595.4 94.0156 1587.61C99.9836 1572.65 112.41 1560.14 129.273 1554.21Z" fill="#96D9C9"/>
<path d="M173.089 1591.89C185.072 1578.47 201.29 1571.78 217.201 1572.08C218.598 1588.62 213.338 1605.98 201.354 1619.39C189.371 1632.81 173.153 1639.5 157.243 1639.2C155.845 1622.65 161.106 1605.3 173.089 1591.89Z" fill="#96D9C9"/>
<path d="M234.395 1611.34C246.378 1597.92 262.596 1591.23 278.507 1591.53C279.904 1608.08 274.644 1625.43 262.66 1638.85C250.676 1652.26 234.459 1658.95 218.548 1658.65C217.15 1642.11 222.411 1624.75 234.395 1611.34Z" fill="#96D9C9"/>
<path d="M176.711 1548.49C166.166 1534.76 161.465 1518.22 162.583 1503.2C176.472 1504.82 190.671 1512.89 201.217 1526.62C211.763 1540.35 216.463 1556.9 215.346 1571.91C201.456 1570.29 187.256 1562.23 176.711 1548.49Z" fill="#96D9C9"/>
<path d="M240.402 1568.42C229.659 1554.85 224.702 1538.36 225.575 1523.3C239.459 1524.67 253.759 1532.51 264.502 1546.08C275.246 1559.65 280.202 1576.14 279.329 1591.2C265.445 1589.82 251.146 1581.99 240.402 1568.42Z" fill="#96D9C9"/>
<path d="M314.971 1616.67C317.788 1609.52 323.383 1604.55 329.94 1602.5C333.086 1609.11 333.633 1616.96 330.816 1624.11C327.999 1631.26 322.403 1636.23 315.846 1638.28C312.701 1631.67 312.154 1623.82 314.971 1616.67Z" fill="#96D9C9"/>
<path d="M716.174 1798.98C716.174 1798.98 837.525 1319.05 797.284 1270.82C741.671 1204.18 695.797 1425.26 691.295 1406.49C648.786 1229.14 637.462 1002.23 500.33 978.217C422.375 964.565 518.336 1146.95 512.562 1196.28C506.789 1245.61 366.308 1081.83 280.941 996.03C195.574 910.227 151.486 964.551 205.424 1072.44C257.581 1176.77 426.312 1290.78 391.532 1304.31C356.752 1317.84 145.6 1183.11 119.742 1240.7C88.0377 1311.32 404.776 1407.42 374.95 1423.29C345.124 1439.15 193.742 1386.9 197.878 1440.91C202.013 1494.91 405.513 1492.9 402.035 1516.65C396.404 1555.11 261.809 1468.05 255.893 1521.27C249.842 1575.7 432.964 1565.77 429.792 1608.23C427.969 1632.63 388.676 1595.83 382.887 1629.62C369.686 1706.67 611.086 1800.54 611.086 1800.54L716.174 1798.98Z" fill="#3C8F7C"/>
<path d="M808.704 1801.91C808.704 1801.91 693.216 1624.84 637.642 1591.41C578.427 1555.79 623.508 1662.44 623.508 1662.44C623.508 1662.44 502.502 1518.45 468.864 1547.7C435.226 1576.96 465.757 1610.84 465.757 1610.84C465.757 1610.84 357.122 1578.65 337.596 1618.52C307.592 1679.8 486.447 1730.61 486.447 1730.61C486.447 1730.61 409.668 1729.79 423.794 1771.16C445.096 1833.55 808.704 1801.91 808.704 1801.91Z" fill="#50BFA5"/>
<path d="M337.594 1618.52C357.12 1578.65 465.755 1610.84 465.755 1610.84C465.755 1610.84 435.224 1576.96 468.862 1547.7C502.5 1518.44 599.299 1606.02 599.299 1606.02C599.299 1606.02 589.153 1533.8 662.045 1597.42C714.109 1642.86 808.702 1801.91 808.702 1801.91L337.594 1618.52Z" fill="#96D9C9"/>
<path d="M668.521 1357.32L673.705 1353.78C579.677 1211.37 550.975 1042.3 543.453 925.546C535.292 798.842 549.617 704.669 549.763 703.733L543.341 701.867C543.194 702.81 528.76 797.613 536.951 925.072C544.519 1042.82 573.489 1213.39 668.521 1357.32Z" fill="#96D9C9"/>
<path d="M568.272 681.552C568.477 710.16 558.553 733.811 542.709 747.999C526.618 727.542 516.326 699.92 516.12 671.314C515.915 642.707 525.84 619.055 541.683 604.867C557.775 625.325 568.067 652.946 568.272 681.552Z" fill="#96D9C9"/>
<path d="M517.339 745.855C533.366 771.147 539.944 799.545 537.354 823.918C515.353 817.66 493.207 800.729 477.18 775.438C461.153 750.146 454.574 721.748 457.165 697.375C479.166 703.632 501.312 720.564 517.339 745.855Z" fill="#96D9C9"/>
<path d="M491.648 822.676C514.717 838.723 531.391 862.838 539.043 887.932C518.755 893.593 494.082 888.948 471.012 872.901C447.943 856.855 431.268 832.739 423.617 807.645C443.904 801.985 468.578 806.63 491.648 822.676Z" fill="#96D9C9"/>
<path d="M521.732 956.793C531.793 962.796 539.437 972.423 543.361 982.769C535.101 985.844 524.713 984.712 514.652 978.709C504.591 972.706 496.947 963.079 493.023 952.733C501.283 949.658 511.671 950.79 521.732 956.793Z" fill="#96D9C9"/>
<path d="M529.912 1006.48C539.973 1012.48 547.617 1022.11 551.541 1032.46C543.281 1035.53 532.893 1034.4 522.832 1028.4C512.771 1022.39 505.127 1012.77 501.203 1002.42C509.463 999.346 519.851 1000.48 529.912 1006.48Z" fill="#96D9C9"/>
<path d="M571.438 805.373C590.027 794.84 611.766 794.952 631.047 803.661C627.815 825.128 616.237 844.118 597.648 854.652C579.059 865.185 557.32 865.073 538.039 856.364C541.27 834.897 552.849 815.906 571.438 805.373Z" fill="#96D9C9"/>
<path d="M575.142 880.217C593.73 869.684 615.469 869.796 634.75 878.505C631.518 899.971 619.94 918.962 601.351 929.495C582.762 940.028 561.023 939.917 541.742 931.207C544.974 909.741 556.553 890.75 575.142 880.217Z" fill="#96D9C9"/>
<path d="M571.458 987.34C583.557 980.485 597.706 980.557 610.256 986.226C608.152 1000.2 600.616 1012.56 588.517 1019.41C576.418 1026.27 562.269 1026.2 549.719 1020.53C551.822 1006.56 559.359 994.196 571.458 987.34Z" fill="#96D9C9"/>
<path d="M1898.27 1409.63C1909.2 1411.41 1908.55 1413.19 1909.96 1413.38C1911.62 1413.6 1931.34 1403.7 1931.34 1403.7C1931.34 1403.7 1989.66 1374.91 1992.76 1373.24L2034.86 1320.27L2067.3 1335.24C2067.3 1335.24 2019.95 1391.55 2016.96 1394.03C2013.96 1396.51 1930.33 1425.84 1923.06 1428.67C1923.06 1428.67 1915.73 1435.37 1910.99 1439.42C1906.24 1443.46 1899.9 1445.07 1898.38 1445.99C1898.16 1446.13 1892.92 1448.89 1885.53 1450.5C1879.16 1451.89 1884.47 1447.56 1884.47 1447.56C1884.47 1447.56 1895.74 1442.8 1895.19 1441.94C1894.76 1441.27 1888.77 1444.25 1881.73 1445.86C1879.92 1446.27 1878.14 1446.68 1876.49 1447.03C1872.18 1447.96 1870.28 1445.49 1874.62 1443.77C1876.15 1443.17 1878.72 1442.22 1880.66 1441.82C1882.75 1441.38 1884.51 1440.28 1886.2 1439.64C1889.56 1438.36 1892.03 1437.47 1891.89 1437.36C1891.72 1437.21 1892.19 1436.46 1890.26 1436.84C1887.93 1437.3 1883.24 1439.39 1879.76 1439.78C1877.78 1440.01 1873.69 1440.73 1873.69 1440.73C1873.69 1440.73 1866.46 1441.42 1866.41 1440.41C1866.3 1438.19 1870.76 1436.95 1873.49 1437.01C1875.22 1436.13 1879.54 1435.5 1879.54 1435.5C1879.54 1435.5 1887.94 1432.18 1887.45 1430.94C1887.25 1430.44 1882.17 1431.21 1876.78 1431.58C1871.08 1431.97 1866.95 1431.97 1866.65 1430.86C1866.17 1429.11 1870.7 1428.45 1870.7 1428.45C1870.7 1428.45 1874.7 1427.86 1876.01 1427.57C1877.55 1427.22 1882.06 1425.8 1882.06 1425.8C1882.06 1425.8 1897.49 1420.13 1896.93 1418.99C1896.38 1417.85 1893.83 1415.47 1892.74 1415.48C1891.65 1415.48 1889.7 1416.57 1888.62 1416.57C1887.53 1416.58 1885.19 1416.37 1885.02 1415C1884.86 1413.63 1890.9 1410.8 1890.9 1410.8C1890.9 1410.8 1895.12 1409.12 1898.27 1409.63Z" fill="#F8A492"/>
<path d="M2005.56 1353.08C2005.56 1353.08 2016.07 1362.62 2020.43 1365.77C2024.07 1368.38 2041.76 1376.9 2041.76 1376.9C2041.76 1376.9 2059.37 1349.94 2067.07 1336.42C2076.41 1320.02 2082.88 1295.62 2080.67 1294.96C2074.47 1293.11 2065.95 1291.97 2058.08 1295.59C2030.83 1308.09 2005.56 1353.08 2005.56 1353.08Z" fill="#355389"/>
<path d="M1908.47 1423.73C1903.8 1424.46 1899.02 1423.58 1896.95 1419.3C1896.48 1424.37 1904.17 1426.89 1908.47 1423.73Z" fill="#FE875E"/>
<path d="M603.042 1234.6C603.691 1218.9 601.388 1203.39 594.394 1188.78C588.375 1176.2 573.485 1169.06 559.905 1169.05C516.784 1168.99 511.301 1226.21 483.852 1248.28C475.465 1255.02 466.09 1260.51 458.154 1267.79C428.848 1294.64 442.048 1344.35 468.958 1367.9C487.631 1384.23 516.98 1393.52 539.994 1380.74C552.008 1374.08 561.128 1363 567.625 1350.85C576.847 1333.62 582.791 1313.74 589.35 1295.37C596.33 1275.82 602.179 1255.47 603.042 1234.6Z" fill="#13375B"/>
<path d="M610.086 1310.63C596.617 1269.77 578.836 1270.41 578.836 1270.41L593.203 1357.41C601.52 1355.13 612.35 1350.07 620.658 1347.72C617.904 1334.81 613.403 1320.69 610.086 1310.63Z" fill="#F7CC7F"/>
<path d="M678.155 1449.98L628.914 1412.41C628.914 1412.41 623.961 1377.37 617.328 1346.27C609.02 1348.62 601.521 1355.14 593.203 1357.41L605.724 1427.05L670.262 1460.35L688.491 1483.77L692.637 1459.72L678.155 1449.98Z" fill="#F48C7F"/>
<path d="M1127.01 1391.31C1142.3 1391.31 1156.64 1395.34 1169.05 1402.39C1170.62 1403.28 1172.32 1404.1 1174.13 1404.84C1211.97 1420.38 1253.37 1391.6 1253.37 1350.69V1149.52H1052.2C1011.29 1149.52 982.512 1108.12 998.052 1070.28C998.796 1068.46 999.611 1066.76 1000.5 1065.2C1007.55 1052.79 1011.58 1038.45 1011.58 1023.15C1011.58 974.702 971.181 935.686 922.229 937.953C877.932 940.004 842.259 976.391 841.022 1020.72C840.582 1036.49 844.427 1051.32 851.474 1064.14C852.351 1065.74 853.157 1067.47 853.895 1069.31C869.31 1107.76 840.069 1149.52 798.638 1149.52H599.195V1607.91C599.195 1716.04 686.852 1803.7 794.983 1803.7H1253.37V1603.19C1253.37 1562.09 1211.84 1533.13 1173.76 1548.62C1171.94 1549.36 1170.23 1550.16 1168.66 1551.05C1155.09 1558.66 1139.24 1562.67 1122.38 1561.78C1078.95 1559.49 1043.86 1524.19 1041.81 1480.74C1039.5 1431.75 1078.53 1391.31 1127.01 1391.31Z" fill="#F47458"/>
<path d="M1563.01 1279.72C1563.73 1264.45 1568.42 1250.3 1576.04 1238.24C1577.01 1236.72 1577.9 1235.06 1578.73 1233.28C1596.02 1196.21 1569.2 1153.51 1528.34 1151.6L1327.39 1142.2L1317.99 1343.16C1316.08 1384.02 1273.38 1410.83 1236.31 1393.54C1234.53 1392.72 1232.87 1391.82 1231.35 1390.86C1219.28 1383.24 1205.14 1378.55 1189.87 1377.83C1141.47 1375.57 1100.61 1414.1 1100.59 1463.11C1100.57 1507.45 1135.25 1544.78 1179.47 1548.09C1195.2 1549.26 1210.19 1546.12 1223.33 1539.68C1224.96 1538.87 1226.73 1538.15 1228.6 1537.5C1267.74 1523.9 1308.08 1555.05 1306.15 1596.44L1296.84 1795.67L1754.73 1817.07C1862.74 1822.12 1954.39 1738.65 1959.44 1630.64L1980.85 1172.75L1780.56 1163.39C1739.5 1161.47 1708.63 1201.61 1722.33 1240.36C1722.98 1242.22 1723.71 1243.96 1724.52 1245.58C1731.49 1259.48 1734.76 1275.51 1733.08 1292.3C1728.76 1335.58 1691.86 1368.98 1648.37 1369C1599.32 1369.02 1560.75 1328.15 1563.01 1279.72Z" fill="#F7CC7F"/>
<path d="M1003.07 963.307C1003.84 978.578 1000.54 993.108 994.119 1005.85C993.308 1007.46 992.58 1009.2 991.928 1011.05C978.308 1049.62 1009.13 1089.53 1049.98 1087.47L1250.91 1077.37L1240.8 876.448C1238.75 835.594 1278.65 804.771 1317.23 818.391C1319.07 819.043 1320.81 819.771 1322.42 820.582C1335.17 827 1349.7 830.302 1364.97 829.534C1413.36 827.101 1450.3 784.793 1445.57 736.017C1441.3 691.879 1403.17 658.079 1358.83 659.069C1343.07 659.421 1328.45 664.006 1316 671.688C1314.44 672.645 1312.76 673.536 1310.95 674.365C1273.32 691.693 1230.15 664.586 1228.07 623.206L1218.05 424.016L760.241 447.037C652.247 452.467 569.103 544.416 574.533 652.41L597.553 1110.22L797.804 1100.15C838.859 1098.09 865.696 1055.15 848.314 1017.9C847.483 1016.12 846.59 1014.45 845.628 1012.92C837.343 999.761 832.54 984.127 832.584 967.243C832.696 923.749 866.187 886.936 909.475 882.706C958.285 877.937 1000.64 914.889 1003.07 963.307Z" fill="#50BFA5"/>
<path d="M1414.3 852.423C1399.01 852.423 1384.66 848.395 1372.26 841.345C1370.69 840.454 1368.99 839.639 1367.18 838.896C1329.34 823.356 1287.94 852.136 1287.94 893.041V1094.22H1489.11C1530.02 1094.22 1558.8 1135.62 1543.26 1173.46C1542.51 1175.27 1541.7 1176.97 1540.81 1178.54C1533.76 1190.94 1529.73 1205.29 1529.73 1220.58C1529.73 1269.03 1570.13 1308.05 1619.08 1305.78C1663.38 1303.73 1699.05 1267.34 1700.29 1223.02C1700.73 1207.25 1696.88 1192.42 1689.84 1179.6C1688.96 1178 1688.15 1176.27 1687.42 1174.43C1672 1135.97 1701.24 1094.22 1742.67 1094.22H1942.11V635.827C1942.11 527.697 1854.46 440.039 1746.33 440.039H1287.94V640.543C1287.94 681.649 1329.47 710.609 1367.55 695.12C1369.37 694.38 1371.08 693.571 1372.65 692.687C1386.22 685.073 1402.07 681.061 1418.93 681.953C1462.37 684.25 1497.45 719.547 1499.5 762.993C1501.81 811.981 1462.78 852.423 1414.3 852.423Z" fill="#184655"/>
<path d="M468.252 1740.09C468.252 1740.09 465.214 1761.21 459.987 1768.02C458.233 1770.31 455.029 1773.2 452.925 1777.34C449.651 1783.77 451.461 1793.35 453.876 1798.63C455.116 1801.34 453.789 1801.33 456.612 1802.2C464.972 1804.79 473.865 1800.43 477.424 1792.41C479.412 1787.93 481.156 1781.95 481.508 1774.41C482.4 1755.24 488.351 1745.49 488.351 1745.49L468.252 1740.09Z" fill="#F7A491"/>
<path d="M559.687 1749.75C559.687 1749.75 561.562 1773.56 560.041 1781.3C559.226 1785.45 554.686 1793.98 556.768 1797.88C558.85 1801.78 561.231 1802.76 561.231 1802.76L615.205 1803.63C618.145 1803.67 616.202 1801.78 613.832 1800.03C609.952 1797.17 606.821 1795.28 594.426 1789.27C593.618 1788.88 590.675 1787 589.613 1786.35C586.922 1784.71 584.22 1782.11 581.892 1779.52C578.017 1775.19 577.678 1754.22 577.678 1754.22L559.687 1749.75Z" fill="#F7A491"/>
<path d="M601.875 1433.19C601.875 1433.19 608.672 1471.85 604.209 1497.2C599.746 1522.55 578.327 1757.52 578.327 1757.52L554.524 1758.87C554.524 1758.87 549.535 1660.72 550.427 1647.07C551.319 1633.42 558.383 1610.57 558.383 1610.57L556.014 1531.33L586.051 1427.22L601.875 1433.19Z" fill="#355389"/>
<path d="M531.913 1425.05C531.913 1425.05 513.17 1453.33 508.708 1476.73C504.246 1500.13 511.983 1572.04 503.399 1602.71C498.751 1619.3 481.139 1644.94 478.462 1666.39C475.784 1687.84 465.281 1744.02 465.281 1744.02L489.073 1748.75L544.367 1608.43L587.739 1481.6L598.85 1416.28L531.913 1425.05Z" fill="#466EB6"/>
<path d="M547.09 1264.18C547.09 1264.18 522.275 1262.6 512.457 1273.32C502.64 1284.05 534.235 1368.89 536.02 1382.54C537.805 1396.19 526.92 1432.48 526.92 1432.48C526.92 1432.48 585.214 1444.24 601.875 1433.19C601.875 1433.19 603.66 1335.04 601.875 1325.29C600.09 1315.53 585.214 1275.88 581.644 1271.98C578.074 1268.08 547.09 1264.18 547.09 1264.18Z" fill="#F7CC7F"/>
<path d="M555.353 1230.94C555.353 1230.94 555.225 1231.68 554.994 1232.92C553.887 1238.9 549.627 1258.74 546.748 1264.19C543.269 1270.78 558.656 1291.8 573.466 1289.24C577.875 1288.47 569.74 1269.92 570.131 1267.96C570.879 1264.2 571.894 1259.07 572.932 1253.81C573.518 1250.84 574.111 1247.83 574.669 1245C576.252 1236.96 577.545 1230.39 577.545 1230.39L555.353 1230.94Z" fill="#F7A491"/>
<path d="M554.994 1232.92C555.224 1231.68 555.353 1230.95 555.353 1230.95L577.545 1230.39C577.545 1230.39 576.253 1236.96 574.669 1245C574.114 1247.81 573.525 1250.81 572.942 1253.76C569.516 1253.25 565.936 1251.58 562.346 1248.43C558.433 1245 555.868 1240.87 554.32 1236.47C554.594 1235.06 554.822 1233.85 554.994 1232.92Z" fill="#F47458"/>
<path d="M570.289 1180.39C570.289 1180.39 559.829 1179.18 553.272 1187.68C546.716 1196.17 539.649 1222.46 555.936 1236.75C572.224 1251.04 588.317 1234.86 590.703 1217.71C593.09 1200.56 594.017 1179.77 570.289 1180.39Z" fill="#F7A491"/>
<path d="M595.52 1217.46C593.576 1221.25 590.313 1223.35 588.231 1222.15C586.15 1220.95 586.038 1216.9 587.983 1213.12C589.927 1209.33 593.19 1207.23 595.272 1208.43C597.352 1209.63 597.464 1213.68 595.52 1217.46Z" fill="#F7A491"/>
<path d="M571.453 1177.58C571.453 1177.58 557.478 1202.57 547.482 1203.73C537.485 1204.88 536.172 1218.16 536.172 1218.16C536.172 1218.16 539.746 1187.56 549.643 1181.66C559.54 1175.76 571.453 1177.58 571.453 1177.58Z" fill="#13375B"/>
<path d="M479.043 1788.19C466.077 1790.56 457.449 1782.96 452.959 1777.27C449.663 1783.71 448.055 1793.33 450.48 1798.63C452.615 1803.29 458.854 1803.16 463.768 1803.34C468.962 1803.54 472.981 1800.64 475.559 1796.11C476.761 1793.99 478.003 1791.36 479.043 1788.19Z" fill="#F47458"/>
<path d="M589.608 1786.35C575.334 1790.02 564.782 1787.53 558.88 1785.14C557.358 1789.46 555.34 1794.89 556.41 1798.02C557.72 1801.85 559.586 1802.71 561.234 1802.76C574.272 1803.1 608.993 1803.57 618.935 1803.69C620.323 1803.71 621.089 1802.09 620.197 1801.02C617.731 1798.07 590.672 1787 589.608 1786.35Z" fill="#F47458"/>
<path d="M550.106 1210.01C550.919 1214.44 549.284 1218.51 546.453 1219.1C543.623 1219.68 540.67 1216.55 539.857 1212.12C539.044 1207.68 540.679 1203.61 543.509 1203.02C546.339 1202.44 549.292 1205.57 550.106 1210.01Z" fill="#F7A491"/>
<path d="M566.431 1225.38L579.047 1225.95C579.047 1225.95 578.54 1230.73 572.984 1230.64C566.209 1230.53 566.431 1225.38 566.431 1225.38Z" fill="white"/>
<path d="M1642.39 219.25C1643.96 219.315 1648.27 220.756 1654.57 232.655C1662.61 247.85 1674.36 293.754 1674.36 293.754L1639.28 306.817L1634.77 297.236L1627.35 223.474C1627.35 223.474 1641.96 219.232 1642.39 219.25Z" fill="#DD513A"/>
<path d="M1596.02 212.633C1606.05 212.646 1630.87 215.573 1642.39 219.253C1642.39 219.253 1650.85 291.986 1634.77 347.254C1631.17 359.626 1637.75 398.539 1637.75 398.539L1533.81 397.168C1533.81 397.168 1546.13 303.093 1541.49 287.897C1536.85 272.702 1536.74 219.743 1536.74 219.743C1536.74 219.743 1537.45 219.632 1560.09 215.719C1570.65 213.892 1585.31 212.619 1596.02 212.633Z" fill="#F47458"/>
<path d="M1583.92 533.539C1583.92 533.539 1586.22 560.079 1590.44 567.428C1594.67 574.777 1590.22 587.271 1590 588.986C1589.78 590.701 1581.1 593.151 1567.3 591.681C1553.51 590.211 1553.73 587.027 1554.84 581.882C1555.95 576.737 1563.3 570.123 1563.74 565.223C1564.19 560.324 1559.51 542.685 1559.51 542.685L1583.92 533.539Z" fill="#F7A491"/>
<path d="M1626.02 376.636C1626.02 376.636 1697.77 372.652 1713.8 382.355C1729.82 392.059 1702.41 439.681 1702.41 439.681C1702.41 439.681 1652.49 437.38 1554.7 443.024C1531.54 444.361 1529.54 382.644 1533.87 377.537C1538.2 372.43 1626.02 376.636 1626.02 376.636Z" fill="#E0973F"/>
<path d="M1565.58 593.74C1551.37 592.226 1553.13 585.247 1554.27 579.949C1554.99 576.632 1559.06 572.722 1561.49 569.023C1562.76 570.034 1564.83 571.82 1571 573.643C1577.4 575.535 1586.19 571.79 1591.78 569.444C1593.78 576.867 1593.87 586.334 1593.68 587.769C1593.45 589.535 1579.78 595.253 1565.58 593.74Z" fill="#DD513A"/>
<path d="M1573.42 427.964C1576.29 449.656 1590.48 557.641 1590.48 557.641L1557.55 561.724C1557.55 561.724 1517.05 420.778 1519.12 399.22C1521.2 377.661 1536.36 375.848 1536.36 375.848C1536.36 375.848 1565.83 370.543 1573.42 427.964Z" fill="#F7CC7F"/>
<path d="M1535.61 227.829C1545.32 224.184 1550.08 311.747 1551.39 347.787C1568.6 349.443 1598.59 347.8 1606.06 347.239C1609.58 346.975 1617.68 344.009 1621.17 343.551C1624.75 343.082 1627.99 342.838 1629.75 343.144C1630.4 343.256 1648.34 350.592 1649.87 352.201C1651.78 354.196 1656.92 359.228 1656.05 361.405C1655.19 363.581 1646.16 355.341 1646.16 355.341L1641.75 352.866C1647.24 358.231 1657.71 365.296 1656.2 367.869C1654.73 370.378 1645.28 363.208 1638.55 358.321C1644.33 363.538 1651.5 372.874 1649.85 374.329C1648.36 375.637 1640.2 364.829 1631.48 361.716C1628.25 360.563 1625.02 363.756 1622.48 364.143C1620.61 364.427 1617.73 365.03 1615.89 364.51L1606.45 361.831C1603.23 362.123 1603.15 364.026 1599.9 364.717C1596.13 365.52 1589.94 366.365 1585.14 367.539C1557.47 374.297 1548.25 377.436 1539.78 377.431C1514.13 377.417 1512.64 236.445 1535.61 227.829Z" fill="#F7A491"/>
<path d="M1517.16 310.038C1515.34 273.121 1515.61 227.618 1536.31 219.855C1544.47 216.792 1558.87 235.21 1556.28 310.788C1545.23 311.7 1529.01 312.434 1517.16 310.038Z" fill="#DD513A"/>
<path d="M1680.22 556.234C1680.22 556.234 1677.34 565.447 1682.49 571.54C1687.63 577.633 1709.01 583.61 1711.82 586.911C1714.63 590.211 1714.42 593.021 1714.42 593.021L1654.41 591.369L1655.06 573.246L1657.82 560.223L1680.22 556.234Z" fill="#F7A491"/>
<path d="M1686.22 574.584C1686.22 574.584 1670.8 580.821 1663.35 577.128C1655.9 573.435 1656.13 572.412 1653.97 573.789C1651.82 575.166 1651.05 592.155 1651.05 592.155L1718.53 594.138C1723.22 594.03 1725.59 590.572 1721.78 587.612C1719.16 585.582 1716.14 584.223 1714.42 583.237C1709.14 580.211 1686.22 574.584 1686.22 574.584Z" fill="#DD513A"/>
<path d="M1677.94 393.644C1682.58 383.883 1693.13 371.175 1711.69 378.829C1729.39 386.129 1734.14 404.07 1728.55 422.441C1722.97 440.813 1686.2 548.809 1684.92 563.658L1655.56 563.853C1655.56 563.853 1660.9 478.339 1662.21 457.669C1663.47 437.781 1669.91 410.537 1677.94 393.644Z" fill="#F7CC7F"/>
<path d="M1725.6 294.172H1627.46C1624.87 294.172 1622.53 295.746 1621.54 298.157L1591.33 372.105H1537.22C1535.71 372.105 1534.48 373.334 1534.48 374.851C1534.48 376.368 1535.71 377.598 1537.22 377.598H1691.2C1695.44 377.598 1699.28 375.105 1701.01 371.23L1731.44 303.223C1733.34 298.973 1730.24 294.172 1725.6 294.172Z" fill="black"/>
<path d="M1672.77 337.237C1672.11 340.559 1669.22 342.78 1666.32 342.198C1663.42 341.616 1661.61 338.452 1662.27 335.131C1662.93 331.81 1665.82 329.589 1668.72 330.17C1671.62 330.751 1673.43 333.915 1672.77 337.237Z" fill="white"/>
<path d="M1619.35 123.802C1616.39 122.806 1613.48 121.682 1610.67 120.326C1607.49 118.793 1603.37 116.998 1600.77 116.596C1595.29 115.751 1585.88 116.314 1580.69 121.951C1574.21 128.973 1562.71 123.219 1565.03 159.996C1567.65 201.624 1590.8 197.055 1591.36 196.35C1591.92 195.645 1612 169.719 1612 169.719C1612 169.719 1619.02 185.078 1619.02 184.514C1619.02 183.97 1654.88 135.767 1619.35 123.802Z" fill="#0E2E35"/>
<path d="M1601.78 199.427L1603.78 214.301C1603.78 214.301 1608.25 235.731 1602.5 239.862C1596.74 243.993 1578.01 213.69 1578.01 213.69L1579.99 176L1601.78 199.427Z" fill="#F7A491"/>
<path d="M1579.34 188.215C1584.1 201.07 1595.43 208.972 1603.47 212.038L1601.78 199.427L1579.98 176L1579.34 188.215Z" fill="#F47458"/>
<path d="M1600.59 134.979C1612.8 133.009 1623.74 142.823 1623.44 155.038C1623.3 160.348 1622.87 166.977 1621.77 174.116C1619.11 191.286 1607.4 206.406 1599.65 205.056C1591.91 203.706 1572.42 188.894 1575.85 164.46C1577.97 149.374 1587.79 137.047 1600.59 134.979Z" fill="#F7A491"/>
<path d="M1581.22 167.376C1580.57 171.152 1577.54 173.778 1574.47 173.242C1571.39 172.706 1569.42 169.21 1570.08 165.434C1570.73 161.659 1573.76 159.033 1576.83 159.569C1579.91 160.104 1581.88 163.6 1581.22 167.376Z" fill="#F7A491"/>
<path d="M1576.83 159.57C1576.83 159.57 1586.2 161.897 1589.67 155.873C1593.15 149.849 1605.58 136.851 1621.38 142.24C1637.17 147.63 1607.47 129.136 1606.21 129.136C1604.94 129.136 1589.78 129.031 1589.78 129.031C1589.78 129.031 1578.09 138.648 1577.67 139.705C1577.25 140.762 1573.88 152.281 1573.88 152.281L1576.83 159.57Z" fill="#0E2E35"/>
<path d="M1593.96 184.703L1611 187.961C1611 187.961 1609.38 194.38 1601.84 193.165C1592.65 191.683 1593.96 184.703 1593.96 184.703Z" fill="white"/>
<path d="M1305.7 1371.18C1306.35 1373.43 1306.72 1374.17 1307.55 1375.68C1312.89 1385.41 1325.29 1399.29 1325.29 1399.29L1334.89 1377.68C1334.89 1377.68 1333.32 1370.89 1330.61 1361.2C1321.35 1363.61 1312.52 1365.01 1305.7 1371.18Z" fill="#F8A492"/>
<path d="M1360.68 1352.44C1360.68 1352.44 1307.19 1375.47 1305.46 1375.03C1304.34 1374.75 1283.51 1339.89 1283.29 1307.1C1283.19 1291.96 1298.91 1273.74 1316.46 1277.34C1325.29 1279.16 1325.16 1281.61 1338.22 1300.61C1351.29 1319.6 1360.68 1352.44 1360.68 1352.44Z" fill="#13375B"/>
<path d="M1406.35 1765.47C1406.35 1765.47 1405.08 1786.48 1405.08 1786.52C1404.61 1789.19 1402.77 1795.78 1402.77 1798.21C1402.77 1807.32 1446.03 1790.47 1436.34 1786.43C1435.46 1786.07 1430.86 1783.31 1430.57 1780.21C1430.13 1775.43 1429 1765.76 1429 1765.76L1406.35 1765.47Z" fill="#F7A491"/>
<path d="M1436.23 1786.34C1436.23 1786.34 1426.07 1789.13 1420.87 1789.83C1415.67 1790.52 1408.81 1784.66 1405.13 1786.24C1401.09 1787.99 1401.24 1803.68 1401.24 1803.68C1401.24 1803.68 1455.71 1808.15 1471.02 1803.53C1477.09 1801.7 1456.99 1792.83 1436.23 1786.34Z" fill="#DD513A"/>
<path d="M1317.86 1765.47C1317.86 1765.47 1316.59 1786.48 1316.59 1786.52C1316.12 1789.19 1314.28 1795.78 1314.28 1798.21C1314.28 1807.32 1357.54 1790.47 1347.84 1786.43C1346.97 1786.07 1341.01 1781.24 1340.72 1778.14C1340.27 1773.37 1340.51 1765.76 1340.51 1765.76L1317.86 1765.47Z" fill="#F7A491"/>
<path d="M1347.74 1786.34C1347.74 1786.34 1337.58 1789.13 1332.38 1789.83C1327.18 1790.52 1320.32 1784.66 1316.64 1786.24C1312.59 1787.99 1312.43 1803.68 1312.43 1803.68C1312.43 1803.68 1367.14 1808.89 1382.53 1803.53C1388.5 1801.45 1368.5 1792.83 1347.74 1786.34Z" fill="#DD513A"/>
<path d="M1331.08 1382.83L1369.18 1329.45C1369.34 1328.99 1369.68 1328.03 1370.21 1326.57C1372.13 1321.27 1376.12 1310.25 1379.6 1299.29L1379.64 1299.17C1380.73 1295.34 1383.05 1288.66 1385.29 1282.19C1387.78 1275 1390.87 1266.08 1390.98 1264.56C1390.88 1264.3 1390.7 1263.83 1390.46 1263.22C1389.07 1259.59 1387.18 1250.95 1386.51 1247.2C1386.09 1244.81 1385.66 1238.99 1388.5 1238.99C1392.97 1238.99 1390.84 1244.8 1392.9 1248.42C1393.66 1246 1395.19 1241.2 1396 1236.33L1396.75 1224.98C1396.89 1224.13 1395.98 1217.87 1399.11 1217.87L1399.26 1217.87C1402.08 1218.08 1402.02 1224.73 1403.19 1235.99C1403.56 1234.69 1403.93 1233.13 1404.21 1231.7C1404.17 1230.93 1404.74 1227.54 1405.16 1225.76C1404.59 1222.62 1404.92 1217.67 1408.26 1218.14C1409.94 1218.37 1409.8 1225.28 1409.8 1225.28C1409.78 1226.23 1409.68 1233.53 1409.74 1234.97C1410.08 1232.52 1411.42 1222.07 1414.04 1222.07C1416.21 1222.07 1416.39 1224.88 1416.34 1227.11C1416.31 1228.42 1414.95 1239.74 1414.87 1241.06C1415.9 1239.34 1417.11 1229.37 1418.12 1229.37C1422.36 1229.37 1420.83 1243.55 1419.27 1247.24C1419.13 1247.62 1418.97 1248.36 1418.79 1249.22C1418.26 1251.75 1417.37 1255.98 1415.16 1259.77C1412.5 1264.32 1408.83 1271.56 1408.27 1272.67C1407.86 1274.93 1406.58 1283.06 1404.98 1293.29C1404.29 1297.66 1403.54 1302.46 1402.75 1307.43L1402.71 1307.42C1402.57 1308.5 1401.77 1311.92 1398.76 1324.75C1394.64 1342.31 1394.21 1343.07 1394.03 1343.39C1392.24 1346.56 1351.16 1402.35 1349.41 1404.72L1348.38 1406.12L1331.08 1382.83Z" fill="#F7A491"/>
<path d="M1401.94 1258.35C1401.94 1258.35 1398.85 1250.44 1393.34 1250.43C1393.34 1250.43 1396.42 1249.32 1399.06 1251.41C1401.7 1253.49 1401.94 1258.35 1401.94 1258.35Z" fill="#F47458"/>
<path d="M1321.87 1243.07L1316.97 1274.08C1316.97 1274.08 1335.66 1289.09 1346.55 1285.92C1355.69 1283.27 1349.42 1271.32 1349.42 1271.32C1349.42 1271.32 1344.55 1254.76 1346.05 1246.08C1347.54 1237.4 1321.87 1243.07 1321.87 1243.07Z" fill="#F7A491"/>
<path d="M1325.39 1252.44C1330.08 1254.65 1339.34 1257.67 1346.54 1258.4C1345.85 1254.06 1345.46 1249.47 1346.05 1246.08C1346.73 1242.07 1341.64 1241.12 1335.95 1241.26C1328.51 1241.9 1321.87 1243.06 1321.87 1243.06L1320.93 1249.02C1322.34 1250.52 1323.83 1251.7 1325.39 1252.44Z" fill="#FE875E"/>
<path d="M1298.29 1207.29C1297.52 1207.29 1305.68 1241.94 1318.31 1247.9C1330.93 1253.86 1349.76 1250.76 1353.29 1241.42C1357.2 1231.1 1342.95 1195.75 1325.19 1191.26C1307.43 1186.77 1298.29 1207.29 1298.29 1207.29Z" fill="#F7A491"/>
<path d="M1312.9 1175.45C1302.82 1181.27 1298.19 1189.89 1296.63 1193.43C1291.9 1195.67 1286.17 1200.53 1283.42 1213.62C1280.04 1229.72 1292.06 1242.12 1304.8 1245.86C1317.54 1249.59 1319.51 1258.02 1319.51 1258.02L1320.96 1248.95C1320.96 1248.95 1318.12 1241.05 1313.86 1237.09C1309.6 1233.14 1315.88 1227.38 1316.43 1222.68C1316.86 1219.06 1314.19 1212.03 1314.77 1206.09C1314.77 1206.09 1321.85 1195.36 1328.83 1192.71C1340.73 1188.19 1325.84 1167.99 1312.9 1175.45Z" fill="#13375B"/>
<path d="M1318.27 1228.71C1319.92 1232.71 1319.24 1236.68 1316.76 1237.58C1314.28 1238.48 1310.93 1235.96 1309.28 1231.96C1307.63 1227.96 1308.3 1223.99 1310.79 1223.09C1313.27 1222.19 1316.62 1224.7 1318.27 1228.71Z" fill="#F7A491"/>
<path d="M1365.3 1383.68L1438.79 1371.7C1438.79 1371.7 1430.42 1350.65 1427.44 1350.65C1424.45 1350.65 1371.87 1373.6 1371.87 1373.6L1367.69 1382L1365.3 1383.68Z" fill="#F8A492"/>
<path d="M1327.65 1434.07C1327.65 1434.07 1320.32 1469.51 1323.31 1496.38C1326.3 1523.26 1326.53 1618.72 1326.53 1618.72L1315.13 1771.46L1342.18 1772.05C1342.18 1772.05 1374.26 1619.38 1373.66 1623.3C1373.06 1627.22 1384.42 1515.81 1384.42 1515.81L1346.18 1430.71L1327.65 1434.07Z" fill="#184655"/>
<path d="M1334.83 1432.39C1334.83 1432.39 1330.05 1464.3 1336.02 1478.3C1342 1492.3 1387.27 1629.63 1387.87 1640.82C1388.46 1652.02 1403.52 1775.78 1403.52 1775.78L1434.97 1774.9L1441.78 1637.3L1427.53 1464.36L1413.7 1420.63L1334.83 1432.39Z" fill="#13375B"/>
<path d="M1316.97 1274.08C1316.97 1274.08 1324.72 1279.17 1331.96 1278.58C1339.19 1278 1349.42 1271.32 1349.42 1271.32L1348 1266.5C1348 1266.5 1329.29 1263.77 1328.81 1264.07C1328.34 1264.36 1316.97 1274.08 1316.97 1274.08Z" fill="#F7A491"/>
<path d="M1399.64 1349.61C1399.64 1349.61 1427.44 1375.84 1439.99 1371.36C1452.53 1366.88 1457.73 1351.57 1427.11 1329.17C1399.71 1309.13 1399.64 1349.61 1399.64 1349.61Z" fill="#F8A492"/>
<path d="M1418.47 1382C1414.34 1359.54 1384.42 1289.63 1382.03 1276.75C1380.86 1270.49 1364.72 1270.35 1349.34 1271.17C1333.1 1272.03 1316.97 1274.08 1316.97 1274.08C1316.97 1274.08 1302.59 1276.44 1296.26 1282.37C1289.94 1288.3 1288.26 1304.69 1297.35 1335.81C1304.53 1360.38 1313.43 1373.86 1317.83 1391.76C1318.73 1397.76 1319.49 1403.68 1320.5 1410.6C1322.12 1437.35 1320.48 1472.7 1320.48 1472.7C1320.48 1472.7 1398.76 1488.94 1428.03 1464.3C1428.03 1464.3 1422.7 1405.02 1418.47 1382Z" fill="#355389"/>
<path d="M1438.44 1333.7C1438.44 1333.7 1407.72 1359.05 1405.93 1359.05C1404.78 1359.05 1362.1 1327.66 1352.25 1301.87C1346.81 1287.61 1358.23 1271.66 1371.27 1271.71C1380.32 1271.75 1384.34 1274.08 1402.26 1289.19C1420.19 1304.31 1438.44 1333.7 1438.44 1333.7Z" fill="#466EB6"/>
<path d="M898.148 202.031C903.181 189.919 908.3 177.782 921.359 171.648C931.927 166.684 942.967 168.553 952.358 175.614C978.965 195.622 955.781 217.666 986.068 255.606C995.479 267.395 1006.87 276.914 1012.51 290.729C1020.4 310.066 1011 319.353 995.933 328.613C923.842 372.925 886.053 281.944 887.41 261.131C888.42 245.647 894.908 209.828 898.148 202.031Z" fill="#13375B"/>
<path d="M823.334 437.849C826.374 437.368 833.755 432.081 836.36 431.6C838.38 431.227 842.746 430.566 844.607 430.287C846.886 421.773 858.466 375.357 859.763 361.751C861.168 347.011 871.591 283.242 871.591 283.242L898.582 288.148C898.582 288.148 887.374 337.204 884.274 360.991C881.612 381.422 859.194 427.359 856.345 432.206C856.341 432.323 856.34 432.436 856.332 432.56C855.898 439.77 852.425 437.367 852.425 437.367L846.779 438.809C846.779 438.809 826.805 440.732 825.503 441.213C824.202 441.694 820.295 438.329 823.334 437.849Z" fill="#F7A491"/>
<path d="M895.125 245.969C876.044 252.438 865.195 304.311 865.195 304.311C865.195 304.311 895.13 312.668 902.8 308.285C902.8 308.285 911.507 269.696 914.626 271.044L895.125 245.969Z" fill="#6A97CE"/>
<path d="M747.526 527.469C741.687 542.867 738.659 557.698 738.385 559.492C738.254 560.354 739.472 564.54 739.359 565.436C727.64 581.422 710.796 584.919 696.359 585.938C703.717 578.755 714.522 571.948 715.041 569.673C715.868 566.051 720.312 549.926 722.498 527.579C731.479 531.734 737.572 528.441 747.526 527.469Z" fill="#F7A491"/>
<path d="M913.591 355.211L939.378 427.836C939.378 427.836 897.94 435.636 882.448 438.477C866.957 441.318 780.401 445.099 778.208 446.636C776.58 447.777 758.7 505.606 750.713 537.494C741.652 539.488 726.142 537.093 717.891 534.249C722.349 488.624 738.451 416.341 743.606 408.472C752.004 395.655 913.591 355.211 913.591 355.211Z" fill="#256653"/>
<path d="M812.851 559.305C810.001 575.524 809.805 590.66 809.873 592.474C809.906 593.346 811.887 597.228 811.943 598.13C803.427 616.029 787.538 622.62 773.547 626.327C779.429 617.892 788.767 609.182 788.851 606.85C788.984 603.137 790.328 586.465 788.288 564.105C797.887 566.501 803.256 562.125 812.851 559.305Z" fill="#F7A491"/>
<path d="M943.688 358.984L953.689 376.067C968.917 402.075 957.244 435.536 929.147 446.437C928.995 446.496 928.846 446.554 928.699 446.611C914.014 452.304 829.701 472.238 827.834 474.159C826.449 475.584 819.722 535.74 817.852 568.559C809.325 572.215 793.641 572.77 785.003 571.522C780.832 525.87 783.104 451.85 786.693 443.154C792.541 428.991 943.688 358.984 943.688 358.984Z" fill="#327F6B"/>
<path d="M808.587 592.979C810.832 590.499 819.073 604.144 821.132 607.056C823.448 610.331 822.789 612.799 822.512 613.311C821.781 614.662 778.321 640.23 767.722 642.051C766.721 642.223 764.986 641.591 764.55 641.204C760.407 637.536 779.474 610.463 788.036 606.905C793.569 604.605 798.488 604.133 808.587 592.979Z" fill="#13375B"/>
<path d="M737.003 559.983C739.673 557.968 745.211 572.916 746.688 576.162C748.35 579.813 747.24 582.114 746.872 582.565C745.9 583.755 698.419 600.727 687.667 600.529C686.651 600.51 685.066 599.564 684.709 599.102C681.327 594.724 705.129 571.702 714.206 569.811C720.072 568.589 724.993 569.047 737.003 559.983Z" fill="#13375B"/>
<path d="M913.22 245.817C912.726 245.82 912.019 245.647 911.295 245.42C907.751 244.786 900.004 243.858 893.976 246.402C886.644 249.495 875.283 278.398 875.959 308.065C876.231 312.6 876.505 316.661 876.739 319.492C878.59 341.902 885.019 383.953 885.366 384.177C894.112 389.806 946.882 367.982 950.509 363.188C954.135 358.394 956.274 300.145 958.038 297.241L961.504 246.583C955.385 244.756 922.602 245.75 913.22 245.817Z" fill="#9BC1F9"/>
<path d="M934.606 227.158C934.606 227.158 931.209 244.732 931.888 251.664C932.568 258.596 929.297 280.937 914.624 281.011C899.951 281.085 911.838 252.606 913.22 245.813C914.602 239.02 914.929 217.992 914.929 217.992L934.606 227.158Z" fill="#F7A491"/>
<path d="M914.625 228.542C914.854 222.79 914.928 217.992 914.928 217.992L934.604 227.158C934.604 227.158 933.909 230.751 933.211 235.33C924.599 237.061 918.357 233.872 914.625 228.542Z" fill="#F47458"/>
<path d="M941.797 178.658C941.797 178.658 949.38 182.864 952.151 191.981C954.923 201.098 951.768 224.623 932.182 230.299C912.596 235.975 904.111 217.347 908.145 202.784C912.179 188.22 920.954 169.777 941.797 178.658Z" fill="#F7A491"/>
<path d="M905.699 197.139C906.083 201.051 908.241 204.04 910.52 203.817C912.799 203.593 914.334 200.241 913.951 196.33C913.567 192.418 911.409 189.428 909.13 189.652C906.852 189.875 905.316 193.227 905.699 197.139Z" fill="#F7A491"/>
<path d="M939.5 177.469C939.5 177.469 943.052 203.712 951.536 208.448C960.02 213.183 956.469 224.825 956.469 224.825C956.469 224.825 964.164 197.793 957.455 189.111C950.747 180.429 939.5 177.469 939.5 177.469Z" fill="#13375B"/>
<path d="M946.509 212.213C944.208 215.632 944.217 219.665 946.527 221.22C948.838 222.775 952.577 221.264 954.878 217.845C957.179 214.426 957.17 210.393 954.859 208.838C952.548 207.283 948.81 208.794 946.509 212.213Z" fill="#F7A491"/>
<path d="M917.977 213.68L931.781 217.154C931.781 217.154 930.122 222.397 924.006 221.047C916.549 219.401 917.977 213.68 917.977 213.68Z" fill="white"/>
<path d="M986.508 435.664C987.171 435.631 1046.02 432.672 1046.02 432.672C1046.02 432.672 1021.6 450.22 1021.1 450.22C1020.6 450.22 1001.65 442.741 1000.82 442.741C999.992 442.741 986.508 435.664 986.508 435.664Z" fill="#50BFA5"/>
<path d="M2177.96 1766.33C2177.96 1766.33 2179.12 1786.97 2179.13 1787.01C2179.56 1789.63 2181.24 1796.11 2181.24 1798.49C2181.24 1807.44 2141.53 1790.89 2150.43 1786.93C2151.24 1786.57 2155.46 1783.85 2155.72 1780.81C2156.13 1776.12 2157.17 1766.62 2157.17 1766.62L2177.96 1766.33Z" fill="#F7A491"/>
<path d="M2150.05 1787.02C2150.05 1787.02 2159.38 1789.75 2164.15 1790.44C2168.93 1791.12 2175.22 1785.36 2178.6 1786.92C2182.32 1788.63 2182.17 1804.05 2182.17 1804.05C2182.17 1804.05 2132.18 1808.44 2118.12 1803.9C2112.55 1802.1 2130.99 1793.39 2150.05 1787.02Z" fill="#F7CC7F"/>
<path d="M2244.08 1765.26C2244.08 1765.26 2245.24 1785.9 2245.25 1785.94C2245.68 1788.56 2247.37 1795.04 2247.37 1797.42C2247.37 1806.37 2207.66 1789.82 2216.56 1785.86C2217.36 1785.5 2222.83 1780.76 2223.1 1777.71C2223.51 1773.02 2223.29 1765.55 2223.29 1765.55L2244.08 1765.26Z" fill="#F7A491"/>
<path d="M2216.66 1785.77C2216.66 1785.77 2225.98 1788.51 2230.75 1789.2C2235.53 1789.88 2241.82 1784.12 2245.2 1785.67C2248.92 1787.39 2249.07 1802.81 2249.07 1802.81C2249.07 1802.81 2199.43 1804.85 2184.72 1802.66C2178.93 1801.8 2197.6 1792.15 2216.66 1785.77Z" fill="#F7CC7F"/>
<path d="M2232.3 1437.4C2232.3 1437.4 2239.03 1472.22 2236.29 1498.62C2233.55 1525.03 2233.33 1618.82 2233.33 1618.82L2245.98 1768.83L2218.96 1769.46C2218.96 1769.46 2189.52 1619.47 2190.07 1623.32C2190.62 1627.17 2180.2 1517.71 2180.2 1517.71L2215.3 1434.1L2232.3 1437.4Z" fill="#355389"/>
<path d="M2222.89 1414.91C2222.89 1414.91 2253.38 1447.02 2242.04 1482.1C2237.48 1496.19 2195 1630.78 2194.45 1641.78C2193.9 1652.78 2180.08 1774.37 2180.08 1774.37L2151.21 1773.5L2144.96 1638.31L2153.21 1456.17L2170.74 1425.45L2222.89 1414.91Z" fill="#466EB6"/>
<path d="M2037.8 1310.4C2047.78 1299.27 2069.51 1283.42 2069.51 1283.42C2069.51 1283.42 2082.45 1272.36 2087.73 1270.54C2095.5 1267.86 2108.8 1260.72 2128.04 1289.88C2141.81 1310.75 2228.7 1418.8 2242.96 1422.44L2149.82 1467C2147.27 1445.71 2101.24 1405.51 2094.61 1398.01C2079.81 1381.24 2028.35 1320.95 2037.8 1310.4Z" fill="#F47458"/>
<path d="M2042.14 1265.12L2071.15 1282.11C2071.15 1282.11 2071.97 1306.88 2062.49 1313.31C2054.53 1318.7 2048.47 1305.75 2048.47 1305.75C2048.47 1305.75 2037.68 1290.8 2029.49 1286.14C2021.29 1281.49 2042.14 1265.12 2042.14 1265.12Z" fill="#F7A491"/>
<path d="M2047.01 1276.03C2045.92 1281.19 2043.4 1288.66 2039.48 1294.82C2036.29 1291.36 2032.7 1287.96 2029.49 1286.15C2025.71 1284 2028.12 1279.35 2031.8 1274.98C2037.01 1269.56 2042.15 1265.12 2042.15 1265.12L2047.72 1268.39C2048.08 1270.51 2047.38 1274.31 2047.01 1276.03Z" fill="#F47458"/>
<path d="M2027.03 1222.56C2027.52 1221.96 2051.37 1251.65 2048.42 1265.57C2045.48 1279.5 2031.07 1292.21 2021.05 1288.71C2009.96 1284.85 1989.35 1249.9 1996.74 1232.93C2004.13 1215.96 2027.03 1222.56 2027.03 1222.56Z" fill="#F7A491"/>
<path d="M2000.92 1213.19C2011.32 1207.41 2028.28 1205.75 2040.95 1212.38C2056.53 1220.54 2060.08 1241.07 2055.2 1253.58C2050.32 1266.1 2055.91 1273.18 2055.91 1273.18L2047.64 1268.35C2047.64 1268.35 2042.81 1260.82 2042.18 1254.81C2041.55 1248.81 2032.79 1249.87 2028.51 1247.15C2025.22 1245.05 2021.02 1238.24 2015.69 1234.7C2015.69 1234.7 2002.27 1233.05 1995.68 1236.76C1984.43 1243.07 1986.03 1221.48 2000.92 1213.19Z" fill="#13375B"/>
<path d="M2035.21 1252.16C2035.14 1256.61 2037.24 1260.26 2039.91 1260.3C2042.59 1260.34 2044.82 1256.77 2044.89 1252.32C2044.97 1247.86 2042.87 1244.22 2040.19 1244.17C2037.52 1244.13 2035.29 1247.7 2035.21 1252.16Z" fill="#F7A491"/>
<path d="M2010.79 1275.79L2023.42 1266.35C2023.42 1266.35 2026.75 1271.45 2021.32 1275.77C2014.7 1281.03 2010.79 1275.79 2010.79 1275.79Z" fill="white"/>
<path d="M1979.08 1463.61C1982.24 1458.99 1983.62 1452.32 1988 1447.23C1989.46 1445.52 1991.8 1443.6 1994.46 1441.68C2015.5 1429.37 2070.3 1397.64 2072.43 1395.18C2074.96 1392.26 2112.36 1330.12 2112.36 1330.12L2078.77 1322.51L2045.94 1380.48C2043.2 1382.65 1991.09 1421.17 1991.09 1421.17C1991.09 1421.17 1980.73 1429.26 1975.07 1433.05C1972.2 1434.72 1969.43 1435.8 1967 1436.65C1963.94 1437.71 1958.12 1440.61 1956.94 1441.65C1955.57 1442.85 1952.83 1445.43 1951.2 1447C1949.58 1448.57 1947.6 1450.35 1946.84 1451.28C1946.37 1451.85 1944.93 1452.64 1943.88 1453.17C1942.3 1453.95 1942.51 1456.28 1944.2 1456.76C1945.79 1457.21 1947.95 1456.21 1949.29 1455.58C1953.06 1453.81 1957.67 1449.03 1957.91 1449.61C1958.15 1450.2 1953.47 1460.45 1953.01 1461.66C1952.56 1462.87 1947.18 1474.81 1946.91 1477.48C1946.63 1480.14 1948.24 1480.76 1949.43 1479.78C1950.46 1478.95 1959.1 1462.99 1959.1 1462.99C1959.1 1462.99 1960.21 1460.96 1960.64 1462.12C1961.07 1463.28 1953.25 1477.79 1952.48 1480.17C1951.72 1482.55 1952.33 1484.5 1954.53 1483.66C1957.21 1482.65 1964.6 1466.65 1964.6 1466.65C1964.6 1466.65 1965.56 1464.67 1966.22 1465.36C1966.87 1466.05 1960.02 1478.28 1959.94 1479.69C1959.86 1481.1 1961.14 1482.49 1962.99 1481.31C1965.17 1479.92 1971.64 1465.59 1971.64 1465.59C1971.64 1465.59 1972.44 1464.64 1972.69 1465.3C1972.95 1465.97 1967.84 1476.81 1968.22 1478.4C1968.54 1479.73 1969.74 1479.46 1969.74 1479.46C1972.41 1479.45 1975.92 1468.23 1979.08 1463.61Z" fill="#F8A492"/>
<path d="M2103.16 1362.95C2103.16 1362.95 2092.23 1359.47 2085.21 1356.25C2080.51 1354.1 2060.01 1343.9 2060.01 1343.9C2060.01 1343.9 2068.85 1306.62 2074.82 1293.21C2096.75 1244.02 2121.66 1277.95 2125.04 1285.86C2132.61 1303.55 2103.16 1362.95 2103.16 1362.95Z" fill="#355389"/>
<path d="M1339.04 1234.13L1349.45 1226.34C1349.45 1226.34 1352.2 1230.55 1347.72 1234.11C1342.26 1238.45 1339.04 1234.13 1339.04 1234.13Z" fill="white"/>
<path d="M2561.19 1802.95H142.498C139.474 1802.95 137.023 1806.08 137.023 1809.94C137.023 1813.8 139.474 1816.93 142.498 1816.93H2561.19C2564.21 1816.93 2566.66 1813.8 2566.66 1809.94C2566.66 1806.08 2564.21 1802.95 2561.19 1802.95Z" fill="#184655"/>
<path d="M1047.36 432.61C1047.12 431.982 1046.57 431.969 1046 431.952C1040.54 431.785 1035.09 431.54 1029.67 430.73C1028.77 430.595 1027.88 430.392 1027.04 430.06C1025.54 429.458 1024.05 429.473 1022.53 429.894C1021.7 430.122 1020.87 430.165 1020.02 430.161C1017.27 430.149 1009.44 427.483 1005.41 426.78C1004.49 426.619 1003.76 425.924 1003.54 425.019C999.575 409.359 991.082 374.224 989.98 362.67C988.572 347.895 978.369 281.281 978.369 281.281L951.07 288.894C951.07 288.894 962.306 338.065 965.413 361.909C967.811 380.32 986.212 419.388 991.979 430.622C994.797 438.984 1001.12 439.216 1002.59 439.395C1003.43 439.498 1004.2 439.91 1004.75 440.553C1005.75 441.714 1006.89 442.725 1008.19 443.549C1009.16 444.16 1009.91 444.956 1010.55 445.887C1011.71 447.581 1012.74 449.349 1013.77 451.125C1014.45 452.302 1015.16 452.674 1016.17 452.397C1017.26 452.1 1017.77 451.299 1017.75 449.979C1017.72 448.029 1017.1 446.265 1016.12 444.602C1015.2 443.044 1015.27 442.138 1016.34 440.704C1016.95 439.88 1017.58 439.08 1018.39 438.426C1019.21 437.759 1020.07 437.254 1021.18 437.409C1023.14 437.899 1025.12 438.296 1027.13 438.518L1028.79 438.855C1028.84 438.864 1029.69 439.046 1029.69 439.046C1029.83 439.082 1032.73 439.4 1033.72 439.401C1034.52 439.402 1035.82 439.455 1036.92 439.508C1037.91 439.556 1040.02 439.036 1040.09 439.034C1041.06 439.013 1041.92 438.662 1042.64 438.012C1042.94 437.746 1043.22 437.448 1043.07 436.996C1042.94 436.581 1042.61 436.405 1042.19 436.328C1041.53 436.21 1038.14 435.798 1038.18 435.654C1039.19 435.654 1042.34 435.58 1043.35 435.553C1044.7 435.517 1045.88 435.031 1046.81 434.028C1047.18 433.633 1047.61 433.241 1047.36 432.61Z" fill="#F7A491"/>
<path d="M961.834 246.471C975.307 244.021 986.423 304.304 986.423 304.304C986.423 304.304 956.487 312.661 948.818 308.278C948.818 308.278 940.111 269.689 936.992 271.037L961.834 246.471Z" fill="#9BC1F9"/>
<path d="M636.051 1330.03C636.943 1327.47 624.517 1325.41 623.856 1322.83C623.194 1320.24 639.545 1320.04 640.13 1317.77C641.209 1313.59 622.209 1316.89 622.583 1314.93C622.958 1312.98 642.382 1308.61 640.283 1305.25C638.184 1301.89 620.614 1311.88 620.081 1309.6C619.549 1307.33 637.256 1301.79 636.939 1296.79C636.77 1294.12 607.877 1310.1 604.526 1308.65C601.175 1307.2 608.13 1294.65 605.463 1292.79C602.795 1290.93 595.138 1318.29 593.297 1319.2C591.462 1320.11 552.425 1342.39 538.536 1345.93C536.849 1341.28 533.203 1335 531.716 1330.61C523.923 1336.15 518.137 1338.93 510.094 1343.99C515.921 1358.59 524.214 1374.58 528.273 1376.42C540.633 1382 588.438 1342.35 597.979 1335.57C607.53 1328.78 612.995 1330.98 619.453 1328.83C625.911 1326.69 635.159 1332.59 636.051 1330.03Z" fill="#F7A491"/>
<path d="M508.427 1351C508.427 1351 497.727 1303.75 499.583 1290.04C501.438 1276.33 517.731 1263.56 529.021 1268.3C540.31 1273.04 545.427 1339 545.427 1339L508.427 1351Z" fill="#F7CC7F"/>
</svg>
