<svg width="3" height="199" viewBox="0 0 3 199" fill="none" xmlns="http://www.w3.org/2000/svg">
<g clip-path="url(#clip0_217_147)">
<mask id="mask0_217_147" style="mask-type:luminance" maskUnits="userSpaceOnUse" x="0" y="0" width="3" height="199">
<path d="M0 199H3V0H0V199Z" fill="white"/>
</mask>
<g mask="url(#mask0_217_147)">
<mask id="mask1_217_147" style="mask-type:luminance" maskUnits="userSpaceOnUse" x="0" y="0" width="3" height="199">
<path d="M3 6.49691e-06V199H-2.98023e-08V6.49691e-06H3Z" fill="white"/>
</mask>
<g mask="url(#mask1_217_147)">
<mask id="mask2_217_147" style="mask-type:luminance" maskUnits="userSpaceOnUse" x="0" y="0" width="3" height="199">
<path d="M3 6.49691e-06V199H-2.98023e-08V6.49691e-06H3Z" fill="white"/>
</mask>
<g mask="url(#mask2_217_147)">
<path d="M3 6.49691e-06V199H-2.98023e-08V6.49691e-06H3Z" fill="#D9D9D9"/>
<path d="M3 187.276V199H-8.47054V187.276H3Z" fill="#E6243C"/>
<path d="M3 175.557V187.281H-8.47054V175.557H3Z" fill="#E5B735"/>
<path d="M3 163.907V175.555H-8.47054V163.907H3Z" fill="#4C9F37"/>
<path d="M3 152.182V163.906H-8.47054V152.182H3Z" fill="#C51C2E"/>
<path d="M3 140.456V152.18H-8.47054V140.456H3Z" fill="#E8422E"/>
<path d="M3 128.737V140.461H-8.47054V128.737H3Z" fill="#2EBCE0"/>
<path d="M3 117.087V128.734H-8.47054V117.087H3Z" fill="#FCC310"/>
<path d="M3 105.362V117.086H-8.47054V105.362H3Z" fill="#A31B43"/>
<path d="M3 93.6352V105.359H-8.47054V93.6352H3Z" fill="#ED6930"/>
<path d="M3 81.9169V93.6406H-8.47054V81.9169H3Z" fill="#DE1868"/>
<path d="M3 70.2668V81.9141H-8.47054V70.2668H3Z" fill="#F59D2D"/>
<path d="M3 58.5419V70.2656H-8.47054V58.5419H3Z" fill="#C99A2D"/>
<path d="M3 46.8149V58.5391H-8.47054V46.8149H3Z" fill="#3F7F45"/>
<path d="M3 35.0966V46.8203H-8.47054V35.0966H3Z" fill="#1896D4"/>
<path d="M3 23.4465V35.0938H-8.47054V23.4465H3Z" fill="#63B335"/>
<path d="M3 11.7216V23.4453H-8.47054V11.7216H3Z" fill="#02699E"/>
<path d="M3 -0.00544226V11.7188H-8.47054V-0.00544226H3Z" fill="#1A496A"/>
</g>
</g>
</g>
</g>
<defs>
<clipPath id="clip0_217_147">
<rect width="3" height="199" fill="white" transform="matrix(-1 0 0 -1 3 199)"/>
</clipPath>
</defs>
</svg>
