<?xml version="1.0" encoding="utf-8"?>
<!-- Generator: Adobe Illustrator 27.5.0, SVG Export Plug-In . SVG Version: 6.00 Build 0)  -->
<svg version="1.1" xmlns="http://www.w3.org/2000/svg" xmlns:xlink="http://www.w3.org/1999/xlink" x="0px" y="0px"
	 viewBox="0 0 500 500" style="enable-background:new 0 0 500 500;" xml:space="preserve">
<g id="BACKGROUND">
	<g>
		<rect style="fill:#FFFFFF;" width="500" height="500"/>
		<g>
			<g>
				<g>
					<path style="fill:#DDDEE8;" d="M192.146,36.393l28.39-7.461l20.656,20.856l-7.733,28.317l-28.39,7.461L184.413,64.71
						L192.146,36.393z M220.269,29.91l-27.409,7.203l-7.466,27.338l19.942,20.135l27.409-7.203l7.466-27.338L220.269,29.91z"/>
				</g>
				<g>
					<path style="fill:#DDDEE8;" d="M240.411,49.539l28.39-7.461l20.656,20.856l-7.733,28.317l-28.39,7.461l-20.657-20.856
						L240.411,49.539z M268.534,43.056l-27.409,7.203l-7.467,27.338l19.943,20.135l27.409-7.203l7.466-27.338L268.534,43.056z"/>
				</g>
				<g>
					<polygon style="fill:#DDDEE8;" points="253.111,97.862 281.256,90.465 281.479,91.315 253.825,98.583 246.358,125.921 
						266.48,146.236 265.855,146.854 245.377,126.179 					"/>
				</g>
				<g>
					<path style="fill:#DDDEE8;" d="M249.722,125.46c0.445,1.695-0.567,3.429-2.262,3.875c-1.694,0.445-3.429-0.567-3.875-2.262
						c-0.445-1.695,0.567-3.429,2.262-3.875C247.542,122.753,249.276,123.765,249.722,125.46z"/>
				</g>
				<g>
					<path style="fill:#DDDEE8;" d="M268.932,144.853c0.445,1.695-0.567,3.429-2.262,3.875c-1.694,0.445-3.429-0.567-3.875-2.262
						c-0.445-1.695,0.567-3.429,2.262-3.875C266.752,142.145,268.487,143.158,268.932,144.853z"/>
				</g>
				<g>
					<path style="fill:#DDDEE8;" d="M256.516,97.61c0.445,1.695-0.567,3.429-2.262,3.875c-1.695,0.445-3.429-0.567-3.875-2.262
						c-0.445-1.695,0.567-3.429,2.262-3.875C254.336,94.903,256.071,95.915,256.516,97.61z"/>
				</g>
				<g>
					<path style="fill:#DDDEE8;" d="M284.482,90.261c0.445,1.695-0.567,3.429-2.262,3.875c-1.695,0.445-3.429-0.567-3.875-2.262
						c-0.445-1.695,0.567-3.429,2.262-3.875C282.302,87.553,284.036,88.566,284.482,90.261z"/>
				</g>
				<g>
					<path style="fill:#DDDEE8;" d="M243.417,49.203c0.445,1.695-0.567,3.429-2.262,3.875c-1.694,0.445-3.429-0.567-3.875-2.262
						c-0.445-1.695,0.567-3.429,2.262-3.875C241.236,46.496,242.971,47.508,243.417,49.203z"/>
				</g>
				<g>
					<path style="fill:#DDDEE8;" d="M223.537,28.597c0.445,1.695-0.567,3.429-2.262,3.875c-1.695,0.445-3.429-0.567-3.875-2.262
						c-0.445-1.695,0.567-3.429,2.262-3.875C221.357,25.89,223.092,26.903,223.537,28.597z"/>
				</g>
				<g>
					<path style="fill:#DDDEE8;" d="M195.228,36.037c0.445,1.695-0.567,3.429-2.262,3.875c-1.695,0.445-3.429-0.567-3.875-2.262
						c-0.445-1.695,0.567-3.429,2.262-3.875C193.048,33.33,194.782,34.342,195.228,36.037z"/>
				</g>
				<g>
					<path style="fill:#DDDEE8;" d="M187.972,63.774c0.445,1.695-0.567,3.429-2.262,3.875c-1.695,0.445-3.429-0.567-3.875-2.262
						c-0.445-1.694,0.567-3.429,2.262-3.875C185.792,61.067,187.526,62.08,187.972,63.774z"/>
				</g>
				<g>
					<path style="fill:#DDDEE8;" d="M236.918,76.741c0.445,1.695-0.567,3.429-2.262,3.875c-1.695,0.445-3.429-0.567-3.875-2.262
						c-0.445-1.695,0.567-3.429,2.262-3.875C234.738,74.034,236.473,75.047,236.918,76.741z"/>
				</g>
				<g>
					<path style="fill:#DDDEE8;" d="M209.227,84.018c0.445,1.695-0.567,3.429-2.262,3.875c-1.694,0.445-3.429-0.567-3.875-2.262
						c-0.445-1.695,0.567-3.429,2.262-3.875C207.047,81.311,208.782,82.324,209.227,84.018z"/>
				</g>
				<g>
					<path style="fill:#DDDEE8;" d="M271.736,41.761c0.445,1.694-0.567,3.429-2.262,3.875c-1.695,0.445-3.429-0.567-3.875-2.262
						c-0.445-1.695,0.567-3.429,2.262-3.875C269.556,39.053,271.29,40.066,271.736,41.761z"/>
				</g>
			</g>
			<g>
				<g>
					<path style="fill:#DDDEE8;" d="M251.289,258.589l-20.159-21.338l8.4-28.126l28.558-6.789l20.159,21.338l-8.4,28.127
						L251.289,258.589z M232.117,237.016l19.462,20.6l27.571-6.554l8.11-27.154l-19.462-20.6l-27.571,6.554L232.117,237.016z"/>
				</g>
				<g>
					<path style="fill:#DDDEE8;" d="M262.892,307.248l-20.159-21.338l8.4-28.127l28.558-6.788l20.159,21.338l-8.4,28.126
						L262.892,307.248z M243.72,285.676l19.462,20.6l27.571-6.555l8.11-27.154l-19.462-20.6l-27.571,6.554L243.72,285.676z"/>
				</g>
				<g>
					<polygon style="fill:#DDDEE8;" points="207.329,320.231 206.487,319.979 214.814,292.096 243.372,285.306 263.356,306.46 
						262.718,307.063 243.082,286.279 215.51,292.833 					"/>
				</g>
				<g>
					<path style="fill:#DDDEE8;" d="M217.527,295.564c-1.274,1.203-3.282,1.146-4.485-0.127c-1.203-1.274-1.146-3.282,0.128-4.485
						c1.274-1.203,3.281-1.146,4.485,0.128C218.858,292.353,218.801,294.361,217.527,295.564z"/>
				</g>
				<g>
					<path style="fill:#DDDEE8;" d="M209.719,321.72c-1.274,1.203-3.282,1.146-4.485-0.127c-1.203-1.274-1.146-3.281,0.127-4.485
						c1.274-1.203,3.282-1.146,4.485,0.127C211.049,318.509,210.992,320.517,209.719,321.72z"/>
				</g>
				<g>
					<path style="fill:#DDDEE8;" d="M245.226,288.175c-1.274,1.203-3.282,1.146-4.485-0.127c-1.203-1.273-1.146-3.282,0.128-4.485
						c1.274-1.203,3.281-1.146,4.485,0.127C246.556,284.964,246.499,286.971,245.226,288.175z"/>
				</g>
				<g>
					<path style="fill:#DDDEE8;" d="M265.083,309.193c-1.274,1.203-3.282,1.146-4.485-0.127c-1.203-1.274-1.146-3.282,0.127-4.485
						c1.274-1.203,3.282-1.146,4.485,0.127C266.414,305.982,266.356,307.99,265.083,309.193z"/>
				</g>
				<g>
					<path style="fill:#DDDEE8;" d="M281.426,253.471c-1.274,1.203-3.281,1.146-4.485-0.127c-1.203-1.274-1.146-3.281,0.128-4.485
						c1.274-1.203,3.281-1.146,4.485,0.127C282.757,250.26,282.7,252.268,281.426,253.471z"/>
				</g>
				<g>
					<path style="fill:#DDDEE8;" d="M289.979,226.146c-1.274,1.203-3.281,1.146-4.485-0.127s-1.146-3.282,0.127-4.485
						c1.274-1.203,3.281-1.146,4.485,0.127C291.31,222.935,291.253,224.943,289.979,226.146z"/>
				</g>
				<g>
					<path style="fill:#DDDEE8;" d="M269.878,204.869c-1.274,1.203-3.281,1.146-4.485-0.127c-1.203-1.274-1.146-3.282,0.128-4.485
						c1.274-1.203,3.281-1.146,4.485,0.127C271.209,201.658,271.151,203.666,269.878,204.869z"/>
				</g>
				<g>
					<path style="fill:#DDDEE8;" d="M242.057,211.799c-1.274,1.203-3.282,1.146-4.485-0.128c-1.203-1.274-1.146-3.281,0.127-4.485
						c1.274-1.203,3.282-1.146,4.485,0.128C243.388,208.588,243.331,210.596,242.057,211.799z"/>
				</g>
				<g>
					<path style="fill:#DDDEE8;" d="M254.144,260.971c-1.274,1.203-3.282,1.146-4.485-0.127c-1.203-1.274-1.146-3.282,0.127-4.485
						c1.274-1.203,3.282-1.146,4.485,0.127C255.475,257.759,255.417,259.767,254.144,260.971z"/>
				</g>
				<g>
					<path style="fill:#DDDEE8;" d="M234.482,240.158c-1.274,1.203-3.282,1.146-4.485-0.127c-1.203-1.274-1.146-3.281,0.127-4.485
						c1.274-1.203,3.281-1.146,4.485,0.127C235.813,236.947,235.756,238.955,234.482,240.158z"/>
				</g>
				<g>
					<path style="fill:#DDDEE8;" d="M301.535,274.755c-1.274,1.203-3.282,1.146-4.485-0.127c-1.203-1.274-1.146-3.282,0.127-4.485
						c1.274-1.203,3.281-1.146,4.485,0.127C302.865,271.544,302.808,273.552,301.535,274.755z"/>
				</g>
			</g>
			<g>
				<g>
					<path style="fill:#DDDEE8;" d="M279.001,425.703l25.579-14.4l25.26,14.952l-0.319,29.352l-25.579,14.4l-25.261-14.953
						L279.001,425.703z M304.569,412.318l-24.695,13.902l-0.308,28.337l24.387,14.436l24.695-13.902l0.308-28.338L304.569,412.318z"
						/>
				</g>
				<g>
					<polygon style="fill:#DDDEE8;" points="328.959,426.5 329.837,426.509 329.527,455.101 353.914,469.536 378.83,455.509 
						379.262,456.276 353.903,470.551 328.643,455.598 					"/>
				</g>
				<g>
					<path style="fill:#DDDEE8;" d="M354.36,466.171c1.752,0.019,3.157,1.455,3.138,3.207c-0.019,1.752-1.455,3.157-3.207,3.138
						c-1.752-0.019-3.157-1.455-3.138-3.207C351.172,467.557,352.608,466.152,354.36,466.171z"/>
				</g>
				<g>
					<path style="fill:#DDDEE8;" d="M378.146,452.779c1.752,0.019,3.157,1.455,3.138,3.207c-0.019,1.752-1.455,3.157-3.207,3.138
						c-1.752-0.019-3.157-1.455-3.138-3.207C374.958,454.164,376.393,452.759,378.146,452.779z"/>
				</g>
				<g>
					<path style="fill:#DDDEE8;" d="M329.301,452.248c1.752,0.019,3.157,1.455,3.138,3.207c-0.019,1.752-1.455,3.157-3.207,3.138
						c-1.752-0.019-3.157-1.455-3.138-3.207C326.114,453.633,327.549,452.229,329.301,452.248z"/>
				</g>
				<g>
					<path style="fill:#DDDEE8;" d="M329.616,423.334c1.752,0.019,3.157,1.455,3.138,3.207c-0.019,1.752-1.455,3.157-3.207,3.138
						c-1.752-0.019-3.157-1.455-3.138-3.207C326.428,424.72,327.864,423.315,329.616,423.334z"/>
				</g>
				<g>
					<path style="fill:#DDDEE8;" d="M279.154,452.069c1.752,0.019,3.157,1.455,3.138,3.207c-0.019,1.752-1.455,3.157-3.207,3.138
						c-1.752-0.019-3.157-1.455-3.138-3.207C275.966,453.454,277.401,452.049,279.154,452.069z"/>
				</g>
				<g>
					<path style="fill:#DDDEE8;" d="M303.99,465.624c1.752,0.019,3.157,1.455,3.138,3.207c-0.019,1.752-1.455,3.157-3.207,3.138
						c-1.752-0.019-3.157-1.455-3.138-3.207C300.802,467.009,302.238,465.605,303.99,465.624z"/>
				</g>
				<g>
					<path style="fill:#DDDEE8;" d="M279.472,422.789c1.752,0.019,3.157,1.455,3.138,3.207c-0.019,1.752-1.455,3.157-3.207,3.138
						c-1.752-0.019-3.157-1.455-3.138-3.207C276.284,424.175,277.72,422.77,279.472,422.789z"/>
				</g>
			</g>
			<g>
				<g>
					<path style="fill:#DDDEE8;" d="M71.537,177.882l-20.159-21.338l8.399-28.126l28.559-6.789l20.158,21.338l-8.399,28.127
						L71.537,177.882z M52.366,156.31l19.462,20.6l27.571-6.554l8.109-27.155l-19.461-20.6l-27.572,6.554L52.366,156.31z"/>
				</g>
				<g>
					<path style="fill:#DDDEE8;" d="M101.674,172.765c-1.274,1.203-3.282,1.146-4.485-0.127c-1.203-1.274-1.146-3.282,0.127-4.485
						c1.274-1.203,3.282-1.146,4.485,0.128C103.005,169.553,102.948,171.561,101.674,172.765z"/>
				</g>
				<g>
					<path style="fill:#DDDEE8;" d="M110.227,145.44c-1.274,1.203-3.282,1.146-4.485-0.127c-1.203-1.274-1.146-3.282,0.127-4.485
						c1.274-1.203,3.282-1.146,4.485,0.127C111.558,142.229,111.501,144.237,110.227,145.44z"/>
				</g>
				<g>
					<path style="fill:#DDDEE8;" d="M90.126,124.163c-1.274,1.203-3.282,1.146-4.485-0.127c-1.203-1.274-1.146-3.282,0.128-4.485
						c1.274-1.203,3.282-1.146,4.485,0.127C91.456,120.952,91.399,122.96,90.126,124.163z"/>
				</g>
				<g>
					<path style="fill:#DDDEE8;" d="M62.305,131.093c-1.274,1.203-3.282,1.146-4.485-0.127c-1.203-1.274-1.146-3.282,0.127-4.485
						c1.274-1.203,3.282-1.146,4.485,0.127C63.636,127.882,63.579,129.89,62.305,131.093z"/>
				</g>
				<g>
					<path style="fill:#DDDEE8;" d="M74.392,180.264c-1.274,1.203-3.282,1.146-4.485-0.128c-1.203-1.274-1.146-3.282,0.128-4.485
						c1.274-1.203,3.282-1.146,4.485,0.128C75.723,177.053,75.666,179.061,74.392,180.264z"/>
				</g>
				<g>
					<path style="fill:#DDDEE8;" d="M54.73,159.452c-1.274,1.203-3.282,1.146-4.485-0.127c-1.203-1.274-1.146-3.282,0.127-4.485
						c1.274-1.203,3.282-1.146,4.485,0.127C56.061,156.241,56.004,158.249,54.73,159.452z"/>
				</g>
			</g>
			<g>
				<g>
					<path style="fill:#DDDEE8;" d="M474.093,129.201l-24.31,16.453l-26.403-12.826l-2.093-29.28l24.31-16.452L472,99.921
						L474.093,129.201z M449.711,144.641l23.469-15.884l-2.021-28.267l-25.491-12.383l-23.469,15.884l2.021,28.268L449.711,144.641z
						"/>
				</g>
				<g>
					<path style="fill:#DDDEE8;" d="M473.904,98.633c0.982,1.451,0.602,3.423-0.849,4.405c-1.451,0.982-3.423,0.602-4.405-0.849
						c-0.982-1.451-0.602-3.423,0.849-4.405C470.95,96.801,472.922,97.182,473.904,98.633z"/>
				</g>
				<g>
					<path style="fill:#DDDEE8;" d="M448.317,85.784c0.982,1.451,0.602,3.423-0.849,4.406c-1.451,0.982-3.423,0.602-4.405-0.849
						c-0.982-1.451-0.602-3.423,0.849-4.406C445.362,83.953,447.335,84.333,448.317,85.784z"/>
				</g>
				<g>
					<path style="fill:#DDDEE8;" d="M424.076,102.19c0.982,1.451,0.602,3.423-0.849,4.406c-1.451,0.982-3.423,0.602-4.406-0.849
						c-0.982-1.451-0.602-3.424,0.849-4.405C421.121,100.359,423.094,100.739,424.076,102.19z"/>
				</g>
				<g>
					<path style="fill:#DDDEE8;" d="M426.428,130.764c0.982,1.451,0.602,3.423-0.849,4.406c-1.451,0.982-3.423,0.602-4.405-0.849
						c-0.982-1.451-0.602-3.423,0.849-4.405C423.473,128.933,425.446,129.313,426.428,130.764z"/>
				</g>
				<g>
					<path style="fill:#DDDEE8;" d="M476.905,126.768c0.982,1.451,0.602,3.423-0.849,4.406c-1.451,0.982-3.424,0.602-4.406-0.849
						c-0.982-1.451-0.602-3.423,0.849-4.406C473.95,124.936,475.923,125.316,476.905,126.768z"/>
				</g>
				<g>
					<path style="fill:#DDDEE8;" d="M453.194,142.815c0.982,1.451,0.602,3.423-0.849,4.406c-1.451,0.982-3.423,0.602-4.406-0.849
						c-0.982-1.451-0.602-3.423,0.849-4.406C450.239,140.984,452.212,141.364,453.194,142.815z"/>
				</g>
			</g>
		</g>
	</g>
</g>
<g id="OBJECTS">
	<g>
		<g>
			<g>
				<g>
					<g>
						<path style="fill:#AFD491;" d="M200.648,170.532l33.141-46.631c-0.258-0.116-0.515-0.232-0.775-0.342
							c-0.869-0.368-1.752-0.7-2.641-1.012c-0.163-0.047-0.327-0.09-0.49-0.135l-32.297,45.443
							C198.555,168.804,199.577,169.699,200.648,170.532z"/>
						<path style="fill:#57A72C;" d="M233.789,123.901c-0.258-0.116-0.515-0.232-0.775-0.342c-0.869-0.368-1.752-0.7-2.641-1.012
							c-0.163-0.047-0.327-0.09-0.49-0.135l-16.38,23.047l3.299,2.344L233.789,123.901z"/>
					</g>
					<g>
						<path style="fill:#AFD491;" d="M192.831,162.099l29.109-40.957c-1.107-0.063-2.216-0.081-3.323-0.057
							c-0.551,0.012-1.102,0.038-1.653,0.073l-26.351,37.077C191.272,159.567,192.011,160.86,192.831,162.099z"/>
						<path style="fill:#57A72C;" d="M221.94,121.142c-1.107-0.063-2.216-0.081-3.323-0.057c-0.551,0.012-1.102,0.038-1.653,0.073
							l-12.338,17.36l3.299,2.344L221.94,121.142z"/>
					</g>
					<g>
						<path style="fill:#AFD491;" d="M187.641,149.871l25.299-28.211c-0.865,0.175-1.721,0.393-2.566,0.662
							c-1.905,0.606-3.725,1.419-5.519,2.292l-18.323,20.431C186.83,146.67,187.214,148.276,187.641,149.871z"/>
						<path style="fill:#57A72C;" d="M212.94,121.66c-0.865,0.175-1.721,0.393-2.566,0.662c-1.905,0.606-3.726,1.419-5.519,2.292
							l-7.446,8.303l3.013,2.702L212.94,121.66z"/>
					</g>
					<g>
						<path style="fill:#AFD491;" d="M177.609,136.775l10.651-33.337c-0.565-2.049-1.318-4.038-2.358-5.917l-13.014,40.73
							C174.486,137.842,176.064,137.351,177.609,136.775z"/>
						<path style="fill:#57A72C;" d="M188.261,103.439c-0.565-2.049-1.318-4.038-2.358-5.917l-7.771,24.322l3.855,1.232
							L188.261,103.439z"/>
					</g>
					<g>
						<path style="fill:#AFD491;" d="M159.38,139.714c0.958,0.048,1.919,0.054,2.878,0.034l23.612-42.289
							c-0.003-0.006-0.006-0.012-0.01-0.019c-0.734-1.314-1.598-2.54-2.558-3.684l-25.577,45.807
							c0.027,0.012,0.053,0.024,0.079,0.035C158.329,139.649,158.854,139.687,159.38,139.714z"/>
						<path style="fill:#57A72C;" d="M185.87,97.459c-0.003-0.006-0.006-0.012-0.01-0.019c-0.734-1.314-1.598-2.54-2.558-3.684
							l-12.481,22.353l3.533,1.973L185.87,97.459z"/>
					</g>
					<g>
						<path style="fill:#AFD491;" d="M150.181,135.944l29.637-45.633c-0.33-0.271-0.665-0.535-1.008-0.791
							c-0.74-0.554-1.508-1.068-2.294-1.554l-29.817,45.911C147.829,134.615,148.994,135.299,150.181,135.944z"/>
						<path style="fill:#57A72C;" d="M179.818,90.311c-0.33-0.271-0.665-0.535-1.008-0.791c-0.74-0.554-1.508-1.068-2.294-1.554
							l-14.026,21.596l3.394,2.204L179.818,90.311z"/>
					</g>
					<g>
						<path style="fill:#AFD491;" d="M140.124,128.449c0.663,0.691,1.354,1.353,2.069,1.99l29.312-45.133
							c-1.249-0.573-2.521-1.093-3.812-1.56l-28.423,43.764C139.549,127.829,139.832,128.144,140.124,128.449z"/>
						<path style="fill:#57A72C;" d="M171.505,85.306c-1.249-0.573-2.521-1.093-3.812-1.56l-14.726,22.674l3.394,2.204
							L171.505,85.306z"/>
					</g>
					<g>
						<path style="fill:#AFD491;" d="M135.762,122.77l26.422-40.683c-1.413-0.341-2.842-0.62-4.278-0.842l-24.424,37.607
							C134.176,120.194,134.939,121.501,135.762,122.77z"/>
						<path style="fill:#57A72C;" d="M162.184,82.087c-1.413-0.341-2.842-0.62-4.278-0.842l-12.164,18.729l3.394,2.204
							L162.184,82.087z"/>
					</g>
					<g>
						<path style="fill:#AFD491;" d="M130.443,111.974l20.35-31.334c-1.215-0.015-2.43,0.011-3.643,0.088
							c-0.437,0.028-0.873,0.066-1.309,0.106l-16.907,26.032C129.386,108.585,129.853,110.299,130.443,111.974z"/>
						<path style="fill:#57A72C;" d="M147.151,80.728c-0.437,0.028-0.873,0.066-1.309,0.106l-9.287,14.299l3.394,2.204
							l10.844-16.697C149.578,80.625,148.363,80.652,147.151,80.728z"/>
					</g>
					<g>
						<path style="fill:#AFD491;" d="M126.773,71.126l-15.313,23.579c1.911-0.327,3.798-0.76,5.66-1.285l10.754-16.558
							C127.5,74.95,127.176,73.03,126.773,71.126z"/>
						<path style="fill:#57A72C;" d="M127.873,76.861c-0.374-1.91-0.697-3.831-1.101-5.735l-7.967,12.267l3.394,2.204
							L127.873,76.861z"/>
					</g>
					<g>
						<path style="fill:#AFD491;" d="M124.988,64.814c-0.26-0.682-0.56-1.346-0.894-1.991L98.307,95.63
							c0.788,0.005,1.577,0.002,2.366-0.011c0.954-0.015,1.908-0.046,2.861-0.091l22.254-28.313
							C125.548,66.406,125.288,65.603,124.988,64.814z"/>
						<path style="fill:#57A72C;" d="M125.789,67.215c-0.241-0.809-0.501-1.612-0.801-2.401c-0.26-0.682-0.56-1.346-0.894-1.991
							l-11.741,14.938l3.182,2.501L125.789,67.215z"/>
					</g>
					<g>
						<path style="fill:#AFD491;" d="M118.269,55.379c-0.27-0.261-0.549-0.516-0.83-0.769L86.042,94.556
							c1.511,0.344,3.055,0.551,4.598,0.699l29.68-37.761C119.662,56.765,118.975,56.063,118.269,55.379z"/>
						<path style="fill:#57A72C;" d="M120.32,57.495c-0.657-0.729-1.344-1.432-2.051-2.115c-0.27-0.261-0.549-0.516-0.83-0.769
							l-14.677,18.674l3.182,2.501L120.32,57.495z"/>
					</g>
				</g>
				<path style="fill:#57A72C;" d="M217.505,176.951c-0.871-0.188-26.797-6.965-28.438-65.665c0,0,0.537-17.496-11.361-25.292
					l-4.653,1.106c0,0,10.915,17.089,8.93,37.518C179.998,145.048,190.903,171.117,217.505,176.951z"/>
				<path style="fill:#57A72C;" d="M127.375,72.89c0,0,0.026-0.841-0.059-2.236c-0.283-0.186-0.404-0.532-0.373-0.886
					c0.066-0.75-0.181-1.73-0.416-2.525c-0.309-1.043-0.721-2.06-1.157-3.055c-1.664-3.795-3.804-7.345-6.452-10.534
					c-1.533-1.847-3.205-3.576-4.896-5.278c-0.082-0.082-0.164-0.163-0.246-0.245l-2.414,0.574c0,0,10.915,17.089,8.93,37.518
					c-1.984,20.421,8.912,46.477,35.492,52.325C154.817,138.319,129.018,131.669,127.375,72.89z"/>
				<path style="fill:#AFD491;" d="M217.505,176.951c-4.365-1.797-8.779-3.29-12.914-5.616c-4.019-2.26-7.791-5.11-10.719-8.701
					c-5.642-6.919-7.983-15.814-8.373-24.592c-0.085-1.911-2.994-1.723-2.961,0.182c0.164,9.374,2.656,19.078,8.695,26.433
					c6.183,7.533,15.846,12.842,25.252,15.158C218.133,180.223,219.127,177.619,217.505,176.951z"/>
				<path style="fill:#AFD491;" d="M108.304,45.832c3.322,3.353,6.808,6.445,9.713,10.196c2.824,3.646,5.19,7.738,6.491,12.185
					c2.507,8.568,1.204,17.674-1.851,25.912c-0.665,1.794,2.088,2.752,2.799,0.984c3.495-8.7,4.973-18.609,2.271-27.734
					c-2.767-9.344-9.604-17.993-17.368-23.786C108.998,42.574,107.07,44.587,108.304,45.832z"/>
				<path style="fill:#AFD491;" d="M166.538,84.658c3.285,0.93,6.471,2.272,9.362,4.098c2.838,1.793,5.379,4.055,7.349,6.783
					c1.008,1.396,1.818,2.901,2.531,4.466c0.805,1.767,1.504,3.586,2.068,5.444c0.577,1.903,1.019,3.857,1.219,5.837
					c0.032,0.315,0.054,0.631,0.071,0.947c0.11-0.206,0.174-0.452,0.172-0.737c-0.059-8.031-0.887-15.772-6.949-21.664
					c-5.961-5.793-14.311-9.063-22.582-9.168c-1.313-0.017-1.73,1.771-0.993,2.563C161.407,83.455,164.013,83.943,166.538,84.658z"
					/>
				<path style="fill:#97C974;" d="M170.525,142.979c14.27-1.398,26.987-8.438,40.543-12.488c7.594-2.268,16.945-4.399,24.534-1.1
					c0.04,0.017,0.08,0.029,0.119,0.043c0.025-0.052,0.051-0.104,0.077-0.156c0.689-1.41,1.405-2.806,2.133-4.197
					c-5.423-4.073-12.513-6.107-19.214-6.484c-7.639-0.429-14.49,1.948-21.498,4.684c-7.022,2.742-14.007,5.703-21.22,7.915
					c-3.996,1.225-8.137,2.198-12.317,2.583c-0.602,0.099-1.207,0.183-1.815,0.239c-1.876,0.172-3.776,0.109-5.648-0.079
					c-3.933-0.395-7.771-1.437-11.444-2.884c-1.442-0.568-2.865-1.19-4.298-1.782c-1.288-0.532-2.571-1.084-3.798-1.746
					c-0.536-0.289-1.065-0.6-1.575-0.939c-0.15,0.349-0.125,0.766,0.193,1.188C143.61,138.818,156.835,144.32,170.525,142.979z"/>
				<path style="fill:#97C974;" d="M146.751,76.45c-14.184,2.093-26.542,9.747-39.885,14.454c-7.474,2.637-16.71,5.222-24.451,2.298
					c-0.041-0.016-0.081-0.025-0.122-0.037c-0.023,0.053-0.046,0.106-0.069,0.159c-0.619,1.441-1.266,2.872-1.926,4.296
					c5.615,3.804,12.797,5.489,19.508,5.537c7.651,0.055,14.377-2.653,21.244-5.729c6.88-3.082,13.711-6.381,20.808-8.942
					c3.931-1.419,8.02-2.593,12.176-3.182c0.597-0.128,1.197-0.242,1.801-0.327c1.865-0.264,3.766-0.294,5.645-0.198
					c3.948,0.202,7.832,1.056,11.571,2.322c1.468,0.497,2.92,1.049,4.38,1.57c1.312,0.468,2.62,0.957,3.879,1.558
					c0.549,0.262,1.093,0.548,1.619,0.861c0.132-0.356,0.087-0.771-0.251-1.177C173.838,79.291,160.36,74.442,146.751,76.45z"/>
			</g>
			<g>
				<g>
					<g>
						<path style="fill:#AFD491;" d="M408.827,89.202l-48.733-46.569c-0.179,0.281-0.359,0.561-0.531,0.846
							c-0.576,0.951-1.113,1.923-1.629,2.907c-0.083,0.182-0.161,0.366-0.24,0.549l47.492,45.383
							C406.456,91.348,407.673,90.309,408.827,89.202z"/>
						<path style="fill:#57A72C;" d="M360.093,42.633c-0.179,0.281-0.359,0.561-0.531,0.846c-0.576,0.951-1.113,1.923-1.629,2.907
							c-0.083,0.182-0.161,0.366-0.24,0.549l24.086,23.017l3.294-3.447L360.093,42.633z"/>
					</g>
					<g>
						<path style="fill:#AFD491;" d="M397.666,96.882l-42.804-40.903c-0.261,1.28-0.472,2.57-0.632,3.865
							c-0.079,0.645-0.143,1.292-0.196,1.939l38.749,37.028C394.448,98.27,396.081,97.627,397.666,96.882z"/>
						<path style="fill:#57A72C;" d="M354.862,55.979c-0.261,1.28-0.472,2.57-0.632,3.865c-0.079,0.645-0.143,1.292-0.196,1.939
							l18.143,17.337l3.294-3.447L354.862,55.979z"/>
					</g>
					<g>
						<path style="fill:#AFD491;" d="M382.526,100.854l-28.59-34.294c0.057,1.039,0.166,2.073,0.336,3.104
							c0.383,2.324,1.021,4.585,1.734,6.824l20.706,24.837C378.655,101.255,380.594,101.08,382.526,100.854z"/>
						<path style="fill:#57A72C;" d="M353.936,66.56c0.057,1.039,0.166,2.073,0.336,3.104c0.383,2.324,1.021,4.585,1.734,6.825
							l8.415,10.093l3.662-3.053L353.936,66.56z"/>
					</g>
					<g>
						<path style="fill:#AFD491;" d="M365.551,110.323l-37.057-18.087c-2.485,0.31-4.932,0.85-7.299,1.743l45.276,22.099
							C366.265,114.146,365.96,112.223,365.551,110.323z"/>
						<path style="fill:#57A72C;" d="M328.494,92.236c-2.485,0.31-4.932,0.85-7.299,1.743l27.036,13.196l2.091-4.285L328.494,92.236
							z"/>
					</g>
					<g>
						<path style="fill:#AFD491;" d="M365.878,132.077c0.219-1.109,0.39-2.228,0.529-3.35l-45.291-34.721
							c-0.008,0.003-0.016,0.005-0.023,0.008c-1.657,0.632-3.233,1.431-4.73,2.356l49.059,37.609
							c0.018-0.029,0.036-0.058,0.055-0.087C365.623,133.291,365.757,132.686,365.878,132.077z"/>
						<path style="fill:#57A72C;" d="M321.116,94.007c-0.008,0.003-0.016,0.005-0.023,0.008c-1.657,0.632-3.233,1.431-4.73,2.356
							l23.94,18.353l2.901-3.784L321.116,94.007z"/>
					</g>
					<g>
						<path style="fill:#AFD491;" d="M359.918,142.161l-48.166-42.314c-0.372,0.339-0.737,0.685-1.094,1.04
							c-0.771,0.769-1.502,1.577-2.202,2.411l48.459,42.571C357.969,144.678,358.965,143.436,359.918,142.161z"/>
						<path style="fill:#57A72C;" d="M311.752,99.848c-0.372,0.339-0.737,0.685-1.094,1.04c-0.771,0.769-1.502,1.577-2.202,2.411
							l22.795,20.025l3.147-3.582L311.752,99.848z"/>
					</g>
					<g>
						<path style="fill:#AFD491;" d="M349.47,152.613c0.918-0.655,1.808-1.349,2.672-2.074l-47.638-41.85
							c-0.88,1.358-1.703,2.753-2.467,4.179l46.193,40.58C348.65,153.178,349.065,152.902,349.47,152.613z"/>
						<path style="fill:#57A72C;" d="M304.504,108.689c-0.88,1.358-1.703,2.753-2.467,4.179l23.932,21.024l3.147-3.582
							L304.504,108.689z"/>
					</g>
					<g>
						<path style="fill:#AFD491;" d="M342.106,156.733l-42.941-37.724c-0.638,1.59-1.206,3.208-1.71,4.845l39.694,34.872
							C338.834,158.144,340.488,157.477,342.106,156.733z"/>
						<path style="fill:#57A72C;" d="M299.165,119.009c-0.638,1.59-1.206,3.208-1.71,4.845l19.768,17.367l3.147-3.582
							L299.165,119.009z"/>
					</g>
					<g>
						<path style="fill:#AFD491;" d="M328.615,161.099l-33.073-29.054c-0.225,1.414-0.4,2.836-0.517,4.262
							c-0.042,0.514-0.071,1.029-0.099,1.544l27.476,24.138C324.484,161.755,326.561,161.502,328.615,161.099z"/>
						<path style="fill:#57A72C;" d="M295.025,136.306c-0.042,0.514-0.071,1.029-0.099,1.544l15.092,13.259l3.147-3.582
							l-17.624-15.482C295.318,133.458,295.142,134.88,295.025,136.306z"/>
					</g>
					<g>
						<path style="fill:#AFD491;" d="M280.364,158.433l24.887,21.864c-0.056-2.284-0.24-4.557-0.536-6.818l-17.477-15.354
							C284.947,158.236,282.654,158.286,280.364,158.433z"/>
						<path style="fill:#57A72C;" d="M287.238,158.125c-2.291,0.111-4.585,0.162-6.874,0.308l12.947,11.374l3.147-3.582
							L287.238,158.125z"/>
					</g>
					<g>
						<path style="fill:#AFD491;" d="M272.702,159.441c-0.839,0.187-1.664,0.424-2.473,0.704l33.866,35.644
							c0.14-0.918,0.27-1.839,0.389-2.761c0.144-1.115,0.271-2.232,0.38-3.351l-29.227-30.761
							C274.654,159.058,273.673,159.225,272.702,159.441z"/>
						<path style="fill:#57A72C;" d="M275.638,158.915c-0.984,0.143-1.964,0.31-2.936,0.526c-0.839,0.187-1.664,0.424-2.473,0.704
							l15.42,16.229l3.457-3.284L275.638,158.915z"/>
					</g>
					<g>
						<path style="fill:#AFD491;" d="M260.559,165.67c-0.351,0.271-0.695,0.552-1.037,0.837l41.236,43.399
							c0.658-1.704,1.162-3.469,1.597-5.242l-38.98-41.025C262.412,164.281,261.476,164.963,260.559,165.67z"/>
						<path style="fill:#57A72C;" d="M263.375,163.639c-0.962,0.642-1.898,1.324-2.815,2.031c-0.351,0.271-0.695,0.552-1.037,0.837
							l19.276,20.288l3.457-3.284L263.375,163.639z"/>
					</g>
				</g>
				<path style="fill:#57A72C;" d="M419.178,70.639c-0.367,0.984-12.676,30.059-81.396,21.992c0,0-20.308-3.601-31.42,8.946
					l0.498,5.613c0,0,21.781-9.82,45.262-4.032C375.603,108.945,407.852,100.663,419.178,70.639z"/>
				<path style="fill:#57A72C;" d="M282.523,158.031c0,0-0.976-0.173-2.616-0.311c-0.264,0.299-0.689,0.381-1.097,0.285
					c-0.863-0.204-2.048-0.084-3.015,0.056c-1.269,0.183-2.524,0.49-3.759,0.829c-4.707,1.295-9.211,3.187-13.379,5.732
					c-2.414,1.474-4.715,3.129-6.986,4.811c-0.109,0.081-0.218,0.164-0.327,0.245l0.258,2.912c0,0,21.781-9.82,45.262-4.032
					c23.473,5.786,55.705-2.488,67.043-32.484C363.475,137.161,351.335,166.109,282.523,158.031z"/>
				<path style="fill:#AFD491;" d="M419.178,70.639c-2.838,4.784-5.329,9.676-8.743,14.102c-3.319,4.302-7.283,8.215-11.967,11.018
					c-9.026,5.402-19.795,6.619-30.096,5.581c-2.243-0.226-2.518,3.198-0.291,3.483c10.958,1.403,22.695,0.147,32.298-5.643
					c9.834-5.929,17.667-16.291,21.967-26.865C423.098,70.463,420.232,68.862,419.178,70.639z"/>
				<path style="fill:#AFD491;" d="M247.734,175.666c4.475-3.303,8.673-6.842,13.54-9.591c4.731-2.672,9.905-4.735,15.31-5.496
					c10.416-1.466,20.811,1.601,29.897,6.564c1.978,1.08,3.563-1.967,1.623-3.096c-9.549-5.554-20.851-8.962-31.949-7.363
					c-11.366,1.637-22.612,8.137-30.686,16.206C244.053,174.303,246.072,176.893,247.734,175.666z"/>
				<path style="fill:#AFD491;" d="M302.904,114.37c1.643-3.672,3.749-7.159,6.37-10.219c2.573-3.004,5.643-5.582,9.158-7.415
					c1.799-0.938,3.692-1.626,5.637-2.192c2.198-0.639,4.436-1.144,6.699-1.485c2.317-0.35,4.67-0.532,7.013-0.429
					c0.373,0.016,0.745,0.044,1.116,0.078c-0.222-0.163-0.497-0.28-0.83-0.326c-9.374-1.297-18.54-1.647-26.44,4.418
					c-7.768,5.965-13,15.145-14.529,24.771c-0.243,1.528,1.771,2.318,2.819,1.594C300.629,120.148,301.64,117.192,302.904,114.37z"
					/>
				<path style="fill:#97C974;" d="M371.579,119.638c0.797-16.875-5.25-32.899-7.667-49.394c-1.354-9.24-2.248-20.505,2.889-28.792
					c0.027-0.044,0.048-0.088,0.071-0.132c-0.056-0.039-0.113-0.077-0.169-0.116c-1.526-1.043-3.033-2.116-4.531-3.201
					c-5.671,5.63-9.249,13.551-10.827,21.3c-1.799,8.833-0.193,17.225,1.806,25.862c2.003,8.653,4.268,17.3,5.62,26.087
					c0.749,4.867,1.179,9.861,0.918,14.8c0.013,0.719,0.008,1.438-0.03,2.157c-0.118,2.216-0.514,4.421-1.052,6.572
					c-1.129,4.519-2.997,8.817-5.308,12.852c-0.908,1.585-1.875,3.138-2.809,4.708c-0.839,1.411-1.701,2.813-2.682,4.131
					c-0.428,0.576-0.881,1.139-1.363,1.677c0.382,0.234,0.872,0.275,1.418-0.023C362.152,150.312,370.815,135.828,371.579,119.638z"
					/>
				<path style="fill:#97C974;" d="M289.969,136.044c0.029,16.894,6.851,32.604,10.071,48.961
					c1.804,9.162,3.247,20.371-1.479,28.899c-0.025,0.045-0.043,0.09-0.064,0.135c0.058,0.036,0.116,0.072,0.174,0.108
					c1.575,0.967,3.133,1.965,4.682,2.975c5.389-5.9,8.575-13.987,9.773-21.803c1.365-8.911-0.649-17.214-3.067-25.743
					c-2.423-8.545-5.108-17.071-6.888-25.781c-0.986-4.825-1.66-9.792-1.64-14.738c-0.048-0.718-0.079-1.436-0.076-2.156
					c0.009-2.22,0.298-4.441,0.73-6.616c0.907-4.569,2.563-8.952,4.674-13.096c0.829-1.628,1.719-3.226,2.575-4.84
					c0.769-1.45,1.561-2.893,2.476-4.257c0.399-0.596,0.824-1.181,1.28-1.741c-0.393-0.215-0.884-0.232-1.415,0.092
					C297.887,104.947,289.941,119.836,289.969,136.044z"/>
			</g>
		</g>
		<g>
			<rect x="106.487" y="352.546" style="fill:#193859;" width="33.716" height="92.802"/>
			<path style="fill:#47536B;" d="M87.388,437.418c0,0,12.706,9.559,5.401,24.579h155.472v-19.344H142.166
				c0,0-47.282,10.535-32.867-85.887c0,0-42.092,1.64-35.173-24.471c6.919-26.111,14.992-56.447,51.318-56.447h81.071V189.76
				H105.839c0,0-64.663,39.971-64.663,137.3S87.388,437.418,87.388,437.418z"/>
			<g>
				<g>
					<path style="fill:#CBCCD6;" d="M106.905,422.594c0,0,10.25,7.736,4.1,19.864h21.965c-12.947-2.632-33.893-17.073-23.694-85.534
						c-0.175-0.047-0.35-0.095-0.525-0.144c-4.89,0.082-41.08-0.126-34.626-24.484c6.919-26.111,14.992-56.447,51.318-56.447h81.602
						v-49.817h-85.563c0,0-51.09,31.725-51.09,108.973S106.905,422.594,106.905,422.594z"/>
					<path style="fill:#CBCCD6;" d="M207.068,442.653c-0.277,0.898-1.341,4.626,0.062,4.626c1.594,0,26.879,0,26.879,0v-4.626
						H207.068z"/>
				</g>
			</g>
			<path style="fill:#193859;" d="M90.483,336.155c2.118,9.382,10.498,16.391,20.52,16.391h114.711
				c10.022,0,18.402-7.009,20.52-16.391H90.483z"/>
			<rect x="168.358" y="189.76" style="fill:#193859;" width="2.918" height="86.088"/>
			
				<rect x="181.696" y="403.747" transform="matrix(0.7071 -0.7071 0.7071 0.7071 -248.4449 256.6523)" style="fill:#193859;" width="7.768" height="48.95"/>
			<rect x="133.886" y="362.699" style="fill:#47536B;" width="9.321" height="67.136"/>
			<rect x="133.886" y="362.699" style="fill:#193859;" width="2.978" height="67.136"/>
			<circle style="fill:#193859;" cx="147.104" cy="389.745" r="12.17"/>
			<circle style="fill:#CBCCD6;" cx="147.104" cy="389.745" r="3.896"/>
			<rect x="155.779" y="352.546" style="fill:#193859;" width="67.785" height="4.875"/>
			<rect x="155.779" y="318.354" style="fill:#47536B;" width="15.498" height="39.067"/>
			<path style="fill:none;stroke:#0F1D56;stroke-miterlimit:10;" d="M161.1,324.686c0-1.035,0.839-1.874,1.874-1.874
				c1.035,0,1.874,0.839,1.874,1.874c0,1.035-0.839,1.874-1.874,1.874C161.939,326.56,161.1,325.721,161.1,324.686z"/>
			<path style="fill:none;stroke:#0F1D56;stroke-miterlimit:10;" d="M161.649,332.683c-0.732-0.732-0.732-1.919,0-2.651
				c0.732-0.732,1.919-0.732,2.65,0c0.732,0.732,0.732,1.919,0,2.651C163.568,333.415,162.381,333.415,161.649,332.683z"/>
			<path style="fill:none;stroke:#0F1D56;stroke-miterlimit:10;" d="M161.1,341.015c0-1.035,0.839-1.874,1.874-1.874
				c1.035,0,1.874,0.839,1.874,1.874c0,1.035-0.839,1.874-1.874,1.874C161.939,342.889,161.1,342.05,161.1,341.015z"/>
			<path style="fill:none;stroke:#0F1D56;stroke-miterlimit:10;" d="M161.649,349.011c-0.732-0.732-0.732-1.919,0-2.65
				c0.732-0.732,1.919-0.732,2.65,0c0.732,0.732,0.732,1.919,0,2.65C163.568,349.743,162.381,349.743,161.649,349.011z"/>
			<ellipse style="fill:none;stroke:#0F1D56;stroke-miterlimit:10;" cx="234.916" cy="342.521" rx="2.891" ry="3.881"/>
			<rect x="170.57" y="332.824" style="fill:#3F4A5C;" width="67.237" height="3.33"/>
			<rect x="170.57" y="329.311" style="fill:#CBCCD6;" width="61.455" height="3.33"/>
			<path style="fill:#193859;" d="M92.789,461.997c7.305-15.021-5.401-24.579-5.401-24.579s-16.534-4.67-29.822-29.249
				c0,0-13.016,7.416-13.016,42.229H23.318v11.6H92.789z"/>
			<g>
				<rect x="178.37" y="275.848" style="fill:#193859;" width="18.734" height="42.111"/>
				<rect x="175.287" y="287.971" style="fill:#47536B;" width="24.899" height="12.537"/>
				<rect x="168.358" y="275.848" style="fill:#193859;" width="10.012" height="16.23"/>
				<rect x="168.358" y="278.743" style="fill:#CBCCD6;" width="28.746" height="1.219"/>
				<rect x="168.358" y="282.744" style="fill:#CBCCD6;" width="28.746" height="1.219"/>
				<rect x="179.505" y="317.601" style="fill:#193859;" width="15.497" height="2.7"/>
				<rect x="171.276" y="318.354" style="fill:#193859;" width="2.088" height="10.957"/>
			</g>
			<rect x="160" y="357.421" style="fill:#193859;" width="6.254" height="26.429"/>
			<rect x="152.559" y="375.784" style="fill:#193859;" width="21.135" height="10.065"/>
			<g>
				<g>
					<g>
						<rect x="170.845" y="375.784" style="fill:#47536B;" width="1.408" height="10.065"/>
					</g>
					<g>
						<rect x="168.038" y="375.784" style="fill:#47536B;" width="1.408" height="10.065"/>
					</g>
					<g>
						<rect x="165.23" y="375.784" style="fill:#47536B;" width="1.408" height="10.065"/>
					</g>
					<g>
						<rect x="162.423" y="375.784" style="fill:#47536B;" width="1.408" height="10.065"/>
					</g>
					<g>
						<rect x="159.616" y="375.784" style="fill:#47536B;" width="1.408" height="10.065"/>
					</g>
					<g>
						<rect x="156.809" y="375.784" style="fill:#47536B;" width="1.408" height="10.065"/>
					</g>
					<g>
						<rect x="154.001" y="375.784" style="fill:#47536B;" width="1.408" height="10.065"/>
					</g>
				</g>
			</g>
			<rect x="200.652" y="357.055" style="fill:#CBCCD6;" width="6.254" height="33.955"/>
			<rect x="193.211" y="382.944" style="fill:#193859;" width="21.135" height="10.065"/>
			<g>
				<rect x="211.497" y="382.944" style="fill:#47536B;" width="1.408" height="10.065"/>
				<rect x="208.689" y="382.944" style="fill:#47536B;" width="1.408" height="10.065"/>
				<rect x="205.882" y="382.944" style="fill:#47536B;" width="1.408" height="10.065"/>
				<rect x="203.075" y="382.944" style="fill:#47536B;" width="1.408" height="10.065"/>
				<rect x="200.268" y="382.944" style="fill:#47536B;" width="1.408" height="10.065"/>
				<rect x="197.46" y="382.944" style="fill:#47536B;" width="1.408" height="10.065"/>
				<rect x="194.653" y="382.944" style="fill:#47536B;" width="1.408" height="10.065"/>
			</g>
			<path style="fill:none;stroke:#0F1D56;stroke-miterlimit:10;" d="M98.975,341.746c0-1.439,1.166-2.605,2.605-2.605
				c1.439,0,2.605,1.166,2.605,2.605c0,1.439-1.166,2.605-2.605,2.605C100.141,344.35,98.975,343.184,98.975,341.746z"/>
			<rect x="127.007" y="370.96" style="fill:#CBCCD6;" width="9.857" height="9.857"/>
			<rect x="127.007" y="409.562" style="fill:#CBCCD6;" width="9.857" height="9.857"/>
			<g>
				
					<ellipse transform="matrix(0.7071 -0.7071 0.7071 0.7071 -254.4016 173.1027)" style="fill:#193859;" cx="81.753" cy="393.641" rx="18.857" ry="18.857"/>
				<circle style="fill:#193859;" cx="81.753" cy="393.641" r="17.222"/>
				<circle style="fill:#CBCCD6;" cx="81.753" cy="393.641" r="10.9"/>
				<path style="opacity:0.24;fill:#FFFFFF;" d="M82.651,393.659c-0.33,0.02-0.644,0.092-0.947,0.191
					c-0.663,0.111-1.291,0.416-1.8,0.923c-0.51,0.509-0.839,1.137-1.019,1.809c-0.596,1.37-0.66,2.973,0.078,4.248
					c0.403,0.695,1.055,1.225,1.775,1.565c0.311,0.147,0.643,0.274,0.982,0.373c0.035,0.017,0.067,0.039,0.103,0.055
					c1.511,0.662,3.123-0.002,3.961-1.377C87.354,398.868,86.466,393.433,82.651,393.659z"/>
				<path style="opacity:0.24;fill:#FFFFFF;" d="M90.379,391.298c-0.269-0.571-0.602-1.108-0.977-1.615
					c-0.311-0.84-0.744-1.638-1.345-2.367c-0.853-1.034-2.035-1.858-3.354-2.157c-1.312-0.298-2.968-0.066-3.558,1.319
					c-0.595,1.396,0.237,2.857,1.266,3.781c0.567,0.509,1.197,0.94,1.74,1.476c0.546,0.538,1.007,1.147,1.38,1.817
					c0.708,1.27,0.845,2.99,2.065,3.918c1.19,0.905,2.791,0.611,3.327-0.846C91.548,394.925,91.125,392.883,90.379,391.298z"/>
			</g>
			<g>
				<circle style="fill:#193859;" cx="154.77" cy="320.301" r="9.099"/>
				<circle style="fill:#193859;" cx="154.77" cy="320.301" r="8.311"/>
				<path style="fill:#CBCCD6;" d="M149.51,320.301c0-2.905,2.355-5.26,5.26-5.26c2.905,0,5.26,2.355,5.26,5.26
					c0,2.905-2.355,5.26-5.26,5.26C151.865,325.561,149.51,323.206,149.51,320.301z"/>
				<path style="opacity:0.24;fill:#FFFFFF;" d="M155.203,320.31c-0.159,0.009-0.311,0.044-0.457,0.092
					c-0.32,0.053-0.623,0.201-0.868,0.446c-0.246,0.245-0.405,0.549-0.492,0.873c-0.288,0.661-0.319,1.435,0.038,2.05
					c0.194,0.335,0.509,0.591,0.857,0.755c0.15,0.071,0.31,0.132,0.474,0.18c0.017,0.008,0.033,0.019,0.05,0.026
					c0.729,0.32,1.507-0.001,1.911-0.664C157.473,322.824,157.044,320.201,155.203,320.31z"/>
				<path style="opacity:0.24;fill:#FFFFFF;" d="M158.933,319.171c-0.13-0.276-0.29-0.535-0.471-0.779
					c-0.15-0.405-0.359-0.79-0.649-1.142c-0.412-0.499-0.982-0.897-1.618-1.041c-0.633-0.144-1.432-0.032-1.717,0.636
					c-0.287,0.674,0.114,1.379,0.611,1.825c0.273,0.245,0.578,0.454,0.84,0.712c0.263,0.26,0.486,0.554,0.666,0.877
					c0.342,0.612,0.408,1.443,0.997,1.891c0.574,0.437,1.347,0.295,1.605-0.408C159.497,320.921,159.292,319.936,158.933,319.171z"
					/>
			</g>
			<g>
				
					<ellipse transform="matrix(0.7071 -0.7071 0.7071 0.7071 -114.2471 156.6214)" style="fill:#193859;" cx="131.935" cy="216.219" rx="18.857" ry="18.857"/>
				
					<ellipse transform="matrix(0.2898 -0.9571 0.9571 0.2898 -113.2391 279.8366)" style="fill:#193859;" cx="131.935" cy="216.219" rx="17.222" ry="17.222"/>
				
					<ellipse transform="matrix(0.9239 -0.3827 0.3827 0.9239 -72.7006 66.9483)" style="fill:#CBCCD6;" cx="131.935" cy="216.219" rx="10.9" ry="10.9"/>
				<path style="opacity:0.24;fill:#FFFFFF;" d="M132.834,216.237c-0.33,0.02-0.644,0.092-0.947,0.191
					c-0.663,0.111-1.291,0.416-1.8,0.923c-0.51,0.509-0.839,1.137-1.019,1.809c-0.596,1.37-0.66,2.973,0.078,4.248
					c0.403,0.695,1.055,1.225,1.775,1.566c0.311,0.147,0.643,0.274,0.981,0.373c0.035,0.017,0.068,0.039,0.103,0.055
					c1.511,0.662,3.123-0.002,3.96-1.376C137.537,221.446,136.649,216.011,132.834,216.237z"/>
				<path style="opacity:0.24;fill:#FFFFFF;" d="M140.562,213.876c-0.269-0.572-0.602-1.108-0.977-1.615
					c-0.311-0.84-0.744-1.638-1.345-2.367c-0.853-1.034-2.035-1.858-3.354-2.157c-1.312-0.298-2.968-0.066-3.558,1.319
					c-0.595,1.396,0.236,2.857,1.266,3.781c0.567,0.509,1.197,0.941,1.74,1.476c0.546,0.538,1.007,1.148,1.38,1.817
					c0.708,1.269,0.845,2.99,2.065,3.918c1.19,0.905,2.791,0.611,3.327-0.846C141.731,217.503,141.308,215.461,140.562,213.876z"/>
			</g>
			<g style="opacity:0.25;">
				<g>
					<g>
						<polygon style="fill:#47536B;" points="149.805,226.031 126.624,275.848 145.941,275.848 166.613,226.031 						"/>
					</g>
					<g>
						<polygon style="fill:#47536B;" points="190.389,226.031 173.581,226.031 150.401,275.848 169.718,275.848 						"/>
					</g>
				</g>
			</g>
			<rect x="140.203" y="434.89" style="fill:#193859;" width="49.468" height="7.314"/>
			<path style="fill:#193859;" d="M120.499,428.222h74.164c1.934,0,3.501,1.568,3.501,3.501l0,0c0,1.934-1.568,3.501-3.501,3.501
				h-74.164c-1.934,0-3.501-1.568-3.501-3.501l0,0C116.998,429.789,118.565,428.222,120.499,428.222z"/>
		</g>
		<g>
			<g>
				<path style="fill:#AFD491;" d="M475.506,416.974c0,0-29.835-25.354-52.721-44.482c-19.665-16.436-46.644-21.577-70.715-12.776
					c-3.367,1.231-6.498,2.66-9.203,4.318l-42.072-26.721c-1.183-0.751-2.663-0.991-3.97-0.487c-1.55,0.597-3.207,2.254-3.636,6.495
					c0,0-21.827-13.586-26.039-2.598c0,0-8.812-2.832-11.704,3.609c-0.425,0.947-0.113,2.066,0.696,2.716l39.759,31.95
					c0,0-32.598-7.875-41.938-6.043c-1.923,0.377-4.945,8.607,10.072,12.636c15.017,4.029,56.68,23.349,57.138,23.807
					c0.458,0.458,70.506,0.366,74.077,1.557c3.571,1.19,46.15,45.783,46.15,45.783S484.246,441.398,475.506,416.974z"/>
				<path style="fill:none;stroke:#193859;stroke-linecap:round;stroke-linejoin:round;stroke-miterlimit:10;" d="M342.867,364.034
					c0,0-39.491,7.104-42.762,12.081c-3.271,4.977,0.426,10.523,15.215,8.105c14.789-2.417,43.726,0.498,50.338,5.404"/>
				
					<line style="fill:none;stroke:#193859;stroke-linecap:round;stroke-linejoin:round;stroke-miterlimit:10;" x1="293.19" y1="343.32" x2="328.686" y2="366.869"/>
				
					<line style="fill:none;stroke:#193859;stroke-linecap:round;stroke-linejoin:round;stroke-miterlimit:10;" x1="267.151" y1="340.722" x2="312.279" y2="370.878"/>
			</g>
			<g>
				<g>
					<path style="fill:#DDDEE8;" d="M381.894,267.012h17.614v71.801c0,4.864-3.943,8.807-8.807,8.807l0,0
						c-4.864,0-8.807-3.943-8.807-8.807V267.012z"/>
					<g>
						<path style="fill:none;stroke:#57A72C;stroke-linecap:round;stroke-linejoin:round;stroke-miterlimit:10;" d="M390.41,267.58
							c0.03-0.686,44.01-44.41,44.01-44.41"/>
						<g>
							<g>
								<g>
									<path style="fill:#97C974;" d="M395.775,231.048c-0.2-1.787-0.175-3.597,0.135-5.37c0.65-3.712,2.515-7.034,5.349-9.521
										c6.553-5.748,15.69-6.102,23.948-5.576c0.657,0.042,1.314,0.093,1.97,0.142c0.14-7.271,2.916-14.717,8.824-19.234
										c2.717-2.078,5.989-3.488,9.418-3.749c3.351-0.255,6.682,0.523,9.662,2.052c2.443,1.254,4.583,2.913,6.419,4.859
										c-2.733,3.215-6.316,7.616-6.316,7.616l10.041-2.6c1.128,1.941,2.04,4.018,2.727,6.169
										c1.208,3.783,1.794,7.699,2.059,11.652c-4.132,0.193-9.452,0.512-9.452,0.512l9.623,3.621
										c0.052,2.649,0.008,5.299-0.046,7.922c-0.083,4.014-0.224,8.026-0.409,12.037c-4.076,0.194-9.105,0.495-9.105,0.495
										l8.91,3.353c-0.198,3.672-0.428,7.342-0.71,11.008c-0.087,1.132-0.179,2.264-0.274,3.395
										c-0.024,0.288-0.272,0.627-0.584,0.652c-7.484,0.61-15.024,0.704-22.51,0.083l2.237-6.301c0,0-2.981,3.131-5.628,5.968
										c-0.692-0.078-1.384-0.15-2.075-0.242c-5.56-0.739-11.145-1.883-16.538-3.578l3.484-9.814c0,0-4.989,5.24-7.789,8.306
										c-1.756-0.667-3.491-1.384-5.183-2.187c-6.713-3.188-13.144-7.936-16.287-14.837l9.539-6.758
										C407.215,231.122,399.98,230.994,395.775,231.048z"/>
								</g>
							</g>
							
								<line style="fill:none;stroke:#57A72C;stroke-linecap:round;stroke-linejoin:round;stroke-miterlimit:10;" x1="427.177" y1="210.723" x2="468.548" y2="259.83"/>
						</g>
						
							<line style="fill:none;stroke:#57A72C;stroke-linecap:round;stroke-linejoin:round;stroke-miterlimit:10;" x1="387.847" y1="325.583" x2="393.84" y2="189.785"/>
						<g>
							<g>
								<path style="fill:#AFD491;" d="M363.566,161.664c0.793-1.614,1.788-3.125,3.005-4.453c2.546-2.778,5.906-4.574,9.633-5.144
									c8.617-1.317,16.507,3.303,23.183,8.192c0.531,0.389,1.057,0.786,1.584,1.18c4.032-6.053,10.379-10.833,17.79-11.46
									c3.408-0.288,6.924,0.284,9.955,1.91c2.962,1.589,5.35,4.037,7.038,6.93c1.384,2.372,2.294,4.923,2.794,7.55
									c-4.034,1.239-9.422,3.019-9.422,3.019l9.862,3.214c-0.094,2.243-0.444,4.485-1.023,6.667
									c-1.018,3.839-2.633,7.454-4.537,10.928c-3.586-2.061-8.241-4.657-8.241-4.657l6.161,8.231
									c-1.383,2.26-2.846,4.47-4.303,6.651c-2.231,3.338-4.51,6.643-6.823,9.924c-3.54-2.031-7.94-4.484-7.94-4.484l5.704,7.622
									c-2.143,2.988-4.312,5.957-6.524,8.895c-0.683,0.907-1.369,1.811-2.058,2.714c-0.175,0.229-0.567,0.382-0.844,0.235
									c-6.636-3.514-13.041-7.494-19.015-12.046l5.277-4.106c0,0-4.197,1.034-7.956,2.001c-0.541-0.438-1.086-0.872-1.618-1.32
									c-4.288-3.615-8.379-7.586-12.012-11.918l8.219-6.396c0,0-7.025,1.731-11.035,2.807c-1.121-1.507-2.197-3.045-3.19-4.633
									c-3.941-6.301-6.806-13.763-5.739-21.271l11.677-0.561C373.168,167.885,367.14,163.882,363.566,161.664z"/>
							</g>
							
								<line style="fill:none;stroke:#57A72C;stroke-linecap:round;stroke-linejoin:round;stroke-miterlimit:10;" x1="400.972" y1="161.438" x2="409.404" y2="225.094"/>
						</g>
					</g>
					
						<rect x="376.744" y="267.012" style="fill:none;stroke:#0F1D56;stroke-linecap:round;stroke-linejoin:round;stroke-miterlimit:10;" width="27.914" height="2.858"/>
					<path style="fill:#97C974;" d="M384.447,307.316v30.324c0,3.908,2.8,7.075,6.254,7.075l0,0c3.454,0,6.254-3.168,6.254-7.075
						v-30.324H384.447z"/>
				</g>
				<g>
					<rect x="307.251" y="300.772" style="fill:#193859;" width="4.244" height="52.9"/>
					<rect x="409.109" y="300.772" style="fill:#193859;" width="4.244" height="52.9"/>
					<rect x="303.586" y="298.36" style="fill:#47536B;" width="115.362" height="4.823"/>
					<rect x="303.586" y="352.9" style="fill:#47536B;" width="115.362" height="10.224"/>
				</g>
				<g>
					<path style="fill:#DDDEE8;" d="M350.278,267.012h17.614v71.801c0,4.864-3.943,8.807-8.807,8.807l0,0
						c-4.864,0-8.807-3.943-8.807-8.807V267.012z"/>
					<g>
						<path style="fill:#97C974;" d="M354.489,195.8c0,0,28.744,24.404,3.771,65.189C358.26,260.988,332.354,229.966,354.489,195.8z
							"/>
						<path style="fill:none;stroke:#57A72C;stroke-linecap:round;stroke-linejoin:round;stroke-miterlimit:10;" d="
							M333.195,247.871"/>
						
							<line style="fill:none;stroke:#57A72C;stroke-linecap:round;stroke-linejoin:round;stroke-miterlimit:10;" x1="359.085" y1="316.44" x2="357.956" y2="240.507"/>
					</g>
					<path style="fill:#AFD491;" d="M352.831,307.316v30.324c0,3.908,2.8,7.075,6.255,7.075l0,0c3.454,0,6.254-3.168,6.254-7.075
						v-30.324H352.831z"/>
					
						<rect x="345.128" y="267.012" style="fill:none;stroke:#0F1D56;stroke-linecap:round;stroke-linejoin:round;stroke-miterlimit:10;" width="27.914" height="2.858"/>
				</g>
				<g>
					<path style="fill:#DDDEE8;" d="M320.065,267.012h17.614v71.801c0,4.864-3.943,8.807-8.807,8.807l0,0
						c-4.864,0-8.807-3.943-8.807-8.807V267.012z"/>
					<g>
						<path style="fill:#57A72C;" d="M328.872,234.339L328.872,234.339c-2.3,0-4.182-1.882-4.182-4.182v-39.221
							c0-2.3,1.882-4.182,4.182-4.182l0,0c2.3,0,4.182,1.882,4.182,4.182v39.221C333.054,232.457,331.172,234.339,328.872,234.339z"
							/>
						
							<line style="fill:none;stroke:#AFD491;stroke-linecap:round;stroke-linejoin:round;stroke-miterlimit:10;" x1="328.872" y1="316.44" x2="328.872" y2="206.923"/>
						<path style="fill:none;stroke:#AFD491;stroke-linecap:round;stroke-linejoin:round;stroke-miterlimit:10;" d="
							M317.483,226.892c0.471-0.094,11.389,19.423,11.389,19.423"/>
						
							<line style="fill:none;stroke:#AFD491;stroke-linecap:round;stroke-linejoin:round;stroke-miterlimit:10;" x1="341.431" y1="241.789" x2="328.872" y2="257.684"/>
						<path style="fill:#57A72C;" d="M321.254,226.044c0-2.343-1.9-4.243-4.243-4.243c-2.343,0-4.243,1.9-4.243,4.243
							c0,2.343,1.9,4.243,4.243,4.243C319.355,230.286,321.254,228.387,321.254,226.044z"/>
						<path style="fill:#57A72C;" d="M347.072,240.507c0-2.343-1.9-4.243-4.243-4.243c-2.343,0-4.243,1.9-4.243,4.243
							c0,2.343,1.9,4.243,4.243,4.243C345.173,244.749,347.072,242.85,347.072,240.507z"/>
					</g>
					<path style="fill:#57A72C;" d="M322.618,307.316v30.324c0,3.908,2.8,7.075,6.254,7.075l0,0c3.454,0,6.254-3.168,6.254-7.075
						v-30.324H322.618z"/>
					
						<rect x="314.915" y="267.012" style="fill:none;stroke:#0F1D56;stroke-linecap:round;stroke-linejoin:round;stroke-miterlimit:10;" width="27.914" height="2.858"/>
				</g>
			</g>
		</g>
	</g>
</g>
</svg>
