<svg width="782" height="37" viewBox="0 0 782 37" fill="none" xmlns="http://www.w3.org/2000/svg">
<path d="M29.2917 9.25H7.70833C6.00546 9.25 4.625 10.6305 4.625 12.3333V29.2917C4.625 30.9945 6.00546 32.375 7.70833 32.375H29.2917C30.9945 32.375 32.375 30.9945 32.375 29.2917V12.3333C32.375 10.6305 30.9945 9.25 29.2917 9.25Z" stroke="#1A496A" style="stroke:#1A496A;stroke:color(display-p3 0.1020 0.2863 0.4157);stroke-opacity:1;" stroke-width="3.08333"/>
<path d="M4.625 15.4167C4.625 12.5091 4.625 11.0568 5.52842 10.1534C6.43183 9.25 7.88408 9.25 10.7917 9.25H26.2083C29.1159 9.25 30.5682 9.25 31.4716 10.1534C32.375 11.0568 32.375 12.5091 32.375 15.4167H4.625Z" fill="#1A496A" style="fill:#1A496A;fill:color(display-p3 0.1020 0.2863 0.4157);fill-opacity:1;"/>
<path d="M10.791 4.625V9.25M26.2077 4.625V9.25" stroke="#1A496A" style="stroke:#1A496A;stroke:color(display-p3 0.1020 0.2863 0.4157);stroke-opacity:1;" stroke-width="3.08333" stroke-linecap="round"/>
<path d="M50.3702 31C51.434 29.9694 52.4479 28.9555 53.412 27.9581C54.3761 26.9608 55.2405 25.9967 56.0051 25.0659C56.7863 24.135 57.4014 23.2374 57.8502 22.3731C58.299 21.4921 58.5234 20.6444 58.5234 19.8299C58.5234 19.2813 58.4319 18.8159 58.2491 18.4336C58.0662 18.0347 57.8252 17.7105 57.526 17.4612C57.2434 17.2119 56.9193 17.029 56.5536 16.9127C56.1879 16.7797 55.8139 16.7132 55.4316 16.7132C54.8831 16.7132 54.4177 16.8046 54.0354 16.9875C53.653 17.1537 53.3372 17.3781 53.0879 17.6607C52.8552 17.9432 52.6806 18.2424 52.5643 18.5583C52.4646 18.8741 52.4147 19.1899 52.4147 19.5057C52.4147 20.0543 52.4978 20.5529 52.664 21.0017C52.8302 21.4339 53.0713 21.8162 53.3871 22.1487L51.8911 23.4701C51.5088 23.2208 51.1763 22.8717 50.8938 22.4229C50.6278 21.9741 50.42 21.4921 50.2704 20.9768C50.1374 20.4449 50.071 19.9712 50.071 19.5556C50.071 18.658 50.287 17.8186 50.7192 17.0373C51.168 16.2395 51.8163 15.5995 52.664 15.1175C53.5284 14.6354 54.5756 14.3944 55.8056 14.3944C56.8528 14.3944 57.767 14.6354 58.5483 15.1175C59.3295 15.5995 59.9362 16.2395 60.3684 17.0373C60.8006 17.8186 61.0167 18.6829 61.0167 19.6304C61.0167 20.4615 60.8505 21.276 60.518 22.0739C60.1856 22.8717 59.7368 23.6613 59.1716 24.4425C58.6231 25.2238 58.0081 25.9967 57.3266 26.7613C56.6617 27.5093 55.9968 28.2656 55.3319 29.0303L54.2847 28.6812H61.5652V31H50.3702ZM69.4671 31.1995C68.3701 31.1995 67.3727 30.9418 66.4751 30.4265C65.5942 29.8946 64.8877 29.1466 64.3558 28.1825C63.8405 27.2018 63.5829 26.0466 63.5829 24.7168C63.5829 23.6364 63.7907 22.6141 64.2062 21.65C64.6384 20.6693 65.2119 19.7551 65.9266 18.9073C66.6414 18.043 67.4475 17.2451 68.3451 16.5137C69.2594 15.7657 70.1902 15.0842 71.1377 14.4692L72.7334 16.2145C71.387 16.8794 70.2567 17.6357 69.3425 18.4835C68.4283 19.3146 67.7218 20.1623 67.2231 21.0267C66.7245 21.891 66.4253 22.7055 66.3255 23.4701L65.7271 23.3953C66.1759 22.4645 66.766 21.7497 67.4974 21.2511C68.2288 20.7524 69.1513 20.5031 70.265 20.5031C71.1127 20.5031 71.9106 20.7275 72.6586 21.1763C73.4066 21.6251 74.0133 22.2401 74.4787 23.0213C74.9608 23.8026 75.2018 24.7002 75.2018 25.7141C75.2018 26.8278 74.9275 27.8002 74.379 28.6313C73.8471 29.4458 73.1407 30.0775 72.2597 30.5263C71.3953 30.9751 70.4645 31.1995 69.4671 31.1995ZM69.3674 29.0303C69.9824 29.0303 70.5393 28.8973 71.0379 28.6313C71.5532 28.3488 71.9605 27.9581 72.2597 27.4595C72.5589 26.9608 72.7085 26.3873 72.7085 25.7391C72.7085 25.0908 72.5589 24.5256 72.2597 24.0436C71.9605 23.5616 71.5532 23.1876 71.0379 22.9216C70.5393 22.6556 69.9824 22.5227 69.3674 22.5227C68.7524 22.5227 68.1955 22.6556 67.6969 22.9216C67.1982 23.1709 66.7993 23.52 66.5001 23.9688C66.2009 24.401 66.0513 24.883 66.0513 25.4149V25.8388C66.0513 26.404 66.1926 26.9359 66.4751 27.4345C66.7743 27.9166 67.1733 28.3072 67.6719 28.6064C68.1872 28.889 68.7524 29.0303 69.3674 29.0303ZM80.3361 28.8308C79.9704 29.6952 79.6048 30.5512 79.2391 31.3989C78.89 32.2633 78.5326 33.136 78.1669 34.0169H76.2969C76.6294 33.136 76.9535 32.2633 77.2693 31.3989C77.5852 30.5512 77.9093 29.6952 78.2417 28.8308H80.3361ZM90.4972 31C91.5611 29.9694 92.575 28.9555 93.5391 27.9581C94.5032 26.9608 95.3676 25.9967 96.1322 25.0659C96.9134 24.135 97.5284 23.2374 97.9772 22.3731C98.426 21.4921 98.6504 20.6444 98.6504 19.8299C98.6504 19.2813 98.559 18.8159 98.3762 18.4336C98.1933 18.0347 97.9523 17.7105 97.6531 17.4612C97.3705 17.2119 97.0464 17.029 96.6807 16.9127C96.315 16.7797 95.941 16.7132 95.5587 16.7132C95.0102 16.7132 94.5448 16.8046 94.1624 16.9875C93.7801 17.1537 93.4643 17.3781 93.215 17.6607C92.9823 17.9432 92.8077 18.2424 92.6914 18.5583C92.5916 18.8741 92.5418 19.1899 92.5418 19.5057C92.5418 20.0543 92.6249 20.5529 92.7911 21.0017C92.9573 21.4339 93.1984 21.8162 93.5142 22.1487L92.0182 23.4701C91.6359 23.2208 91.3034 22.8717 91.0208 22.4229C90.7549 21.9741 90.5471 21.4921 90.3975 20.9768C90.2645 20.4449 90.198 19.9712 90.198 19.5556C90.198 18.658 90.4141 17.8186 90.8463 17.0373C91.2951 16.2395 91.9434 15.5995 92.7911 15.1175C93.6555 14.6354 94.7027 14.3944 95.9327 14.3944C96.9799 14.3944 97.8941 14.6354 98.6754 15.1175C99.4566 15.5995 100.063 16.2395 100.496 17.0373C100.928 17.8186 101.144 18.6829 101.144 19.6304C101.144 20.4615 100.978 21.276 100.645 22.0739C100.313 22.8717 99.8639 23.6613 99.2987 24.4425C98.7502 25.2238 98.1352 25.9967 97.4536 26.7613C96.7888 27.5093 96.1239 28.2656 95.459 29.0303L94.4118 28.6812H101.692V31H90.4972ZM114.257 14.5939L107.699 31H104.982L110.891 16.5636L111.738 16.9127H103.535V14.5939H114.257ZM129.358 27.7337C129.358 29.1965 129.075 30.4432 128.51 31.4737C127.962 32.5043 127.205 33.2856 126.241 33.8175C125.277 34.366 124.172 34.6652 122.925 34.7151V32.3713C124.089 32.3048 125.045 31.8893 125.793 31.1247C126.557 30.3767 126.939 29.2214 126.939 27.6589V12.9732H129.358V27.7337ZM137.243 31.3989C136.312 31.3989 135.539 31.1164 134.924 30.5512C134.326 29.9694 134.01 29.2214 133.977 28.3072V20.6776H136.295V27.4844C136.329 28.0496 136.486 28.5067 136.769 28.8557C137.068 29.2048 137.534 29.3876 138.165 29.4043C138.747 29.4043 139.262 29.238 139.711 28.9056C140.177 28.5565 140.551 28.0911 140.833 27.5093C141.116 26.9109 141.257 26.2377 141.257 25.4897V20.6776H143.576V31H141.457L141.257 28.4568L141.382 28.9056C141.182 29.3876 140.875 29.8198 140.459 30.2021C140.06 30.5678 139.587 30.8587 139.038 31.0748C138.489 31.2909 137.891 31.3989 137.243 31.3989ZM149.657 20.6776L149.857 23.1959L149.757 22.7969C150.089 22.0323 150.629 21.4256 151.377 20.9768C152.125 20.5114 152.99 20.2787 153.971 20.2787C154.951 20.2787 155.749 20.5696 156.364 21.1513C156.996 21.7165 157.32 22.4562 157.337 23.3704V31H154.993V24.1932C154.976 23.628 154.81 23.1709 154.494 22.8219C154.195 22.4562 153.721 22.2733 153.073 22.2733C152.475 22.2733 151.934 22.4396 151.452 22.772C150.97 23.1044 150.588 23.5616 150.305 24.1433C150.039 24.7251 149.906 25.3983 149.906 26.1629V31H147.588V20.6776H149.657ZM166.156 31.2493C164.976 31.2493 163.962 31.0166 163.114 30.5512C162.267 30.0692 161.61 29.4209 161.145 28.6064C160.696 27.7753 160.471 26.8278 160.471 25.764C160.471 24.75 160.729 23.8275 161.244 22.9964C161.76 22.1653 162.45 21.5004 163.314 21.0017C164.178 20.5031 165.142 20.2537 166.206 20.2537C167.569 20.2537 168.699 20.6527 169.597 21.4505C170.495 22.2484 171.101 23.3455 171.417 24.7417L162.915 27.7337L162.366 26.3624L169.348 23.8192L168.849 24.1433C168.65 23.5948 168.317 23.1211 167.852 22.7221C167.386 22.3066 166.78 22.0988 166.032 22.0988C165.4 22.0988 164.835 22.2567 164.336 22.5725C163.837 22.8717 163.447 23.2873 163.164 23.8192C162.882 24.3511 162.74 24.9578 162.74 25.6393C162.74 26.3541 162.89 26.9857 163.189 27.5343C163.488 28.0662 163.896 28.49 164.411 28.8059C164.943 29.1051 165.541 29.2547 166.206 29.2547C166.655 29.2547 167.087 29.1716 167.503 29.0053C167.935 28.8391 168.334 28.623 168.699 28.3571L169.772 30.0775C169.256 30.4265 168.675 30.7091 168.026 30.9252C167.395 31.1413 166.771 31.2493 166.156 31.2493ZM181.514 31C182.577 29.9694 183.591 28.9555 184.556 27.9581C185.52 26.9608 186.384 25.9967 187.149 25.0659C187.93 24.135 188.545 23.2374 188.994 22.3731C189.442 21.4921 189.667 20.6444 189.667 19.8299C189.667 19.2813 189.575 18.8159 189.393 18.4336C189.21 18.0347 188.969 17.7105 188.67 17.4612C188.387 17.2119 188.063 17.029 187.697 16.9127C187.331 16.7797 186.957 16.7132 186.575 16.7132C186.027 16.7132 185.561 16.8046 185.179 16.9875C184.797 17.1537 184.481 17.3781 184.231 17.6607C183.999 17.9432 183.824 18.2424 183.708 18.5583C183.608 18.8741 183.558 19.1899 183.558 19.5057C183.558 20.0543 183.641 20.5529 183.808 21.0017C183.974 21.4339 184.215 21.8162 184.531 22.1487L183.035 23.4701C182.652 23.2208 182.32 22.8717 182.037 22.4229C181.771 21.9741 181.564 21.4921 181.414 20.9768C181.281 20.4449 181.214 19.9712 181.214 19.5556C181.214 18.658 181.431 17.8186 181.863 17.0373C182.312 16.2395 182.96 15.5995 183.808 15.1175C184.672 14.6354 185.719 14.3944 186.949 14.3944C187.996 14.3944 188.911 14.6354 189.692 15.1175C190.473 15.5995 191.08 16.2395 191.512 17.0373C191.944 17.8186 192.16 18.6829 192.16 19.6304C192.16 20.4615 191.994 21.276 191.662 22.0739C191.329 22.8717 190.88 23.6613 190.315 24.4425C189.767 25.2238 189.152 25.9967 188.47 26.7613C187.805 27.5093 187.14 28.2656 186.475 29.0303L185.428 28.6812H192.709V31H181.514ZM201.558 31.0748C200.544 31.0748 199.613 30.8836 198.766 30.5013C197.918 30.119 197.186 29.5705 196.571 28.8557C195.973 28.1244 195.508 27.2434 195.175 26.2128C194.843 25.1822 194.677 24.027 194.677 22.7471C194.677 21.3508 194.834 20.1374 195.15 19.1068C195.466 18.0596 195.923 17.1869 196.522 16.4888C197.137 15.7907 197.868 15.2754 198.716 14.9429C199.563 14.5939 200.511 14.4193 201.558 14.4193C202.572 14.4193 203.495 14.6105 204.326 14.9928C205.173 15.3751 205.897 15.932 206.495 16.6633C207.11 17.3781 207.584 18.2508 207.916 19.2813C208.265 20.2953 208.44 21.4505 208.44 22.7471C208.44 24.0602 208.265 25.2321 207.916 26.2627C207.584 27.2932 207.11 28.1659 206.495 28.8807C205.897 29.5954 205.173 30.144 204.326 30.5263C203.495 30.892 202.572 31.0748 201.558 31.0748ZM201.533 28.756C202.497 28.756 203.303 28.5067 203.952 28.008C204.617 27.4927 205.115 26.778 205.448 25.8637C205.78 24.9495 205.946 23.894 205.946 22.6972C205.946 21.5004 205.78 20.4615 205.448 19.5805C205.115 18.6829 204.617 17.9848 203.952 17.4861C203.303 16.9875 202.497 16.7381 201.533 16.7381C200.569 16.7381 199.763 16.9958 199.115 17.5111C198.466 18.0097 197.976 18.7079 197.644 19.6055C197.328 20.5031 197.17 21.5503 197.17 22.7471C197.17 23.9272 197.328 24.9744 197.644 25.8887C197.976 26.7863 198.466 27.4927 199.115 28.008C199.763 28.5067 200.569 28.756 201.533 28.756ZM210.635 31C211.699 29.9694 212.713 28.9555 213.677 27.9581C214.641 26.9608 215.505 25.9967 216.27 25.0659C217.051 24.135 217.666 23.2374 218.115 22.3731C218.564 21.4921 218.788 20.6444 218.788 19.8299C218.788 19.2813 218.697 18.8159 218.514 18.4336C218.331 18.0347 218.09 17.7105 217.791 17.4612C217.508 17.2119 217.184 17.029 216.818 16.9127C216.453 16.7797 216.079 16.7132 215.696 16.7132C215.148 16.7132 214.683 16.8046 214.3 16.9875C213.918 17.1537 213.602 17.3781 213.353 17.6607C213.12 17.9432 212.945 18.2424 212.829 18.5583C212.729 18.8741 212.68 19.1899 212.68 19.5057C212.68 20.0543 212.763 20.5529 212.929 21.0017C213.095 21.4339 213.336 21.8162 213.652 22.1487L212.156 23.4701C211.774 23.2208 211.441 22.8717 211.159 22.4229C210.893 21.9741 210.685 21.4921 210.535 20.9768C210.402 20.4449 210.336 19.9712 210.336 19.5556C210.336 18.658 210.552 17.8186 210.984 17.0373C211.433 16.2395 212.081 15.5995 212.929 15.1175C213.793 14.6354 214.84 14.3944 216.07 14.3944C217.118 14.3944 218.032 14.6354 218.813 15.1175C219.594 15.5995 220.201 16.2395 220.633 17.0373C221.065 17.8186 221.282 18.6829 221.282 19.6304C221.282 20.4615 221.115 21.276 220.783 22.0739C220.45 22.8717 220.002 23.6613 219.436 24.4425C218.888 25.2238 218.273 25.9967 217.591 26.7613C216.927 27.5093 216.262 28.2656 215.597 29.0303L214.55 28.6812H221.83V31H210.635ZM229.009 31.1995C228.128 31.1995 227.28 31.0416 226.466 30.7257C225.668 30.4099 225.02 30.0027 224.521 29.504L225.817 27.634C226.15 28.0163 226.59 28.3238 227.139 28.5565C227.704 28.7892 228.261 28.9056 228.809 28.9056C229.424 28.9056 229.965 28.7726 230.43 28.5067C230.912 28.2241 231.286 27.8501 231.552 27.3847C231.818 26.9026 231.951 26.3541 231.951 25.7391C231.951 25.0742 231.826 24.4841 231.577 23.9688C231.344 23.4535 230.987 23.0546 230.505 22.772C230.04 22.4728 229.449 22.3232 228.735 22.3232C228.153 22.3232 227.613 22.4063 227.114 22.5725C226.615 22.7221 226.1 22.9548 225.568 23.2707H225.543V14.5939H233.397V16.9127H227.638V21.1015L227.313 20.6028C227.596 20.5031 227.912 20.4283 228.261 20.3784C228.627 20.3119 228.976 20.2787 229.308 20.2787C230.422 20.2787 231.353 20.528 232.101 21.0267C232.865 21.5087 233.439 22.157 233.821 22.9715C234.22 23.786 234.419 24.6836 234.419 25.6643C234.419 26.6948 234.187 27.634 233.721 28.4817C233.256 29.3128 232.616 29.9777 231.801 30.4764C230.987 30.9584 230.056 31.1995 229.009 31.1995Z" fill="#1A496A" style="fill:#1A496A;fill:color(display-p3 0.1020 0.2863 0.4157);fill-opacity:1;"/>
<path fill-rule="evenodd" clip-rule="evenodd" d="M287.061 24.8298C287.399 24.6609 287.787 24.6217 288.151 24.7197C288.516 24.8178 288.832 25.0462 289.039 25.3616L289.129 25.5189L292.212 31.6856C292.322 31.9055 292.378 32.1485 292.375 32.3944C292.372 32.6403 292.31 32.8818 292.195 33.099C292.079 33.3161 291.913 33.5024 291.711 33.6425C291.509 33.7825 291.277 33.8722 291.033 33.904L290.834 33.9163H266.167C265.921 33.9164 265.679 33.8577 265.46 33.745C265.242 33.6323 265.053 33.4689 264.911 33.2685C264.768 33.0681 264.675 32.8365 264.641 32.5931C264.606 32.3496 264.63 32.1013 264.71 31.869L264.787 31.684L267.871 25.5173C268.044 25.1601 268.347 24.8833 268.719 24.7445C269.091 24.6057 269.502 24.6155 269.867 24.7721C270.231 24.9286 270.521 25.2196 270.677 25.5847C270.832 25.9498 270.841 26.3608 270.701 26.7322L270.629 26.8971L268.662 30.833H288.339L286.372 26.8971C286.19 26.5316 286.16 26.1085 286.289 25.7208C286.418 25.3332 286.696 25.0127 287.061 24.8298ZM278.5 3.08301C281.363 3.08301 284.108 4.21998 286.131 6.24381C288.155 8.26764 289.292 11.0125 289.292 13.8747C289.292 17.5469 287.305 20.5301 285.248 22.6468C284.112 23.8007 282.864 24.8378 281.521 25.7424L280.946 26.1217L280.434 26.4439L280.204 26.5826L279.808 26.8108C278.994 27.2733 278.007 27.2733 277.193 26.8108L276.797 26.5811L276.319 26.2897L276.055 26.1217L275.48 25.7424C274.137 24.8378 272.889 23.8007 271.753 22.6468C269.696 20.5301 267.709 17.5469 267.709 13.8747C267.709 11.0125 268.846 8.26764 270.87 6.24381C272.893 4.21998 275.638 3.08301 278.5 3.08301ZM278.5 6.16634C276.456 6.16634 274.495 6.97847 273.05 8.42406C271.604 9.86965 270.792 11.8303 270.792 13.8747C270.792 16.3968 272.164 18.6461 273.963 20.4977C275.046 21.5907 276.241 22.5649 277.531 23.4037L278.055 23.7383C278.217 23.838 278.366 23.9274 278.5 24.0065L278.948 23.7383L279.47 23.4037C280.759 22.5649 281.955 21.5907 283.038 20.4977C284.837 18.6477 286.209 16.3968 286.209 13.8747C286.209 11.8303 285.397 9.86965 283.951 8.42406C282.506 6.97847 280.545 6.16634 278.5 6.16634ZM278.5 9.24967C279.727 9.24967 280.904 9.73695 281.771 10.6043C282.638 11.4717 283.125 12.648 283.125 13.8747C283.125 15.1013 282.638 16.2777 281.771 17.145C280.904 18.0124 279.727 18.4997 278.5 18.4997C277.274 18.4997 276.097 18.0124 275.23 17.145C274.363 16.2777 273.875 15.1013 273.875 13.8747C273.875 12.648 274.363 11.4717 275.23 10.6043C276.097 9.73695 277.274 9.24967 278.5 9.24967ZM278.5 12.333C278.092 12.333 277.699 12.4954 277.41 12.7846C277.121 13.0737 276.959 13.4658 276.959 13.8747C276.959 14.2836 277.121 14.6757 277.41 14.9648C277.699 15.2539 278.092 15.4163 278.5 15.4163C278.909 15.4163 279.302 15.2539 279.591 14.9648C279.88 14.6757 280.042 14.2836 280.042 13.8747C280.042 13.4658 279.88 13.0737 279.591 12.7846C279.302 12.4954 278.909 12.333 278.5 12.333Z" fill="#1A496A" style="fill:#1A496A;fill:color(display-p3 0.1020 0.2863 0.4157);fill-opacity:1;"/>
<path d="M314.145 20.2288L314.07 21.1264L314.394 20.6776L321.774 12.9732H324.891L317.436 20.7025L325.315 31H322.248L315.666 22.2484L314.145 23.7195V31H311.701V12.9732H314.145V20.2288ZM332.594 31.2493C331.414 31.2493 330.4 31.0166 329.552 30.5512C328.704 30.0692 328.048 29.4209 327.582 28.6064C327.134 27.7753 326.909 26.8278 326.909 25.764C326.909 24.75 327.167 23.8275 327.682 22.9964C328.197 22.1653 328.887 21.5004 329.752 21.0017C330.616 20.5031 331.58 20.2537 332.644 20.2537C334.007 20.2537 335.137 20.6527 336.035 21.4505C336.932 22.2484 337.539 23.3455 337.855 24.7417L329.353 27.7337L328.804 26.3624L335.785 23.8192L335.287 24.1433C335.087 23.5948 334.755 23.1211 334.289 22.7221C333.824 22.3066 333.217 22.0988 332.469 22.0988C331.838 22.0988 331.272 22.2567 330.774 22.5725C330.275 22.8717 329.885 23.2873 329.602 23.8192C329.319 24.3511 329.178 24.9578 329.178 25.6393C329.178 26.3541 329.328 26.9857 329.627 27.5343C329.926 28.0662 330.333 28.49 330.849 28.8059C331.381 29.1051 331.979 29.2547 332.644 29.2547C333.093 29.2547 333.525 29.1716 333.94 29.0053C334.373 28.8391 334.771 28.623 335.137 28.3571L336.209 30.0775C335.694 30.4265 335.112 30.7091 334.464 30.9252C333.832 31.1413 333.209 31.2493 332.594 31.2493ZM342.83 20.6776L343.054 23.6696L342.93 23.2707C343.196 22.639 343.578 22.1071 344.077 21.6749C344.592 21.2261 345.124 20.8854 345.672 20.6527C346.237 20.4033 346.728 20.2787 347.143 20.2787L347.019 22.5725C346.237 22.5227 345.548 22.6723 344.949 23.0213C344.367 23.3704 343.902 23.8358 343.553 24.4176C343.22 24.9994 343.054 25.6227 343.054 26.2876V31H340.76V20.6776H342.83ZM354.18 31.2493C353.216 31.2493 352.335 31.0416 351.537 30.626C350.756 30.2104 350.132 29.6037 349.667 28.8059C349.218 27.9914 348.994 27.0024 348.994 25.8388C348.994 24.6919 349.235 23.7028 349.717 22.8717C350.199 22.024 350.839 21.3757 351.637 20.9269C352.451 20.4781 353.34 20.2537 354.304 20.2537C355.269 20.2537 356.083 20.4781 356.748 20.9269C357.413 21.3591 357.92 21.8744 358.269 22.4728L358.119 22.8717L358.344 20.6776H360.488V31H358.169V28.3072L358.418 28.9056C358.352 29.0718 358.202 29.2879 357.97 29.5539C357.754 29.8032 357.454 30.0608 357.072 30.3268C356.706 30.5928 356.283 30.8172 355.8 31C355.318 31.1662 354.778 31.2493 354.18 31.2493ZM354.803 29.3295C355.385 29.3295 355.909 29.2214 356.374 29.0053C356.839 28.7892 357.222 28.49 357.521 28.1077C357.837 27.7088 358.053 27.2351 358.169 26.6865V24.6669C358.036 24.1683 357.803 23.7361 357.471 23.3704C357.139 22.9881 356.74 22.6972 356.274 22.4977C355.809 22.2816 355.293 22.1736 354.728 22.1736C354.113 22.1736 353.548 22.3232 353.033 22.6224C352.518 22.9216 352.102 23.3372 351.786 23.8691C351.487 24.401 351.337 25.0243 351.337 25.7391C351.337 26.404 351.495 27.0107 351.811 27.5592C352.127 28.1077 352.551 28.5399 353.083 28.8557C353.615 29.1716 354.188 29.3295 354.803 29.3295ZM364.501 11.7016H366.819V31H364.501V11.7016ZM375.12 31.2493C374.156 31.2493 373.275 31.0416 372.477 30.626C371.696 30.2104 371.072 29.6037 370.607 28.8059C370.158 27.9914 369.934 27.0024 369.934 25.8388C369.934 24.6919 370.175 23.7028 370.657 22.8717C371.139 22.024 371.779 21.3757 372.577 20.9269C373.391 20.4781 374.28 20.2537 375.245 20.2537C376.209 20.2537 377.023 20.4781 377.688 20.9269C378.353 21.3591 378.86 21.8744 379.209 22.4728L379.059 22.8717L379.284 20.6776H381.428V31H379.109V28.3072L379.359 28.9056C379.292 29.0718 379.142 29.2879 378.91 29.5539C378.694 29.8032 378.394 30.0608 378.012 30.3268C377.646 30.5928 377.223 30.8172 376.741 31C376.259 31.1662 375.718 31.2493 375.12 31.2493ZM375.743 29.3295C376.325 29.3295 376.849 29.2214 377.314 29.0053C377.779 28.7892 378.162 28.49 378.461 28.1077C378.777 27.7088 378.993 27.2351 379.109 26.6865V24.6669C378.976 24.1683 378.744 23.7361 378.411 23.3704C378.079 22.9881 377.68 22.6972 377.214 22.4977C376.749 22.2816 376.234 22.1736 375.668 22.1736C375.053 22.1736 374.488 22.3232 373.973 22.6224C373.458 22.9216 373.042 23.3372 372.726 23.8691C372.427 24.401 372.278 25.0243 372.278 25.7391C372.278 26.404 372.435 27.0107 372.751 27.5592C373.067 28.1077 373.491 28.5399 374.023 28.8557C374.555 29.1716 375.128 29.3295 375.743 29.3295ZM392.582 12.9732H404.55V15.292H399.713V31H397.294V15.292H392.582V12.9732ZM409.926 31.2493C408.746 31.2493 407.732 31.0166 406.884 30.5512C406.037 30.0692 405.38 29.4209 404.915 28.6064C404.466 27.7753 404.241 26.8278 404.241 25.764C404.241 24.75 404.499 23.8275 405.014 22.9964C405.53 22.1653 406.219 21.5004 407.084 21.0017C407.948 20.5031 408.912 20.2537 409.976 20.2537C411.339 20.2537 412.469 20.6527 413.367 21.4505C414.265 22.2484 414.871 23.3455 415.187 24.7417L406.685 27.7337L406.136 26.3624L413.118 23.8192L412.619 24.1433C412.42 23.5948 412.087 23.1211 411.622 22.7221C411.156 22.3066 410.55 22.0988 409.802 22.0988C409.17 22.0988 408.605 22.2567 408.106 22.5725C407.607 22.8717 407.217 23.2873 406.934 23.8192C406.652 24.3511 406.51 24.9578 406.51 25.6393C406.51 26.3541 406.66 26.9857 406.959 27.5343C407.258 28.0662 407.666 28.49 408.181 28.8059C408.713 29.1051 409.311 29.2547 409.976 29.2547C410.425 29.2547 410.857 29.1716 411.273 29.0053C411.705 28.8391 412.104 28.623 412.469 28.3571L413.542 30.0775C413.026 30.4265 412.445 30.7091 411.796 30.9252C411.165 31.1413 410.541 31.2493 409.926 31.2493ZM426.47 30.0525C426.005 30.4182 425.448 30.7091 424.8 30.9252C424.152 31.1413 423.503 31.2493 422.855 31.2493C421.725 31.2493 420.736 31.0249 419.888 30.5761C419.04 30.1273 418.375 29.504 417.893 28.7061C417.428 27.8916 417.195 26.9359 417.195 25.8388C417.195 24.7417 417.444 23.786 417.943 22.9715C418.458 22.157 419.123 21.5336 419.938 21.1015C420.769 20.6527 421.658 20.4283 422.606 20.4283C423.437 20.4283 424.176 20.5446 424.825 20.7773C425.49 21.01 426.055 21.3259 426.52 21.7248L425.373 23.2208C425.074 22.9881 424.708 22.7803 424.276 22.5975C423.844 22.4146 423.354 22.3232 422.805 22.3232C422.207 22.3232 421.65 22.4811 421.135 22.7969C420.636 23.0961 420.237 23.5117 419.938 24.0436C419.655 24.5755 419.514 25.1739 419.514 25.8388C419.514 26.4704 419.664 27.0605 419.963 27.6091C420.262 28.141 420.677 28.5648 421.209 28.8807C421.741 29.1799 422.348 29.3295 423.03 29.3295C423.478 29.3295 423.886 29.263 424.251 29.13C424.634 28.997 424.974 28.8142 425.274 28.5815L426.47 30.0525ZM429.464 31V11.7016H431.733V23.0712L431.683 22.6473C432.032 21.9658 432.564 21.4007 433.278 20.9519C434.01 20.5031 434.866 20.2787 435.847 20.2787C436.827 20.2787 437.625 20.5696 438.24 21.1513C438.872 21.7165 439.196 22.4562 439.213 23.3704V31H436.869V24.1932C436.852 23.628 436.686 23.1709 436.37 22.8219C436.071 22.4562 435.597 22.2733 434.949 22.2733C434.351 22.2733 433.81 22.4479 433.328 22.7969C432.846 23.1294 432.464 23.5865 432.181 24.1683C431.915 24.75 431.782 25.4149 431.782 26.1629V31H429.464ZM445.315 20.6776L445.514 23.1959L445.414 22.7969C445.747 22.0323 446.287 21.4256 447.035 20.9768C447.783 20.5114 448.647 20.2787 449.628 20.2787C450.609 20.2787 451.407 20.5696 452.022 21.1513C452.653 21.7165 452.977 22.4562 452.994 23.3704V31H450.65V24.1932C450.634 23.628 450.468 23.1709 450.152 22.8219C449.853 22.4562 449.379 22.2733 448.731 22.2733C448.132 22.2733 447.592 22.4396 447.11 22.772C446.628 23.1044 446.245 23.5616 445.963 24.1433C445.697 24.7251 445.564 25.3983 445.564 26.1629V31H443.245V20.6776H445.315ZM456.129 25.7391C456.129 24.7085 456.37 23.7776 456.852 22.9465C457.351 22.1154 458.032 21.4588 458.897 20.9768C459.761 20.4948 460.742 20.2537 461.839 20.2537C462.969 20.2537 463.958 20.4948 464.806 20.9768C465.654 21.4588 466.31 22.1154 466.776 22.9465C467.241 23.7776 467.474 24.7085 467.474 25.7391C467.474 26.7696 467.241 27.7088 466.776 28.5565C466.31 29.3876 465.645 30.0442 464.781 30.5263C463.933 31.0083 462.944 31.2493 461.814 31.2493C460.717 31.2493 459.736 31.0249 458.872 30.5761C458.024 30.1107 457.351 29.4708 456.852 28.6563C456.37 27.8252 456.129 26.8528 456.129 25.7391ZM458.448 25.764C458.448 26.4289 458.597 27.0356 458.897 27.5841C459.196 28.116 459.595 28.5399 460.093 28.8557C460.609 29.1716 461.174 29.3295 461.789 29.3295C462.437 29.3295 463.011 29.1716 463.509 28.8557C464.025 28.5399 464.424 28.116 464.706 27.5841C464.989 27.0356 465.13 26.4289 465.13 25.764C465.13 25.0991 464.989 24.5007 464.706 23.9688C464.424 23.4203 464.025 22.9881 463.509 22.6723C463.011 22.3398 462.437 22.1736 461.789 22.1736C461.157 22.1736 460.584 22.3398 460.069 22.6723C459.57 23.0047 459.171 23.4452 458.872 23.9937C458.589 24.5256 458.448 25.1157 458.448 25.764ZM470.613 11.7016H472.932V31H470.613V11.7016ZM476.047 25.7391C476.047 24.7085 476.288 23.7776 476.77 22.9465C477.268 22.1154 477.95 21.4588 478.814 20.9768C479.679 20.4948 480.659 20.2537 481.756 20.2537C482.887 20.2537 483.876 20.4948 484.723 20.9768C485.571 21.4588 486.228 22.1154 486.693 22.9465C487.159 23.7776 487.391 24.7085 487.391 25.7391C487.391 26.7696 487.159 27.7088 486.693 28.5565C486.228 29.3876 485.563 30.0442 484.698 30.5263C483.851 31.0083 482.862 31.2493 481.731 31.2493C480.634 31.2493 479.654 31.0249 478.789 30.5761C477.941 30.1107 477.268 29.4708 476.77 28.6563C476.288 27.8252 476.047 26.8528 476.047 25.7391ZM478.365 25.764C478.365 26.4289 478.515 27.0356 478.814 27.5841C479.113 28.116 479.512 28.5399 480.011 28.8557C480.526 29.1716 481.091 29.3295 481.706 29.3295C482.355 29.3295 482.928 29.1716 483.427 28.8557C483.942 28.5399 484.341 28.116 484.624 27.5841C484.906 27.0356 485.047 26.4289 485.047 25.764C485.047 25.0991 484.906 24.5007 484.624 23.9688C484.341 23.4203 483.942 22.9881 483.427 22.6723C482.928 22.3398 482.355 22.1736 481.706 22.1736C481.075 22.1736 480.501 22.3398 479.986 22.6723C479.487 23.0047 479.088 23.4452 478.789 23.9937C478.507 24.5256 478.365 25.1157 478.365 25.764ZM495.493 36.1113C494.728 36.1113 494.055 36.0199 493.473 35.8371C492.891 35.6708 492.359 35.4298 491.877 35.114C491.412 34.7982 490.963 34.4408 490.531 34.0419L491.877 32.4711C492.426 32.9864 492.983 33.3853 493.548 33.6679C494.113 33.9504 494.745 34.0917 495.443 34.0917C496.224 34.0917 496.881 33.9588 497.412 33.6928C497.961 33.4435 498.377 33.0861 498.659 32.6207C498.942 32.1719 499.083 31.6483 499.083 31.0499L499.108 28.2573L499.307 28.7061C499.008 29.4209 498.468 30.0276 497.687 30.5263C496.905 31.0083 495.958 31.2493 494.844 31.2493C493.897 31.2493 493.024 31.0083 492.226 30.5263C491.445 30.0442 490.813 29.396 490.331 28.5815C489.866 27.7504 489.633 26.8195 489.633 25.7889C489.633 24.7085 489.883 23.761 490.381 22.9465C490.88 22.1154 491.537 21.4588 492.351 20.9768C493.165 20.4948 494.055 20.2537 495.019 20.2537C495.933 20.2537 496.764 20.4449 497.512 20.8272C498.277 21.1929 498.834 21.6666 499.183 22.2484L499.058 22.6723L499.307 20.6776H501.427V31.0748C501.427 32.0056 501.186 32.8534 500.704 33.618C500.222 34.3826 499.54 34.9893 498.659 35.4381C497.778 35.8869 496.723 36.1113 495.493 36.1113ZM491.952 25.7391C491.952 26.404 492.11 27.0107 492.426 27.5592C492.742 28.1077 493.165 28.5399 493.697 28.8557C494.246 29.1716 494.853 29.3295 495.518 29.3295C496.133 29.3295 496.681 29.2214 497.163 29.0053C497.662 28.7726 498.077 28.4651 498.41 28.0828C498.742 27.6839 498.975 27.2268 499.108 26.7115V24.6669C498.958 24.1683 498.709 23.7361 498.36 23.3704C498.011 22.9881 497.595 22.6972 497.113 22.4977C496.631 22.2816 496.099 22.1736 495.518 22.1736C494.853 22.1736 494.246 22.3232 493.697 22.6224C493.165 22.9216 492.742 23.3455 492.426 23.894C492.11 24.4259 491.952 25.0409 491.952 25.7391ZM506.305 35.9617L513.112 20.6776H515.256L508.599 35.9617H506.305ZM508.848 31.0748L503.887 20.6776H506.505L510.668 29.9029L508.848 31.0748ZM526.216 12.9732H528.634V31H526.216V12.9732ZM535.308 20.6776L535.508 23.1959L535.408 22.7969C535.741 22.0323 536.281 21.4256 537.029 20.9768C537.777 20.5114 538.641 20.2787 539.622 20.2787C540.603 20.2787 541.4 20.5696 542.015 21.1513C542.647 21.7165 542.971 22.4562 542.988 23.3704V31H540.644V24.1932C540.628 23.628 540.461 23.1709 540.145 22.8219C539.846 22.4562 539.373 22.2733 538.724 22.2733C538.126 22.2733 537.586 22.4396 537.104 22.772C536.622 23.1044 536.239 23.5616 535.957 24.1433C535.691 24.7251 535.558 25.3983 535.558 26.1629V31H533.239V20.6776H535.308ZM549.09 20.6776L549.289 23.1959L549.19 22.7969C549.522 22.0323 550.062 21.4256 550.81 20.9768C551.558 20.5114 552.423 20.2787 553.403 20.2787C554.384 20.2787 555.182 20.5696 555.797 21.1513C556.429 21.7165 556.753 22.4562 556.769 23.3704V31H554.426V24.1932C554.409 23.628 554.243 23.1709 553.927 22.8219C553.628 22.4562 553.154 22.2733 552.506 22.2733C551.907 22.2733 551.367 22.4396 550.885 22.772C550.403 23.1044 550.021 23.5616 549.738 24.1433C549.472 24.7251 549.339 25.3983 549.339 26.1629V31H547.02V20.6776H549.09ZM559.904 25.7391C559.904 24.7085 560.145 23.7776 560.627 22.9465C561.126 22.1154 561.808 21.4588 562.672 20.9768C563.536 20.4948 564.517 20.2537 565.614 20.2537C566.744 20.2537 567.733 20.4948 568.581 20.9768C569.429 21.4588 570.085 22.1154 570.551 22.9465C571.016 23.7776 571.249 24.7085 571.249 25.7391C571.249 26.7696 571.016 27.7088 570.551 28.5565C570.085 29.3876 569.421 30.0442 568.556 30.5263C567.708 31.0083 566.719 31.2493 565.589 31.2493C564.492 31.2493 563.511 31.0249 562.647 30.5761C561.799 30.1107 561.126 29.4708 560.627 28.6563C560.145 27.8252 559.904 26.8528 559.904 25.7391ZM562.223 25.764C562.223 26.4289 562.373 27.0356 562.672 27.5841C562.971 28.116 563.37 28.5399 563.869 28.8557C564.384 29.1716 564.949 29.3295 565.564 29.3295C566.212 29.3295 566.786 29.1716 567.285 28.8557C567.8 28.5399 568.199 28.116 568.481 27.5841C568.764 27.0356 568.905 26.4289 568.905 25.764C568.905 25.0991 568.764 24.5007 568.481 23.9688C568.199 23.4203 567.8 22.9881 567.285 22.6723C566.786 22.3398 566.212 22.1736 565.564 22.1736C564.933 22.1736 564.359 22.3398 563.844 22.6723C563.345 23.0047 562.946 23.4452 562.647 23.9937C562.364 24.5256 562.223 25.1157 562.223 25.764ZM578.261 31.2992L572.526 20.6776H575.269L579.159 28.8807L577.737 28.8308L581.303 20.6776H583.896L578.386 31.2992H578.261ZM590.267 31.2493C589.303 31.2493 588.422 31.0416 587.624 30.626C586.843 30.2104 586.22 29.6037 585.754 28.8059C585.306 27.9914 585.081 27.0024 585.081 25.8388C585.081 24.6919 585.322 23.7028 585.804 22.8717C586.286 22.024 586.926 21.3757 587.724 20.9269C588.539 20.4781 589.428 20.2537 590.392 20.2537C591.356 20.2537 592.171 20.4781 592.835 20.9269C593.5 21.3591 594.007 21.8744 594.356 22.4728L594.207 22.8717L594.431 20.6776H596.575V31H594.257V28.3072L594.506 28.9056C594.439 29.0718 594.29 29.2879 594.057 29.5539C593.841 29.8032 593.542 30.0608 593.16 30.3268C592.794 30.5928 592.37 30.8172 591.888 31C591.406 31.1662 590.866 31.2493 590.267 31.2493ZM590.891 29.3295C591.472 29.3295 591.996 29.2214 592.461 29.0053C592.927 28.7892 593.309 28.49 593.608 28.1077C593.924 27.7088 594.14 27.2351 594.257 26.6865V24.6669C594.124 24.1683 593.891 23.7361 593.559 23.3704C593.226 22.9881 592.827 22.6972 592.362 22.4977C591.896 22.2816 591.381 22.1736 590.816 22.1736C590.201 22.1736 589.636 22.3232 589.12 22.6224C588.605 22.9216 588.19 23.3372 587.874 23.8691C587.575 24.401 587.425 25.0243 587.425 25.7391C587.425 26.404 587.583 27.0107 587.899 27.5592C588.214 28.1077 588.638 28.5399 589.17 28.8557C589.702 29.1716 590.276 29.3295 590.891 29.3295ZM601.585 16.1397H603.904V20.7275H606.747V22.5476H603.904V31H601.585V22.5476H599.691V20.7275H601.585V16.1397ZM609.549 20.6776H611.867V31H609.549V20.6776ZM609.374 16.9376C609.374 16.5719 609.515 16.2644 609.798 16.0151C610.097 15.7657 610.421 15.6411 610.77 15.6411C611.119 15.6411 611.427 15.7657 611.693 16.0151C611.975 16.2644 612.117 16.5719 612.117 16.9376C612.117 17.3199 611.975 17.6357 611.693 17.8851C611.427 18.1178 611.119 18.2341 610.77 18.2341C610.421 18.2341 610.097 18.1095 609.798 17.8601C609.515 17.6108 609.374 17.3033 609.374 16.9376ZM614.982 25.7391C614.982 24.7085 615.223 23.7776 615.705 22.9465C616.203 22.1154 616.885 21.4588 617.749 20.9768C618.614 20.4948 619.594 20.2537 620.691 20.2537C621.822 20.2537 622.811 20.4948 623.659 20.9768C624.506 21.4588 625.163 22.1154 625.628 22.9465C626.094 23.7776 626.326 24.7085 626.326 25.7391C626.326 26.7696 626.094 27.7088 625.628 28.5565C625.163 29.3876 624.498 30.0442 623.634 30.5263C622.786 31.0083 621.797 31.2493 620.667 31.2493C619.569 31.2493 618.589 31.0249 617.724 30.5761C616.877 30.1107 616.203 29.4708 615.705 28.6563C615.223 27.8252 614.982 26.8528 614.982 25.7391ZM617.301 25.764C617.301 26.4289 617.45 27.0356 617.749 27.5841C618.049 28.116 618.447 28.5399 618.946 28.8557C619.461 29.1716 620.027 29.3295 620.642 29.3295C621.29 29.3295 621.863 29.1716 622.362 28.8557C622.877 28.5399 623.276 28.116 623.559 27.5841C623.841 27.0356 623.983 26.4289 623.983 25.764C623.983 25.0991 623.841 24.5007 623.559 23.9688C623.276 23.4203 622.877 22.9881 622.362 22.6723C621.863 22.3398 621.29 22.1736 620.642 22.1736C620.01 22.1736 619.436 22.3398 618.921 22.6723C618.423 23.0047 618.024 23.4452 617.724 23.9937C617.442 24.5256 617.301 25.1157 617.301 25.764ZM631.535 20.6776L631.735 23.1959L631.635 22.7969C631.968 22.0323 632.508 21.4256 633.256 20.9768C634.004 20.5114 634.868 20.2787 635.849 20.2787C636.83 20.2787 637.628 20.5696 638.243 21.1513C638.874 21.7165 639.198 22.4562 639.215 23.3704V31H636.871V24.1932C636.855 23.628 636.688 23.1709 636.373 22.8219C636.073 22.4562 635.6 22.2733 634.951 22.2733C634.353 22.2733 633.813 22.4396 633.331 22.772C632.849 23.1044 632.466 23.5616 632.184 24.1433C631.918 24.7251 631.785 25.3983 631.785 26.1629V31H629.466V20.6776H631.535ZM650.389 31C650.571 30.734 650.846 30.3268 651.211 29.7783C651.594 29.2297 652.034 28.5815 652.533 27.8335C653.032 27.0855 653.563 26.2793 654.129 25.4149C654.71 24.5506 655.3 23.6696 655.899 22.772C656.514 21.8744 657.104 21.0017 657.669 20.154C658.251 19.2896 658.791 18.4918 659.29 17.7604C659.788 17.0124 660.221 16.3724 660.586 15.8405C660.969 15.292 661.251 14.8931 661.434 14.6437L661.758 15.292H653.43C653.115 15.292 652.799 15.2338 652.483 15.1175C652.167 15.0011 651.91 14.8266 651.71 14.5939C651.511 14.3612 651.411 14.0869 651.411 13.7711V12.0756H653.655V12.3997C653.655 12.6989 653.713 12.8735 653.829 12.9233C653.946 12.9566 654.145 12.9732 654.428 12.9732H665.224L654.328 28.9804L654.178 28.6812H665.523V31H650.389ZM667.989 25.7391C667.989 24.7085 668.23 23.7776 668.712 22.9465C669.211 22.1154 669.893 21.4588 670.757 20.9768C671.621 20.4948 672.602 20.2537 673.699 20.2537C674.829 20.2537 675.818 20.4948 676.666 20.9768C677.514 21.4588 678.171 22.1154 678.636 22.9465C679.101 23.7776 679.334 24.7085 679.334 25.7391C679.334 26.7696 679.101 27.7088 678.636 28.5565C678.171 29.3876 677.506 30.0442 676.641 30.5263C675.794 31.0083 674.805 31.2493 673.674 31.2493C672.577 31.2493 671.596 31.0249 670.732 30.5761C669.884 30.1107 669.211 29.4708 668.712 28.6563C668.23 27.8252 667.989 26.8528 667.989 25.7391ZM670.308 25.764C670.308 26.4289 670.458 27.0356 670.757 27.5841C671.056 28.116 671.455 28.5399 671.954 28.8557C672.469 29.1716 673.034 29.3295 673.649 29.3295C674.298 29.3295 674.871 29.1716 675.37 28.8557C675.885 28.5399 676.284 28.116 676.566 27.5841C676.849 27.0356 676.99 26.4289 676.99 25.764C676.99 25.0991 676.849 24.5007 676.566 23.9688C676.284 23.4203 675.885 22.9881 675.37 22.6723C674.871 22.3398 674.298 22.1736 673.649 22.1736C673.018 22.1736 672.444 22.3398 671.929 22.6723C671.43 23.0047 671.031 23.4452 670.732 23.9937C670.449 24.5256 670.308 25.1157 670.308 25.764ZM684.543 20.6776L684.743 23.1959L684.643 22.7969C684.975 22.0323 685.516 21.4256 686.264 20.9768C687.012 20.5114 687.876 20.2787 688.857 20.2787C689.837 20.2787 690.635 20.5696 691.25 21.1513C691.882 21.7165 692.206 22.4562 692.223 23.3704V31H689.879V24.1932C689.862 23.628 689.696 23.1709 689.38 22.8219C689.081 22.4562 688.607 22.2733 687.959 22.2733C687.361 22.2733 686.82 22.4396 686.338 22.772C685.856 23.1044 685.474 23.5616 685.191 24.1433C684.925 24.7251 684.793 25.3983 684.793 26.1629V31H682.474V20.6776H684.543ZM701.042 31.2493C699.862 31.2493 698.848 31.0166 698.001 30.5512C697.153 30.0692 696.496 29.4209 696.031 28.6064C695.582 27.7753 695.358 26.8278 695.358 25.764C695.358 24.75 695.615 23.8275 696.131 22.9964C696.646 22.1653 697.336 21.5004 698.2 21.0017C699.064 20.5031 700.028 20.2537 701.092 20.2537C702.455 20.2537 703.586 20.6527 704.483 21.4505C705.381 22.2484 705.988 23.3455 706.303 24.7417L697.801 27.7337L697.253 26.3624L704.234 23.8192L703.735 24.1433C703.536 23.5948 703.203 23.1211 702.738 22.7221C702.272 22.3066 701.666 22.0988 700.918 22.0988C700.286 22.0988 699.721 22.2567 699.222 22.5725C698.724 22.8717 698.333 23.2873 698.05 23.8192C697.768 24.3511 697.627 24.9578 697.627 25.6393C697.627 26.3541 697.776 26.9857 698.075 27.5343C698.375 28.0662 698.782 28.49 699.297 28.8059C699.829 29.1051 700.427 29.2547 701.092 29.2547C701.541 29.2547 701.973 29.1716 702.389 29.0053C702.821 28.8391 703.22 28.623 703.586 28.3571L704.658 30.0775C704.142 30.4265 703.561 30.7091 702.912 30.9252C702.281 31.1413 701.657 31.2493 701.042 31.2493ZM711.303 28.8308C710.938 29.6952 710.572 30.5512 710.206 31.3989C709.857 32.2633 709.5 33.136 709.134 34.0169H707.264C707.597 33.136 707.921 32.2633 708.236 31.3989C708.552 30.5512 708.876 29.6952 709.209 28.8308H711.303ZM725.179 20.2288L725.105 21.1264L725.429 20.6776L732.809 12.9732H735.926L728.471 20.7025L736.35 31H733.283L726.7 22.2484L725.179 23.7195V31H722.736V12.9732H725.179V20.2288ZM737.944 25.7391C737.944 24.7085 738.185 23.7776 738.667 22.9465C739.166 22.1154 739.847 21.4588 740.712 20.9768C741.576 20.4948 742.557 20.2537 743.654 20.2537C744.784 20.2537 745.773 20.4948 746.621 20.9768C747.468 21.4588 748.125 22.1154 748.59 22.9465C749.056 23.7776 749.289 24.7085 749.289 25.7391C749.289 26.7696 749.056 27.7088 748.59 28.5565C748.125 29.3876 747.46 30.0442 746.596 30.5263C745.748 31.0083 744.759 31.2493 743.629 31.2493C742.532 31.2493 741.551 31.0249 740.687 30.5761C739.839 30.1107 739.166 29.4708 738.667 28.6563C738.185 27.8252 737.944 26.8528 737.944 25.7391ZM740.263 25.764C740.263 26.4289 740.412 27.0356 740.712 27.5841C741.011 28.116 741.41 28.5399 741.908 28.8557C742.424 29.1716 742.989 29.3295 743.604 29.3295C744.252 29.3295 744.826 29.1716 745.324 28.8557C745.84 28.5399 746.238 28.116 746.521 27.5841C746.804 27.0356 746.945 26.4289 746.945 25.764C746.945 25.0991 746.804 24.5007 746.521 23.9688C746.238 23.4203 745.84 22.9881 745.324 22.6723C744.826 22.3398 744.252 22.1736 743.604 22.1736C742.972 22.1736 742.399 22.3398 741.883 22.6723C741.385 23.0047 740.986 23.4452 740.687 23.9937C740.404 24.5256 740.263 25.1157 740.263 25.764ZM760.806 30.0525C760.34 30.4182 759.784 30.7091 759.135 30.9252C758.487 31.1413 757.839 31.2493 757.191 31.2493C756.06 31.2493 755.071 31.0249 754.223 30.5761C753.376 30.1273 752.711 29.504 752.229 28.7061C751.763 27.8916 751.531 26.9359 751.531 25.8388C751.531 24.7417 751.78 23.786 752.279 22.9715C752.794 22.157 753.459 21.5336 754.273 21.1015C755.104 20.6527 755.994 20.4283 756.941 20.4283C757.772 20.4283 758.512 20.5446 759.16 20.7773C759.825 21.01 760.39 21.3259 760.856 21.7248L759.709 23.2208C759.41 22.9881 759.044 22.7803 758.612 22.5975C758.18 22.4146 757.689 22.3232 757.141 22.3232C756.542 22.3232 755.985 22.4811 755.47 22.7969C754.971 23.0961 754.573 23.5117 754.273 24.0436C753.991 24.5755 753.849 25.1739 753.849 25.8388C753.849 26.4704 753.999 27.0605 754.298 27.6091C754.597 28.141 755.013 28.5648 755.545 28.8807C756.077 29.1799 756.684 29.3295 757.365 29.3295C757.814 29.3295 758.221 29.263 758.587 29.13C758.969 28.997 759.31 28.8142 759.609 28.5815L760.806 30.0525ZM763.799 31V11.7016H766.068V23.0712L766.018 22.6473C766.367 21.9658 766.899 21.4007 767.614 20.9519C768.345 20.5031 769.201 20.2787 770.182 20.2787C771.163 20.2787 771.961 20.5696 772.576 21.1513C773.207 21.7165 773.532 22.4562 773.548 23.3704V31H771.204V24.1932C771.188 23.628 771.022 23.1709 770.706 22.8219C770.407 22.4562 769.933 22.2733 769.285 22.2733C768.686 22.2733 768.146 22.4479 767.664 22.7969C767.182 23.1294 766.8 23.5865 766.517 24.1683C766.251 24.75 766.118 25.4149 766.118 26.1629V31H763.799ZM777.581 20.6776H779.9V31H777.581V20.6776ZM777.406 16.9376C777.406 16.5719 777.547 16.2644 777.83 16.0151C778.129 15.7657 778.453 15.6411 778.802 15.6411C779.152 15.6411 779.459 15.7657 779.725 16.0151C780.008 16.2644 780.149 16.5719 780.149 16.9376C780.149 17.3199 780.008 17.6357 779.725 17.8851C779.459 18.1178 779.152 18.2341 778.802 18.2341C778.453 18.2341 778.129 18.1095 777.83 17.8601C777.547 17.6108 777.406 17.3033 777.406 16.9376Z" fill="#1A496A" style="fill:#1A496A;fill:color(display-p3 0.1020 0.2863 0.4157);fill-opacity:1;"/>
</svg>
