<svg width="193" height="49" viewBox="0 0 193 49" fill="none" xmlns="http://www.w3.org/2000/svg">
<path d="M37.2164 38.4769V47.2337H2.1229V40.2681L20.0345 23.3515C21.9362 21.5382 23.2188 19.9903 23.8822 18.7077C24.5456 17.381 24.8773 16.0763 24.8773 14.7937C24.8773 12.9362 24.236 11.521 22.9534 10.548C21.7151 9.5308 19.8797 9.0222 17.4472 9.0222C15.4128 9.0222 13.5774 9.4202 11.9411 10.2163C10.3047 10.9681 8.9337 12.118 7.828 13.6659L0 8.6241C1.81328 5.92628 4.3121 3.82558 7.4964 2.32188C10.6806 0.77396 14.3293 0 18.4423 0C21.892 0 24.8994 0.57494 27.4645 1.72478C30.0739 2.83048 32.0862 4.42258 33.5014 6.50128C34.9609 8.5357 35.6906 10.946 35.6906 13.7323C35.6906 16.2532 35.1599 18.6193 34.0985 20.8306C33.037 23.0419 30.9805 25.5628 27.9289 28.3933L17.2482 38.4769H37.2164ZM57.5722 18.2434C64.1177 18.2434 68.9384 19.548 72.0342 22.1574C75.1743 24.7667 76.7443 28.2606 76.7443 32.639C76.7443 35.4695 76.0367 38.0567 74.6215 40.4007C73.2062 42.7005 71.0392 44.558 68.1202 45.9733C65.2455 47.3443 61.6853 48.0298 57.4396 48.0298C54.1668 48.0298 50.9383 47.6096 47.754 46.7693C44.6139 45.8848 41.9382 44.6465 39.7269 43.0543L43.9727 34.8282C45.7417 36.155 47.7761 37.1943 50.0759 37.9462C52.3757 38.6538 54.7418 39.0076 57.1742 39.0076C59.872 39.0076 61.9949 38.4769 63.5428 37.4155C65.0907 36.354 65.8647 34.8725 65.8647 32.9707C65.8647 30.9805 65.0465 29.4768 63.4101 28.4596C61.818 27.4424 59.0317 26.9338 55.0513 26.9338H43.1766L45.5648 0.79607H73.8917V9.4202H54.5206L53.7909 18.2434H57.5722Z" fill="#26BDE2" style="fill:#26BDE2;fill:color(display-p3 0.1490 0.7412 0.8863);fill-opacity:1;"/>
<path d="M106 20H89V27H106V20Z" fill="#26BDE2" style="fill:#26BDE2;fill:color(display-p3 0.1490 0.7412 0.8863);fill-opacity:1;"/>
<path d="M150.216 38.4767V47.2337H115.123V40.2677L133.035 23.3515C134.936 21.5382 136.219 19.9903 136.882 18.7077C137.546 17.381 137.877 16.0763 137.877 14.7937C137.877 12.9362 137.236 11.521 135.953 10.548C134.715 9.5308 132.88 9.0222 130.447 9.0222C128.413 9.0222 126.578 9.4202 124.941 10.2163C123.305 10.9681 121.934 12.118 120.828 13.6659L113 8.6241C114.813 5.92631 117.312 3.82561 120.496 2.32191C123.681 0.77401 127.329 0 131.442 0C134.892 0 137.899 0.575 140.465 1.7248C143.074 2.8305 145.086 4.4226 146.501 6.5013C147.961 8.5357 148.691 10.946 148.691 13.7323C148.691 16.2532 148.16 18.6193 147.099 20.8306C146.037 23.0419 143.981 25.5628 140.929 28.3937L130.248 38.4767H150.216ZM176.878 18.1107C179.841 18.1107 182.539 18.7077 184.971 19.9018C187.404 21.096 189.327 22.7987 190.743 25.01C192.158 27.1771 192.865 29.6977 192.865 32.5727C192.865 35.6687 192.092 38.3887 190.544 40.7327C188.996 43.0767 186.873 44.8897 184.175 46.1727C181.521 47.4107 178.558 48.0297 175.286 48.0297C168.784 48.0297 163.698 46.0397 160.027 42.0597C156.357 38.0787 154.521 32.3957 154.521 25.01C154.521 19.7471 155.516 15.236 157.507 11.4767C159.497 7.7175 162.261 4.86491 165.799 2.91901C169.381 0.97301 173.516 0 178.204 0C180.681 0 183.047 0.2875 185.303 0.8624C187.603 1.3931 189.548 2.1671 191.141 3.1843L187.16 11.0787C184.861 9.5308 181.964 8.7568 178.47 8.7568C174.534 8.7568 171.416 9.9067 169.116 12.2065C166.816 14.5062 165.578 17.8453 165.401 22.2237C168.143 19.4817 171.969 18.1107 176.878 18.1107ZM174.688 40.0027C176.988 40.0027 178.846 39.3837 180.261 38.1447C181.72 36.9067 182.45 35.2267 182.45 33.1037C182.45 30.9807 181.72 29.2997 180.261 28.0617C178.846 26.779 176.944 26.1378 174.556 26.1378C172.212 26.1378 170.288 26.8012 168.784 28.1277C167.281 29.4107 166.529 31.0687 166.529 33.1037C166.529 35.1377 167.258 36.7967 168.718 38.0787C170.177 39.3617 172.168 40.0027 174.688 40.0027Z" fill="#26BDE2" style="fill:#26BDE2;fill:color(display-p3 0.1490 0.7412 0.8863);fill-opacity:1;"/>
</svg>
