<svg width="75" height="50" viewBox="0 0 75 50" fill="none" xmlns="http://www.w3.org/2000/svg">
<mask id="mask0_2138_1167" style="mask-type:luminance" maskUnits="userSpaceOnUse" x="0" y="0" width="75" height="50">
<path d="M75 0H0V50H75V0Z" fill="white" style="fill:white;fill-opacity:1;"/>
</mask>
<g mask="url(#mask0_2138_1167)">
<path d="M0.789062 0.486328H74.2161V49.4374H0.789062V0.486328Z" fill="#E8422E" style="fill:#E8422E;fill:color(display-p3 0.9098 0.2588 0.1804);fill-opacity:1;"/>
<path d="M12.4626 22.3473C11.2066 22.3473 10.0646 22.1351 9.03664 21.7109C8.00864 21.2703 7.16763 20.6421 6.51562 19.8263L9.15863 16.6934C10.0726 17.8846 11.0596 18.4801 12.1206 18.4801C12.8216 18.4801 13.3526 18.268 13.7116 17.8438C14.0866 17.4195 14.2736 16.7995 14.2736 15.9836V8.6165H8.35063V4.87172H19.0716V15.6899C19.0716 17.909 18.5086 19.5734 17.3826 20.6829C16.2726 21.7925 14.6326 22.3473 12.4626 22.3473ZM38.7656 8.7388V22.0046H34.3356V20.585C33.8456 21.1235 33.2586 21.5314 32.5726 21.8088C31.8876 22.0862 31.1616 22.2249 30.3946 22.2249C28.6816 22.2249 27.3106 21.7191 26.2826 20.7074C25.2716 19.6957 24.7656 18.1783 24.7656 16.155V8.7388H29.4156V15.3962C29.4156 16.3916 29.6036 17.1177 29.9786 17.5745C30.3536 18.0314 30.9006 18.2599 31.6186 18.2599C32.3526 18.2599 32.9486 18.0069 33.4056 17.5011C33.8786 16.979 34.1146 16.1876 34.1146 15.127V8.7388H38.7656ZM44.4526 3.84375H49.1036V22.0046H44.4526V3.84375ZM68.7936 8.7388L63.0656 22.5431C62.3966 24.1748 61.5816 25.317 60.6186 25.9696C59.6556 26.6386 58.4806 26.9731 57.0936 26.9731C56.3926 26.9731 55.6826 26.8589 54.9646 26.6305C54.2626 26.4184 53.6916 26.1328 53.2516 25.7738L54.8666 22.5186C55.1276 22.7633 55.4376 22.951 55.7966 23.0815C56.1726 23.2284 56.5476 23.3018 56.9226 23.3018C57.3636 23.3018 57.7226 23.2121 57.9996 23.0326C58.2936 22.8531 58.5376 22.5675 58.7336 22.1759L53.0556 8.7388H57.8286L61.0836 16.8403L64.3636 8.7388H68.7936ZM21.0786 42.1619V46.0046H7.73863V42.9696L14.1516 36.9731C14.7716 36.3857 15.1876 35.8881 15.3996 35.4801C15.6116 35.0559 15.7186 34.6316 15.7186 34.2074C15.7186 33.6526 15.5306 33.2202 15.1556 32.9102C14.7796 32.6002 14.2336 32.4452 13.5156 32.4452C12.8786 32.4452 12.2916 32.592 11.7536 32.8857C11.2306 33.1631 10.7986 33.571 10.4556 34.1095L6.85764 32.1025C7.52664 30.993 8.46564 30.12 9.67264 29.4836C10.8806 28.8473 12.3076 28.5291 13.9556 28.5291C15.2616 28.5291 16.4116 28.7412 17.4066 29.1654C18.4186 29.5897 19.2016 30.2016 19.7566 31.0011C20.3276 31.7843 20.6136 32.6981 20.6136 33.7424C20.6136 34.6724 20.4096 35.5536 20.0016 36.3857C19.6096 37.2016 18.8426 38.1316 17.7006 39.1759L14.4696 42.1619H21.0786ZM30.0276 46.3473C28.5596 46.3473 27.2536 45.9964 26.1116 45.2948C24.9696 44.5932 24.0726 43.5734 23.4196 42.2354C22.7836 40.8811 22.4646 39.282 22.4646 37.4382C22.4646 35.5943 22.7836 34.0034 23.4196 32.6654C24.0726 31.3111 24.9696 30.2832 26.1116 29.5815C27.2536 28.8799 28.5596 28.5291 30.0276 28.5291C31.4806 28.5291 32.7776 28.8799 33.9196 29.5815C35.0616 30.2832 35.9506 31.3111 36.5876 32.6654C37.2396 34.0034 37.5666 35.5943 37.5666 37.4382C37.5666 39.282 37.2396 40.8811 36.5876 42.2354C35.9506 43.5734 35.0616 44.5932 33.9196 45.2948C32.7776 45.9964 31.4806 46.3473 30.0276 46.3473ZM30.0276 42.3822C30.8436 42.3822 31.4886 41.9906 31.9616 41.2074C32.4506 40.4079 32.6956 39.1515 32.6956 37.4382C32.6956 35.7249 32.4506 34.4766 31.9616 33.6934C31.4886 32.8939 30.8436 32.4941 30.0276 32.4941C29.1956 32.4941 28.5346 32.8939 28.0456 33.6934C27.5726 34.4766 27.3356 35.7249 27.3356 37.4382C27.3356 39.1515 27.5726 40.4079 28.0456 41.2074C28.5346 41.9906 29.1956 42.3822 30.0276 42.3822ZM52.2706 42.1619V46.0046H38.9306V42.9696L45.3436 36.9731C45.9636 36.3857 46.3796 35.8881 46.5916 35.4801C46.8036 35.0559 46.9096 34.6316 46.9096 34.2074C46.9096 33.6526 46.7226 33.2202 46.3476 32.9102C45.9716 32.6002 45.4256 32.4452 44.7076 32.4452C44.0706 32.4452 43.4836 32.592 42.9446 32.8857C42.4226 33.1631 41.9906 33.571 41.6476 34.1095L38.0496 32.1025C38.7186 30.993 39.6576 30.12 40.8646 29.4836C42.0716 28.8473 43.4996 28.5291 45.1476 28.5291C46.4536 28.5291 47.6036 28.7412 48.5986 29.1654C49.6106 29.5897 50.3936 30.2016 50.9486 31.0011C51.5196 31.7843 51.8056 32.6981 51.8056 33.7424C51.8056 34.6724 51.6016 35.5536 51.1936 36.3857C50.8016 37.2016 50.0346 38.1316 48.8926 39.1759L45.6616 42.1619H52.2706ZM60.0936 35.113C62.4916 35.113 64.2626 35.6025 65.4046 36.5815C66.5636 37.5605 67.1426 38.8659 67.1426 40.4976C67.1426 41.5582 66.8646 42.5372 66.3106 43.4347C65.7716 44.3158 64.9396 45.0256 63.8136 45.564C62.7046 46.0862 61.3256 46.3473 59.6776 46.3473C58.4696 46.3473 57.2706 46.2004 56.0796 45.9067C54.9046 45.613 53.8926 45.1969 53.0446 44.6585L54.7826 41.0116C55.4676 41.4685 56.2186 41.8193 57.0336 42.064C57.8666 42.3088 58.6986 42.4312 59.5306 42.4312C60.3626 42.4312 61.0236 42.2762 61.5126 41.9661C62.0186 41.6398 62.2716 41.1911 62.2716 40.62C62.2716 40.0489 62.0266 39.6165 61.5376 39.3228C61.0476 39.0291 60.1836 38.8822 58.9426 38.8822H54.2926L55.1496 28.8717H66.0656V32.6165H59.1636L58.9426 35.113H60.0936Z" fill="white" style="fill:white;fill-opacity:1;"/>
</g>
</svg>
