<svg width="286" height="52" viewBox="0 0 286 52" fill="none" xmlns="http://www.w3.org/2000/svg">
<path d="M45.2164 41.4769V50.2337H10.1229V43.2681L28.0345 26.3515C29.9362 24.5382 31.2188 22.9903 31.8822 21.7077C32.5456 20.381 32.8773 19.0763 32.8773 17.7937C32.8773 15.9362 32.236 14.521 30.9534 13.548C29.7151 12.5308 27.8797 12.0222 25.4472 12.0222C23.4128 12.0222 21.5774 12.4202 19.9411 13.2163C18.3047 13.9681 16.9337 15.118 15.828 16.6659L8 11.6241C9.81328 8.92628 12.3121 6.82558 15.4964 5.32188C18.6806 3.77396 22.3293 3 26.4423 3C29.892 3 32.8994 3.57494 35.4645 4.72478C38.0739 5.83048 40.0862 7.42258 41.5014 9.50128C42.9609 11.5357 43.6906 13.946 43.6906 16.7323C43.6906 19.2532 43.1599 21.6193 42.0985 23.8306C41.037 26.0419 38.9805 28.5628 35.9289 31.3933L25.2482 41.4769H45.2164ZM65.5722 21.2434C72.1177 21.2434 76.9384 22.548 80.0342 25.1574C83.1743 27.7667 84.7443 31.2606 84.7443 35.639C84.7443 38.4695 84.0367 41.0567 82.6215 43.4007C81.2062 45.7005 79.0392 47.558 76.1202 48.9733C73.2455 50.3443 69.6853 51.0298 65.4396 51.0298C62.1668 51.0298 58.9383 50.6096 55.754 49.7693C52.6139 48.8848 49.9382 47.6465 47.7269 46.0543L51.9727 37.8282C53.7417 39.155 55.7761 40.1943 58.0759 40.9462C60.3757 41.6538 62.7418 42.0076 65.1742 42.0076C67.872 42.0076 69.9949 41.4769 71.5428 40.4155C73.0907 39.354 73.8647 37.8725 73.8647 35.9707C73.8647 33.9805 73.0465 32.4768 71.4101 31.4596C69.818 30.4424 67.0317 29.9338 63.0513 29.9338H51.1766L53.5648 3.79607H81.8917V12.4202H62.5206L61.7909 21.2434H65.5722Z" fill="#26BDE2" style="fill:#26BDE2;fill:color(display-p3 0.1490 0.7412 0.8863);fill-opacity:1;"/>
<rect x="97" y="23" width="17" height="7" fill="#26BDE2" style="fill:#26BDE2;fill:color(display-p3 0.1490 0.7412 0.8863);fill-opacity:1;"/>
<path d="M158.216 41.4767V50.2337H123.123V43.2677L141.035 26.3515C142.936 24.5382 144.219 22.9903 144.882 21.7077C145.546 20.381 145.877 19.0763 145.877 17.7937C145.877 15.9362 145.236 14.521 143.953 13.548C142.715 12.5308 140.88 12.0222 138.447 12.0222C136.413 12.0222 134.578 12.4202 132.941 13.2163C131.305 13.9681 129.934 15.118 128.828 16.6659L121 11.6241C122.813 8.92631 125.312 6.82561 128.496 5.32191C131.681 3.77401 135.329 3 139.442 3C142.892 3 145.899 3.575 148.465 4.7248C151.074 5.8305 153.086 7.4226 154.501 9.5013C155.961 11.5357 156.691 13.946 156.691 16.7323C156.691 19.2532 156.16 21.6193 155.099 23.8306C154.037 26.0419 151.981 28.5628 148.929 31.3937L138.248 41.4767H158.216ZM184.878 21.1107C187.841 21.1107 190.539 21.7077 192.971 22.9018C195.404 24.096 197.327 25.7987 198.743 28.01C200.158 30.1771 200.865 32.6977 200.865 35.5727C200.865 38.6687 200.092 41.3887 198.544 43.7327C196.996 46.0767 194.873 47.8897 192.175 49.1727C189.521 50.4107 186.558 51.0297 183.286 51.0297C176.784 51.0297 171.698 49.0397 168.027 45.0597C164.357 41.0787 162.521 35.3957 162.521 28.01C162.521 22.7471 163.516 18.236 165.507 14.4767C167.497 10.7175 170.261 7.86491 173.799 5.91901C177.381 3.97301 181.516 3 186.204 3C188.681 3 191.047 3.2875 193.303 3.8624C195.603 4.3931 197.548 5.1671 199.141 6.1843L195.16 14.0787C192.861 12.5308 189.964 11.7568 186.47 11.7568C182.534 11.7568 179.416 12.9067 177.116 15.2065C174.816 17.5062 173.578 20.8453 173.401 25.2237C176.143 22.4817 179.969 21.1107 184.878 21.1107ZM182.688 43.0027C184.988 43.0027 186.846 42.3837 188.261 41.1447C189.72 39.9067 190.45 38.2267 190.45 36.1037C190.45 33.9807 189.72 32.2997 188.261 31.0617C186.846 29.779 184.944 29.1378 182.556 29.1378C180.212 29.1378 178.288 29.8012 176.784 31.1277C175.281 32.4107 174.529 34.0687 174.529 36.1037C174.529 38.1377 175.258 39.7967 176.718 41.0787C178.177 42.3617 180.168 43.0027 182.688 43.0027Z" fill="#26BDE2" style="fill:#26BDE2;fill:color(display-p3 0.1490 0.7412 0.8863);fill-opacity:1;"/>
<g clip-path="url(#clip0_2131_1161)">
<path d="M211.789 2.48633H285.216V51.4374H211.789V2.48633Z" fill="#E8422E" style="fill:#E8422E;fill:color(display-p3 0.9098 0.2588 0.1804);fill-opacity:1;"/>
<path d="M223.459 24.3473C222.203 24.3473 221.061 24.1351 220.033 23.7109C219.005 23.2703 218.164 22.6421 217.512 21.8263L220.155 18.6934C221.069 19.8846 222.056 20.4801 223.117 20.4801C223.818 20.4801 224.349 20.268 224.708 19.8438C225.083 19.4195 225.27 18.7995 225.27 17.9836V10.6165H219.347V6.87172H230.068V17.6899C230.068 19.909 229.505 21.5734 228.379 22.6829C227.269 23.7925 225.629 24.3473 223.459 24.3473ZM249.762 10.7388V24.0046H245.332V22.585C244.842 23.1235 244.255 23.5314 243.569 23.8088C242.884 24.0862 242.158 24.2249 241.391 24.2249C239.678 24.2249 238.307 23.7191 237.279 22.7074C236.268 21.6957 235.762 20.1783 235.762 18.155V10.7388H240.412V17.3962C240.412 18.3916 240.6 19.1177 240.975 19.5745C241.35 20.0314 241.897 20.2599 242.615 20.2599C243.349 20.2599 243.945 20.0069 244.402 19.5011C244.875 18.979 245.111 18.1876 245.111 17.127V10.7388H249.762ZM255.449 5.84375H260.1V24.0046H255.449V5.84375ZM279.79 10.7388L274.062 24.5431C273.393 26.1748 272.578 27.317 271.615 27.9696C270.652 28.6386 269.477 28.9731 268.09 28.9731C267.389 28.9731 266.679 28.8589 265.961 28.6305C265.259 28.4184 264.688 28.1328 264.248 27.7738L265.863 24.5186C266.124 24.7633 266.434 24.951 266.793 25.0815C267.169 25.2284 267.544 25.3018 267.919 25.3018C268.36 25.3018 268.719 25.2121 268.996 25.0326C269.29 24.8531 269.534 24.5675 269.73 24.1759L264.052 10.7388H268.825L272.08 18.8403L275.36 10.7388H279.79ZM232.075 44.1619V48.0046H218.735V44.9696L225.148 38.9731C225.768 38.3857 226.184 37.8881 226.396 37.4801C226.608 37.0559 226.715 36.6316 226.715 36.2074C226.715 35.6526 226.527 35.2202 226.152 34.9102C225.776 34.6002 225.23 34.4452 224.512 34.4452C223.875 34.4452 223.288 34.592 222.75 34.8857C222.227 35.1631 221.795 35.571 221.452 36.1095L217.854 34.1025C218.523 32.993 219.462 32.12 220.669 31.4836C221.877 30.8473 223.304 30.5291 224.952 30.5291C226.258 30.5291 227.408 30.7412 228.403 31.1654C229.415 31.5897 230.198 32.2016 230.753 33.0011C231.324 33.7843 231.61 34.6981 231.61 35.7424C231.61 36.6724 231.406 37.5536 230.998 38.3857C230.606 39.2016 229.839 40.1316 228.697 41.1759L225.466 44.1619H232.075ZM241.024 48.3473C239.556 48.3473 238.25 47.9964 237.108 47.2948C235.966 46.5932 235.069 45.5734 234.416 44.2354C233.78 42.8811 233.461 41.282 233.461 39.4382C233.461 37.5943 233.78 36.0034 234.416 34.6654C235.069 33.3111 235.966 32.2832 237.108 31.5815C238.25 30.8799 239.556 30.5291 241.024 30.5291C242.477 30.5291 243.774 30.8799 244.916 31.5815C246.058 32.2832 246.947 33.3111 247.584 34.6654C248.236 36.0034 248.563 37.5943 248.563 39.4382C248.563 41.282 248.236 42.8811 247.584 44.2354C246.947 45.5734 246.058 46.5932 244.916 47.2948C243.774 47.9964 242.477 48.3473 241.024 48.3473ZM241.024 44.3822C241.84 44.3822 242.485 43.9906 242.958 43.2074C243.447 42.4079 243.692 41.1515 243.692 39.4382C243.692 37.7249 243.447 36.4766 242.958 35.6934C242.485 34.8939 241.84 34.4941 241.024 34.4941C240.192 34.4941 239.531 34.8939 239.042 35.6934C238.569 36.4766 238.332 37.7249 238.332 39.4382C238.332 41.1515 238.569 42.4079 239.042 43.2074C239.531 43.9906 240.192 44.3822 241.024 44.3822ZM263.267 44.1619V48.0046H249.927V44.9696L256.34 38.9731C256.96 38.3857 257.376 37.8881 257.588 37.4801C257.8 37.0559 257.906 36.6316 257.906 36.2074C257.906 35.6526 257.719 35.2202 257.344 34.9102C256.968 34.6002 256.422 34.4452 255.704 34.4452C255.067 34.4452 254.48 34.592 253.941 34.8857C253.419 35.1631 252.987 35.571 252.644 36.1095L249.046 34.1025C249.715 32.993 250.654 32.12 251.861 31.4836C253.068 30.8473 254.496 30.5291 256.144 30.5291C257.45 30.5291 258.6 30.7412 259.595 31.1654C260.607 31.5897 261.39 32.2016 261.945 33.0011C262.516 33.7843 262.802 34.6981 262.802 35.7424C262.802 36.6724 262.598 37.5536 262.19 38.3857C261.798 39.2016 261.031 40.1316 259.889 41.1759L256.658 44.1619H263.267ZM271.09 37.113C273.488 37.113 275.259 37.6025 276.401 38.5815C277.56 39.5605 278.139 40.8659 278.139 42.4976C278.139 43.5582 277.861 44.5372 277.307 45.4347C276.768 46.3158 275.936 47.0256 274.81 47.564C273.701 48.0862 272.322 48.3473 270.674 48.3473C269.466 48.3473 268.267 48.2004 267.076 47.9067C265.901 47.613 264.889 47.1969 264.041 46.6585L265.779 43.0116C266.464 43.4685 267.215 43.8193 268.03 44.064C268.863 44.3088 269.695 44.4312 270.527 44.4312C271.359 44.4312 272.02 44.2762 272.509 43.9661C273.015 43.6398 273.268 43.1911 273.268 42.62C273.268 42.0489 273.023 41.6165 272.534 41.3228C272.044 41.0291 271.18 40.8822 269.939 40.8822H265.289L266.146 30.8717H277.062V34.6165H270.16L269.939 37.113H271.09Z" fill="white" style="fill:white;fill-opacity:1;"/>
</g>
<defs>
<clipPath id="clip0_2131_1161">
<rect width="75" height="50" fill="white" style="fill:white;fill-opacity:1;" transform="translate(211 2)"/>
</clipPath>
</defs>
</svg>
