<svg width="124" height="107" viewBox="0 0 124 107" fill="none" xmlns="http://www.w3.org/2000/svg">
<path d="M72.0429 40.6224C91.6328 31.5605 115.421 49.1112 112.574 70.4969C108.773 99.0444 75.1205 107.301 58.3023 84.704C60.857 77.8006 66.0156 73.7804 68.3149 67.0155L61.1133 48.4673L66.5172 42.4842C67.9396 45.2932 75.3934 58.9932 75.3838 60.7211C75.3772 63.0433 69.7588 67.1062 72.553 73.4706C79.6054 89.5191 102.73 70.4312 87.7553 60.3675C84.4279 58.1243 80.3499 59.2179 79.5623 58.5133C78.8443 57.8648 73.1433 43.1254 72.0429 40.6224Z" fill="#B2F6DB" style="fill:#B2F6DB;fill:color(display-p3 0.6980 0.9647 0.8588);fill-opacity:1;"/>
<path d="M72.0422 40.6224C73.1426 43.1255 78.8339 57.8627 79.5616 58.5133C80.3492 59.2179 84.4272 58.1244 87.7546 60.3675C102.73 70.4312 79.6026 89.5289 72.5523 73.4707C69.7581 67.1063 75.3765 63.0434 75.3831 60.7211C75.3927 58.9932 67.9389 45.2932 66.5165 42.4842C65.4237 40.3206 61.9103 31.209 60.9587 30.4582C60.1409 29.7981 54.2515 29.8606 52.3893 28.2657L27.1384 49.9595C29.6566 59.877 22.2734 68.2626 12.1527 64.3179C2.99417 60.7477 5.27266 44.5811 15.9444 44.1831C18.6492 44.0789 21.0892 45.2782 23.2635 45.1192C24.9074 44.9979 47.4995 25.865 48.5385 24.1576C49.7188 22.2252 48.0775 20.4637 48.2357 18.4305C49.3711 3.9792 73.1078 7.31019 69.0361 22.0813C68.335 24.6303 65.9549 26.5253 65.8935 27.3206C65.8052 28.5194 71.0282 38.3327 72.0324 40.6202L72.0422 40.6224ZM64.1514 20.5926C64.7927 17.662 62.9383 14.7687 60.0077 14.1274C57.077 13.4861 54.1837 15.3405 53.5425 18.2712C52.9012 21.2018 54.7556 24.0951 57.6862 24.7364C60.6169 25.3777 63.5101 23.5233 64.1514 20.5926ZM22.2996 55.9332C22.9451 52.983 21.0733 50.0756 18.1329 49.4322C15.1925 48.7888 12.2754 50.6585 11.632 53.5989C10.9885 56.5393 12.8582 59.4564 15.7986 60.0998C18.7391 60.7432 21.6561 58.8736 22.2996 55.9332ZM87.5433 70.128C88.191 67.168 86.3214 64.2509 83.3614 63.6032C80.4014 62.9555 77.4844 64.8252 76.8367 67.7851C76.189 70.7451 78.0586 73.6621 81.0186 74.3098C83.9785 74.9576 86.8956 73.0879 87.5433 70.128Z" fill="#1A216C" style="fill:#1A216C;fill:color(display-p3 0.1020 0.1294 0.4235);fill-opacity:1;"/>
<path d="M58.301 84.7041C57.5837 86.6252 56.8385 95.6443 54.4842 95.1292L31.039 89.9989C28.8801 89.5264 32.1162 78.6672 32.1493 75.8491C32.1936 71.7642 28.0974 60.9179 29.8399 58.0541C34.9917 55.2813 48.6766 39.85 52.994 38.9726C54.7185 38.6232 55.8312 39.2454 57.041 40.3598C57.6065 43.4828 60.0165 46.1291 61.1141 48.4576L68.3157 67.0058C66.0143 73.7804 60.8557 77.8006 58.3031 84.6943L58.301 84.7041ZM54.2118 61.2887C53.9815 62.2006 52.7435 67.7646 52.7154 68.1269C47.8395 71.6972 41.5722 65.9547 44.4104 61.1708C45.2076 59.82 47.0604 59.212 47.8774 57.3026C48.7968 55.1595 49.4308 51.3265 49.2441 48.9517C46.7132 51.1617 35.899 58.4792 35.1171 60.8365C34.7937 61.7997 36.4888 73.4206 36.9677 74.2727C37.7729 75.7387 38.9694 75.0895 39.8418 75.5465C43.8216 77.6151 48.6606 79.0322 53.3045 79.5161C53.9349 79.5824 54.5372 80.011 55.207 79.8505C55.7751 79.1252 55.5527 77.4284 55.8995 77.013C57.7707 74.7302 62.9224 69.8998 63.2727 66.8953C63.4533 65.3686 58.732 57.0981 57.6716 54.8802C56.7172 52.8799 56.4719 50.4923 54.8427 49.1428C54.7167 52.7595 50.9329 58.309 54.2215 61.2909L54.2118 61.2887ZM53.4165 83.6353L36.8095 80.0013L35.5269 85.8626L52.1339 89.4966L53.4165 83.6353Z" fill="#1A216C" style="fill:#1A216C;fill:color(display-p3 0.1020 0.1294 0.4235);fill-opacity:1;"/>
<path d="M81.0183 74.3097C83.9749 74.9566 86.8961 73.0844 87.5431 70.1278C88.19 67.1712 86.3177 64.25 83.3611 63.6031C80.4046 62.9561 77.4834 64.8284 76.8364 67.785C76.1894 70.7415 78.0617 73.6627 81.0183 74.3097Z" fill="#B2F6DB" style="fill:#B2F6DB;fill:color(display-p3 0.6980 0.9647 0.8588);fill-opacity:1;"/>
<path d="M15.7983 60.0999C18.7441 60.7445 21.6547 58.879 22.2993 55.9332C22.9439 52.9875 21.0784 50.0769 18.1326 49.4323C15.1868 48.7877 12.2763 50.6532 11.6317 53.599C10.9871 56.5447 12.8526 59.4553 15.7983 60.0999Z" fill="#F3F5F8" style="fill:#F3F5F8;fill:color(display-p3 0.9529 0.9608 0.9725);fill-opacity:1;"/>
<path d="M57.6862 24.7365C60.6157 25.3775 63.5103 23.5223 64.1514 20.5927C64.7924 17.6632 62.9372 14.7686 60.0076 14.1275C57.078 13.4865 54.1834 15.3417 53.5424 18.2713C52.9013 21.2009 54.7566 24.0954 57.6862 24.7365Z" fill="#F3F5F8" style="fill:#F3F5F8;fill:color(display-p3 0.9529 0.9608 0.9725);fill-opacity:1;"/>
<path d="M52.7169 68.1267C52.5522 70.1892 54.157 75.3925 55.8912 77.0106C55.5423 77.4359 55.7668 79.1228 55.1987 79.8482C54.531 79.9989 53.9287 79.5703 53.2962 79.5138C50.0433 76.509 44.0359 77.0165 39.8335 75.5442C38.9687 75.099 37.7646 75.7364 36.9594 74.2704C36.4924 73.4107 34.7973 61.7897 35.1088 60.8342C35.8907 58.4769 46.7049 51.1594 49.2358 48.9493C49.4225 51.3241 48.7885 55.1572 47.8691 57.3002C47.0499 59.2195 45.2091 59.8198 44.4021 61.1685C41.5758 65.9447 47.8312 71.6948 52.7071 68.1246L52.7169 68.1267Z" fill="#F3F5F8" style="fill:#F3F5F8;fill:color(display-p3 0.9529 0.9608 0.9725);fill-opacity:1;"/>
<path d="M55.8911 77.0107C54.1569 75.3925 52.5521 70.1892 52.7168 68.1268C52.7449 67.7644 53.9829 62.2004 54.2131 61.2886C54.8073 58.9004 55.4733 56.231 57.6632 54.8779C58.7138 57.0937 63.4351 65.3641 63.2643 66.8929C62.9118 69.9073 57.7721 74.73 55.8911 77.0107Z" fill="#B2F6DB" style="fill:#B2F6DB;fill:color(display-p3 0.6980 0.9647 0.8588);fill-opacity:1;"/>
<path d="M53.4176 83.6354L36.8105 80.0015L35.528 85.8628L52.135 89.4967L53.4176 83.6354Z" fill="#F3F5F8" style="fill:#F3F5F8;fill:color(display-p3 0.9529 0.9608 0.9725);fill-opacity:1;"/>
<path d="M57.6634 54.878C55.4735 56.2311 54.8075 58.9005 54.2133 61.2886C50.9247 58.3067 54.7084 52.7573 54.8344 49.1406C56.4636 50.4901 56.7089 52.8777 57.6634 54.878Z" fill="#DBD5F8" style="fill:#DBD5F8;fill:color(display-p3 0.8588 0.8353 0.9725);fill-opacity:1;"/>
<path d="M53.2946 79.514C48.6507 79.0301 43.8117 77.613 39.8319 75.5444C44.0343 77.0168 50.0417 76.5092 53.2946 79.514Z" fill="#B2F6DB" style="fill:#B2F6DB;fill:color(display-p3 0.6980 0.9647 0.8588);fill-opacity:1;"/>
</svg>
