<svg width="265" height="381" viewBox="0 0 265 381" fill="none" xmlns="http://www.w3.org/2000/svg">
<path d="M2.14197 0C-0.0440292 0.873317 -0.308723 2.33005 0.254883 4.49263C0.56459 5.68466 1.20563 7.06036 1.55135 8.22719C6.59859 25.3244 11.8205 42.2938 17.1864 59.2595C17.6042 60.5794 17.9535 63.1579 18.816 64.1483C19.4354 64.8614 20.4762 65.4052 21.445 65.2143L43.53 56.9889C44.1206 57.4715 44.6554 58.0315 45.1866 58.5771C48.6367 62.1226 52.6071 66.4765 55.7888 70.2579C57.0673 71.7777 57.9388 73.7314 59.1075 75.026C61.5563 77.7396 65.2783 75.1215 64.0539 72.0568C63.6415 71.0268 62.4783 70.0292 62.3432 68.9164L62.4297 49.7683L90.5091 39.0292C91.2005 38.6528 91.5606 37.9812 92 37.3762V35.3991C91.5678 34.8427 91.2851 34.1422 90.5613 33.8721C61.6428 22.546 32.6036 11.4954 3.76075 0H2.14377H2.14197ZM20.8328 21.0244L53.358 46.8098C53.2247 47.0025 53.023 47.0745 52.8232 47.1699C50.8587 48.1171 48.5682 48.6357 46.5317 49.4153C46.4489 49.4478 46.2814 49.6494 46.0527 49.7359C38.3351 52.6961 30.6049 55.6582 22.8099 58.4006L8.42986 11.2325C8.57931 10.9498 8.74316 11.2181 8.88181 11.3189C12.9855 14.3206 16.8947 17.8373 20.8328 21.0226V21.0244ZM20.1143 12.7594L81.0358 36.4758L60.3715 44.2997L59.6026 44.3537L20.7481 13.4725L20.1143 12.7612V12.7594ZM56.5955 51.9309V62.353L49.4055 54.5382L56.5955 51.9309Z" fill="#1A216C" style="fill:#1A216C;fill:color(display-p3 0.1020 0.1294 0.4235);fill-opacity:1;"/>
<path d="M20.8323 21.0246C16.8943 17.8393 12.9851 14.3208 8.88137 11.3209C8.74092 11.2183 8.57887 10.9518 8.42941 11.2345L22.8094 58.4026C30.6045 55.6602 38.3347 52.6999 46.0523 49.7379C46.281 49.6496 46.4484 49.448 46.5312 49.4174L20.8323 21.0264V21.0246Z" fill="#DAD26D" style="fill:#DAD26D;fill:color(display-p3 0.8549 0.8235 0.4275);fill-opacity:1;"/>
<path d="M20.1136 12.7598L20.7475 13.4728L59.602 44.3522L60.3709 44.3L81.0352 36.4762L20.1136 12.7598Z" fill="#F3F5F8" style="fill:#F3F5F8;fill:color(display-p3 0.9529 0.9608 0.9725);fill-opacity:1;"/>
<path d="M20.8322 21.0244L46.5311 49.4153C48.5677 48.6356 50.8563 48.1189 52.8226 47.1699C53.0225 47.0727 53.2224 47.0024 53.3574 46.8098L20.8322 21.0244Z" fill="#F7E17F" style="fill:#F7E17F;fill:color(display-p3 0.9686 0.8824 0.4980);fill-opacity:1;"/>
<path d="M56.5957 51.9307L49.4057 54.538L56.5957 62.3529V51.9307Z" fill="#F7E17F" style="fill:#F7E17F;fill:color(display-p3 0.9686 0.8824 0.4980);fill-opacity:1;"/>
<path d="M264.967 375.184C176.994 365.475 52.9601 256.447 161.467 200.184C188.967 185.925 222.992 196.684 227.467 220.684C231.941 244.684 172.731 302.132 127.967 211.684C110.809 114.184 95.9668 102.684 69 78.2485" stroke="#1A216C" style="stroke:#1A216C;stroke:color(display-p3 0.1020 0.1294 0.4235);stroke-opacity:1;" stroke-width="5" stroke-linecap="round" stroke-dasharray="10 15"/>
</svg>
