<svg width="87" height="104" viewBox="0 0 87 104" fill="none" xmlns="http://www.w3.org/2000/svg">
<path d="M23.5606 67.4575C23.5106 67.1075 23.6406 66.7375 23.5606 66.4575L25.5606 64.4575C25.9706 64.8275 27.8106 65.9675 28.5606 66.4575C32.0206 70.6675 27.3006 81.4375 33.5606 83.4575C33.6706 83.7675 33.4406 84.1975 33.5606 84.4575L34.5606 85.4575C34.7006 85.6975 35.2506 86.0875 35.5606 86.4575C35.7106 86.6375 35.2006 87.9675 35.6606 88.3175C37.5606 89.7375 46.5206 89.4275 49.2106 88.0675C49.5706 87.8875 54.4806 82.5375 54.6706 82.0775C56.5106 77.6075 54.7406 73.0475 55.5806 69.1575C55.6306 68.9275 57.8006 66.4975 58.5606 65.4575C62.2306 60.4175 67.5906 56.1575 68.5606 49.4575C84.4806 53.7375 86.3606 78.7075 77.9706 90.3675C65.6606 107.498 41.9506 108.228 29.1206 91.3875C21.5106 81.3975 25.0406 77.7275 23.5506 67.4575H23.5606ZM74.5606 74.4575C77.0306 71.9575 67.0206 61.9875 64.5706 64.4675C62.1206 66.9475 72.1106 76.9375 74.5606 74.4575Z" fill="#F7E17F" style="fill:#F7E17F;fill:color(display-p3 0.9686 0.8824 0.4980);fill-opacity:1;"/>
<path d="M68.5618 49.4575C67.5918 56.1575 62.2318 60.4175 58.5618 65.4575C51.5518 65.9775 55.5218 73.4475 54.5118 78.9075C52.9118 87.5575 42.6218 88.9375 35.5618 86.4575C35.2518 86.0875 34.7018 85.6975 34.5618 85.4575C34.3218 85.0475 33.7018 84.7475 33.5618 84.4575C33.4418 84.1975 33.6718 83.7675 33.5618 83.4575C33.0118 81.9375 31.8618 80.7775 31.6218 78.9075C31.2118 75.6475 32.2618 70.7375 31.4218 68.0775C30.8318 66.2375 29.1518 66.8475 28.5618 66.4575C27.8118 65.9675 25.9718 64.8275 25.5618 64.4575C17.4418 57.0675 14.5818 45.8375 18.0918 35.4875C27.7418 7.05754 73.5018 15.1975 68.5618 49.4575ZM27.5618 58.4575C29.3818 60.3275 31.6318 62.6575 34.2718 63.2475C37.0518 63.8775 49.1218 63.8975 51.8218 63.2175C58.3818 61.5475 63.2318 51.7375 63.5618 45.4575C64.8118 21.5875 33.2818 15.1175 23.8318 35.2275C19.9818 43.4075 21.2218 51.9475 27.5618 58.4575ZM49.5618 68.4575C49.0718 67.9575 37.6818 68.8275 35.5618 68.4575C32.8218 73.8675 48.9818 73.0575 49.5618 72.4575C49.7018 72.3175 49.6918 68.6075 49.5618 68.4575ZM49.5618 76.4575H35.5618C36.7718 85.3875 49.4018 86.2975 49.5618 76.4575Z" fill="#191D63" style="fill:#191D63;fill:color(display-p3 0.0980 0.1137 0.3882);fill-opacity:1;"/>
<path d="M74.5618 12.4677C77.1618 15.1577 67.3218 27.8677 64.0018 21.4677C62.7518 19.0577 70.7818 10.4877 74.5618 12.4677Z" fill="#1A216C" style="fill:#1A216C;fill:color(display-p3 0.1020 0.1294 0.4235);fill-opacity:1;"/>
<path d="M14.1121 17.8876C13.8821 17.5476 12.7721 17.5476 12.5921 16.7476C10.9521 9.59756 16.9621 11.9276 20.5321 15.9976C27.0221 23.3976 19.9421 26.5576 14.1121 17.8876Z" fill="#1A216C" style="fill:#1A216C;fill:color(display-p3 0.1020 0.1294 0.4235);fill-opacity:1;"/>
<path d="M45.431 0.607425C46.621 1.33742 48.821 15.2574 42.201 13.5074C39.651 12.8374 39.121 -3.29258 45.431 0.607425Z" fill="#191D63" style="fill:#191D63;fill:color(display-p3 0.0980 0.1137 0.3882);fill-opacity:1;"/>
<path d="M0.66155 41.5576C1.90155 39.6776 15.2315 39.5076 13.5515 44.9576C12.6715 47.8076 -3.41845 47.7076 0.66155 41.5576Z" fill="#191D63" style="fill:#191D63;fill:color(display-p3 0.0980 0.1137 0.3882);fill-opacity:1;"/>
<path d="M23.5619 66.4576C23.6419 66.7376 23.5119 67.1076 23.5619 67.4576C21.4019 71.0276 11.5819 80.6776 12.4619 70.9476C12.5519 69.9376 20.2219 63.4676 21.0919 63.5576C21.2919 63.5776 23.4819 66.1776 23.5719 66.4576H23.5619Z" fill="#1A216C" style="fill:#1A216C;fill:color(display-p3 0.1020 0.1294 0.4235);fill-opacity:1;"/>
<path d="M86.5118 41.5173C87.2118 42.3673 86.6717 45.7573 84.9217 46.3173C83.1717 46.8773 74.2218 47.0173 73.5718 44.9473C71.9018 39.6473 85.2818 40.0073 86.5118 41.5073V41.5173Z" fill="#191D63" style="fill:#191D63;fill:color(display-p3 0.0980 0.1137 0.3882);fill-opacity:1;"/>
<path d="M74.5624 74.4575C72.1124 76.9375 62.1024 66.9675 64.5724 64.4675C67.0424 61.9675 77.0324 71.9575 74.5624 74.4575Z" fill="#2B2E41" style="fill:#2B2E41;fill:color(display-p3 0.1686 0.1804 0.2549);fill-opacity:1;"/>
<path d="M33.5625 83.4575C27.3025 81.4375 32.0225 70.6675 28.5625 66.4575C29.1525 66.8475 30.8325 66.2375 31.4225 68.0775C32.2725 70.7375 31.2225 75.6475 31.6225 78.9075C31.8525 80.7775 33.0025 81.9375 33.5625 83.4575Z" fill="#B2B6B7" style="fill:#B2B6B7;fill:color(display-p3 0.6980 0.7137 0.7176);fill-opacity:1;"/>
<path d="M58.5619 65.4575C57.8019 66.4975 55.6319 68.9275 55.5819 69.1575C54.7319 73.0475 56.5019 77.6075 54.6719 82.0775C54.4819 82.5275 49.5719 87.8875 49.2119 88.0675C46.5219 89.4275 37.5719 89.7375 35.6619 88.3175C35.2019 87.9675 35.7119 86.6375 35.5619 86.4575C42.6219 88.9475 52.9219 87.5575 54.5119 78.9075C55.5219 73.4475 51.5519 65.9775 58.5619 65.4575Z" fill="#B2B6B7" style="fill:#B2B6B7;fill:color(display-p3 0.6980 0.7137 0.7176);fill-opacity:1;"/>
<path d="M34.5625 85.4575L33.5625 84.4575C33.7025 84.7475 34.3225 85.0475 34.5625 85.4575Z" fill="#B2B6B7" style="fill:#B2B6B7;fill:color(display-p3 0.6980 0.7137 0.7176);fill-opacity:1;"/>
<path d="M63.562 45.4576C49.252 41.6676 35.532 46.0976 27.562 58.4576C21.222 51.9475 19.982 43.4076 23.832 35.2276C33.282 15.1176 64.812 21.5876 63.562 45.4576ZM44.422 27.5876C43.182 26.7976 37.982 28.1376 36.362 28.7676C29.292 31.5176 25.282 39.0576 26.562 46.4676C32.442 47.8576 30.372 42.8076 32.352 38.7476C35.572 32.1276 43.892 33.0976 45.132 31.4976C45.802 30.6376 44.782 27.8176 44.422 27.5876Z" fill="#F3F5F8" style="fill:#F3F5F8;fill:color(display-p3 0.9529 0.9608 0.9725);fill-opacity:1;"/>
<path d="M63.5625 45.4572C63.2325 51.7372 58.3825 61.5372 51.8225 63.2172C49.1325 63.9072 37.0625 63.8772 34.2725 63.2472C31.6325 62.6572 29.3825 60.3272 27.5625 58.4572C35.5325 46.0972 49.2525 41.6672 63.5625 45.4572Z" fill="#F7E17F" style="fill:#F7E17F;fill:color(display-p3 0.9686 0.8824 0.4980);fill-opacity:1;"/>
<path d="M49.5625 76.4575C49.4025 86.2975 36.7725 85.3875 35.5625 76.4575H49.5625Z" fill="#F7E17F" style="fill:#F7E17F;fill:color(display-p3 0.9686 0.8824 0.4980);fill-opacity:1;"/>
<path d="M49.5606 68.4572C49.7006 68.5972 49.7006 72.3072 49.5606 72.4572C48.9806 73.0672 32.8206 73.8672 35.5606 68.4572C37.6806 68.8272 49.0706 67.9572 49.5606 68.4572Z" fill="#F7E17F" style="fill:#F7E17F;fill:color(display-p3 0.9686 0.8824 0.4980);fill-opacity:1;"/>
<path d="M44.4215 27.5876C44.7815 27.8176 45.8015 30.6376 45.1315 31.4976C43.8815 33.0976 35.5715 32.1276 32.3515 38.7476C30.3815 42.8076 32.4515 47.8476 26.5615 46.4676C25.2715 39.0576 29.2915 31.5076 36.3615 28.7676C37.9815 28.1376 43.1815 26.7976 44.4215 27.5876Z" fill="#1A216C" style="fill:#1A216C;fill:color(display-p3 0.1020 0.1294 0.4235);fill-opacity:1;"/>
</svg>
