<svg width="90" height="86" viewBox="0 0 90 86" fill="none" xmlns="http://www.w3.org/2000/svg">
<path d="M21.317 58.832C23.107 54.462 25.587 50.3719 28.247 46.4719C27.867 44.2919 14.3471 33.972 12.7671 30.802C12.3271 29.922 12.4571 29.662 12.6971 28.802C13.1371 27.182 27.0771 13.0019 29.2971 11.3119C31.5171 9.62194 33.207 7.89194 36.027 10.1319L49.8371 24.832C51.6871 25.312 55.8771 19.232 57.3171 17.832C59.3471 15.862 66.5671 8.40194 68.6171 8.94194C69.9871 9.30194 88.2371 27.592 88.8671 28.862C90.6871 32.522 75.6671 43.912 73.3371 47.332C75.9471 51.032 89.697 61.5119 89.187 65.1019C89.037 66.1519 88.057 67.5219 87.327 68.3519C82.177 70.3819 72.5971 84.6819 68.6171 85.7319C67.2271 86.1019 66.7871 85.5719 65.7771 84.9019C63.2471 83.2019 51.887 69.862 50.827 69.862C48.697 74.372 17.777 84.302 15.957 83.772C14.867 83.462 14.3771 82.4219 14.2971 81.3419C14.1971 80.0819 20.2971 61.3819 21.3371 58.8419L21.317 58.832ZM31.317 23.832C31.337 20.722 33.257 21.932 34.377 20.432C36.077 18.172 35.3571 14.2819 32.8371 14.8419C31.7971 15.0719 18.207 29.152 18.387 30.202C20.557 32.202 30.927 44.0819 32.677 43.7619L47.3071 29.3219L44.827 26.8419C42.217 31.2619 33.8771 34.9519 38.2671 27.2919C39.4371 25.2519 41.177 26.0319 41.317 21.8419C41.437 18.2919 38.877 19.0219 39.317 21.8419C38.967 21.8619 38.587 21.7719 38.317 21.8419C35.867 22.5119 34.107 24.3919 31.317 23.8419V23.832ZM29.747 52.8419L45.3171 68.422L83.427 30.332L67.8571 14.7519L29.747 52.8419ZM71.3171 53.8119C71.9871 52.9319 70.3871 50.482 68.8371 50.832C67.3771 51.162 56.7371 63.572 54.3971 65.462C54.1471 66.882 65.507 77.942 67.827 78.862C69.327 78.862 82.377 65.9319 82.377 64.3219C82.377 62.7119 80.347 61.082 79.347 61.832C78.447 62.502 77.3171 68.6319 72.3371 66.8219C70.3671 63.5619 78.277 58.782 76.327 56.832C74.377 54.882 68.8471 63.2219 66.3371 60.8219C63.5271 58.1319 71.047 54.1719 71.327 53.8119H71.3171ZM40.317 70.8219C38.607 68.7619 28.5471 56.912 26.3271 58.832C26.0071 59.112 24.3371 66.7319 24.4471 67.1519C24.5571 67.5719 29.9771 73.162 30.3371 73.392C32.0671 74.502 37.977 70.7219 40.317 70.8219Z" fill="#191D63" style="fill:#191D63;fill:color(display-p3 0.0980 0.1137 0.3882);fill-opacity:1;"/>
<path d="M57.317 17.8322C55.867 19.2322 51.677 25.3122 49.837 24.8322L36.027 10.1322C33.207 7.8922 31.607 9.5522 29.297 11.3122C26.987 13.0722 13.137 27.1822 12.697 28.8022C12.467 29.6622 12.327 29.9122 12.767 30.8022C14.347 33.9722 27.867 44.2822 28.247 46.4722C25.587 50.3722 23.107 54.4622 21.317 58.8322C0.766968 53.1022 -6.68304 27.2522 6.80696 10.8222C21.077 -6.5478 48.167 -2.13778 57.317 17.8322Z" fill="#F7E17F" style="fill:#F7E17F;fill:color(display-p3 0.9686 0.8824 0.4980);fill-opacity:1;"/>
<path d="M36.0273 59.1322C51.0573 56.0722 63.0773 39.7222 58.0473 24.5622L67.8574 14.7622L83.4273 30.3422L45.3173 68.4322L36.0273 59.1322Z" fill="#F3F5F8" style="fill:#F3F5F8;fill:color(display-p3 0.9529 0.9608 0.9725);fill-opacity:1;"/>
<path d="M36.0261 59.132L29.7461 52.852L58.0461 24.562C63.0661 39.732 51.0561 56.072 36.0261 59.132Z" fill="#F7E17F" style="fill:#F7E17F;fill:color(display-p3 0.9686 0.8824 0.4980);fill-opacity:1;"/>
<path d="M71.3169 53.8123C71.0369 54.1823 63.5169 58.1323 66.3269 60.8223C68.8369 63.2223 74.4269 54.9423 76.3169 56.8323C78.2069 58.7223 70.3569 63.5623 72.3269 66.8223C77.3169 68.6423 78.4369 62.5123 79.3369 61.8323C80.3469 61.0823 82.3769 62.7123 82.3669 64.3223C82.3569 65.9323 69.3169 78.8623 67.8169 78.8623C65.4969 77.9423 54.1369 66.8923 54.3869 65.4623C56.7369 63.5723 67.3669 51.1623 68.8269 50.8323C70.3769 50.4823 71.9769 52.9323 71.3069 53.8123H71.3169Z" fill="#F3F5F8" style="fill:#F3F5F8;fill:color(display-p3 0.9529 0.9608 0.9725);fill-opacity:1;"/>
<path d="M41.3165 21.8324C41.1765 26.0224 39.4365 25.2524 38.2665 27.2824C33.8765 34.9424 42.2265 31.2624 44.8265 26.8324L47.3065 29.3124L32.6765 43.7524C30.9265 44.0624 20.5565 32.1824 18.3865 30.1924C18.2065 29.1524 31.7965 15.0624 32.8365 14.8324C35.3665 14.2824 36.0765 18.1724 34.3765 20.4224C33.2465 21.9224 31.3365 20.7124 31.3165 23.8224C31.2765 29.0524 36.4065 24.3124 38.3165 21.8224C38.5865 21.7524 38.9665 21.8424 39.3165 21.8224C39.9765 21.7824 40.6565 21.8524 41.3165 21.8224V21.8324ZM29.3265 27.8224H24.3165C23.7865 32.0524 25.1565 33.3524 29.3165 32.8324V27.8224H29.3265Z" fill="#F7E17F" style="fill:#F7E17F;fill:color(display-p3 0.9686 0.8824 0.4980);fill-opacity:1;"/>
<path d="M40.3166 70.8221C37.9766 70.7221 32.0666 74.5021 30.3366 73.3921C29.9766 73.1621 24.5566 67.5621 24.4466 67.1521C24.3366 66.7421 26.0066 59.1121 26.3266 58.8321C28.5466 56.9121 38.5966 68.7621 40.3166 70.8221Z" fill="#F3F5F8" style="fill:#F3F5F8;fill:color(display-p3 0.9529 0.9608 0.9725);fill-opacity:1;"/>
<path d="M38.3166 21.832C36.4066 24.322 31.2766 29.062 31.3166 23.832C34.1066 24.382 35.8666 22.502 38.3166 21.832Z" fill="#55595A" style="fill:#55595A;fill:color(display-p3 0.3333 0.3490 0.3529);fill-opacity:1;"/>
<path d="M39.3165 21.8321C38.8765 19.0121 41.4365 18.2821 41.3165 21.8321C40.6565 21.8621 39.9765 21.7921 39.3165 21.8321Z" fill="#55595A" style="fill:#55595A;fill:color(display-p3 0.3333 0.3490 0.3529);fill-opacity:1;"/>
<path d="M29.3275 27.8223V32.8323C25.1575 33.3523 23.7875 32.0523 24.3175 27.8323H29.3275V27.8223Z" fill="#2B2E41" style="fill:#2B2E41;fill:color(display-p3 0.1686 0.1804 0.2549);fill-opacity:1;"/>
</svg>
