<svg width="109" height="105" viewBox="0 0 109 105" fill="none" xmlns="http://www.w3.org/2000/svg">
<path d="M12.256 42.4124C11.5815 41.9638 11.3984 41.0534 11.847 40.379C12.2956 39.7046 13.2059 39.5215 13.8804 39.97C14.5548 40.4186 14.7379 41.329 14.2894 42.0034C13.8408 42.6778 12.9304 42.8609 12.256 42.4124Z" fill="#020100" style="fill:#020100;fill:color(display-p3 0.0078 0.0039 0.0000);fill-opacity:1;"/>
<path d="M54.8341 70.7527C54.1597 70.3041 53.9766 69.3938 54.4251 68.7193C54.8737 68.0449 55.7841 67.8618 56.4585 68.3104C57.1329 68.7589 57.3161 69.6693 56.8675 70.3437C56.4189 71.0182 55.5085 71.2013 54.8341 70.7527Z" fill="#020100" style="fill:#020100;fill:color(display-p3 0.0078 0.0039 0.0000);fill-opacity:1;"/>
<path d="M68.8538 47.5333C64.9536 44.5524 59.712 50.431 58.2616 53.7018C57.3102 55.8486 57.0155 59.0042 57.7708 61.2456C59.4069 66.109 66.1585 64.9956 66.2349 60.0311C66.2508 59.0459 65.6946 58.336 66.1601 57.3607C67.1763 55.2265 69.2495 54.6995 70.1959 52.7653C71.0377 51.0465 70.349 48.6744 68.8538 47.5333ZM67.1361 49.8587C67.3851 50.0446 67.5637 50.4159 67.6228 50.722C67.8744 52.0276 66.4337 52.5314 65.6778 53.2606C64.3667 54.5247 63.1378 56.0877 63.0388 57.9909C62.9817 59.1055 64.046 60.9557 62.3188 61.4461C60.2141 62.0419 60.0702 58.5415 60.2512 57.21C60.5951 54.6816 62.4408 52.1482 64.4071 50.5849C65.1481 49.9944 66.1836 49.1539 67.1366 49.861L67.1361 49.8587Z" fill="#020100" style="fill:#020100;fill:color(display-p3 0.0078 0.0039 0.0000);fill-opacity:1;"/>
<path d="M50.7263 69.6074C50.3247 69.2344 49.7628 69.2618 49.2517 69.2986C44.4038 69.6439 38.6062 71.9313 33.649 72.4319C31.7038 73.1032 32.3639 75.6009 34.358 75.349C39.0881 73.9256 45.2792 73.7834 49.8436 72.2417C51.0884 71.8214 51.7859 70.589 50.7248 69.6064L50.7263 69.6074Z" fill="#020100" style="fill:#020100;fill:color(display-p3 0.0078 0.0039 0.0000);fill-opacity:1;"/>
<path d="M49.263 61.7289C48.7796 61.2525 48.3926 61.3047 47.7894 61.4126C46.3258 61.6751 40.3797 63.5523 39.0726 64.1918C37.1935 65.1127 38.0551 67.3106 39.7731 67.0727L48.7151 64.203C49.7614 63.7932 50.0751 62.5255 49.2626 61.7265L49.263 61.7289Z" fill="#020100" style="fill:#020100;fill:color(display-p3 0.0078 0.0039 0.0000);fill-opacity:1;"/>
<path d="M38.1705 18.7459L34.0945 24.8743C34.0198 31.0516 32.8017 37.7817 32.9381 43.9019C32.9579 44.8334 33.0517 45.415 33.4904 46.2586L19.968 66.6482C19.674 67.4179 21.289 71.0333 21.7277 71.9075C22.1108 72.6693 22.1368 73.1814 23.1053 73.3938C23.6015 73.5019 28.5376 73.419 28.9362 73.2666C29.1336 73.1902 29.3344 73.1425 29.4889 72.9806L43.065 52.6267C43.7943 52.6108 44.5416 52.6721 45.2382 52.3718L62.5543 43.8029L66.6303 37.6744L70.6454 40.3449C71.5616 40.9542 73.4417 40.1114 74.0954 39.2939C75.5652 37.4574 78.8936 32.5909 79.8826 30.5527C80.3331 29.6244 80.1323 28.3832 79.562 27.5661C67.7723 19.2747 55.5243 11.5256 43.5707 3.42872C42.1777 2.48597 40.4828 2.74128 39.4205 4.03233C37.989 5.77427 34.5871 10.7913 33.6294 12.7608C33.2334 13.5766 33.403 15.575 34.1526 16.0736L38.1677 18.744L38.1705 18.7459ZM74.8803 27.7164L77.2761 29.3099L71.7475 37.6223L36.2416 14.0074L41.7702 5.69492L44.166 7.28835L42.3388 10.0356C41.9078 10.6836 43.0331 12.0104 43.9349 11.9036C44.0544 11.8894 44.8012 11.5288 44.8284 11.4879L46.5617 8.88177L48.7457 10.3343C49.4643 10.8123 45.4435 13.6156 47.9522 14.9013C48.2359 15.0473 49.183 15.0255 49.291 14.8632L51.2121 11.9747L53.6079 13.5681L51.8745 16.1743C51.068 17.387 53.4637 18.9804 54.2703 17.7677L56.0036 15.1616L58.3994 16.755L56.4783 19.6434C56.3712 19.8044 56.7173 20.6862 56.9607 20.8928C59.1164 22.7094 60.1457 17.9165 60.8657 18.3953L63.0497 19.8479L61.3164 22.454C61.2892 22.495 61.244 23.3222 61.2785 23.4388C61.5286 24.3118 63.1882 24.8352 63.6183 24.1886L65.4455 21.4413L67.8413 23.0348L66.0141 25.7821C65.6657 26.3058 66.4267 27.3048 66.9734 27.536C67.361 27.7002 68.3981 27.3901 68.5962 27.0922L70.2366 24.6258L72.4912 26.1254L70.8508 28.5917C70.6527 28.8896 70.769 29.9668 71.0689 30.2599C71.4959 30.6742 72.709 30.9903 73.0573 30.4666L74.8846 27.7193L74.8803 27.7164ZM50.8593 35.7212C51.2364 35.2125 51.135 34.076 50.6451 33.7502L37.4719 24.9887L40.5639 20.3398L64.235 36.0834L61.143 40.7323L56.1411 37.4056C55.7656 37.1558 54.6525 37.6108 54.3817 38.0639C54.1822 38.3976 54.1067 39.506 54.4075 39.706L58.5637 42.4703C58.0305 42.9383 57.2869 43.2481 56.6481 43.5686C52.4544 45.6827 48.1768 47.6412 43.9765 49.7407C41.8966 48.502 39.8628 47.1513 37.8707 45.7775C37.3709 45.4329 35.8949 44.6365 35.7782 44.1842C36.3225 39.144 36.155 33.8849 36.6904 28.8672C36.7201 28.5836 36.6742 28.2761 36.8677 28.0403C37.5745 28.5023 38.2752 28.9826 38.9811 29.446C42.4003 31.6835 45.776 33.9958 49.1943 36.2347C49.6502 36.4279 50.571 36.1119 50.8607 35.7222L50.8593 35.7212ZM35.8542 47.8939L40.6443 51.0798L37.4584 55.8699L34.8081 49.7516C34.7858 49.1544 35.5863 48.4468 35.8552 47.8925L35.8542 47.8939ZM32.7622 52.5429C33.9658 54.4348 34.4432 56.7418 35.5843 58.6878L33.5223 61.7881L30.8411 55.4313L32.7622 52.5429ZM28.8261 58.461C30.0296 60.3529 30.5071 62.6599 31.6481 64.6059L29.5862 67.7062L26.905 61.3495L28.8261 58.461ZM24.8909 64.3777L27.6206 70.3615C27.4131 70.6796 24.4819 70.6014 24.2584 70.4201C24.1266 70.3121 22.8763 67.4097 22.9712 67.2671L24.8923 64.3786L24.8909 64.3777Z" fill="#020100" style="fill:#020100;fill:color(display-p3 0.0078 0.0039 0.0000);fill-opacity:1;"/>
<path d="M15.217 45.9897C13.933 44.877 12.7324 46.1739 12.8164 47.704C13.0726 52.3888 15.4372 58.2601 15.9024 63.0716C16.3827 64.9977 18.9297 64.6616 18.881 62.7171L15.6815 46.7608C15.6032 46.4868 15.4312 46.1728 15.218 45.9883L15.217 45.9897Z" fill="#020100" style="fill:#020100;fill:color(display-p3 0.0078 0.0039 0.0000);fill-opacity:1;"/>
<path d="M23.2472 44.6293C22.2995 43.6385 21.0391 44.0058 20.6888 45.2674L21.4728 54.8746C21.9764 56.5942 24.2518 56.4643 24.3723 54.4125C24.4517 53.0562 23.8965 46.7513 23.589 45.4166C23.5228 45.1303 23.4609 44.8529 23.2486 44.6302L23.2472 44.6293Z" fill="#020100" style="fill:#020100;fill:color(display-p3 0.0078 0.0039 0.0000);fill-opacity:1;"/>
<path d="M74.881 27.716L73.0537 30.4633C72.7054 30.987 71.4899 30.6714 71.0653 30.2566C70.764 29.9626 70.6491 28.8863 70.8472 28.5884L72.4876 26.1221L70.233 24.6226L68.5926 27.0889C68.3945 27.3868 67.356 27.6959 66.9698 27.5327C66.4226 27.2991 65.6621 26.3026 66.0105 25.7788L67.8377 23.0315L65.4419 21.4381L63.6147 24.1854C63.1837 24.8334 61.525 24.3085 61.2749 23.4355C61.2418 23.3199 61.2856 22.4917 61.3128 22.4508L63.0461 19.8446L60.8621 18.3921C60.1436 17.9141 59.1128 22.7062 56.9571 20.8896C56.7128 20.6843 56.3667 19.8025 56.4747 19.6402L58.3958 16.7517L56 15.1583L54.2667 17.7644C53.4601 18.9771 51.0644 17.3837 51.8709 16.171L53.6043 13.5649L51.2085 11.9714L49.2874 14.8599C49.1803 15.0208 48.2333 15.0426 47.9486 14.898C45.4399 13.6123 49.4621 10.8099 48.7421 10.3311L46.5581 8.87849L44.8248 11.4846C44.7976 11.5255 44.0522 11.887 43.9313 11.9003C43.0295 12.0071 41.9051 10.679 42.3352 10.0324L44.1624 7.28507L41.7666 5.69165L36.238 14.0041L71.7439 37.6191L77.2725 29.3066L74.8767 27.7132L74.881 27.716Z" fill="#F3F5F8" style="fill:#F3F5F8;fill:color(display-p3 0.9529 0.9608 0.9725);fill-opacity:1;"/>
<path d="M50.8589 35.7212C50.5691 36.1109 49.6483 36.427 49.1924 36.2337C45.7717 33.9953 42.397 31.6816 38.9792 29.445L37.8702 45.7775C39.8623 47.1513 41.8962 48.502 43.976 49.7407C48.1777 47.6421 52.4553 45.6836 56.6477 43.5686C57.285 43.2472 58.03 42.9383 58.5632 42.4703L54.407 39.706C54.1077 39.507 54.1817 38.3976 54.3812 38.0639L50.8589 35.7212Z" fill="#F7E17F" style="fill:#F7E17F;fill:color(display-p3 0.9686 0.8824 0.4980);fill-opacity:1;"/>
<path d="M54.383 38.0631C54.6539 37.6099 55.7669 37.1549 56.1424 37.4047L61.1443 40.7315L64.2363 36.0825L40.5653 20.3389L37.4733 24.9879L50.6464 33.7493C51.1349 34.0742 51.2377 35.2116 50.8607 35.7204L54.383 38.0631Z" fill="#DAD26D" style="fill:#DAD26D;fill:color(display-p3 0.8549 0.8235 0.4275);fill-opacity:1;"/>
<path d="M38.9786 29.4458C38.2718 28.9838 37.571 28.5035 36.8652 28.0402C36.6717 28.276 36.719 28.5844 36.6878 28.8671C36.1525 33.8847 36.3214 39.1447 35.7757 44.184C35.8924 44.6363 37.3698 45.4336 37.8682 45.7773L38.9772 29.4449L38.9786 29.4458Z" fill="#DAD26D" style="fill:#DAD26D;fill:color(display-p3 0.8549 0.8235 0.4275);fill-opacity:1;"/>
<path d="M35.8525 47.8927C35.5836 48.447 34.784 49.1532 34.8054 49.7518L37.4557 55.8701L40.6416 51.08L35.8515 47.8941L35.8525 47.8927Z" fill="#F3F5F8" style="fill:#F3F5F8;fill:color(display-p3 0.9529 0.9608 0.9725);fill-opacity:1;"/>
<path d="M32.7626 52.5411L30.8415 55.4296L33.5227 61.7863L35.5847 58.6861C34.4427 56.7415 33.9647 54.4321 32.7626 52.5411Z" fill="#F3F5F8" style="fill:#F3F5F8;fill:color(display-p3 0.9529 0.9608 0.9725);fill-opacity:1;"/>
<path d="M28.8271 58.4601L26.906 61.3486L29.5872 67.7053L31.6491 64.6051C30.5071 62.6604 30.0292 60.3511 28.8271 58.4601Z" fill="#F3F5F8" style="fill:#F3F5F8;fill:color(display-p3 0.9529 0.9608 0.9725);fill-opacity:1;"/>
<path d="M24.8907 64.3778L22.9695 67.2662C22.8756 67.4074 24.125 70.3112 24.2567 70.4193C24.4803 70.6005 27.4114 70.6787 27.619 70.3606L24.8892 64.3768L24.8907 64.3778Z" fill="#F3F5F8" style="fill:#F3F5F8;fill:color(display-p3 0.9529 0.9608 0.9725);fill-opacity:1;"/>
<path d="M67.1339 49.8597C66.1809 49.1526 65.1468 49.994 64.4044 50.5836C62.4381 52.147 60.5923 54.6803 60.2485 57.2087C60.0675 58.5402 60.2119 62.0429 62.3161 61.4448C64.0432 60.9544 62.9789 59.1042 63.036 57.9896C63.1351 56.0864 64.364 54.5234 65.6751 53.2593C66.43 52.5315 67.8708 52.0277 67.6201 50.7207C67.561 50.4146 67.3824 50.0433 67.1334 49.8574L67.1339 49.8597Z" fill="#A6E8F8" style="fill:#A6E8F8;fill:color(display-p3 0.6510 0.9098 0.9725);fill-opacity:1;"/>
<path d="M103.62 43.1757C102.049 42.6563 100.512 42.6524 99.1494 43.7006C97.1798 45.217 97.8506 46.6853 96.8302 48.5072C94.2033 53.1947 90.2362 50.9512 86.1489 51.8735C80.9878 53.0388 76.93 56.9477 75.3677 61.9787C74.8063 63.7841 74.9006 65.372 73.5522 66.9187C70.7746 70.103 66.4318 68.2958 62.5845 69.4267C57.5582 70.9036 52.3881 76.3105 52.3225 81.7485C52.2724 85.8345 57.2845 87.7468 59.9146 84.6741C61.3545 82.9928 60.6503 81.0054 62.8061 79.0224C65.4251 76.6123 67.9814 77.9032 71.0427 77.4978C76.5274 76.7738 81.1663 72.7933 82.8845 67.5462C83.73 64.9646 83.4236 62.9668 86.0649 61.1723C88.3191 59.6416 90.5048 60.5007 92.9606 60.2648C96.6907 59.9071 99.9368 58.1279 102.554 55.4724C103.165 54.3798 104.141 53.3226 104.709 52.2324C105.324 51.0509 106.168 47.9901 106.029 46.6571C105.917 45.5912 105.334 44.7778 104.748 43.9259L103.621 43.1766L103.62 43.1757ZM93.1974 54.4621C95.937 53.9466 98.2932 52.0174 99.5668 49.5454C100.187 48.3408 100.168 45.2678 102.171 45.963C103.658 46.4796 103.083 48.1374 102.711 49.2786C101.237 53.804 97.2321 56.999 92.5103 57.4118C89.888 57.6408 88.2365 56.8418 85.5778 58.1421C79.4748 61.1306 81.6544 66.7322 77.4514 71.135C71.6673 77.1924 65.9839 72.3922 61.0101 76.7751C59.8187 77.8255 59.1101 78.7715 58.5244 80.2553C58.0986 81.3364 58.2055 83.2238 56.7116 83.3115C54.5524 83.4352 55.3201 80.6674 55.766 79.4673C57.077 75.947 59.9182 73.2856 63.5078 72.1992C67.8317 70.8905 71.1806 73.2706 75.1505 69.399C78.1747 66.45 77.244 63.7805 78.9942 60.6378C80.9048 57.2048 84.1552 55.0151 88.0286 54.543C89.7617 54.3314 91.5336 54.7748 93.1984 54.4607L93.1974 54.4621Z" fill="#020100" style="fill:#020100;fill:color(display-p3 0.0078 0.0039 0.0000);fill-opacity:1;"/>
<path d="M80.3456 88.866L81.3766 87.3159C82.5476 83.9448 79.6462 80.4451 76.1157 81.4854C74.1103 82.0758 74.0937 83.7325 71.5887 83.2495C70.0111 82.9455 68.7266 81.8428 67.056 81.9514C62.9388 82.2206 61.4662 87.6738 64.878 89.9348C68.2897 92.1958 74.2869 92.7188 77.8364 90.6548L80.3456 88.866ZM78.4381 84.7934C80.2582 86.6983 75.3256 88.7873 73.8446 89.0057C71.8431 89.2994 68.0215 88.5822 66.4162 87.3373C65.0386 86.2704 66.3546 84.3805 67.8924 84.8942C70.1961 85.6648 72.3555 86.9951 74.8911 85.7086C76.1539 85.0682 77.03 83.3193 78.4381 84.7934Z" fill="#020100" style="fill:#020100;fill:color(display-p3 0.0078 0.0039 0.0000);fill-opacity:1;"/>
<path d="M93.1967 54.4607C91.5319 54.7747 89.76 54.3313 88.0269 54.5429C84.1535 55.015 80.9031 57.2047 78.9925 60.6377C77.2423 63.7804 78.173 66.45 75.1488 69.3989C71.1799 73.2691 67.831 70.8891 63.5061 72.1992C59.9165 73.2856 57.0753 75.947 55.7643 79.4673C55.317 80.6664 54.5507 83.4351 56.7099 83.3115C58.2043 83.2261 58.0969 81.3363 58.5227 80.2552C59.1084 78.7714 59.818 77.824 61.0084 76.775C65.9808 72.3912 71.6657 77.1923 77.4497 71.1349C81.6527 66.7321 79.4731 61.1305 85.5761 58.142C88.2334 56.8408 89.8849 57.6398 92.5086 57.4117C97.2304 56.9989 101.236 53.8025 102.709 49.2785C103.081 48.1373 103.655 46.4786 102.17 45.9629C100.168 45.2672 100.186 48.3394 99.5651 49.5453C98.292 52.0197 95.9353 53.9465 93.1957 54.4621L93.1967 54.4607Z" fill="#A6E8F8" style="fill:#A6E8F8;fill:color(display-p3 0.6510 0.9098 0.9725);fill-opacity:1;"/>
<path d="M78.4361 84.7934C77.0294 83.3202 76.151 85.0695 74.8891 85.7086C72.3535 86.9951 70.1941 85.6648 67.8905 84.8942C66.3527 84.3804 65.0366 86.2704 66.4142 87.3373C68.021 88.5831 71.8425 89.3003 73.8426 89.0057C75.3227 88.7887 80.2562 86.6983 78.4361 84.7934Z" fill="#A6E8F8" style="fill:#A6E8F8;fill:color(display-p3 0.6510 0.9098 0.9725);fill-opacity:1;"/>
</svg>
