<svg width="127" height="122" viewBox="0 0 127 122" fill="none" xmlns="http://www.w3.org/2000/svg">
<path d="M85.9909 50.6616C86.2043 61.9711 95.8806 60.3559 90.9175 49.8082C112.697 48.1059 126.825 67.6816 120.473 88.3694C114.995 106.196 92.0874 113.919 76.4672 104.071C71.3171 100.822 67.1411 92.5334 62.5757 91.2539L69.4828 90.0574L68.6277 85.1209C67.0305 85.5092 65.2584 85.532 63.6912 85.976L62.1551 77.1081C69.8466 75.1668 66.5417 74.0748 63.9163 69.6988C66.9965 62.6394 71.3848 55.2215 78.8651 52.1193C81.1574 51.1741 83.6286 51.2028 85.9891 50.6518L85.9909 50.6616ZM94.509 71.3615C96.1012 69.949 94.4955 60.7379 90.6291 62.0876C86.4479 63.5528 89.67 75.6503 94.509 71.3615ZM85.502 77.1335L87.9769 91.4207C88.3371 93.4998 102.556 91.1584 103.404 89.3167C104.158 87.6941 101.789 74.3121 99.7892 74.6586L85.502 77.1335ZM75.2669 84.1941C70.4897 86.5541 73.5821 90.1693 79.8668 88.3093C86.1516 86.4493 82.1207 80.8147 75.2669 84.1941Z" fill="#A6E8F8" style="fill:#A6E8F8;fill:color(display-p3 0.6510 0.9098 0.9725);fill-opacity:1;"/>
<path d="M90.9179 49.8081C95.881 60.3558 86.2047 61.9711 85.9913 50.6615C88.6226 50.0332 88.0439 50.0319 90.9179 49.8081Z" fill="#1A216C" style="fill:#1A216C;fill:color(display-p3 0.1020 0.1294 0.4235);fill-opacity:1;"/>
<path d="M63.6937 85.9858C65.2609 85.5418 67.033 85.519 68.6302 85.1307L69.4853 90.0672L62.5782 91.2637C62.2158 91.1641 61.1055 91.8436 60.7284 91.4826C57.9942 88.8811 61.3356 86.6684 63.6954 85.9957L63.6937 85.9858Z" fill="#1A216C" style="fill:#1A216C;fill:color(display-p3 0.1020 0.1294 0.4235);fill-opacity:1;"/>
<path d="M85.502 77.1333L99.7892 74.6584C101.789 74.3119 104.17 87.7021 103.404 89.3164C102.544 91.1501 88.3353 93.4897 87.9769 91.4205L85.502 77.1333ZM97.0314 79.1855L91.1096 80.2113L92.3061 87.1185L98.2279 86.0926L97.0314 79.1855Z" fill="#1A216C" style="fill:#1A216C;fill:color(display-p3 0.1020 0.1294 0.4235);fill-opacity:1;"/>
<path d="M94.5083 71.3615C89.6694 75.6503 86.4374 63.5545 90.6285 62.0876C94.5047 60.7362 96.1006 69.949 94.5083 71.3615Z" fill="#1A216C" style="fill:#1A216C;fill:color(display-p3 0.1020 0.1294 0.4235);fill-opacity:1;"/>
<path d="M75.2674 84.1938C82.1212 80.8144 86.3162 86.4004 79.8673 88.3091C73.4185 90.2178 70.4786 86.5457 75.2674 84.1938Z" fill="#1A216C" style="fill:#1A216C;fill:color(display-p3 0.1020 0.1294 0.4235);fill-opacity:1;"/>
<path d="M97.0214 79.1876L91.0996 80.2134L92.2961 87.1205L98.2179 86.0947L97.0214 79.1876Z" fill="#A6E8F8" style="fill:#A6E8F8;fill:color(display-p3 0.6510 0.9098 0.9725);fill-opacity:1;"/>
<path d="M62.1558 77.118C59.5493 77.7725 46.7562 80.2017 45.2955 79.5616C41.2843 77.7903 47.1989 72.7975 47.0811 72.1176L42.558 46.0065C39.9721 46.5457 37.0704 46.5511 34.6798 47.8076C32.2892 49.064 32.6472 52.3613 29.8851 53.1138C28.7215 53.427 26.6059 53.4586 26.4147 52.355L23.6838 36.5898C23.665 36.4814 24.7973 34.8746 24.9057 34.8558L71.216 26.8336C71.3244 26.8149 72.9313 27.9472 72.9501 28.0556L75.681 43.8208C76.5156 48.6391 67.3174 42.4685 66.3516 42.3415C63.6202 41.9824 60.9758 42.8871 58.3331 43.2738C60.641 50.9729 60.0135 63.1689 63.9269 69.7069C66.5523 74.083 69.8572 75.1749 62.1657 77.1163L62.1558 77.118ZM68.611 32.3594C66.9956 31.1778 34.3512 38.2941 29.1979 39.1867C29.0009 39.2209 29.6836 43.1622 29.8807 43.128L46.6312 40.2264L52.4345 73.7275L58.3464 72.7034L52.7992 40.6803C52.7804 40.5719 53.9128 38.9651 54.0212 38.9463L69.2937 36.3007C69.4908 36.2665 68.7728 32.4734 68.611 32.3594Z" fill="#1A216C" style="fill:#1A216C;fill:color(display-p3 0.1020 0.1294 0.4235);fill-opacity:1;"/>
<path d="M88.9784 3.45903L91.624 18.7316C91.9261 20.4756 86.3912 21.3329 84.9844 21.4142C87.9805 23.8283 88.3415 27.0844 88.5082 30.8005C86.7858 32.1645 84.9235 32.4871 82.8525 31.7802C80.0227 28.6269 83.1631 22.7345 83.0777 22.2418C82.692 20.015 79.3666 22.6715 77.7908 22.5386C73.1241 22.1392 72.8448 10.0393 73.2132 6.18997L88.9784 3.45903ZM78.9817 10.255L80.0075 16.1768L85.9293 15.151L84.9035 9.22922L78.9817 10.255Z" fill="#1A216C" style="fill:#1A216C;fill:color(display-p3 0.1020 0.1294 0.4235);fill-opacity:1;"/>
<path d="M16.7966 105.274C14.7514 105.009 12.5353 92.6253 12.6627 90.4313C12.7524 88.7818 17.8424 87.758 19.3143 87.5842C10.5739 80.2484 22.0527 69.7045 22.5667 82.5147C22.7223 86.2835 21.2861 84.8475 20.2996 87.4136C31.7092 83.0318 31.0335 94.8912 31.0856 102.808C27.2103 102.759 20.1088 105.705 16.7983 105.283L16.7966 105.274ZM23.9851 91.9917C22.7638 91.503 19.7867 92.8306 18.1855 92.8441L19.382 99.7512C25.5411 101.384 27.8979 93.5466 23.9851 91.9917Z" fill="#1A216C" style="fill:#1A216C;fill:color(display-p3 0.1020 0.1294 0.4235);fill-opacity:1;"/>
<path d="M16.0637 16.0897C17.6088 21.201 18.8301 26.3176 18.5947 31.6967C18.0666 32.9249 4.02929 35.1434 3.50109 34.5549C2.48606 32.3863 -0.550571 18.9576 1.78465 18.5531L16.0719 16.0782L16.0637 16.0897ZM11.9888 21.8599L6.067 22.8857C6.53149 28.4379 7.28351 30.6115 13.1755 28.7688L11.979 21.8616L11.9888 21.8599Z" fill="#1A216C" style="fill:#1A216C;fill:color(display-p3 0.1020 0.1294 0.4235);fill-opacity:1;"/>
<path d="M13.4918 50.1586C18.2325 47.9978 19.1839 59.5245 17.1289 60.5503C12.3811 62.9053 9.14783 52.1493 13.4918 50.1586Z" fill="#1A216C" style="fill:#1A216C;fill:color(display-p3 0.1020 0.1294 0.4235);fill-opacity:1;"/>
<path d="M11.4028 47.2426C10.0526 46.6545 6.28249 36.0219 12.9881 37.0018C16.6331 37.5375 17.2289 49.7652 11.4028 47.2426Z" fill="#1A216C" style="fill:#1A216C;fill:color(display-p3 0.1020 0.1294 0.4235);fill-opacity:1;"/>
<path d="M43.7398 94.4154C43.1516 95.7656 32.5191 99.5357 33.4989 92.8301C34.0346 89.1852 46.2624 88.5894 43.7398 94.4154Z" fill="#1A216C" style="fill:#1A216C;fill:color(display-p3 0.1020 0.1294 0.4235);fill-opacity:1;"/>
<path d="M30.799 19.7182C35.1424 24.3447 23.4186 27.9081 21.6881 24.6557C18.5098 18.6703 29.7909 18.6445 30.799 19.7182Z" fill="#1A216C" style="fill:#1A216C;fill:color(display-p3 0.1020 0.1294 0.4235);fill-opacity:1;"/>
<path d="M60.5565 14.5631C61.1446 13.2128 71.7772 9.44272 70.7973 16.1484C70.2616 19.7933 58.0339 20.3891 60.5565 14.5631Z" fill="#1A216C" style="fill:#1A216C;fill:color(display-p3 0.1020 0.1294 0.4235);fill-opacity:1;"/>
<path d="M47.6195 88.9327C55.6668 84.7681 60.1292 92.0736 53.4187 93.9363C47.7436 95.508 43.913 90.8535 47.6195 88.9327Z" fill="#1A216C" style="fill:#1A216C;fill:color(display-p3 0.1020 0.1294 0.4235);fill-opacity:1;"/>
<path d="M16.0102 73.8362C14.5808 73.2009 11.2742 62.549 17.5728 63.6399C21.3714 64.3013 21.7245 76.3579 16.0102 73.8362Z" fill="#1A216C" style="fill:#1A216C;fill:color(display-p3 0.1020 0.1294 0.4235);fill-opacity:1;"/>
<path d="M84.9407 35.6303C89.454 33.387 92.5337 43.2562 89.4485 44.8969C83.6778 47.9669 82.7528 36.7096 84.9407 35.6303Z" fill="#1A216C" style="fill:#1A216C;fill:color(display-p3 0.1020 0.1294 0.4235);fill-opacity:1;"/>
<path d="M36.364 17.8607C43.7911 14.1587 47.457 21.0846 41.1462 22.9695C33.8588 25.1351 31.9655 20.0638 36.364 17.8607Z" fill="#1A216C" style="fill:#1A216C;fill:color(display-p3 0.1020 0.1294 0.4235);fill-opacity:1;"/>
<path d="M47.746 16.7821C48.746 14.5283 58.6878 13.5673 58.0695 18.4343C57.6453 21.7859 45.1107 22.719 47.746 16.7821Z" fill="#1A216C" style="fill:#1A216C;fill:color(display-p3 0.1020 0.1294 0.4235);fill-opacity:1;"/>
<path d="M68.6115 32.3592C68.7733 32.4732 69.4913 36.2664 69.2942 36.3005L54.0217 38.9461C53.9133 38.9649 52.7809 40.5717 52.7997 40.6801L58.3469 72.7032L52.435 73.7273L46.6317 40.2262L29.8812 43.1279C29.6841 43.162 29.0014 39.2207 29.1984 39.1865C34.3517 38.2939 66.9961 31.1776 68.6115 32.3592Z" fill="#F3F5F8" style="fill:#F3F5F8;fill:color(display-p3 0.9529 0.9608 0.9725);fill-opacity:1;"/>
<path d="M84.9023 9.22956L78.9805 10.2554L80.0063 16.1772L85.9281 15.1514L84.9023 9.22956Z" fill="#F3F5F8" style="fill:#F3F5F8;fill:color(display-p3 0.9529 0.9608 0.9725);fill-opacity:1;"/>
<path d="M23.9853 91.9913C27.908 93.5446 25.5511 101.382 19.3822 99.7508L18.1857 92.8437C19.7869 92.8302 22.7541 91.5043 23.9853 91.9913Z" fill="#DBD5F8" style="fill:#DBD5F8;fill:color(display-p3 0.8588 0.8353 0.9725);fill-opacity:1;"/>
<path d="M11.9882 21.8598L13.1847 28.7669C7.28292 30.6113 6.53089 28.4378 6.06641 22.8856L11.9882 21.8598Z" fill="#DBD5F8" style="fill:#DBD5F8;fill:color(display-p3 0.8588 0.8353 0.9725);fill-opacity:1;"/>
</svg>
