<svg width="1062" height="345" viewBox="0 0 1062 345" fill="none" xmlns="http://www.w3.org/2000/svg">
<path d="M23.5606 67.4575C23.5106 67.1075 23.6406 66.7375 23.5606 66.4575L25.5606 64.4575C25.9706 64.8275 27.8106 65.9675 28.5606 66.4575C32.0206 70.6675 27.3006 81.4375 33.5606 83.4575C33.6706 83.7675 33.4406 84.1975 33.5606 84.4575L34.5606 85.4575C34.7006 85.6975 35.2506 86.0875 35.5606 86.4575C35.7106 86.6375 35.2006 87.9675 35.6606 88.3175C37.5606 89.7375 46.5206 89.4275 49.2106 88.0675C49.5706 87.8875 54.4806 82.5375 54.6706 82.0775C56.5106 77.6075 54.7406 73.0475 55.5806 69.1575C55.6306 68.9275 57.8006 66.4975 58.5606 65.4575C62.2306 60.4175 67.5906 56.1575 68.5606 49.4575C84.4806 53.7375 86.3606 78.7075 77.9706 90.3675C65.6606 107.498 41.9506 108.228 29.1206 91.3875C21.5106 81.3975 25.0406 77.7275 23.5506 67.4575H23.5606ZM74.5606 74.4575C77.0306 71.9575 67.0206 61.9875 64.5706 64.4675C62.1206 66.9475 72.1106 76.9375 74.5606 74.4575Z" fill="#F7E17F" style="fill:#F7E17F;fill:color(display-p3 0.9686 0.8824 0.4980);fill-opacity:1;"/>
<path d="M68.5618 49.4575C67.5918 56.1575 62.2318 60.4175 58.5618 65.4575C51.5518 65.9775 55.5218 73.4475 54.5118 78.9075C52.9118 87.5575 42.6218 88.9375 35.5618 86.4575C35.2518 86.0875 34.7018 85.6975 34.5618 85.4575C34.3218 85.0475 33.7018 84.7475 33.5618 84.4575C33.4418 84.1975 33.6718 83.7675 33.5618 83.4575C33.0118 81.9375 31.8618 80.7775 31.6218 78.9075C31.2118 75.6475 32.2618 70.7375 31.4218 68.0775C30.8318 66.2375 29.1518 66.8475 28.5618 66.4575C27.8118 65.9675 25.9718 64.8275 25.5618 64.4575C17.4418 57.0675 14.5818 45.8375 18.0918 35.4875C27.7418 7.05754 73.5018 15.1975 68.5618 49.4575ZM27.5618 58.4575C29.3818 60.3275 31.6318 62.6575 34.2718 63.2475C37.0518 63.8775 49.1218 63.8975 51.8218 63.2175C58.3818 61.5475 63.2318 51.7375 63.5618 45.4575C64.8118 21.5875 33.2818 15.1175 23.8318 35.2275C19.9818 43.4075 21.2218 51.9475 27.5618 58.4575ZM49.5618 68.4575C49.0718 67.9575 37.6818 68.8275 35.5618 68.4575C32.8218 73.8675 48.9818 73.0575 49.5618 72.4575C49.7018 72.3175 49.6918 68.6075 49.5618 68.4575ZM49.5618 76.4575H35.5618C36.7718 85.3875 49.4018 86.2975 49.5618 76.4575Z" fill="#191D63" style="fill:#191D63;fill:color(display-p3 0.0980 0.1137 0.3882);fill-opacity:1;"/>
<path d="M74.5618 12.4677C77.1618 15.1577 67.3218 27.8677 64.0018 21.4677C62.7518 19.0577 70.7818 10.4877 74.5618 12.4677Z" fill="#1A216C" style="fill:#1A216C;fill:color(display-p3 0.1020 0.1294 0.4235);fill-opacity:1;"/>
<path d="M14.1121 17.8876C13.8821 17.5476 12.7721 17.5476 12.5921 16.7476C10.9521 9.59756 16.9621 11.9276 20.5321 15.9976C27.0221 23.3976 19.9421 26.5576 14.1121 17.8876Z" fill="#1A216C" style="fill:#1A216C;fill:color(display-p3 0.1020 0.1294 0.4235);fill-opacity:1;"/>
<path d="M45.431 0.607425C46.621 1.33742 48.821 15.2574 42.201 13.5074C39.651 12.8374 39.121 -3.29258 45.431 0.607425Z" fill="#191D63" style="fill:#191D63;fill:color(display-p3 0.0980 0.1137 0.3882);fill-opacity:1;"/>
<path d="M0.66155 41.5576C1.90155 39.6776 15.2315 39.5076 13.5515 44.9576C12.6715 47.8076 -3.41845 47.7076 0.66155 41.5576Z" fill="#191D63" style="fill:#191D63;fill:color(display-p3 0.0980 0.1137 0.3882);fill-opacity:1;"/>
<path d="M23.5619 66.4576C23.6419 66.7376 23.5119 67.1076 23.5619 67.4576C21.4019 71.0276 11.5819 80.6776 12.4619 70.9476C12.5519 69.9376 20.2219 63.4676 21.0919 63.5576C21.2919 63.5776 23.4819 66.1776 23.5719 66.4576H23.5619Z" fill="#1A216C" style="fill:#1A216C;fill:color(display-p3 0.1020 0.1294 0.4235);fill-opacity:1;"/>
<path d="M86.5118 41.5173C87.2118 42.3673 86.6717 45.7573 84.9217 46.3173C83.1717 46.8773 74.2218 47.0173 73.5718 44.9473C71.9018 39.6473 85.2818 40.0073 86.5118 41.5073V41.5173Z" fill="#191D63" style="fill:#191D63;fill:color(display-p3 0.0980 0.1137 0.3882);fill-opacity:1;"/>
<path d="M74.5624 74.4575C72.1124 76.9375 62.1024 66.9675 64.5724 64.4675C67.0424 61.9675 77.0324 71.9575 74.5624 74.4575Z" fill="#2B2E41" style="fill:#2B2E41;fill:color(display-p3 0.1686 0.1804 0.2549);fill-opacity:1;"/>
<path d="M33.5625 83.4575C27.3025 81.4375 32.0225 70.6675 28.5625 66.4575C29.1525 66.8475 30.8325 66.2375 31.4225 68.0775C32.2725 70.7375 31.2225 75.6475 31.6225 78.9075C31.8525 80.7775 33.0025 81.9375 33.5625 83.4575Z" fill="#B2B6B7" style="fill:#B2B6B7;fill:color(display-p3 0.6980 0.7137 0.7176);fill-opacity:1;"/>
<path d="M58.5619 65.4575C57.8019 66.4975 55.6319 68.9275 55.5819 69.1575C54.7319 73.0475 56.5019 77.6075 54.6719 82.0775C54.4819 82.5275 49.5719 87.8875 49.2119 88.0675C46.5219 89.4275 37.5719 89.7375 35.6619 88.3175C35.2019 87.9675 35.7119 86.6375 35.5619 86.4575C42.6219 88.9475 52.9219 87.5575 54.5119 78.9075C55.5219 73.4475 51.5519 65.9775 58.5619 65.4575Z" fill="#B2B6B7" style="fill:#B2B6B7;fill:color(display-p3 0.6980 0.7137 0.7176);fill-opacity:1;"/>
<path d="M34.5625 85.4575L33.5625 84.4575C33.7025 84.7475 34.3225 85.0475 34.5625 85.4575Z" fill="#B2B6B7" style="fill:#B2B6B7;fill:color(display-p3 0.6980 0.7137 0.7176);fill-opacity:1;"/>
<path d="M63.562 45.4576C49.252 41.6676 35.532 46.0976 27.562 58.4576C21.222 51.9475 19.982 43.4076 23.832 35.2276C33.282 15.1176 64.812 21.5876 63.562 45.4576ZM44.422 27.5876C43.182 26.7976 37.982 28.1376 36.362 28.7676C29.292 31.5176 25.282 39.0576 26.562 46.4676C32.442 47.8576 30.372 42.8076 32.352 38.7476C35.572 32.1276 43.892 33.0976 45.132 31.4976C45.802 30.6376 44.782 27.8176 44.422 27.5876Z" fill="#F3F5F8" style="fill:#F3F5F8;fill:color(display-p3 0.9529 0.9608 0.9725);fill-opacity:1;"/>
<path d="M63.5625 45.4572C63.2325 51.7372 58.3825 61.5372 51.8225 63.2172C49.1325 63.9072 37.0625 63.8772 34.2725 63.2472C31.6325 62.6572 29.3825 60.3272 27.5625 58.4572C35.5325 46.0972 49.2525 41.6672 63.5625 45.4572Z" fill="#F7E17F" style="fill:#F7E17F;fill:color(display-p3 0.9686 0.8824 0.4980);fill-opacity:1;"/>
<path d="M49.5625 76.4575C49.4025 86.2975 36.7725 85.3875 35.5625 76.4575H49.5625Z" fill="#F7E17F" style="fill:#F7E17F;fill:color(display-p3 0.9686 0.8824 0.4980);fill-opacity:1;"/>
<path d="M49.5606 68.4572C49.7006 68.5972 49.7006 72.3072 49.5606 72.4572C48.9806 73.0672 32.8206 73.8672 35.5606 68.4572C37.6806 68.8272 49.0706 67.9572 49.5606 68.4572Z" fill="#F7E17F" style="fill:#F7E17F;fill:color(display-p3 0.9686 0.8824 0.4980);fill-opacity:1;"/>
<path d="M44.4215 27.5876C44.7815 27.8176 45.8015 30.6376 45.1315 31.4976C43.8815 33.0976 35.5715 32.1276 32.3515 38.7476C30.3815 42.8076 32.4515 47.8476 26.5615 46.4676C25.2715 39.0576 29.2915 31.5076 36.3615 28.7676C37.9815 28.1376 43.1815 26.7976 44.4215 27.5876Z" fill="#1A216C" style="fill:#1A216C;fill:color(display-p3 0.1020 0.1294 0.4235);fill-opacity:1;"/>
<path d="M821.991 273.662C822.204 284.971 831.881 283.356 826.917 272.808C848.697 271.106 862.825 290.682 856.473 311.369C850.995 329.196 828.087 336.919 812.467 327.071C807.317 323.822 803.141 315.533 798.576 314.254L805.483 313.057L804.628 308.121C803.031 308.509 801.258 308.532 799.691 308.976L798.155 300.108C805.847 298.167 802.542 297.075 799.916 292.699C802.997 285.639 807.385 278.222 814.865 275.119C817.157 274.174 819.629 274.203 821.989 273.652L821.991 273.662ZM830.509 294.361C832.101 292.949 830.496 283.738 826.629 285.088C822.448 286.553 825.67 298.65 830.509 294.361ZM821.502 300.134L823.977 314.421C824.337 316.5 838.556 314.158 839.404 312.317C840.158 310.694 837.789 297.312 835.789 297.659L821.502 300.134ZM811.267 307.194C806.49 309.554 809.582 313.169 815.867 311.309C822.152 309.449 818.121 303.815 811.267 307.194Z" fill="#A6E8F8" style="fill:#A6E8F8;fill:color(display-p3 0.6510 0.9098 0.9725);fill-opacity:1;"/>
<path d="M826.918 272.808C831.881 283.356 822.205 284.971 821.991 273.662C824.623 273.033 824.044 273.032 826.918 272.808Z" fill="#1A216C" style="fill:#1A216C;fill:color(display-p3 0.1020 0.1294 0.4235);fill-opacity:1;"/>
<path d="M799.694 308.986C801.261 308.542 803.033 308.519 804.63 308.131L805.485 313.067L798.578 314.264C798.216 314.164 797.106 314.844 796.728 314.483C793.994 311.881 797.336 309.668 799.695 308.996L799.694 308.986Z" fill="#1A216C" style="fill:#1A216C;fill:color(display-p3 0.1020 0.1294 0.4235);fill-opacity:1;"/>
<path d="M821.502 300.133L835.789 297.658C837.789 297.312 840.17 310.702 839.404 312.316C838.544 314.15 824.335 316.49 823.977 314.421L821.502 300.133ZM833.031 302.186L827.11 303.211L828.306 310.118L834.228 309.093L833.031 302.186Z" fill="#1A216C" style="fill:#1A216C;fill:color(display-p3 0.1020 0.1294 0.4235);fill-opacity:1;"/>
<path d="M830.508 294.361C825.669 298.65 822.437 286.554 826.629 285.088C830.505 283.736 832.101 292.949 830.508 294.361Z" fill="#1A216C" style="fill:#1A216C;fill:color(display-p3 0.1020 0.1294 0.4235);fill-opacity:1;"/>
<path d="M811.267 307.194C818.121 303.814 822.316 309.4 815.867 311.309C809.418 313.218 806.479 309.546 811.267 307.194Z" fill="#1A216C" style="fill:#1A216C;fill:color(display-p3 0.1020 0.1294 0.4235);fill-opacity:1;"/>
<path d="M833.021 302.188L827.1 303.213L828.296 310.12L834.218 309.095L833.021 302.188Z" fill="#A6E8F8" style="fill:#A6E8F8;fill:color(display-p3 0.6510 0.9098 0.9725);fill-opacity:1;"/>
<path d="M798.156 300.118C795.549 300.772 782.756 303.202 781.295 302.562C777.284 300.79 783.199 295.797 783.081 295.118L778.558 269.006C775.972 269.546 773.07 269.551 770.68 270.808C768.289 272.064 768.647 275.361 765.885 276.114C764.722 276.427 762.606 276.459 762.415 275.355L759.684 259.59C759.665 259.481 760.797 257.875 760.906 257.856L807.216 249.834C807.324 249.815 808.931 250.947 808.95 251.056L811.681 266.821C812.516 271.639 803.317 265.468 802.352 265.341C799.62 264.982 796.976 265.887 794.333 266.274C796.641 273.973 796.013 286.169 799.927 292.707C802.552 297.083 805.857 298.175 798.166 300.116L798.156 300.118ZM804.611 255.359C802.996 254.178 770.351 261.294 765.198 262.187C765.001 262.221 765.684 266.162 765.881 266.128L782.631 263.226L788.434 296.727L794.346 295.703L788.799 263.68C788.78 263.572 789.913 261.965 790.021 261.946L805.294 259.301C805.491 259.267 804.773 255.473 804.611 255.359Z" fill="#1A216C" style="fill:#1A216C;fill:color(display-p3 0.1020 0.1294 0.4235);fill-opacity:1;"/>
<path d="M824.978 226.459L827.624 241.732C827.926 243.476 822.391 244.333 820.984 244.414C823.98 246.828 824.342 250.084 824.508 253.8C822.786 255.165 820.924 255.487 818.852 254.78C816.023 251.627 819.163 245.734 819.078 245.242C818.692 243.015 815.367 245.672 813.791 245.539C809.124 245.139 808.845 233.039 809.213 229.19L824.978 226.459ZM814.982 233.255L816.007 239.177L821.929 238.151L820.903 232.229L814.982 233.255Z" fill="#1A216C" style="fill:#1A216C;fill:color(display-p3 0.1020 0.1294 0.4235);fill-opacity:1;"/>
<path d="M752.797 328.274C750.751 328.009 748.535 315.625 748.663 313.431C748.752 311.782 753.842 310.758 755.314 310.584C746.574 303.248 758.053 292.704 758.567 305.515C758.722 309.283 757.286 307.848 756.3 310.414C767.709 306.032 767.033 317.891 767.086 325.808C763.21 325.759 756.109 328.705 752.798 328.283L752.797 328.274ZM759.985 314.992C758.764 314.503 755.787 315.831 754.186 315.844L755.382 322.751C761.541 324.384 763.898 316.547 759.985 314.992Z" fill="#1A216C" style="fill:#1A216C;fill:color(display-p3 0.1020 0.1294 0.4235);fill-opacity:1;"/>
<path d="M752.064 239.09C753.609 244.201 754.83 249.318 754.595 254.697C754.067 255.925 740.029 258.143 739.501 257.555C738.486 255.386 735.449 241.958 737.785 241.553L752.072 239.078L752.064 239.09ZM747.989 244.86L742.067 245.886C742.531 251.438 743.284 253.611 749.175 251.769L747.979 244.862L747.989 244.86Z" fill="#1A216C" style="fill:#1A216C;fill:color(display-p3 0.1020 0.1294 0.4235);fill-opacity:1;"/>
<path d="M749.492 273.159C754.233 270.998 755.184 282.525 753.129 283.55C748.381 285.905 745.148 275.149 749.492 273.159Z" fill="#1A216C" style="fill:#1A216C;fill:color(display-p3 0.1020 0.1294 0.4235);fill-opacity:1;"/>
<path d="M747.403 270.243C746.053 269.654 742.282 259.022 748.988 260.002C752.633 260.537 753.229 272.765 747.403 270.243Z" fill="#1A216C" style="fill:#1A216C;fill:color(display-p3 0.1020 0.1294 0.4235);fill-opacity:1;"/>
<path d="M779.74 317.415C779.152 318.766 768.519 322.536 769.499 315.83C770.035 312.185 782.262 311.589 779.74 317.415Z" fill="#1A216C" style="fill:#1A216C;fill:color(display-p3 0.1020 0.1294 0.4235);fill-opacity:1;"/>
<path d="M766.799 242.718C771.142 247.345 759.419 250.908 757.688 247.656C754.51 241.67 765.791 241.644 766.799 242.718Z" fill="#1A216C" style="fill:#1A216C;fill:color(display-p3 0.1020 0.1294 0.4235);fill-opacity:1;"/>
<path d="M796.556 237.563C797.145 236.213 807.777 232.443 806.797 239.148C806.262 242.793 794.034 243.389 796.556 237.563Z" fill="#1A216C" style="fill:#1A216C;fill:color(display-p3 0.1020 0.1294 0.4235);fill-opacity:1;"/>
<path d="M783.62 311.933C791.667 307.768 796.129 315.074 789.419 316.936C783.744 318.508 779.913 313.854 783.62 311.933Z" fill="#1A216C" style="fill:#1A216C;fill:color(display-p3 0.1020 0.1294 0.4235);fill-opacity:1;"/>
<path d="M752.01 296.836C750.581 296.201 747.274 285.549 753.573 286.64C757.371 287.301 757.725 299.358 752.01 296.836Z" fill="#1A216C" style="fill:#1A216C;fill:color(display-p3 0.1020 0.1294 0.4235);fill-opacity:1;"/>
<path d="M820.941 258.63C825.454 256.387 828.534 266.256 825.448 267.897C819.678 270.967 818.753 259.71 820.941 258.63Z" fill="#1A216C" style="fill:#1A216C;fill:color(display-p3 0.1020 0.1294 0.4235);fill-opacity:1;"/>
<path d="M772.364 240.861C779.791 237.159 783.457 244.085 777.146 245.969C769.859 248.135 767.965 243.064 772.364 240.861Z" fill="#1A216C" style="fill:#1A216C;fill:color(display-p3 0.1020 0.1294 0.4235);fill-opacity:1;"/>
<path d="M783.746 239.782C784.746 237.528 794.688 236.567 794.069 241.434C793.645 244.786 781.111 245.719 783.746 239.782Z" fill="#1A216C" style="fill:#1A216C;fill:color(display-p3 0.1020 0.1294 0.4235);fill-opacity:1;"/>
<path d="M804.611 255.359C804.773 255.473 805.491 259.266 805.294 259.3L790.022 261.946C789.913 261.965 788.781 263.572 788.8 263.68L794.347 295.703L788.435 296.727L782.632 263.226L765.881 266.128C765.684 266.162 765.001 262.221 765.198 262.187C770.352 261.294 802.996 254.178 804.611 255.359Z" fill="#F3F5F8" style="fill:#F3F5F8;fill:color(display-p3 0.9529 0.9608 0.9725);fill-opacity:1;"/>
<path d="M820.902 232.23L814.98 233.255L816.006 239.177L821.928 238.151L820.902 232.23Z" fill="#F3F5F8" style="fill:#F3F5F8;fill:color(display-p3 0.9529 0.9608 0.9725);fill-opacity:1;"/>
<path d="M759.985 314.991C763.908 316.545 761.551 324.382 755.382 322.751L754.186 315.844C755.787 315.83 758.754 314.504 759.985 314.991Z" fill="#DBD5F8" style="fill:#DBD5F8;fill:color(display-p3 0.8588 0.8353 0.9725);fill-opacity:1;"/>
<path d="M747.988 244.86L749.185 251.767C743.283 253.611 742.531 251.438 742.066 245.886L747.988 244.86Z" fill="#DBD5F8" style="fill:#DBD5F8;fill:color(display-p3 0.8588 0.8353 0.9725);fill-opacity:1;"/>
<path d="M226.043 226.622C245.633 217.56 269.421 235.111 266.574 256.497C262.773 285.044 229.121 293.301 212.302 270.704C214.857 263.801 220.016 259.78 222.315 253.016L215.113 234.467L220.517 228.484C221.94 231.293 229.393 244.993 229.384 246.721C229.377 249.043 223.759 253.106 226.553 259.471C233.605 275.519 256.73 256.431 241.755 246.367C238.428 244.124 234.35 245.218 233.562 244.513C232.844 243.865 227.143 229.125 226.043 226.622Z" fill="#B2F6DB" style="fill:#B2F6DB;fill:color(display-p3 0.6980 0.9647 0.8588);fill-opacity:1;"/>
<path d="M226.042 226.622C227.143 229.125 232.834 243.863 233.562 244.513C234.349 245.218 238.427 244.124 241.755 246.368C256.73 256.431 233.603 275.529 226.552 259.471C223.758 253.106 229.377 249.043 229.383 246.721C229.393 244.993 221.939 231.293 220.516 228.484C219.424 226.321 215.91 217.209 214.959 216.458C214.141 215.798 208.251 215.861 206.389 214.266L181.138 235.959C183.657 245.877 176.273 254.263 166.153 250.318C156.994 246.748 159.273 230.581 169.944 230.183C172.649 230.079 175.089 231.278 177.263 231.119C178.907 230.998 201.5 211.865 202.539 210.158C203.719 208.225 202.077 206.464 202.236 204.431C203.371 189.979 227.108 193.31 223.036 208.081C222.335 210.63 219.955 212.525 219.894 213.321C219.805 214.519 225.028 224.333 226.032 226.62L226.042 226.622ZM218.151 206.593C218.793 203.662 216.938 200.769 214.008 200.127C211.077 199.486 208.184 201.341 207.542 204.271C206.901 207.202 208.756 210.095 211.686 210.736C214.617 211.378 217.51 209.523 218.151 206.593ZM176.3 241.933C176.945 238.983 175.073 236.076 172.133 235.432C169.192 234.789 166.275 236.658 165.632 239.599C164.989 242.539 166.858 245.456 169.799 246.1C172.739 246.743 175.656 244.874 176.3 241.933ZM241.543 256.128C242.191 253.168 240.321 250.251 237.361 249.603C234.401 248.956 231.484 250.825 230.837 253.785C230.189 256.745 232.059 259.662 235.019 260.31C237.979 260.958 240.896 259.088 241.543 256.128Z" fill="#1A216C" style="fill:#1A216C;fill:color(display-p3 0.1020 0.1294 0.4235);fill-opacity:1;"/>
<path d="M212.301 270.704C211.584 272.625 210.839 281.644 208.484 281.129L185.039 275.999C182.88 275.526 186.116 264.667 186.149 261.849C186.194 257.764 182.097 246.918 183.84 244.054C188.992 241.281 202.677 225.85 206.994 224.973C208.719 224.623 209.831 225.245 211.041 226.36C211.606 229.483 214.016 232.129 215.114 234.458L222.316 253.006C220.014 259.78 214.856 263.801 212.303 270.694L212.301 270.704ZM208.212 247.289C207.982 248.201 206.744 253.765 206.715 254.127C201.84 257.697 195.572 251.955 198.41 247.171C199.208 245.82 201.06 245.212 201.877 243.303C202.797 241.16 203.431 237.326 203.244 234.952C200.713 237.162 189.899 244.479 189.117 246.837C188.794 247.8 190.489 259.421 190.968 260.273C191.773 261.739 192.969 261.089 193.842 261.547C197.822 263.615 202.661 265.032 207.304 265.516C207.935 265.582 208.537 266.011 209.207 265.85C209.775 265.125 209.553 263.428 209.9 263.013C211.771 260.73 216.922 255.9 217.273 252.895C217.453 251.369 212.732 243.098 211.672 240.88C210.717 238.88 210.472 236.492 208.843 235.143C208.717 238.76 204.933 244.309 208.222 247.291L208.212 247.289ZM207.417 269.635L190.809 266.001L189.527 271.863L206.134 275.497L207.417 269.635Z" fill="#1A216C" style="fill:#1A216C;fill:color(display-p3 0.1020 0.1294 0.4235);fill-opacity:1;"/>
<path d="M235.018 260.31C237.975 260.957 240.896 259.084 241.543 256.128C242.19 253.171 240.318 250.25 237.361 249.603C234.405 248.956 231.483 250.828 230.836 253.785C230.189 256.742 232.062 259.663 235.018 260.31Z" fill="#B2F6DB" style="fill:#B2F6DB;fill:color(display-p3 0.6980 0.9647 0.8588);fill-opacity:1;"/>
<path d="M169.798 246.1C172.744 246.744 175.655 244.879 176.299 241.933C176.944 238.987 175.078 236.077 172.133 235.432C169.187 234.788 166.276 236.653 165.632 239.599C164.987 242.545 166.853 245.455 169.798 246.1Z" fill="#F3F5F8" style="fill:#F3F5F8;fill:color(display-p3 0.9529 0.9608 0.9725);fill-opacity:1;"/>
<path d="M211.686 210.736C214.616 211.378 217.51 209.522 218.151 206.593C218.792 203.663 216.937 200.769 214.008 200.128C211.078 199.486 208.183 201.342 207.542 204.271C206.901 207.201 208.757 210.095 211.686 210.736Z" fill="#F3F5F8" style="fill:#F3F5F8;fill:color(display-p3 0.9529 0.9608 0.9725);fill-opacity:1;"/>
<path d="M206.717 254.127C206.552 256.189 208.157 261.393 209.891 263.011C209.542 263.436 209.767 265.123 209.199 265.848C208.531 265.999 207.929 265.57 207.296 265.514C204.043 262.509 198.036 263.017 193.834 261.544C192.969 261.099 191.765 261.736 190.959 260.27C190.492 259.411 188.797 247.79 189.109 246.834C189.891 244.477 200.705 237.159 203.236 234.949C203.423 237.324 202.788 241.157 201.869 243.3C201.05 245.219 199.209 245.82 198.402 247.168C195.576 251.945 201.831 257.695 206.707 254.125L206.717 254.127Z" fill="#F3F5F8" style="fill:#F3F5F8;fill:color(display-p3 0.9529 0.9608 0.9725);fill-opacity:1;"/>
<path d="M209.891 263.011C208.157 261.393 206.552 256.189 206.717 254.127C206.745 253.764 207.983 248.2 208.213 247.289C208.807 244.9 209.473 242.231 211.663 240.878C212.714 243.094 217.435 251.364 217.264 252.893C216.912 255.907 211.772 260.73 209.891 263.011Z" fill="#B2F6DB" style="fill:#B2F6DB;fill:color(display-p3 0.6980 0.9647 0.8588);fill-opacity:1;"/>
<path d="M207.418 269.635L190.811 266.001L189.528 271.863L206.135 275.497L207.418 269.635Z" fill="#F3F5F8" style="fill:#F3F5F8;fill:color(display-p3 0.9529 0.9608 0.9725);fill-opacity:1;"/>
<path d="M211.663 240.878C209.474 242.231 208.808 244.9 208.213 247.289C204.925 244.307 208.708 238.757 208.834 235.141C210.464 236.49 210.709 238.878 211.663 240.878Z" fill="#DBD5F8" style="fill:#DBD5F8;fill:color(display-p3 0.8588 0.8353 0.9725);fill-opacity:1;"/>
<path d="M207.295 265.514C202.651 265.03 197.812 263.613 193.832 261.544C198.034 263.017 204.042 262.509 207.295 265.514Z" fill="#B2F6DB" style="fill:#B2F6DB;fill:color(display-p3 0.6980 0.9647 0.8588);fill-opacity:1;"/>
<path d="M455.317 94.832C457.107 90.462 459.587 86.3719 462.247 82.4719C461.867 80.2919 448.347 69.972 446.767 66.802C446.327 65.922 446.457 65.662 446.697 64.802C447.137 63.182 461.077 49.0019 463.297 47.3119C465.517 45.6219 467.207 43.8919 470.027 46.1319L483.837 60.832C485.687 61.312 489.877 55.232 491.317 53.832C493.347 51.862 500.567 44.4019 502.617 44.9419C503.987 45.3019 522.237 63.592 522.867 64.862C524.687 68.522 509.667 79.912 507.337 83.332C509.947 87.032 523.697 97.5119 523.187 101.102C523.037 102.152 522.057 103.522 521.327 104.352C516.177 106.382 506.597 120.682 502.617 121.732C501.227 122.102 500.787 121.572 499.777 120.902C497.247 119.202 485.887 105.862 484.827 105.862C482.697 110.372 451.777 120.302 449.957 119.772C448.867 119.462 448.377 118.422 448.297 117.342C448.197 116.082 454.297 97.3819 455.337 94.8419L455.317 94.832ZM465.317 59.832C465.337 56.722 467.257 57.932 468.377 56.432C470.077 54.172 469.357 50.2819 466.837 50.8419C465.797 51.0719 452.207 65.152 452.387 66.202C454.557 68.202 464.927 80.0819 466.677 79.7619L481.307 65.3219L478.827 62.8419C476.217 67.2619 467.877 70.9519 472.267 63.2919C473.437 61.2519 475.177 62.0319 475.317 57.8419C475.437 54.2919 472.877 55.0219 473.317 57.8419C472.967 57.8619 472.587 57.7719 472.317 57.8419C469.867 58.5119 468.107 60.3919 465.317 59.8419V59.832ZM463.747 88.8419L479.317 104.422L517.427 66.332L501.857 50.7519L463.747 88.8419ZM505.317 89.8119C505.987 88.9319 504.387 86.482 502.837 86.832C501.377 87.162 490.737 99.572 488.397 101.462C488.147 102.882 499.507 113.942 501.827 114.862C503.327 114.862 516.377 101.932 516.377 100.322C516.377 98.7119 514.347 97.082 513.347 97.832C512.447 98.502 511.317 104.632 506.337 102.822C504.367 99.5619 512.277 94.782 510.327 92.832C508.377 90.882 502.847 99.2219 500.337 96.8219C497.527 94.1319 505.047 90.1719 505.327 89.8119H505.317ZM474.317 106.822C472.607 104.762 462.547 92.912 460.327 94.832C460.007 95.112 458.337 102.732 458.447 103.152C458.557 103.572 463.977 109.162 464.337 109.392C466.067 110.502 471.977 106.722 474.317 106.822Z" fill="#191D63" style="fill:#191D63;fill:color(display-p3 0.0980 0.1137 0.3882);fill-opacity:1;"/>
<path d="M491.317 53.8322C489.867 55.2322 485.677 61.3122 483.837 60.8322L470.027 46.1322C467.207 43.8922 465.607 45.5522 463.297 47.3122C460.987 49.0722 447.137 63.1822 446.697 64.8022C446.467 65.6622 446.327 65.9122 446.767 66.8022C448.347 69.9722 461.867 80.2822 462.247 82.4722C459.587 86.3722 457.107 90.4622 455.317 94.8322C434.767 89.1022 427.317 63.2522 440.807 46.8222C455.077 29.4522 482.167 33.8622 491.317 53.8322Z" fill="#F7E17F" style="fill:#F7E17F;fill:color(display-p3 0.9686 0.8824 0.4980);fill-opacity:1;"/>
<path d="M470.027 95.1322C485.057 92.0722 497.077 75.7222 492.047 60.5622L501.857 50.7622L517.427 66.3422L479.317 104.432L470.027 95.1322Z" fill="#F3F5F8" style="fill:#F3F5F8;fill:color(display-p3 0.9529 0.9608 0.9725);fill-opacity:1;"/>
<path d="M470.026 95.132L463.746 88.852L492.046 60.562C497.066 75.732 485.056 92.072 470.026 95.132Z" fill="#F7E17F" style="fill:#F7E17F;fill:color(display-p3 0.9686 0.8824 0.4980);fill-opacity:1;"/>
<path d="M505.317 89.8123C505.037 90.1823 497.517 94.1323 500.327 96.8223C502.837 99.2223 508.427 90.9423 510.317 92.8323C512.207 94.7223 504.357 99.5623 506.327 102.822C511.317 104.642 512.437 98.5123 513.337 97.8323C514.347 97.0823 516.377 98.7123 516.367 100.322C516.357 101.932 503.317 114.862 501.817 114.862C499.497 113.942 488.137 102.892 488.387 101.462C490.737 99.5723 501.367 87.1623 502.827 86.8323C504.377 86.4823 505.977 88.9323 505.307 89.8123H505.317Z" fill="#F3F5F8" style="fill:#F3F5F8;fill:color(display-p3 0.9529 0.9608 0.9725);fill-opacity:1;"/>
<path d="M475.317 57.8324C475.177 62.0224 473.437 61.2524 472.267 63.2824C467.877 70.9424 476.227 67.2624 478.827 62.8324L481.307 65.3124L466.677 79.7524C464.927 80.0624 454.557 68.1824 452.387 66.1924C452.207 65.1524 465.797 51.0624 466.837 50.8324C469.367 50.2824 470.077 54.1724 468.377 56.4224C467.247 57.9224 465.337 56.7124 465.317 59.8224C465.277 65.0524 470.407 60.3124 472.317 57.8224C472.587 57.7524 472.967 57.8424 473.317 57.8224C473.977 57.7824 474.657 57.8524 475.317 57.8224V57.8324ZM463.327 63.8224H458.317C457.787 68.0524 459.157 69.3524 463.317 68.8324V63.8224H463.327Z" fill="#F7E17F" style="fill:#F7E17F;fill:color(display-p3 0.9686 0.8824 0.4980);fill-opacity:1;"/>
<path d="M474.317 106.822C471.977 106.722 466.067 110.502 464.337 109.392C463.977 109.162 458.557 103.562 458.447 103.152C458.337 102.742 460.007 95.1121 460.327 94.8321C462.547 92.9121 472.597 104.762 474.317 106.822Z" fill="#F3F5F8" style="fill:#F3F5F8;fill:color(display-p3 0.9529 0.9608 0.9725);fill-opacity:1;"/>
<path d="M472.317 57.832C470.407 60.322 465.277 65.062 465.317 59.832C468.107 60.382 469.867 58.502 472.317 57.832Z" fill="#55595A" style="fill:#55595A;fill:color(display-p3 0.3333 0.3490 0.3529);fill-opacity:1;"/>
<path d="M473.317 57.8321C472.877 55.0121 475.437 54.2821 475.317 57.8321C474.657 57.8621 473.977 57.7921 473.317 57.8321Z" fill="#55595A" style="fill:#55595A;fill:color(display-p3 0.3333 0.3490 0.3529);fill-opacity:1;"/>
<path d="M463.328 63.8223V68.8323C459.158 69.3523 457.788 68.0523 458.318 63.8323H463.328V63.8223Z" fill="#2B2E41" style="fill:#2B2E41;fill:color(display-p3 0.1686 0.1804 0.2549);fill-opacity:1;"/>
<path d="M965.256 122.412C964.582 121.964 964.398 121.053 964.847 120.379C965.296 119.705 966.206 119.521 966.88 119.97C967.555 120.419 967.738 121.329 967.289 122.003C966.841 122.678 965.93 122.861 965.256 122.412Z" fill="#020100" style="fill:#020100;fill:color(display-p3 0.0078 0.0039 0.0000);fill-opacity:1;"/>
<path d="M1007.83 150.753C1007.16 150.304 1006.98 149.394 1007.43 148.719C1007.87 148.045 1008.78 147.862 1009.46 148.31C1010.13 148.759 1010.32 149.669 1009.87 150.344C1009.42 151.018 1008.51 151.201 1007.83 150.753Z" fill="#020100" style="fill:#020100;fill:color(display-p3 0.0078 0.0039 0.0000);fill-opacity:1;"/>
<path d="M1021.85 127.533C1017.95 124.552 1012.71 130.431 1011.26 133.702C1010.31 135.849 1010.02 139.004 1010.77 141.246C1012.41 146.109 1019.16 144.996 1019.23 140.031C1019.25 139.046 1018.69 138.336 1019.16 137.361C1020.18 135.227 1022.25 134.699 1023.2 132.765C1024.04 131.047 1023.35 128.674 1021.85 127.533ZM1020.14 129.859C1020.39 130.045 1020.56 130.416 1020.62 130.722C1020.87 132.028 1019.43 132.531 1018.68 133.261C1017.37 134.525 1016.14 136.088 1016.04 137.991C1015.98 139.105 1017.05 140.956 1015.32 141.446C1013.21 142.042 1013.07 138.541 1013.25 137.21C1013.6 134.682 1015.44 132.148 1017.41 130.585C1018.15 129.994 1019.18 129.154 1020.14 129.861L1020.14 129.859Z" fill="#020100" style="fill:#020100;fill:color(display-p3 0.0078 0.0039 0.0000);fill-opacity:1;"/>
<path d="M1003.73 149.607C1003.32 149.234 1002.76 149.262 1002.25 149.299C997.404 149.644 991.606 151.931 986.649 152.432C984.704 153.103 985.364 155.601 987.358 155.349C992.088 153.926 998.279 153.783 1002.84 152.242C1004.09 151.821 1004.79 150.589 1003.72 149.606L1003.73 149.607Z" fill="#020100" style="fill:#020100;fill:color(display-p3 0.0078 0.0039 0.0000);fill-opacity:1;"/>
<path d="M1002.26 141.729C1001.78 141.253 1001.39 141.305 1000.79 141.413C999.326 141.675 993.38 143.552 992.073 144.192C990.194 145.113 991.055 147.311 992.773 147.073L1001.72 144.203C1002.76 143.793 1003.08 142.526 1002.26 141.727L1002.26 141.729Z" fill="#020100" style="fill:#020100;fill:color(display-p3 0.0078 0.0039 0.0000);fill-opacity:1;"/>
<path d="M991.171 98.7459L987.094 104.874C987.02 111.052 985.802 117.782 985.938 123.902C985.958 124.833 986.052 125.415 986.49 126.259L972.968 146.648C972.674 147.418 974.289 151.033 974.728 151.907C975.111 152.669 975.137 153.181 976.105 153.394C976.601 153.502 981.538 153.419 981.936 153.267C982.134 153.19 982.334 153.143 982.489 152.981L996.065 132.627C996.794 132.611 997.542 132.672 998.238 132.372L1015.55 123.803L1019.63 117.674L1023.65 120.345C1024.56 120.954 1026.44 120.111 1027.1 119.294C1028.57 117.457 1031.89 112.591 1032.88 110.553C1033.33 109.624 1033.13 108.383 1032.56 107.566C1020.77 99.2747 1008.52 91.5256 996.571 83.4287C995.178 82.486 993.483 82.7413 992.42 84.0323C990.989 85.7743 987.587 90.7913 986.629 92.7608C986.233 93.5766 986.403 95.575 987.153 96.0736L991.168 98.744L991.171 98.7459ZM1027.88 107.716L1030.28 109.31L1024.75 117.622L989.242 94.0074L994.77 85.6949L997.166 87.2883L995.339 90.0356C994.908 90.6836 996.033 92.0104 996.935 91.9036C997.054 91.8894 997.801 91.5288 997.828 91.4879L999.562 88.8818L1001.75 90.3343C1002.46 90.8123 998.443 93.6156 1000.95 94.9013C1001.24 95.0473 1002.18 95.0255 1002.29 94.8632L1004.21 91.9747L1006.61 93.5681L1004.87 96.1743C1004.07 97.387 1006.46 98.9804 1007.27 97.7677L1009 95.1616L1011.4 96.755L1009.48 99.6434C1009.37 99.8044 1009.72 100.686 1009.96 100.893C1012.12 102.709 1013.15 97.9165 1013.87 98.3953L1016.05 99.8479L1014.32 102.454C1014.29 102.495 1014.24 103.322 1014.28 103.439C1014.53 104.312 1016.19 104.835 1016.62 104.189L1018.45 101.441L1020.84 103.035L1019.01 105.782C1018.67 106.306 1019.43 107.305 1019.97 107.536C1020.36 107.7 1021.4 107.39 1021.6 107.092L1023.24 104.626L1025.49 106.125L1023.85 108.592C1023.65 108.89 1023.77 109.967 1024.07 110.26C1024.5 110.674 1025.71 110.99 1026.06 110.467L1027.88 107.719L1027.88 107.716ZM1003.86 115.721C1004.24 115.212 1004.13 114.076 1003.65 113.75L990.472 104.989L993.564 100.34L1017.24 116.083L1014.14 120.732L1009.14 117.406C1008.77 117.156 1007.65 117.611 1007.38 118.064C1007.18 118.398 1007.11 119.506 1007.41 119.706L1011.56 122.47C1011.03 122.938 1010.29 123.248 1009.65 123.569C1005.45 125.683 1001.18 127.641 996.976 129.741C994.897 128.502 992.863 127.151 990.871 125.777C990.371 125.433 988.895 124.636 988.778 124.184C989.322 119.144 989.155 113.885 989.69 108.867C989.72 108.584 989.674 108.276 989.868 108.04C990.574 108.502 991.275 108.983 991.981 109.446C995.4 111.683 998.776 113.996 1002.19 116.235C1002.65 116.428 1003.57 116.112 1003.86 115.722L1003.86 115.721ZM988.854 127.894L993.644 131.08L990.458 135.87L987.808 129.752C987.786 129.154 988.586 128.447 988.855 127.893L988.854 127.894ZM985.762 132.543C986.966 134.435 987.443 136.742 988.584 138.688L986.522 141.788L983.841 135.431L985.762 132.543ZM981.826 138.461C983.03 140.353 983.507 142.66 984.648 144.606L982.586 147.706L979.905 141.349L981.826 138.461ZM977.891 144.378L980.621 150.361C980.413 150.68 977.482 150.601 977.258 150.42C977.127 150.312 975.876 147.41 975.971 147.267L977.892 144.379L977.891 144.378Z" fill="#020100" style="fill:#020100;fill:color(display-p3 0.0078 0.0039 0.0000);fill-opacity:1;"/>
<path d="M968.217 125.99C966.933 124.877 965.732 126.174 965.816 127.704C966.073 132.389 968.437 138.26 968.902 143.072C969.383 144.998 971.93 144.662 971.881 142.717L968.682 126.761C968.603 126.487 968.431 126.173 968.218 125.988L968.217 125.99Z" fill="#020100" style="fill:#020100;fill:color(display-p3 0.0078 0.0039 0.0000);fill-opacity:1;"/>
<path d="M976.247 124.629C975.299 123.639 974.039 124.006 973.689 125.267L974.473 134.875C974.976 136.594 977.252 136.464 977.372 134.413C977.452 133.056 976.897 126.751 976.589 125.417C976.523 125.13 976.461 124.853 976.249 124.63L976.247 124.629Z" fill="#020100" style="fill:#020100;fill:color(display-p3 0.0078 0.0039 0.0000);fill-opacity:1;"/>
<path d="M1027.88 107.716L1026.05 110.463C1025.71 110.987 1024.49 110.671 1024.07 110.257C1023.76 109.963 1023.65 108.886 1023.85 108.588L1025.49 106.122L1023.23 104.623L1021.59 107.089C1021.39 107.387 1020.36 107.696 1019.97 107.533C1019.42 107.299 1018.66 106.303 1019.01 105.779L1020.84 103.031L1018.44 101.438L1016.61 104.185C1016.18 104.833 1014.53 104.308 1014.27 103.436C1014.24 103.32 1014.29 102.492 1014.31 102.451L1016.05 99.8446L1013.86 98.3921C1013.14 97.9141 1012.11 102.706 1009.96 100.89C1009.71 100.684 1009.37 99.8025 1009.47 99.6402L1011.4 96.7517L1009 95.1583L1007.27 97.7644C1006.46 98.9771 1004.06 97.3837 1004.87 96.171L1006.6 93.5649L1004.21 91.9714L1002.29 94.8599C1002.18 95.0208 1001.23 95.0426 1000.95 94.898C998.44 93.6123 1002.46 90.8099 1001.74 90.3311L999.558 88.8785L997.825 91.4846C997.798 91.5255 997.052 91.887 996.931 91.9003C996.03 92.0071 994.905 90.679 995.335 90.0324L997.162 87.2851L994.767 85.6916L989.238 94.0041L1024.74 117.619L1030.27 109.307L1027.88 107.713L1027.88 107.716Z" fill="#F3F5F8" style="fill:#F3F5F8;fill:color(display-p3 0.9529 0.9608 0.9725);fill-opacity:1;"/>
<path d="M1003.86 115.721C1003.57 116.111 1002.65 116.427 1002.19 116.234C998.772 113.995 995.397 111.682 991.979 109.445L990.87 125.777C992.862 127.151 994.896 128.502 996.976 129.741C1001.18 127.642 1005.46 125.684 1009.65 123.569C1010.28 123.247 1011.03 122.938 1011.56 122.47L1007.41 119.706C1007.11 119.507 1007.18 118.398 1007.38 118.064L1003.86 115.721Z" fill="#F7E17F" style="fill:#F7E17F;fill:color(display-p3 0.9686 0.8824 0.4980);fill-opacity:1;"/>
<path d="M1007.38 118.063C1007.65 117.61 1008.77 117.155 1009.14 117.405L1014.14 120.731L1017.24 116.083L993.565 100.339L990.473 104.988L1003.65 113.749C1004.13 114.074 1004.24 115.212 1003.86 115.72L1007.38 118.063Z" fill="#DAD26D" style="fill:#DAD26D;fill:color(display-p3 0.8549 0.8235 0.4275);fill-opacity:1;"/>
<path d="M991.979 109.446C991.272 108.984 990.571 108.504 989.865 108.04C989.672 108.276 989.719 108.584 989.688 108.867C989.152 113.885 989.321 119.145 988.776 124.184C988.892 124.636 990.37 125.434 990.868 125.777L991.977 109.445L991.979 109.446Z" fill="#DAD26D" style="fill:#DAD26D;fill:color(display-p3 0.8549 0.8235 0.4275);fill-opacity:1;"/>
<path d="M988.852 127.893C988.584 128.447 987.784 129.153 987.805 129.752L990.456 135.87L993.642 131.08L988.852 127.894L988.852 127.893Z" fill="#F3F5F8" style="fill:#F3F5F8;fill:color(display-p3 0.9529 0.9608 0.9725);fill-opacity:1;"/>
<path d="M985.763 132.541L983.841 135.43L986.523 141.786L988.585 138.686C987.443 136.741 986.965 134.432 985.763 132.541Z" fill="#F3F5F8" style="fill:#F3F5F8;fill:color(display-p3 0.9529 0.9608 0.9725);fill-opacity:1;"/>
<path d="M981.827 138.46L979.906 141.349L982.587 147.705L984.649 144.605C983.507 142.66 983.029 140.351 981.827 138.46Z" fill="#F3F5F8" style="fill:#F3F5F8;fill:color(display-p3 0.9529 0.9608 0.9725);fill-opacity:1;"/>
<path d="M977.891 144.378L975.97 147.266C975.876 147.407 977.125 150.311 977.257 150.419C977.48 150.601 980.411 150.679 980.619 150.361L977.889 144.377L977.891 144.378Z" fill="#F3F5F8" style="fill:#F3F5F8;fill:color(display-p3 0.9529 0.9608 0.9725);fill-opacity:1;"/>
<path d="M1020.13 129.86C1019.18 129.153 1018.15 129.994 1017.4 130.584C1015.44 132.147 1013.59 134.68 1013.25 137.209C1013.07 138.54 1013.21 142.043 1015.32 141.445C1017.04 140.954 1015.98 139.104 1016.04 137.99C1016.14 136.086 1017.36 134.523 1018.68 133.259C1019.43 132.532 1020.87 132.028 1020.62 130.721C1020.56 130.415 1020.38 130.043 1020.13 129.857L1020.13 129.86Z" fill="#A6E8F8" style="fill:#A6E8F8;fill:color(display-p3 0.6510 0.9098 0.9725);fill-opacity:1;"/>
<path d="M1056.62 123.176C1055.05 122.656 1053.51 122.652 1052.15 123.701C1050.18 125.217 1050.85 126.685 1049.83 128.507C1047.2 133.195 1043.24 130.951 1039.15 131.874C1033.99 133.039 1029.93 136.948 1028.37 141.979C1027.81 143.784 1027.9 145.372 1026.55 146.919C1023.77 150.103 1019.43 148.296 1015.58 149.427C1010.56 150.904 1005.39 156.31 1005.32 161.748C1005.27 165.835 1010.28 167.747 1012.91 164.674C1014.35 162.993 1013.65 161.005 1015.81 159.022C1018.43 156.612 1020.98 157.903 1024.04 157.498C1029.53 156.774 1034.17 152.793 1035.88 147.546C1036.73 144.965 1036.42 142.967 1039.06 141.172C1041.32 139.642 1043.5 140.501 1045.96 140.265C1049.69 139.907 1052.94 138.128 1055.55 135.472C1056.16 134.38 1057.14 133.323 1057.71 132.232C1058.32 131.051 1059.17 127.99 1059.03 126.657C1058.92 125.591 1058.33 124.778 1057.75 123.926L1056.62 123.177L1056.62 123.176ZM1046.2 134.462C1048.94 133.947 1051.29 132.017 1052.57 129.545C1053.19 128.341 1053.17 125.268 1055.17 125.963C1056.66 126.48 1056.08 128.137 1055.71 129.279C1054.24 133.804 1050.23 136.999 1045.51 137.412C1042.89 137.641 1041.24 136.842 1038.58 138.142C1032.47 141.131 1034.65 146.732 1030.45 151.135C1024.67 157.192 1018.98 152.392 1014.01 156.775C1012.82 157.826 1012.11 158.771 1011.52 160.255C1011.1 161.336 1011.21 163.224 1009.71 163.312C1007.55 163.435 1008.32 160.667 1008.77 159.467C1010.08 155.947 1012.92 153.286 1016.51 152.199C1020.83 150.891 1024.18 153.271 1028.15 149.399C1031.17 146.45 1030.24 143.78 1031.99 140.638C1033.9 137.205 1037.16 135.015 1041.03 134.543C1042.76 134.331 1044.53 134.775 1046.2 134.461L1046.2 134.462Z" fill="#020100" style="fill:#020100;fill:color(display-p3 0.0078 0.0039 0.0000);fill-opacity:1;"/>
<path d="M1033.35 168.866L1034.38 167.316C1035.55 163.945 1032.65 160.445 1029.12 161.485C1027.11 162.076 1027.09 163.733 1024.59 163.249C1023.01 162.946 1021.73 161.843 1020.06 161.951C1015.94 162.221 1014.47 167.674 1017.88 169.935C1021.29 172.196 1027.29 172.719 1030.84 170.655L1033.35 168.866ZM1031.44 164.793C1033.26 166.698 1028.33 168.787 1026.84 169.006C1024.84 169.299 1021.02 168.582 1019.42 167.337C1018.04 166.27 1019.35 164.38 1020.89 164.894C1023.2 165.665 1025.36 166.995 1027.89 165.709C1029.15 165.068 1030.03 163.319 1031.44 164.793Z" fill="#020100" style="fill:#020100;fill:color(display-p3 0.0078 0.0039 0.0000);fill-opacity:1;"/>
<path d="M1046.2 134.461C1044.53 134.775 1042.76 134.331 1041.03 134.543C1037.15 135.015 1033.9 137.205 1031.99 140.638C1030.24 143.78 1031.17 146.45 1028.15 149.399C1024.18 153.269 1020.83 150.889 1016.51 152.199C1012.92 153.286 1010.08 155.947 1008.76 159.467C1008.32 160.666 1007.55 163.435 1009.71 163.311C1011.2 163.226 1011.1 161.336 1011.52 160.255C1012.11 158.771 1012.82 157.824 1014.01 156.775C1018.98 152.391 1024.67 157.192 1030.45 151.135C1034.65 146.732 1032.47 141.131 1038.58 138.142C1041.23 136.841 1042.88 137.64 1045.51 137.412C1050.23 136.999 1054.24 133.803 1055.71 129.279C1056.08 128.137 1056.66 126.479 1055.17 125.963C1053.17 125.267 1053.19 128.339 1052.57 129.545C1051.29 132.02 1048.94 133.947 1046.2 134.462L1046.2 134.461Z" fill="#A6E8F8" style="fill:#A6E8F8;fill:color(display-p3 0.6510 0.9098 0.9725);fill-opacity:1;"/>
<path d="M1031.44 164.793C1030.03 163.32 1029.15 165.07 1027.89 165.709C1025.35 166.995 1023.19 165.665 1020.89 164.894C1019.35 164.38 1018.04 166.27 1019.41 167.337C1021.02 168.583 1024.84 169.3 1026.84 169.006C1028.32 168.789 1033.26 166.698 1031.44 164.793Z" fill="#A6E8F8" style="fill:#A6E8F8;fill:color(display-p3 0.6510 0.9098 0.9725);fill-opacity:1;"/>
</svg>
