<svg width="251" height="75" viewBox="0 0 251 75" fill="none" xmlns="http://www.w3.org/2000/svg">
<path d="M24.1862 0H1.76084C0.793108 0 0 0.92408 0 2.06645V28.45C0 30.2909 1.89182 31.215 2.9978 29.9125L25.4304 3.52897C26.5364 2.22652 25.7505 0 24.1862 0Z" fill="#FF4E00" style="fill:#FF4E00;fill:color(display-p3 1.0000 0.3061 0.0000);fill-opacity:1;"/>
<path d="M8.68639 31.4475L0.609785 40.4409C0.224146 40.8265 0.00585938 41.3504 0.00585938 41.8888V72.0415C0.00585938 73.1766 0.929939 74.0934 2.06503 74.0934H40.5198C42.1715 74.0934 42.9792 72.0924 41.7859 70.9501L11.5678 31.4184C10.7601 30.6471 9.4795 30.6544 8.68639 31.4475Z" fill="#FF4E00" style="fill:#FF4E00;fill:color(display-p3 1.0000 0.3061 0.0000);fill-opacity:1;"/>
<path d="M24.4002 12.6166L34.827 0.996489C35.3436 0.421668 36.064 0.0942383 36.8061 0.0942383H39.411C40.9318 0.0942383 42.1687 1.41851 42.1687 3.05566V52.2138C42.1687 54.8769 39.1491 56.1866 37.4319 54.2657L24.4002 37.9087C23.9054 37.3558 23.6289 36.6209 23.6289 35.8568V14.6758C23.6289 13.9118 23.9054 13.1696 24.4002 12.6166Z" fill="#5DD31B" style="fill:#5DD31B;fill:color(display-p3 0.3647 0.8275 0.1059);fill-opacity:1;"/>
<path d="M73.0833 0.625488H51.2328C49.9188 0.625488 48.8535 1.69075 48.8535 3.00481V12.8714C48.8535 14.1854 49.9188 15.2507 51.2328 15.2507H73.0833C74.3974 15.2507 75.4626 14.1854 75.4626 12.8714V3.00481C75.4626 1.69075 74.3974 0.625488 73.0833 0.625488Z" fill="#28C5E6" style="fill:#28C5E6;fill:color(display-p3 0.1569 0.7725 0.9020);fill-opacity:1;"/>
<path d="M67.3945 71.1176V44.2465C67.3945 42.6029 66.0621 41.2705 64.4186 41.2705H51.8307C50.1871 41.2705 48.8547 42.6029 48.8547 44.2465V71.1176C48.8547 72.7611 50.1871 74.0935 51.8307 74.0935H64.4186C66.0621 74.0935 67.3945 72.7611 67.3945 71.1176Z" fill="#28C5E6" style="fill:#28C5E6;fill:color(display-p3 0.1569 0.7725 0.9020);fill-opacity:1;"/>
<path d="M65.3269 20.9692H50.92C49.7787 20.9692 48.8535 21.8944 48.8535 23.0357V33.528C48.8535 34.6693 49.7787 35.5944 50.92 35.5944H65.3269C66.4681 35.5944 67.3933 34.6693 67.3933 33.528V23.0357C67.3933 21.8944 66.4681 20.9692 65.3269 20.9692Z" fill="#28C5E6" style="fill:#28C5E6;fill:color(display-p3 0.1569 0.7725 0.9020);fill-opacity:1;"/>
<path d="M88.7911 7.45809L88.6892 8.404L89.2568 7.68365L95.4125 0.734863H100.237L92.4438 9.19711L100.266 19.6094H95.5434L89.7225 11.5546L88.7984 12.4787V19.6094H85.0293V0.74214H88.7984V7.45809H88.7911Z" fill="black" style="fill:black;fill-opacity:1;"/>
<path d="M103.277 0.742188H116.149V4.32936H106.995V8.35311H115.101V11.9403H106.995V16.015H116.513V19.6021H103.277V0.742188Z" fill="black" style="fill:black;fill-opacity:1;"/>
<path d="M126.283 0.742188C127.462 0.742188 128.517 0.894988 129.434 1.19331C130.358 1.49164 131.129 1.92094 131.755 2.47393C132.38 3.02692 132.853 3.69633 133.181 4.47489C133.508 5.25344 133.668 6.12659 133.668 7.1016C133.668 7.87288 133.552 8.64416 133.319 9.40816C133.086 10.1794 132.715 10.878 132.191 11.511C131.667 12.144 130.983 12.6534 130.125 13.039C129.266 13.4246 128.211 13.6138 126.945 13.6138H124.275V19.6167H120.557V0.742188H126.276H126.283ZM126.923 10.0266C127.491 10.0266 127.957 9.93205 128.335 9.74287C128.713 9.55369 129.004 9.31357 129.223 9.02252C129.434 8.73147 129.586 8.42587 129.681 8.113C129.776 7.80012 129.819 7.50179 129.819 7.2253C129.819 7.02156 129.79 6.75962 129.732 6.43947C129.674 6.12659 129.55 5.79916 129.361 5.47901C129.172 5.15158 128.888 4.88236 128.502 4.65679C128.117 4.43851 127.6 4.32209 126.952 4.32209H124.282V10.0194H126.923V10.0266ZM130.409 12.3332L135.08 19.6167H130.743L125.97 12.4351L130.409 12.3332Z" fill="black" style="fill:black;fill-opacity:1;"/>
<path d="M136.232 19.6167L144.746 0H144.949L153.463 19.6167H149.155L143.72 5.82097L146.412 3.97282L139.9 19.6167H136.232ZM142.053 12.7989H147.722L149.031 15.9276H140.904L142.061 12.7989H142.053Z" fill="black" style="fill:black;fill-opacity:1;"/>
<path d="M156.416 0.742188H160.134V16.0295H169.011V19.6167H156.416V0.742188Z" fill="black" style="fill:black;fill-opacity:1;"/>
<path d="M170.932 19.6167L179.445 0H179.649L188.162 19.6167H183.854L178.419 5.82097L181.111 3.97282L174.599 19.6167H170.932ZM176.753 12.7989H182.421L183.73 15.9276H175.603L176.76 12.7989H176.753Z" fill="black" style="fill:black;fill-opacity:1;"/>
<path d="M85.0137 27.4751H88.7318V46.3496H85.0137V27.4751Z" fill="black" style="fill:black;fill-opacity:1;"/>
<path d="M110.255 47.1209L95.9424 34.1984L97.0484 34.8168L97.1285 46.3569H93.3594V26.7402H93.5122L107.512 39.6119L106.689 39.2553L106.609 27.4824H110.357V47.1282H110.255V47.1209Z" fill="black" style="fill:black;fill-opacity:1;"/>
<path d="M131.872 47.1209L117.56 34.1984L118.666 34.8168L118.746 46.3569H114.977V26.7402H115.129L129.129 39.6119L128.307 39.2553L128.227 27.4824H131.974V47.1282H131.872V47.1209Z" fill="black" style="fill:black;fill-opacity:1;"/>
<path d="M135.439 36.942C135.439 35.6396 135.687 34.4099 136.182 33.2457C136.676 32.0815 137.368 31.0556 138.248 30.1533C139.128 29.2583 140.147 28.5525 141.311 28.0359C142.476 27.5193 143.72 27.2646 145.059 27.2646C146.397 27.2646 147.613 27.5193 148.777 28.0359C149.941 28.5525 150.967 29.2511 151.869 30.1533C152.764 31.0483 153.47 32.0815 153.972 33.2457C154.474 34.4099 154.729 35.6396 154.729 36.942C154.729 38.2445 154.474 39.5251 153.972 40.6893C153.47 41.8535 152.764 42.8721 151.869 43.7526C150.974 44.633 149.941 45.3242 148.777 45.819C147.613 46.3138 146.376 46.5612 145.059 46.5612C143.742 46.5612 142.476 46.3138 141.311 45.819C140.147 45.3242 139.128 44.633 138.248 43.7526C137.368 42.8721 136.676 41.8535 136.182 40.6893C135.687 39.5251 135.439 38.2808 135.439 36.942ZM139.289 36.942C139.289 37.7788 139.441 38.5646 139.74 39.2922C140.038 40.0199 140.46 40.6602 140.998 41.2132C141.537 41.7662 142.163 42.2027 142.868 42.5083C143.574 42.8139 144.353 42.9667 145.19 42.9667C146.026 42.9667 146.739 42.8139 147.431 42.5083C148.122 42.2027 148.726 41.7662 149.235 41.2132C149.752 40.6602 150.152 40.0199 150.443 39.2922C150.734 38.5646 150.88 37.7861 150.88 36.942C150.88 36.098 150.727 35.2903 150.428 34.5554C150.13 33.8205 149.715 33.1729 149.199 32.6199C148.675 32.067 148.064 31.6304 147.365 31.3248C146.667 31.0192 145.903 30.8664 145.08 30.8664C144.258 30.8664 143.502 31.0192 142.796 31.3248C142.097 31.6304 141.479 32.067 140.948 32.6199C140.416 33.1729 140.009 33.8205 139.718 34.5554C139.427 35.2903 139.281 36.0834 139.281 36.942H139.289Z" fill="black" style="fill:black;fill-opacity:1;"/>
<path d="M159.747 27.4751L165.263 41.0671L163.109 40.6305L168.108 27.4751H172.517L163.902 47.2228L155.287 27.4751H159.747Z" fill="black" style="fill:black;fill-opacity:1;"/>
<path d="M170.83 46.3501L179.343 26.7334H179.547L188.06 46.3501H183.753L178.317 32.5544L181.01 30.7062L174.497 46.3501H170.83ZM176.651 39.5323H182.319L183.629 42.661H175.501L176.658 39.5323H176.651Z" fill="black" style="fill:black;fill-opacity:1;"/>
<path d="M187.73 27.4751H200.449V31.0623H195.858V46.3496H192.14V31.0623H187.73V27.4751Z" fill="black" style="fill:black;fill-opacity:1;"/>
<path d="M203.783 27.4751H207.501V46.3496H203.783V27.4751Z" fill="black" style="fill:black;fill-opacity:1;"/>
<path d="M210.963 36.942C210.963 35.6396 211.21 34.4099 211.705 33.2457C212.2 32.0815 212.891 31.0556 213.772 30.1533C214.652 29.2583 215.671 28.5525 216.835 28.0359C217.999 27.5193 219.243 27.2646 220.582 27.2646C221.921 27.2646 223.136 27.5193 224.3 28.0359C225.464 28.5525 226.49 29.2511 227.393 30.1533C228.288 31.0483 228.993 32.0815 229.495 33.2457C229.997 34.4099 230.252 35.6396 230.252 36.942C230.252 38.2445 229.997 39.5251 229.495 40.6893C228.993 41.8535 228.288 42.8721 227.393 43.7526C226.498 44.633 225.464 45.3242 224.3 45.819C223.136 46.3138 221.899 46.5612 220.582 46.5612C219.265 46.5612 217.999 46.3138 216.835 45.819C215.671 45.3242 214.652 44.633 213.772 43.7526C212.891 42.8721 212.2 41.8535 211.705 40.6893C211.21 39.5251 210.963 38.2808 210.963 36.942ZM214.812 36.942C214.812 37.7788 214.965 38.5646 215.263 39.2922C215.561 40.0199 215.983 40.6602 216.522 41.2132C217.06 41.7662 217.686 42.2027 218.392 42.5083C219.098 42.8139 219.876 42.9667 220.713 42.9667C221.55 42.9667 222.263 42.8139 222.954 42.5083C223.645 42.2027 224.249 41.7662 224.759 41.2132C225.275 40.6602 225.675 40.0199 225.966 39.2922C226.257 38.5646 226.403 37.7861 226.403 36.942C226.403 36.098 226.25 35.2903 225.952 34.5554C225.654 33.8205 225.239 33.1729 224.722 32.6199C224.198 32.067 223.587 31.6304 222.889 31.3248C222.19 31.0192 221.426 30.8664 220.604 30.8664C219.782 30.8664 219.025 31.0192 218.319 31.3248C217.621 31.6304 217.002 32.067 216.471 32.6199C215.94 33.1729 215.532 33.8205 215.241 34.5554C214.95 35.2903 214.805 36.0834 214.805 36.942H214.812Z" fill="black" style="fill:black;fill-opacity:1;"/>
<path d="M250.612 47.1209L236.3 34.1984L237.406 34.8168L237.486 46.3569H233.717V26.7402H233.87L247.869 39.6119L247.047 39.2553L246.967 27.4824H250.714V47.1282H250.612V47.1209Z" fill="black" style="fill:black;fill-opacity:1;"/>
<path d="M85.0137 54.2153H96.8084V57.8025H88.7318V62.0882H95.7315V65.6754H88.7318V73.0898H85.0137V54.2153Z" fill="black" style="fill:black;fill-opacity:1;"/>
<path d="M100.504 54.2152H113.376V57.8024H104.222V61.8262H112.328V65.4133H104.222V69.488H113.739V73.0752H100.504V54.2007V54.2152Z" fill="black" style="fill:black;fill-opacity:1;"/>
<path d="M127.77 58.7777C127.05 58.3848 126.322 58.0574 125.58 57.8027C124.838 57.548 124.139 57.4171 123.492 57.4171C122.691 57.4171 122.058 57.5772 121.593 57.9046C121.134 58.232 120.901 58.7195 120.901 59.3671C120.901 59.811 121.076 60.2111 121.425 60.5604C121.775 60.9097 122.226 61.2225 122.786 61.499C123.339 61.7755 123.921 62.0229 124.518 62.2412C125.063 62.4449 125.609 62.6923 126.148 62.9688C126.686 63.2453 127.166 63.6019 127.595 64.0166C128.025 64.4386 128.367 64.9552 128.621 65.581C128.876 66.2067 129.007 66.9707 129.007 67.873C129.007 68.8335 128.76 69.7212 128.265 70.5434C127.77 71.3656 127.043 72.0277 126.082 72.5298C125.122 73.0318 123.943 73.2865 122.546 73.2865C121.825 73.2865 121.098 73.2137 120.356 73.0682C119.613 72.9227 118.879 72.7044 118.166 72.3988C117.452 72.0932 116.754 71.7221 116.092 71.2564L117.736 68.3605C118.18 68.6879 118.66 68.9717 119.184 69.2191C119.708 69.4665 120.232 69.663 120.763 69.7939C121.294 69.9322 121.782 69.9977 122.226 69.9977C122.67 69.9977 123.121 69.9322 123.572 69.8085C124.023 69.6775 124.401 69.4592 124.7 69.1536C124.998 68.848 125.151 68.4187 125.151 67.873C125.151 67.4946 125.027 67.1527 124.78 66.8471C124.532 66.5415 124.198 66.2577 123.783 66.003C123.361 65.7483 122.91 65.5228 122.408 65.3336C121.825 65.1153 121.229 64.8534 120.61 64.5623C119.992 64.2713 119.417 63.9147 118.879 63.5C118.34 63.078 117.904 62.5614 117.569 61.9356C117.234 61.3099 117.067 60.5458 117.067 59.6436C117.067 58.5522 117.307 57.599 117.794 56.7986C118.282 55.9982 118.973 55.3579 119.861 54.8849C120.749 54.412 121.775 54.1573 122.939 54.0991C124.459 54.0991 125.696 54.281 126.642 54.6376C127.588 54.9941 128.44 55.4234 129.196 55.9182L127.785 58.7632L127.77 58.7777Z" fill="black" style="fill:black;fill-opacity:1;"/>
<path d="M131.465 54.2153H144.184V57.8025H139.592V73.0898H135.874V57.8025H131.465V54.2153Z" fill="black" style="fill:black;fill-opacity:1;"/>
<path d="M147.875 54.2153H151.593V73.0898H147.875V54.2153Z" fill="black" style="fill:black;fill-opacity:1;"/>
<path d="M159.411 54.2153L164.927 67.8073L162.773 67.3707L167.772 54.2153H172.181L163.566 73.963L154.951 54.2153H159.411Z" fill="black" style="fill:black;fill-opacity:1;"/>
<path d="M170.852 73.0903L179.365 53.4736H179.568L188.082 73.0903H183.774L178.339 59.2946L181.031 57.4464L174.519 73.0903H170.852ZM176.673 66.2652H182.341L183.65 69.394H175.523L176.68 66.2652H176.673Z" fill="black" style="fill:black;fill-opacity:1;"/>
<path d="M190.934 54.2153H194.652V69.5027H203.529V73.0898H190.934V54.2153Z" fill="black" style="fill:black;fill-opacity:1;"/>
</svg>
