<svg width="551" height="501" viewBox="0 0 551 501" fill="none" xmlns="http://www.w3.org/2000/svg">
<path d="M442.914 46.0759C410.485 0.0328903 347.297 -13.0201 299.082 17.3229C267.067 37.4709 249.45 71.8479 249.268 107.066L152.341 168.065C120.511 152.993 81.8958 154.005 49.8808 174.153C1.6658 204.496 -13.9012 267.112 13.5818 316.268L13.4128 316.323L113.813 475.858L114.011 475.783C132.902 501.244 168.521 508.242 195.802 491.074C217.382 477.493 227.582 452.667 223.587 429.002L214.152 348.141L384.881 240.696L453.702 284.184C473.31 298.023 500.106 299.567 521.685 285.986C548.966 268.817 558.065 233.677 543.283 205.63L543.436 205.484L443.036 45.9489L442.914 46.0759Z" fill="white"/>
<path d="M442.956 46.3018C442.956 46.3018 555.065 235.877 467.025 291.292C484.439 297.99 504.681 296.686 521.686 285.984C548.967 268.815 558.066 233.675 543.284 205.628L543.437 205.482L443.063 45.9888L442.956 46.3018Z" fill="white"/>
<path d="M161.917 238.628L137.829 253.787C135.058 255.531 131.397 254.698 129.653 251.927L114.494 227.839C112.75 225.068 109.089 224.235 106.318 225.979L82.2297 241.138C79.4587 242.882 78.6257 246.543 80.3697 249.314L95.5287 273.402C97.2727 276.174 96.4397 279.834 93.6687 281.579L70.0827 296.422C67.3117 298.166 66.4787 301.827 68.2227 304.598L83.3817 328.686C85.1257 331.458 88.7867 332.29 91.5577 330.546L115.144 315.703C117.915 313.959 121.576 314.792 123.32 317.563L138.163 341.149C139.907 343.921 143.568 344.753 146.339 343.009L170.427 327.85C173.199 326.106 174.031 322.445 172.287 319.674L157.444 296.088C155.7 293.316 156.533 289.656 159.304 287.911L183.392 272.752C186.163 271.008 186.996 267.347 185.252 264.576L170.093 240.488C168.35 237.716 164.689 236.884 161.917 238.628Z" fill="white"/>
<path d="M371.84 104.045C378.397 95.3151 376.635 82.9227 367.906 76.3657C359.176 69.8086 346.784 71.5698 340.227 80.2995C333.67 89.0291 335.431 101.422 344.161 107.979C352.89 114.536 365.283 112.774 371.84 104.045Z" fill="white"/>
<path d="M360.798 136.91C366.613 146.15 363.837 158.355 354.596 164.17C345.356 169.985 333.151 167.209 327.336 157.968C321.521 148.728 324.298 136.523 333.538 130.708C342.778 124.893 354.983 127.67 360.798 136.91Z" fill="white"/>
<path d="M426.291 95.6942C432.106 104.934 429.33 117.139 420.089 122.954C410.849 128.769 398.644 125.993 392.829 116.752C387.014 107.512 389.79 95.3072 399.031 89.4922C408.271 83.6772 420.476 86.4532 426.291 95.6942Z" fill="white"/>
<path d="M413.289 172.623C420.49 164.416 419.674 151.927 411.467 144.726C403.26 137.526 390.77 138.342 383.57 146.549C376.37 154.756 377.186 167.246 385.393 174.446C393.6 181.646 406.089 180.83 413.289 172.623Z" fill="white"/>
<path d="M153.754 236.771L129.666 251.93C126.894 253.674 123.234 252.841 121.49 250.07L106.331 225.982C104.587 223.21 100.926 222.378 98.1546 224.122L74.0666 239.281C71.2956 241.025 70.4626 244.686 72.2066 247.457L87.3656 271.545C89.1096 274.316 88.2766 277.977 85.5056 279.721L61.9196 294.564C59.1486 296.308 58.3156 299.969 60.0596 302.74L75.2186 326.828C76.9626 329.599 80.6236 330.432 83.3946 328.688L106.981 313.845C109.752 312.101 113.413 312.934 115.157 315.705L130 339.292C131.744 342.063 135.405 342.896 138.177 341.152L162.265 325.993C165.036 324.249 165.869 320.588 164.125 317.817L149.282 294.231C147.538 291.46 148.371 287.799 151.142 286.054L175.23 270.895C178.002 269.151 178.834 265.49 177.09 262.718L161.931 238.63C160.186 235.859 156.525 235.026 153.754 236.771Z" fill="#FCC310"/>
<path d="M347.851 110.105C358.769 110.105 367.619 101.254 367.619 90.3369C367.619 79.4193 358.769 70.5688 347.851 70.5688C336.933 70.5688 328.083 79.4193 328.083 90.3369C328.083 101.254 336.933 110.105 347.851 110.105Z" fill="#FCC310"/>
<path d="M335.904 165.35C346.821 165.35 355.672 156.5 355.672 145.582C355.672 134.664 346.821 125.814 335.904 125.814C324.986 125.814 316.136 134.664 316.136 145.582C316.136 156.5 324.986 165.35 335.904 165.35Z" fill="#FCC310"/>
<path d="M416.686 116.865C423.59 108.408 422.332 95.9558 413.875 89.0515C405.418 82.1472 392.966 83.4058 386.061 91.8625C379.157 100.319 380.416 112.772 388.872 119.676C397.329 126.58 409.782 125.322 416.686 116.865Z" fill="#FCC310"/>
<path d="M393.497 177.235C404.265 175.437 411.536 165.25 409.738 154.482C407.94 143.714 397.753 136.443 386.985 138.241C376.217 140.039 368.946 150.226 370.744 160.994C372.542 171.762 382.729 179.033 393.497 177.235Z" fill="#FCC310"/>
<path d="M76.8079 190.357C90.9049 181.486 106.346 176.513 121.871 175.15C100.126 170.535 76.6349 174.043 56.3359 186.818C14.9459 212.866 2.50893 267.535 28.5569 308.924C32.5539 315.275 37.2299 320.939 42.4239 325.892C16.0479 279.068 30.8289 219.293 76.8079 190.357Z" fill="white"/>
<path d="M141.131 496.385C158.547 503.085 178.795 501.776 195.803 491.073C217.383 477.492 227.583 452.666 223.588 429.001L214.435 350.558C214.436 350.565 223.529 444.53 141.131 496.385Z" fill="white"/>
<path d="M359.245 224.353L284.966 270.859L210.687 317.366L214.185 348.297L299.66 294.328L385.542 241.009L359.245 224.353Z" fill="white"/>
</svg>
