<svg width="532" height="384" viewBox="0 0 532 384" fill="none" xmlns="http://www.w3.org/2000/svg">
<path opacity="0.2" d="M448.403 155.233H312.317C295.773 155.233 286.332 136.342 296.264 123.111L331.933 75.5903C342.082 62.0683 358.004 54.1113 374.911 54.1113H510.997C527.541 54.1113 536.982 73.0023 527.051 86.2333L491.382 133.754C481.231 147.276 465.31 155.233 448.403 155.233Z" fill="#26BDE2"/>
<path opacity="0.2" d="M407.517 107.017H271.431C254.887 107.017 245.446 88.1255 255.377 74.8945L291.046 27.3735C301.195 13.8515 317.116 5.89453 334.024 5.89453H470.11C486.654 5.89453 496.095 24.7855 486.164 38.0165L450.495 85.5375C440.346 99.0605 424.425 107.017 407.517 107.017Z" fill="#26BDE2"/>
<path opacity="0.2" d="M179.99 299.062H94.3261C83.9121 299.062 77.9691 287.171 84.2211 278.841L106.674 248.927C113.063 240.415 123.085 235.406 133.728 235.406H219.392C229.806 235.406 235.749 247.297 229.497 255.626L207.043 285.541C200.654 294.053 190.632 299.062 179.99 299.062Z" fill="#26BDE2"/>
<path opacity="0.2" d="M154.253 268.711H68.5891C58.1751 268.711 52.2321 256.82 58.4841 248.491L80.9371 218.577C87.3261 210.065 97.3481 205.056 107.991 205.056H193.655C204.069 205.056 210.012 216.947 203.76 225.276L181.307 255.19C174.918 263.702 164.895 268.711 154.253 268.711Z" fill="#26BDE2"/>
<path d="M509.48 84.2453H460.14C458.356 84.2453 457.164 82.4063 457.894 80.7783C458.29 79.8933 459.17 79.3223 460.14 79.3223H509.48C511.264 79.3223 512.456 81.1613 511.727 82.7893C511.33 83.6753 510.45 84.2453 509.48 84.2453Z" fill="#26BDE2"/>
<path d="M477.03 92.6193H460.139C458.355 92.6193 457.163 90.7803 457.893 89.1513C458.289 88.2663 459.169 87.6963 460.139 87.6963H477.03C478.814 87.6963 480.006 89.5353 479.277 91.1633C478.881 92.0493 478.001 92.6193 477.03 92.6193Z" fill="#26BDE2"/>
<path d="M400.394 19.9008H314.771C313.121 19.9008 311.784 18.5638 311.784 16.9138C311.784 15.2638 313.121 13.9268 314.771 13.9268H400.394C402.044 13.9268 403.381 15.2638 403.381 16.9138C403.381 18.5638 402.044 19.9008 400.394 19.9008Z" fill="#26BDE2"/>
<path d="M436.217 19.9008H415.867C414.217 19.9008 412.88 18.5638 412.88 16.9138C412.88 15.2638 414.217 13.9268 415.867 13.9268H436.217C437.867 13.9268 439.204 15.2638 439.204 16.9138C439.204 18.5638 437.867 19.9008 436.217 19.9008Z" fill="#26BDE2"/>
<path d="M462.67 19.9008H452.203C450.554 19.9008 449.216 18.5638 449.216 16.9138C449.216 15.2638 450.553 13.9268 452.203 13.9268H462.67C464.32 13.9268 465.657 15.2638 465.657 16.9138C465.657 18.5638 464.32 19.9008 462.67 19.9008Z" fill="#26BDE2"/>
<path d="M335.121 35.6986H314.771C313.121 35.6986 311.784 34.3616 311.784 32.7116C311.784 31.0616 313.121 29.7246 314.771 29.7246H335.121C336.771 29.7246 338.108 31.0616 338.108 32.7116C338.108 34.3616 336.771 35.6986 335.121 35.6986Z" fill="#26BDE2"/>
<path d="M361.574 35.6986H351.107C349.457 35.6986 348.12 34.3616 348.12 32.7116C348.12 31.0616 349.457 29.7246 351.107 29.7246H361.574C363.224 29.7246 364.561 31.0616 364.561 32.7116C364.561 34.3616 363.224 35.6986 361.574 35.6986Z" fill="#26BDE2"/>
<path d="M401.924 69.2829H375.823C373.801 69.2829 372.162 67.6439 372.162 65.6219C372.162 63.5999 373.801 61.9609 375.823 61.9609H401.924C403.946 61.9609 405.585 63.5999 405.585 65.6219C405.585 67.6439 403.946 69.2829 401.924 69.2829Z" fill="#26BDE2"/>
<path d="M402.447 65.6221L425.43 41.6701C426.149 40.9201 427.144 40.4961 428.183 40.4961H442.41" stroke="#26BDE2" stroke-width="1.6184" stroke-miterlimit="10"/>
<path d="M449.103 46.0667C452.201 42.3649 451.711 36.8527 448.01 33.7547C444.308 30.6568 438.796 31.1463 435.698 34.8481C432.6 38.5499 433.089 44.0622 436.791 47.1601C440.493 50.2581 446.005 49.7686 449.103 46.0667Z" stroke="#26BDE2" stroke-width="1.6184" stroke-miterlimit="10"/>
<path d="M446.599 40.4966C446.599 38.1836 444.724 36.3076 442.41 36.3076C440.097 36.3076 438.221 38.1826 438.221 40.4966C438.221 42.8106 440.096 44.6856 442.41 44.6856C444.724 44.6856 446.599 42.8096 446.599 40.4966Z" fill="#26BDE2"/>
<path d="M442.135 162.66V178.055C442.135 179.134 443.372 179.746 444.23 179.091L454.316 171.394C455 170.872 455 169.843 454.316 169.321L444.23 161.624C443.371 160.968 442.135 161.58 442.135 162.66Z" fill="#26BDE2"/>
<path d="M455.674 162.66V178.055C455.674 179.134 456.911 179.746 457.769 179.091L467.855 171.394C468.539 170.872 468.539 169.843 467.855 169.321L457.769 161.624C456.91 160.968 455.674 161.58 455.674 162.66Z" fill="#26BDE2"/>
<path opacity="0.2" d="M157.549 157.55C186.553 128.546 186.553 81.5209 157.549 52.5169C128.545 23.5129 81.5202 23.513 52.5163 52.5169C23.5123 81.5209 23.5124 128.546 52.5163 157.55C81.5203 186.553 128.545 186.554 157.549 157.55Z" fill="#26BDE2"/>
<mask id="mask0_21_14" style="mask-type:luminance" maskUnits="userSpaceOnUse" x="88" y="88" width="34" height="34">
<path d="M121.575 106.127C122.182 96.99 115.267 89.091 106.131 88.4839C96.994 87.8768 89.095 94.7915 88.4879 103.928C87.8808 113.065 94.7955 120.964 103.932 121.571C113.069 122.178 120.968 115.263 121.575 106.127Z" fill="white"/>
</mask>
<g mask="url(#mask0_21_14)">
<path d="M110.566 123.883L83.0561 104.865C82.6491 104.584 82.5471 104.026 82.8291 103.619C83.1101 103.212 83.6681 103.11 84.0751 103.392L111.585 122.41C111.992 122.691 112.094 123.249 111.812 123.656C111.531 124.062 110.973 124.164 110.566 123.883Z" fill="#26BDE2"/>
<path d="M107.874 127.779L80.3641 108.761C79.9571 108.48 79.8551 107.922 80.1371 107.515C80.4181 107.108 80.9761 107.007 81.3831 107.288L108.893 126.306C109.3 126.587 109.401 127.145 109.12 127.552C108.838 127.958 108.28 128.06 107.874 127.779Z" fill="#26BDE2"/>
<path d="M88.2281 97.3857L116.08 116.64C116.487 116.921 117.045 116.819 117.326 116.413C117.607 116.006 117.505 115.449 117.099 115.167L89.2471 95.9127C88.8401 95.6317 88.2821 95.7337 88.0011 96.1397C87.7191 96.5477 87.8211 97.1047 88.2281 97.3857Z" fill="#26BDE2"/>
<path d="M85.5351 101.281L113.387 120.535C113.794 120.816 114.352 120.714 114.633 120.308C114.914 119.901 114.812 119.343 114.406 119.062L86.5541 99.8082C86.1471 99.5272 85.5901 99.6292 85.3081 100.035C85.0261 100.442 85.1281 101 85.5351 101.281Z" fill="#26BDE2"/>
<path d="M121.123 108.612L93.6131 89.594C93.2061 89.313 93.1041 88.755 93.3861 88.348C93.6671 87.941 94.2251 87.8399 94.6321 88.1209L122.142 107.139C122.549 107.42 122.65 107.978 122.369 108.385C122.088 108.791 121.53 108.893 121.123 108.612Z" fill="#26BDE2"/>
<path d="M118.43 112.507L90.9201 93.4899C90.5131 93.2089 90.4121 92.6509 90.6931 92.2439C90.9741 91.8369 91.5321 91.7349 91.9391 92.0169L119.449 111.035C119.856 111.316 119.958 111.874 119.676 112.281C119.395 112.687 118.837 112.788 118.43 112.507Z" fill="#26BDE2"/>
<path d="M98.7841 82.1142L126.636 101.368C127.043 101.649 127.6 101.547 127.882 101.141C128.163 100.734 128.061 100.177 127.655 99.8952L99.8031 80.6412C99.3961 80.3602 98.8381 80.4622 98.5571 80.8682C98.2761 81.2752 98.3781 81.8332 98.7841 82.1142Z" fill="#26BDE2"/>
<path d="M96.0911 86.0107L123.943 105.265C124.35 105.546 124.907 105.444 125.189 105.038C125.47 104.631 125.368 104.073 124.962 103.792L97.1101 84.5377C96.7031 84.2567 96.1461 84.3587 95.8641 84.7647C95.5831 85.1717 95.6851 85.7287 96.0911 86.0107Z" fill="#26BDE2"/>
</g>
<path d="M105.038 167.482C139.529 167.482 167.49 139.521 167.49 105.03C167.49 70.5388 139.529 42.5781 105.038 42.5781C70.5468 42.5781 42.5861 70.5388 42.5861 105.03C42.5861 139.521 70.5468 167.482 105.038 167.482Z" stroke="#26BDE2" stroke-width="2.3107" stroke-miterlimit="10"/>
<path d="M162.779 38.1707L147.188 27.3927C146.095 26.6367 144.609 27.4607 144.672 28.7887L145.406 44.3927C145.456 45.4507 146.498 46.1707 147.505 45.8437L162.362 41.0177C163.626 40.6067 163.872 38.9257 162.779 38.1707Z" fill="#26BDE2"/>
<path d="M47.2961 171.891L62.8871 182.669C63.9801 183.425 65.4661 182.601 65.4031 181.273L64.6691 165.669C64.6191 164.611 63.5771 163.891 62.5701 164.218L47.7131 169.044C46.4491 169.454 46.2031 171.135 47.2961 171.891Z" fill="#26BDE2"/>
<path d="M82.7431 138.132C63.7001 124.968 58.9351 98.8591 72.0991 79.8171C85.2631 60.7741 111.372 56.0091 130.414 69.1731C149.457 82.3371 154.222 108.446 141.058 127.488" stroke="#26BDE2" stroke-width="1.9256" stroke-miterlimit="10"/>
<path d="M79.4361 135.846C78.1731 137.672 78.6301 140.176 80.4571 141.439C82.2831 142.702 84.7871 142.244 86.0501 140.418C87.3121 138.592 86.8551 136.088 85.0291 134.825C83.2031 133.562 80.6991 134.019 79.4361 135.846Z" fill="#26BDE2"/>
<path d="M137.751 125.202C136.489 127.028 136.946 129.532 138.772 130.795C140.598 132.057 143.102 131.6 144.365 129.774C145.628 127.948 145.17 125.444 143.344 124.181C141.518 122.918 139.014 123.375 137.751 125.202Z" fill="#26BDE2"/>
<path d="M316.597 176.867L313.839 175.176C331.224 146.824 336.577 125.389 329.319 113.19C321.861 100.655 303.362 101.475 303.175 101.49L303.001 98.2595C303.841 98.2085 323.616 97.3055 332.09 111.517C340.129 125.003 334.917 146.99 316.597 176.867Z" fill="#1A486A"/>
<path d="M330.374 172.765L328.603 171.534C349.729 141.126 356.392 119.174 348.407 106.288C337.972 89.4506 305.305 94.0406 304.976 94.0886L304.662 91.9546C305.01 91.9026 313.297 90.7096 323.076 91.6796C336.191 92.9806 345.583 97.6376 350.239 105.148C358.721 118.833 352.038 141.582 330.374 172.765Z" fill="#1A486A"/>
<path d="M299.86 330.957C384.683 311.343 450.144 281.163 446.071 263.55C441.998 245.937 369.934 247.559 285.111 267.174C200.287 286.789 134.827 316.968 138.9 334.581C142.972 352.195 215.037 350.572 299.86 330.957Z" fill="#26BDE2"/>
<path opacity="0.2" d="M299.86 330.958C426.479 301.678 524.196 256.628 518.116 230.336C512.037 204.044 404.462 206.466 277.842 235.746C151.223 265.026 53.5057 310.076 59.5856 336.368C65.6655 362.66 173.24 360.238 299.86 330.958Z" fill="#26BDE2"/>
<path d="M299.86 330.957C397.494 308.379 472.842 273.642 468.154 253.369C463.466 233.096 380.517 234.964 282.883 257.541C185.248 280.118 109.9 314.856 114.588 335.129C119.276 355.402 202.225 353.534 299.86 330.957Z" stroke="white" stroke-width="1.0785" stroke-miterlimit="10"/>
<path d="M299.86 330.958C373.006 314.043 429.455 288.019 425.943 272.83C422.43 257.641 360.287 259.04 287.141 275.955C213.995 292.869 157.546 318.894 161.058 334.083C164.57 349.271 226.714 347.872 299.86 330.958Z" fill="#FCC310"/>
<path d="M292.375 160.991L223.78 176.365C192.654 183.341 175.194 217.249 186.856 248.071L223.293 344.37C271.822 339.008 319.163 328.69 365.533 312.488L356.368 209.422C353.375 176.865 323.255 154.07 292.375 160.991Z" fill="white"/>
<path d="M163.059 271.981C175.039 278.255 189.837 273.629 196.111 261.649L221.615 212.949C227.889 200.969 223.263 186.171 211.283 179.897C199.303 173.623 184.505 178.249 178.231 190.229L152.727 238.929C146.453 250.909 151.079 265.707 163.059 271.981Z" fill="#E5243B"/>
<path d="M396.665 224.543C405.427 214.241 404.178 198.788 393.876 190.026L367.759 167.813C357.457 159.052 342.004 160.3 333.242 170.602C324.48 180.904 325.729 196.357 336.031 205.119L362.148 227.332C372.45 236.093 387.904 234.845 396.665 224.543Z" fill="#E5243B"/>
<path d="M373.937 233.55C385.033 237.144 396.941 231.063 400.536 219.968L422.073 153.485C425.667 142.389 419.586 130.481 408.491 126.886C397.395 123.292 385.487 129.373 381.892 140.468L360.355 206.951C356.76 218.047 362.841 229.956 373.937 233.55Z" fill="#E5243B"/>
<path d="M395.146 169.577C405.305 172.868 416.209 167.3 419.5 157.141L422.161 148.928C425.452 138.769 419.884 127.865 409.725 124.574C399.566 121.283 388.662 126.851 385.371 137.01L382.71 145.223C379.419 155.382 384.986 166.286 395.146 169.577Z" fill="#4C9F38"/>
<path d="M396.844 155.012L402.311 156.783C410.96 159.585 420.244 154.845 423.046 146.195C425.848 137.546 421.108 128.262 412.458 125.46L406.991 123.689C398.342 120.887 389.058 125.627 386.256 134.277C383.454 142.927 388.194 152.21 396.844 155.012Z" fill="#FCC310"/>
<path d="M187.883 272.246L188.347 271.782C196.724 263.405 196.724 249.822 188.347 241.445L146.826 199.924C138.449 191.547 124.866 191.547 116.489 199.924L116.025 200.388C107.648 208.765 107.648 222.348 116.025 230.725L157.546 272.246C165.924 280.623 179.506 280.623 187.883 272.246Z" fill="#E5243B"/>
<path d="M153.523 237.423C161.194 229.752 161.194 217.316 153.523 209.645L144.035 200.157C136.364 192.486 123.928 192.486 116.257 200.157C108.586 207.828 108.586 220.264 116.257 227.935L125.745 237.423C133.416 245.093 145.852 245.093 153.523 237.423Z" fill="#4C9F38"/>
<path d="M142.529 227.433L143.533 226.429C150.926 219.036 150.926 207.048 143.533 199.655C136.14 192.261 124.152 192.261 116.759 199.655L115.755 200.659C108.362 208.052 108.362 220.039 115.755 227.433C123.149 234.826 135.136 234.826 142.529 227.433Z" fill="#FCC310"/>
<path d="M261.784 165.911C292.207 165.911 316.87 159.948 316.87 152.591C316.87 145.235 292.207 139.271 261.784 139.271C231.361 139.271 206.698 145.235 206.698 152.591C206.698 159.948 231.361 165.911 261.784 165.911Z" fill="#1A486A"/>
<path d="M261.784 165.912C283.295 165.912 300.733 161.696 300.733 156.494C300.733 151.293 283.295 147.076 261.784 147.076C240.273 147.076 222.835 151.293 222.835 156.494C222.835 161.696 240.273 165.912 261.784 165.912Z" fill="#090D68"/>
<path d="M244.476 106.485C245.361 98.3091 239.755 90.9969 231.955 90.1527C224.154 89.3085 217.114 95.252 216.229 103.428C215.344 111.604 220.95 118.916 228.75 119.76C236.55 120.604 243.591 114.661 244.476 106.485Z" fill="#E5243B"/>
<path d="M234.928 49.9971C234.928 49.9971 198.696 57.1421 236.245 76.9521C236.245 76.9521 248.126 54.0911 234.928 49.9971Z" fill="#1A486A"/>
<path d="M285.594 180.703L282.807 134.164L239.426 136.762L242.213 183.301C242.93 195.28 253.223 204.41 265.202 203.693C277.182 202.975 286.311 192.682 285.594 180.703Z" fill="#E583A6"/>
<mask id="mask1_21_14" style="mask-type:luminance" maskUnits="userSpaceOnUse" x="238" y="127" width="56" height="74">
<path d="M293.07 172.139L279.87 127.424L238.189 139.728L251.39 184.444C254.787 195.953 266.872 202.529 278.382 199.132C289.892 195.733 296.468 183.648 293.07 172.139Z" fill="white"/>
</mask>
<g mask="url(#mask1_21_14)">
<path d="M255.237 158.284C266.853 155.597 274.759 146.889 272.896 138.833C271.033 130.776 260.106 126.423 248.491 129.109C236.875 131.795 228.969 140.504 230.832 148.56C232.695 156.616 243.621 160.97 255.237 158.284Z" fill="#E5243B"/>
</g>
<path d="M300.998 106.39C298.045 133.677 284.242 154.874 257.131 152.395C230.318 149.943 221.434 125.854 224.124 98.0721C226.769 70.7531 245.616 50.4111 267.907 52.8231C290.198 55.2351 303.95 79.1031 300.998 106.39Z" fill="#E583A6"/>
<path d="M288.079 93.0219C283.199 83.6429 267.223 83.7819 263.483 91.6949C263.483 91.6949 275.988 90.4479 288.079 93.0219Z" fill="#090D68"/>
<path d="M230.167 88.1594C233.7 79.7584 249.955 80.2984 251.915 88.8284C251.915 88.8284 240.763 84.1884 230.167 88.1594Z" fill="#090D68"/>
<path d="M268.886 124.325C266.799 121.796 243.943 120.807 242.686 122.874C241.43 124.941 246.759 137.205 256.316 136.012C265.873 134.818 270.973 126.855 268.886 124.325Z" fill="#7A1543"/>
<mask id="mask2_21_14" style="mask-type:luminance" maskUnits="userSpaceOnUse" x="242" y="121" width="28" height="16">
<path d="M268.886 124.325C266.799 121.796 243.943 120.807 242.686 122.874C241.43 124.941 246.759 137.205 256.316 136.012C265.873 134.818 270.973 126.855 268.886 124.325Z" fill="white"/>
</mask>
<g mask="url(#mask2_21_14)">
<path d="M245.241 133.502C244.931 136.363 249.208 139.173 254.792 139.777C260.377 140.381 265.155 138.552 265.464 135.69C265.774 132.829 261.497 130.019 255.913 129.415C250.329 128.811 245.551 130.641 245.241 133.502Z" fill="#E5243B"/>
</g>
<mask id="mask3_21_14" style="mask-type:luminance" maskUnits="userSpaceOnUse" x="242" y="121" width="28" height="16">
<path d="M268.886 124.325C266.799 121.796 243.943 120.807 242.686 122.874C241.43 124.941 246.759 137.205 256.316 136.012C265.873 134.818 270.973 126.855 268.886 124.325Z" fill="white"/>
</mask>
<g mask="url(#mask3_21_14)">
<path d="M243.482 122.318C243.297 124.029 249.363 125.61 255.132 126.234C260.901 126.858 266.395 124.897 266.58 123.186C266.765 121.475 261.572 120.663 255.802 120.039C250.034 119.414 243.667 120.607 243.482 122.318Z" fill="white"/>
</g>
<path d="M268.728 31.6957C268.728 31.6957 250.636 26.6577 240.016 34.6177C241.618 34.3607 243.475 34.3217 245.633 34.5547C280.669 38.3457 335.687 63.0127 301.491 101.832L291.662 111.454C291.662 111.454 290.118 90.9957 295.14 79.3117C295.14 79.3117 259.259 79.9617 236.193 67.0947C236.193 67.0947 213.355 13.7347 268.728 31.6957Z" fill="#1A486A"/>
<path d="M316.592 113.96C317.477 105.785 312.151 98.5029 304.698 97.6962C297.244 96.8895 290.484 102.863 289.599 111.039C288.714 119.215 294.039 126.497 301.493 127.303C308.947 128.11 315.707 122.136 316.592 113.96Z" fill="#E583A6"/>
<path d="M309.783 114.793C310.353 109.527 306.923 104.838 302.122 104.318C299.681 104.054 297.358 104.923 295.587 106.53C297.526 103.654 300.748 101.921 304.192 102.294C309.332 102.85 313.003 107.871 312.393 113.508C311.884 118.21 308.555 121.844 304.483 122.602C307.288 121.246 309.398 118.346 309.783 114.793Z" fill="#E5243B"/>
<path d="M255.012 107.191L254.236 114.363C254.07 115.893 252.696 116.999 251.166 116.834C249.225 116.624 248.184 114.421 249.279 112.804C250.666 110.757 252.292 108.753 254.161 106.793C254.486 106.452 255.063 106.724 255.012 107.191Z" fill="#E5243B"/>
<path d="M302.485 87.52L289.922 86.16C289.321 86.095 288.887 85.556 288.952 84.955C289.017 84.354 289.556 83.92 290.157 83.985L302.721 85.344C303.322 85.409 303.756 85.949 303.691 86.549C303.626 87.15 303.086 87.585 302.485 87.52Z" fill="#E583A6"/>
<path d="M301.886 93.0541L289.323 91.6951C288.722 91.6301 288.288 91.0911 288.353 90.4901C288.418 89.8891 288.958 89.4551 289.558 89.5201L302.122 90.8791C302.723 90.9441 303.157 91.4841 303.092 92.0841C303.027 92.6851 302.487 93.1191 301.886 93.0541Z" fill="#E583A6"/>
<path d="M284.799 102.754C284.799 102.754 283.908 98.7386 280.125 96.5586C275.431 93.8536 267.265 93.6066 262.4 103.038L284.799 102.754Z" fill="#090D68"/>
<path d="M261.784 104.99C261.784 104.99 262.404 101.301 265.428 99.0948C269.716 95.9688 277.607 94.8218 284.799 102.754C284.799 102.754 275.596 113.801 261.784 104.99Z" fill="white"/>
<mask id="mask4_21_14" style="mask-type:luminance" maskUnits="userSpaceOnUse" x="261" y="96" width="24" height="13">
<path d="M261.784 104.99C261.784 104.99 262.404 101.301 265.428 99.0948C269.716 95.9688 277.607 94.8218 284.799 102.754C284.799 102.754 275.596 113.801 261.784 104.99Z" fill="white"/>
</mask>
<g mask="url(#mask4_21_14)">
<path d="M276.608 102.555C275.652 105.941 272.174 107.924 268.84 106.982C265.506 106.041 263.579 102.532 264.535 99.1457C265.491 95.7597 268.969 93.7767 272.303 94.7187C275.637 95.6597 277.564 99.1677 276.608 102.555Z" fill="#090D68"/>
</g>
<path d="M266.34 100.655C266.227 101.697 266.98 102.632 268.022 102.745C269.064 102.858 269.999 102.105 270.112 101.063C270.225 100.021 269.472 99.086 268.43 98.973C267.388 98.861 266.453 99.6139 266.34 100.655Z" fill="#FCC310"/>
<path d="M270.733 104.12C270.684 104.571 271.01 104.976 271.461 105.025C271.912 105.074 272.317 104.748 272.366 104.297C272.415 103.846 272.089 103.441 271.637 103.392C271.187 103.343 270.781 103.669 270.733 104.12Z" fill="#FCC310"/>
<path d="M228.767 96.6902C228.767 96.6902 231.566 92.8302 236.481 91.7632C242.247 90.5112 250.296 92.7202 250.771 103.797L228.767 96.6902Z" fill="#090D68"/>
<path d="M250.771 103.797C250.771 103.797 250.955 100.06 248.472 97.259C244.952 93.288 237.489 90.48 228.767 96.69C228.767 96.69 235.394 109.45 250.771 103.797Z" fill="white"/>
<mask id="mask5_21_14" style="mask-type:luminance" maskUnits="userSpaceOnUse" x="228" y="93" width="23" height="13">
<path d="M250.771 103.797C250.771 103.797 250.955 100.06 248.472 97.259C244.952 93.288 237.489 90.48 228.767 96.69C228.767 96.69 235.394 109.45 250.771 103.797Z" fill="white"/>
</mask>
<g mask="url(#mask5_21_14)">
<path d="M236.655 98.1236C236.861 101.565 239.773 104.191 243.161 103.989C246.549 103.787 249.129 100.833 248.923 97.3906C248.717 93.9496 245.804 91.3236 242.417 91.5256C239.029 91.7276 236.449 94.6816 236.655 98.1236Z" fill="#090D68"/>
</g>
<path d="M238.945 97.1424C238.832 98.1844 239.585 99.1194 240.627 99.2324C241.669 99.3454 242.604 98.5925 242.717 97.5505C242.83 96.5085 242.077 95.5734 241.035 95.4604C239.993 95.3474 239.058 96.1004 238.945 97.1424Z" fill="#FCC310"/>
<path d="M243.337 100.607C243.288 101.058 243.614 101.463 244.066 101.512C244.517 101.561 244.923 101.235 244.971 100.783C245.02 100.332 244.694 99.9269 244.243 99.8779C243.792 99.8289 243.386 100.156 243.337 100.607Z" fill="#FCC310"/>
<path d="M244.663 28.4855C236.355 31.3965 233.8 37.8025 233.074 45.8995C232.848 48.6155 232.819 51.2235 232.516 53.9775L232.304 54.0185L231.671 49.9885C230.897 43.3955 231.436 35.5405 237.087 31.1365C239.251 29.4415 241.915 28.4235 244.66 28.2695L244.663 28.4855Z" fill="#FCC310"/>
<path d="M227.31 52.4751C219.33 57.1941 217.615 61.7461 224.463 68.6951C225.16 69.4981 225.937 70.213 226.66 71.004L226.597 71.091C222.691 68.229 217.099 63.454 219.801 58.093C221.367 55.255 224.349 53.528 227.275 52.373L227.31 52.4751Z" fill="#FCC310"/>
<path d="M409.864 153.513C424.608 153.513 436.561 141.56 436.561 126.816C436.561 112.072 424.608 100.119 409.864 100.119C395.12 100.119 383.167 112.072 383.167 126.816C383.167 141.56 395.12 153.513 409.864 153.513Z" fill="#1A486A"/>
<path d="M431.675 119.772C432.372 115.015 429.081 110.592 424.323 109.894C419.566 109.197 415.143 112.488 414.445 117.246C413.748 122.003 417.039 126.426 421.797 127.124C426.554 127.821 430.977 124.53 431.675 119.772Z" fill="#E5243B"/>
<path d="M428.974 113.024H417.239C413.941 113.024 411.267 110.35 411.267 107.052C411.267 103.754 413.941 101.08 417.239 101.08H428.974C432.272 101.08 434.945 103.754 434.945 107.052C434.945 110.351 432.272 113.024 428.974 113.024Z" fill="#E5243B"/>
<path d="M418.036 117.082L427.68 103.932C429.631 101.272 433.368 100.698 436.027 102.648C438.686 104.598 439.261 108.336 437.311 110.995L427.667 124.145C425.717 126.804 421.979 127.379 419.32 125.429C416.66 123.478 416.085 119.741 418.036 117.082Z" fill="#E583A6"/>
<path d="M421.03 127.502L432.561 115.971C434.893 113.639 438.674 113.639 441.006 115.971C443.338 118.303 443.338 122.084 441.006 124.416L429.475 135.947C427.143 138.279 423.362 138.279 421.03 135.947C418.698 133.615 418.698 129.834 421.03 127.502Z" fill="#E583A6"/>
<path d="M423.857 136.145L442.183 123.476C445.934 128.902 444.576 136.341 439.15 140.092L430.648 145.969C427.935 147.844 424.216 147.166 422.34 144.453C420.465 141.74 421.144 138.02 423.857 136.145Z" fill="#E583A6"/>
<path d="M402.235 112.791C406.307 115.293 411.642 113.907 413.982 109.74L433.341 75.2653C436.02 70.4943 435.301 64.3593 431.503 59.5783C429.768 57.3943 426.425 57.3333 425.116 59.4633L399.468 101.212C397.034 105.172 398.273 110.357 402.235 112.791Z" fill="#E583A6"/>
<path d="M393.333 122.273C397.415 119.731 398.664 114.361 396.122 110.279C393.58 106.197 388.21 104.948 384.128 107.49C380.046 110.032 378.797 115.402 381.339 119.484C383.881 123.566 389.251 124.815 393.333 122.273Z" fill="#E5243B"/>
<path d="M384.301 90.7491L393.837 109.603C395.718 113.322 394.228 117.862 390.509 119.743L390.396 119.8C386.677 121.681 382.137 120.191 380.256 116.472L372.748 100.178C370.941 96.2571 372.005 91.6111 375.338 88.8671C378.239 86.4801 382.605 87.3961 384.301 90.7491Z" fill="#E583A6"/>
<path d="M122.847 227.337C137.591 227.337 149.544 215.385 149.544 200.64C149.544 185.896 137.591 173.943 122.847 173.943C108.103 173.943 96.1501 185.896 96.1501 200.64C96.1501 215.385 108.103 227.337 122.847 227.337Z" fill="#1A486A"/>
<path d="M111.582 200.8C116.261 199.691 119.155 194.999 118.046 190.321C116.937 185.642 112.245 182.748 107.566 183.856C102.887 184.965 99.9929 189.657 101.102 194.336C102.211 199.015 106.903 201.909 111.582 200.8Z" fill="#E5243B"/>
<path d="M103.737 186.847H115.472C118.77 186.847 121.444 184.173 121.444 180.875C121.444 177.577 118.77 174.903 115.472 174.903H103.737C100.439 174.903 97.7651 177.577 97.7651 180.875C97.7651 184.174 100.439 186.847 103.737 186.847Z" fill="#E5243B"/>
<path d="M114.675 190.905L105.031 177.755C103.081 175.095 99.3432 174.521 96.6842 176.471C94.0252 178.421 93.4501 182.159 95.4001 184.818L105.044 197.968C106.995 200.627 110.732 201.202 113.391 199.252C116.051 197.301 116.625 193.564 114.675 190.905Z" fill="#E583A6"/>
<path d="M111.68 201.325L100.149 189.794C97.8171 187.462 94.0361 187.462 91.7041 189.794C89.3721 192.126 89.3721 195.907 91.7041 198.239L103.235 209.77C105.567 212.102 109.348 212.102 111.68 209.77C114.012 207.438 114.012 203.657 111.68 201.325Z" fill="#E583A6"/>
<path d="M108.854 209.968L90.5281 197.299C86.7771 202.725 88.1351 210.164 93.5611 213.915L102.063 219.792C104.776 221.667 108.495 220.989 110.371 218.276C112.246 215.563 111.567 211.844 108.854 209.968Z" fill="#E583A6"/>
<path d="M130.476 186.614C126.404 189.116 121.069 187.73 118.729 183.563L99.3701 149.089C96.6911 144.318 97.4101 138.183 101.209 133.402C102.944 131.218 106.288 131.157 107.596 133.287L133.244 175.035C135.676 178.996 134.438 184.18 130.476 186.614Z" fill="#E583A6"/>
<path d="M145.45 197.329C150.192 196.532 153.391 192.041 152.594 187.299C151.797 182.557 147.307 179.358 142.564 180.155C137.822 180.952 134.623 185.442 135.42 190.184C136.217 194.927 140.707 198.125 145.45 197.329Z" fill="#E5243B"/>
<path d="M148.409 164.572L138.872 183.426C136.991 187.145 138.481 191.685 142.2 193.566L142.313 193.623C146.032 195.504 150.572 194.014 152.453 190.295L159.961 174.001C161.768 170.08 160.704 165.434 157.371 162.69C154.471 160.303 150.105 161.219 148.409 164.572Z" fill="#E583A6"/>
<path d="M287.403 110.106H230.122C219.728 110.106 211.302 101.68 211.302 91.2868C211.302 80.8928 219.728 72.4668 230.122 72.4668H287.403C297.797 72.4668 306.222 80.8928 306.222 91.2868C306.223 101.681 297.797 110.106 287.403 110.106Z" fill="#090D68"/>
<path d="M277.593 103.387H220.312C209.918 103.387 201.492 94.9611 201.492 84.5671C201.492 74.1731 209.918 65.7471 220.312 65.7471H277.593C287.987 65.7471 296.412 74.1731 296.412 84.5671C296.413 94.9611 287.987 103.387 277.593 103.387Z" fill="white"/>
<path d="M276.498 101.207H221.408C212.218 101.207 204.769 93.7567 204.769 84.5677C204.769 75.3777 212.219 67.9287 221.408 67.9287H276.498C285.688 67.9287 293.137 75.3787 293.137 84.5677C293.137 93.7567 285.687 101.207 276.498 101.207Z" fill="#090D68"/>
<path d="M229.899 77.9054H219.045C218.146 77.9054 217.417 77.1764 217.417 76.2774C217.417 75.3784 218.146 74.6494 219.045 74.6494H229.899C230.798 74.6494 231.527 75.3784 231.527 76.2774C231.527 77.1764 230.798 77.9054 229.899 77.9054Z" fill="#E5243B"/>
<path d="M275.55 96.5578H264.696C263.797 96.5578 263.069 95.8288 263.069 94.9298C263.069 94.0308 263.798 93.3018 264.696 93.3018H275.55C276.449 93.3018 277.178 94.0308 277.178 94.9298C277.177 95.8288 276.449 96.5578 275.55 96.5578Z" fill="#1A486A"/>
<path d="M258.049 96.2942L253.445 91.6902C253.064 91.3092 253.064 90.6912 253.445 90.3092C253.826 89.9282 254.445 89.9282 254.826 90.3092L259.43 94.9132C259.811 95.2942 259.811 95.9122 259.43 96.2942C259.049 96.6762 258.431 96.6762 258.049 96.2942Z" fill="#1A486A"/>
<path d="M259.43 91.6902L254.826 96.2942C254.445 96.6752 253.826 96.6752 253.445 96.2942C253.064 95.9132 253.064 95.2952 253.445 94.9132L258.049 90.3092C258.43 89.9282 259.049 89.9282 259.43 90.3092C259.811 90.6912 259.811 91.3092 259.43 91.6902Z" fill="#1A486A"/>
<path d="M236.465 83.7648H219.045C218.146 83.7648 217.417 83.0358 217.417 82.1368C217.417 81.2378 218.146 80.5088 219.045 80.5088H236.465C237.364 80.5088 238.093 81.2378 238.093 82.1368C238.093 83.0358 237.364 83.7648 236.465 83.7648Z" fill="#E5243B"/>
<path d="M275.782 87.8122C275.782 88.5882 275.153 89.2172 274.377 89.2172C273.601 89.2172 272.972 88.5882 272.972 87.8122C272.972 87.0362 273.601 86.4072 274.377 86.4072C275.152 86.4072 275.782 87.0362 275.782 87.8122Z" fill="#1A486A"/>
<path d="M187.848 268.46C164.895 337.334 232.387 334.318 253.854 326.27C275.32 318.222 280.572 279.291 265.585 239.315C250.597 199.339 221.045 173.457 199.579 181.505C178.112 189.554 172.86 228.484 187.848 268.46Z" fill="#E5243B"/>
<mask id="mask6_21_14" style="mask-type:luminance" maskUnits="userSpaceOnUse" x="179" y="180" width="96" height="151">
<path d="M187.848 268.46C164.895 337.334 232.387 334.318 253.854 326.27C275.32 318.222 280.572 279.291 265.585 239.315C250.597 199.339 221.045 173.457 199.579 181.505C178.112 189.554 172.86 228.484 187.848 268.46Z" fill="white"/>
</mask>
<g mask="url(#mask6_21_14)">
<path d="M202.781 238.607C202.811 239.252 202.83 239.9 202.83 240.553C202.83 263.525 184.208 282.147 161.235 282.147C157.139 282.147 153.185 281.545 149.446 280.442C155.256 284.66 162.4 287.154 170.129 287.154C189.599 287.154 205.382 271.371 205.382 251.901C205.383 247.197 204.454 242.711 202.781 238.607Z" fill="#4C9F38"/>
</g>
<path d="M292.144 246.381C307.132 286.357 336.487 312.313 357.711 304.355C378.935 296.398 407.258 250.651 369.003 217.565C354.015 177.589 324.66 151.633 303.436 159.591C282.211 167.548 277.156 206.405 292.144 246.381Z" fill="#E5243B"/>
<mask id="mask7_21_14" style="mask-type:luminance" maskUnits="userSpaceOnUse" x="283" y="158" width="105" height="148">
<path d="M292.144 246.381C307.132 286.357 336.487 312.313 357.711 304.355C378.935 296.398 407.258 250.651 369.003 217.565C354.015 177.589 324.66 151.633 303.436 159.591C282.211 167.548 277.156 206.405 292.144 246.381Z" fill="white"/>
</mask>
<g mask="url(#mask7_21_14)">
<path d="M351.809 202.429C351.787 202.906 351.773 203.384 351.773 203.867C351.773 220.839 365.532 234.598 382.504 234.598C385.53 234.598 388.452 234.153 391.214 233.338C386.921 236.454 381.643 238.297 375.933 238.297C361.548 238.297 349.887 226.636 349.887 212.251C349.886 208.775 350.573 205.461 351.809 202.429Z" fill="#4C9F38"/>
</g>
<path d="M299.535 262.882C299.535 262.882 255.016 188.745 271.899 170.838C284.335 157.647 308.484 162.8 316.87 152.593L299.535 262.882Z" fill="#E5243B"/>
<path d="M272.926 267.492C272.926 267.492 268.653 190.294 251.77 172.386C239.334 159.195 206.698 156.945 207.205 150.783C191.442 173.369 257.603 241.293 272.926 267.492Z" fill="#E5243B"/>
<path d="M249.263 255.452L255.664 244.913L251.041 233.482L244.639 244.021L249.263 255.452Z" fill="#090D68"/>
<path d="M246.946 253.883L253.348 243.344L248.724 231.913L242.323 242.452L246.946 253.883Z" fill="#FCC310"/>
<path d="M228.099 296.518L206.495 301.513L208.808 290.238L230.412 285.243L228.099 296.518Z" fill="#4C9F38"/>
<path d="M234.297 295.086L229.471 296.202L231.784 284.927L236.61 283.811L234.297 295.086Z" fill="#4C9F38"/>
<path d="M241.302 293.465L236.476 294.581L238.79 283.306L243.616 282.19L241.302 293.465Z" fill="#4C9F38"/>
<path d="M349.919 255.042C349.927 255.207 349.932 255.374 349.932 255.541C349.932 261.433 345.156 266.209 339.264 266.209C338.213 266.209 337.199 266.055 336.241 265.772C337.731 266.854 339.563 267.493 341.546 267.493C346.539 267.493 350.587 263.445 350.587 258.452C350.586 257.245 350.348 256.094 349.919 255.042Z" fill="#090D68"/>
<path d="M340.461 262.75C343.413 262.75 345.806 260.357 345.806 257.405C345.806 254.453 343.413 252.06 340.461 252.06C337.509 252.06 335.116 254.453 335.116 257.405C335.116 260.357 337.509 262.75 340.461 262.75Z" fill="#4C9F38"/>
<path d="M228.375 226.066L214.918 212.609C213.804 211.494 213.804 209.688 214.918 208.573C216.033 207.458 217.839 207.458 218.954 208.573L232.411 222.03C233.526 223.145 233.526 224.951 232.411 226.066C231.296 227.181 229.489 227.181 228.375 226.066Z" fill="#4C9F38"/>
<path d="M232.411 212.609L218.954 226.066C217.839 227.181 216.033 227.181 214.918 226.066C213.804 224.951 213.804 223.145 214.918 222.03L228.375 208.573C229.49 207.458 231.297 207.458 232.411 208.573C233.525 209.687 233.525 211.494 232.411 212.609Z" fill="#4C9F38"/>
<path d="M315.465 253.344L306.791 244.67C306.073 243.952 306.073 242.787 306.791 242.069C307.509 241.351 308.674 241.351 309.392 242.069L318.066 250.743C318.784 251.461 318.784 252.626 318.066 253.345C317.348 254.062 316.183 254.062 315.465 253.344Z" fill="white"/>
<path d="M318.066 244.67L309.392 253.344C308.674 254.062 307.509 254.062 306.791 253.344C306.073 252.626 306.073 251.461 306.791 250.742L315.465 242.068C316.183 241.35 317.348 241.35 318.066 242.068C318.785 242.787 318.785 243.952 318.066 244.67Z" fill="white"/>
<path d="M287.024 293.404L278.496 279.535C277.704 278.247 276.018 277.845 274.731 278.637C273.443 279.429 273.041 281.114 273.833 282.402L282.361 296.272C283.153 297.56 284.838 297.962 286.126 297.17C287.413 296.377 287.815 294.692 287.024 293.404ZM280.244 289.901C279.869 289.292 280.059 288.494 280.669 288.119C281.278 287.744 282.076 287.935 282.451 288.544L285.522 293.538C285.897 294.147 285.706 294.945 285.097 295.32C284.488 295.695 283.69 295.505 283.315 294.895L280.244 289.901Z" fill="#090D68"/>
<path d="M204.795 153.515C204.684 161.488 207.24 169.266 210.831 176.289C211.868 178.099 213.505 181.123 214.548 182.969L210.625 181.095C200.288 176.262 188.708 178.719 181.756 187.953C180.039 190.032 178.549 192.621 177.199 194.963L172.856 202.388C170.359 206.724 166.464 212.858 164.104 217.204C164.507 215.821 165.088 214.494 165.644 213.169C168.471 206.563 171.652 200.119 174.885 193.708C180.072 182.227 190.036 173.662 203.315 175.861C206.36 176.376 209.165 177.242 211.939 178.701L210.088 180.563C205.903 172.322 203.128 162.773 204.795 153.515Z" fill="#FCC310"/>
</svg>
