<svg width="344" height="103" viewBox="0 0 344 103" fill="none" xmlns="http://www.w3.org/2000/svg">
<path d="M33.1854 0.431152H2.41602C1.08821 0.431152 0 1.69906 0 3.26648V39.4669C0 41.9927 2.59573 43.2606 4.11323 41.4736L34.8925 5.27318C36.41 3.48612 35.3318 0.431152 33.1854 0.431152Z" fill="#FF4E00" style="fill:#FF4E00;fill:color(display-p3 1.0000 0.3061 0.0000);fill-opacity:1;"/>
<path d="M11.9182 43.5794L0.836448 55.9191C0.307319 56.4482 0.0078125 57.167 0.0078125 57.9058V99.2777C0.0078125 100.835 1.27572 102.093 2.83316 102.093H55.5963C57.8625 102.093 58.9707 99.3476 57.3334 97.7801L15.8717 43.5395C14.7635 42.4812 13.0064 42.4912 11.9182 43.5794Z" fill="#FF4E00" style="fill:#FF4E00;fill:color(display-p3 1.0000 0.3061 0.0000);fill-opacity:1;"/>
<path d="M33.4782 17.7422L47.7846 1.79851C48.4935 1.00981 49.4818 0.560547 50.5001 0.560547H54.0743C56.1608 0.560547 57.858 2.37755 57.858 4.62385V72.0728C57.858 75.7268 53.7148 77.5238 51.3587 74.8881L33.4782 52.4451C32.7993 51.6863 32.4199 50.678 32.4199 49.6297V20.5676C32.4199 19.5193 32.7993 18.501 33.4782 17.7422Z" fill="#5DD31B" style="fill:#5DD31B;fill:color(display-p3 0.3647 0.8275 0.1059);fill-opacity:1;"/>
<path d="M100.276 1.28955H70.2959C68.4929 1.28955 67.0312 2.75117 67.0312 4.55418V18.0919C67.0312 19.8949 68.4929 21.3565 70.2959 21.3565H100.276C102.079 21.3565 103.541 19.8949 103.541 18.0919V4.55418C103.541 2.75117 102.079 1.28955 100.276 1.28955Z" fill="#28C5E6" style="fill:#28C5E6;fill:color(display-p3 0.1569 0.7725 0.9020);fill-opacity:1;"/>
<path d="M92.4707 98.0102V61.1409C92.4707 58.8858 90.6426 57.0576 88.3874 57.0576H71.1159C68.8607 57.0576 67.0326 58.8858 67.0326 61.1409V98.0102C67.0326 100.265 68.8607 102.093 71.1159 102.093H88.3874C90.6426 102.093 92.4707 100.265 92.4707 98.0102Z" fill="#28C5E6" style="fill:#28C5E6;fill:color(display-p3 0.1569 0.7725 0.9020);fill-opacity:1;"/>
<path d="M89.634 29.2026H69.8666C68.3007 29.2026 67.0312 30.4721 67.0312 32.038V46.4343C67.0312 48.0002 68.3007 49.2696 69.8666 49.2696H89.634C91.1999 49.2696 92.4694 48.0002 92.4694 46.4343V32.038C92.4694 30.4721 91.1999 29.2026 89.634 29.2026Z" fill="#28C5E6" style="fill:#28C5E6;fill:color(display-p3 0.1569 0.7725 0.9020);fill-opacity:1;"/>
<path d="M121.828 10.7541L121.688 12.052L122.466 11.0636L130.913 1.5293H137.532L126.839 13.1402L137.572 27.4266H131.092L123.105 16.3748L121.837 17.6428V27.4266H116.666V1.53928H121.837V10.7541H121.828Z" fill="black" style="fill:black;fill-opacity:1;"/>
<path d="M141.703 1.53955H159.364V6.46145H146.805V11.9824H157.926V16.9042H146.805V22.495H159.863V27.4169H141.703V1.53955Z" fill="black" style="fill:black;fill-opacity:1;"/>
<path d="M173.269 1.53955C174.887 1.53955 176.334 1.74921 177.592 2.15853C178.86 2.56786 179.918 3.15689 180.777 3.91564C181.635 4.67439 182.284 5.59288 182.734 6.66112C183.183 7.72936 183.402 8.92738 183.402 10.2652C183.402 11.3234 183.243 12.3817 182.923 13.43C182.604 14.4882 182.095 15.4466 181.376 16.3152C180.657 17.1838 179.719 17.8826 178.54 18.4118C177.362 18.9409 175.915 19.2005 174.178 19.2005H170.514V27.4369H165.412V1.53955H173.259H173.269ZM174.148 14.2786C174.926 14.2786 175.565 14.1488 176.085 13.8892C176.604 13.6296 177.003 13.3002 177.303 12.9008C177.592 12.5015 177.802 12.0822 177.932 11.6529C178.061 11.2236 178.121 10.8143 178.121 10.4349C178.121 10.1554 178.081 9.79595 178.001 9.35668C177.922 8.92738 177.752 8.47812 177.492 8.03885C177.233 7.58959 176.843 7.2202 176.314 6.91071C175.785 6.6112 175.076 6.45146 174.188 6.45146H170.524V14.2686H174.148V14.2786ZM178.93 17.4434L185.339 27.4369H179.389L172.84 17.5831L178.93 17.4434Z" fill="black" style="fill:black;fill-opacity:1;"/>
<path d="M186.92 27.4367L198.601 0.520996H198.88L210.561 27.4367H204.651L197.193 8.50784L200.887 5.97202L191.952 27.4367H186.92ZM194.907 18.0821H202.684L204.481 22.375H193.329L194.917 18.0821H194.907Z" fill="black" style="fill:black;fill-opacity:1;"/>
<path d="M214.615 1.53955H219.717V22.515H231.897V27.4369H214.615V1.53955Z" fill="black" style="fill:black;fill-opacity:1;"/>
<path d="M234.531 27.4367L246.212 0.520996H246.492L258.172 27.4367H252.262L244.804 8.50784L248.498 5.97202L239.563 27.4367H234.531ZM242.518 18.0821H250.295L252.092 22.375H240.941L242.528 18.0821H242.518Z" fill="black" style="fill:black;fill-opacity:1;"/>
<path d="M116.645 38.2192H121.746V64.1166H116.645V38.2192Z" fill="black" style="fill:black;fill-opacity:1;"/>
<path d="M151.278 65.1749L131.64 47.4441L133.157 48.2927L133.267 64.1266H128.096V37.2109H128.305L147.514 54.8719L146.386 54.3827L146.276 38.2293H151.417V65.1849H151.278V65.1749Z" fill="black" style="fill:black;fill-opacity:1;"/>
<path d="M180.938 65.1749L161.3 47.4441L162.818 48.2927L162.927 64.1266H157.756V37.2109H157.966L177.174 54.8719L176.046 54.3827L175.936 38.2293H181.077V65.1849H180.938V65.1749Z" fill="black" style="fill:black;fill-opacity:1;"/>
<path d="M185.832 51.2083C185.832 49.4213 186.171 47.734 186.85 46.1367C187.529 44.5393 188.478 43.1316 189.686 41.8936C190.894 40.6657 192.291 39.6973 193.889 38.9884C195.486 38.2796 197.193 37.9302 199.03 37.9302C200.867 37.9302 202.535 38.2796 204.132 38.9884C205.729 39.6973 207.137 40.6557 208.375 41.8936C209.603 43.1216 210.571 44.5393 211.26 46.1367C211.949 47.734 212.298 49.4213 212.298 51.2083C212.298 52.9954 211.949 54.7525 211.26 56.3498C210.571 57.9472 209.603 59.3449 208.375 60.5529C207.147 61.7609 205.729 62.7094 204.132 63.3883C202.535 64.0671 200.837 64.4066 199.03 64.4066C197.223 64.4066 195.486 64.0671 193.889 63.3883C192.291 62.7094 190.894 61.7609 189.686 60.5529C188.478 59.3449 187.529 57.9472 186.85 56.3498C186.171 54.7525 185.832 53.0453 185.832 51.2083ZM191.113 51.2083C191.113 52.3564 191.323 53.4346 191.732 54.433C192.142 55.4314 192.721 56.3099 193.459 57.0687C194.198 57.8274 195.057 58.4264 196.025 58.8457C196.994 59.265 198.062 59.4747 199.21 59.4747C200.358 59.4747 201.337 59.265 202.285 58.8457C203.233 58.4264 204.062 57.8274 204.761 57.0687C205.47 56.3099 206.019 55.4314 206.418 54.433C206.817 53.4346 207.017 52.3664 207.017 51.2083C207.017 50.0502 206.807 48.942 206.398 47.9337C205.989 46.9254 205.42 46.0368 204.711 45.2781C203.992 44.5193 203.154 43.9203 202.195 43.501C201.237 43.0817 200.188 42.872 199.06 42.872C197.932 42.872 196.894 43.0817 195.925 43.501C194.967 43.9203 194.118 44.5193 193.39 45.2781C192.661 46.0368 192.102 46.9254 191.702 47.9337C191.303 48.942 191.103 50.0303 191.103 51.2083H191.113Z" fill="black" style="fill:black;fill-opacity:1;"/>
<path d="M219.184 38.2192L226.752 56.8685L223.797 56.2695L230.655 38.2192H236.706L224.885 65.3146L213.064 38.2192H219.184Z" fill="black" style="fill:black;fill-opacity:1;"/>
<path d="M234.391 64.1169L246.071 37.2012H246.351L258.032 64.1169H252.121L244.664 45.188L248.358 42.6522L239.422 64.1169H234.391ZM242.377 54.7623H250.155L251.952 59.0552H240.8L242.387 54.7623H242.377Z" fill="black" style="fill:black;fill-opacity:1;"/>
<path d="M257.58 38.2192H275.031V43.1411H268.732V64.1166H263.63V43.1411H257.58V38.2192Z" fill="black" style="fill:black;fill-opacity:1;"/>
<path d="M279.605 38.2192H284.707V64.1166H279.605V38.2192Z" fill="black" style="fill:black;fill-opacity:1;"/>
<path d="M289.457 51.2083C289.457 49.4213 289.796 47.734 290.475 46.1367C291.154 44.5393 292.103 43.1316 293.311 41.8936C294.519 40.6657 295.916 39.6973 297.514 38.9884C299.111 38.2796 300.818 37.9302 302.655 37.9302C304.492 37.9302 306.16 38.2796 307.757 38.9884C309.354 39.6973 310.762 40.6557 312 41.8936C313.228 43.1216 314.196 44.5393 314.885 46.1367C315.574 47.734 315.923 49.4213 315.923 51.2083C315.923 52.9954 315.574 54.7525 314.885 56.3498C314.196 57.9472 313.228 59.3449 312 60.5529C310.772 61.7609 309.354 62.7094 307.757 63.3883C306.16 64.0671 304.462 64.4066 302.655 64.4066C300.848 64.4066 299.111 64.0671 297.514 63.3883C295.916 62.7094 294.519 61.7609 293.311 60.5529C292.103 59.3449 291.154 57.9472 290.475 56.3498C289.796 54.7525 289.457 53.0453 289.457 51.2083ZM294.738 51.2083C294.738 52.3564 294.948 53.4346 295.357 54.433C295.767 55.4314 296.346 56.3099 297.084 57.0687C297.823 57.8274 298.682 58.4264 299.65 58.8457C300.619 59.265 301.687 59.4747 302.835 59.4747C303.983 59.4747 304.961 59.265 305.91 58.8457C306.858 58.4264 307.687 57.8274 308.386 57.0687C309.095 56.3099 309.644 55.4314 310.043 54.433C310.442 53.4346 310.642 52.3664 310.642 51.2083C310.642 50.0502 310.432 48.942 310.023 47.9337C309.614 46.9254 309.045 46.0368 308.336 45.2781C307.617 44.5193 306.778 43.9203 305.82 43.501C304.862 43.0817 303.813 42.872 302.685 42.872C301.557 42.872 300.519 43.0817 299.55 43.501C298.592 43.9203 297.743 44.5193 297.015 45.2781C296.286 46.0368 295.727 46.9254 295.327 47.9337C294.928 48.942 294.728 50.0303 294.728 51.2083H294.738Z" fill="black" style="fill:black;fill-opacity:1;"/>
<path d="M343.86 65.1749L324.222 47.4441L325.739 48.2927L325.849 64.1266H320.678V37.2109H320.887L340.096 54.8719L338.968 54.3827L338.858 38.2293H343.999V65.1849H343.86V65.1749Z" fill="black" style="fill:black;fill-opacity:1;"/>
<path d="M116.645 74.9087H132.828V79.8306H121.746V85.7109H131.35V90.6328H121.746V100.806H116.645V74.9087Z" fill="black" style="fill:black;fill-opacity:1;"/>
<path d="M137.898 74.9086H155.559V79.8305H143V85.3514H154.122V90.2733H143V95.8641H156.059V100.786H137.898V74.8887V74.9086Z" fill="black" style="fill:black;fill-opacity:1;"/>
<path d="M175.311 81.1689C174.322 80.6298 173.324 80.1806 172.306 79.8311C171.287 79.4817 170.329 79.302 169.44 79.302C168.342 79.302 167.474 79.5216 166.835 79.9709C166.206 80.4202 165.886 81.0891 165.886 81.9776C165.886 82.5866 166.126 83.1357 166.605 83.6149C167.084 84.0941 167.703 84.5234 168.472 84.9028C169.231 85.2822 170.029 85.6216 170.848 85.9211C171.597 86.2006 172.346 86.5401 173.084 86.9195C173.823 87.2988 174.482 87.788 175.071 88.3571C175.66 88.9361 176.129 89.645 176.479 90.5036C176.828 91.3622 177.008 92.4104 177.008 93.6484C177.008 94.9662 176.668 96.1842 175.99 97.3124C175.311 98.4405 174.312 99.349 172.995 100.038C171.677 100.727 170.059 101.076 168.143 101.076C167.154 101.076 166.156 100.976 165.137 100.777C164.119 100.577 163.111 100.277 162.132 99.8582C161.154 99.4388 160.196 98.9297 159.287 98.2907L161.543 94.3173C162.152 94.7665 162.811 95.1559 163.53 95.4953C164.249 95.8348 164.968 96.1043 165.697 96.284C166.425 96.4737 167.094 96.5636 167.703 96.5636C168.312 96.5636 168.931 96.4737 169.55 96.304C170.169 96.1243 170.688 95.8248 171.098 95.4055C171.507 94.9862 171.717 94.3971 171.717 93.6484C171.717 93.1292 171.547 92.66 171.207 92.2407C170.868 91.8214 170.409 91.432 169.84 91.0826C169.261 90.7332 168.642 90.4237 167.953 90.1641C167.154 89.8646 166.336 89.5052 165.487 89.1059C164.638 88.7065 163.85 88.2173 163.111 87.6483C162.372 87.0692 161.773 86.3604 161.314 85.5018C160.855 84.6432 160.625 83.5949 160.625 82.357C160.625 80.8594 160.954 79.5516 161.623 78.4534C162.292 77.3552 163.241 76.4767 164.459 75.8277C165.677 75.1788 167.084 74.8294 168.682 74.7495C170.768 74.7495 172.465 74.9991 173.763 75.4883C175.061 75.9775 176.229 76.5665 177.268 77.2454L175.331 81.149L175.311 81.1689Z" fill="black" style="fill:black;fill-opacity:1;"/>
<path d="M180.379 74.9087H197.83V79.8306H191.531V100.806H186.429V79.8306H180.379V74.9087Z" fill="black" style="fill:black;fill-opacity:1;"/>
<path d="M202.895 74.9087H207.996V100.806H202.895V74.9087Z" fill="black" style="fill:black;fill-opacity:1;"/>
<path d="M218.723 74.9087L226.291 93.558L223.336 92.959L230.195 74.9087H236.245L224.424 102.004L212.604 74.9087H218.723Z" fill="black" style="fill:black;fill-opacity:1;"/>
<path d="M234.422 100.807L246.103 73.8911H246.382L258.063 100.807H252.153L244.695 81.878L248.389 79.3421L239.454 100.807H234.422ZM242.409 91.4422H250.186L251.983 95.7351H240.831L242.419 91.4422H242.409Z" fill="black" style="fill:black;fill-opacity:1;"/>
<path d="M261.975 74.9087H267.076V95.8842H279.256V100.806H261.975V74.9087Z" fill="black" style="fill:black;fill-opacity:1;"/>
</svg>
