<svg width="345" height="104" viewBox="0 0 345 104" fill="none" xmlns="http://www.w3.org/2000/svg">
<path d="M33.23 0H2.42C1.08 0 0 1.27 0 2.84V39.1C0 41.63 2.6 42.9 4.12 41.11L34.94 4.85C36.46 3.06 35.38 0 33.23 0Z" fill="white" style="fill:white;fill-opacity:1;"/>
<path d="M11.93 43.2199L0.83 55.5799C0.3 56.1099 0 56.8299 0 57.5699V99.0099C0 100.57 1.27 101.83 2.83 101.83H55.68C57.95 101.83 59.06 99.0799 57.42 97.5099L15.89 43.1799C14.78 42.1199 13.02 42.1299 11.93 43.2199Z" fill="white" style="fill:white;fill-opacity:1;"/>
<path d="M33.5209 17.3399L47.8509 1.36988C48.5609 0.579883 49.5509 0.129883 50.5709 0.129883H54.1509C56.2409 0.129883 57.9409 1.94988 57.9409 4.19988V71.7599C57.9409 75.4199 53.7909 77.2199 51.4309 74.5799L33.5209 52.0999C32.8409 51.3399 32.4609 50.3299 32.4609 49.2799V20.1699C32.4609 19.1199 32.8409 18.0999 33.5209 17.3399Z" fill="white" style="fill:white;fill-opacity:1;"/>
<path d="M100.431 0.859863H70.4009C68.5949 0.859863 67.1309 2.32389 67.1309 4.12986V17.6899C67.1309 19.4958 68.5949 20.9599 70.4009 20.9599H100.431C102.237 20.9599 103.701 19.4958 103.701 17.6899V4.12986C103.701 2.32389 102.237 0.859863 100.431 0.859863Z" fill="white" style="fill:white;fill-opacity:1;"/>
<path d="M88.5209 56.71H71.2209C68.962 56.71 67.1309 58.5411 67.1309 60.8V97.73C67.1309 99.9888 68.962 101.82 71.2209 101.82H88.5209C90.7797 101.82 92.6109 99.9888 92.6109 97.73V60.8C92.6109 58.5411 90.7797 56.71 88.5209 56.71Z" fill="white" style="fill:white;fill-opacity:1;"/>
<path d="M89.7709 28.8198H69.9709C68.4024 28.8198 67.1309 30.0913 67.1309 31.6598V46.0798C67.1309 47.6483 68.4024 48.9198 69.9709 48.9198H89.7709C91.3393 48.9198 92.6109 47.6483 92.6109 46.0798V31.6598C92.6109 30.0913 91.3393 28.8198 89.7709 28.8198Z" fill="white" style="fill:white;fill-opacity:1;"/>
<path d="M121.58 12.26L121.44 13.56L122.22 12.57L130.68 3.02002H137.31L126.6 14.65L137.35 28.96H130.86L122.86 17.89L121.59 19.16V28.96H116.41V3.02002H121.59V12.25L121.58 12.26Z" fill="white" style="fill:white;fill-opacity:1;"/>
<path d="M141.49 3.02002H159.18V7.95002H146.6V13.48H157.74V18.41H146.6V24.01H159.68V28.94H141.49V3.02002Z" fill="white" style="fill:white;fill-opacity:1;"/>
<path d="M173.11 3.02002C174.73 3.02002 176.18 3.23002 177.44 3.64002C178.71 4.05002 179.77 4.64002 180.63 5.40002C181.49 6.16002 182.14 7.08002 182.59 8.15002C183.04 9.22002 183.26 10.42 183.26 11.76C183.26 12.82 183.1 13.88 182.78 14.93C182.46 15.99 181.95 16.95 181.23 17.82C180.51 18.69 179.57 19.39 178.39 19.92C177.21 20.45 175.76 20.71 174.02 20.71H170.35V28.96H165.24V3.02002H173.1H173.11ZM173.99 15.78C174.77 15.78 175.41 15.65 175.93 15.39C176.45 15.13 176.85 14.8 177.15 14.4C177.44 14 177.65 13.58 177.78 13.15C177.91 12.72 177.97 12.31 177.97 11.93C177.97 11.65 177.93 11.29 177.85 10.85C177.77 10.42 177.6 9.97002 177.34 9.53002C177.08 9.08002 176.69 8.71002 176.16 8.40002C175.63 8.10002 174.92 7.94002 174.03 7.94002H170.36V15.77H173.99V15.78ZM178.78 18.95L185.2 28.96H179.24L172.68 19.09L178.78 18.95Z" fill="white" style="fill:white;fill-opacity:1;"/>
<path d="M186.781 28.96L198.481 2H198.761L210.461 28.96H204.541L197.071 10L200.771 7.46L191.821 28.96H186.781ZM194.781 19.59H202.571L204.371 23.89H193.201L194.791 19.59H194.781Z" fill="white" style="fill:white;fill-opacity:1;"/>
<path d="M214.52 3.02002H219.63V24.03H231.83V28.96H214.52V3.02002Z" fill="white" style="fill:white;fill-opacity:1;"/>
<path d="M234.471 28.96L246.171 2H246.451L258.151 28.96H252.231L244.761 10L248.461 7.46L239.511 28.96H234.471ZM242.471 19.59H250.261L252.061 23.89H240.891L242.481 19.59H242.471Z" fill="white" style="fill:white;fill-opacity:1;"/>
<path d="M116.4 39.7598H121.51V65.6998H116.4V39.7598Z" fill="white" style="fill:white;fill-opacity:1;"/>
<path d="M151.081 66.76L131.411 49L132.931 49.85L133.041 65.71H127.861V38.75H128.071L147.311 56.44L146.181 55.95L146.071 39.77H151.221V66.77H151.081V66.76Z" fill="white" style="fill:white;fill-opacity:1;"/>
<path d="M180.79 66.76L161.12 49L162.64 49.85L162.75 65.71H157.57V38.75H157.78L177.02 56.44L175.89 55.95L175.78 39.77H180.93V66.77H180.79V66.76Z" fill="white" style="fill:white;fill-opacity:1;"/>
<path d="M185.689 52.7702C185.689 50.9802 186.029 49.2902 186.709 47.6902C187.389 46.0902 188.339 44.6802 189.549 43.4402C190.759 42.2102 192.159 41.2402 193.759 40.5302C195.359 39.8202 197.069 39.4702 198.909 39.4702C200.749 39.4702 202.419 39.8202 204.019 40.5302C205.619 41.2402 207.029 42.2002 208.269 43.4402C209.509 44.6802 210.469 46.0902 211.159 47.6902C211.849 49.2902 212.199 50.9802 212.199 52.7702C212.199 54.5602 211.849 56.3202 211.159 57.9202C210.469 59.5202 209.499 60.9202 208.269 62.1302C207.039 63.3402 205.619 64.2902 204.019 64.9702C202.419 65.6502 200.719 65.9902 198.909 65.9902C197.099 65.9902 195.359 65.6502 193.759 64.9702C192.159 64.2902 190.759 63.3402 189.549 62.1302C188.339 60.9202 187.389 59.5202 186.709 57.9202C186.029 56.3202 185.689 54.6102 185.689 52.7702ZM190.979 52.7702C190.979 53.9202 191.189 55.0002 191.599 56.0002C192.009 57.0002 192.589 57.8802 193.329 58.6402C194.069 59.4002 194.929 60.0002 195.899 60.4202C196.869 60.8402 197.939 61.0502 199.089 61.0502C200.239 61.0502 201.219 60.8402 202.169 60.4202C203.119 60.0002 203.949 59.4002 204.659 58.6402C205.369 57.8802 205.919 57.0002 206.319 56.0002C206.719 55.0002 206.919 53.9302 206.919 52.7702C206.919 51.6102 206.709 50.5002 206.299 49.4902C205.889 48.4802 205.319 47.5902 204.609 46.8302C203.889 46.0702 203.049 45.4702 202.089 45.0502C201.129 44.6302 200.079 44.4202 198.949 44.4202C197.819 44.4202 196.779 44.6302 195.809 45.0502C194.849 45.4702 193.999 46.0702 193.269 46.8302C192.539 47.5902 191.979 48.4802 191.579 49.4902C191.179 50.5002 190.979 51.5902 190.979 52.7702Z" fill="white" style="fill:white;fill-opacity:1;"/>
<path d="M219.101 39.7598L226.681 58.4398L223.721 57.8398L230.591 39.7598H236.651L224.811 66.8998L212.971 39.7598H219.101Z" fill="white" style="fill:white;fill-opacity:1;"/>
<path d="M234.33 65.7002L246.03 38.7402H246.31L258.01 65.7002H252.09L244.62 46.7402L248.32 44.2002L239.37 65.7002H234.33ZM242.33 56.3302H250.12L251.92 60.6302H240.75L242.34 56.3302H242.33Z" fill="white" style="fill:white;fill-opacity:1;"/>
<path d="M257.561 39.7598H275.041V44.6898H268.731V65.6998H263.621V44.6898H257.561V39.7598Z" fill="white" style="fill:white;fill-opacity:1;"/>
<path d="M279.621 39.7598H284.731V65.6998H279.621V39.7598Z" fill="white" style="fill:white;fill-opacity:1;"/>
<path d="M289.49 52.7702C289.49 50.9802 289.83 49.2902 290.51 47.6902C291.19 46.0902 292.14 44.6802 293.35 43.4402C294.56 42.2002 295.96 41.2402 297.56 40.5302C299.16 39.8202 300.87 39.4702 302.71 39.4702C304.55 39.4702 306.22 39.8202 307.82 40.5302C309.42 41.2402 310.83 42.2002 312.07 43.4402C313.3 44.6702 314.27 46.0902 314.96 47.6902C315.65 49.2902 316 50.9802 316 52.7702C316 54.5602 315.65 56.3202 314.96 57.9202C314.27 59.5202 313.3 60.9202 312.07 62.1302C310.84 63.3402 309.42 64.2902 307.82 64.9702C306.22 65.6502 304.52 65.9902 302.71 65.9902C300.9 65.9902 299.16 65.6502 297.56 64.9702C295.96 64.2902 294.56 63.3402 293.35 62.1302C292.14 60.9202 291.19 59.5202 290.51 57.9202C289.83 56.3202 289.49 54.6102 289.49 52.7702ZM294.78 52.7702C294.78 53.9202 294.99 55.0002 295.4 56.0002C295.81 57.0002 296.39 57.8802 297.13 58.6402C297.87 59.4002 298.73 60.0002 299.7 60.4202C300.67 60.8402 301.74 61.0502 302.89 61.0502C304.04 61.0502 305.02 60.8402 305.97 60.4202C306.92 60.0002 307.75 59.4002 308.45 58.6402C309.16 57.8802 309.71 57.0002 310.11 56.0002C310.51 55.0002 310.71 53.9302 310.71 52.7702C310.71 51.6102 310.5 50.5002 310.09 49.4902C309.68 48.4802 309.11 47.5902 308.4 46.8302C307.69 46.0702 306.84 45.4702 305.88 45.0502C304.92 44.6302 303.87 44.4202 302.74 44.4202C301.61 44.4202 300.57 44.6302 299.6 45.0502C298.64 45.4702 297.79 46.0702 297.06 46.8302C296.33 47.5902 295.77 48.4802 295.37 49.4902C294.97 50.5002 294.77 51.5902 294.77 52.7702H294.78Z" fill="white" style="fill:white;fill-opacity:1;"/>
<path d="M343.98 66.76L324.31 49L325.83 49.85L325.94 65.71H320.76V38.75H320.97L340.21 56.44L339.08 55.95L338.97 39.77H344.12V66.77H343.98V66.76Z" fill="white" style="fill:white;fill-opacity:1;"/>
<path d="M116.4 76.5098H132.61V81.4398H121.51V87.3298H131.13V92.2598H121.51V102.45H116.4V76.5098Z" fill="white" style="fill:white;fill-opacity:1;"/>
<path d="M137.68 76.5102H155.37V81.4402H142.79V86.9702H153.93V91.9002H142.79V97.5002H155.87V102.43H137.68V76.4902V76.5102Z" fill="white" style="fill:white;fill-opacity:1;"/>
<path d="M175.15 82.7801C174.16 82.2401 173.16 81.7901 172.14 81.4401C171.12 81.0901 170.16 80.9101 169.27 80.9101C168.17 80.9101 167.3 81.1301 166.66 81.5801C166.03 82.0301 165.71 82.7001 165.71 83.5901C165.71 84.2001 165.95 84.7501 166.43 85.2301C166.91 85.7101 167.53 86.1401 168.3 86.5201C169.06 86.9001 169.86 87.2401 170.68 87.5401C171.43 87.8201 172.18 88.1601 172.92 88.5401C173.66 88.9201 174.32 89.4101 174.91 89.9801C175.5 90.5601 175.97 91.2701 176.32 92.1301C176.67 92.9901 176.85 94.0401 176.85 95.2801C176.85 96.6001 176.51 97.8201 175.83 98.9501C175.15 100.08 174.15 100.99 172.83 101.68C171.51 102.37 169.89 102.72 167.97 102.72C166.98 102.72 165.98 102.62 164.96 102.42C163.94 102.22 162.93 101.92 161.95 101.5C160.97 101.08 160.01 100.57 159.1 99.9301L161.36 95.9501C161.97 96.4001 162.63 96.7901 163.35 97.1301C164.07 97.4701 164.79 97.7401 165.52 97.9201C166.25 98.1101 166.92 98.2001 167.53 98.2001C168.14 98.2001 168.76 98.1101 169.38 97.9401C170 97.7601 170.52 97.4601 170.93 97.0401C171.34 96.6201 171.55 96.0301 171.55 95.2801C171.55 94.7601 171.38 94.2901 171.04 93.8701C170.7 93.4501 170.24 93.0601 169.67 92.7101C169.09 92.3601 168.47 92.0501 167.78 91.7901C166.98 91.4901 166.16 91.1301 165.31 90.7301C164.46 90.3301 163.67 89.8401 162.93 89.2701C162.19 88.6901 161.59 87.9801 161.13 87.1201C160.67 86.2601 160.44 85.2101 160.44 83.9701C160.44 82.4701 160.77 81.1601 161.44 80.0601C162.11 78.9601 163.06 78.0801 164.28 77.4301C165.5 76.7801 166.91 76.4301 168.51 76.3501C170.6 76.3501 172.3 76.6001 173.6 77.0901C174.9 77.5801 176.07 78.1701 177.11 78.8501L175.17 82.7601L175.15 82.7801Z" fill="white" style="fill:white;fill-opacity:1;"/>
<path d="M180.23 76.5098H197.71V81.4398H191.4V102.45H186.29V81.4398H180.23V76.5098Z" fill="white" style="fill:white;fill-opacity:1;"/>
<path d="M202.781 76.5098H207.891V102.45H202.781V76.5098Z" fill="white" style="fill:white;fill-opacity:1;"/>
<path d="M218.64 76.5098L226.22 95.1898L223.26 94.5898L230.13 76.5098H236.19L224.35 103.65L212.51 76.5098H218.64Z" fill="white" style="fill:white;fill-opacity:1;"/>
<path d="M234.361 102.45L246.061 75.4902H246.341L258.041 102.45H252.121L244.651 83.4902L248.351 80.9502L239.401 102.45H234.361ZM242.371 93.0702H250.161L251.961 97.3702H240.791L242.381 93.0702H242.371Z" fill="white" style="fill:white;fill-opacity:1;"/>
<path d="M261.961 76.5098H267.071V97.5198H279.271V102.45H261.961V76.5098Z" fill="white" style="fill:white;fill-opacity:1;"/>
</svg>
