<svg width="584" height="176" viewBox="0 0 584 176" fill="none" xmlns="http://www.w3.org/2000/svg">
<path d="M56.3798 0L4.10681 0C1.83333 0 0.000976562 2.15471 0.000976562 4.81842V66.3381C0.000976562 70.6305 4.4122 72.7852 6.99107 69.7483L59.2811 8.22863C61.8599 5.19167 60.0276 0 56.3798 0Z" fill="#E8422E" style="fill:#E8422E;fill:color(display-p3 0.9098 0.2588 0.1804);fill-opacity:1;"/>
<path d="M20.2417 73.3298L1.40918 94.3C0.509964 95.1993 0.000976562 96.4208 0.000976562 97.6763V167.984C0.000976562 170.631 2.15569 172.769 4.80243 172.769H94.4691C98.3204 172.769 100.204 168.103 97.4212 165.44L26.9604 73.2619C25.0771 71.4635 22.091 71.4804 20.2417 73.3298Z" fill="#E8422E" style="fill:#E8422E;fill:color(display-p3 0.9098 0.2588 0.1804);fill-opacity:1;"/>
<path d="M56.8717 29.4216L81.1843 2.32647C82.3889 0.986138 84.0686 0.222656 85.7991 0.222656H91.8731C95.419 0.222656 98.3033 3.31051 98.3033 7.12792V121.752C98.3033 127.962 91.2623 131.016 87.2582 126.536L56.8717 88.3963C55.718 87.1068 55.0732 85.3932 55.0732 83.6118V34.223C55.0732 32.4416 55.718 30.711 56.8717 29.4216Z" fill="#4C9F37" style="fill:#4C9F37;fill:color(display-p3 0.2980 0.6235 0.2157);fill-opacity:1;"/>
<path d="M170.393 1.45898H119.443C116.379 1.45898 113.896 3.94289 113.896 7.00695V30.0132C113.896 33.0772 116.379 35.5611 119.443 35.5611H170.393C173.457 35.5611 175.941 33.0772 175.941 30.0132V7.00695C175.941 3.94289 173.457 1.45898 170.393 1.45898Z" fill="#00AEEF" style="fill:#00AEEF;fill:color(display-p3 0.0000 0.6824 0.9373);fill-opacity:1;"/>
<path d="M150.186 96.2188H120.835C117.002 96.2188 113.896 99.3255 113.896 103.158V165.814C113.896 169.647 117.002 172.754 120.835 172.754H150.186C154.019 172.754 157.126 169.647 157.126 165.814V103.158C157.126 99.3255 154.019 96.2188 150.186 96.2188Z" fill="#00AEEF" style="fill:#00AEEF;fill:color(display-p3 0.0000 0.6824 0.9373);fill-opacity:1;"/>
<path d="M152.307 48.8984H118.714C116.053 48.8984 113.896 51.0557 113.896 53.7169V78.1822C113.896 80.8433 116.053 83.0006 118.714 83.0006H152.307C154.968 83.0006 157.126 80.8433 157.126 78.1822V53.7169C157.126 51.0557 154.968 48.8984 152.307 48.8984Z" fill="#00AEEF" style="fill:#00AEEF;fill:color(display-p3 0.0000 0.6824 0.9373);fill-opacity:1;"/>
<path d="M206.276 20.7999L206.039 23.0055L207.362 21.3258L221.716 5.12305H232.964L214.793 24.8548L233.032 49.1335H222.021L208.448 30.3519L206.293 32.5066V49.1335H197.505V5.12305H206.293V20.7829L206.276 20.7999Z" fill="black" style="fill:black;fill-opacity:1;"/>
<path d="M240.057 5.12305H270.07V13.4874H248.726V22.8697H267.627V31.2341H248.726V40.7352H270.918V49.0996H240.057V5.12305Z" fill="black" style="fill:black;fill-opacity:1;"/>
<path d="M293.703 5.12305C296.452 5.12305 298.912 5.47934 301.049 6.17495C303.204 6.87057 305.003 7.87158 306.462 9.16102C307.921 10.4505 309.024 12.0113 309.787 13.8267C310.551 15.6421 310.924 17.6781 310.924 19.9516C310.924 21.75 310.652 23.5484 310.109 25.3299C309.566 27.1283 308.701 28.757 307.48 30.2331C306.258 31.7092 304.663 32.8968 302.661 33.796C300.659 34.6952 298.199 35.1363 295.247 35.1363H289.02V49.1335H280.351V5.12305H293.686H293.703ZM295.196 26.772C296.519 26.772 297.605 26.5514 298.487 26.1103C299.37 25.6692 300.048 25.1093 300.557 24.4306C301.049 23.752 301.406 23.0394 301.626 22.3099C301.847 21.5803 301.949 20.8847 301.949 20.24C301.949 19.7649 301.881 19.1541 301.745 18.4076C301.609 17.6781 301.321 16.9146 300.88 16.1681C300.439 15.4046 299.777 14.7768 298.878 14.2509C297.979 13.7419 296.774 13.4704 295.264 13.4704H289.037V26.755H295.196V26.772ZM303.323 32.1503L314.215 49.1335H304.103L292.973 32.3878L303.323 32.1503Z" fill="black" style="fill:black;fill-opacity:1;"/>
<path d="M316.896 49.1355L336.747 3.39453H337.222L357.073 49.1355H347.029L334.355 16.9675L340.632 12.6581L325.447 49.1355H316.896ZM330.469 33.2382H343.686L346.74 40.5337H327.789L330.486 33.2382H330.469Z" fill="black" style="fill:black;fill-opacity:1;"/>
<path d="M363.961 5.12305H372.631V40.7691H393.33V49.1335H363.961V5.12305Z" fill="black" style="fill:black;fill-opacity:1;"/>
<path d="M397.808 49.1355L417.658 3.39453H418.133L437.984 49.1355H427.94L415.266 16.9675L421.543 12.6581L406.359 49.1355H397.808ZM411.381 33.2382H424.597L427.651 40.5337H408.7L411.398 33.2382H411.381Z" fill="black" style="fill:black;fill-opacity:1;"/>
<path d="M197.488 67.459H206.158V111.469H197.488V67.459Z" fill="black" style="fill:black;fill-opacity:1;"/>
<path d="M256.327 113.267L222.955 83.1346L225.534 84.5767L225.72 111.485H216.932V65.7441H217.288L249.931 95.7574L248.014 94.9261L247.827 67.4747H256.565V113.284H256.327V113.267Z" fill="black" style="fill:black;fill-opacity:1;"/>
<path d="M306.734 113.267L273.361 83.1346L275.94 84.5767L276.126 111.485H267.338V65.7441H267.694L300.337 95.7574L298.42 94.9261L298.233 67.4747H306.971V113.284H306.734V113.267Z" fill="black" style="fill:black;fill-opacity:1;"/>
<path d="M315.048 89.5319C315.048 86.495 315.625 83.6277 316.778 80.9131C317.932 78.1985 319.544 75.8062 321.597 73.7024C323.65 71.6155 326.025 69.9698 328.74 68.7652C331.454 67.5606 334.355 66.9668 337.477 66.9668C340.599 66.9668 343.432 67.5606 346.147 68.7652C348.862 69.9698 351.254 71.5986 353.358 73.7024C355.461 75.8062 357.09 78.1985 358.261 80.9131C359.432 83.6277 360.025 86.495 360.025 89.5319C360.025 92.5689 359.432 95.5549 358.261 98.2695C357.09 100.984 355.445 103.359 353.358 105.412C351.271 107.465 348.862 109.077 346.147 110.231C343.432 111.384 340.548 111.961 337.477 111.961C334.406 111.961 331.454 111.384 328.74 110.231C326.025 109.077 323.65 107.465 321.597 105.412C319.544 103.359 317.932 100.984 316.778 98.2695C315.625 95.5549 315.048 92.6537 315.048 89.5319ZM324.023 89.5319C324.023 91.483 324.379 93.3154 325.075 95.012C325.771 96.7086 326.755 98.2017 328.01 99.4911C329.266 100.781 330.725 101.799 332.37 102.511C334.016 103.224 335.832 103.58 337.783 103.58C339.734 103.58 341.396 103.224 343.008 102.511C344.62 101.799 346.028 100.781 347.233 99.4911C348.437 98.2017 349.371 96.7086 350.049 95.012C350.728 93.3154 351.067 91.5 351.067 89.5319C351.067 87.5638 350.711 85.6806 350.015 83.967C349.32 82.2534 348.353 80.7434 347.148 79.454C345.926 78.1645 344.501 77.1465 342.873 76.434C341.244 75.7214 339.462 75.3651 337.545 75.3651C335.628 75.3651 333.863 75.7214 332.218 76.434C330.589 77.1465 329.147 78.1645 327.908 79.454C326.67 80.7434 325.72 82.2534 325.041 83.967C324.362 85.6806 324.023 87.5299 324.023 89.5319Z" fill="black" style="fill:black;fill-opacity:1;"/>
<path d="M371.731 67.459L384.592 99.1519L379.57 98.134L391.226 67.459H401.507L381.419 113.505L361.331 67.459H371.731Z" fill="black" style="fill:black;fill-opacity:1;"/>
<path d="M397.572 111.47L417.423 65.7285H417.898L437.748 111.47H427.704L415.031 79.3015L421.308 74.9921L406.123 111.47H397.572ZM411.145 95.5722H424.362L427.416 102.868H408.465L411.162 95.5722H411.145Z" fill="black" style="fill:black;fill-opacity:1;"/>
<path d="M436.984 67.459H466.641V75.8233H455.936V111.469H447.266V75.8233H436.984V67.459Z" fill="black" style="fill:black;fill-opacity:1;"/>
<path d="M474.412 67.459H483.082V111.469H474.412V67.459Z" fill="black" style="fill:black;fill-opacity:1;"/>
<path d="M491.157 89.5319C491.157 86.495 491.734 83.6277 492.888 80.9131C494.042 78.1985 495.653 75.8062 497.706 73.7024C499.759 71.5986 502.134 69.9698 504.849 68.7652C507.564 67.5606 510.465 66.9668 513.587 66.9668C516.708 66.9668 519.542 67.5606 522.256 68.7652C524.971 69.9698 527.363 71.5986 529.467 73.7024C531.554 75.7892 533.2 78.1985 534.37 80.9131C535.541 83.6277 536.135 86.495 536.135 89.5319C536.135 92.5689 535.541 95.5549 534.37 98.2695C533.2 100.984 531.554 103.359 529.467 105.412C527.38 107.465 524.971 109.077 522.256 110.231C519.542 111.384 516.658 111.961 513.587 111.961C510.516 111.961 507.564 111.384 504.849 110.231C502.134 109.077 499.759 107.465 497.706 105.412C495.653 103.359 494.042 100.984 492.888 98.2695C491.734 95.5549 491.157 92.6537 491.157 89.5319ZM500.132 89.5319C500.132 91.483 500.489 93.3154 501.184 95.012C501.88 96.7086 502.864 98.2017 504.119 99.4911C505.375 100.781 506.834 101.799 508.48 102.511C510.126 103.224 511.941 103.58 513.892 103.58C515.843 103.58 517.506 103.224 519.118 102.511C520.729 101.799 522.138 100.781 523.325 99.4911C524.53 98.2017 525.463 96.7086 526.142 95.012C526.82 93.3154 527.16 91.5 527.16 89.5319C527.16 87.5638 526.803 85.6806 526.108 83.967C525.412 82.2534 524.445 80.7434 523.24 79.454C522.036 78.1645 520.594 77.1465 518.965 76.434C517.336 75.7214 515.555 75.3651 513.638 75.3651C511.72 75.3651 509.956 75.7214 508.31 76.434C506.681 77.1465 505.239 78.1645 504.001 79.454C502.762 80.7434 501.812 82.2534 501.133 83.967C500.455 85.6806 500.115 87.5299 500.115 89.5319H500.132Z" fill="black" style="fill:black;fill-opacity:1;"/>
<path d="M583.606 113.267L550.233 83.1346L552.812 84.5767L552.998 111.485H544.21V65.7441H544.566L577.209 95.7574L575.292 94.9261L575.105 67.4747H583.843V113.284H583.606V113.267Z" fill="black" style="fill:black;fill-opacity:1;"/>
<path d="M197.488 129.809H224.991V138.173H206.158V148.166H222.48V156.53H206.158V173.819H197.488V129.809Z" fill="black" style="fill:black;fill-opacity:1;"/>
<path d="M233.592 129.809H263.605V138.174H242.262V147.556H261.162V155.92H242.262V165.421H264.453V173.786H233.592V129.775V129.809Z" fill="black" style="fill:black;fill-opacity:1;"/>
<path d="M297.165 140.448C295.486 139.532 293.789 138.769 292.059 138.175C290.328 137.581 288.699 137.276 287.189 137.276C285.323 137.276 283.847 137.649 282.761 138.412C281.692 139.176 281.149 140.313 281.149 141.823C281.149 142.858 281.556 143.791 282.371 144.605C283.185 145.419 284.237 146.149 285.544 146.794C286.833 147.438 288.19 148.015 289.581 148.524C290.854 148.999 292.126 149.576 293.382 150.221C294.637 150.866 295.757 151.697 296.758 152.664C297.759 153.648 298.557 154.853 299.15 156.312C299.744 157.771 300.05 159.552 300.05 161.656C300.05 163.896 299.473 165.966 298.319 167.883C297.165 169.8 295.469 171.344 293.229 172.515C290.99 173.685 288.241 174.279 284.984 174.279C283.304 174.279 281.607 174.109 279.877 173.77C278.146 173.431 276.433 172.922 274.77 172.209C273.107 171.497 271.478 170.631 269.935 169.545L273.769 162.793C274.804 163.556 275.924 164.218 277.145 164.795C278.367 165.372 279.588 165.83 280.827 166.135C282.065 166.458 283.202 166.61 284.237 166.61C285.272 166.61 286.324 166.458 287.376 166.169C288.428 165.864 289.31 165.355 290.006 164.642C290.701 163.93 291.058 162.929 291.058 161.656C291.058 160.774 290.769 159.977 290.192 159.264C289.615 158.551 288.835 157.89 287.868 157.296C286.884 156.702 285.832 156.176 284.661 155.735C283.304 155.226 281.913 154.615 280.471 153.937C279.028 153.258 277.688 152.427 276.433 151.459C275.177 150.475 274.159 149.271 273.379 147.812C272.598 146.353 272.208 144.571 272.208 142.467C272.208 139.922 272.768 137.7 273.905 135.834C275.041 133.967 276.653 132.474 278.723 131.371C280.793 130.269 283.185 129.675 285.9 129.539C289.446 129.539 292.33 129.963 294.536 130.795C296.741 131.626 298.726 132.627 300.491 133.781L297.199 140.414L297.165 140.448Z" fill="black" style="fill:black;fill-opacity:1;"/>
<path d="M305.784 129.809H335.441V138.173H324.735V173.819H316.066V138.173H305.784V129.809Z" fill="black" style="fill:black;fill-opacity:1;"/>
<path d="M344.042 129.809H352.712V173.819H344.042V129.809Z" fill="black" style="fill:black;fill-opacity:1;"/>
<path d="M370.951 129.809L383.812 161.502L378.79 160.484L390.445 129.809H400.727L380.639 175.855L360.551 129.809H370.951Z" fill="black" style="fill:black;fill-opacity:1;"/>
<path d="M397.622 173.821L417.473 128.08H417.948L437.798 173.821H427.754L415.08 141.653L421.358 137.344L406.173 173.821H397.622ZM411.212 157.907H424.429L427.483 165.202H408.531L411.229 157.907H411.212Z" fill="black" style="fill:black;fill-opacity:1;"/>
<path d="M444.448 129.809H453.118V165.455H473.817V173.819H444.448V129.809Z" fill="black" style="fill:black;fill-opacity:1;"/>
</svg>
