<svg width="366" height="210" viewBox="0 0 366 210" fill="none" xmlns="http://www.w3.org/2000/svg">
<g clip-path="url(#clip0_388_270)">
<path d="M51.8802 164.94C48.9502 163.64 48.2902 161.7 49.8902 158.95C46.0502 160.24 46.6102 164.11 41.3102 161.02C40.6002 162.6 41.2502 163.38 38.9102 162.93C38.3802 160.01 36.2202 157.41 39.8902 156.44L33.8902 154.94C33.7002 156.6 36.7502 158.12 36.8602 158.64C37.1002 159.75 37.6602 165.53 35.9002 165.92C35.8802 159.79 27.1302 142.49 28.3202 137.89C28.9902 135.29 30.5902 134.59 33.1502 135.09C39.7602 136.37 36.3202 145.23 39.4202 148.9C41.3702 151.2 47.7002 153.2 50.3802 154.94L51.8802 164.93V164.94Z" fill="black"/>
<path d="M50.8904 181.929H41.9004C40.4804 186.389 45.5204 184.769 45.8504 186.509L44.9004 196.929L47.4204 196.119L48.8704 198.459L44.8804 199.939C44.8304 203.799 48.7704 207.449 43.9004 209.939L37.9004 169.949C39.9204 171.039 39.1404 174.329 40.8704 176.459C41.7304 177.519 42.3904 178.249 43.8804 177.939L42.8904 173.939L44.8704 174.949C45.9304 174.189 43.5704 164.099 47.8704 162.939L50.8804 181.929H50.8904Z" fill="black"/>
<path d="M49.8806 151.941C36.5406 150.991 42.5006 142.631 36.8906 134.961C38.7706 134.981 42.1506 135.541 43.3606 136.981C43.9106 137.631 50.4606 151.361 49.8906 151.941H49.8806Z" fill="black"/>
<path d="M31.8904 131.939L30.9004 120.939C34.9804 122.849 31.8804 126.629 36.8904 128.449C37.4004 130.359 32.4304 132.559 31.9004 131.929L31.8904 131.939Z" fill="black"/>
<path d="M176.194 111.984H168.801C169.348 111.692 169.823 111.345 170.225 110.944C170.626 110.579 170.936 110.195 171.155 109.793C171.374 109.392 171.539 109.045 171.648 108.752C171.794 108.46 171.905 108.114 171.978 107.712C172.087 107.347 172.16 107.128 172.196 107.055H176.029L176.194 111.984Z" fill="black"/>
<path d="M121.182 96.3218C121.255 97.8184 120.89 99.1871 120.087 100.428C119.284 101.633 118.134 102.254 116.637 102.291C115.067 102.327 113.826 101.652 112.913 100.264C112.037 98.8769 111.653 97.563 111.763 96.3218H121.182Z" fill="black"/>
<path d="M106.56 96.3765C106.523 96.9971 106.651 97.8366 106.943 98.895C107.235 99.9535 107.564 100.593 107.929 100.812C106.834 102.053 105.884 102.254 105.081 101.415C104.351 100.648 104.096 99.6257 104.314 98.3482C104.57 96.9974 105.319 96.3401 106.56 96.3765Z" fill="black"/>
<path d="M116.527 85.478C119.083 85.4781 120.634 87.4131 121.182 91.2827H111.817C112.073 89.6399 112.602 88.2705 113.405 87.1753C114.245 86.0436 115.286 85.478 116.527 85.478Z" fill="black"/>
<path d="M81.8535 94.898C82.6929 94.9347 83.2588 95.5913 83.5508 96.8687C83.8794 98.11 83.8612 99.3519 83.4961 100.593C83.1311 101.798 82.5835 102.381 81.8535 102.345C81.0503 102.309 80.5021 101.67 80.21 100.428C79.918 99.1871 79.9361 97.9639 80.2647 96.7593C80.5933 95.518 81.1234 94.898 81.8535 94.898Z" fill="black"/>
<path fill-rule="evenodd" clip-rule="evenodd" d="M159.86 2.43995C167.01 -4.51982 166.381 5.34028 171.9 7.38038C174.32 8.28038 176.431 7.48081 178.251 8.07081C179.6 8.51118 179.501 10.6599 180.561 10.9399C187.911 12.8799 189.411 5.78049 196.091 9.00049C199.811 10.7905 205.01 15.0198 210.41 14.8101C212.17 14.7401 213.581 13.2002 215.421 12.9702C219.471 12.4803 222.84 12.4698 227.08 11.6499C228.54 11.3699 230.021 9.91018 231.391 9.93018C233.341 9.97029 235.711 14.1101 239.23 13.6802C240.74 13.4902 242.08 11.7304 243.66 11.2202C246.77 10.2302 250.331 10.1601 252.791 9.39014C253.751 9.08961 254.431 7.03061 256.32 6.96045C259.14 6.85046 264.241 9.45021 265.851 11.9302C265.831 8.37037 269.381 9.14071 271.171 7.99073C273.341 6.60073 272.631 2.35049 277.87 4.93995C275.54 8.78984 275.161 13.25 279.32 15.98C282.15 17.8399 283.801 16.6803 286.86 20.4399C290.47 24.8799 288.471 32.0097 295.2 31.6899C297.35 31.59 299.35 29.1811 300.91 29.4106C302.47 29.6406 310.741 31.5199 312.131 31.9399C313.371 32.3202 313.521 35.6202 317.431 35.8901C326.931 36.5301 328.551 29.0406 334.521 26.0806C338 24.3606 342.04 24.7203 344.82 23.3804C347.05 22.3104 349.331 17.8605 352.391 16.9605C354.871 20.7103 359.08 21.4704 355.631 26.6899C351.011 28.4699 331.211 27.5607 340.641 35.9507C348.27 42.7403 349.761 37.0304 357.87 36.9302L357.91 42.8901C362.29 42.3401 368.48 48.2202 364.2 51.9702C361.88 51.1905 357.961 52.7907 356.311 52.5308C355.081 52.3408 354.481 50.13 352.431 49.98C350.071 49.81 346.471 52.4099 343.431 51.9399C341.931 51.6999 340.771 49.9399 339.561 50.1099C336.171 50.5799 331.66 55.8305 331.15 55.9605C328.671 56.6003 326.151 54.9109 324.301 55.0308C322.751 55.1308 321.781 56.8199 320.291 56.9702C317.461 57.2602 303.601 48.1206 300.971 50.0405C300.191 54.2104 296.46 55.2405 294.65 59.2105C293.791 61.1004 294.111 63.1804 293.311 64.8804C290.761 70.3204 279.361 80.3105 277.391 85.9605C276.671 88.0204 276.721 89.8004 276.841 91.9204C272.261 92.8804 264.96 86.6103 261.58 87.0903C255.821 87.9006 257.231 94.9107 260.841 97.9107C259.141 98.1307 257.08 97.5407 255.48 97.9107C254.311 98.1808 255.711 100.41 253.351 99.9302L253.83 95.9302C249.26 98.9998 243.851 93.4707 239.841 97.4302C244.571 97.2303 244.271 100.401 246.311 101.951C251.821 106.131 261.321 109.15 267.841 111.94C263.841 122.52 253.251 107.071 245.811 107.371C242.081 113.52 236.871 117.21 240.851 124.92C235.501 124.29 238.531 127.11 239.841 129.92C235.671 128.58 234.391 126.26 229.181 125.93C227.601 125.83 228.24 127.4 226.381 128.02C223.661 128.93 219.991 127.9 218.851 128.4C213.571 130.7 222.11 139.03 221.82 140.42L220.301 141.6C218.051 139.98 214.951 145.111 213.501 147.201C211.971 149.401 214.53 150.77 209.461 148.84L206.87 152.451C210.11 153.831 215.18 160.451 208.74 159.411C203.451 158.551 205.16 154.94 204.83 154.94C200.64 154.94 189.37 154.1 186.33 154.94H186.391C182.301 156.07 185.36 168.481 185.48 171.621C185.52 172.701 185.231 179.72 184.881 179.951C182.361 178.181 175.281 180.6 177.091 183.77C177.491 184.47 180.65 184.43 179.87 186.94C178.58 188.11 173.151 183.611 171.931 183.371C170.781 183.151 167.25 186.141 164.87 184.951L165.41 192.951L158.86 193.38C155.741 195 157.82 201.25 153.351 201.69C151.351 201.41 149.551 193.52 147.921 192.4C146.291 191.28 143.18 192.52 141.99 191.8C140.69 191.009 140.55 182.85 138.23 182.06C135.911 182.06 132.691 181.441 130.551 181.96C129.821 182.14 129.97 183.66 129.141 183.89C125.351 184.93 117.582 183.7 116.471 184.02C115.841 184.2 110.742 189.779 109.841 190.4C103.941 194.49 98.3504 195.16 91.9004 191.38C88.5605 189.42 89.5903 182.84 81.8604 185.92L84.6807 178.68L72.9102 155.36L70.4805 155.88L67.8604 153.92L65.8701 155.92C65.3903 160.239 69.8383 162.12 69.9102 162.6C70.1202 163.9 68.5006 166.82 69.8506 168.92L64.8506 169.5L60.3506 164.93L59.8506 167.93L56.8906 167.911C56.1706 164.221 53.9304 159.33 54.8604 155.6C55.0606 154.82 56.8297 154.93 56.9102 154.331C57.2302 151.861 53.8606 149.67 55.8506 146.93H52.8506V150.43C50.5805 145.85 40.6807 129.34 40.9307 125.39C41.0408 123.66 43.0308 122.79 42.8408 119.56C42.7007 117.15 40.8903 112.6 37.8604 112.93C37.5207 113.221 42.3702 122.191 37.8604 118.911L38.8408 124.92C36.2508 124.14 36.8806 120.35 35.3506 118.89C34.2507 117.83 32.1609 118.09 31.9307 117.84C31.4607 117.32 32.4908 107.07 34.8408 106.42L31.8906 103.36C31.612 102.04 37.19 99.9005 31.8506 100.42C33.1206 97.8804 29.001 94.9499 29.001 94.4399C29.002 93.9296 30.9407 92.4603 31.3008 91.0308C31.6608 89.6008 30.7606 86.8102 31.8506 84.9302H28.8604L28.8506 91.4302L19.8701 77.3999L21.8604 73.9204L16.8604 72.9204C15.4209 74.9011 24.0007 91.6105 25.1406 95.1304C26.0107 97.8204 28.1605 102.01 24.8506 102.42C25.3208 103.86 31.2806 102.99 28.1406 106.92L26.8604 106.94L28.9707 109.39C26.3708 114.77 28.11 116.07 28.5801 120.69C29.0001 124.72 28.4608 128.771 30.8408 132.911C28.5008 132.891 24.3505 133.37 22.7705 131.23C21.1004 128.959 16.9706 108.571 15.5606 103.701C12.1006 91.7708 8.77058 79.8506 5.35061 67.9107C3.10063 60.0607 -6.88929 45.971 7.8301 47.9106L6.82033 45.3999C11.7802 44.7399 17.2102 43.3707 21.8301 45.9204L18.8408 40.9302C21.3706 39.9204 24.1003 40.6098 26.3301 40.3999C27.2501 40.3099 28.1305 39.0603 29.2705 39.0503C39.9902 38.9603 35.7807 41.9102 37.2803 44.8901C38.5403 47.4001 44.2406 47.2806 41.8506 51.9106C43.8503 51.0108 50.099 51.1506 51.2002 50.7808C52.1102 50.4708 53.9505 46.6801 57.4404 46.98C54.7106 33.4205 61.2905 40.5902 65.9405 36.5103C68.7304 34.0703 67.5702 29.38 69.0801 28.1499C73.2901 24.6999 85.8502 27.8003 84.2705 18.9106L88.8106 17.8901L88.961 14.0103C93.0705 14.82 91.6911 10.9803 93.501 9.84034C96.1009 8.20074 98.6005 10.7796 97.9805 5.10987C100.65 3.15009 103.321 5.08069 106.061 4.74073C108.8 4.40075 113.15 1.98035 115.37 2.02002C122.4 2.16002 133.761 6.85987 141.501 6.85987C144.601 6.85966 149.44 4.61095 151.16 5.08057C152.44 5.43057 153.151 7.34077 154.301 7.53077C156.051 7.82053 160.401 6.12046 162.851 6.92041L159.86 2.43995ZM175.756 102.181H170.006C171.065 101.451 171.831 100.301 172.306 98.731C172.78 97.1246 172.889 95.518 172.634 93.9116C172.378 92.2688 171.557 90.8449 170.17 89.6401C168.819 88.4353 167.012 87.8507 164.748 87.8872C161.499 87.9237 159.162 89.0922 157.738 91.3921C156.314 93.6557 156.113 96.4678 157.136 99.8267H163.16C162.138 97.5266 162.028 95.81 162.831 94.6782C163.488 93.8385 164.31 93.6012 165.296 93.9663C166.355 94.3679 166.829 95.1717 166.72 96.3765C166.683 96.851 166.573 97.3622 166.391 97.9097C166.208 98.4573 165.898 99.0966 165.46 99.8267C165.022 100.557 164.31 101.159 163.324 101.633C162.375 102.071 161.225 102.291 159.874 102.291L151.823 102.236V107.055H168.034C167.596 108.114 166.428 109.592 164.529 111.491C162.631 113.389 160.531 114.941 158.231 116.146H182.054L180.575 80.6587H174.935L175.756 102.181ZM116.582 80.3853C113.771 80.3488 111.434 81.3707 109.572 83.4517C107.747 85.5326 106.651 88.1612 106.286 91.3374C103.986 91.4104 102.252 92.1778 101.084 93.6382C99.9523 95.0985 99.3677 96.887 99.3311 99.0044C99.2946 101.633 99.9338 103.678 101.248 105.138C102.562 106.562 104.333 107.201 106.56 107.055C107.837 106.982 109.152 106.234 110.503 104.81C112.292 106.453 114.246 107.329 116.363 107.439C119.028 107.512 121.31 106.672 123.208 104.919C125.143 103.13 126.349 100.301 126.823 96.4312C127.48 96.3948 128.01 96.6684 128.411 97.2524C129.032 98.2017 129.123 99.2791 128.685 100.484C128.246 101.688 127.516 102.035 126.494 101.524V107C127.772 107.22 128.886 107.201 129.835 106.946C130.784 106.654 131.514 106.234 132.025 105.686C132.573 105.102 133.011 104.39 133.34 103.55C133.668 102.711 133.888 101.944 133.997 101.25C134.107 100.52 134.179 99.7529 134.216 98.9497C134.289 96.3212 133.559 94.3681 132.025 93.0903C130.529 91.776 128.739 91.1914 126.658 91.3374C126.22 87.3946 125.144 84.6014 123.428 82.9585C121.712 81.2791 119.43 80.4218 116.582 80.3853ZM147.449 82.9585C145.332 80.7317 143.16 79.8006 140.933 80.1655C138.706 80.4941 137.318 81.2615 136.771 82.4663V87.8325C138.194 86.555 139.472 85.8984 140.604 85.8618C141.772 85.8253 142.666 86.2628 143.287 87.1753C143.944 88.088 144.437 89.1837 144.766 90.4614C145.131 91.7393 145.295 93.0358 145.259 94.3501C145.222 96.4309 144.748 98.2195 143.835 99.7163C142.922 101.177 141.845 101.98 140.604 102.126C139.362 102.272 138.067 101.579 136.716 100.045V105.358C137.117 106.051 137.83 106.599 138.852 107C139.91 107.439 141.079 107.548 142.356 107.329C143.671 107.146 144.93 106.653 146.135 105.85C147.376 105.047 148.417 103.623 149.257 101.579C150.097 99.5341 150.535 97.0329 150.571 94.0757C150.644 88.8915 149.603 85.1855 147.449 82.9585ZM86.8916 80.4946C84.8836 80.4216 83.1125 80.6953 81.5791 81.3159C80.0823 81.9366 78.8958 82.7585 78.0196 83.7808C77.1434 84.7665 76.4314 85.9713 75.8838 87.395C75.3362 88.8188 74.9888 90.2245 74.8428 91.6118C74.6968 92.9626 74.6422 94.4047 74.6787 95.938C74.9343 103.349 77.3445 107.165 81.9082 107.384C83.7335 107.494 85.303 106.781 86.6172 105.248C87.968 103.678 88.6617 101.159 88.6983 97.6909C88.7348 94.9892 88.0593 92.999 86.6719 91.7212C85.2846 90.4435 83.8425 89.9324 82.3457 90.188C80.849 90.4436 79.9178 91.1191 79.5528 92.2144H79.2793C79.4619 89.8049 80.2829 88.0337 81.7432 86.9019C83.24 85.7336 84.8103 85.2408 86.4531 85.4233C88.5341 85.6424 89.9761 86.5916 90.7793 88.271C91.5825 89.9504 91.9844 92.3781 91.9844 95.5542C91.9844 97.3796 91.7289 99.4245 91.2178 101.688C90.7067 103.915 89.9584 105.704 88.9727 107.055L94.668 107.11C96.3839 102.802 97.1867 98.5668 97.0772 94.4048C96.9676 90.0967 96.0558 86.7191 94.3399 84.273C92.6239 81.7903 90.1409 80.5312 86.8916 80.4946ZM182.408 70.7466C181.094 70.7831 179.907 71.0931 178.849 71.6773C177.79 72.2249 177.096 72.8641 176.768 73.5942V79.6187C177.242 78.5964 177.954 77.7745 178.903 77.1538C179.852 76.5332 180.802 76.205 181.751 76.1685C182.737 76.132 183.595 76.5512 184.325 77.4273C185.055 78.3035 185.421 79.6 185.421 81.3159V107.055H190.842V79.8921C190.842 77.6285 190.404 75.7665 189.527 74.3062C188.688 72.8094 187.629 71.8419 186.352 71.4038C185.074 70.9292 183.759 70.7101 182.408 70.7466ZM39.5801 56.2505C37.9199 54.4704 32.4303 50.3505 29.9004 51.9605L38.3906 57.9507C39.8705 59.1809 40.8708 63.3203 42.8906 61.4507C41.0006 60.3107 40.7401 57.4905 39.5801 56.2505Z" fill="black"/>
</g>
<defs>
<clipPath id="clip0_388_270">
<rect width="365.67" height="209.94" fill="white"/>
</clipPath>
</defs>
</svg>
