<svg width="184" height="206" viewBox="0 0 184 206" fill="none" xmlns="http://www.w3.org/2000/svg">
<path d="M145.55 0.105469H122.961V91.5052H145.55V0.105469Z" fill="#F9421E" style="fill:#F9421E;fill:color(display-p3 0.9765 0.2588 0.1176);fill-opacity:1;"/>
<path d="M103.788 0.105469H81.1992V91.5052H103.788V0.105469Z" fill="#00AEEF" style="fill:#00AEEF;fill:color(display-p3 0.0000 0.6824 0.9373);fill-opacity:1;"/>
<path d="M180.827 0.105469H122.928V22.6943H180.827V0.105469Z" fill="#F9421E" style="fill:#F9421E;fill:color(display-p3 0.9765 0.2588 0.1176);fill-opacity:1;"/>
<path d="M180.884 34.4644H158.24V57.0532H180.884V34.4644Z" fill="#F9421E" style="fill:#F9421E;fill:color(display-p3 0.9765 0.2588 0.1176);fill-opacity:1;"/>
<path d="M68.3591 0.105469H39.3265L-0.00195312 45.8517L39.3265 91.5052H68.3591L29.0306 45.8517L68.3591 0.105469Z" fill="#22B244" style="fill:#22B244;fill:color(display-p3 0.1333 0.6980 0.2667);fill-opacity:1;"/>
<path d="M10.6962 116.94L10.5193 118.576L11.4919 117.338L22.1016 105.358H30.4125L16.9736 119.946L30.4567 137.895H22.3226L12.2876 124.014L10.6962 125.605V137.895H4.19772V105.358H10.6962V116.94ZM35.324 105.358H57.5159V111.547H41.734V118.488H55.7035V124.677H41.734V131.706H58.1348V137.895H35.324V105.358ZM74.6248 105.358C76.6583 105.358 78.4708 105.623 80.0622 106.154C81.6537 106.655 82.9799 107.392 84.0409 108.364C85.1313 109.307 85.9565 110.457 86.5165 111.812C87.0764 113.139 87.3564 114.642 87.3564 116.321C87.3564 117.648 87.1501 118.974 86.7375 120.3C86.3544 121.626 85.706 122.835 84.7924 123.925C83.9083 125.016 82.7294 125.9 81.2558 126.578C79.7823 127.226 77.955 127.55 75.7742 127.55H71.1766V137.895H64.7666V105.358H74.6248ZM75.7299 121.361C76.7025 121.361 77.513 121.199 78.1613 120.875C78.8097 120.551 79.3107 120.138 79.6644 119.637C80.0475 119.136 80.3127 118.62 80.4601 118.09C80.6369 117.53 80.7253 117.014 80.7253 116.543C80.7253 116.189 80.6664 115.747 80.5485 115.216C80.4601 114.656 80.2538 114.096 79.9296 113.536C79.6054 112.976 79.1044 112.505 78.4266 112.122C77.7782 111.739 76.8941 111.547 75.7742 111.547H71.1766V121.361H75.7299ZM81.7421 125.34L89.7878 137.895H82.3168L74.0943 125.517L81.7421 125.34ZM91.4034 137.895L106.08 104.076H106.434L121.111 137.895H113.684L104.312 114.111L108.954 110.928L97.725 137.895H91.4034ZM101.438 126.135H111.208L113.463 131.529H99.4491L101.438 126.135ZM125.854 105.358H132.264V131.706H147.559V137.895H125.854V105.358ZM150.504 137.895L165.181 104.076H165.535L180.212 137.895H172.785L163.413 114.111L168.055 110.928L156.826 137.895H150.504ZM160.539 126.135H170.309L172.564 131.529H158.55L160.539 126.135ZM2.58037 142.888H6.52181V162.895H2.58037V142.888ZM29.5986 163.71L14.4308 150.01L15.5996 150.662L15.6812 162.895H11.6854V142.1H11.8485L26.69 155.746L25.8202 155.365L25.7387 142.888H29.7073V163.71H29.5986ZM52.7726 163.71L37.6048 150.01L38.7737 150.662L38.8552 162.895H34.8594V142.1H35.0225L49.864 155.746L48.9942 155.365L48.9127 142.888H52.8813V163.71H52.7726ZM56.8102 152.919C56.8102 151.541 57.073 150.237 57.5985 149.004C58.124 147.772 58.8489 146.685 59.7731 145.742C60.7154 144.782 61.8027 144.03 63.035 143.486C64.2672 142.943 65.5901 142.671 67.0036 142.671C68.3989 142.671 69.7127 142.943 70.945 143.486C72.1773 144.03 73.2646 144.782 74.2069 145.742C75.1673 146.685 75.9103 147.772 76.4358 149.004C76.9795 150.237 77.2513 151.541 77.2513 152.919C77.2513 154.332 76.9795 155.655 76.4358 156.887C75.9103 158.12 75.1673 159.207 74.2069 160.149C73.2646 161.073 72.1773 161.798 70.945 162.324C69.7127 162.849 68.3989 163.112 67.0036 163.112C65.5901 163.112 64.2672 162.849 63.035 162.324C61.8027 161.798 60.7154 161.073 59.7731 160.149C58.8489 159.207 58.124 158.12 57.5985 156.887C57.073 155.655 56.8102 154.332 56.8102 152.919ZM60.8875 152.919C60.8875 153.807 61.0416 154.64 61.3496 155.419C61.6758 156.18 62.1198 156.86 62.6816 157.458C63.2615 158.038 63.9229 158.491 64.6659 158.817C65.427 159.143 66.2515 159.306 67.1395 159.306C67.9912 159.306 68.7795 159.143 69.5043 158.817C70.2473 158.491 70.8906 158.038 71.4343 157.458C71.9779 156.86 72.4038 156.18 72.7119 155.419C73.0199 154.64 73.174 153.807 73.174 152.919C73.174 152.013 73.0109 151.17 72.6847 150.391C72.3766 149.611 71.9417 148.932 71.3799 148.352C70.8363 147.754 70.193 147.292 69.45 146.966C68.707 146.639 67.9006 146.476 67.0308 146.476C66.1609 146.476 65.3545 146.639 64.6115 146.966C63.8685 147.292 63.2162 147.754 62.6544 148.352C62.0926 148.932 61.6577 149.611 61.3496 150.391C61.0416 151.17 60.8875 152.013 60.8875 152.919ZM82.8443 142.888L88.6885 157.295L86.4052 156.833L91.7057 142.888H96.3811L87.2478 163.819L78.1146 142.888H82.8443ZM94.8519 162.895L103.876 142.1H104.094L113.118 162.895H108.552L102.789 148.27L105.643 146.313L98.739 162.895H94.8519ZM101.022 155.664H107.03L108.416 158.98H99.7991L101.022 155.664ZM113.056 142.888H126.539V146.694H121.673V162.895H117.732V146.694H113.056V142.888ZM130.343 142.888H134.284V162.895H130.343V142.888ZM138.224 152.919C138.224 151.541 138.487 150.237 139.013 149.004C139.538 147.772 140.263 146.685 141.187 145.742C142.13 144.782 143.217 144.03 144.449 143.486C145.682 142.943 147.004 142.671 148.418 142.671C149.813 142.671 151.127 142.943 152.359 143.486C153.592 144.03 154.679 144.782 155.621 145.742C156.582 146.685 157.325 147.772 157.85 149.004C158.394 150.237 158.666 151.541 158.666 152.919C158.666 154.332 158.394 155.655 157.85 156.887C157.325 158.12 156.582 159.207 155.621 160.149C154.679 161.073 153.592 161.798 152.359 162.324C151.127 162.849 149.813 163.112 148.418 163.112C147.004 163.112 145.682 162.849 144.449 162.324C143.217 161.798 142.13 161.073 141.187 160.149C140.263 159.207 139.538 158.12 139.013 156.887C138.487 155.655 138.224 154.332 138.224 152.919ZM142.302 152.919C142.302 153.807 142.456 154.64 142.764 155.419C143.09 156.18 143.534 156.86 144.096 157.458C144.676 158.038 145.337 158.491 146.08 158.817C146.841 159.143 147.666 159.306 148.554 159.306C149.405 159.306 150.194 159.143 150.919 158.817C151.662 158.491 152.305 158.038 152.849 157.458C153.392 156.86 153.818 156.18 154.126 155.419C154.434 154.64 154.588 153.807 154.588 152.919C154.588 152.013 154.425 151.17 154.099 150.391C153.791 149.611 153.356 148.932 152.794 148.352C152.251 147.754 151.607 147.292 150.864 146.966C150.121 146.639 149.315 146.476 148.445 146.476C147.575 146.476 146.769 146.639 146.026 146.966C145.283 147.292 144.63 147.754 144.069 148.352C143.507 148.932 143.072 149.611 142.764 150.391C142.456 151.17 142.302 152.013 142.302 152.919ZM180.508 163.71L165.341 150.01L166.509 150.662L166.591 162.895H162.595V142.1H162.758L177.6 155.746L176.73 155.365L176.648 142.888H180.617V163.71H180.508ZM3.66766 169.465H21.4363V174.873H9.26866V181.323H19.814V186.731H9.26866V197.895H3.66766V169.465ZM26.8291 169.465H46.2201V174.873H32.4301V180.937H44.6364V186.345H32.4301V192.487H46.7609V197.895H26.8291V169.465ZM67.7363 176.34C66.6547 175.748 65.5474 175.259 64.4143 174.873C63.307 174.486 62.264 174.293 61.2855 174.293C60.0751 174.293 59.1223 174.538 58.427 175.027C57.7317 175.516 57.3841 176.25 57.3841 177.229C57.3841 177.898 57.6416 178.504 58.1566 179.044C58.6974 179.559 59.3798 180.023 60.2039 180.435C61.0537 180.847 61.9293 181.22 62.8306 181.555C63.6546 181.864 64.4658 182.238 65.2641 182.675C66.0882 183.087 66.8221 183.615 67.4659 184.259C68.1097 184.877 68.6247 185.662 69.011 186.615C69.3972 187.542 69.5904 188.688 69.5904 190.053C69.5904 191.495 69.217 192.834 68.4702 194.07C67.7234 195.306 66.6289 196.311 65.1868 197.083C63.7448 197.83 61.9679 198.204 59.8562 198.204C58.7747 198.204 57.6674 198.101 56.5343 197.895C55.427 197.663 54.3325 197.328 53.2509 196.89C52.1694 196.427 51.1264 195.847 50.1221 195.152L52.5943 190.787C53.2638 191.276 53.9849 191.714 54.7574 192.1C55.5557 192.461 56.354 192.744 57.1523 192.95C57.9506 193.156 58.6845 193.259 59.3541 193.259C60.0236 193.259 60.6932 193.169 61.3627 192.989C62.058 192.783 62.6246 192.448 63.0623 191.985C63.5259 191.521 63.7576 190.877 63.7576 190.053C63.7576 189.487 63.5645 188.972 63.1782 188.508C62.8177 188.045 62.3155 187.62 61.6717 187.233C61.0537 186.847 60.3713 186.512 59.6245 186.229C58.7489 185.894 57.8476 185.508 56.9206 185.07C55.9935 184.632 55.1179 184.105 54.2939 183.486C53.4956 182.843 52.8389 182.057 52.3239 181.13C51.8346 180.177 51.59 179.019 51.59 177.654C51.59 176.006 51.9505 174.576 52.6715 173.366C53.4183 172.156 54.4613 171.203 55.8004 170.508C57.1394 169.787 58.6845 169.387 60.4357 169.31C62.7276 169.31 64.5817 169.581 65.998 170.121C67.4401 170.662 68.7277 171.306 69.8608 172.053L67.7363 176.34ZM73.1444 169.465H92.3037V174.873H85.3893V197.895H79.7883V174.873H73.1444V169.465ZM97.7091 169.465H103.31V197.895H97.7091V169.465ZM114.935 169.465L123.24 189.937L119.996 189.281L127.528 169.465H134.172L121.193 199.208L108.214 169.465H114.935ZM131.999 197.895L144.823 168.344H145.132L157.957 197.895H151.467L143.278 177.113L147.334 174.332L137.523 197.895H131.999ZM140.767 187.62H149.304L151.274 192.332H139.029L140.767 187.62ZM162.101 169.465H167.702V192.487H181.067V197.895H162.101V169.465Z" fill="black" style="fill:black;fill-opacity:1;"/>
</svg>
