<svg width="1062" height="773" viewBox="0 0 1062 773" fill="none" xmlns="http://www.w3.org/2000/svg">
<g filter="url(#filter0_d_775_1913)">
<rect x="331.293" y="0.253418" width="399" height="401.66" rx="199.5" fill="white" style="fill:white;fill-opacity:1;"/>
</g>
<g filter="url(#filter1_i_775_1913)">
<path d="M491.872 93.354H426.837C424.031 93.354 421.73 96.0339 421.73 99.3468V175.86C421.73 181.199 427.217 183.879 430.424 180.101L495.48 103.588C498.688 99.811 496.409 93.354 491.872 93.354Z" fill="#FF4E00" style="fill:#FF4E00;fill:color(display-p3 1.0000 0.3061 0.0000);fill-opacity:1;"/>
<path d="M446.928 184.553L423.505 210.634C422.387 211.753 421.754 213.272 421.754 214.834V302.277C421.754 305.569 424.434 308.228 427.726 308.228H539.247C544.037 308.228 546.379 302.425 542.919 299.112L455.284 184.469C452.942 182.232 449.228 182.253 446.928 184.553Z" fill="#FF4E00" style="fill:#FF4E00;fill:color(display-p3 1.0000 0.3061 0.0000);fill-opacity:1;"/>
<path d="M492.495 129.942L522.733 96.2435C524.231 94.5765 526.32 93.627 528.473 93.627H536.027C540.437 93.627 544.024 97.4674 544.024 102.215V244.776C544.024 252.499 535.267 256.297 530.287 250.726L492.495 203.29C491.06 201.687 490.258 199.555 490.258 197.34V135.914C490.258 133.698 491.06 131.546 492.495 129.942Z" fill="#5DD31B" style="fill:#5DD31B;fill:color(display-p3 0.3647 0.8275 0.1059);fill-opacity:1;"/>
<path d="M633.678 95.1675H570.31C566.499 95.1675 563.41 98.2568 563.41 102.068V130.681C563.41 134.492 566.499 137.581 570.31 137.581H633.678C637.489 137.581 640.578 134.492 640.578 130.681V102.068C640.578 98.2568 637.489 95.1675 633.678 95.1675Z" fill="#28C5E6" style="fill:#28C5E6;fill:color(display-p3 0.1569 0.7725 0.9020);fill-opacity:1;"/>
<path d="M617.176 299.598V221.671C617.176 216.904 613.312 213.041 608.545 213.041H572.04C567.273 213.041 563.409 216.904 563.409 221.671V299.598C563.409 304.364 567.273 308.228 572.04 308.228H608.545C613.312 308.228 617.176 304.364 617.176 299.598Z" fill="#28C5E6" style="fill:#28C5E6;fill:color(display-p3 0.1569 0.7725 0.9020);fill-opacity:1;"/>
<path d="M611.184 154.166H569.403C566.093 154.166 563.41 156.849 563.41 160.158V190.586C563.41 193.896 566.093 196.579 569.403 196.579H611.184C614.494 196.579 617.177 193.896 617.177 190.586V160.158C617.177 156.849 614.494 154.166 611.184 154.166Z" fill="#28C5E6" style="fill:#28C5E6;fill:color(display-p3 0.1569 0.7725 0.9020);fill-opacity:1;"/>
</g>
<path d="M23.5626 495.371C23.5126 495.021 23.6426 494.651 23.5626 494.371L25.5626 492.371C25.9726 492.741 27.8126 493.881 28.5626 494.371C32.0226 498.581 27.3026 509.351 33.5626 511.371C33.6726 511.681 33.4426 512.111 33.5626 512.371L34.5626 513.371C34.7026 513.611 35.2526 514.001 35.5626 514.371C35.7126 514.551 35.2026 515.881 35.6626 516.231C37.5626 517.651 46.5226 517.341 49.2126 515.981C49.5726 515.801 54.4826 510.451 54.6726 509.991C56.5126 505.521 54.7426 500.961 55.5826 497.071C55.6326 496.841 57.8026 494.411 58.5626 493.371C62.2326 488.331 67.5926 484.071 68.5626 477.371C84.4826 481.651 86.3626 506.621 77.9726 518.281C65.6626 535.411 41.9526 536.141 29.1226 519.301C21.5126 509.311 25.0426 505.641 23.5526 495.371H23.5626ZM74.5626 502.371C77.0326 499.871 67.0226 489.901 64.5726 492.381C62.1226 494.861 72.1126 504.851 74.5626 502.371Z" fill="#F7E17F" style="fill:#F7E17F;fill:color(display-p3 0.9686 0.8824 0.4980);fill-opacity:1;"/>
<path d="M68.5618 477.371C67.5918 484.071 62.2318 488.331 58.5618 493.371C51.5518 493.891 55.5218 501.361 54.5118 506.821C52.9118 515.471 42.6218 516.851 35.5618 514.371C35.2518 514.001 34.7018 513.611 34.5618 513.371C34.3218 512.961 33.7018 512.661 33.5618 512.371C33.4418 512.111 33.6718 511.681 33.5618 511.371C33.0118 509.851 31.8618 508.691 31.6218 506.821C31.2118 503.561 32.2618 498.651 31.4218 495.991C30.8318 494.151 29.1518 494.761 28.5618 494.371C27.8118 493.881 25.9718 492.741 25.5618 492.371C17.4418 484.981 14.5818 473.751 18.0918 463.401C27.7418 434.971 73.5018 443.111 68.5618 477.371ZM27.5618 486.371C29.3818 488.241 31.6318 490.571 34.2718 491.161C37.0518 491.791 49.1218 491.811 51.8218 491.131C58.3818 489.461 63.2318 479.651 63.5618 473.371C64.8118 449.501 33.2818 443.031 23.8318 463.141C19.9818 471.321 21.2218 479.861 27.5618 486.371ZM49.5618 496.371C49.0718 495.871 37.6818 496.741 35.5618 496.371C32.8218 501.781 48.9818 500.971 49.5618 500.371C49.7018 500.231 49.6918 496.521 49.5618 496.371ZM49.5618 504.371H35.5618C36.7718 513.301 49.4018 514.211 49.5618 504.371Z" fill="#191D63" style="fill:#191D63;fill:color(display-p3 0.0980 0.1137 0.3882);fill-opacity:1;"/>
<path d="M74.5618 440.381C77.1618 443.071 67.3218 455.781 64.0018 449.381C62.7518 446.971 70.7818 438.401 74.5618 440.381Z" fill="#1A216C" style="fill:#1A216C;fill:color(display-p3 0.1020 0.1294 0.4235);fill-opacity:1;"/>
<path d="M14.1102 445.801C13.8802 445.461 12.7702 445.461 12.5902 444.661C10.9502 437.511 16.9602 439.841 20.5302 443.911C27.0202 451.311 19.9402 454.471 14.1102 445.801Z" fill="#1A216C" style="fill:#1A216C;fill:color(display-p3 0.1020 0.1294 0.4235);fill-opacity:1;"/>
<path d="M45.431 428.521C46.621 429.251 48.821 443.171 42.201 441.421C39.651 440.751 39.121 424.621 45.431 428.521Z" fill="#191D63" style="fill:#191D63;fill:color(display-p3 0.0980 0.1137 0.3882);fill-opacity:1;"/>
<path d="M0.66155 469.471C1.90155 467.591 15.2315 467.421 13.5515 472.871C12.6715 475.721 -3.41845 475.621 0.66155 469.471Z" fill="#191D63" style="fill:#191D63;fill:color(display-p3 0.0980 0.1137 0.3882);fill-opacity:1;"/>
<path d="M23.5619 494.371C23.6419 494.651 23.5119 495.021 23.5619 495.371C21.4019 498.941 11.5819 508.591 12.4619 498.861C12.5519 497.851 20.2219 491.381 21.0919 491.471C21.2919 491.491 23.4819 494.091 23.5719 494.371H23.5619Z" fill="#1A216C" style="fill:#1A216C;fill:color(display-p3 0.1020 0.1294 0.4235);fill-opacity:1;"/>
<path d="M86.5098 469.431C87.2098 470.281 86.6698 473.671 84.9198 474.231C83.1698 474.791 74.2198 474.931 73.5698 472.861C71.8998 467.561 85.2798 467.921 86.5098 469.421V469.431Z" fill="#191D63" style="fill:#191D63;fill:color(display-p3 0.0980 0.1137 0.3882);fill-opacity:1;"/>
<path d="M74.5624 502.371C72.1124 504.851 62.1024 494.881 64.5724 492.381C67.0424 489.881 77.0324 499.871 74.5624 502.371Z" fill="#2B2E41" style="fill:#2B2E41;fill:color(display-p3 0.1686 0.1804 0.2549);fill-opacity:1;"/>
<path d="M33.5625 511.371C27.3025 509.351 32.0225 498.581 28.5625 494.371C29.1525 494.761 30.8325 494.151 31.4225 495.991C32.2725 498.651 31.2225 503.561 31.6225 506.821C31.8525 508.691 33.0025 509.851 33.5625 511.371Z" fill="#B2B6B7" style="fill:#B2B6B7;fill:color(display-p3 0.6980 0.7137 0.7176);fill-opacity:1;"/>
<path d="M58.5619 493.371C57.8019 494.411 55.6319 496.841 55.5819 497.071C54.7319 500.961 56.5019 505.521 54.6719 509.991C54.4819 510.441 49.5719 515.801 49.2119 515.981C46.5219 517.341 37.5719 517.651 35.6619 516.231C35.2019 515.881 35.7119 514.551 35.5619 514.371C42.6219 516.861 52.9219 515.471 54.5119 506.821C55.5219 501.361 51.5519 493.891 58.5619 493.371Z" fill="#B2B6B7" style="fill:#B2B6B7;fill:color(display-p3 0.6980 0.7137 0.7176);fill-opacity:1;"/>
<path d="M34.5625 513.371L33.5625 512.371C33.7025 512.661 34.3225 512.961 34.5625 513.371Z" fill="#B2B6B7" style="fill:#B2B6B7;fill:color(display-p3 0.6980 0.7137 0.7176);fill-opacity:1;"/>
<path d="M63.562 473.371C49.252 469.581 35.532 474.011 27.562 486.371C21.222 479.861 19.982 471.321 23.832 463.141C33.282 443.031 64.812 449.501 63.562 473.371ZM44.422 455.501C43.182 454.711 37.982 456.051 36.362 456.681C29.292 459.431 25.282 466.971 26.562 474.381C32.442 475.771 30.372 470.721 32.352 466.661C35.572 460.041 43.892 461.011 45.132 459.411C45.802 458.551 44.782 455.731 44.422 455.501Z" fill="#F3F5F8" style="fill:#F3F5F8;fill:color(display-p3 0.9529 0.9608 0.9725);fill-opacity:1;"/>
<path d="M63.5625 473.371C63.2325 479.651 58.3825 489.451 51.8225 491.131C49.1325 491.821 37.0625 491.791 34.2725 491.161C31.6325 490.571 29.3825 488.241 27.5625 486.371C35.5325 474.011 49.2525 469.581 63.5625 473.371Z" fill="#F7E17F" style="fill:#F7E17F;fill:color(display-p3 0.9686 0.8824 0.4980);fill-opacity:1;"/>
<path d="M49.5625 504.371C49.4025 514.211 36.7725 513.301 35.5625 504.371H49.5625Z" fill="#F7E17F" style="fill:#F7E17F;fill:color(display-p3 0.9686 0.8824 0.4980);fill-opacity:1;"/>
<path d="M49.5626 496.371C49.7026 496.511 49.7026 500.221 49.5626 500.371C48.9826 500.981 32.8226 501.781 35.5626 496.371C37.6826 496.741 49.0726 495.871 49.5626 496.371Z" fill="#F7E17F" style="fill:#F7E17F;fill:color(display-p3 0.9686 0.8824 0.4980);fill-opacity:1;"/>
<path d="M44.4235 455.501C44.7835 455.731 45.8035 458.551 45.1335 459.411C43.8835 461.011 35.5735 460.041 32.3535 466.661C30.3835 470.721 32.4535 475.761 26.5635 474.381C25.2735 466.971 29.2935 459.421 36.3635 456.681C37.9835 456.051 43.1835 454.711 44.4235 455.501Z" fill="#1A216C" style="fill:#1A216C;fill:color(display-p3 0.1020 0.1294 0.4235);fill-opacity:1;"/>
<path d="M821.991 701.575C822.204 712.885 831.881 711.269 826.917 700.722C848.697 699.019 862.825 718.595 856.473 739.283C850.995 757.11 828.087 764.833 812.467 754.984C807.317 751.736 803.141 743.447 798.576 742.167L805.483 740.971L804.628 736.034C803.031 736.423 801.258 736.446 799.691 736.89L798.155 728.022C805.847 726.08 802.542 724.988 799.916 720.612C802.997 713.553 807.385 706.135 814.865 703.033C817.157 702.088 819.629 702.116 821.989 701.565L821.991 701.575ZM830.509 722.275C832.101 720.863 830.496 711.651 826.629 713.001C822.448 714.466 825.67 726.564 830.509 722.275ZM821.502 728.047L823.977 742.334C824.337 744.413 838.556 742.072 839.404 740.23C840.158 738.608 837.789 725.226 835.789 725.572L821.502 728.047ZM811.267 735.108C806.49 737.468 809.582 741.083 815.867 739.223C822.152 737.363 818.121 731.728 811.267 735.108Z" fill="#A6E8F8" style="fill:#A6E8F8;fill:color(display-p3 0.6510 0.9098 0.9725);fill-opacity:1;"/>
<path d="M826.918 700.722C831.881 711.269 822.205 712.885 821.991 701.575C824.623 700.947 824.044 700.946 826.918 700.722Z" fill="#1A216C" style="fill:#1A216C;fill:color(display-p3 0.1020 0.1294 0.4235);fill-opacity:1;"/>
<path d="M799.692 736.899C801.259 736.455 803.031 736.433 804.628 736.044L805.483 740.981L798.576 742.177C798.214 742.078 797.104 742.757 796.726 742.396C793.992 739.795 797.334 737.582 799.693 736.909L799.692 736.899Z" fill="#1A216C" style="fill:#1A216C;fill:color(display-p3 0.1020 0.1294 0.4235);fill-opacity:1;"/>
<path d="M821.504 728.047L835.791 725.572C837.791 725.225 840.172 738.616 839.406 740.23C838.546 742.064 824.337 744.403 823.979 742.334L821.504 728.047ZM833.033 730.099L827.112 731.125L828.308 738.032L834.23 737.006L833.033 730.099Z" fill="#1A216C" style="fill:#1A216C;fill:color(display-p3 0.1020 0.1294 0.4235);fill-opacity:1;"/>
<path d="M830.51 722.275C825.671 726.564 822.439 714.468 826.63 713.001C830.507 711.65 832.103 720.863 830.51 722.275Z" fill="#1A216C" style="fill:#1A216C;fill:color(display-p3 0.1020 0.1294 0.4235);fill-opacity:1;"/>
<path d="M811.265 735.107C818.119 731.728 822.314 737.314 815.865 739.223C809.417 741.131 806.477 737.459 811.265 735.107Z" fill="#1A216C" style="fill:#1A216C;fill:color(display-p3 0.1020 0.1294 0.4235);fill-opacity:1;"/>
<path d="M833.023 730.101L827.102 731.127L828.298 738.034L834.22 737.008L833.023 730.101Z" fill="#A6E8F8" style="fill:#A6E8F8;fill:color(display-p3 0.6510 0.9098 0.9725);fill-opacity:1;"/>
<path d="M798.158 728.032C795.551 728.686 782.758 731.115 781.297 730.475C777.286 728.704 783.201 723.711 783.083 723.031L778.56 696.92C775.974 697.459 773.072 697.465 770.682 698.721C768.291 699.978 768.649 703.275 765.887 704.027C764.723 704.341 762.608 704.372 762.417 703.269L759.686 687.503C759.667 687.395 760.799 685.788 760.908 685.769L807.218 677.747C807.326 677.728 808.933 678.861 808.952 678.969L811.683 694.734C812.518 699.553 803.319 693.382 802.354 693.255C799.622 692.896 796.978 693.801 794.335 694.187C796.643 701.886 796.015 714.083 799.929 720.62C802.554 724.997 805.859 726.089 798.168 728.03L798.158 728.032ZM804.613 683.273C802.998 682.091 770.353 689.208 765.2 690.1C765.003 690.134 765.686 694.076 765.883 694.042L782.633 691.14L788.436 724.641L794.348 723.617L788.801 691.594C788.782 691.485 789.915 689.879 790.023 689.86L805.296 687.214C805.493 687.18 804.775 683.387 804.613 683.273Z" fill="#1A216C" style="fill:#1A216C;fill:color(display-p3 0.1020 0.1294 0.4235);fill-opacity:1;"/>
<path d="M824.976 654.373L827.622 669.645C827.924 671.389 822.389 672.246 820.982 672.328C823.978 674.742 824.34 677.998 824.506 681.714C822.784 683.078 820.922 683.401 818.851 682.694C816.021 679.541 819.161 673.648 819.076 673.155C818.69 670.929 815.365 673.585 813.789 673.452C809.122 673.053 808.843 660.953 809.211 657.104L824.976 654.373ZM814.98 661.169L816.006 667.09L821.927 666.065L820.902 660.143L814.98 661.169Z" fill="#1A216C" style="fill:#1A216C;fill:color(display-p3 0.1020 0.1294 0.4235);fill-opacity:1;"/>
<path d="M752.799 756.187C750.753 755.922 748.537 743.539 748.665 741.345C748.754 739.695 753.844 738.672 755.316 738.498C746.576 731.162 758.055 720.618 758.569 733.428C758.724 737.197 757.288 735.761 756.302 738.327C767.711 733.945 767.035 745.805 767.088 753.722C763.212 753.673 756.111 756.618 752.8 756.197L752.799 756.187ZM759.987 742.905C758.766 742.417 755.789 743.744 754.187 743.758L755.384 750.665C761.543 752.297 763.9 744.46 759.987 742.905Z" fill="#1A216C" style="fill:#1A216C;fill:color(display-p3 0.1020 0.1294 0.4235);fill-opacity:1;"/>
<path d="M752.064 667.003C753.609 672.115 754.83 677.231 754.595 682.61C754.067 683.838 740.029 686.057 739.501 685.468C738.486 683.3 735.449 669.871 737.785 669.467L752.072 666.992L752.064 667.003ZM747.989 672.773L742.067 673.799C742.531 679.351 743.284 681.525 749.175 679.682L747.979 672.775L747.989 672.773Z" fill="#1A216C" style="fill:#1A216C;fill:color(display-p3 0.1020 0.1294 0.4235);fill-opacity:1;"/>
<path d="M749.492 701.072C754.233 698.911 755.184 710.438 753.129 711.464C748.381 713.819 745.148 703.063 749.492 701.072Z" fill="#1A216C" style="fill:#1A216C;fill:color(display-p3 0.1020 0.1294 0.4235);fill-opacity:1;"/>
<path d="M747.403 698.156C746.053 697.568 742.282 686.936 748.988 687.915C752.633 688.451 753.229 700.679 747.403 698.156Z" fill="#1A216C" style="fill:#1A216C;fill:color(display-p3 0.1020 0.1294 0.4235);fill-opacity:1;"/>
<path d="M779.74 745.329C779.152 746.679 768.519 750.449 769.499 743.744C770.035 740.099 782.262 739.503 779.74 745.329Z" fill="#1A216C" style="fill:#1A216C;fill:color(display-p3 0.1020 0.1294 0.4235);fill-opacity:1;"/>
<path d="M766.799 670.632C771.142 675.258 759.419 678.822 757.688 675.569C754.51 669.584 765.791 669.558 766.799 670.632Z" fill="#1A216C" style="fill:#1A216C;fill:color(display-p3 0.1020 0.1294 0.4235);fill-opacity:1;"/>
<path d="M796.555 665.477C797.143 664.126 807.775 660.356 806.795 667.062C806.26 670.707 794.032 671.303 796.555 665.477Z" fill="#1A216C" style="fill:#1A216C;fill:color(display-p3 0.1020 0.1294 0.4235);fill-opacity:1;"/>
<path d="M783.621 739.846C791.669 735.682 796.131 742.987 789.421 744.85C783.746 746.422 779.915 741.767 783.621 739.846Z" fill="#1A216C" style="fill:#1A216C;fill:color(display-p3 0.1020 0.1294 0.4235);fill-opacity:1;"/>
<path d="M752.01 724.75C750.581 724.114 747.274 713.463 753.573 714.553C757.371 715.215 757.725 727.271 752.01 724.75Z" fill="#1A216C" style="fill:#1A216C;fill:color(display-p3 0.1020 0.1294 0.4235);fill-opacity:1;"/>
<path d="M820.941 686.544C825.454 684.301 828.534 694.17 825.448 695.81C819.678 698.88 818.753 687.623 820.941 686.544Z" fill="#1A216C" style="fill:#1A216C;fill:color(display-p3 0.1020 0.1294 0.4235);fill-opacity:1;"/>
<path d="M772.364 668.774C779.791 665.072 783.457 671.998 777.146 673.883C769.859 676.049 767.965 670.977 772.364 668.774Z" fill="#1A216C" style="fill:#1A216C;fill:color(display-p3 0.1020 0.1294 0.4235);fill-opacity:1;"/>
<path d="M783.748 667.696C784.748 665.442 794.69 664.481 794.071 669.348C793.647 672.699 781.113 673.633 783.748 667.696Z" fill="#1A216C" style="fill:#1A216C;fill:color(display-p3 0.1020 0.1294 0.4235);fill-opacity:1;"/>
<path d="M804.611 683.273C804.773 683.387 805.491 687.18 805.294 687.214L790.022 689.86C789.913 689.878 788.781 691.485 788.8 691.594L794.347 723.617L788.435 724.641L782.632 691.14L765.881 694.041C765.684 694.076 765.001 690.134 765.198 690.1C770.352 689.207 802.996 682.091 804.611 683.273Z" fill="#F3F5F8" style="fill:#F3F5F8;fill:color(display-p3 0.9529 0.9608 0.9725);fill-opacity:1;"/>
<path d="M820.902 660.143L814.98 661.169L816.006 667.091L821.928 666.065L820.902 660.143Z" fill="#F3F5F8" style="fill:#F3F5F8;fill:color(display-p3 0.9529 0.9608 0.9725);fill-opacity:1;"/>
<path d="M759.983 742.905C763.906 744.458 761.549 752.295 755.38 750.664L754.184 743.757C755.785 743.744 758.752 742.418 759.983 742.905Z" fill="#DBD5F8" style="fill:#DBD5F8;fill:color(display-p3 0.8588 0.8353 0.9725);fill-opacity:1;"/>
<path d="M747.99 672.773L749.187 679.68C743.285 681.525 742.533 679.351 742.068 673.799L747.99 672.773Z" fill="#DBD5F8" style="fill:#DBD5F8;fill:color(display-p3 0.8588 0.8353 0.9725);fill-opacity:1;"/>
<path d="M226.041 654.536C245.631 645.474 269.419 663.025 266.572 684.41C262.772 712.958 229.119 721.215 212.3 698.618C214.855 691.714 220.014 687.694 222.313 680.929L215.111 662.381L220.515 656.398C221.938 659.207 229.391 672.907 229.382 674.635C229.375 676.957 223.757 681.02 226.551 687.384C233.603 703.433 256.728 684.345 241.753 674.281C238.426 672.038 234.348 673.131 233.56 672.427C232.842 671.778 227.141 657.039 226.041 654.536Z" fill="#B2F6DB" style="fill:#B2F6DB;fill:color(display-p3 0.6980 0.9647 0.8588);fill-opacity:1;"/>
<path d="M226.042 654.536C227.143 657.039 232.834 671.776 233.562 672.427C234.349 673.131 238.427 672.038 241.755 674.281C256.73 684.345 233.603 703.443 226.552 687.384C223.758 681.02 229.377 676.957 229.383 674.635C229.393 672.907 221.939 659.207 220.516 656.398C219.424 654.234 215.91 645.123 214.959 644.372C214.141 643.712 208.251 643.774 206.389 642.179L181.138 663.873C183.657 673.791 176.273 682.176 166.153 678.232C156.994 674.661 159.273 658.495 169.944 658.097C172.649 657.992 175.089 659.192 177.263 659.033C178.907 658.911 201.5 639.779 202.539 638.071C203.719 636.139 202.077 634.377 202.236 632.344C203.371 617.893 227.108 621.224 223.036 635.995C222.335 638.544 219.955 640.439 219.894 641.234C219.805 642.433 225.028 652.246 226.032 654.534L226.042 654.536ZM218.151 634.506C218.793 631.576 216.938 628.682 214.008 628.041C211.077 627.4 208.184 629.254 207.542 632.185C206.901 635.115 208.756 638.009 211.686 638.65C214.617 639.291 217.51 637.437 218.151 634.506ZM176.3 669.847C176.945 666.897 175.073 663.989 172.133 663.346C169.192 662.702 166.275 664.572 165.632 667.512C164.989 670.453 166.858 673.37 169.799 674.013C172.739 674.657 175.656 672.787 176.3 669.847ZM241.543 684.042C242.191 681.082 240.321 678.164 237.361 677.517C234.401 676.869 231.484 678.739 230.837 681.699C230.189 684.659 232.059 687.576 235.019 688.223C237.979 688.871 240.896 687.001 241.543 684.042Z" fill="#1A216C" style="fill:#1A216C;fill:color(display-p3 0.1020 0.1294 0.4235);fill-opacity:1;"/>
<path d="M212.301 698.618C211.584 700.539 210.839 709.558 208.484 709.043L185.039 703.912C182.88 703.44 186.116 692.581 186.149 689.763C186.194 685.678 182.097 674.831 183.84 671.968C188.992 669.195 202.677 653.764 206.994 652.886C208.719 652.537 209.831 653.159 211.041 654.273C211.606 657.396 214.016 660.043 215.114 662.371L222.316 680.919C220.014 687.694 214.856 691.714 212.303 698.608L212.301 698.618ZM208.212 675.202C207.982 676.114 206.744 681.678 206.715 682.04C201.84 685.611 195.572 679.868 198.41 675.084C199.208 673.734 201.06 673.126 201.877 671.216C202.797 669.073 203.431 665.24 203.244 662.865C200.713 665.075 189.899 672.393 189.117 674.75C188.794 675.713 190.489 687.334 190.968 688.186C191.773 689.652 192.969 689.003 193.842 689.46C197.822 691.529 202.661 692.946 207.304 693.43C207.935 693.496 208.537 693.925 209.207 693.764C209.775 693.039 209.553 691.342 209.9 690.927C211.771 688.644 216.922 683.813 217.273 680.809C217.453 679.282 212.732 671.012 211.672 668.794C210.717 666.793 210.472 664.406 208.843 663.056C208.717 666.673 204.933 672.223 208.222 675.204L208.212 675.202ZM207.417 697.549L190.809 693.915L189.527 699.776L206.134 703.41L207.417 697.549Z" fill="#1A216C" style="fill:#1A216C;fill:color(display-p3 0.1020 0.1294 0.4235);fill-opacity:1;"/>
<path d="M235.018 688.223C237.975 688.87 240.896 686.998 241.543 684.041C242.19 681.085 240.318 678.164 237.361 677.517C234.405 676.87 231.483 678.742 230.836 681.699C230.189 684.655 232.062 687.576 235.018 688.223Z" fill="#B2F6DB" style="fill:#B2F6DB;fill:color(display-p3 0.6980 0.9647 0.8588);fill-opacity:1;"/>
<path d="M169.8 674.013C172.746 674.658 175.657 672.793 176.301 669.847C176.946 666.901 175.08 663.99 172.135 663.346C169.189 662.701 166.278 664.567 165.634 667.513C164.989 670.458 166.855 673.369 169.8 674.013Z" fill="#F3F5F8" style="fill:#F3F5F8;fill:color(display-p3 0.9529 0.9608 0.9725);fill-opacity:1;"/>
<path d="M211.686 638.65C214.616 639.291 217.51 637.436 218.151 634.506C218.792 631.577 216.937 628.682 214.008 628.041C211.078 627.4 208.183 629.255 207.542 632.185C206.901 635.114 208.757 638.009 211.686 638.65Z" fill="#F3F5F8" style="fill:#F3F5F8;fill:color(display-p3 0.9529 0.9608 0.9725);fill-opacity:1;"/>
<path d="M206.717 682.04C206.552 684.103 208.157 689.306 209.891 690.924C209.542 691.349 209.767 693.036 209.199 693.762C208.531 693.912 207.929 693.484 207.296 693.427C204.043 690.423 198.036 690.93 193.834 689.458C192.969 689.013 191.765 689.65 190.959 688.184C190.492 687.324 188.797 675.703 189.109 674.748C189.891 672.39 200.705 665.073 203.236 662.863C203.423 665.238 202.788 669.071 201.869 671.214C201.05 673.133 199.209 673.733 198.402 675.082C195.576 679.858 201.831 685.608 206.707 682.038L206.717 682.04Z" fill="#F3F5F8" style="fill:#F3F5F8;fill:color(display-p3 0.9529 0.9608 0.9725);fill-opacity:1;"/>
<path d="M209.891 690.924C208.157 689.306 206.552 684.103 206.717 682.04C206.745 681.678 207.983 676.114 208.213 675.202C208.807 672.814 209.473 670.145 211.663 668.791C212.714 671.007 217.435 679.278 217.264 680.807C216.912 683.821 211.772 688.644 209.891 690.924Z" fill="#B2F6DB" style="fill:#B2F6DB;fill:color(display-p3 0.6980 0.9647 0.8588);fill-opacity:1;"/>
<path d="M207.416 697.549L190.809 693.915L189.526 699.776L206.133 703.41L207.416 697.549Z" fill="#F3F5F8" style="fill:#F3F5F8;fill:color(display-p3 0.9529 0.9608 0.9725);fill-opacity:1;"/>
<path d="M211.661 668.792C209.472 670.145 208.806 672.814 208.211 675.202C204.923 672.22 208.706 666.671 208.832 663.054C210.462 664.404 210.707 666.791 211.661 668.792Z" fill="#DBD5F8" style="fill:#DBD5F8;fill:color(display-p3 0.8588 0.8353 0.9725);fill-opacity:1;"/>
<path d="M207.295 693.428C202.651 692.944 197.812 691.527 193.832 689.458C198.034 690.93 204.042 690.423 207.295 693.428Z" fill="#B2F6DB" style="fill:#B2F6DB;fill:color(display-p3 0.6980 0.9647 0.8588);fill-opacity:1;"/>
<path d="M455.317 522.746C457.107 518.376 459.587 514.286 462.247 510.386C461.867 508.206 448.347 497.886 446.767 494.716C446.327 493.836 446.457 493.576 446.697 492.716C447.137 491.096 461.077 476.916 463.297 475.226C465.517 473.536 467.207 471.806 470.027 474.046L483.837 488.746C485.687 489.226 489.877 483.146 491.317 481.746C493.347 479.776 500.567 472.316 502.617 472.856C503.987 473.216 522.237 491.506 522.867 492.776C524.687 496.436 509.667 507.826 507.337 511.246C509.947 514.946 523.697 525.426 523.187 529.016C523.037 530.066 522.057 531.436 521.327 532.266C516.177 534.296 506.597 548.596 502.617 549.646C501.227 550.016 500.787 549.486 499.777 548.816C497.247 547.116 485.887 533.776 484.827 533.776C482.697 538.286 451.777 548.216 449.957 547.686C448.867 547.376 448.377 546.336 448.297 545.256C448.197 543.996 454.297 525.296 455.337 522.756L455.317 522.746ZM465.317 487.746C465.337 484.636 467.257 485.846 468.377 484.346C470.077 482.086 469.357 478.196 466.837 478.756C465.797 478.986 452.207 493.066 452.387 494.116C454.557 496.116 464.927 507.996 466.677 507.676L481.307 493.236L478.827 490.756C476.217 495.176 467.877 498.866 472.267 491.206C473.437 489.166 475.177 489.946 475.317 485.756C475.437 482.206 472.877 482.936 473.317 485.756C472.967 485.776 472.587 485.686 472.317 485.756C469.867 486.426 468.107 488.306 465.317 487.756V487.746ZM463.747 516.756L479.317 532.336L517.427 494.246L501.857 478.666L463.747 516.756ZM505.317 517.726C505.987 516.846 504.387 514.396 502.837 514.746C501.377 515.076 490.737 527.486 488.397 529.376C488.147 530.796 499.507 541.856 501.827 542.776C503.327 542.776 516.377 529.846 516.377 528.236C516.377 526.626 514.347 524.996 513.347 525.746C512.447 526.416 511.317 532.546 506.337 530.736C504.367 527.476 512.277 522.696 510.327 520.746C508.377 518.796 502.847 527.136 500.337 524.736C497.527 522.046 505.047 518.086 505.327 517.726H505.317ZM474.317 534.736C472.607 532.676 462.547 520.826 460.327 522.746C460.007 523.026 458.337 530.646 458.447 531.066C458.557 531.486 463.977 537.076 464.337 537.306C466.067 538.416 471.977 534.636 474.317 534.736Z" fill="#191D63" style="fill:#191D63;fill:color(display-p3 0.0980 0.1137 0.3882);fill-opacity:1;"/>
<path d="M491.317 481.746C489.867 483.146 485.677 489.226 483.837 488.746L470.027 474.046C467.207 471.806 465.607 473.466 463.297 475.226C460.987 476.986 447.137 491.096 446.697 492.716C446.467 493.576 446.327 493.826 446.767 494.716C448.347 497.886 461.867 508.196 462.247 510.386C459.587 514.286 457.107 518.376 455.317 522.746C434.767 517.016 427.317 491.166 440.807 474.736C455.077 457.366 482.167 461.776 491.317 481.746Z" fill="#F7E17F" style="fill:#F7E17F;fill:color(display-p3 0.9686 0.8824 0.4980);fill-opacity:1;"/>
<path d="M470.027 523.046C485.057 519.986 497.077 503.636 492.047 488.476L501.857 478.676L517.427 494.256L479.317 532.346L470.027 523.046Z" fill="#F3F5F8" style="fill:#F3F5F8;fill:color(display-p3 0.9529 0.9608 0.9725);fill-opacity:1;"/>
<path d="M470.026 523.046L463.746 516.766L492.046 488.476C497.066 503.646 485.056 519.986 470.026 523.046Z" fill="#F7E17F" style="fill:#F7E17F;fill:color(display-p3 0.9686 0.8824 0.4980);fill-opacity:1;"/>
<path d="M505.317 517.726C505.037 518.096 497.517 522.046 500.327 524.736C502.837 527.136 508.427 518.856 510.317 520.746C512.207 522.636 504.357 527.476 506.327 530.736C511.317 532.556 512.437 526.426 513.337 525.746C514.347 524.996 516.377 526.626 516.367 528.236C516.357 529.846 503.317 542.776 501.817 542.776C499.497 541.856 488.137 530.806 488.387 529.376C490.737 527.486 501.367 515.076 502.827 514.746C504.377 514.396 505.977 516.846 505.307 517.726H505.317Z" fill="#F3F5F8" style="fill:#F3F5F8;fill:color(display-p3 0.9529 0.9608 0.9725);fill-opacity:1;"/>
<path d="M475.318 485.746C475.178 489.936 473.438 489.166 472.268 491.196C467.878 498.856 476.228 495.176 478.828 490.746L481.308 493.226L466.678 507.666C464.928 507.976 454.558 496.096 452.388 494.106C452.208 493.066 465.798 478.976 466.838 478.746C469.368 478.196 470.078 482.086 468.378 484.336C467.248 485.836 465.338 484.626 465.318 487.736C465.278 492.966 470.408 488.226 472.318 485.736C472.588 485.666 472.968 485.756 473.318 485.736C473.978 485.696 474.658 485.766 475.318 485.736V485.746ZM463.328 491.736H458.318C457.788 495.966 459.158 497.266 463.318 496.746V491.736H463.328Z" fill="#F7E17F" style="fill:#F7E17F;fill:color(display-p3 0.9686 0.8824 0.4980);fill-opacity:1;"/>
<path d="M474.317 534.736C471.977 534.636 466.067 538.416 464.337 537.306C463.977 537.076 458.557 531.476 458.447 531.066C458.337 530.656 460.007 523.026 460.327 522.746C462.547 520.826 472.597 532.676 474.317 534.736Z" fill="#F3F5F8" style="fill:#F3F5F8;fill:color(display-p3 0.9529 0.9608 0.9725);fill-opacity:1;"/>
<path d="M472.317 485.746C470.407 488.236 465.277 492.976 465.317 487.746C468.107 488.296 469.867 486.416 472.317 485.746Z" fill="#55595A" style="fill:#55595A;fill:color(display-p3 0.3333 0.3490 0.3529);fill-opacity:1;"/>
<path d="M473.317 485.746C472.877 482.926 475.437 482.196 475.317 485.746C474.657 485.776 473.977 485.706 473.317 485.746Z" fill="#55595A" style="fill:#55595A;fill:color(display-p3 0.3333 0.3490 0.3529);fill-opacity:1;"/>
<path d="M463.326 491.736V496.746C459.156 497.266 457.786 495.966 458.316 491.746H463.326V491.736Z" fill="#2B2E41" style="fill:#2B2E41;fill:color(display-p3 0.1686 0.1804 0.2549);fill-opacity:1;"/>
<path d="M965.256 550.326C964.582 549.877 964.398 548.967 964.847 548.293C965.296 547.618 966.206 547.435 966.88 547.884C967.555 548.332 967.738 549.243 967.289 549.917C966.841 550.591 965.93 550.775 965.256 550.326Z" fill="#020100" style="fill:#020100;fill:color(display-p3 0.0078 0.0039 0.0000);fill-opacity:1;"/>
<path d="M1007.83 578.666C1007.16 578.218 1006.98 577.307 1007.43 576.633C1007.87 575.958 1008.78 575.775 1009.46 576.224C1010.13 576.672 1010.32 577.583 1009.87 578.257C1009.42 578.932 1008.51 579.115 1007.83 578.666Z" fill="#020100" style="fill:#020100;fill:color(display-p3 0.0078 0.0039 0.0000);fill-opacity:1;"/>
<path d="M1021.85 555.447C1017.95 552.466 1012.71 558.345 1011.26 561.615C1010.31 563.762 1010.02 566.918 1010.77 569.159C1012.41 574.023 1019.16 572.909 1019.23 567.945C1019.25 566.96 1018.69 566.25 1019.16 565.274C1020.18 563.14 1022.25 562.613 1023.2 560.679C1024.04 558.96 1023.35 556.588 1021.85 555.447ZM1020.14 557.772C1020.39 557.958 1020.56 558.33 1020.62 558.636C1020.87 559.941 1019.43 560.445 1018.68 561.174C1017.37 562.438 1016.14 564.001 1016.04 565.904C1015.98 567.019 1017.05 568.869 1015.32 569.36C1013.21 569.955 1013.07 566.455 1013.25 565.124C1013.6 562.595 1015.44 560.062 1017.41 558.498C1018.15 557.908 1019.18 557.067 1020.14 557.775L1020.14 557.772Z" fill="#020100" style="fill:#020100;fill:color(display-p3 0.0078 0.0039 0.0000);fill-opacity:1;"/>
<path d="M1003.73 577.521C1003.33 577.148 1002.76 577.175 1002.25 577.212C997.406 577.557 991.608 579.845 986.651 580.345C984.706 581.017 985.366 583.514 987.36 583.263C992.09 581.839 998.281 581.697 1002.85 580.155C1004.09 579.735 1004.79 578.503 1003.73 577.52L1003.73 577.521Z" fill="#020100" style="fill:#020100;fill:color(display-p3 0.0078 0.0039 0.0000);fill-opacity:1;"/>
<path d="M1002.26 569.642C1001.78 569.166 1001.39 569.218 1000.79 569.326C999.328 569.589 993.382 571.466 992.075 572.105C990.195 573.026 991.057 575.224 992.775 574.986L1001.72 572.117C1002.76 571.707 1003.08 570.439 1002.26 569.64L1002.26 569.642Z" fill="#020100" style="fill:#020100;fill:color(display-p3 0.0078 0.0039 0.0000);fill-opacity:1;"/>
<path d="M991.171 526.659L987.094 532.788C987.02 538.965 985.802 545.695 985.938 551.815C985.958 552.747 986.052 553.329 986.49 554.172L972.968 574.562C972.674 575.331 974.289 578.947 974.728 579.821C975.111 580.583 975.137 581.095 976.105 581.307C976.601 581.415 981.538 581.333 981.936 581.18C982.134 581.104 982.334 581.056 982.489 580.894L996.065 560.54C996.794 560.524 997.542 560.586 998.238 560.285L1015.55 551.716L1019.63 545.588L1023.65 548.258C1024.56 548.868 1026.44 548.025 1027.1 547.207C1028.57 545.371 1031.89 540.504 1032.88 538.466C1033.33 537.538 1033.13 536.297 1032.56 535.48C1020.77 527.188 1008.52 519.439 996.571 511.342C995.178 510.4 993.483 510.655 992.42 511.946C990.989 513.688 987.587 518.705 986.629 520.674C986.233 521.49 986.403 523.489 987.153 523.987L991.168 526.658L991.171 526.659ZM1027.88 535.63L1030.28 537.223L1024.75 545.536L989.242 521.921L994.77 513.608L997.166 515.202L995.339 517.949C994.908 518.597 996.033 519.924 996.935 519.817C997.054 519.803 997.801 519.442 997.828 519.401L999.562 516.795L1001.75 518.248C1002.46 518.726 998.443 521.529 1000.95 522.815C1001.24 522.961 1002.18 522.939 1002.29 522.777L1004.21 519.888L1006.61 521.482L1004.87 524.088C1004.07 525.301 1006.46 526.894 1007.27 525.681L1009 523.075L1011.4 524.669L1009.48 527.557C1009.37 527.718 1009.72 528.6 1009.96 528.806C1012.12 530.623 1013.15 525.83 1013.87 526.309L1016.05 527.761L1014.32 530.368C1014.29 530.409 1014.24 531.236 1014.28 531.352C1014.53 532.225 1016.19 532.749 1016.62 532.102L1018.45 529.355L1020.84 530.948L1019.01 533.696C1018.67 534.219 1019.43 535.218 1019.97 535.45C1020.36 535.614 1021.4 535.304 1021.6 535.006L1023.24 532.539L1025.49 534.039L1023.85 536.505C1023.65 536.803 1023.77 537.88 1024.07 538.173C1024.5 538.588 1025.71 538.904 1026.06 538.38L1027.88 535.633L1027.88 535.63ZM1003.86 543.635C1004.24 543.126 1004.13 541.99 1003.65 541.664L990.472 532.902L993.564 528.253L1017.24 543.997L1014.14 548.646L1009.14 545.319C1008.77 545.069 1007.65 545.524 1007.38 545.978C1007.18 546.311 1007.11 547.42 1007.41 547.62L1011.56 550.384C1011.03 550.852 1010.29 551.162 1009.65 551.482C1005.45 553.596 1001.18 555.555 996.976 557.654C994.897 556.416 992.863 555.065 990.871 553.691C990.371 553.346 988.895 552.55 988.778 552.098C989.322 547.058 989.155 541.798 989.69 536.781C989.72 536.497 989.674 536.19 989.868 535.954C990.574 536.416 991.275 536.896 991.981 537.36C995.4 539.597 998.776 541.909 1002.19 544.148C1002.65 544.341 1003.57 544.025 1003.86 543.636L1003.86 543.635ZM988.854 555.807L993.644 558.993L990.458 563.784L987.808 557.665C987.786 557.068 988.586 556.36 988.855 555.806L988.854 555.807ZM985.762 560.456C986.966 562.348 987.443 564.655 988.584 566.601L986.522 569.702L983.841 563.345L985.762 560.456ZM981.826 566.375C983.03 568.266 983.507 570.573 984.648 572.52L982.586 575.62L979.905 569.263L981.826 566.375ZM977.891 572.291L980.621 578.275C980.413 578.593 977.482 578.515 977.258 578.334C977.127 578.226 975.876 575.323 975.971 575.181L977.892 572.292L977.891 572.291Z" fill="#020100" style="fill:#020100;fill:color(display-p3 0.0078 0.0039 0.0000);fill-opacity:1;"/>
<path d="M968.217 553.903C966.933 552.791 965.732 554.087 965.816 555.618C966.073 560.302 968.437 566.174 968.902 570.985C969.383 572.911 971.93 572.575 971.881 570.631L968.682 554.674C968.603 554.4 968.431 554.086 968.218 553.902L968.217 553.903Z" fill="#020100" style="fill:#020100;fill:color(display-p3 0.0078 0.0039 0.0000);fill-opacity:1;"/>
<path d="M976.249 552.543C975.301 551.552 974.041 551.919 973.691 553.181L974.475 562.788C974.978 564.508 977.254 564.378 977.374 562.326C977.454 560.97 976.898 554.665 976.591 553.33C976.525 553.044 976.463 552.766 976.251 552.544L976.249 552.543Z" fill="#020100" style="fill:#020100;fill:color(display-p3 0.0078 0.0039 0.0000);fill-opacity:1;"/>
<path d="M1027.88 535.63L1026.05 538.377C1025.71 538.901 1024.49 538.585 1024.07 538.17C1023.76 537.876 1023.65 536.8 1023.85 536.502L1025.49 534.036L1023.23 532.536L1021.59 535.002C1021.39 535.3 1020.36 535.61 1019.97 535.446C1019.42 535.213 1018.66 534.216 1019.01 533.692L1020.84 530.945L1018.44 529.352L1016.61 532.099C1016.18 532.747 1014.53 532.222 1014.27 531.349C1014.24 531.233 1014.29 530.405 1014.31 530.364L1016.05 527.758L1013.86 526.306C1013.14 525.828 1012.11 530.62 1009.96 528.803C1009.71 528.598 1009.37 527.716 1009.47 527.554L1011.4 524.665L1009 523.072L1007.27 525.678C1006.46 526.891 1004.06 525.297 1004.87 524.085L1006.6 521.478L1004.21 519.885L1002.29 522.773C1002.18 522.934 1001.23 522.956 1000.95 522.812C998.44 521.526 1002.46 518.724 1001.74 518.245L999.558 516.792L997.825 519.398C997.798 519.439 997.052 519.801 996.931 519.814C996.03 519.921 994.905 518.593 995.335 517.946L997.162 515.199L994.767 513.605L989.238 521.918L1024.74 545.533L1030.27 537.22L1027.88 535.627L1027.88 535.63Z" fill="#F3F5F8" style="fill:#F3F5F8;fill:color(display-p3 0.9529 0.9608 0.9725);fill-opacity:1;"/>
<path d="M1003.86 543.635C1003.57 544.024 1002.65 544.341 1002.19 544.147C998.772 541.909 995.397 539.595 991.979 537.359L990.87 553.691C992.862 555.065 994.896 556.416 996.976 557.654C1001.18 555.556 1005.46 553.597 1009.65 551.482C1010.28 551.161 1011.03 550.852 1011.56 550.384L1007.41 547.62C1007.11 547.421 1007.18 546.311 1007.38 545.978L1003.86 543.635Z" fill="#F7E17F" style="fill:#F7E17F;fill:color(display-p3 0.9686 0.8824 0.4980);fill-opacity:1;"/>
<path d="M1007.38 545.977C1007.65 545.524 1008.76 545.069 1009.14 545.318L1014.14 548.645L1017.23 543.996L993.563 528.252L990.471 532.901L1003.64 541.663C1004.13 541.988 1004.24 543.125 1003.86 543.634L1007.38 545.977Z" fill="#DAD26D" style="fill:#DAD26D;fill:color(display-p3 0.8549 0.8235 0.4275);fill-opacity:1;"/>
<path d="M991.981 537.359C991.274 536.897 990.573 536.417 989.867 535.954C989.674 536.19 989.721 536.498 989.69 536.781C989.154 541.798 989.323 547.058 988.778 552.098C988.894 552.55 990.372 553.347 990.87 553.691L991.979 537.358L991.981 537.359Z" fill="#DAD26D" style="fill:#DAD26D;fill:color(display-p3 0.8549 0.8235 0.4275);fill-opacity:1;"/>
<path d="M988.854 555.806C988.586 556.361 987.786 557.067 987.807 557.665L990.458 563.784L993.644 558.994L988.853 555.808L988.854 555.806Z" fill="#F3F5F8" style="fill:#F3F5F8;fill:color(display-p3 0.9529 0.9608 0.9725);fill-opacity:1;"/>
<path d="M985.761 560.455L983.84 563.343L986.521 569.7L988.583 566.6C987.441 564.655 986.963 562.346 985.761 560.455Z" fill="#F3F5F8" style="fill:#F3F5F8;fill:color(display-p3 0.9529 0.9608 0.9725);fill-opacity:1;"/>
<path d="M981.827 566.374L979.906 569.262L982.587 575.619L984.649 572.519C983.507 570.574 983.029 568.265 981.827 566.374Z" fill="#F3F5F8" style="fill:#F3F5F8;fill:color(display-p3 0.9529 0.9608 0.9725);fill-opacity:1;"/>
<path d="M977.893 572.291L975.971 575.18C975.878 575.321 977.127 578.225 977.259 578.333C977.482 578.514 980.413 578.592 980.621 578.274L977.891 572.29L977.893 572.291Z" fill="#F3F5F8" style="fill:#F3F5F8;fill:color(display-p3 0.9529 0.9608 0.9725);fill-opacity:1;"/>
<path d="M1020.13 557.773C1019.18 557.066 1018.15 557.908 1017.4 558.497C1015.44 560.061 1013.59 562.594 1013.25 565.122C1013.07 566.454 1013.21 569.956 1015.32 569.358C1017.04 568.868 1015.98 567.018 1016.04 565.903C1016.14 564 1017.36 562.437 1018.68 561.173C1019.43 560.445 1020.87 559.941 1020.62 558.634C1020.56 558.328 1020.38 557.957 1020.13 557.771L1020.13 557.773Z" fill="#A6E8F8" style="fill:#A6E8F8;fill:color(display-p3 0.6510 0.9098 0.9725);fill-opacity:1;"/>
<path d="M1056.62 551.089C1055.05 550.57 1053.51 550.566 1052.15 551.614C1050.18 553.131 1050.85 554.599 1049.83 556.421C1047.2 561.108 1043.24 558.865 1039.15 559.787C1033.99 560.952 1029.93 564.861 1028.37 569.892C1027.81 571.698 1027.9 573.286 1026.55 574.832C1023.77 578.017 1019.43 576.209 1015.58 577.34C1010.56 578.817 1005.39 584.224 1005.32 589.662C1005.27 593.748 1010.28 595.66 1012.91 592.588C1014.35 590.906 1013.65 588.919 1015.81 586.936C1018.43 584.526 1020.98 585.817 1024.04 585.411C1029.53 584.687 1034.17 580.707 1035.88 575.46C1036.73 572.878 1036.42 570.88 1039.06 569.086C1041.32 567.555 1043.5 568.414 1045.96 568.178C1049.69 567.821 1052.94 566.041 1055.55 563.386C1056.16 562.293 1057.14 561.236 1057.71 560.146C1058.32 558.965 1059.17 555.904 1059.03 554.571C1058.92 553.505 1058.33 552.691 1057.75 551.839L1056.62 551.09L1056.62 551.089ZM1046.2 562.376C1048.94 561.86 1051.29 559.931 1052.57 557.459C1053.19 556.254 1053.17 553.181 1055.17 553.877C1056.66 554.393 1056.08 556.051 1055.71 557.192C1054.24 561.718 1050.23 564.913 1045.51 565.325C1042.89 565.554 1041.24 564.755 1038.58 566.056C1032.47 569.044 1034.65 574.646 1030.45 579.049C1024.67 585.106 1018.98 580.306 1014.01 584.689C1012.82 585.739 1012.11 586.685 1011.52 588.169C1011.1 589.25 1011.21 591.137 1009.71 591.225C1007.55 591.349 1008.32 588.581 1008.77 587.381C1010.08 583.861 1012.92 581.199 1016.51 580.113C1020.83 578.804 1024.18 581.184 1028.15 577.313C1031.17 574.364 1030.24 571.694 1031.99 568.551C1033.9 565.118 1037.16 562.929 1041.03 562.457C1042.76 562.245 1044.53 562.688 1046.2 562.374L1046.2 562.376Z" fill="#020100" style="fill:#020100;fill:color(display-p3 0.0078 0.0039 0.0000);fill-opacity:1;"/>
<path d="M1033.34 596.78L1034.37 595.229C1035.55 591.858 1032.64 588.359 1029.11 589.399C1027.11 589.989 1027.09 591.646 1024.59 591.163C1023.01 590.859 1021.72 589.756 1020.05 589.865C1015.94 590.134 1014.46 595.587 1017.88 597.848C1021.29 600.109 1027.28 600.632 1030.83 598.568L1033.34 596.78ZM1031.44 592.707C1033.26 594.612 1028.32 596.701 1026.84 596.919C1024.84 597.213 1021.02 596.496 1019.41 595.251C1018.04 594.184 1019.35 592.294 1020.89 592.808C1023.19 593.578 1025.35 594.909 1027.89 593.622C1029.15 592.982 1030.03 591.233 1031.44 592.707Z" fill="#020100" style="fill:#020100;fill:color(display-p3 0.0078 0.0039 0.0000);fill-opacity:1;"/>
<path d="M1046.19 562.374C1044.53 562.688 1042.76 562.245 1041.02 562.456C1037.15 562.929 1033.9 565.118 1031.99 568.551C1030.24 571.694 1031.17 574.364 1028.15 577.312C1024.18 581.183 1020.83 578.803 1016.5 580.113C1012.91 581.199 1010.07 583.861 1008.76 587.381C1008.32 588.58 1007.55 591.349 1009.71 591.225C1011.2 591.14 1011.09 589.25 1011.52 588.169C1012.11 586.685 1012.82 585.738 1014.01 584.689C1018.98 580.305 1024.66 585.106 1030.45 579.048C1034.65 574.646 1032.47 569.044 1038.57 566.056C1041.23 564.754 1042.88 565.553 1045.51 565.325C1050.23 564.912 1054.23 561.716 1055.71 557.192C1056.08 556.051 1056.65 554.392 1055.17 553.876C1053.17 553.181 1053.18 556.253 1052.56 557.459C1051.29 559.933 1048.93 561.86 1046.19 562.376L1046.19 562.374Z" fill="#A6E8F8" style="fill:#A6E8F8;fill:color(display-p3 0.6510 0.9098 0.9725);fill-opacity:1;"/>
<path d="M1031.44 592.707C1030.03 591.234 1029.15 592.983 1027.89 593.622C1025.35 594.909 1023.19 593.578 1020.89 592.808C1019.35 592.294 1018.04 594.184 1019.41 595.251C1021.02 596.497 1024.84 597.214 1026.84 596.919C1028.32 596.702 1033.26 594.612 1031.44 592.707Z" fill="#A6E8F8" style="fill:#A6E8F8;fill:color(display-p3 0.6510 0.9098 0.9725);fill-opacity:1;"/>
<rect x="10.1299" y="519.637" width="991" height="98" transform="rotate(3.79 10.1299 519.637)" fill="#E8422E" stroke="#0D99FF" style="fill:#E8422E;fill:color(display-p3 0.9098 0.2588 0.1804);fill-opacity:1;stroke:#0D99FF;stroke:color(display-p3 0.0510 0.6000 1.0000);stroke-opacity:1;"/>
<path d="M51.6335 549.435L48.6914 593.849L37.1421 593.084L40.0843 548.67L51.6335 549.435ZM66.6848 558.478L66.271 561.812C67.1642 560.53 68.2086 559.598 69.4044 559.016C70.6197 558.417 71.9863 558.167 73.5043 558.268C75.4063 558.394 76.9311 558.945 78.0788 559.921C79.2265 560.897 79.9287 562.083 80.1853 563.477C80.4431 564.854 80.4666 567.133 80.2558 570.315L78.5657 595.828L67.4829 595.094L69.1529 569.883C69.3189 567.377 69.3378 565.845 69.2095 565.285C69.0813 564.726 68.6422 564.421 67.8924 564.371C67.106 564.319 66.591 564.607 66.3474 565.233C66.1051 565.842 65.893 567.518 65.7113 570.261L64.0812 594.868L52.9983 594.134L55.4099 557.731L66.6848 558.478ZM110.559 553.338L107.617 597.752L96.5343 597.018L96.7087 594.385C95.5753 595.412 94.4052 596.161 93.1984 596.632C91.9915 597.103 90.748 597.296 89.4678 597.211C87.7487 597.097 86.2879 596.551 85.0853 595.571C83.884 594.573 83.1398 593.467 82.8528 592.254C82.5841 591.043 82.5387 589.092 82.7168 586.404L83.8454 569.368C84.0307 566.57 84.3359 564.597 84.7609 563.45C85.2042 562.304 86.0951 561.334 87.4334 560.541C88.773 559.73 90.3298 559.383 92.1038 559.5C93.4754 559.591 94.7118 559.921 95.813 560.49C96.9325 561.06 97.9258 561.87 98.7931 562.919L99.4764 552.604L110.559 553.338ZM98.3388 569.777C98.4273 568.442 98.3677 567.538 98.1603 567.065C97.9711 566.593 97.5382 566.335 96.8615 566.29C96.2031 566.247 95.7411 566.427 95.4755 566.832C95.2294 567.22 95.0591 568.127 94.9646 569.554L93.7833 587.385C93.6852 588.866 93.7301 589.852 93.9181 590.342C94.1073 590.814 94.5128 591.07 95.1346 591.112C95.8478 591.159 96.3403 590.934 96.612 590.438C96.8848 589.923 97.0885 588.651 97.223 586.621L98.3388 569.777ZM125.949 554.358L125.566 560.146L114.154 559.39L114.537 553.602L125.949 554.358ZM125.418 562.368L123.007 598.772L111.595 598.016L114.006 561.612L125.418 562.368ZM138.393 577.39L127.996 576.701L128.158 574.26C128.344 571.443 128.808 569.297 129.548 567.822C130.309 566.329 131.706 565.063 133.74 564.022C135.775 562.981 138.356 562.564 141.483 562.771C145.232 563.02 148.013 563.874 149.827 565.335C151.642 566.778 152.677 568.482 152.933 570.446C153.189 572.391 153.119 576.373 152.72 582.39L151.51 600.66L140.729 599.946L140.943 596.709C140.18 597.962 139.238 598.883 138.115 599.469C137.012 600.039 135.72 600.275 134.238 600.177C132.3 600.049 130.552 599.391 128.996 598.204C127.459 597 126.813 594.56 127.056 590.884L127.254 587.894C127.435 585.169 127.988 583.341 128.913 582.411C129.838 581.48 132.045 580.469 135.533 579.377C139.267 578.192 141.279 577.361 141.567 576.884C141.856 576.407 142.051 575.41 142.151 573.892C142.277 571.99 142.213 570.746 141.958 570.159C141.722 569.556 141.275 569.233 140.617 569.189C139.867 569.139 139.384 569.355 139.169 569.837C138.954 570.3 138.78 571.547 138.645 573.577L138.393 577.39ZM141.574 582.616C139.713 583.797 138.608 584.816 138.257 585.675C137.925 586.534 137.704 587.787 137.595 589.433C137.47 591.317 137.509 592.541 137.71 593.105C137.93 593.671 138.405 593.978 139.137 594.027C139.832 594.073 140.294 593.892 140.523 593.485C140.771 593.06 140.956 591.934 141.077 590.105L141.574 582.616ZM164.712 556.926L164.448 560.904C164.311 562.97 163.951 564.664 163.368 565.984C162.785 567.287 161.851 568.364 160.564 569.215C159.296 570.05 157.883 570.581 156.325 570.808L156.538 567.598C157.675 567.068 158.351 566.286 158.567 565.253L156.701 565.13L157.277 556.433L164.712 556.926ZM189.033 578.265L179.212 577.614L179.343 575.639C179.454 573.957 179.424 572.889 179.252 572.437C179.099 571.968 178.639 571.708 177.871 571.657C177.249 571.616 176.769 571.795 176.43 572.195C176.092 572.577 175.896 573.179 175.842 574.002C175.768 575.118 175.786 575.946 175.898 576.486C176.028 577.009 176.457 577.606 177.184 578.279C177.929 578.953 179.47 579.964 181.805 581.313C184.919 583.099 186.934 584.72 187.847 586.177C188.761 587.634 189.13 589.688 188.955 592.34C188.758 595.302 188.226 597.517 187.357 598.984C186.49 600.433 185.123 601.509 183.258 602.212C181.413 602.898 179.219 603.157 176.677 602.988C173.86 602.802 171.475 602.203 169.522 601.192C167.587 600.182 166.294 598.902 165.643 597.353C164.993 595.804 164.768 593.511 164.969 590.475L165.085 588.719L174.906 589.37L174.754 591.674C174.624 593.631 174.659 594.91 174.858 595.511C175.075 596.113 175.549 596.439 176.281 596.487C177.067 596.539 177.629 596.384 177.965 596.02C178.303 595.638 178.513 594.816 178.597 593.555C178.712 591.817 178.583 590.716 178.21 590.25C177.818 589.783 175.755 588.342 172.021 585.928C168.887 583.883 167.012 582.096 166.397 580.568C165.783 579.021 165.544 577.223 165.68 575.175C165.872 572.267 166.398 570.153 167.257 568.832C168.117 567.493 169.487 566.509 171.365 565.88C173.262 565.253 175.426 565.02 177.859 565.181C180.273 565.341 182.301 565.787 183.942 566.521C185.603 567.237 186.848 568.128 187.678 569.193C188.525 570.259 189.012 571.228 189.138 572.1C189.282 572.973 189.294 574.324 189.173 576.153L189.033 578.265ZM215.956 560.32L213.603 595.846L220.626 596.311L220.037 605.199L201.465 603.969L204.407 559.555L215.956 560.32ZM233.914 583.718L223.517 583.029L223.679 580.588C223.865 577.771 224.329 575.625 225.07 574.15C225.83 572.657 227.227 571.39 229.261 570.35C231.296 569.309 233.877 568.892 237.004 569.099C240.753 569.347 243.535 570.202 245.348 571.663C247.163 573.106 248.198 574.809 248.454 576.773C248.711 578.719 248.64 582.7 248.241 588.717L247.031 606.988L236.25 606.273L236.464 603.036C235.701 604.29 234.759 605.21 233.636 605.797C232.533 606.367 231.241 606.603 229.759 606.505C227.821 606.376 226.073 605.719 224.517 604.532C222.981 603.328 222.334 600.888 222.577 597.212L222.776 594.222C222.956 591.497 223.509 589.669 224.434 588.738C225.359 587.808 227.566 586.797 231.055 585.705C234.789 584.52 236.8 583.689 237.089 583.212C237.377 582.735 237.572 581.738 237.673 580.22C237.799 578.318 237.734 577.074 237.479 576.487C237.243 575.884 236.796 575.56 236.138 575.517C235.388 575.467 234.906 575.683 234.69 576.165C234.476 576.628 234.301 577.875 234.167 579.905L233.914 583.718ZM237.095 588.943C235.235 590.124 234.129 591.144 233.779 592.003C233.446 592.862 233.225 594.115 233.116 595.761C232.991 597.645 233.03 598.869 233.231 599.433C233.451 599.999 233.926 600.306 234.658 600.354C235.353 600.4 235.815 600.22 236.044 599.812C236.293 599.388 236.477 598.261 236.599 596.433L237.095 588.943ZM264.338 571.571L263.583 576.315C265.419 573.002 267.871 571.346 270.938 571.347L270.09 584.158C268.06 584.024 266.551 584.199 265.564 584.685C264.576 585.171 263.94 585.9 263.655 586.873C263.372 587.828 263.113 590.07 262.879 593.6L261.927 607.974L250.844 607.24L253.256 570.837L264.338 571.571ZM298.575 573.839L296.717 601.875C296.467 605.661 296.213 608.106 295.956 609.209C295.719 610.296 295.029 611.416 293.887 612.571C292.744 613.745 291.2 614.589 289.256 615.103C287.329 615.636 284.929 615.808 282.058 615.618C278.528 615.384 275.733 614.593 273.674 613.244C271.613 611.913 270.662 609.49 270.821 605.974L281.575 606.686C281.468 608.295 282 609.139 283.171 609.216C284.012 609.272 284.586 609.062 284.893 608.587C285.2 608.111 285.406 607.087 285.51 605.514L285.692 602.771C284.684 603.567 283.635 604.15 282.545 604.518C281.474 604.888 280.362 605.035 279.21 604.959C277.216 604.827 275.597 604.315 274.352 603.425C273.125 602.535 272.317 601.425 271.927 600.095C271.539 598.747 271.425 596.866 271.585 594.452L272.461 581.229C272.69 577.773 273.476 575.327 274.82 573.891C276.164 572.455 278.108 571.822 280.65 571.99C282.04 572.082 283.283 572.449 284.379 573.092C285.494 573.735 286.462 574.653 287.283 575.846L288.26 573.156L298.575 573.839ZM286.825 582.759C286.935 581.095 286.905 580.028 286.734 579.557C286.581 579.088 286.176 578.831 285.517 578.788C284.877 578.745 284.402 578.98 284.093 579.492C283.803 579.988 283.607 581.003 283.505 582.539L282.695 594.775C282.587 596.402 282.617 597.47 282.786 597.977C282.955 598.466 283.36 598.731 284 598.774C284.732 598.822 285.227 598.561 285.485 597.99C285.743 597.42 285.941 596.101 286.078 594.034L286.825 582.759ZM326.378 594.61L312.03 593.659L311.509 601.533C311.4 603.179 311.448 604.247 311.654 604.739C311.861 605.23 312.302 605.498 312.979 605.543C313.82 605.598 314.398 605.324 314.714 604.721C315.049 604.1 315.276 602.884 315.396 601.074L315.714 596.273L326.221 596.969L326.043 599.658C325.894 601.907 325.633 603.626 325.261 604.813C324.906 606.002 324.163 607.248 323.029 608.55C321.896 609.853 320.502 610.798 318.846 611.387C317.21 611.958 315.185 612.164 312.771 612.004C310.43 611.849 308.386 611.374 306.639 610.578C304.891 609.783 303.553 608.766 302.625 607.529C301.716 606.275 301.116 604.931 300.826 603.498C300.536 602.046 300.481 599.966 300.66 597.26L301.363 586.643C301.574 583.461 302.17 580.984 303.151 579.212C304.133 577.422 305.634 576.107 307.655 575.267C309.678 574.409 311.96 574.064 314.502 574.233C317.611 574.439 320.132 575.203 322.065 576.525C324.017 577.83 325.331 579.487 326.006 581.497C326.701 583.491 326.931 586.252 326.697 589.782L326.378 594.61ZM315.66 587.948L315.836 585.287C315.961 583.404 315.941 582.181 315.776 581.619C315.611 581.057 315.218 580.755 314.596 580.714C313.828 580.663 313.337 580.869 313.122 581.333C312.909 581.778 312.735 583.025 312.599 585.073L312.423 587.734L315.66 587.948ZM353.136 589.136L343.315 588.485L343.446 586.51C343.557 584.828 343.527 583.76 343.355 583.308C343.202 582.839 342.742 582.579 341.974 582.528C341.352 582.487 340.872 582.666 340.533 583.066C340.196 583.448 340 584.05 339.945 584.873C339.871 585.989 339.89 586.817 340.001 587.357C340.132 587.88 340.56 588.477 341.287 589.15C342.033 589.824 343.573 590.835 345.908 592.184C349.023 593.97 351.037 595.591 351.951 597.048C352.865 598.504 353.234 600.559 353.058 603.211C352.862 606.173 352.329 608.388 351.461 609.855C350.593 611.304 349.227 612.38 347.362 613.083C345.516 613.769 343.322 614.028 340.78 613.859C337.964 613.673 335.579 613.074 333.625 612.063C331.69 611.053 330.397 609.773 329.746 608.224C329.096 606.675 328.871 604.382 329.072 601.346L329.189 599.59L339.01 600.241L338.857 602.545C338.727 604.502 338.762 605.781 338.961 606.382C339.178 606.984 339.653 607.31 340.384 607.358C341.171 607.41 341.732 607.254 342.068 606.891C342.406 606.509 342.616 605.687 342.7 604.426C342.815 602.688 342.686 601.587 342.313 601.121C341.921 600.654 339.858 599.213 336.124 596.799C332.99 594.754 331.115 592.967 330.5 591.439C329.886 589.892 329.647 588.094 329.783 586.046C329.975 583.138 330.501 581.024 331.36 579.703C332.22 578.364 333.59 577.38 335.468 576.751C337.365 576.124 339.53 575.891 341.962 576.052C344.376 576.212 346.404 576.658 348.045 577.392C349.706 578.108 350.951 578.999 351.781 580.064C352.629 581.13 353.115 582.099 353.241 582.971C353.386 583.844 353.397 585.195 353.276 587.024L353.136 589.136ZM369.728 573.676L369.348 579.409L372.338 579.607L371.957 585.368L368.966 585.17L367.676 604.647C367.517 607.043 367.548 608.386 367.767 608.676C368.005 608.967 369.03 609.173 370.84 609.293L370.451 615.164L365.98 614.867C363.456 614.7 361.661 614.48 360.595 614.208C359.531 613.917 358.612 613.369 357.839 612.565C357.067 611.742 356.612 610.839 356.475 609.857C356.339 608.856 356.391 606.545 356.631 602.924L357.856 584.434L355.469 584.276L355.851 578.515L358.238 578.673L358.618 572.94L369.728 573.676ZM411.312 592.714L399.763 591.949L400.275 584.213C400.424 581.964 400.389 580.556 400.169 579.99C399.969 579.408 399.448 579.089 398.607 579.033C397.656 578.97 397.03 579.268 396.729 579.928C396.428 580.588 396.203 582.042 396.054 584.292L394.688 604.921C394.545 607.079 394.58 608.496 394.792 609.171C395.004 609.847 395.559 610.214 396.455 610.273C397.314 610.33 397.894 610.038 398.194 609.397C398.512 608.756 398.751 607.22 398.912 604.788L399.281 599.219L410.83 599.984L410.716 601.712C410.412 606.303 409.867 609.536 409.081 611.413C408.314 613.291 406.767 614.878 404.44 616.175C402.131 617.473 399.349 618.015 396.094 617.799C392.711 617.575 389.962 616.778 387.849 615.407C385.735 614.036 384.393 612.248 383.823 610.043C383.254 607.819 383.114 604.531 383.402 600.178L384.262 587.203C384.474 584.002 384.742 581.614 385.067 580.037C385.393 578.442 386.145 576.94 387.322 575.53C388.517 574.121 390.103 573.06 392.079 572.346C394.075 571.615 396.325 571.332 398.831 571.498C402.232 571.723 404.996 572.568 407.122 574.031C409.247 575.495 410.592 577.237 411.156 579.258C411.722 581.261 411.867 584.338 411.592 588.49L411.312 592.714ZM439.73 602.119L425.383 601.168L424.861 609.042C424.752 610.688 424.801 611.756 425.007 612.247C425.213 612.739 425.655 613.007 426.331 613.052C427.173 613.107 427.751 612.833 428.067 612.23C428.402 611.609 428.629 610.393 428.749 608.583L429.067 603.782L439.574 604.478L439.396 607.167C439.247 609.416 438.986 611.135 438.613 612.322C438.259 613.511 437.515 614.757 436.382 616.059C435.249 617.362 433.854 618.307 432.199 618.896C430.563 619.467 428.538 619.673 426.124 619.513C423.783 619.358 421.739 618.883 419.991 618.087C418.244 617.292 416.906 616.275 415.977 615.038C415.069 613.784 414.469 612.44 414.178 611.007C413.888 609.555 413.833 607.475 414.013 604.769L414.716 594.152C414.927 590.97 415.523 588.493 416.503 586.721C417.485 584.931 418.987 583.616 421.008 582.776C423.03 581.918 425.312 581.573 427.854 581.742C430.963 581.948 433.484 582.712 435.417 584.034C437.37 585.339 438.684 586.996 439.359 589.006C440.053 591 440.284 593.761 440.05 597.291L439.73 602.119ZM429.012 595.457L429.189 592.796C429.313 590.913 429.293 589.69 429.128 589.128C428.964 588.566 428.57 588.264 427.949 588.223C427.18 588.172 426.689 588.378 426.475 588.842C426.262 589.287 426.087 590.534 425.951 592.582L425.775 595.243L429.012 595.457ZM456.57 576.26L453.628 620.674L442.216 619.918L445.158 575.504L456.57 576.26ZM483.897 605.045L469.55 604.094L469.028 611.967C468.919 613.613 468.968 614.682 469.174 615.173C469.38 615.665 469.822 615.933 470.498 615.977C471.339 616.033 471.918 615.759 472.233 615.156C472.568 614.535 472.796 613.319 472.916 611.509L473.234 606.708L483.741 607.404L483.563 610.092C483.414 612.342 483.153 614.06 482.78 615.248C482.426 616.437 481.682 617.683 480.549 618.985C479.415 620.288 478.021 621.233 476.366 621.822C474.73 622.393 472.705 622.599 470.291 622.439C467.95 622.284 465.905 621.808 464.158 621.013C462.411 620.218 461.073 619.201 460.144 617.964C459.235 616.71 458.636 615.366 458.345 613.932C458.055 612.481 458 610.401 458.18 607.694L458.883 597.078C459.094 593.896 459.689 591.419 460.67 589.647C461.652 587.857 463.154 586.542 465.175 585.702C467.197 584.844 469.479 584.499 472.021 584.668C475.13 584.874 477.651 585.638 479.584 586.96C481.537 588.265 482.851 589.922 483.526 591.932C484.22 593.925 484.451 596.687 484.217 600.217L483.897 605.045ZM473.179 598.383L473.355 595.722C473.48 593.838 473.46 592.616 473.295 592.054C473.131 591.492 472.737 591.19 472.115 591.149C471.347 591.098 470.856 591.304 470.642 591.768C470.428 592.213 470.254 593.459 470.118 595.508L469.942 598.169L473.179 598.383ZM500.407 579.164L499.711 589.671C500.696 588.67 501.763 587.951 502.913 587.513C504.082 587.058 505.325 586.874 506.642 586.961C508.159 587.062 509.46 587.387 510.545 587.936C511.629 588.485 512.435 589.209 512.963 590.108C513.491 591.006 513.783 591.87 513.838 592.7C513.912 593.532 513.86 595.292 513.682 597.98L512.595 614.385C512.418 617.055 512.103 619.037 511.65 620.329C511.216 621.605 510.309 622.683 508.928 623.565C507.548 624.429 505.953 624.801 504.143 624.681C502.844 624.595 501.647 624.231 500.551 623.589C499.472 622.948 498.505 622.03 497.647 620.834L496.752 623.53L486.382 622.843L489.325 578.43L500.407 579.164ZM502.566 597.74C502.691 595.856 502.653 594.623 502.453 594.04C502.254 593.439 501.807 593.116 501.112 593.07C500.435 593.025 499.979 593.252 499.744 593.751C499.51 594.231 499.326 595.486 499.192 597.516L498.152 613.208C498.023 615.165 498.049 616.425 498.232 616.988C498.434 617.552 498.873 617.857 499.55 617.902C500.245 617.948 500.711 617.694 500.95 617.141C501.207 616.588 501.407 615.233 501.55 613.075L502.566 597.74ZM529.065 589.108L528.31 593.852C530.146 590.539 532.598 588.883 535.665 588.884L534.817 601.695C532.787 601.56 531.278 601.736 530.291 602.222C529.303 602.707 528.667 603.437 528.382 604.41C528.099 605.364 527.84 607.607 527.606 611.136L526.654 625.511L515.571 624.777L517.983 588.374L529.065 589.108ZM547.087 604.464L536.69 603.775L536.852 601.334C537.039 598.517 537.502 596.371 538.243 594.896C539.003 593.403 540.4 592.136 542.435 591.096C544.469 590.055 547.05 589.638 550.177 589.845C553.927 590.093 556.708 590.948 558.521 592.409C560.336 593.852 561.371 595.555 561.627 597.519C561.884 599.465 561.813 603.446 561.415 609.463L560.204 627.734L549.423 627.02L549.638 623.782C548.875 625.036 547.932 625.956 546.81 626.543C545.706 627.113 544.414 627.349 542.933 627.251C540.994 627.122 539.247 626.465 537.691 625.278C536.154 624.074 535.507 621.634 535.751 617.958L535.949 614.968C536.129 612.243 536.682 610.415 537.607 609.484C538.532 608.554 540.739 607.543 544.228 606.451C547.962 605.266 549.973 604.435 550.262 603.958C550.551 603.481 550.745 602.484 550.846 600.966C550.972 599.064 550.907 597.82 550.652 597.233C550.417 596.63 549.97 596.306 549.311 596.263C548.562 596.213 548.079 596.429 547.863 596.911C547.649 597.374 547.474 598.621 547.34 600.651L547.087 604.464ZM550.268 609.689C548.408 610.87 547.303 611.89 546.952 612.749C546.619 613.608 546.399 614.861 546.29 616.507C546.165 618.391 546.203 619.615 546.405 620.179C546.624 620.745 547.1 621.052 547.831 621.1C548.526 621.146 548.988 620.966 549.217 620.558C549.466 620.134 549.651 619.007 549.772 617.179L550.268 609.689ZM578.437 587.501L578.057 593.235L581.047 593.433L580.666 599.194L577.676 598.996L576.385 618.473C576.227 620.869 576.257 622.212 576.477 622.502C576.714 622.793 577.739 622.999 579.549 623.119L579.16 628.989L574.689 628.693C572.165 628.526 570.37 628.306 569.304 628.033C568.24 627.743 567.321 627.195 566.548 626.391C565.776 625.568 565.321 624.665 565.184 623.683C565.048 622.682 565.1 620.371 565.34 616.75L566.565 598.26L564.179 598.102L564.56 592.341L566.947 592.499L567.327 586.765L578.437 587.501ZM595.49 585.463L595.106 591.251L583.694 590.495L584.078 584.707L595.49 585.463ZM594.959 593.473L592.548 629.876L581.135 629.12L583.547 592.717L594.959 593.473ZM623.191 608.183L622.6 617.099C622.384 620.372 622.06 622.766 621.629 624.281C621.199 625.777 620.4 627.157 619.233 628.42C618.067 629.666 616.612 630.552 614.869 631.079C613.145 631.59 611.186 631.772 608.991 631.627C606.54 631.465 604.482 631.062 602.817 630.419C601.152 629.757 599.88 628.856 599.001 627.714C598.14 626.555 597.56 625.194 597.26 623.631C596.96 622.05 596.913 619.714 597.118 616.623L597.736 607.296C597.96 603.912 598.501 601.294 599.358 599.44C600.216 597.587 601.634 596.147 603.612 595.121C605.59 594.094 608.061 593.68 611.023 593.876C613.511 594.041 615.617 594.557 617.341 595.424C619.085 596.274 620.402 597.326 621.292 598.579C622.183 599.832 622.76 601.101 623.024 602.386C623.306 603.672 623.362 605.604 623.191 608.183ZM612.29 604.705C612.413 602.84 612.39 601.663 612.221 601.174C612.052 600.667 611.639 600.392 610.98 600.348C610.322 600.304 609.867 600.522 609.615 601.001C609.364 601.462 609.176 602.626 609.053 604.491L607.964 620.923C607.85 622.642 607.886 623.774 608.07 624.319C608.255 624.846 608.668 625.13 609.308 625.173C609.967 625.216 610.412 625.007 610.645 624.545C610.896 624.084 611.074 623.067 611.178 621.494L612.29 604.705ZM638.989 596.39L638.575 599.724C639.468 598.442 640.513 597.51 641.708 596.928C642.924 596.329 644.29 596.08 645.808 596.18C647.71 596.306 649.235 596.857 650.383 597.833C651.531 598.809 652.233 599.995 652.489 601.389C652.747 602.766 652.771 605.045 652.56 608.227L650.87 633.74L639.787 633.006L641.457 607.795C641.623 605.289 641.642 603.757 641.514 603.197C641.385 602.638 640.946 602.333 640.196 602.283C639.41 602.231 638.895 602.519 638.651 603.145C638.409 603.754 638.197 605.43 638.015 608.173L636.385 632.78L625.302 632.046L627.714 595.643L638.989 596.39ZM691.279 612.693L690.689 621.609C690.472 624.883 690.148 627.277 689.717 628.791C689.287 630.287 688.489 631.667 687.321 632.931C686.155 634.176 684.7 635.062 682.957 635.59C681.233 636.1 679.274 636.283 677.079 636.137C674.629 635.975 672.571 635.572 670.905 634.929C669.24 634.268 667.968 633.366 667.089 632.224C666.229 631.065 665.648 629.704 665.348 628.141C665.049 626.56 665.001 624.224 665.206 621.133L665.824 611.806C666.048 608.423 666.589 605.804 667.446 603.951C668.304 602.097 669.722 600.657 671.7 599.631C673.679 598.605 676.149 598.19 679.112 598.386C681.599 598.551 683.705 599.067 685.429 599.934C687.173 600.785 688.49 601.836 689.381 603.089C690.271 604.342 690.848 605.611 691.112 606.896C691.395 608.182 691.45 610.115 691.279 612.693ZM680.378 609.216C680.502 607.351 680.479 606.173 680.309 605.685C680.141 605.177 679.727 604.902 679.069 604.858C678.41 604.815 677.955 605.033 677.703 605.512C677.452 605.973 677.265 607.136 677.141 609.001L676.053 625.434C675.939 627.153 675.974 628.285 676.158 628.83C676.344 629.356 676.757 629.641 677.397 629.683C678.055 629.727 678.501 629.518 678.733 629.056C678.984 628.595 679.162 627.578 679.266 626.005L680.378 609.216ZM710.461 593.079L710.088 598.702C707.802 598.551 706.442 598.571 706.006 598.763C705.591 598.937 705.35 599.518 705.285 600.506L705.208 601.658L709.872 601.967L709.49 607.728L706.857 607.553L704.885 637.318L693.802 636.584L695.774 606.819L693.497 606.668L693.879 600.907L696.156 601.058C696.314 598.663 696.503 597.068 696.72 596.274C696.938 595.48 697.388 594.794 698.069 594.214C698.77 593.618 699.717 593.194 700.909 592.942C702.101 592.69 703.932 592.646 706.401 592.81L710.461 593.079ZM734.382 594.663L731.44 639.077L719.891 638.312L722.833 593.898L734.382 594.663ZM749.433 603.706L749.02 607.04C749.913 605.758 750.957 604.826 752.153 604.244C753.368 603.645 754.735 603.396 756.253 603.496C758.155 603.622 759.68 604.174 760.827 605.15C761.975 606.126 762.677 607.311 762.934 608.706C763.192 610.082 763.215 612.361 763.004 615.544L761.314 641.056L750.232 640.322L751.902 615.111C752.068 612.606 752.086 611.073 751.958 610.514C751.83 609.954 751.391 609.649 750.641 609.6C749.855 609.548 749.34 609.835 749.096 610.462C748.854 611.07 748.642 612.746 748.46 615.489L746.83 640.097L735.747 639.362L738.159 602.959L749.433 603.706ZM778.841 605.654L778.428 608.988C779.321 607.706 780.365 606.775 781.561 606.192C782.776 605.593 784.143 605.344 785.661 605.445C787.563 605.571 789.088 606.122 790.236 607.098C791.383 608.074 792.085 609.259 792.342 610.654C792.6 612.03 792.623 614.31 792.413 617.492L790.722 643.004L779.64 642.27L781.31 617.059C781.476 614.554 781.494 613.021 781.366 612.462C781.238 611.902 780.799 611.598 780.049 611.548C779.263 611.496 778.748 611.783 778.504 612.41C778.262 613.018 778.05 614.694 777.868 617.438L776.238 642.045L765.155 641.311L767.567 604.907L778.841 605.654ZM821.201 621.3L820.611 630.216C820.394 633.489 820.07 635.883 819.639 637.398C819.209 638.894 818.411 640.274 817.243 641.537C816.077 642.783 814.622 643.669 812.879 644.197C811.155 644.707 809.196 644.889 807.001 644.744C804.551 644.582 802.493 644.179 800.827 643.536C799.162 642.875 797.89 641.973 797.011 640.831C796.151 639.672 795.57 638.311 795.27 636.748C794.971 635.167 794.923 632.831 795.128 629.74L795.746 620.413C795.97 617.029 796.511 614.411 797.368 612.557C798.226 610.704 799.644 609.264 801.622 608.238C803.6 607.212 806.071 606.797 809.034 606.993C811.521 607.158 813.627 607.674 815.351 608.541C817.095 609.391 818.412 610.443 819.303 611.696C820.193 612.949 820.77 614.218 821.034 615.503C821.316 616.789 821.372 618.721 821.201 621.3ZM810.3 617.823C810.424 615.957 810.401 614.78 810.231 614.291C810.063 613.784 809.649 613.509 808.991 613.465C808.332 613.421 807.877 613.639 807.625 614.119C807.374 614.579 807.187 615.743 807.063 617.608L805.975 634.04C805.861 635.76 805.896 636.892 806.08 637.436C806.266 637.963 806.679 638.248 807.319 638.29C807.977 638.334 808.423 638.124 808.655 637.662C808.906 637.201 809.084 636.184 809.188 634.611L810.3 617.823ZM848.631 610.277L841.034 646.337L826.577 645.379L823.42 608.607L833.323 609.263L834.664 636.024C835.03 634.101 835.747 629.372 836.816 621.838C837.425 617.636 838.062 613.563 838.727 609.621L848.631 610.277ZM859.273 625.145L848.876 624.456L849.038 622.014C849.224 619.198 849.688 617.052 850.429 615.576C851.189 614.084 852.586 612.817 854.621 611.776C856.655 610.735 859.236 610.319 862.363 610.526C866.112 610.774 868.894 611.629 870.707 613.09C872.522 614.533 873.557 616.236 873.813 618.2C874.07 620.146 873.999 624.127 873.6 630.144L872.39 648.414L861.609 647.7L861.823 644.463C861.061 645.717 860.118 646.637 858.995 647.224C857.892 647.794 856.6 648.03 855.119 647.931C853.18 647.803 851.433 647.145 849.876 645.959C848.34 644.755 847.693 642.315 847.937 638.639L848.135 635.648C848.315 632.924 848.868 631.096 849.793 630.165C850.718 629.234 852.925 628.223 856.414 627.132C860.148 625.947 862.159 625.115 862.448 624.639C862.737 624.162 862.931 623.164 863.032 621.646C863.158 619.744 863.093 618.5 862.838 617.914C862.603 617.31 862.156 616.987 861.497 616.943C860.747 616.894 860.265 617.11 860.049 617.591C859.835 618.055 859.66 619.301 859.526 621.331L859.273 625.145ZM862.454 630.37C860.594 631.551 859.488 632.571 859.138 633.429C858.805 634.289 858.584 635.542 858.475 637.188C858.351 639.071 858.389 640.295 858.59 640.86C858.81 641.425 859.286 641.733 860.017 641.781C860.712 641.827 861.174 641.646 861.403 641.239C861.652 640.815 861.837 639.688 861.958 637.859L862.454 630.37ZM890.623 608.182L890.243 613.916L893.233 614.114L892.852 619.875L889.861 619.676L888.571 639.154C888.412 641.55 888.443 642.893 888.662 643.183C888.9 643.474 889.924 643.68 891.735 643.799L891.346 649.67L886.875 649.374C884.351 649.207 882.556 648.987 881.49 648.714C880.426 648.423 879.507 647.876 878.734 647.071C877.961 646.249 877.507 645.346 877.37 644.363C877.234 643.362 877.286 641.051 877.526 637.43L878.751 618.94L876.364 618.782L876.746 613.021L879.133 613.18L879.512 607.446L890.623 608.182ZM907.675 606.143L907.292 611.931L895.88 611.175L896.263 605.387L907.675 606.143ZM907.145 614.154L904.733 650.557L893.321 649.801L895.733 613.398L907.145 614.154ZM935.377 628.864L934.786 637.779C934.569 641.053 934.245 643.447 933.814 644.961C933.385 646.457 932.586 647.837 931.419 649.101C930.252 650.346 928.798 651.233 927.054 651.76C925.331 652.27 923.371 652.453 921.177 652.307C918.726 652.145 916.668 651.742 915.002 651.099C913.338 650.438 912.066 649.536 911.186 648.394C910.326 647.235 909.746 645.874 909.445 644.311C909.146 642.73 909.099 640.394 909.303 637.303L909.921 627.976C910.145 624.593 910.686 621.974 911.544 620.121C912.401 618.267 913.819 616.827 915.798 615.801C917.776 614.775 920.246 614.36 923.209 614.556C925.696 614.721 927.802 615.237 929.527 616.105C931.27 616.955 932.588 618.006 933.478 619.259C934.369 620.512 934.946 621.781 935.21 623.066C935.492 624.352 935.548 626.285 935.377 628.864ZM924.476 625.386C924.599 623.521 924.576 622.344 924.407 621.855C924.238 621.348 923.825 621.072 923.166 621.029C922.508 620.985 922.053 621.203 921.8 621.682C921.549 622.143 921.362 623.306 921.239 625.172L920.15 641.604C920.036 643.323 920.071 644.455 920.256 645C920.441 645.527 920.854 645.811 921.494 645.853C922.153 645.897 922.598 645.688 922.831 645.226C923.082 644.765 923.259 643.748 923.363 642.175L924.476 625.386ZM951.175 617.07L950.761 620.404C951.654 619.123 952.698 618.191 953.894 617.609C955.11 617.009 956.476 616.76 957.994 616.861C959.896 616.987 961.421 617.538 962.569 618.514C963.716 619.49 964.419 620.675 964.675 622.07C964.933 623.446 964.956 625.726 964.746 628.908L963.056 654.42L951.973 653.686L953.643 628.475C953.809 625.97 953.828 624.437 953.699 623.878C953.571 623.318 953.132 623.014 952.382 622.964C951.596 622.912 951.081 623.199 950.837 623.826C950.595 624.434 950.383 626.11 950.201 628.854L948.571 653.461L937.488 652.727L939.9 616.323L951.175 617.07Z" fill="white" style="fill:white;fill-opacity:1;"/>
<rect x="7.2998" y="516.408" width="7.23069" height="7.23069" transform="rotate(3.79 7.2998 516.408)" fill="white" stroke="#0D99FF" style="fill:white;fill-opacity:1;stroke:#0D99FF;stroke:color(display-p3 0.0510 0.6000 1.0000);stroke-opacity:1;" stroke-width="0.769312"/>
<rect x="0.889639" y="613.196" width="7.23069" height="7.23069" transform="rotate(3.79 0.889639 613.196)" fill="white" stroke="#0D99FF" style="fill:white;fill-opacity:1;stroke:#0D99FF;stroke:color(display-p3 0.0510 0.6000 1.0000);stroke-opacity:1;" stroke-width="0.769312"/>
<rect x="988.722" y="678.634" width="7.23069" height="7.23069" transform="rotate(3.79 988.722 678.634)" fill="white" stroke="#0D99FF" style="fill:white;fill-opacity:1;stroke:#0D99FF;stroke:color(display-p3 0.0510 0.6000 1.0000);stroke-opacity:1;" stroke-width="0.769312"/>
<rect x="995.136" y="581.847" width="7.23069" height="7.23069" transform="rotate(3.79 995.136 581.847)" fill="white" stroke="#0D99FF" style="fill:white;fill-opacity:1;stroke:#0D99FF;stroke:color(display-p3 0.0510 0.6000 1.0000);stroke-opacity:1;" stroke-width="0.769312"/>
<defs>
<filter id="filter0_d_775_1913" x="331.293" y="0.253418" width="409.64" height="412.3" filterUnits="userSpaceOnUse" color-interpolation-filters="sRGB">
<feFlood flood-opacity="0" result="BackgroundImageFix"/>
<feColorMatrix in="SourceAlpha" type="matrix" values="0 0 0 0 0 0 0 0 0 0 0 0 0 0 0 0 0 0 127 0" result="hardAlpha"/>
<feOffset dx="5.32" dy="5.32"/>
<feGaussianBlur stdDeviation="2.66"/>
<feComposite in2="hardAlpha" operator="out"/>
<feColorMatrix type="matrix" values="0 0 0 0 0 0 0 0 0 0 0 0 0 0 0 0 0 0 0.25 0"/>
<feBlend mode="normal" in2="BackgroundImageFix" result="effect1_dropShadow_775_1913"/>
<feBlend mode="normal" in="SourceGraphic" in2="effect1_dropShadow_775_1913" result="shape"/>
</filter>
<filter id="filter1_i_775_1913" x="421.73" y="93.354" width="224.168" height="220.195" filterUnits="userSpaceOnUse" color-interpolation-filters="sRGB">
<feFlood flood-opacity="0" result="BackgroundImageFix"/>
<feBlend mode="normal" in="SourceGraphic" in2="BackgroundImageFix" result="shape"/>
<feColorMatrix in="SourceAlpha" type="matrix" values="0 0 0 0 0 0 0 0 0 0 0 0 0 0 0 0 0 0 127 0" result="hardAlpha"/>
<feOffset dx="5.32" dy="5.32"/>
<feGaussianBlur stdDeviation="2.66"/>
<feComposite in2="hardAlpha" operator="arithmetic" k2="-1" k3="1"/>
<feColorMatrix type="matrix" values="0 0 0 0 0 0 0 0 0 0 0 0 0 0 0 0 0 0 0.25 0"/>
<feBlend mode="normal" in2="shape" result="effect1_innerShadow_775_1913"/>
</filter>
</defs>
</svg>
