<svg width="423" height="316" viewBox="0 0 423 316" fill="none" xmlns="http://www.w3.org/2000/svg">
<path d="M323.264 15.9873H316.642H308.504V25.3903V36.8723H323.264H365.056V15.9873H323.264Z" fill="#7AD8CF"/>
<path d="M363.937 16.9473H320.96V35.9083H363.937V16.9473Z" fill="#DF5A15"/>
<path d="M327.761 22.9434C328.744 22.9434 329.598 23.2994 330.322 24.0094C331.046 24.7204 331.408 25.6204 331.408 26.7104C331.408 27.7264 331.063 28.6054 330.372 29.3464C329.681 30.0874 328.84 30.4574 327.851 30.4574C326.821 30.4574 325.953 30.0924 325.245 29.3614C324.537 28.6304 324.184 27.7604 324.184 26.7504C324.184 26.1994 324.284 25.6824 324.483 25.2004C324.682 24.7194 324.948 24.3154 325.28 23.9894C325.612 23.6634 325.994 23.4084 326.426 23.2224C326.857 23.0364 327.302 22.9434 327.761 22.9434ZM327.79 28.6924C328.268 28.6924 328.697 28.5134 329.076 28.1544C329.455 27.7954 329.644 27.3104 329.644 26.6994C329.644 26.1014 329.453 25.6204 329.071 25.2544C328.689 24.8894 328.266 24.7064 327.801 24.7064C327.323 24.7064 326.894 24.8904 326.516 25.2594C326.137 25.6284 325.948 26.1114 325.948 26.7094C325.948 27.2934 326.139 27.7704 326.521 28.1394C326.902 28.5084 327.325 28.6924 327.79 28.6924Z" fill="white"/>
<path d="M338.313 23.0425C338.479 23.0425 338.62 23.0595 338.736 23.0925C338.852 23.1255 338.938 23.1655 338.995 23.2125C339.051 23.2585 339.095 23.3275 339.125 23.4165C339.155 23.5065 339.172 23.5825 339.175 23.6455C339.178 23.7085 339.18 23.8035 339.18 23.9295V29.4595C339.18 29.6185 339.175 29.7355 339.165 29.8085C339.155 29.8815 339.123 29.9675 339.07 30.0675C339.017 30.1675 338.927 30.2375 338.801 30.2765C338.675 30.3165 338.505 30.3365 338.293 30.3365C338.034 30.3365 337.855 30.3165 337.755 30.2765C337.655 30.2365 337.572 30.1735 337.506 30.0875C336.011 28.0945 335.028 26.7925 334.556 26.1815V29.4605C334.556 29.6195 334.551 29.7365 334.541 29.8095C334.531 29.8825 334.499 29.9685 334.447 30.0685C334.394 30.1685 334.304 30.2385 334.177 30.2775C334.05 30.3165 333.882 30.3375 333.669 30.3375C333.463 30.3375 333.298 30.3175 333.175 30.2775C333.052 30.2375 332.964 30.1675 332.911 30.0685C332.858 29.9685 332.826 29.8795 332.816 29.7995C332.806 29.7195 332.801 29.6035 332.801 29.4505V23.8905C332.801 23.7375 332.808 23.6245 332.821 23.5515C332.834 23.4785 332.866 23.3955 332.916 23.3025C332.966 23.2095 333.054 23.1425 333.18 23.1035C333.306 23.0635 333.475 23.0435 333.688 23.0435C333.874 23.0435 334.025 23.0615 334.141 23.0985C334.257 23.1355 334.338 23.1745 334.385 23.2175C334.431 23.2605 334.491 23.3285 334.564 23.4215L334.614 23.4815C336.015 25.3885 336.952 26.6465 337.424 27.2575V23.8895C337.424 23.7365 337.431 23.6235 337.444 23.5505C337.457 23.4775 337.489 23.3945 337.538 23.3015C337.588 23.2085 337.676 23.1415 337.802 23.1025C337.931 23.0625 338.1 23.0425 338.313 23.0425Z" fill="white"/>
<path d="M348.208 23.5502L350.898 29.1102C351.011 29.3362 351.067 29.5052 351.067 29.6182C351.067 29.8572 350.874 30.0732 350.489 30.2662C350.263 30.3792 350.074 30.4352 349.921 30.4352C349.815 30.4352 349.72 30.4052 349.637 30.3452C349.554 30.2852 349.494 30.2222 349.457 30.1562C349.42 30.0903 349.369 29.9902 349.303 29.8572L348.785 28.7812H346.025L345.507 29.8572C345.441 29.9902 345.389 30.0862 345.353 30.1462C345.316 30.2062 345.256 30.2672 345.173 30.3302C345.09 30.3932 344.995 30.4252 344.889 30.4252C344.737 30.4252 344.547 30.3682 344.321 30.2552C343.936 30.0692 343.743 29.8572 343.743 29.6172C343.743 29.5042 343.799 29.3352 343.912 29.1092L346.602 23.5382C346.675 23.3862 346.787 23.2632 346.936 23.1702C347.085 23.0772 347.243 23.0312 347.409 23.0312C347.77 23.0323 348.035 23.2052 348.208 23.5502ZM347.4 25.9422L346.743 27.3072H348.068L347.4 25.9422Z" fill="white"/>
<path d="M352.363 23.9092C352.363 23.7562 352.368 23.6412 352.378 23.5652C352.388 23.4892 352.419 23.4012 352.472 23.3012C352.525 23.2012 352.615 23.1322 352.741 23.0922C352.867 23.0522 353.036 23.0322 353.249 23.0322C353.421 23.0322 353.564 23.0492 353.677 23.0822C353.79 23.1152 353.876 23.1552 353.936 23.2012C353.996 23.2482 354.041 23.3162 354.071 23.4052C354.101 23.4952 354.117 23.5712 354.121 23.6342C354.124 23.6972 354.126 23.7922 354.126 23.9182V29.4592C354.126 29.6182 354.121 29.7352 354.111 29.8082C354.101 29.8812 354.07 29.9672 354.016 30.0672C353.963 30.1672 353.873 30.2372 353.747 30.2762C353.621 30.3152 353.451 30.3362 353.239 30.3362C353.066 30.3362 352.923 30.3192 352.811 30.2862C352.698 30.2532 352.612 30.2132 352.552 30.1662C352.492 30.1202 352.447 30.0522 352.417 29.9622C352.387 29.8722 352.37 29.7962 352.367 29.7332C352.363 29.6702 352.362 29.5752 352.362 29.4492L352.363 23.9092Z" fill="white"/>
<path d="M361.262 29.1012C361.362 29.3402 361.411 29.5132 361.411 29.6192C361.411 29.8722 361.205 30.0842 360.793 30.2572C360.581 30.3502 360.401 30.3972 360.255 30.3972C360.142 30.3972 360.044 30.3662 359.961 30.3032C359.878 30.2402 359.818 30.1752 359.781 30.1092C359.744 30.0432 359.697 29.9402 359.637 29.8002C359.491 29.4682 359.278 28.9702 359 28.3052L358.691 28.3252H357.435V29.4512C357.435 29.6042 357.43 29.7182 357.42 29.7952C357.41 29.8712 357.379 29.9592 357.325 30.0592C357.272 30.1592 357.182 30.2292 357.056 30.2682C356.93 30.3082 356.76 30.3282 356.548 30.3282C356.375 30.3282 356.232 30.3122 356.12 30.2782C356.008 30.2442 355.921 30.2052 355.861 30.1582C355.801 30.1122 355.756 30.0432 355.726 29.9542C355.696 29.8642 355.679 29.7882 355.676 29.7252C355.672 29.6622 355.671 29.5672 355.671 29.4412V23.9112C355.671 23.7582 355.676 23.6432 355.686 23.5672C355.696 23.4912 355.727 23.4032 355.781 23.3032C355.834 23.2032 355.924 23.1342 356.05 23.0942C356.176 23.0542 356.345 23.0342 356.558 23.0342H358.71C358.989 23.0342 359.276 23.0892 359.572 23.1982C359.867 23.3082 360.148 23.4652 360.414 23.6712C360.68 23.8772 360.899 24.1562 361.072 24.5082C361.245 24.8602 361.331 25.2522 361.331 25.6842C361.331 26.4352 361.082 27.0522 360.583 27.5372C360.73 27.8892 360.956 28.4102 361.262 29.1012ZM357.435 26.5602H358.71C358.903 26.5602 359.095 26.4872 359.288 26.3412C359.481 26.1952 359.577 25.9732 359.577 25.6742C359.577 25.3882 359.481 25.1712 359.288 25.0212C359.095 24.8712 358.896 24.7962 358.69 24.7962H357.434V26.5602H357.435Z" fill="white"/>
<path d="M12.6002 196.959L13.9592 197.357C14.2792 197.451 14.2843 197.904 13.9643 198.002L12.6383 198.412C10.4903 199.076 8.78725 200.722 8.05025 202.846L7.43425 204.62C7.32725 204.93 6.88525 204.919 6.79325 204.604L6.37625 203.182C5.69725 200.866 3.88625 199.055 1.57025 198.376L0.24225 197.987C-0.08075 197.892 -0.08075 197.435 0.24225 197.34L1.56925 196.952C3.88425 196.276 5.69325 194.466 6.36925 192.151L6.75725 190.824C6.85125 190.501 7.30925 190.501 7.40425 190.824L7.79325 192.152C8.47325 194.468 10.2852 196.28 12.6002 196.959Z" fill="#EDB82B"/>
<path d="M331.948 54.9261L333.307 55.3241C333.627 55.4181 333.631 55.8711 333.312 55.9691L331.986 56.3791C329.838 57.0431 328.135 58.6891 327.398 60.8131L326.783 62.5871C326.676 62.8971 326.234 62.8861 326.142 62.5711L325.725 61.1491C325.046 58.8331 323.235 57.0221 320.919 56.3431L319.591 55.9541C319.268 55.8591 319.267 55.4021 319.591 55.3071L320.918 54.9191C323.233 54.2431 325.042 52.4331 325.718 50.1191L326.106 48.7921C326.2 48.4691 326.658 48.4691 326.753 48.7921L327.142 50.1201C327.821 52.4361 329.632 54.2481 331.948 54.9261Z" fill="#EDB82B"/>
<path d="M298.497 17.2613L299.296 17.4953C299.484 17.5503 299.487 17.8163 299.299 17.8743L298.52 18.1153C297.257 18.5053 296.255 19.4733 295.822 20.7223L295.46 21.7653C295.397 21.9473 295.137 21.9403 295.083 21.7553L294.838 20.9193C294.439 19.5573 293.374 18.4923 292.012 18.0933L291.231 17.8643C291.041 17.8083 291.041 17.5393 291.231 17.4843L292.012 17.2563C293.373 16.8593 294.437 15.7943 294.835 14.4333L295.063 13.6523C295.118 13.4623 295.387 13.4623 295.443 13.6523L295.672 14.4333C296.07 15.7973 297.135 16.8623 298.497 17.2613Z" fill="#EDB82B"/>
<path d="M410.724 200.952L411.523 201.186C411.711 201.241 411.714 201.508 411.526 201.565L410.747 201.806C409.484 202.196 408.482 203.164 408.049 204.413L407.687 205.456C407.624 205.638 407.364 205.632 407.31 205.446L407.065 204.61C406.666 203.248 405.601 202.183 404.239 201.784L403.458 201.555C403.268 201.499 403.268 201.23 403.458 201.175L404.239 200.947C405.6 200.55 406.664 199.485 407.062 198.124L407.29 197.343C407.346 197.153 407.615 197.153 407.67 197.343L407.899 198.124C408.297 199.487 409.362 200.552 410.724 200.952Z" fill="#EDB82B"/>
<path d="M359.388 263.255L360.459 263.569C360.712 263.643 360.715 264 360.463 264.078L359.418 264.401C357.724 264.924 356.382 266.222 355.801 267.897L355.316 269.296C355.231 269.54 354.883 269.531 354.81 269.283L354.481 268.162C353.946 266.336 352.518 264.908 350.692 264.373L349.645 264.066C349.39 263.991 349.39 263.63 349.645 263.556L350.692 263.251C352.517 262.718 353.943 261.291 354.476 259.466L354.782 258.419C354.856 258.164 355.217 258.165 355.292 258.419L355.599 259.466C356.134 261.291 357.562 262.72 359.388 263.255Z" fill="#EDB82B"/>
<path d="M77.9143 32.786L78.6743 33.009C78.8533 33.061 78.8563 33.315 78.6773 33.37L77.9352 33.599C76.7332 33.971 75.7803 34.892 75.3683 36.08L75.0243 37.073C74.9643 37.246 74.7173 37.24 74.6653 37.064L74.4323 36.268C74.0523 34.972 73.0383 33.958 71.7433 33.579L71.0003 33.361C70.8193 33.308 70.8193 33.052 71.0003 32.999L71.7433 32.782C73.0393 32.404 74.0513 31.391 74.4293 30.096L74.6463 29.353C74.6993 29.172 74.9553 29.172 75.0083 29.353L75.2262 30.096C75.6042 31.392 76.6183 32.406 77.9143 32.786Z" fill="#EDB82B"/>
<path d="M35.2692 226.125L36.0292 226.348C36.2082 226.4 36.2112 226.654 36.0322 226.709L35.2902 226.938C34.0882 227.309 33.1352 228.231 32.7232 229.419L32.3792 230.412C32.3192 230.585 32.0722 230.579 32.0202 230.403L31.7872 229.607C31.4072 228.311 30.3932 227.297 29.0982 226.917L28.3552 226.699C28.1742 226.646 28.1742 226.39 28.3552 226.337L29.0982 226.12C30.3942 225.742 31.4062 224.729 31.7842 223.434L32.0012 222.691C32.0542 222.51 32.3102 222.51 32.3632 222.691L32.5812 223.434C32.9602 224.732 33.9732 225.745 35.2692 226.125Z" fill="#EDB82B"/>
<path d="M166.367 6.37625L167.726 6.77425C168.046 6.86825 168.05 7.32124 167.731 7.41924L166.405 7.82925C164.257 8.49325 162.554 10.1392 161.817 12.2632L161.202 14.0372C161.095 14.3472 160.653 14.3362 160.561 14.0212L160.144 12.5992C159.465 10.2832 157.654 8.47224 155.338 7.79324L154.01 7.40424C153.687 7.30924 153.686 6.85225 154.01 6.75725L155.337 6.36925C157.652 5.69325 159.461 3.88325 160.137 1.56925L160.525 0.24225C160.619 -0.08075 161.077 -0.08075 161.172 0.24225L161.561 1.57025C162.24 3.88625 164.052 5.69725 166.367 6.37625Z" fill="#EDB82B"/>
<path d="M8.32227 283.099H422.391" stroke="#160033" stroke-width="1.0812" stroke-miterlimit="10"/>
<path d="M149.148 48.5503L18.0832 86.9863L10.4902 89.3523L14.4372 102.019L15.7202 106.145L22.3842 127.591L23.6692 131.694L30.2282 152.793L31.5112 156.919L38.0312 177.898L39.3142 182.024L45.9132 203.22L47.1962 207.346L53.7162 228.325L54.9992 232.451L61.6622 253.897L62.9472 258L70.4352 282.086L78.0282 279.72L219.196 235.815L214.983 222.261L214.734 221.469L210.339 207.327L210.09 206.535L205.695 192.393L205.445 191.601L201.05 177.459L200.8 176.667L196.393 162.536L196.156 161.733L191.749 147.602L191.499 146.81L187.104 132.668L186.854 131.876L182.459 117.734L182.209 116.942L177.814 102.8L177.564 102.008C177.567 102.011 152.603 55.8833 149.148 48.5503ZM36.6952 91.7993C40.4132 90.6513 44.3732 92.7363 45.5212 96.4543C46.6922 100.173 44.6072 104.134 40.8892 105.281C37.1592 106.439 33.2092 104.367 32.0512 100.637C31.6402 99.3063 31.6432 97.9213 31.9882 96.6783C32.2422 95.7343 32.7032 94.8513 33.3192 94.0963C34.1672 93.0533 35.3162 92.2303 36.6952 91.7993ZM51.9292 128.407C51.6102 128.772 51.2592 129.099 50.8752 129.389C50.2552 129.862 49.5362 130.246 48.7332 130.483C45.0032 131.641 41.0642 129.582 39.8932 125.863C39.5222 124.628 39.4812 123.37 39.7622 122.205C39.9692 121.257 40.3832 120.371 40.9542 119.59C41.8112 118.406 43.0372 117.495 44.5362 117.025C48.2542 115.878 52.2042 117.95 53.3742 121.669C54.1212 124.09 53.4972 126.628 51.9292 128.407ZM59.7712 153.632C59.4522 153.997 59.1002 154.324 58.7042 154.625C58.0732 155.085 57.3542 155.469 56.5752 155.708C52.8452 156.866 48.8842 154.782 47.7372 151.064C47.3532 149.84 47.3232 148.594 47.5942 147.417C47.8012 146.469 48.2152 145.583 48.7992 144.791C49.6552 143.631 50.8932 142.708 52.3802 142.249C56.0992 141.078 60.0492 143.15 61.2202 146.87C61.9632 149.315 61.3392 151.853 59.7712 153.632ZM67.6402 178.812C67.5632 178.901 67.4742 179 67.3872 179.076C66.5882 179.924 65.5822 180.557 64.4062 180.92C60.6992 182.08 56.7382 179.995 55.5912 176.278C55.1872 175.006 55.1842 173.715 55.4792 172.516C55.6972 171.581 56.1242 170.684 56.7062 169.915C57.5602 168.778 58.7712 167.901 60.2232 167.451C63.9422 166.28 67.9032 168.365 69.0502 172.083C69.8062 174.517 69.1842 177.031 67.6402 178.812ZM76.9042 197.296C77.6602 199.731 77.0242 202.279 75.4562 204.059C75.1372 204.424 74.7732 204.762 74.3772 205.063C73.7462 205.523 73.0522 205.885 72.2602 206.135C68.5302 207.294 64.5802 205.221 63.4222 201.491C63.0382 200.267 63.0082 199.021 63.2892 197.856C63.4852 196.896 63.9012 195.986 64.4832 195.217C65.3402 194.033 66.5662 193.122 68.0662 192.652C71.7842 191.505 75.7442 193.589 76.9042 197.296ZM92.5772 247.734C93.3442 250.181 92.6952 252.741 91.1152 254.531C90.4912 255.226 89.7112 255.817 88.8142 256.224C88.5352 256.357 88.2572 256.467 87.9462 256.562C84.2272 257.733 80.2662 255.648 79.1182 251.93C78.7532 250.778 78.7072 249.59 78.9372 248.491C79.1102 247.529 79.4902 246.629 80.0502 245.835C80.9022 244.569 82.1912 243.58 83.7622 243.092C87.4692 241.931 91.4302 244.016 92.5772 247.734ZM71.2642 226.715C70.8602 225.443 70.8572 224.152 71.1412 222.94C71.3822 222.006 71.8092 221.109 72.3912 220.341C73.2452 219.204 74.4562 218.327 75.9082 217.877C79.6382 216.719 83.5882 218.791 84.7462 222.521C85.5022 224.956 84.8682 227.481 83.3232 229.262C83.2722 229.329 83.2212 229.372 83.1702 229.439C82.3462 230.308 81.3132 230.987 80.1022 231.36C76.3842 232.507 72.4242 230.423 71.2642 226.715Z" fill="#EDB82B"/>
<path d="M165.354 43.6201L18.0833 86.9861L20.7833 95.6701L21.6443 98.4531L28.7423 121.232L29.5923 124.002L36.5732 146.444L37.4463 149.215L44.3883 171.538L45.2493 174.321L52.2593 196.871L53.1333 199.643L60.0752 221.966L60.9362 224.748L68.0223 247.538L68.8853 250.297L78.0293 279.72L78.2513 280.404L227.222 234.828L165.354 43.6201ZM88.8143 256.223C88.5353 256.356 88.2573 256.466 87.9463 256.561C84.2273 257.732 80.2663 255.647 79.1183 251.929C78.7533 250.777 78.7073 249.589 78.9373 248.49C79.1103 247.528 79.4903 246.628 80.0503 245.834C80.9023 244.568 82.1913 243.579 83.7623 243.091C87.4693 241.931 91.4293 244.015 92.5773 247.733C93.3443 250.18 92.6952 252.74 91.1152 254.53C90.4922 255.226 89.7113 255.817 88.8143 256.223ZM71.2643 226.715C70.8603 225.443 70.8573 224.152 71.1413 222.94C71.3823 222.006 71.8093 221.109 72.3913 220.341C73.2453 219.204 74.4562 218.327 75.9082 217.877C79.6382 216.719 83.5883 218.791 84.7463 222.521C85.5023 224.956 84.8682 227.481 83.3232 229.262C83.2722 229.329 83.2212 229.372 83.1702 229.439C82.3462 230.308 81.3132 230.987 80.1022 231.36C76.3842 232.507 72.4243 230.423 71.2643 226.715ZM40.8903 105.281C37.1603 106.439 33.2103 104.367 32.0523 100.637C31.6413 99.3061 31.6443 97.9211 31.9893 96.6781C32.2433 95.7341 32.7043 94.8511 33.3203 94.0961C34.1683 93.0531 35.3163 92.2291 36.6963 91.7981C40.4143 90.6501 44.3743 92.7351 45.5223 96.4531C46.6923 100.173 44.6073 104.134 40.8903 105.281ZM53.3753 121.668C54.1213 124.091 53.4973 126.628 51.9293 128.407C51.6103 128.772 51.2593 129.099 50.8753 129.389C50.2553 129.862 49.5363 130.246 48.7333 130.483C45.0033 131.641 41.0642 129.582 39.8932 125.863C39.5222 124.628 39.4813 123.37 39.7623 122.205C39.9693 121.257 40.3833 120.371 40.9543 119.59C41.8113 118.406 43.0373 117.495 44.5363 117.025C48.2553 115.876 52.2053 117.948 53.3753 121.668ZM61.2193 146.87C61.9633 149.316 61.3393 151.853 59.7713 153.632C59.4523 153.997 59.1003 154.324 58.7043 154.625C58.0733 155.085 57.3542 155.469 56.5752 155.708C52.8452 156.866 48.8843 154.782 47.7373 151.064C47.3533 149.84 47.3233 148.594 47.5943 147.417C47.8013 146.469 48.2153 145.583 48.7993 144.791C49.6553 143.631 50.8932 142.708 52.3802 142.249C56.0982 141.078 60.0483 143.15 61.2193 146.87ZM69.0503 172.082C69.8063 174.517 69.1843 177.031 67.6403 178.812C67.5633 178.901 67.4743 179 67.3873 179.076C66.5883 179.924 65.5822 180.557 64.4062 180.92C60.6992 182.08 56.7383 179.995 55.5913 176.278C55.1873 175.006 55.1843 173.715 55.4793 172.516C55.6973 171.581 56.1243 170.684 56.7063 169.915C57.5603 168.778 58.7713 167.901 60.2233 167.451C63.9423 166.28 67.9033 168.364 69.0503 172.082ZM76.9043 197.296C77.6603 199.731 77.0243 202.279 75.4563 204.059C75.1373 204.424 74.7733 204.762 74.3773 205.063C73.7463 205.523 73.0523 205.885 72.2603 206.135C68.5303 207.294 64.5802 205.221 63.4222 201.491C63.0382 200.267 63.0083 199.021 63.2893 197.856C63.4853 196.896 63.9013 195.986 64.4833 195.217C65.3403 194.033 66.5663 193.122 68.0663 192.652C71.7843 191.505 75.7443 193.589 76.9043 197.296Z" fill="white"/>
<path d="M33.3194 94.096C30.3604 93.29 27.1574 93.289 24.0144 94.265C22.8624 94.63 21.7744 95.094 20.7834 95.67C18.0844 97.182 15.9104 99.4 14.4364 102.019C12.2404 105.901 11.5794 110.642 13.0074 115.213C14.4154 119.735 17.5834 123.254 21.5174 125.208L20.2154 121.01C18.1484 119.363 16.5604 117.081 15.7174 114.37C14.8564 111.588 14.9034 108.74 15.7184 106.145C16.6904 102.998 18.7734 100.223 21.6434 98.452C22.6254 97.84 23.7044 97.341 24.8564 96.976C27.2554 96.229 29.7004 96.166 31.9884 96.678C36.1714 97.605 39.8194 100.465 41.6564 104.548C42.6994 104.058 43.5184 103.435 44.0534 102.991C41.9154 98.512 37.9264 95.334 33.3194 94.096Z" fill="#461CB8"/>
<path d="M40.9552 119.589C38.0852 118.86 34.9842 118.901 31.9612 119.838C30.8222 120.192 29.7442 120.668 28.7422 121.232C26.0202 122.742 23.8572 124.973 22.3832 127.592C20.1992 131.464 19.5382 136.204 20.9662 140.775C22.3632 145.285 25.5312 148.804 29.4762 150.77L28.1622 146.583C26.0972 144.913 24.4962 142.642 23.6642 139.944C22.7922 137.149 22.8522 134.29 23.6672 131.696C24.6382 128.549 26.7212 125.797 29.5922 124.003C30.5732 123.391 31.6532 122.892 32.8052 122.527C35.1432 121.811 37.5302 121.732 39.7622 122.205C44.0182 123.09 47.7472 125.968 49.6052 130.099C50.0772 129.886 50.4942 129.633 50.8752 129.39C51.3422 129.094 51.7152 128.792 52.0132 128.555C51.9932 128.507 51.9622 128.446 51.9292 128.408C49.7332 123.912 45.6382 120.738 40.9552 119.589Z" fill="#461CB8"/>
<path d="M48.7982 144.79C45.9272 144.061 42.8272 144.102 39.8042 145.04C38.6522 145.405 37.5641 145.869 36.5731 146.444C33.8741 147.956 31.7001 150.174 30.2261 152.793C28.0301 156.675 27.3692 161.416 28.7972 165.987C30.2052 170.509 33.3852 174.017 37.3072 175.982L36.0061 171.784C33.9511 170.126 32.3512 167.855 31.5082 165.145C30.6472 162.362 30.6942 159.515 31.5092 156.92C32.4932 153.762 34.5642 150.997 37.4462 149.216C38.4282 148.604 39.4942 148.116 40.6472 147.751C42.9742 147.022 45.3622 146.943 47.5932 147.416C51.8492 148.301 55.5902 151.168 57.4592 155.312C57.9082 155.097 58.3362 154.857 58.7042 154.625C59.1722 154.306 59.5562 154.016 59.8442 153.766C59.8242 153.718 59.8042 153.669 59.7712 153.632C57.5752 149.137 53.4922 145.952 48.7982 144.79Z" fill="#461CB8"/>
<path d="M56.7062 169.915C53.8012 169.172 50.6672 169.198 47.6082 170.146C46.4692 170.5 45.3912 170.976 44.3892 171.54C41.6672 173.051 39.5042 175.281 38.0302 177.9C35.8342 181.782 35.1852 186.513 36.6012 191.094C38.0212 195.605 41.1782 199.112 45.1112 201.089L43.8102 196.891C41.7552 195.233 40.1542 192.962 39.3122 190.251C38.4512 187.468 38.4982 184.62 39.3142 182.026C40.2852 178.879 42.3692 176.103 45.2512 174.322C46.2332 173.71 47.3122 173.211 48.4642 172.846C50.8152 172.119 53.2252 172.042 55.4802 172.517C59.6982 173.434 63.4062 176.287 65.2632 180.419C66.1492 180 66.8662 179.487 67.3872 179.078C67.4852 179.014 67.5732 178.938 67.6602 178.862C67.6492 178.85 67.6512 178.826 67.6402 178.814C65.4692 174.295 61.3862 171.111 56.7062 169.915Z" fill="#461CB8"/>
<path d="M64.4832 195.217C61.6132 194.488 58.5122 194.529 55.4892 195.467C54.3372 195.832 53.2492 196.296 52.2582 196.872C49.5592 198.384 47.3852 200.602 45.9112 203.221C43.7152 207.103 43.0542 211.844 44.4822 216.415C45.8902 220.937 49.0582 224.457 52.9932 226.41L51.6912 222.212C49.6372 220.555 48.0362 218.283 47.1932 215.573C46.3322 212.791 46.3792 209.943 47.1942 207.348C48.1782 204.19 50.2492 201.426 53.1322 199.645C54.1132 199.033 55.1802 198.545 56.3322 198.179C58.6702 197.463 61.0582 197.384 63.2892 197.857C67.5452 198.742 71.2762 201.596 73.1442 205.74C73.5932 205.525 74.0082 205.296 74.3772 205.064C74.8452 204.745 75.2422 204.444 75.5292 204.194C75.5092 204.146 75.4892 204.097 75.4562 204.06C73.2612 199.564 69.1782 196.379 64.4832 195.217Z" fill="#461CB8"/>
<path d="M72.3912 220.341C69.4862 219.598 66.3512 219.624 63.2932 220.572C62.1532 220.926 61.0762 221.402 60.0742 221.966C57.3522 223.476 55.1892 225.707 53.7152 228.326C51.5192 232.209 50.8702 236.939 52.2862 241.52C53.7062 246.031 56.8742 249.55 60.7962 251.515L59.4952 247.317C57.4402 245.659 55.8402 243.388 54.9972 240.677C54.1362 237.895 54.1832 235.047 54.9992 232.452C55.9702 229.305 58.0542 226.529 60.9362 224.748C61.9182 224.136 62.9972 223.637 64.1492 223.272C66.5002 222.545 68.8872 222.466 71.1422 222.941C75.3732 223.847 79.0912 226.713 80.9492 230.844C81.8832 230.405 82.6482 229.872 83.1712 229.439L83.3462 229.287C83.3352 229.275 83.3352 229.275 83.3242 229.262C81.1652 224.734 77.0712 221.537 72.3912 220.341Z" fill="#461CB8"/>
<path d="M80.0502 245.835C77.2462 245.158 74.2032 245.214 71.2522 246.134C70.1002 246.499 69.0122 246.963 68.0212 247.539C65.3092 249.062 63.1362 251.28 61.6622 253.899C59.4782 257.771 58.8172 262.512 60.2452 267.082C61.6422 271.592 64.8222 275.1 68.7552 277.077L67.4542 272.879C65.3892 271.209 63.7882 268.938 62.9562 266.239C62.0952 263.456 62.1422 260.609 62.9472 258.001C63.9182 254.854 66.0022 252.079 68.8842 250.298C69.8662 249.686 70.9322 249.198 72.0842 248.833C74.3862 248.126 76.7402 248.033 78.9372 248.492C83.1962 249.33 86.9182 252.149 88.8142 256.224C88.8452 256.285 88.8652 256.333 88.8962 256.394C89.9272 255.915 90.7682 255.293 91.2922 254.861C91.2412 254.752 91.1792 254.63 91.1162 254.532C88.8592 250.066 84.7472 246.95 80.0502 245.835Z" fill="#461CB8"/>
<path d="M168.332 72.1953C168.442 72.4553 168.548 72.6533 168.715 73.0003L57.6111 107.438C57.4071 107.506 57.1691 107.384 57.1031 107.156C57.0351 106.952 57.1571 106.714 57.3621 106.646L168.332 72.1953Z" fill="#7AD8CF"/>
<path d="M174.32 87.0703C174.379 87.2383 174.308 87.4093 174.196 87.5073C174.184 87.5183 174.171 87.5293 174.171 87.5293C174.133 87.5623 174.096 87.5943 174.049 87.5913L173.173 87.8703L62.2553 122.372C62.0513 122.44 61.8134 122.318 61.7474 122.09C61.6794 121.886 61.8013 121.648 62.0183 121.569L172.923 87.0773L173.344 86.9313L173.799 86.7993C174.027 86.7333 174.252 86.8663 174.32 87.0703Z" fill="#7AD8CF"/>
<path d="M178.841 102.445C178.799 102.481 178.749 102.51 178.693 102.528L66.9081 137.301C66.6901 137.369 66.4582 137.247 66.3902 137.029C66.3222 136.811 66.4472 136.579 66.6632 136.511L178.447 101.739C178.665 101.671 178.897 101.793 178.965 102.011C179.015 102.172 178.961 102.341 178.841 102.445Z" fill="#7AD8CF"/>
<path d="M183.486 117.377C183.444 117.414 183.394 117.442 183.338 117.46L71.5523 152.232C71.3343 152.3 71.1023 152.177 71.0343 151.96C70.9673 151.742 71.0943 151.51 71.3063 151.442L183.092 116.669C183.31 116.601 183.542 116.724 183.61 116.941C183.66 117.104 183.606 117.272 183.486 117.377Z" fill="#7AD8CF"/>
<path d="M188.131 132.308C188.089 132.345 188.039 132.373 187.982 132.391L76.1961 167.163C75.9781 167.231 75.7461 167.108 75.6781 166.891C75.6111 166.672 75.7351 166.443 75.9501 166.373L187.736 131.601C187.954 131.533 188.186 131.655 188.254 131.873C188.305 132.035 188.251 132.204 188.131 132.308Z" fill="#7AD8CF"/>
<path d="M192.775 147.241C192.733 147.278 192.683 147.306 192.627 147.324L80.8423 182.096C80.6243 182.164 80.3923 182.042 80.3243 181.824C80.2573 181.606 80.3823 181.375 80.5963 181.306L192.381 146.534C192.6 146.466 192.831 146.588 192.9 146.806C192.949 146.967 192.895 147.136 192.775 147.241Z" fill="#7AD8CF"/>
<path d="M197.42 162.172C197.378 162.208 197.328 162.237 197.271 162.255L85.4873 197.028C85.2693 197.096 85.0373 196.974 84.9693 196.756C84.9023 196.537 85.0273 196.308 85.2413 196.238L197.025 161.466C197.243 161.398 197.475 161.52 197.543 161.738C197.593 161.898 197.54 162.067 197.42 162.172Z" fill="#7AD8CF"/>
<path d="M202.065 177.103C202.023 177.14 201.973 177.168 201.917 177.186L90.1313 211.958C89.9133 212.026 89.6813 211.904 89.6133 211.686C89.5463 211.466 89.6723 211.237 89.8853 211.168L201.671 176.395C201.889 176.327 202.121 176.45 202.189 176.668C202.238 176.83 202.185 176.999 202.065 177.103Z" fill="#7AD8CF"/>
<path d="M206.71 192.035C206.668 192.071 206.618 192.1 206.562 192.118L94.7762 226.89C94.5582 226.958 94.3262 226.836 94.2582 226.618C94.1922 226.399 94.3182 226.169 94.5302 226.1L206.315 191.328C206.533 191.26 206.765 191.382 206.833 191.6C206.883 191.762 206.83 191.93 206.71 192.035Z" fill="#7AD8CF"/>
<path d="M211.354 206.967C211.312 207.004 211.262 207.032 211.206 207.05L99.4212 241.822C99.2032 241.89 98.9712 241.768 98.9032 241.55C98.8352 241.33 98.9622 241.101 99.1752 241.032L210.96 206.26C211.178 206.192 211.41 206.315 211.478 206.532C211.528 206.694 211.474 206.863 211.354 206.967Z" fill="#7AD8CF"/>
<path d="M215.998 221.898C215.956 221.935 215.906 221.963 215.85 221.981L104.065 256.753C103.846 256.821 103.615 256.698 103.547 256.481C103.48 256.261 103.604 256.031 103.819 255.963L215.604 221.191C215.823 221.123 216.054 221.245 216.122 221.463C216.172 221.625 216.119 221.794 215.998 221.898Z" fill="#7AD8CF"/>
<path d="M134.591 206.899L127.589 203.728L117.128 198.997L63.1772 124.258L76.1792 115.987L130.357 187.29L130.503 187.477L132.909 198.931L134.591 206.899Z" fill="#7AD8CF"/>
<path d="M120.105 195.211C119.991 195.283 119.832 195.264 119.744 195.147L118.531 193.492L66.2222 122.32L66.6592 122.042L118.838 193.03L120.163 194.84C120.254 194.983 120.223 195.123 120.105 195.211Z" fill="#461CB8"/>
<path d="M126.692 190.435C126.584 190.517 126.419 190.488 126.338 190.381L125.185 188.862L72.0513 118.614L72.4883 118.336L125.379 188.244L126.75 190.064C126.847 190.176 126.809 190.347 126.692 190.435Z" fill="#461CB8"/>
<path d="M125.227 188.268L130.36 187.289L130.5 187.481L132.906 198.93L134.588 206.903L127.586 203.731L117.126 199L118.641 193.04L124.866 193.034L125.227 188.268Z" fill="#E481A7"/>
<path d="M132.906 198.93L134.588 206.903L127.586 203.731C128.809 201.756 130.582 200.115 132.655 199.059C132.739 199.016 132.822 198.973 132.906 198.93Z" fill="#160033"/>
<path d="M127.85 69.9444C124.692 76.0594 117.657 75.8314 113.339 75.0794C111.642 74.7624 110.394 74.3844 110.082 74.2814C110.026 74.2654 109.996 74.2524 109.996 74.2524L111.817 87.2584C111.927 87.9974 111.437 88.6934 110.71 88.8354L105.579 89.8094L105.413 89.8344L99.9802 61.5074C99.8262 60.6854 100.341 59.8934 101.147 59.6964L102.602 59.3494C102.602 59.3494 106.028 47.7684 115.917 48.6554C126.639 49.6204 133.351 59.2904 127.85 69.9444Z" fill="#461CB8"/>
<path d="M113.338 75.0792C111.641 74.7622 110.393 74.3843 110.081 74.2812C109.75 72.0893 108.733 64.6772 108.733 64.6772L113.338 75.0792Z" fill="#160033"/>
<path d="M118.947 63.2595C118.555 62.2345 117.889 61.3875 117.068 60.8615C116.22 60.3165 115.305 60.1955 114.5 60.5015C113.684 60.8095 113.09 61.5135 112.827 62.4885C112.557 63.4295 112.629 64.5105 113.021 65.5345C113.424 66.5575 114.09 67.4045 114.912 67.9305C115.601 68.3735 116.336 68.5385 117.02 68.4185C117.18 68.3905 117.326 68.3535 117.48 68.2905C118.285 67.9845 118.878 67.2805 119.153 66.3035C119.325 65.6735 119.355 64.9745 119.23 64.2675C119.17 63.9255 119.075 63.5895 118.947 63.2595ZM118.597 66.1545C118.372 66.9465 117.906 67.5105 117.267 67.7525C116.639 67.9925 115.914 67.8845 115.225 67.4405C114.499 66.9915 113.92 66.2355 113.571 65.3205C113.213 64.4195 113.151 63.4655 113.382 62.6375C113.598 61.8585 114.073 61.2815 114.701 61.0425C114.811 60.9995 114.935 60.9665 115.049 60.9465C115.596 60.8505 116.186 60.9935 116.755 61.3525C117.469 61.8035 118.06 62.5575 118.409 63.4725C118.755 64.3745 118.828 65.3265 118.597 66.1545Z" fill="#FF8C9C"/>
<path d="M169.628 80.6426C166.47 86.7576 159.435 86.5296 155.116 85.7776C153.42 85.4606 152.171 85.0826 151.859 84.9796C151.803 84.9636 151.773 84.9506 151.773 84.9506L153.594 97.9566C153.704 98.6956 153.214 99.3916 152.487 99.5336L147.188 100.533L147.19 100.534L141.757 72.2066C141.603 71.3846 142.118 70.5926 142.923 70.3956L144.378 70.0486C144.378 70.0486 147.804 58.4676 157.693 59.3546C168.417 60.3176 175.13 69.9876 169.628 80.6426Z" fill="#461CB8"/>
<path d="M155.116 85.7775C153.42 85.4605 152.171 85.0825 151.859 84.9795C151.528 82.7875 150.511 75.3765 150.511 75.3765L155.116 85.7775Z" fill="#160033"/>
<path d="M160.733 73.9567C160.33 72.9337 159.662 72.0757 158.842 71.5607C157.994 71.0157 157.079 70.8947 156.274 71.2007C155.469 71.5067 154.876 72.2107 154.601 73.1877C154.341 74.1157 154.415 75.2077 154.807 76.2317C155.199 77.2567 155.865 78.1037 156.686 78.6297C157.387 79.0707 158.11 79.2377 158.794 79.1177C158.954 79.0897 159.111 79.0507 159.254 78.9897C160.07 78.6817 160.664 77.9777 160.927 77.0027C161.11 76.3707 161.138 75.6607 161.016 74.9647C160.956 74.6237 160.861 74.2877 160.733 73.9567ZM160.372 76.8547C160.156 77.6337 159.681 78.2107 159.053 78.4497C158.425 78.6897 157.689 78.5837 157 78.1397C156.286 77.6887 155.695 76.9347 155.346 76.0197C154.997 75.1047 154.924 74.1537 155.157 73.3367C155.382 72.5447 155.848 71.9807 156.476 71.7407C156.597 71.6957 156.71 71.6647 156.835 71.6427C157.371 71.5487 157.972 71.6897 158.529 72.0507C159.255 72.4997 159.834 73.2557 160.183 74.1707C160.541 75.0727 160.602 76.0257 160.372 76.8547Z" fill="#FF8C9C"/>
<path d="M177.853 223.525C174.818 219.862 170.592 217.169 166.506 214.564C161.102 211.119 155.514 207.555 152.667 201.721C151.04 198.387 150.511 194.595 150.208 191.323C149.777 186.653 149.692 181.911 149.957 177.229C150.036 175.835 150.145 174.433 150.254 173.03C150.681 167.549 151.122 161.882 149.658 156.599C148.448 152.236 145.358 148.002 141.401 146.014C140.548 149.086 137.824 152.139 134.971 153.184C133.129 153.854 131.409 153.675 130 152.652C128.891 151.848 128.478 150.634 128.838 149.233C129.486 146.71 132.524 144.106 135.257 143.765C137.101 143.534 138.885 143.782 140.551 144.393C141.026 140.964 139.957 136.977 137.366 132.524C133.838 126.46 129.308 121.589 122.221 116.237C111.559 108.189 109.433 99.6753 107.762 89.3813L108.905 89.1953C110.253 97.4963 111.781 106.905 122.919 115.313C130.137 120.762 134.757 125.736 138.368 131.942C141.21 136.827 142.29 141.065 141.654 144.858C146.041 146.952 149.461 151.546 150.775 156.29C152.294 161.768 151.845 167.539 151.41 173.119C151.301 174.515 151.193 175.907 151.114 177.294C150.853 181.919 150.936 186.603 151.363 191.217C151.67 194.543 152.168 198.057 153.709 201.213C156.413 206.756 161.619 210.074 167.13 213.588C171.292 216.242 175.596 218.986 178.747 222.787L177.853 223.525ZM135.19 144.945C132.978 145.334 130.478 147.498 129.958 149.521C129.718 150.455 129.96 151.194 130.678 151.714C132.047 152.706 133.549 152.467 134.572 152.096C137.156 151.15 139.624 148.336 140.328 145.539C138.778 144.945 137.116 144.699 135.4 144.913C135.329 144.922 135.259 144.933 135.19 144.945Z" fill="#E481A7"/>
<path d="M186.763 205.926C183.814 202.211 178.381 202.77 173.127 203.31C172.429 203.381 171.741 203.452 171.07 203.512C166.542 203.91 160.853 201.281 158.646 197.77C154.85 191.736 154.606 183.036 157.993 174.503C160.423 168.381 162.502 162.579 165.167 154.476C167.363 147.799 166.991 139.095 161.211 134.704C159.569 133.456 157.477 132.682 155.454 131.933C152.469 130.828 149.382 129.685 147.583 126.986C144.843 122.873 146.517 115.71 147.994 109.39C148.862 105.675 149.682 102.166 149.342 100.151L150.484 99.9585C150.863 102.202 150.056 105.655 149.122 109.653C147.699 115.744 146.085 122.647 148.548 126.343C150.137 128.729 152.916 129.757 155.857 130.846C157.959 131.624 160.132 132.43 161.912 133.781C168.146 138.517 168.592 147.769 166.268 154.837C163.595 162.963 161.509 168.784 159.069 174.928C155.817 183.12 156.025 191.428 159.626 197.151C161.595 200.282 166.895 202.713 170.969 202.356C171.635 202.298 172.317 202.227 173.009 202.156C178.313 201.611 184.326 200.995 187.67 205.206L186.763 205.926Z" fill="#E481A7"/>
<path d="M275.57 21.1654C292.027 41.0684 289.232 70.5414 269.33 86.9974C249.427 103.453 219.954 100.661 203.498 80.7584C187.043 60.8574 189.836 31.3834 209.739 14.9264C229.64 -1.52959 259.114 1.26441 275.57 21.1654Z" fill="#160033"/>
<mask id="mask0_59_3280" style="mask-type:luminance" maskUnits="userSpaceOnUse" x="192" y="4" width="95" height="94">
<path d="M275.57 21.1654C292.027 41.0684 289.232 70.5414 269.33 86.9974C249.427 103.453 219.954 100.661 203.498 80.7584C187.043 60.8574 189.836 31.3834 209.739 14.9264C229.64 -1.52959 259.114 1.26441 275.57 21.1654Z" fill="white"/>
</mask>
<g mask="url(#mask0_59_3280)">
<path d="M250.52 -6.99665C250.895 -6.94665 251.294 -6.85965 251.662 -6.77865L250.75 -6.43165L250.011 -6.14365L238.657 -1.71565L237.918 -1.42665L226.557 3.03236L225.856 3.29736L214.465 7.74935L213.764 8.01335L202.41 12.4414L201.702 12.7364L193.618 15.8864C193.889 15.5284 194.137 15.1313 194.377 14.7663L201.406 12.0284L202.145 11.7393L213.499 7.31136L214.207 7.01635L225.561 2.58836L226.3 2.30035L237.654 -2.12765L238.392 -2.41565L249.715 -6.85065L250.243 -7.05665L250.454 -7.13965L250.52 -6.99665Z" fill="#E481A7"/>
<path d="M269.986 -0.00383759L267.56 0.94416L266.822 1.23316L255.468 5.66116L254.73 5.94917L243.376 10.3772L242.638 10.6662L231.314 15.1012L230.576 15.3902L219.215 19.8482L218.483 20.1062L207.159 24.5402L206.421 24.8292L195.06 29.2872L194.328 29.5452L184.376 33.4442C184.542 33.1272 184.677 32.8032 184.819 32.4482L194.033 28.8382L194.771 28.5502L206.125 24.1222L206.863 23.8342L218.217 19.4062L218.925 19.1112L230.279 14.6832L231.017 14.3952L242.371 9.96716L243.109 9.67816L254.439 5.21317L255.177 4.92416L266.531 0.496162L267.269 0.20816L269.093 -0.48584C269.388 -0.35984 269.706 -0.193838 269.986 -0.00383759Z" fill="#E481A7"/>
<path d="M281.875 9.28529L272.276 13.0363L271.538 13.3253L260.214 17.7603L259.476 18.0483L248.122 22.4763L247.384 22.7653L236.03 27.1933L235.292 27.4813L223.938 31.9093L223.23 32.2043L211.876 36.6323L211.137 36.9213L199.783 41.3493L199.044 41.6373L187.69 46.0663L186.952 46.3543L177.912 49.9063C178.047 49.5823 178.151 49.2513 178.294 48.8963L186.664 45.6153L187.402 45.3263L198.756 40.8983L199.494 40.6093L210.848 36.1813L211.586 35.8923L222.94 31.4643L223.648 31.1693L235.002 26.7413L235.74 26.4533L247.094 22.0253L247.832 21.7363L259.186 17.3083L259.924 17.0193L271.248 12.5843L271.986 12.2963L281.299 8.67529C281.512 8.88429 281.694 9.08529 281.875 9.28529Z" fill="#E481A7"/>
<path d="M289.551 20.1934L276.999 25.0994L276.261 25.3884L264.907 29.8164L264.168 30.1044L252.845 34.5384L252.107 34.8274L240.746 39.2864L240.014 39.5444L228.653 44.0024L227.921 44.2604L216.591 48.7254L215.86 48.9834L204.499 53.4414L203.761 53.7304L192.407 58.1584L191.669 58.4474L180.345 62.8824L179.607 63.1714L172.434 65.9744C172.532 65.6744 172.606 65.3374 172.704 65.0364L179.319 62.4324L180.057 62.1434L191.411 57.7154L192.15 57.4264L203.474 52.9914L204.212 52.7034L215.566 48.2754L216.305 47.9874L227.659 43.5594L228.367 43.2644L239.721 38.8364L240.459 38.5484L251.813 34.1204L252.552 33.8324L263.906 29.4044L264.644 29.1154L275.998 24.6874L276.736 24.3994L289.189 19.5044C289.301 19.7204 289.445 19.9444 289.551 20.1934Z" fill="#E481A7"/>
<path d="M294.23 32.3092L281.716 37.1912L280.978 37.4792L269.654 41.9142L268.916 42.2022L257.562 46.6302L256.824 46.9192L245.47 51.3472L244.732 51.6352L233.371 56.0942L232.67 56.3592L221.309 60.8182L220.578 61.0762L209.217 65.5352L208.479 65.8242L197.155 70.2592L196.417 70.5482L185.063 74.9762L184.325 75.2652L168.541 81.4242C168.571 81.1412 168.638 80.8342 168.712 80.4972L184.037 74.5262L184.775 74.2372L196.129 69.8092L196.867 69.5202L208.221 65.0922L208.929 64.7972L220.283 60.3692L221.021 60.0802L232.375 55.6522L233.083 55.3572L244.444 50.8992L245.176 50.6412L256.537 46.1822L257.275 45.8932L268.629 41.4652L269.367 41.1762L280.721 36.7482L281.46 36.4602L294.012 31.5542C294.086 31.7952 294.162 32.0372 294.23 32.3092Z" fill="#E481A7"/>
<path d="M296.558 45.3263L286.469 49.2593L285.731 49.5483L274.37 54.0063L273.632 54.2953L262.278 58.7233L261.54 59.0123L250.186 63.4403L249.448 63.7293L238.094 68.1573L238.087 68.1883L237.386 68.4533L226.032 72.8813L225.294 73.1703L213.933 77.6283L213.232 77.8933L201.871 82.3523L201.139 82.6103L189.778 87.0693L188.407 87.6053L188.377 87.5984C187.879 87.5214 187.419 87.4214 186.959 87.3204L188.752 86.6193L189.49 86.3303L200.851 81.8724L201.583 81.6143L212.944 77.1553L213.645 76.8903L225.006 72.4313L225.744 72.1423L237.098 67.7143L237.799 67.4493L237.806 67.4183L249.191 62.9974L249.898 62.7023L261.253 58.2743L261.991 57.9863L273.345 53.5583L274.083 53.2693L285.444 48.8113L286.182 48.5223L296.481 44.5063C296.488 44.7643 296.52 45.0603 296.558 45.3263Z" fill="#E481A7"/>
<path d="M296.988 59.0856L291.187 61.3526L290.449 61.6406L279.088 66.0996L278.35 66.3886L266.996 70.8166L266.258 71.1056L254.904 75.5336L254.196 75.8286L242.842 80.2566L242.104 80.5456L230.75 84.9736L230.042 85.2686L218.651 89.7206L217.95 89.9846L211.9 92.3586L210.489 92.0496L217.661 89.2466L218.362 88.9826L229.753 84.5306L230.461 84.2356L241.815 79.8076L242.554 79.5186L253.908 75.0906L254.616 74.7956L265.97 70.3676L266.709 70.0796L278.063 65.6516L278.801 65.3626L290.162 60.9036L290.9 60.6146L296.981 58.2476C296.979 58.5366 296.987 58.7956 296.988 59.0856Z" fill="#E481A7"/>
<path d="M295.903 73.4445L295.797 73.4855L295.79 73.5165L295.164 73.7335L283.81 78.1615L283.071 78.4495L271.741 82.9155L271.003 83.2035L259.649 87.6315L258.91 87.9195L247.556 92.3475L246.818 92.6355L235.464 97.0635L235.352 97.1355L233.941 96.8265L234.469 96.6205L235.177 96.3255L246.531 91.8975L247.269 91.6085L258.623 87.1805L259.361 86.8915L270.715 82.4635L271.454 82.1755L282.784 77.7105L283.523 77.4215L294.877 72.9935L295.616 72.7055L295.895 72.6055C295.879 72.8265 295.832 73.0415 295.822 73.2325L295.903 73.4445Z" fill="#E481A7"/>
<path d="M293.206 88.4165L293.199 88.4475L288.527 90.2545L287.789 90.5435L276.435 94.9715L275.697 95.2605L264.373 99.6945L263.635 99.9835L258.715 101.897C258.255 101.796 257.788 101.726 257.328 101.626L263.34 99.2755L264.078 98.9875L275.439 94.5285L276.177 94.2395L287.531 89.8115L288.269 89.5225L293.369 87.5195C293.333 87.8335 293.273 88.1095 293.206 88.4165Z" fill="#E481A7"/>
<path d="M295.791 73.5165C295.721 73.9835 295.658 74.4195 295.595 74.8565L295.165 73.7335L294.876 72.9955L290.448 61.6415L290.159 60.9035L285.731 49.5495L285.442 48.8115L280.977 37.4815L280.719 36.7495L276.26 25.3885L275.996 24.6875L271.537 13.3265L271.249 12.5875L266.821 1.23348L266.533 0.494484L265.42 -2.35352C265.799 -2.17452 266.147 -2.00152 266.464 -1.83552L267.271 0.206482L267.56 0.944481L271.988 12.2985L272.276 13.0365L276.735 24.3975L277 25.0985L281.459 36.4595L281.717 37.1915L286.182 48.5215L286.471 49.2595L290.899 60.6135L291.188 61.3515L295.616 72.7055L295.822 73.2325L295.905 73.4435L295.799 73.4845L295.791 73.5165Z" fill="#E481A7"/>
<path d="M291.189 97.0417C291.088 97.5017 290.964 97.9247 290.87 98.3547L287.789 90.5427L287.531 89.8107L283.072 78.4497L282.783 77.7117L278.349 66.3887L278.06 65.6507L273.632 54.2967L273.344 53.5587L268.916 42.2027L268.628 41.4647L264.169 30.1037L263.905 29.4027L259.477 18.0487L259.189 17.3107L254.73 5.94974L254.441 5.21173L250.013 -6.14227L249.718 -6.85027L249.601 -7.19727L250.245 -7.05627L250.456 -7.13927L250.521 -6.99627L250.751 -6.43127L255.179 4.92274L255.468 5.66174L259.927 17.0227L260.216 17.7617L264.644 29.1157L264.909 29.8167L269.368 41.1777L269.657 41.9167L274.085 53.2707L274.374 54.0087L278.802 65.3627L279.091 66.1007L283.526 77.4237L283.815 78.1617L288.273 89.5227L288.531 90.2547L291.189 97.0417Z" fill="#E481A7"/>
<path d="M280.934 106.436C280.627 106.369 280.314 106.333 280.007 106.265L275.696 95.2585L275.438 94.5265L271.003 83.2025L270.714 82.4645L266.255 71.1045L265.966 70.3655L261.538 59.0115L261.25 58.2725L256.822 46.9185L256.533 46.1805L252.105 34.8265L251.81 34.1185L247.382 22.7645L247.094 22.0265L242.635 10.6655L242.37 9.9645L237.918 -1.42751L237.654 -2.12851L235.133 -8.53251C235.392 -8.54051 235.681 -8.5405 235.971 -8.5415L238.393 -2.41751L238.658 -1.71651L243.11 9.6755L243.375 10.3765L247.834 21.7375L248.122 22.4755L252.55 33.8295L252.845 34.5365L257.273 45.8905L257.562 46.6285L261.99 57.9825L262.278 58.7205L266.706 70.0745L266.994 70.8135L271.453 82.1745L271.742 82.9135L276.177 94.2365L276.435 94.9685L280.934 106.436Z" fill="#E481A7"/>
<path d="M265.792 103.348L264.871 103.147L263.634 99.9824L263.339 99.2744L258.911 87.9204L258.623 87.1824L254.195 75.8284L253.906 75.0904L249.448 63.7294L249.19 62.9984L244.731 51.6374L244.442 50.8994L240.014 39.5454L239.719 38.8374L235.291 27.4834L235.002 26.7454L230.574 15.3914L230.279 14.6834L225.858 3.29836L225.563 2.59036L221.977 -6.58564C222.219 -6.66164 222.46 -6.73764 222.733 -6.80664L226.302 2.30236L226.56 3.03336L231.018 14.3944L231.313 15.1024L235.741 26.4564L236.03 27.1944L240.458 38.5484L240.747 39.2864L245.175 50.6404L245.47 51.3484L249.898 62.7024L250.187 63.4404L254.615 74.7944L254.904 75.5324L259.362 86.8934L259.651 87.6314L264.079 98.9854L264.374 99.6924L265.792 103.348Z" fill="#E481A7"/>
<path d="M250.649 100.259L249.728 100.057L246.819 92.6364L246.53 91.8984L242.102 80.5444L241.813 79.8064L237.385 68.4524L237.097 67.7144L232.669 56.3604L232.373 55.6524L227.921 44.2614L227.657 43.5604L223.229 32.2064L222.941 31.4684L218.482 20.1074L218.217 19.4064L213.765 8.01441L213.501 7.31342L210.156 -1.19958C210.38 -1.34358 210.605 -1.48759 210.822 -1.60059L214.209 7.01742L214.467 7.74941L218.926 19.1104L219.215 19.8484L223.65 31.1714L223.939 31.9104L228.367 43.2644L228.656 44.0024L233.084 55.3564L233.373 56.0944L237.808 67.4184L237.801 67.4494L238.096 68.1574L238.089 68.1884L242.554 79.5184L242.842 80.2564L247.27 91.6104L250.649 100.259Z" fill="#E481A7"/>
<path d="M235.513 97.1395C235.445 97.1565 235.383 97.1435 235.353 97.1365L234.617 96.9755L234.469 96.6215L230.041 85.2675L229.752 84.5285L225.294 73.1675L225.005 72.4285L220.577 61.0745L220.282 60.3665L215.861 48.9815L215.566 48.2735L211.138 36.9195L210.85 36.1815L206.422 24.8275L206.127 24.1195L201.706 12.7345L201.411 12.0275L199.762 7.8085C199.969 7.5965 200.146 7.3775 200.353 7.1665L202.15 11.7395L202.414 12.4405L206.866 23.8325L207.161 24.5395L211.589 35.8935L211.878 36.6315L216.306 47.9855L216.594 48.7235L221.022 60.0775L221.311 60.8165L225.746 72.1395L226.034 72.8775L230.462 84.2315L230.751 84.9705L235.179 96.3245L235.467 97.0635L235.513 97.1395Z" fill="#E481A7"/>
<path d="M220.363 94.0817L219.473 93.8867L217.948 89.9837L217.659 89.2457L213.231 77.8917L212.943 77.1537L208.477 65.8237L208.219 65.0917L203.76 53.7307L203.472 52.9927L199.044 41.6387L198.756 40.9007L194.328 29.5467L194.033 28.8387L190.801 20.5437C190.967 20.2267 191.126 19.9397 191.316 19.6597L194.772 28.5507L195.061 29.2887L199.496 40.6127L199.785 41.3507L204.213 52.7047L204.501 53.4427L208.929 64.7967L209.218 65.5347L213.646 76.8887L213.935 77.6267L218.363 88.9807L218.652 89.7187L220.363 94.0817Z" fill="#E481A7"/>
<path d="M205.251 90.9997C204.944 90.9327 204.661 90.9027 204.354 90.8357L201.139 82.6087L200.851 81.8707L196.416 70.5467L196.127 69.8087L191.668 58.4477L191.41 57.7157L186.952 46.3547L186.663 45.6167L183.1 36.4777C183.236 36.1537 183.377 35.7987 183.55 35.4507L187.401 45.3277L187.69 46.0667L192.149 57.4277L192.407 58.1597L196.866 69.5207L197.155 70.2587L201.583 81.6127L201.872 82.3507L205.251 90.9997Z" fill="#E481A7"/>
</g>
<path d="M168.271 271.555L206.106 83.4585L256.678 94.4025L203.268 282.674C203.268 282.674 178.347 283.741 168.271 271.555Z" fill="#461CB8"/>
<path d="M270.511 155.975L166.631 133.394L182.831 84.3994L286.711 106.978L270.511 155.975Z" fill="#FCC310"/>
<path d="M184.992 126.317L194.864 98.1953L198.539 98.9993L199.937 116.577L205.568 100.537L209.92 101.49L200.048 129.612L196.552 128.847L195.387 110.497L189.488 127.301L184.992 126.317Z" fill="#FDE7D1"/>
<path d="M204.436 130.572L214.308 102.45L226.438 105.105L225.171 108.716L218.321 107.217L215.481 115.306L220.868 116.485L219.613 120.061L214.226 118.882L210.959 128.187L217.88 129.702L216.637 133.243L204.436 130.572Z" fill="#FDE7D1"/>
<path d="M222.739 134.577L228.508 105.557L232.932 106.525L228.924 125.275L238.294 107.773L241.898 108.562L238.591 127.391L247.345 109.679L251.697 110.631L237.793 137.871L233.512 136.934L236.919 117.379L227.126 135.537L222.739 134.577Z" fill="#FDE7D1"/>
<path d="M252.181 141.432C250.445 141.052 249.109 140.405 248.176 139.49C247.242 138.575 246.701 137.417 246.553 136.014C246.405 134.611 246.621 132.976 247.2 131.108L252.036 131.231C251.701 132.33 251.501 133.32 251.435 134.202C251.368 135.085 251.488 135.802 251.793 136.356C252.099 136.909 252.631 137.268 253.393 137.435C254.25 137.623 254.943 137.507 255.475 137.087C256.006 136.668 256.406 136.076 256.674 135.312C257.105 134.085 257.173 133.016 256.879 132.104C256.584 131.192 256.099 130.239 255.424 129.244L252.882 125.323C252.16 124.243 251.68 123.11 251.443 121.924C251.206 120.738 251.36 119.37 251.905 117.819C252.685 115.597 253.952 114.03 255.707 113.118C257.461 112.206 259.492 112.002 261.799 112.507C263.154 112.804 264.212 113.254 264.975 113.856C265.736 114.459 266.258 115.178 266.542 116.012C266.825 116.846 266.936 117.75 266.877 118.721C266.818 119.693 266.645 120.695 266.359 121.729L261.595 121.509C261.857 120.619 262.032 119.81 262.121 119.082C262.21 118.354 262.127 117.75 261.873 117.271C261.619 116.792 261.111 116.469 260.35 116.302C259.565 116.13 258.877 116.248 258.286 116.654C257.695 117.061 257.27 117.635 257.01 118.375C256.677 119.324 256.604 120.15 256.793 120.851C256.982 121.553 257.343 122.311 257.877 123.125L260.395 127.004C261.243 128.236 261.86 129.599 262.245 131.091C262.63 132.583 262.498 134.256 261.848 136.107C261.376 137.45 260.655 138.575 259.682 139.484C258.71 140.393 257.579 141.024 256.29 141.378C255.002 141.731 253.632 141.749 252.181 141.432Z" fill="#FDE7D1"/>
<path d="M351.347 226.211H300.848V234.16H351.347V226.211Z" fill="#461CB8"/>
<path d="M290.109 179.936H275.614C271.87 179.936 268.834 176.901 268.834 173.156V167.545C268.834 163.801 271.869 160.765 275.614 160.765H290.109V179.936Z" fill="#461CB8"/>
<path d="M354.636 179.936H369.131C372.876 179.936 375.911 176.901 375.911 173.156V167.545C375.911 163.801 372.876 160.765 369.131 160.765H354.636V179.936Z" fill="#461CB8"/>
<path d="M361.028 122.353V122.371C361.028 124.257 361.009 125.997 360.955 127.517C360.955 127.792 360.937 128.048 360.937 128.305C360.882 130.045 360.809 131.473 360.772 132.48C360.736 133.194 360.717 133.689 360.699 133.927C360.699 134.037 360.699 134.092 360.699 134.092C360.699 134.092 359.069 134.11 356.285 134.147C356.102 134.147 355.919 134.165 355.736 134.165C353.502 134.183 350.608 134.22 347.275 134.275H346.726C345.554 134.293 344.327 134.311 343.063 134.33C342.788 134.33 342.514 134.348 342.239 134.348C340.957 134.366 339.62 134.384 338.265 134.403H337.716C334.987 134.44 332.13 134.476 329.255 134.513C329.218 134.531 329.182 134.531 329.163 134.531H328.321C325.629 134.586 322.918 134.623 320.245 134.659H319.714C318.194 134.677 316.692 134.714 315.209 134.732H314.367C313.305 134.75 312.279 134.768 311.254 134.787C311.071 134.787 310.906 134.806 310.723 134.806C307.701 134.842 304.844 134.897 302.262 134.952H301.218C300.925 134.97 300.65 134.97 300.376 134.97C293.691 135.098 289.223 135.208 289.168 135.263C289.168 135.263 289.15 135.007 289.15 134.531C289.15 134.348 289.132 134.146 289.15 133.908C289.132 133.743 289.132 133.56 289.132 133.359C289.114 131.51 289.168 128.433 289.443 124.624C289.461 124.441 289.461 124.239 289.48 124.056C289.645 122.078 289.864 119.899 290.158 117.61C290.194 117.39 290.231 117.17 290.25 116.932C290.268 116.859 290.268 116.804 290.286 116.731C290.377 116.09 290.469 115.449 290.561 114.79C290.597 114.589 290.616 114.387 290.653 114.167C291.001 111.695 291.386 109.113 291.843 106.494C291.88 106.292 291.916 106.073 291.971 105.853C292.044 105.45 292.118 105.029 292.191 104.608C292.246 104.407 292.283 104.205 292.319 103.986C292.832 101.459 293.454 98.9306 294.242 96.4586C294.297 96.2566 294.352 96.0736 294.425 95.8906C294.681 95.0666 294.974 94.2606 295.267 93.4546C295.377 93.2166 295.468 92.9606 295.56 92.7216C296.201 91.1286 296.934 89.5716 297.758 88.0886C297.85 87.9426 297.923 87.7956 298.014 87.6486C299.278 85.4876 300.78 83.4546 302.556 81.6606C302.666 81.5506 302.776 81.4406 302.886 81.3496C304.534 79.7196 306.439 78.3096 308.618 77.1196C308.746 77.0466 308.875 76.9726 309.021 76.8996C311.054 75.8376 313.325 74.9946 315.871 74.3726C316.017 74.3356 316.182 74.2996 316.347 74.2626C318.746 73.7316 321.383 73.4016 324.277 73.3286H324.662C324.717 73.3096 324.772 73.3096 324.827 73.3286C325.047 73.3096 325.285 73.3096 325.505 73.3096H325.633C328.636 73.3096 331.383 73.6026 333.892 74.1156C334.13 74.1706 334.35 74.2256 334.551 74.2806C335.119 74.4086 335.668 74.5556 336.218 74.7206C336.401 74.7576 336.602 74.8126 336.786 74.8856C339.606 75.7466 342.115 76.9546 344.313 78.4206C344.459 78.5126 344.588 78.6036 344.716 78.6956C346.785 80.1056 348.58 81.7726 350.155 83.6036C350.247 83.7136 350.356 83.8226 350.448 83.9516C351.968 85.7646 353.287 87.7606 354.404 89.8666C354.477 89.9946 354.551 90.1226 354.624 90.2696C355.723 92.3936 356.657 94.6466 357.426 96.9356C357.463 97.0826 357.518 97.2466 357.573 97.3936C358.342 99.7926 358.965 102.247 359.423 104.701C359.46 104.866 359.496 105.013 359.533 105.177C360.027 107.833 360.375 110.47 360.595 113.015C360.613 113.143 360.613 113.271 360.631 113.382C360.631 113.437 360.649 113.473 360.649 113.528V113.546C360.667 113.821 360.686 114.077 360.704 114.333C360.924 116.989 360.997 119.516 361.015 121.824C361.028 122.005 361.028 122.17 361.028 122.353Z" fill="#461CB8"/>
<path d="M324.821 73.3274C325.041 73.3084 325.279 73.3084 325.499 73.3084L325.023 73.6204L324.638 73.8764L318.723 77.8144L318.338 78.0704L312.423 82.0264L312.057 82.2644L306.123 86.2204L305.757 86.4584L299.842 90.3954L299.476 90.6514L295.264 93.4534C295.374 93.2154 295.465 92.9594 295.557 92.7204L299.22 90.2854L299.605 90.0284L305.52 86.0914L305.886 85.8354L311.801 81.8974L312.186 81.6414L318.101 77.7044L318.486 77.4474L324.383 73.5104L324.658 73.3274L324.768 73.2544L324.821 73.3274Z" fill="#160033"/>
<path d="M336.78 74.8833L335.516 75.7263L335.131 75.9823L329.216 79.9193L328.832 80.1753L322.917 84.1123L322.532 84.3683L316.635 88.3063L316.25 88.5623L310.335 92.5183L309.95 92.7563L304.053 96.6933L303.668 96.9493L297.753 100.905L297.369 101.143L292.186 104.604C292.241 104.403 292.278 104.201 292.314 103.982L297.112 100.777L297.497 100.521L303.412 96.5833L303.797 96.3273L309.712 92.3903L310.078 92.1343L315.993 88.1963L316.378 87.9403L322.293 84.0033L322.677 83.7463L328.574 79.7903L328.958 79.5333L334.873 75.5963L335.258 75.3403L336.21 74.7173C336.396 74.7553 336.597 74.8103 336.78 74.8833Z" fill="#160033"/>
<path d="M344.71 78.6935L339.71 82.0265L339.326 82.2825L333.429 86.2195L333.044 86.4755L327.129 90.4125L326.744 90.6685L320.829 94.6065L320.445 94.8625L314.53 98.8005L314.164 99.0565L308.249 102.993L307.864 103.249L301.949 107.187L301.564 107.443L295.649 111.381L295.264 111.637L290.557 114.787C290.593 114.586 290.612 114.384 290.649 114.164L295.007 111.252L295.392 110.996L301.307 107.059L301.691 106.803L307.607 102.866L307.992 102.609L313.907 98.6725L314.273 98.4165L320.188 94.4785L320.572 94.2225L326.487 90.2855L326.872 90.0285L332.787 86.0915L333.171 85.8355L339.068 81.8975L339.453 81.6415L344.306 78.4185C344.454 78.5105 344.582 78.6015 344.71 78.6935Z" fill="#160033"/>
<path d="M350.442 83.9486L343.904 88.3076L343.519 88.5636L337.604 92.5006L337.219 92.7576L331.322 96.6946L330.937 96.9506L325.022 100.907L324.637 101.145L318.722 105.101L318.337 105.339L312.44 109.294L312.055 109.532L306.14 113.488L305.756 113.744L299.841 117.682L299.456 117.938L293.559 121.875L293.175 122.131L289.439 124.622C289.457 124.439 289.457 124.237 289.476 124.054L292.919 121.746L293.304 121.489L299.219 117.552L299.604 117.296L305.501 113.358L305.885 113.102L311.8 109.164L312.185 108.908L318.1 104.971L318.466 104.715L324.381 100.777L324.766 100.521L330.681 96.5826L331.066 96.3266L336.981 92.3896L337.365 92.1336L343.28 88.1956L343.665 87.9396L350.148 83.5996C350.241 83.7116 350.351 83.8206 350.442 83.9486Z" fill="#160033"/>
<path d="M354.618 90.2672L348.098 94.6072L347.713 94.8632L341.816 98.8012L341.431 99.0572L335.516 102.994L335.131 103.25L329.216 107.188L328.832 107.444L322.917 111.4L322.551 111.638L316.636 115.594L316.251 115.832L310.336 119.788L309.951 120.044L304.054 123.982L303.669 124.238L297.754 128.175L297.37 128.432L289.147 133.908C289.129 133.743 289.129 133.56 289.129 133.359L297.114 128.048L297.499 127.791L303.414 123.854L303.799 123.598L309.714 119.66L310.08 119.404L315.995 115.467L316.38 115.21L322.295 111.273L322.661 111.017L328.576 107.061L328.96 106.823L334.875 102.868L335.26 102.611L341.175 98.6742L341.56 98.4182L347.475 94.4802L347.86 94.2242L354.398 89.8652C354.471 89.9922 354.545 90.1202 354.618 90.2672Z" fill="#160033"/>
<path d="M357.566 97.3916L352.31 100.89L351.925 101.146L346.01 105.102L345.625 105.358L339.71 109.295L339.326 109.551L333.411 113.488L333.027 113.744L327.112 117.682V117.7L326.746 117.938L320.831 121.875L320.447 122.131L314.532 126.087L314.166 126.325L308.251 130.281L307.866 130.519L301.951 134.475L301.237 134.951H301.219C300.926 134.969 300.651 134.969 300.377 134.969L301.311 134.346L301.695 134.09L307.611 130.134L307.996 129.896L313.911 125.94L314.277 125.702L320.192 121.746L320.576 121.489L326.491 117.552L326.857 117.314V117.296L332.791 113.358L333.157 113.102L339.072 109.164L339.457 108.908L345.372 104.971L345.756 104.715L351.671 100.759L352.056 100.503L357.422 96.9316C357.457 97.0806 357.511 97.2446 357.566 97.3916Z" fill="#160033"/>
<path d="M359.526 105.174L356.504 107.189L356.119 107.445L350.204 111.401L349.819 111.657L343.904 115.594L343.519 115.851L337.604 119.788L337.237 120.044L331.322 123.982L330.937 124.238L325.022 128.175L324.656 128.432L318.722 132.388L318.356 132.626L315.206 134.732H314.364L318.1 132.241L318.466 132.003L324.4 128.047L324.766 127.79L330.681 123.853L331.066 123.597L336.981 119.659L337.347 119.403L343.262 115.466L343.647 115.209L349.562 111.272L349.946 111.016L355.862 107.06L356.247 106.804L359.415 104.698C359.453 104.863 359.489 105.009 359.526 105.174Z" fill="#160033"/>
<path d="M360.698 113.488L360.643 113.525V113.543L360.313 113.744L354.398 117.682L354.013 117.938L348.116 121.894L347.731 122.15L341.816 126.087L341.431 126.343L335.516 130.281L335.131 130.537L329.216 134.475L329.161 134.53H328.319L328.594 134.347L328.96 134.091L334.875 130.154L335.26 129.898L341.175 125.96L341.56 125.704L347.475 121.767L347.86 121.511L353.757 117.555L354.142 117.299L360.057 113.361L360.442 113.105L360.588 113.013C360.606 113.141 360.606 113.269 360.624 113.38L360.698 113.488Z" fill="#160033"/>
<path d="M361.028 122.352V122.37L358.592 123.982L358.207 124.238L352.292 128.175L351.908 128.432L346.011 132.369L345.626 132.625L343.062 134.328C342.787 134.328 342.513 134.346 342.238 134.346L345.37 132.258L345.754 132.002L351.669 128.046L352.054 127.789L357.969 123.852L358.354 123.596L361.009 121.82C361.028 122.004 361.028 122.169 361.028 122.352Z" fill="#160033"/>
<path d="M360.643 113.544C360.661 113.819 360.68 114.075 360.698 114.331L360.313 113.745L360.056 113.36L356.119 107.445L355.863 107.061L351.925 101.146L351.669 100.761L347.713 94.8642L347.475 94.4792L343.519 88.5642L343.281 88.1982L339.325 82.2832L339.069 81.8982L335.131 75.9832L334.875 75.5982L333.886 74.1152C334.124 74.1702 334.344 74.2252 334.545 74.2802L335.259 75.3422L335.515 75.7272L339.453 81.6422L339.709 82.0272L343.665 87.9422L343.903 88.3082L347.859 94.2232L348.097 94.6082L352.053 100.505L352.309 100.89L356.247 106.805L356.503 107.19L360.44 113.105L360.623 113.38L360.696 113.49L360.641 113.527V113.544H360.643Z" fill="#160033"/>
<path d="M360.955 127.517C360.955 127.792 360.937 128.048 360.937 128.305L358.208 124.239L357.97 123.854L354.014 117.939L353.758 117.554L349.821 111.657L349.565 111.272L345.627 105.357L345.371 104.973L341.433 99.0584L341.177 98.6734L337.221 92.7584L336.983 92.3924L333.045 86.4774L332.789 86.0924L328.833 80.1774L328.577 79.7924L324.64 73.8774L324.383 73.5114L324.273 73.3284H324.658L324.768 73.2554L324.823 73.3284L325.025 73.6214L328.962 79.5364L329.218 79.9214L333.174 85.8364L333.43 86.2214L337.367 92.1364L337.605 92.5024L341.561 98.4174L341.817 98.8024L345.754 104.717L346.01 105.102L349.947 111.017L350.204 111.402L354.141 117.299L354.397 117.684L358.353 123.599L358.591 123.984L360.955 127.517Z" fill="#160033"/>
<path d="M356.284 134.146C356.101 134.146 355.918 134.164 355.735 134.164L351.908 128.432L351.67 128.047L347.733 122.15L347.476 121.765L343.52 115.85L343.263 115.465L339.326 109.55L339.07 109.165L335.132 103.25L334.876 102.866L330.939 96.9512L330.682 96.5852L326.745 90.6702L326.489 90.2862L322.533 84.3702L322.295 84.0042L318.339 78.0702L318.101 77.7042L315.867 74.3712C316.013 74.3342 316.178 74.2982 316.343 74.2612L318.486 77.4482L318.724 77.8142L322.68 83.7482L322.918 84.1142L326.874 90.0292L327.13 90.4142L331.068 96.3292L331.324 96.6952L335.261 102.61L335.517 102.995L339.455 108.91L339.711 109.295L343.649 115.21L343.905 115.595L347.861 121.51L348.117 121.895L352.054 127.792L352.292 128.177L356.284 134.146Z" fill="#160033"/>
<path d="M347.274 134.275H346.725L345.626 132.627L345.37 132.261L341.432 126.346L341.176 125.962L337.239 120.047L336.983 119.662L333.027 113.747L332.789 113.362L328.833 107.447L328.577 107.063L324.64 101.148L324.383 100.781L320.446 94.8664L320.19 94.4814L316.252 88.5664L315.996 88.2004L312.059 82.2674L311.802 81.9014L308.616 77.1214C308.744 77.0484 308.873 76.9744 309.019 76.9014L312.188 81.6444L312.426 82.0294L316.382 87.9444L316.638 88.3104L320.576 94.2254L320.832 94.6104L324.769 100.525L325.026 100.909L328.963 106.824L329.219 107.19L333.157 113.105L333.413 113.489L337.35 119.404L337.607 119.789L341.563 125.704L341.819 126.089L345.756 132.004L346.012 132.37L347.274 134.275Z" fill="#160033"/>
<path d="M338.264 134.404H337.715L335.133 130.54L334.877 130.156L330.94 124.241L330.683 123.856L326.746 117.941L326.49 117.556L322.552 111.641L322.296 111.275L318.34 105.342L318.102 104.975L314.165 99.0596L313.909 98.6746L309.953 92.7596L309.715 92.3936L305.759 86.4596L305.521 86.0936L302.554 81.6616C302.664 81.5516 302.774 81.4416 302.884 81.3506L305.888 85.8376L306.126 86.2226L310.082 92.1376L310.338 92.5226L314.275 98.4196L314.532 98.8046L318.469 104.72L318.725 105.105L322.662 111.02L322.918 111.405L326.855 117.302V117.32L327.112 117.686V117.704L331.068 123.601L331.324 123.986L335.261 129.901L338.264 134.404Z" fill="#160033"/>
<path d="M329.254 134.513C329.217 134.531 329.181 134.531 329.162 134.531H328.723L328.595 134.348L324.658 128.433L324.402 128.048L320.446 122.133L320.19 121.748L316.252 115.833L315.996 115.467L312.059 109.533L311.802 109.167L307.865 103.252L307.609 102.868L303.671 96.9534L303.415 96.5874L299.478 90.6534L299.221 90.2874L297.756 88.0894C297.848 87.9434 297.921 87.7964 298.012 87.6494L299.605 90.0304L299.843 90.3964L303.799 96.3304L304.055 96.6964L307.993 102.611L308.249 102.996L312.186 108.911L312.442 109.296L316.38 115.211L316.636 115.596L320.574 121.493L320.83 121.878L324.767 127.793L325.024 128.178L328.961 134.093L329.217 134.478L329.254 134.513Z" fill="#160033"/>
<path d="M320.243 134.659H319.712L318.357 132.626L318.1 132.242L314.163 126.327L313.907 125.942L309.951 120.045L309.713 119.66L305.757 113.745L305.501 113.36L301.563 107.445L301.307 107.061L297.369 101.146L297.113 100.779L294.238 96.4572C294.293 96.2552 294.348 96.0722 294.421 95.8892L297.498 100.522L297.754 100.906L301.691 106.803L301.948 107.188L305.885 113.103L306.141 113.487L310.079 119.402L310.335 119.787L314.272 125.702L314.529 126.087L318.466 132.002L318.722 132.387L320.243 134.659Z" fill="#160033"/>
<path d="M311.251 134.788C311.068 134.788 310.903 134.807 310.72 134.807L307.863 130.521L307.607 130.136L303.669 124.239L303.413 123.854L299.457 117.939L299.219 117.554L295.263 111.639L295.006 111.255L291.838 106.493C291.875 106.291 291.911 106.072 291.966 105.852L295.391 110.998L295.648 111.383L299.604 117.298L299.842 117.683L303.798 123.598L304.054 123.983L307.992 129.898L308.248 130.283L311.251 134.788Z" fill="#160033"/>
<path d="M302.259 134.952H301.71L301.563 134.732L301.307 134.347L297.369 128.432L297.113 128.047L293.176 122.132L292.919 121.747L290.154 117.608C290.19 117.388 290.227 117.168 290.246 116.93L293.304 121.49L293.56 121.875L297.498 127.79L297.754 128.175L301.691 134.09L301.948 134.475L302.259 134.952Z" fill="#160033"/>
<path d="M361.321 137.682V218.885C361.321 223.628 357.493 227.456 352.75 227.456H296.637C291.912 227.456 288.066 223.628 288.066 218.885V137.682H361.321Z" fill="#A284A3"/>
<path d="M361.321 137.682V218.885C361.321 223.628 357.493 227.456 352.75 227.456H296.637C291.912 227.456 288.066 223.628 288.066 218.885V137.682H361.321Z" fill="#FCC310"/>
<path d="M361.321 137.902V138.744L337.788 143.451L333.209 144.367L288.066 153.395V137.682H351.688L361.321 137.902Z" fill="#DF5A15"/>
<path d="M365.115 139.422H285.054C283.189 139.422 281.677 137.91 281.677 136.045C281.677 134.18 283.189 132.668 285.054 132.668H365.115C366.98 132.668 368.492 134.18 368.492 136.045C368.492 137.91 366.98 139.422 365.115 139.422Z" fill="#160033"/>
<path d="M361.321 143.451H288.066V144.367H361.321V143.451Z" fill="#FDE7D1"/>
<path d="M332.644 192.429C332.644 198.433 329.87 203.3 326.449 203.3C323.028 203.3 320.254 198.433 320.254 192.429C320.254 186.425 323.028 181.558 326.449 181.558C329.87 181.558 332.644 186.425 332.644 192.429Z" fill="#FDE7D1"/>
<path d="M327.735 280.451L322.373 280.315V230.435L327.735 232.524V280.451Z" fill="#461CB8"/>
<path d="M368.43 178.751H366.797V219.43C366.797 223.391 365.794 227.12 364.035 230.384C359.395 237.922 351.926 242.595 343.375 242.595H305.524C296.973 242.595 289.504 237.922 284.864 230.384C283.105 227.12 282.102 223.391 282.102 219.43V178.751H280.469L280.27 177.129V178.751V217.341V219.43C280.27 233.213 291.483 244.427 305.267 244.427H305.524H343.375H343.632C357.416 244.427 368.629 233.213 368.629 219.43V217.341V178.751V177.129L368.43 178.751Z" fill="#461CB8"/>
<path d="M344.552 279.719H305.349V282.669H344.552V279.719Z" fill="#461CB8"/>
<path d="M291.207 91.1203L270.077 79.9823C270.784 75.7603 271.644 71.5953 272.656 67.4873L291.207 91.1203Z" fill="#7AD8CF"/>
<path d="M290.309 95.0173L278.33 97.2533L267.86 99.2213C267.994 96.6803 268.204 94.1583 268.471 91.6363C268.528 91.0253 268.605 90.4133 268.681 89.8213L290.309 95.0173Z" fill="#7AD8CF"/>
<path d="M407.134 283.099C406.26 283.099 405.452 282.528 405.192 281.646L364.026 141.882C363.71 140.809 364.324 139.683 365.396 139.367C366.465 139.052 367.594 139.664 367.911 140.737L409.077 280.502C409.393 281.575 408.779 282.701 407.706 283.017C407.516 283.073 407.324 283.099 407.134 283.099Z" fill="#160033"/>
<path d="M367.397 150.345H336.099C335.539 150.345 335.086 149.892 335.086 149.332C335.086 148.772 335.539 148.32 336.099 148.32H367.397C367.957 148.32 368.409 148.773 368.409 149.332C368.409 149.891 367.957 150.345 367.397 150.345Z" fill="#160033"/>
<path d="M370.53 160.718H339.23C338.67 160.718 338.218 160.265 338.218 159.706C338.218 159.147 338.671 158.694 339.23 158.694H370.53C371.089 158.694 371.542 159.147 371.542 159.706C371.542 160.265 371.089 160.718 370.53 160.718Z" fill="#160033"/>
<path d="M373.661 171.094H342.362C341.802 171.094 341.349 170.641 341.349 170.082C341.349 169.522 341.802 169.069 342.362 169.069H373.661C374.221 169.069 374.674 169.522 374.674 170.082C374.674 170.641 374.221 171.094 373.661 171.094Z" fill="#160033"/>
<path d="M376.794 181.467H345.495C344.935 181.467 344.482 181.014 344.482 180.454C344.482 179.894 344.935 179.442 345.495 179.442H376.794C377.354 179.442 377.807 179.895 377.807 180.454C377.807 181.013 377.354 181.467 376.794 181.467Z" fill="#160033"/>
<path d="M379.927 191.842H348.626C348.066 191.842 347.613 191.389 347.613 190.829C347.613 190.269 348.066 189.816 348.626 189.816H379.927C380.487 189.816 380.94 190.269 380.94 190.829C380.939 191.389 380.486 191.842 379.927 191.842Z" fill="#160033"/>
<path d="M383.058 202.217H351.759C351.199 202.217 350.746 201.764 350.746 201.204C350.746 200.644 351.199 200.192 351.759 200.192H383.058C383.618 200.192 384.071 200.645 384.071 201.204C384.071 201.763 383.618 202.217 383.058 202.217Z" fill="#160033"/>
<path d="M386.19 212.59H354.891C354.331 212.59 353.878 212.137 353.878 211.577C353.878 211.018 354.331 210.565 354.891 210.565H386.19C386.75 210.565 387.203 211.018 387.203 211.577C387.202 212.137 386.749 212.59 386.19 212.59Z" fill="#160033"/>
<path d="M389.322 222.965H358.023C357.463 222.965 357.01 222.512 357.01 221.953C357.01 221.394 357.463 220.94 358.023 220.94H389.322C389.882 220.94 390.335 221.393 390.335 221.953C390.335 222.513 389.882 222.965 389.322 222.965Z" fill="#160033"/>
<path d="M392.454 233.339H361.155C360.595 233.339 360.143 232.886 360.143 232.326C360.143 231.766 360.596 231.314 361.155 231.314H392.454C393.014 231.314 393.467 231.767 393.467 232.326C393.467 232.885 393.013 233.339 392.454 233.339Z" fill="#160033"/>
<path d="M395.586 243.714H364.287C363.727 243.714 363.274 243.261 363.274 242.701C363.274 242.141 363.727 241.688 364.287 241.688H395.586C396.146 241.688 396.599 242.142 396.599 242.701C396.599 243.26 396.146 243.714 395.586 243.714Z" fill="#160033"/>
<path d="M398.718 254.087H367.418C366.858 254.087 366.406 253.635 366.406 253.076C366.406 252.517 366.859 252.062 367.418 252.062H398.718C399.277 252.062 399.73 252.516 399.73 253.076C399.73 253.636 399.277 254.087 398.718 254.087Z" fill="#160033"/>
<path d="M401.849 264.463H370.549C369.989 264.463 369.536 264.01 369.536 263.45C369.536 262.89 369.989 262.437 370.549 262.437H401.849C402.409 262.437 402.862 262.89 402.862 263.45C402.862 264.01 402.409 264.463 401.849 264.463Z" fill="#160033"/>
<path d="M404.982 274.837H373.681C373.122 274.837 372.669 274.384 372.669 273.824C372.669 273.264 373.122 272.812 373.681 272.812H404.982C405.542 272.812 405.995 273.265 405.995 273.824C405.995 274.383 405.542 274.837 404.982 274.837Z" fill="#160033"/>
<path d="M374.791 283.099C373.917 283.099 373.109 282.528 372.849 281.646L331.682 141.881C331.366 140.808 331.98 139.683 333.053 139.366C334.121 139.051 335.251 139.663 335.568 140.736L376.735 280.501C377.051 281.574 376.437 282.699 375.364 283.016C375.173 283.073 374.981 283.099 374.791 283.099Z" fill="#160033"/>
<path d="M365.024 188.08H347.138C347.138 188.08 345.91 184.757 354.651 184.179L357.035 182.229H364.218L365.024 188.08Z" fill="#7AD8CF"/>
<path d="M359.62 189.817H365.025V188.08H359.62V189.817Z" fill="#7AD8CF"/>
<path d="M347.138 189.817H358.301L359.177 188.08H347.138V189.817Z" fill="#7AD8CF"/>
<path d="M347.08 189.156H365.025V188.287H347.08V189.156Z" fill="white"/>
<path d="M357.035 182.436L357.281 175.991H364.613L364.218 182.436H357.035Z" fill="white"/>
<path d="M361.578 109.608C361.578 109.608 359.762 115.763 355.396 180.444H366.354L372.753 112.477L372.065 108.352L361.578 109.608Z" fill="#DF5A15"/>
<path d="M384.471 188.08H366.585C366.585 188.08 365.357 184.757 374.098 184.179L376.482 182.229H383.665L384.471 188.08Z" fill="#7AD8CF"/>
<path d="M379.066 189.817H384.471V188.08H379.066V189.817Z" fill="#7AD8CF"/>
<path d="M366.585 189.817H377.748L378.624 188.08H366.585V189.817Z" fill="#7AD8CF"/>
<path d="M366.526 189.156H384.471V188.287H366.526V189.156Z" fill="white"/>
<path d="M376.482 182.436L375.871 175.991H383.204L383.665 182.436H376.482Z" fill="white"/>
<path d="M380.712 110.002C380.712 110.002 382.875 113.868 383.447 144.568L385.217 180.5H374.736L368.091 109.223L380.712 110.002Z" fill="#DF5A15"/>
<path d="M370.563 135.736L369.168 120.596L365.361 118.925" stroke="#160033" stroke-width="0.2014" stroke-miterlimit="10" stroke-linecap="round" stroke-linejoin="round"/>
<path d="M360.888 43.1585C360.888 43.1585 357.246 40.1525 357.085 36.9275C357.074 36.0645 358.251 36.9395 358.251 36.9395C358.251 36.9395 356.983 33.2655 357.319 32.4245C357.654 31.5835 358.124 32.2015 358.124 32.2015C358.124 32.2015 358.562 30.9225 359.182 31.8765C360.058 31.3895 360.574 32.7375 360.574 32.7375C360.574 32.7375 361.044 31.9745 361.921 34.2495C362.799 36.5245 364.133 39.2005 363.042 41.7295C363.445 42.6535 363.376 42.9165 363.376 42.9165L360.888 43.1585Z" fill="#EEBDBE"/>
<path d="M384.231 81.6453L370.217 59.8393L363.966 41.5283L358.796 43.5343L360.089 62.5723L370.189 84.5453L384.231 81.6453Z" fill="white"/>
<path d="M344.251 45.7726C344.432 45.4616 345.541 40.8946 344.75 39.4466C343.96 37.9976 341.755 34.7396 340.866 34.8966C339.977 35.0526 339.622 35.7746 339.959 36.3526C340.295 36.9306 339.119 37.3056 338.691 38.4316C338.263 39.5576 337.122 43.6266 337.122 43.6266L340.647 46.6076L344.251 45.7726Z" fill="#EEBDBE"/>
<path d="M368.131 59.8215C367.362 63.9485 370.198 67.9395 374.466 68.7345C378.734 69.5295 382.818 66.8295 383.587 62.7025C384.356 58.5755 381.52 54.5845 377.251 53.7895C372.983 52.9935 368.9 55.6945 368.131 59.8215Z" fill="#160033"/>
<path d="M366.243 64.5125C366.204 65.7925 367.371 67.0155 368.849 67.2445C370.328 67.4735 371.558 66.6215 371.598 65.3415C371.638 64.0615 370.471 62.8385 368.992 62.6095C367.514 62.3805 366.283 63.2325 366.243 64.5125Z" fill="#EEBDBE"/>
<path d="M373.018 69.9693L372.032 77.9683L379.253 78.8253L378.878 66.6113L373.018 69.9693Z" fill="#EEBDBE"/>
<path d="M379.253 78.8257L373.019 81.2527L372.032 77.9687L374.921 77.4717L379.253 78.8257Z" fill="#EEBDBE"/>
<path d="M372.406 74.9543L377.177 70.0684L372.829 71.2534L372.406 74.9543Z" fill="#461CB8"/>
<path d="M373.162 54.1933C371.019 54.6503 368.734 56.9914 368.194 59.0734C367.572 61.4704 366.78 65.2133 367.281 67.1893C367.823 69.3283 369.111 70.9924 371.209 71.6604C373.252 72.3114 375.474 71.7203 377.021 70.3043C378.048 69.3643 379.951 67.9173 381.245 65.6053C386.156 56.8333 377.974 53.1683 373.162 54.1933Z" fill="#EEBDBE"/>
<mask id="mask1_59_3280" style="mask-type:luminance" maskUnits="userSpaceOnUse" x="367" y="54" width="16" height="18">
<path d="M373.162 54.1933C371.019 54.6503 368.734 56.9914 368.194 59.0734C367.572 61.4704 366.78 65.2133 367.281 67.1893C367.823 69.3283 369.111 70.9924 371.209 71.6604C373.252 72.3114 375.474 71.7203 377.021 70.3043C378.048 69.3643 379.951 67.9173 381.245 65.6053C386.156 56.8333 377.974 53.1683 373.162 54.1933Z" fill="white"/>
</mask>
<g mask="url(#mask1_59_3280)">
<path d="M378.975 67.1514C378.079 65.8354 377.908 64.1554 378.521 62.6854L379.195 60.7324C379.367 60.2334 379.36 59.6904 379.176 59.1954C378.883 58.4114 378.19 57.7774 377.354 57.7404C374.692 57.6214 369.891 58.2574 369.742 55.7634L373.527 52.9214L381.796 54.8124L383.702 59.1804L383.978 62.1694L383.34 64.8634L378.975 67.1514Z" fill="#160033"/>
</g>
<path d="M382.775 66.1444C382.844 67.4024 381.771 68.5834 380.378 68.7824C378.985 68.9814 377.799 68.1224 377.73 66.8634C377.661 65.6054 378.734 64.4244 380.128 64.2254C381.52 64.0264 382.705 64.8854 382.775 66.1444Z" fill="#EEBDBE"/>
<path d="M381.474 66.0324C381.474 66.0324 380.098 65.4414 379.073 66.8584" stroke="#160033" stroke-width="0.2223" stroke-miterlimit="10" stroke-linecap="round" stroke-linejoin="round"/>
<path d="M368.762 64.0987C368.666 64.3717 368.367 64.5147 368.094 64.4187C367.821 64.3227 367.678 64.0237 367.774 63.7517C367.87 63.4787 368.169 63.3357 368.442 63.4317C368.714 63.5277 368.858 63.8267 368.762 64.0987Z" fill="#221915"/>
<path d="M373.331 64.5538C373.235 64.8268 372.936 64.9698 372.663 64.8738C372.39 64.7778 372.247 64.4788 372.343 64.2068C372.439 63.9338 372.738 63.7908 373.01 63.8868C373.284 63.9818 373.427 64.2808 373.331 64.5538Z" fill="#221915"/>
<path d="M369.897 64.2007L369.192 65.7597C369.128 65.9127 369.059 66.1757 369.241 66.4127L369.785 66.8787" stroke="#160033" stroke-width="0.2223" stroke-miterlimit="10" stroke-linecap="round" stroke-linejoin="round"/>
<path d="M375.642 62.2866L372.805 61.5506C372.355 61.4816 372.063 61.0396 372.175 60.5996C372.276 60.2016 372.672 59.9526 373.075 60.0346L375.867 61.0236C376.208 61.0926 376.431 61.4216 376.371 61.7636C376.31 62.1076 375.986 62.3396 375.642 62.2866Z" fill="#160033"/>
<path d="M367.667 61.1006L369.345 61.1466C369.747 61.2276 370.098 60.9086 370.101 60.4606C370.103 60.1676 369.954 59.8986 369.734 59.7516C369.609 59.6686 369.454 59.6416 369.305 59.6596L367.757 59.8466C367.419 59.9166 367.182 60.0366 367.157 60.3756C367.132 60.7176 367.358 61.0386 367.667 61.1006Z" fill="#160033"/>
<path d="M369.804 68.2715C369.804 68.2715 370.824 68.8885 372.169 68.3965" stroke="#160033" stroke-width="0.2223" stroke-miterlimit="10" stroke-linecap="round" stroke-linejoin="round"/>
<path opacity="0.26" d="M370.846 64.3629C370.689 65.9209 371.798 67.3079 373.323 67.4619C374.848 67.6159 376.211 66.4769 376.367 64.9189C376.524 63.3609 375.415 61.9739 373.891 61.8199C372.366 61.6669 371.003 62.8049 370.846 64.3629Z" fill="white"/>
<path opacity="0.26" d="M365.038 63.7548C364.887 65.2508 365.694 66.5568 366.841 66.6728C367.987 66.7888 369.039 65.6688 369.189 64.1728C369.34 62.6768 368.533 61.3698 367.386 61.2548C366.24 61.1388 365.188 62.2588 365.038 63.7548Z" fill="white"/>
<path d="M370.846 64.3629C370.689 65.9209 371.798 67.3079 373.323 67.4619C374.848 67.6159 376.211 66.4769 376.367 64.9189C376.524 63.3609 375.415 61.9739 373.891 61.8199C372.366 61.6669 371.003 62.8049 370.846 64.3629Z" stroke="#160033" stroke-width="0.2223" stroke-miterlimit="10" stroke-linecap="round" stroke-linejoin="round"/>
<path d="M365.038 63.7548C364.887 65.2508 365.694 66.5568 366.841 66.6728C367.987 66.7888 369.039 65.6688 369.189 64.1728C369.34 62.6768 368.533 61.3698 367.386 61.2548C366.24 61.1388 365.188 62.2588 365.038 63.7548Z" stroke="#160033" stroke-width="0.2223" stroke-miterlimit="10" stroke-linecap="round" stroke-linejoin="round"/>
<path d="M370.846 64.3627C370.846 64.3627 370.088 63.5717 369.189 64.1727" stroke="#160033" stroke-width="0.2223" stroke-miterlimit="10" stroke-linecap="round" stroke-linejoin="round"/>
<path d="M376.367 64.9189L378.21 65.187" stroke="#160033" stroke-width="0.2223" stroke-miterlimit="10" stroke-linecap="round" stroke-linejoin="round"/>
<path d="M360.017 114.058L360.164 85.6264L346.837 71.0374L338.792 47.4204L344.376 45.3994L353.014 63.0514C353.014 63.0514 361.804 69.4954 365.082 71.0204C367.853 72.3104 376.806 74.4884 376.806 74.4884C381.515 75.8814 384.687 80.2814 384.52 85.1884L383.526 114.458L360.017 114.058Z" fill="white"/>
<path d="M136.61 307.447C136.61 307.447 135.369 307.401 135.428 309.763C135.487 312.125 135.428 315.609 135.428 315.609H137.919V312.861L140.613 315.609H151.503C151.503 315.609 151.065 312.865 145.81 312.865L136.61 307.447Z" fill="#EDB82B"/>
<path d="M136.61 307.448V304.413L141.344 302.603L140.636 307.448L145.81 312.866C145.81 312.866 139.925 312.639 136.61 307.448Z" fill="#DF5A15"/>
<path d="M152.536 306.391C152.536 306.391 151.334 306.704 152.071 308.949C152.808 311.194 153.755 314.548 153.755 314.548L156.141 313.831L155.349 311.199L158.721 313.055L169.15 309.919C169.15 309.919 167.94 307.417 162.907 308.931L152.536 306.391Z" fill="#EDB82B"/>
<path d="M152.536 306.391L151.662 303.484L155.674 300.387L156.391 305.231L162.906 308.93C162.906 308.93 157.205 310.408 152.536 306.391Z" fill="#DF5A15"/>
<path d="M121.642 239.303C121.541 239.723 119.91 256.491 119.91 256.491L132.248 257.965V260.804L113.135 263.851L114.312 245.777L121.642 239.303Z" fill="#461CB8"/>
<path d="M119.93 236.43C116.223 235.08 108.83 232.79 101.417 232.838C98.3033 232.858 95.5603 234.895 94.5273 237.832C92.4913 243.617 91.6303 249.765 90.9953 254.424C90.5023 258.042 93.0673 260.716 96.7013 260.368L96.5323 265.065H113.966L115.458 258.69L118.797 258.307L119.826 253.724L117.658 253.553L121.518 239.799C122.008 238.428 121.297 236.928 119.93 236.43Z" fill="#461CB8"/>
<path d="M129.035 267.687L142.722 265.103C145.04 264.665 147.307 266.078 147.936 268.352L157.895 304.384L150.352 305.548L139.633 278.417C139.633 278.417 126.157 281.869 116.826 281.869C107.497 281.869 106.023 281.869 106.023 281.869L114.73 272.414L129.035 267.687Z" fill="#7AD8CF"/>
<path d="M128.079 262.593L134.238 243.834L156.972 244.28L150.461 261.507L128.079 262.593Z" fill="#160033"/>
<path d="M128.079 262.593L116.142 264.491L116.277 266.119L151.004 263.678L150.461 261.507L128.079 262.593Z" fill="#461CB8"/>
<path d="M119.393 255.027C119.393 255.027 122.899 253.255 124.907 255.195C126.915 257.134 127.608 263.159 125.461 261.982C123.315 260.804 122.137 258.381 122.137 258.381C122.137 258.381 119.713 258.103 118.604 257.412C117.498 256.718 119.393 255.027 119.393 255.027Z" fill="#DF5A15"/>
<path d="M118.258 253.63L102.473 251.054L104.176 242.514" stroke="white" stroke-width="0.5406" stroke-miterlimit="10" stroke-linecap="round" stroke-linejoin="round"/>
<path d="M117.474 258.458L98.6653 260.547" stroke="white" stroke-width="0.5406" stroke-miterlimit="10" stroke-linecap="round" stroke-linejoin="round"/>
<path d="M96.6923 265.048C96.6923 265.048 93.4823 281.955 106.939 281.955C120.396 281.955 131.03 278.417 131.03 278.417L135.719 306.764L143.465 305.987L141.965 270.185C141.82 266.732 138.906 264.048 135.452 264.189L113.968 265.065L96.6753 265.081" fill="#7AD8CF"/>
<path d="M117.526 213.553C117.526 213.553 121.198 213.966 122.275 219.844C123.14 224.563 119.272 227.011 121.308 229.198C123.344 231.385 120.942 233.672 120.942 233.672L101.656 231.282C101.656 231.282 98.4533 227.235 102.072 223.278C105.051 220.021 104.078 220.115 105.96 216.392L117.526 213.553Z" fill="#EDB82B"/>
<path d="M105.091 219.427C104.858 223.404 107.893 226.818 111.871 227.051C115.848 227.284 119.262 224.249 119.495 220.271C119.728 216.294 116.693 212.88 112.715 212.647C108.737 212.414 105.324 215.449 105.091 219.427Z" fill="#EDB82B"/>
<path d="M120.992 224.84C120.85 226.029 119.6 226.998 118.2 227.004C116.8 227.009 115.781 226.05 115.923 224.86C116.065 223.67 117.315 222.702 118.715 222.696C120.114 222.691 121.134 223.651 120.992 224.84Z" fill="#DF5A15"/>
<path d="M113.392 228.585L112.986 234.428C112.875 236.023 111.461 237.205 109.872 237.032C108.222 236.852 107.085 235.291 107.42 233.665L109.259 224.732L113.392 228.585Z" fill="#DF5A15"/>
<path d="M113.117 232.702L109.552 227.244L113.349 229.213L113.117 232.702Z" fill="#461CB8"/>
<path d="M116.149 214.073C118.059 214.76 119.827 217.158 120.022 219.098C120.247 221.332 120.433 224.796 119.683 226.507C118.872 228.358 117.441 229.687 115.409 230.017C113.429 230.338 111.465 229.521 110.244 228.049C109.433 227.072 107.889 225.527 107.031 223.282C103.777 214.768 111.859 212.53 116.149 214.073Z" fill="#DF5A15"/>
<path d="M117.581 226.584C117.581 226.584 117.549 227.326 116.669 227.284C115.475 227.228 115.491 226.27 115.491 226.27L117.581 226.584Z" fill="#EDB82B"/>
<path d="M118.863 222.923C118.914 223.189 119.17 223.363 119.436 223.312C119.702 223.261 119.876 223.005 119.825 222.739C119.774 222.473 119.518 222.299 119.252 222.35C118.987 222.401 118.813 222.657 118.863 222.923Z" fill="#221915"/>
<path d="M114.573 222.706C114.624 222.972 114.88 223.146 115.146 223.095C115.412 223.044 115.586 222.788 115.535 222.522C115.484 222.256 115.228 222.082 114.962 222.133C114.697 222.184 114.523 222.44 114.573 222.706Z" fill="#221915"/>
<path d="M117.967 223.766L118.234 224.399C118.272 224.55 118.299 224.802 118.098 224.996L117.728 225.227" stroke="black" stroke-width="0.2126" stroke-miterlimit="10" stroke-linecap="round" stroke-linejoin="round"/>
<path d="M113.113 220.661L115.604 220.4C115.993 220.399 116.296 220.063 116.257 219.677C116.222 219.328 115.919 219.067 115.569 219.085L113.084 219.565C112.787 219.58 112.557 219.829 112.564 220.126C112.571 220.424 112.815 220.661 113.113 220.661Z" fill="#EDB82B"/>
<path d="M120.431 220.913L119.007 220.738C118.657 220.755 118.401 220.441 118.456 220.062C118.492 219.815 118.651 219.606 118.856 219.51C118.972 219.455 119.106 219.453 119.23 219.487L120.514 219.842C120.791 219.944 120.975 220.076 120.953 220.366C120.932 220.657 120.699 220.9 120.431 220.913Z" fill="#EDB82B"/>
<path d="M115.491 226.269C115.491 226.269 117.248 225.696 117.588 226.469C117.588 226.469 116.793 226.937 115.491 226.269Z" fill="#EDB82B"/>
<path d="M117.771 226.456C117.771 226.456 116.565 227.019 114.984 225.96" stroke="black" stroke-width="0.2126" stroke-miterlimit="10" stroke-linecap="round" stroke-linejoin="round"/>
<path d="M117.262 214.47C117.262 214.47 118.804 216.905 114.589 217.636C111.385 218.191 111.298 221.485 105.209 221.106C105.209 221.106 104.526 214.888 109.813 213.494C115.099 212.098 117.262 214.47 117.262 214.47Z" fill="#EDB82B"/>
<path d="M110.209 219.728L109.922 224.632L105.97 222.279L106.077 220.442L110.209 219.728Z" fill="#EDB82B"/>
<path d="M105.962 223.275C105.619 224.403 106.332 225.715 107.553 226.206C108.775 226.696 110.043 226.18 110.386 225.052C110.729 223.924 110.016 222.612 108.795 222.121C107.573 221.631 106.305 222.147 105.962 223.275Z" fill="#DF5A15"/>
<path d="M107.168 223.463C107.168 223.463 108.55 223.232 109.166 224.747" stroke="black" stroke-width="0.2126" stroke-miterlimit="10" stroke-linecap="round" stroke-linejoin="round"/>
<path d="M115.996 214.925C115.996 214.925 118.576 215.269 119.646 217.692C119.646 217.692 120.269 212.917 114.813 213.089L115.996 214.925Z" fill="#EDB82B"/>
<path d="M252.539 274.504H246.172L235.641 280.137L253.748 279.921L252.539 274.504Z" fill="#461CB8"/>
<path d="M253.811 282.304L253.748 279.921L235.641 280.137L235.704 282.52L253.811 282.304Z" fill="white"/>
<path d="M241.77 276.579L243.857 277.149" stroke="white" stroke-width="0.5735" stroke-miterlimit="10" stroke-linecap="round" stroke-linejoin="round"/>
<path d="M243.81 275.532L245.896 276.102" stroke="white" stroke-width="0.5735" stroke-miterlimit="10" stroke-linecap="round" stroke-linejoin="round"/>
<path d="M246.02 265.526H252.511L252.539 274.504H246.049L246.02 265.526Z" fill="white"/>
<path d="M270.408 274.504H264.04L253.509 280.137L271.616 279.921L270.408 274.504Z" fill="#461CB8"/>
<path d="M271.679 282.304L271.616 279.921L253.509 280.137L253.572 282.52L271.679 282.304Z" fill="white"/>
<path d="M259.639 276.579L261.725 277.149" stroke="white" stroke-width="0.5735" stroke-miterlimit="10" stroke-linecap="round" stroke-linejoin="round"/>
<path d="M261.678 275.532L263.764 276.102" stroke="white" stroke-width="0.5735" stroke-miterlimit="10" stroke-linecap="round" stroke-linejoin="round"/>
<path d="M262.77 265.526H269.261L270.408 274.504H263.917L262.77 265.526Z" fill="white"/>
<path d="M245.127 196.039L245.154 211.546C245.082 213.687 244.827 219.557 244.961 221.695L244.053 271.945L254.266 271.617L255.282 217.916L261.689 272.273L272.008 272.039L266.013 199.48L255.609 196.73L245.127 196.039Z" fill="#160033"/>
<path d="M255.609 217.917L250.737 216.453" stroke="white" stroke-width="0.2703" stroke-miterlimit="10" stroke-linecap="round" stroke-linejoin="round"/>
<path d="M245.218 149.172C245.218 149.172 241.714 149.636 244.312 155.571L246.651 150.34L245.218 149.172Z" fill="#160033"/>
<path d="M244.444 152.913C244.406 156.586 247.455 159.595 251.254 159.634C255.053 159.673 258.162 156.727 258.2 153.054C258.238 149.381 255.189 146.372 251.39 146.333C247.592 146.294 244.482 149.24 244.444 152.913Z" fill="#DF5A15"/>
<path d="M243.366 157.169C243.526 158.278 244.717 159.155 246.026 159.128C247.335 159.101 248.266 158.181 248.107 157.072C247.947 155.963 246.756 155.086 245.447 155.113C244.138 155.139 243.206 156.06 243.366 157.169Z" fill="#DF5A15"/>
<path d="M250.205 160.732L249.944 169.462L256.064 168.261L254.77 156.614L250.205 160.732Z" fill="#DF5A15"/>
<path d="M250.072 165.161L253.589 160.634L250.175 161.754L250.072 165.161Z" fill="#160033"/>
<path d="M247.928 147.301C246.151 148.019 244.536 150.383 244.386 152.259C244.213 154.419 244.098 157.764 244.829 159.391C245.62 161.152 246.983 162.391 248.891 162.648C250.75 162.899 252.576 162.054 253.694 160.599C254.437 159.634 255.857 158.098 256.622 155.91C259.525 147.607 251.919 145.688 247.928 147.301Z" fill="#DF5A15"/>
<mask id="mask2_59_3280" style="mask-type:luminance" maskUnits="userSpaceOnUse" x="244" y="146" width="14" height="17">
<path d="M247.928 147.301C246.151 148.019 244.536 150.383 244.386 152.259C244.213 154.419 244.098 157.764 244.829 159.391C245.62 161.152 246.983 162.391 248.891 162.648C250.75 162.899 252.576 162.054 253.694 160.599C254.437 159.634 255.857 158.098 256.622 155.91C259.525 147.607 251.919 145.688 247.928 147.301Z" fill="white"/>
</mask>
<g mask="url(#mask2_59_3280)">
<path d="M254.9 157.587C253.928 156.588 253.186 154.458 253.491 153.099C253.491 153.099 253.8 151.541 253.868 150.701L253.982 149.388C253.611 148.757 252.87 149.276 252.144 149.371C249.832 149.672 245.725 151.299 245.218 149.172L248.049 146.15L255.462 146.527L257.767 150.003L258.458 152.537L258.316 154.955L254.9 157.587Z" fill="#160033"/>
</g>
<path d="M255.111 155.123C255.111 155.123 255.8 152.89 254.112 151.604C254.112 151.604 253.048 149.119 249.746 150.07C247.385 150.75 243.826 150.471 243.804 147.886C243.775 144.529 248.294 142.038 253.14 145.468C256.416 147.787 261.458 149.181 257.824 155.652L255.111 155.123Z" fill="#160033"/>
<path d="M258.022 156.143C258.272 157.217 257.526 158.397 256.356 158.78C255.185 159.162 254.034 158.602 253.783 157.528C253.533 156.454 254.279 155.274 255.449 154.891C256.62 154.509 257.771 155.069 258.022 156.143Z" fill="#DF5A15"/>
<path d="M256.884 156.244C256.884 156.244 255.609 155.943 254.94 157.319" stroke="#1E0B07" stroke-width="0.1585" stroke-miterlimit="10" stroke-linecap="round" stroke-linejoin="round"/>
<path d="M245.885 155.2C245.844 155.45 245.608 155.618 245.358 155.577C245.108 155.536 244.94 155.3 244.981 155.05C245.022 154.8 245.258 154.632 245.508 154.673C245.758 154.715 245.927 154.951 245.885 155.2Z" fill="#160033"/>
<path d="M249.892 154.9C249.851 155.15 249.615 155.318 249.365 155.277C249.115 155.236 248.947 155 248.988 154.75C249.029 154.5 249.265 154.332 249.515 154.373C249.764 154.414 249.933 154.65 249.892 154.9Z" fill="#160033"/>
<path d="M246.754 155.605L246.508 156.566C246.476 156.708 246.457 156.944 246.649 157.121L247.182 157.323" stroke="#1E0B07" stroke-width="0.1585" stroke-miterlimit="10" stroke-linecap="round" stroke-linejoin="round"/>
<path d="M251.54 152.596L248.984 152.391C248.586 152.4 248.267 152.064 248.297 151.667C248.324 151.309 248.628 151.034 248.987 150.921L251.543 151.351C251.847 151.482 252.09 151.731 252.089 152.035C252.089 152.34 251.845 152.59 251.54 152.596Z" fill="#160033"/>
<path d="M244.488 152.783L245.941 152.569C246.3 152.577 246.554 152.25 246.488 151.863C246.445 151.611 246.277 151.401 246.065 151.308C245.945 151.255 245.807 151.256 245.682 151.294L244.376 151.69C244.095 151.801 243.909 151.941 243.939 152.237C243.969 152.533 244.212 152.776 244.488 152.783Z" fill="#160033"/>
<path d="M244.257 155.322C244.257 155.322 244.161 158.028 245.184 158.286C245.406 158.342 245.598 158.244 245.74 158.094C246.759 157.022 249.313 157.747 249.926 157.964C250.159 158.046 250.418 158.126 250.672 158.177C252.009 158.451 254.382 154.604 254.382 154.604C254.382 154.604 254.875 158.005 254.027 160.056C253.247 161.941 250.829 162.462 250.827 162.462C248.763 162.98 247.093 162.398 247.093 162.398C246.353 162.18 245.341 161.494 244.694 159.954C243.831 157.902 244.257 155.322 244.257 155.322Z" fill="#160033"/>
<path d="M249.31 158.591L246.409 158.66C246.409 158.66 246.594 159.598 247.882 159.567C249.17 159.536 249.31 158.591 249.31 158.591Z" fill="white"/>
<path d="M250.617 169.761L247.534 169.537C245.552 169.393 243.64 170.294 242.488 171.912L232.037 186.6C230.438 188.669 230.902 191.656 233.055 193.141C235.002 194.484 237.884 194.377 239.388 192.551C243.762 187.237 252.864 175.803 250.617 169.761Z" fill="#E481A7"/>
<path d="M230.124 173.017L232.264 177.429L228.367 179.706L226.378 173.365L230.124 173.017Z" fill="#DF5A15"/>
<path d="M224.529 167.412C224.529 167.412 222.932 171.488 227.233 174.256L230.123 173.017L230.619 168.754L229.324 166.668L224.529 167.412Z" fill="#DF5A15"/>
<path d="M223.765 171.499L223.569 171.218C223.264 170.78 223.371 170.178 223.809 169.873L232.417 163.873L233.718 165.74L225.11 171.74C224.672 172.044 224.07 171.936 223.765 171.499Z" fill="black"/>
<path d="M238.479 164.966C236.962 166.024 234.874 165.651 233.816 164.134C232.758 162.617 233.131 160.529 234.648 159.471C236.165 158.413 238.253 158.786 239.311 160.303C240.369 161.821 239.996 163.909 238.479 164.966Z" fill="#160033"/>
<path d="M236.235 166.522L232.406 161.027L228.806 163.536L232.636 169.031L236.235 166.522Z" fill="#EDB82B"/>
<path d="M226.378 173.365C226.378 173.365 229.711 174.566 230.897 170.55C231.203 169.515 230.954 168.656 230.833 167.997C230.727 167.42 230.197 166.977 229.634 167.141C229.268 167.248 228.995 167.552 228.927 167.927L228.69 169.252C228.69 169.252 225.73 170.606 225.781 172.648L226.378 173.365Z" fill="#DF5A15"/>
<path d="M230.186 166.503C229.961 165.316 228.794 164.511 227.621 164.802C226.925 164.975 226.096 165.392 225.166 166.25C224.418 166.94 224.278 168.073 224.817 168.936L224.968 169.179C225.454 169.958 226.442 170.143 227.134 169.624L229.732 167.675C230.094 167.402 230.27 166.948 230.186 166.503Z" fill="#DF5A15"/>
<path d="M239.405 187.449L232.197 173.706L225.123 176.359L231.665 191.617L239.405 187.449Z" fill="#E481A7"/>
<path d="M236.022 180.998L237.721 184.238" stroke="#1E0B07" stroke-width="0.1656" stroke-miterlimit="10" stroke-linecap="round" stroke-linejoin="round"/>
<path d="M266.219 206.766L245.307 206.415L248.477 169.257L249.969 168.617L256.166 168.08L265.509 185.13L266.219 206.766Z" fill="white"/>
<path d="M256.166 168.08L258.996 169.188C258.996 169.188 258.078 172.418 252.567 172.513C247.056 172.608 247.342 169.663 247.342 169.663L249.99 167.939L256.166 168.08Z" fill="#DF5A15"/>
<path d="M258.032 208.435C262.087 213.65 271.094 212.647 271.094 212.647C271.094 212.647 267.619 193.903 265.404 178.61L265.803 170.546C265.819 170.222 265.621 169.927 265.316 169.817C263.958 169.331 260.101 168.055 256.08 167.702C256.08 167.702 254.912 204.423 258.032 208.435Z" fill="#E481A7"/>
<path d="M258.137 167.958L261.09 171.892L258.392 173.292L260.538 174.734L255.904 189.379" stroke="#1E0B07" stroke-width="0.1656" stroke-miterlimit="10" stroke-linecap="round" stroke-linejoin="round"/>
<path d="M246.252 210.678C244.502 211.613 242.415 212.076 242.415 212.076C242.415 212.076 242.777 171.3 243.978 170.466C246.192 168.926 249.989 167.939 249.989 167.939C247.968 174.56 248.09 207.632 248.09 207.632C248.066 208.903 247.374 210.079 246.252 210.678Z" fill="#E481A7"/>
<path d="M248.323 188.676L245.736 173.968L247.86 172.68L245.868 171.72L248.123 168.516" stroke="#1E0B07" stroke-width="0.1656" stroke-miterlimit="10" stroke-linecap="round" stroke-linejoin="round"/>
<path d="M242.895 188.138L243.127 179.45" stroke="#1E0B07" stroke-width="0.1656" stroke-miterlimit="10" stroke-linecap="round" stroke-linejoin="round"/>
<path d="M265.366 169.835C265.366 169.835 259.818 177.905 264.704 190.469L265.525 194.91C266 197.481 268.536 199.127 271.078 198.513C273.377 197.958 275.219 195.738 274.862 193.401C273.819 186.597 271.367 172.189 265.366 169.835Z" fill="#E481A7"/>
<path d="M262.205 180.998L265.284 191.663" stroke="#1E0B07" stroke-width="0.1656" stroke-miterlimit="10" stroke-linecap="round" stroke-linejoin="round"/>
<path d="M244.727 216.825L255.613 210.454L246.567 195L235.681 201.371L244.727 216.825Z" fill="white"/>
<path d="M255.123 200.146C255.123 200.146 252.773 199.291 249.706 200.397L250.672 202.047L246.229 204.177C245.919 204.316 245.759 204.655 245.857 204.962C245.945 205.236 246.217 205.412 246.517 205.388L246.893 205.359L246.302 205.68C246.034 205.826 245.911 206.157 246.026 206.426C246.135 206.683 246.42 206.822 246.706 206.758L247.145 206.659L246.994 206.791C246.847 206.919 246.794 207.126 246.865 207.297C246.942 207.484 247.144 207.592 247.354 207.559L248.025 207.453L247.95 207.575C247.856 207.728 247.856 207.917 247.952 208.062C248.064 208.232 248.322 208.384 248.527 208.325L253.104 206.48C255.412 205.697 257.112 202.081 257.521 200.62C257.543 200.541 257.511 200.703 257.521 200.62L255.123 200.146Z" fill="#DF5A15"/>
<path d="M267.347 190.769L253.173 197.96L256.884 204.555L272.007 198.184L267.347 190.769Z" fill="#E481A7"/>
<path d="M256.157 196.452L267.347 190.769" stroke="#1E0B07" stroke-width="0.1656" stroke-miterlimit="10" stroke-linecap="round" stroke-linejoin="round"/>
<path d="M256.884 204.555L268.798 199.536" stroke="#1E0B07" stroke-width="0.1656" stroke-miterlimit="10" stroke-linecap="round" stroke-linejoin="round"/>
</svg>
