<svg width="538" height="538" viewBox="0 0 538 538" fill="none" xmlns="http://www.w3.org/2000/svg">
<path d="M413.597 181.147C405.638 187.202 397.75 193.35 389.934 199.59C391.592 196 392.217 191.815 390.748 188.64C390.338 187.676 387.233 181.388 383.732 174.353C388.012 170.628 392.315 166.93 396.641 163.258C398.664 161.54 400.694 159.829 402.727 158.122C403.915 157.124 402.296 155.329 401.107 156.331C394.909 161.559 388.755 166.841 382.648 172.175C378.378 163.606 373.877 154.634 373.116 153.163C375.286 152.348 376.563 152.557 377.622 152.641C379.825 152.816 381.434 153.872 383.586 154.206C387.47 154.808 390.118 151.737 389.291 151.194C388.41 150.618 387.342 152.725 384.116 150.983C382.666 150.199 380.671 147.934 378.783 146.188C380.595 144.558 382.409 142.928 384.23 141.307C386.538 139.253 388.853 137.207 391.173 135.167C392.339 134.143 390.721 132.346 389.554 133.377C385.32 137.115 381.11 140.882 376.919 144.669C376.735 144.547 376.553 144.434 376.377 144.34C373.995 143.075 371.815 143.276 369.177 145.715C368.68 144.865 368.461 144.203 367.818 143.259C367.696 143.08 366.008 143.963 366.061 144.143C366.177 144.538 367.529 147.414 369.466 151.455C360.05 160.093 350.759 168.867 341.621 177.799C340.111 174.769 338.109 170.78 335.95 166.496C349.286 153.021 363.045 139.964 377.167 127.317C379.474 125.25 381.792 123.195 384.118 121.149C385.283 120.125 383.666 118.328 382.499 119.359C366.124 133.82 350.221 148.815 334.875 164.363C328.717 152.155 321.772 138.498 321.409 137.965C321.333 137.853 286.081 169.086 286.097 169.139C286.407 170.198 295.597 189.084 301.162 200.49C292.906 209.866 284.859 219.424 277.041 229.169C272.097 235.332 267.257 241.578 262.503 247.889C251.615 249.439 240.448 254.34 227.776 264.224C221.957 255.569 216.051 246.97 210.166 238.363C209.197 236.946 208.232 235.527 207.264 234.109C207.611 233.362 207.96 232.616 208.302 231.867C212.176 223.632 215.898 215.329 219.033 206.776C222.63 196.963 225.57 186.748 226.038 176.249C226.156 173.588 226.111 170.894 225.87 168.218C225.828 166.566 225.714 164.909 225.515 163.245C225.187 160.504 224.58 157.779 223.735 155.128C223.685 154.89 223.647 154.652 223.593 154.414C223.565 154.293 223.502 154.212 223.426 154.159C220.303 145.093 214.187 137.055 205.477 132.757C200.338 130.221 194.617 128.999 188.896 129.696C183.019 130.412 177.477 133.301 173.234 137.384C168.925 141.53 165.717 146.858 164.064 152.604C162.332 158.626 162.145 164.994 163.076 171.17C164.772 182.419 170.252 192.661 176.885 201.86C183.567 212.169 191.625 221.763 198.932 231.391C199.62 232.297 200.296 233.211 200.976 234.122C200.897 234.309 200.82 234.496 200.74 234.683C195.298 247.332 189.322 259.757 184.255 272.564C183.359 274.554 182.466 276.545 181.578 278.536C177.385 287.938 173.619 297.559 170.905 307.499C165.713 326.51 164.303 346.994 170.189 366.027C172.585 373.775 176.128 381.184 180.871 387.762C175.543 400.47 170.672 413.37 166.329 426.433C165.323 429.461 164.357 432.497 163.455 435.557L163.561 435.592C167.825 423.681 172.098 411.788 176.893 400.076C178.433 396.315 180.031 392.581 181.653 388.858C182.435 389.897 183.244 390.917 184.09 391.91C184.404 392.279 184.738 392.63 185.06 392.992C180.096 404.386 175.554 415.964 171.471 427.689C170.441 430.645 169.454 433.61 168.532 436.601L168.638 436.636C172.969 425.045 177.326 413.48 182.228 402.114C183.416 399.361 184.632 396.622 185.869 393.893C188.014 396.209 190.333 398.362 192.797 400.336C187.219 411.408 182.088 422.704 177.491 434.204C176.391 436.956 175.338 439.718 174.348 442.511L174.454 442.546C179.222 431.294 184.089 420.105 189.539 409.161C190.892 406.443 192.274 403.741 193.682 401.052C196.074 402.899 198.605 404.562 201.24 406.041C194.847 416.66 188.784 427.479 183.093 438.477C181.843 440.893 180.627 443.321 179.455 445.777L179.555 445.824C185.159 435.746 190.687 425.635 196.62 415.743C198.461 412.673 200.342 409.63 202.24 406.597C203.095 407.057 203.957 407.504 204.834 407.922C206.698 408.809 208.596 409.566 210.518 410.223C203.153 420.507 196.048 430.978 189.276 441.658C187.773 444.029 186.409 446.49 184.973 448.903C184.815 449.169 185.199 449.421 185.378 449.166C194.383 436.341 203.412 423.538 212.694 410.917C216.183 411.947 219.752 412.632 223.379 412.972C224.995 413.245 226.622 413.464 228.258 413.622C247.7 415.499 267.442 409.884 284.76 401.358C285.353 401.066 285.942 400.762 286.531 400.46C286.93 410.841 285.11 421.406 279.555 430.315C277.977 432.846 276.117 435.247 274.035 437.442C273.95 437.343 273.827 437.28 273.664 437.29C270.521 437.494 268.045 435.442 265.799 433.505C263.573 431.585 261.32 429.744 258.722 428.341C253.781 425.674 247.717 424.072 242.206 425.883C239.136 426.892 236.392 428.972 234.528 431.642C233.557 432.736 232.762 433.993 232.204 435.361C229.3 442.477 233.963 449.864 240.479 452.845C242.402 453.726 244.442 454.262 246.53 454.532C247.805 454.877 249.11 455.116 250.428 455.214C260.748 455.985 270.58 450.041 277.479 442.831C284.721 435.262 289.163 425.655 290.836 415.36L290.872 415.11C291.721 410.446 292.048 405.661 291.885 400.889C291.848 399.803 291.786 398.722 291.704 397.644C304.51 390.165 324.478 374.403 335.472 346.181C343.237 326.247 342.569 303.528 329.248 281.215C340.716 270.754 352.448 260.584 364.462 250.75C381.685 236.653 399.454 223.221 417.721 210.504C420.077 208.864 422.441 207.236 424.814 205.62C426.332 204.586 425.049 201.985 423.512 203.033C405.011 215.641 386.993 228.948 369.524 242.951C355.209 254.428 341.267 266.369 327.71 278.732C326.754 277.239 325.743 275.749 324.671 274.262C322.423 271.143 319.976 268.371 317.402 265.898C329.093 254.64 341.084 243.693 353.326 233.037C371.106 217.561 389.416 202.7 408.114 188.35C410.476 186.537 412.844 184.734 415.217 182.937C416.452 182.001 414.829 180.21 413.597 181.147ZM327.252 154.855C329.117 158.704 331.088 162.753 332.867 166.404C330.984 168.325 329.104 170.249 327.238 172.186C319.026 180.711 310.993 189.408 303.139 198.265C300.979 193.975 298.618 189.3 296.409 184.942L327.252 154.855ZM304.176 200.326C310.242 193.515 316.414 186.798 322.69 180.181C326.396 176.273 330.145 172.407 333.921 168.567C336.68 174.224 338.768 178.492 338.887 178.744C333.942 176.997 326.432 181.516 323.536 186.766C321.158 191.077 320.796 194.81 321.643 197.856C317.517 202.115 313.432 206.413 309.387 210.749C308.182 208.313 306.318 204.587 304.176 200.326ZM302.18 202.577C303.995 206.296 305.24 208.841 305.331 209.034C301.394 207.643 295.836 210.23 292.27 213.99C295.54 210.156 298.842 206.351 302.18 202.577ZM272.757 237.768C278.747 230.167 284.881 222.68 291.144 215.303C290.706 215.873 290.31 216.459 289.98 217.056C287.084 222.305 287.174 226.699 288.801 230.035C289.159 230.77 289.621 231.435 290.152 232.031C287.909 234.597 285.679 237.174 283.469 239.767C281.238 242.384 279.028 245.019 276.83 247.664C272.928 247.27 269.058 247.218 265.166 247.581C267.673 244.292 270.197 241.016 272.757 237.768ZM263.655 322.779C275.259 309.189 287.361 296.025 299.872 283.265C303.114 287.167 306.15 291.544 308.931 296.384C295.963 308.957 283.398 321.948 271.248 335.309C270.984 335.599 270.724 335.893 270.461 336.183C268.284 331.667 266.009 327.2 263.655 322.779ZM262.765 321.123C260.42 316.766 258.012 312.45 255.546 308.185C255.363 307.847 255.179 307.51 254.995 307.172C264.926 294.531 275.274 282.221 285.958 270.209C290.387 273.36 294.63 277.213 298.592 281.758C286.217 294.478 274.251 307.594 262.765 321.123ZM284.356 269.082C273.905 280.927 263.781 293.06 254.054 305.506C253.293 304.17 252.511 302.852 251.66 301.569C249.609 298.131 247.512 294.721 245.395 291.324C252.666 281.19 260.219 271.26 268.016 261.525C273.596 263.047 279.095 265.574 284.356 269.082ZM265.972 261.025C258.533 270.399 251.323 279.955 244.369 289.695C242.907 287.363 241.437 285.035 239.949 282.719C245.156 274.987 250.512 267.357 256.012 259.83C259.332 259.873 262.662 260.27 265.972 261.025ZM253.659 259.854C248.61 266.842 243.689 273.922 238.891 281.085C235.948 276.526 232.972 271.988 229.957 267.476C237.41 262.673 245.476 260.17 253.659 259.854ZM250.651 309.891C249.46 311.44 248.271 312.991 247.092 314.549C243.887 311.809 239.603 310.33 235.38 310.973C233.772 311.218 232.274 311.775 230.839 312.484C232.273 310.309 233.714 308.138 235.174 305.98C237.519 302.516 239.91 299.084 242.321 295.666C245.143 300.374 247.923 305.115 250.651 309.891ZM240.021 291.83C240.46 292.554 240.891 293.285 241.328 294.01C240.422 295.301 239.507 296.586 238.61 297.883C234.859 303.31 231.197 308.8 227.616 314.342C226.596 314.995 225.592 315.671 224.592 316.315C222.394 317.732 219.629 319.358 216.87 319.437C220.797 312.725 224.828 306.074 228.984 299.502C231.631 295.317 234.337 291.17 237.072 287.042C238.061 288.635 239.049 290.227 240.021 291.83ZM226.356 270.258C227.901 272.644 231.376 278.03 232.344 279.518C233.584 281.466 234.817 283.418 236.041 285.376C234.811 287.241 233.579 289.104 232.367 290.981C226.375 300.26 220.618 309.69 215.085 319.251L215.006 319.234C204.662 288.99 226.356 270.258 226.356 270.258ZM177.74 188.881C175.107 184.316 172.7 179.504 171.516 174.341C171.488 174.149 171.45 173.96 171.425 173.767C170.774 168.829 171.242 163.856 173.239 159.268C175.018 155.18 178.073 151.461 182.104 149.448C186.199 147.403 190.874 147.527 195.1 149.116C199.667 150.833 203.38 154.11 206.265 157.985C208.209 160.596 209.821 163.505 211.202 166.524C211.677 167.89 212.118 169.266 212.493 170.658C214.376 177.641 214.942 184.916 214.165 192.104C213.366 199.49 211.301 206.678 208.93 213.695C207.254 218.658 205.362 223.543 203.371 228.387C198.135 220.671 192.943 212.926 187.879 205.096C184.421 199.749 180.923 194.4 177.74 188.881ZM185.857 357.916C181.061 348.461 178.885 337.88 178.37 327.328C176.755 294.286 200.4 248.657 204.843 239.303C211.554 248.41 218.028 257.69 224.29 267.111C219.338 271.92 213.435 278.697 210.615 285.994C207.857 293.128 204.484 303.721 209.032 318.462C209.799 320.952 210.68 323.203 211.636 325.275C205.788 335.63 200.213 346.139 194.955 356.807C193.482 359.796 192.04 362.801 190.619 365.817C188.858 363.292 187.249 360.661 185.857 357.916ZM191.563 367.17C191.813 366.644 192.057 366.115 192.309 365.59C198.579 352.506 205.331 339.656 212.49 327.037C213.609 329.216 214.824 331.157 216.118 332.865C210.699 341.951 205.507 351.173 200.597 360.546C198.698 364.172 196.858 367.831 195.047 371.505C193.833 370.103 192.66 368.665 191.563 367.17ZM196.045 372.665C196.73 371.3 197.405 369.931 198.099 368.571C204.05 356.893 210.434 345.44 217.178 334.202C220.315 337.936 223.835 340.436 227.423 341.973C221.41 350.832 215.612 359.837 210.093 369.014C207.916 372.633 205.801 376.292 203.716 379.969C200.987 377.73 198.417 375.288 196.045 372.665ZM204.844 380.855C205.56 379.614 206.267 378.368 206.991 377.131C213.889 365.347 221.248 353.838 228.965 342.573C229.701 342.832 230.437 343.065 231.172 343.247C237.537 344.824 245.974 341.516 249.934 336.041C253.2 331.524 253.854 325.053 250.759 319.121C250.118 317.893 249.295 316.766 248.346 315.756C249.42 314.346 250.508 312.947 251.592 311.545C254.184 316.112 256.725 320.71 259.205 325.341C244.782 342.591 231.152 360.507 218.494 379.092C216.775 381.617 215.078 384.158 213.399 386.711C210.427 384.965 207.571 383.006 204.844 380.855ZM214.655 387.422C214.801 387.204 214.944 386.985 215.09 386.766C227.82 367.709 241.571 349.339 256.168 331.673C257.464 330.105 258.775 328.549 260.085 326.991C262.405 331.356 264.672 335.747 266.872 340.169C253.404 355.207 240.459 370.713 228.083 386.662C226.737 388.398 225.403 390.144 224.071 391.89C220.839 390.622 217.694 389.13 214.655 387.422ZM282.604 377.36C283.706 381.304 284.634 385.291 285.32 389.32C276.807 393.254 267.669 395.821 258.312 396.737C247.421 397.803 236.518 396.371 226.363 392.761C239.487 375.778 253.236 359.276 267.575 343.306C267.755 343.105 267.938 342.907 268.118 342.707C270.02 346.585 271.889 350.477 273.683 354.4C277.097 361.867 280.205 369.504 282.604 377.36ZM290.114 386.517C287.815 375.384 283.565 364.67 278.726 354.366C278.274 353.403 277.809 352.445 277.351 351.484C275.571 347.202 273.671 342.966 271.691 338.767C284.151 325.085 297.049 311.804 310.358 298.946C310.793 299.756 311.231 300.561 311.653 301.395C327.166 332.103 324.097 363.442 290.114 386.517ZM279.167 247.926L279.327 247.734C283.39 242.897 287.512 238.11 291.687 233.37C293.294 234.473 295.271 235.026 297.386 234.713C301.501 234.104 306.124 230.772 308.501 227.22C311.173 223.227 312.632 217.631 310.784 213.637C310.727 213.502 310.591 213.213 310.393 212.802C314.406 208.524 318.462 204.285 322.552 200.08C324.168 203.057 327.369 204.951 330.942 204.423C335.057 203.814 339.68 200.482 342.057 196.93C344.729 192.937 346.188 187.341 344.34 183.347C344.199 183.015 343.598 181.782 342.682 179.932C351.82 171.027 361.111 162.278 370.528 153.667C373.501 159.842 377.401 167.855 380.448 174.103C370.319 182.988 360.323 192.024 350.489 201.235C332.977 217.636 315.975 234.584 299.651 252.169C299.279 252.57 298.912 252.975 298.54 253.377C291.709 250.374 284.959 248.712 279.167 247.926ZM369.945 192.059C367.049 197.308 367.138 201.702 368.765 205.038C370.313 208.215 373.64 210.265 377.35 209.716L377.446 209.695C370.912 215.059 364.435 220.492 358.027 226.007C343.606 238.418 329.537 251.237 315.886 264.49C311.023 260.123 305.755 256.784 300.481 254.27C315.188 238.518 330.436 223.271 346.094 208.465C357.684 197.505 369.507 186.793 381.516 176.293C383.668 180.703 385.194 183.823 385.295 184.037C380.35 182.291 372.84 186.81 369.945 192.059Z" fill="white"/>
<path d="M208.605 206.002L208.696 205.911C212.078 199.509 213.448 191.708 213.565 184.527C213.676 177.701 212.335 170.903 209.266 164.806C208.932 164.142 208.577 163.487 208.202 162.841C206.044 159.126 203.174 155.844 199.495 153.573C199.344 153.478 199.169 153.487 199.038 153.555C198.829 153.661 198.681 153.92 198.803 154.172L198.891 154.294C202.327 157.769 205.277 161.645 207.444 165.95C208.532 168.112 209.422 170.381 210.078 172.763C211.974 179.651 212.106 186.834 210.947 193.865C210.288 197.87 209.144 201.766 208.297 205.746L208.317 205.892C208.364 205.984 208.473 206.059 208.605 206.002Z" fill="white"/>
<path d="M196.862 153.162C197.021 153.182 197.17 153.153 197.295 153.09C197.406 153.034 197.496 152.952 197.569 152.857L197.571 152.858C197.572 152.857 197.573 152.855 197.574 152.853C197.575 152.852 197.577 152.851 197.578 152.849L197.577 152.848C197.736 152.672 197.822 152.42 197.764 152.138L197.763 152.128L197.714 152.001L197.689 151.934L197.684 151.922L197.64 151.853L197.571 151.746L197.566 151.737L197.559 151.73C197.367 151.516 197.113 151.435 196.877 151.459L196.877 151.457C196.875 151.457 196.873 151.458 196.871 151.458C196.869 151.458 196.867 151.457 196.865 151.457L196.866 151.459C196.746 151.462 196.625 151.485 196.514 151.541C196.389 151.603 196.278 151.705 196.199 151.845L196.11 152.003C195.972 152.245 195.972 152.515 196.081 152.73C196.188 152.945 196.406 153.106 196.682 153.139L196.862 153.162Z" fill="white"/>
<path d="M209.199 185.951L209.349 185.743C209.846 182.858 209.879 179.993 209.623 177.085C209.496 175.64 209.297 174.202 209.028 172.777C208.871 171.953 208.754 170.826 208.314 169.948C208.148 169.617 207.933 169.321 207.65 169.095C207.546 169.011 207.413 169.02 207.321 169.069C207.244 169.108 207.18 169.172 207.149 169.26C206.739 170.491 207.466 172.058 207.709 173.18C208.001 174.498 208.232 175.83 208.4 177.17C208.753 179.986 208.822 182.861 208.804 185.703L208.834 185.837C208.908 185.979 209.075 186.013 209.199 185.951Z" fill="white"/>
<path d="M188.026 222.999C189.764 225.111 191.501 227.224 193.239 229.337C195.002 231.48 196.667 233.87 198.798 235.704C199.001 235.877 199.275 235.879 199.479 235.777C199.59 235.721 199.685 235.631 199.733 235.511C199.782 235.39 199.776 235.243 199.703 235.101L199.687 235.071L199.687 235.07C198.347 232.714 196.421 230.705 194.72 228.643C192.93 226.472 191.14 224.302 189.35 222.132C185.766 217.787 182.09 213.544 178.274 209.405C178.17 209.287 178.008 209.268 177.898 209.328C177.748 209.404 177.654 209.599 177.746 209.785L177.779 209.838C181.074 214.324 184.489 218.698 188.026 222.999Z" fill="white"/>
<path d="M186.263 223.751C186.13 223.818 186.052 223.992 186.133 224.154L186.162 224.201C187.168 225.61 188.21 226.968 189.33 228.291L190.963 230.22C191.52 230.877 192.052 231.533 192.746 232.077C192.923 232.217 193.145 232.209 193.311 232.123C193.569 231.992 193.762 231.669 193.611 231.355L193.592 231.321C193.155 230.59 192.595 230 192.033 229.387C191.441 228.744 190.85 228.1 190.258 227.455C189.087 226.181 187.872 224.979 186.601 223.806C186.503 223.712 186.362 223.698 186.263 223.751Z" fill="white"/>
<path d="M172.768 377.924C172.846 377.888 172.927 377.787 172.887 377.662C171.04 372.201 168.881 366.919 167.565 361.302C166.226 355.587 165.415 349.796 165.117 343.933C164.531 332.423 166.088 321.01 168.644 309.8C170.066 303.561 171.904 297.467 173.6 291.293L173.587 291.134C173.528 291.023 173.4 290.989 173.294 291.041L173.19 291.15C170.755 296.454 168.965 302.047 167.331 307.634C165.717 313.155 164.652 318.854 163.924 324.552C162.424 336.287 162.677 348.255 165.365 359.809C166.459 364.511 167.909 369.429 170.131 373.843C170.835 375.241 171.615 376.589 172.487 377.862C172.562 377.969 172.694 377.965 172.768 377.924Z" fill="white"/>
<path d="M160.985 346.161C161.099 346.107 161.192 345.981 161.188 345.825C161.139 341.171 161.014 336.538 161.415 331.904C161.612 329.619 161.863 327.342 162.223 325.079C162.579 322.826 163.365 320.416 163.378 318.096L163.32 317.854C163.183 317.59 162.859 317.422 162.572 317.556C162.484 317.6 162.409 317.676 162.357 317.778C161.363 319.745 161.093 322.218 160.749 324.34C160.361 326.742 160.059 329.166 159.902 331.597C159.597 336.34 159.575 341.181 160.381 345.885L160.417 345.994C160.534 346.213 160.796 346.254 160.985 346.161Z" fill="white"/>
<path d="M209.474 325.501C209.618 325.433 209.739 325.259 209.682 325.059C208.702 321.536 207.765 317.947 206.975 314.377C206.165 310.713 205.567 306.986 205.452 303.235C205.25 296.673 206.538 290.3 209.51 284.437C209.643 284.176 209.624 283.904 209.516 283.692C209.332 283.327 208.888 283.101 208.497 283.291C208.376 283.352 208.268 283.454 208.182 283.595C204.718 289.344 203.545 296.337 203.721 302.959C203.822 306.773 204.354 310.573 205.227 314.283C206.131 318.124 207.41 321.694 208.917 325.323L208.929 325.349C208.983 325.457 209.083 325.523 209.183 325.542C209.283 325.562 209.385 325.545 209.474 325.501Z" fill="white"/>
<path d="M200.659 307.683C200.797 307.615 200.903 307.469 200.923 307.277C201.18 304.915 201.45 302.559 201.675 300.192C201.785 299.031 201.913 297.871 202.058 296.714C202.194 295.618 202.465 294.319 202.115 293.19L202.082 293.108C201.962 292.871 201.68 292.753 201.439 292.872L201.257 293.034C200.603 293.993 200.495 295.291 200.367 296.368C200.227 297.566 200.106 298.766 200.003 299.968C199.796 302.399 199.788 304.788 199.91 307.221L199.969 307.449C200.104 307.712 200.419 307.801 200.659 307.683Z" fill="white"/>
<path d="M277.085 408.765C277.362 408.569 277.389 408.245 277.265 408.013C277.112 407.709 276.726 407.483 276.343 407.652C273.051 409.147 269.871 410.782 266.456 411.954C263.047 413.123 259.532 413.979 255.996 414.682C248.942 416.082 241.737 416.685 234.588 417.459L234.506 417.482C234.367 417.561 234.354 417.716 234.407 417.826C234.44 417.895 234.52 417.958 234.617 417.958C242.032 418.043 249.449 417.617 256.763 416.286C260.278 415.647 263.743 414.738 267.118 413.564C269.227 412.829 271.356 412.016 273.375 411C274.668 410.349 275.916 409.615 277.085 408.765Z" fill="white"/>
<path d="M270.973 415.003C270.359 415.243 269.746 415.483 269.132 415.723C267.922 416.195 266.777 416.797 265.619 417.358L265.615 417.361C265.531 417.402 265.478 417.479 265.461 417.556L265.489 417.779C265.538 417.886 265.674 417.975 265.823 417.933C267.059 417.607 268.312 417.322 269.53 416.896C270.131 416.685 270.732 416.475 271.334 416.265C271.635 416.159 271.935 416.054 272.236 415.949C272.447 415.875 272.679 415.815 272.897 415.706C273.002 415.653 273.103 415.588 273.196 415.505C273.422 415.298 273.442 414.979 273.322 414.741C273.232 414.559 273.048 414.414 272.808 414.408C272.164 414.395 271.507 414.798 270.973 415.003Z" fill="white"/>
<path d="M249.571 457.837C248.606 457.997 247.606 457.959 246.631 457.832C244.713 457.584 242.816 456.926 241.056 456.119C237.491 454.483 234.449 451.974 231.898 449.005C231.75 448.831 231.52 448.828 231.361 448.911C231.265 448.96 231.183 449.037 231.136 449.138C231.089 449.238 231.084 449.367 231.144 449.483L231.163 449.517C233.391 453.17 236.781 456.041 240.631 457.875C242.566 458.797 244.636 459.515 246.774 459.802C247.868 459.949 248.995 459.951 250.088 459.75C250.553 459.664 251.093 459.555 251.557 459.323C251.991 459.105 252.364 458.766 252.505 458.238C252.545 458.091 252.53 457.941 252.467 457.815C252.404 457.69 252.293 457.589 252.15 457.535C251.237 457.196 250.373 457.711 249.571 457.837Z" fill="white"/>
<path d="M256.18 457.638L256.176 457.632L256.171 457.627L256.156 457.61L256.15 457.603L255.992 457.468L255.988 457.464L255.975 457.456L255.973 457.454L255.972 457.453C255.862 457.383 255.714 457.321 255.564 457.319L255.564 457.319L255.559 457.319L255.555 457.319L255.548 457.319L255.366 457.331L255.362 457.331L255.348 457.333L255.337 457.335L255.133 457.405L255.123 457.408L255.105 457.418L255.1 457.421L254.943 457.528L254.941 457.529L254.934 457.535L254.923 457.543L254.788 457.701L254.778 457.712L254.697 457.881L254.691 457.894L254.655 458.077L254.652 458.092L254.665 458.28L254.665 458.286L254.666 458.291L254.725 458.475L254.8 458.591L254.802 458.592L254.81 458.601L254.814 458.629L254.817 458.647L254.905 458.822L254.906 458.824L254.908 458.826C254.961 458.921 255.038 459 255.133 459.056L255.137 459.059L255.296 459.135L255.303 459.138L255.31 459.141C255.44 459.183 255.576 459.192 255.71 459.165L255.718 459.164L255.916 459.096L255.922 459.094L255.938 459.087L255.942 459.084L255.95 459.08L255.953 459.078L255.96 459.074L255.961 459.073L256.11 458.971L256.117 458.967L256.137 458.948L256.143 458.943L256.272 458.789L256.28 458.78L256.285 458.77C256.37 458.622 256.396 458.535 256.418 458.368L256.418 458.365L256.42 458.34L256.421 458.331L256.407 458.126L256.407 458.12L256.402 458.091L256.401 458.086L256.397 458.071L256.396 458.069L256.394 458.061L256.393 458.06L256.331 457.879L256.329 457.873L256.306 457.825L256.302 457.817L256.238 457.723L256.18 457.638Z" fill="white"/>
<path d="M245.866 460.851C245.824 460.816 245.775 460.779 245.707 460.746C245.549 460.672 245.383 460.654 245.224 460.655C244.975 460.657 244.736 460.701 244.51 460.717L244.427 460.721L244.284 460.726C244.189 460.728 244.094 460.73 243.999 460.729C243.786 460.728 243.57 460.714 243.351 460.707C242.949 460.693 242.547 460.64 242.137 460.601C241.938 460.582 241.741 460.556 241.544 460.524C241.396 460.501 241.213 460.441 241.018 460.439C240.872 460.39 240.728 460.339 240.587 460.284C240.441 460.226 240.289 460.242 240.17 460.303C239.893 460.448 239.734 460.802 239.872 461.098C239.917 461.188 239.996 461.266 240.101 461.316C240.275 461.4 240.449 461.477 240.625 461.552C240.779 461.676 240.949 461.749 241.124 461.827C241.336 461.922 241.552 462.008 241.771 462.086C242.235 462.251 242.727 462.333 243.204 462.395C243.645 462.452 244.094 462.44 244.528 462.414C244.785 462.398 245.074 462.397 245.349 462.335C245.462 462.308 245.595 462.268 245.717 462.207L245.905 462.082C246.02 461.976 246.08 461.853 246.148 461.767C246.289 461.581 246.276 461.338 246.183 461.151C246.135 461.056 246.064 460.972 245.971 460.915L245.866 460.851Z" fill="white"/>
<path d="M296.064 403.69C295.894 403.358 295.49 403.256 295.189 403.406C295.015 403.492 294.879 403.673 294.857 403.918C294.351 408.974 293.825 413.987 292.635 418.929C291.471 423.765 289.73 428.456 287.962 433.108L287.97 433.282C288.031 433.393 288.156 433.446 288.283 433.39L288.372 433.305C290.983 428.896 292.706 424.102 294.005 419.162C295.299 414.245 296.216 409.1 296.136 403.994C296.134 403.881 296.109 403.778 296.064 403.69Z" fill="white"/>
<path d="M297.531 407.958C297.326 408.059 297.17 408.274 297.142 408.573C297.069 409.328 297.076 410.091 297.03 410.834C296.983 411.587 296.935 412.337 296.86 413.084C296.786 413.825 296.646 414.572 296.595 415.33C296.544 416.077 296.479 416.814 296.38 417.555L296.421 417.814C296.552 418.059 296.861 418.131 297.097 418.017C297.199 417.967 297.286 417.872 297.325 417.744C297.543 417.029 297.758 416.31 297.958 415.588C298.169 414.83 298.248 414.024 298.35 413.261C298.549 411.768 298.763 410.182 298.666 408.658C298.658 408.533 298.627 408.42 298.577 408.321C298.373 407.921 297.891 407.779 297.531 407.958Z" fill="white"/>
<path d="M312.623 310.083C312.441 310.168 312.303 310.386 312.379 310.636C314.483 317.973 316.065 325.392 315.861 333.055C315.66 340.615 314.067 348.125 311.136 355.101C309.463 359.082 307.355 362.983 304.985 366.593L304.928 366.68L305.125 366.848L305.212 366.922L305.289 366.837C315.792 355.122 319.57 338.236 317.305 322.894C316.691 318.736 315.534 314.621 313.639 310.855C313.544 310.665 313.446 310.477 313.348 310.29C313.193 310.004 312.854 309.965 312.623 310.083Z" fill="white"/>
<path d="M311.914 342.881C311.997 342.84 312.069 342.766 312.111 342.666C313.183 340.145 313.949 337.619 314.096 334.861C314.167 333.52 314.15 332.191 313.913 330.866C313.73 329.847 313.548 328.759 313.068 327.804C312.961 327.591 312.839 327.385 312.699 327.188C312.597 327.039 312.408 327.03 312.291 327.096C312.185 327.151 312.097 327.251 312.079 327.385C311.929 328.638 312.235 329.884 312.262 331.092C312.293 332.352 312.386 333.612 312.351 334.866C312.283 337.381 312.043 339.996 311.34 342.405C311.308 342.514 311.318 342.621 311.361 342.707C311.466 342.906 311.713 342.98 311.914 342.881Z" fill="white"/>
<path d="M337.787 286.474C337.247 285.4 336.664 284.344 336.031 283.306C335.781 282.892 335.319 282.829 334.994 282.997C334.667 283.156 334.45 283.562 334.649 284.006C337.508 290.506 340.012 297.121 341.385 304.099C342.756 311.063 343.058 318.184 342.541 325.26C342.242 329.359 341.625 333.485 340.729 337.496L340.757 337.742C340.847 337.913 341.052 337.995 341.231 337.91C341.307 337.872 341.369 337.799 341.4 337.706C345.99 323.845 345.642 308.434 341.085 294.596C340.164 291.797 339.101 289.084 337.787 286.474Z" fill="white"/>
<path d="M342.866 293.746C342.736 293.81 342.631 293.944 342.613 294.117C342.466 295.472 342.79 296.872 343.046 298.166C343.312 299.505 343.657 300.826 344.001 302.143C344.346 303.461 344.703 304.784 345.144 306.079C345.582 307.364 346.166 308.586 346.662 309.831L346.673 309.857C346.713 309.939 346.791 309.993 346.868 310.008L347.087 309.977C347.198 309.924 347.295 309.792 347.262 309.634C346.977 308.266 346.815 306.861 346.509 305.48C346.225 304.2 345.911 302.929 345.61 301.656C345.309 300.382 345.037 299.1 344.721 297.825C344.42 296.612 344.17 295.292 343.591 294.139L343.486 293.94C343.353 293.694 343.068 293.641 342.866 293.746Z" fill="white"/>
<path d="M266.788 322.397L266.845 322.36L266.77 322.269L266.846 322.359C268.894 320.646 270.824 318.857 272.726 316.982C273.638 316.084 274.551 315.188 275.432 314.255C276.319 313.316 277.244 312.327 277.975 311.245C278.047 311.137 278.035 311.01 277.988 310.917L277.827 310.755C277.755 310.719 277.658 310.713 277.574 310.757L277.539 310.778C275.365 312.254 273.541 314.26 271.721 316.108C269.861 317.997 268.093 319.919 266.394 321.95C266.317 322.038 266.31 322.164 266.356 322.248C266.433 322.393 266.613 322.477 266.788 322.397Z" fill="white"/>
<path d="M277.42 313.489L277.292 313.55C276.586 313.906 276.004 314.476 275.478 315.024C274.932 315.592 274.375 316.155 273.85 316.75C272.757 317.99 271.726 319.273 270.633 320.501C270.538 320.604 270.535 320.747 270.587 320.845L270.737 320.989L270.965 320.982L271.04 320.929C272.255 319.796 273.527 318.725 274.754 317.592C275.358 317.035 275.926 316.441 276.5 315.861C277.052 315.305 277.599 314.682 277.919 313.938C277.961 313.845 277.953 313.742 277.913 313.664C277.821 313.493 277.612 313.408 277.42 313.489Z" fill="white"/>
<path d="M341.449 215.37L341.439 215.376L341.438 215.376C341.438 215.376 341.438 215.376 341.438 215.376L341.436 215.377C339.736 216.331 338.136 217.798 336.748 219.131C335.322 220.501 333.923 221.899 332.554 223.326C329.769 226.226 327.235 229.241 324.894 232.508C324.829 232.596 324.833 232.709 324.874 232.786C324.937 232.909 325.089 233.003 325.252 232.929L325.327 232.872C328.067 229.95 330.81 227.016 333.599 224.143C334.974 222.726 336.377 221.338 337.808 219.978C339.163 218.69 340.673 217.294 341.792 215.772C341.856 215.686 341.852 215.576 341.812 215.502C341.753 215.386 341.604 215.297 341.449 215.37Z" fill="white"/>
<path d="M340.866 218.463C340.711 218.515 340.561 218.58 340.414 218.653C339.512 219.109 338.749 219.917 338.053 220.556C337.163 221.375 336.305 222.219 335.471 223.094C333.796 224.849 332.286 226.686 330.838 228.629C330.748 228.746 330.752 228.895 330.808 229.001C330.895 229.173 331.109 229.297 331.322 229.198L331.421 229.124C333.046 227.425 334.735 225.768 336.434 224.141C337.272 223.338 338.12 222.543 338.973 221.756C339.762 221.025 340.888 220.256 341.423 219.24C341.51 219.07 341.495 218.866 341.413 218.701C341.331 218.519 341.113 218.374 340.866 218.463Z" fill="white"/>
<path d="M213.518 371.961C214.181 370.983 214.87 370.019 215.552 369.05C216.256 368.048 216.902 367.022 217.578 366.008C217.653 365.898 217.649 365.764 217.599 365.668C217.52 365.512 217.324 365.404 217.131 365.496L217.045 365.558C216.189 366.386 215.361 367.212 214.613 368.149C213.821 369.142 213.094 370.171 212.399 371.232C211.732 372.25 211.048 373.285 210.476 374.37C209.906 375.454 209.416 376.568 208.906 377.672C208.856 377.777 208.863 377.892 208.908 377.98C209.015 378.177 209.263 378.274 209.479 378.174L209.632 378.029C210.836 375.968 212.176 373.942 213.518 371.961Z" fill="white"/>
<path d="M217.087 369.302L217.062 369.073C216.994 368.939 216.83 368.827 216.651 368.909L216.56 368.981C215.729 369.936 215.046 371.059 214.41 372.136C213.753 373.25 213.1 374.366 212.467 375.495C212.396 375.619 212.394 375.757 212.448 375.861C212.541 376.043 212.771 376.127 212.972 376.028L213.108 375.919C213.946 374.923 214.71 373.875 215.409 372.777C216.083 371.72 216.74 370.526 217.087 369.302Z" fill="white"/>
<path d="M192.79 426.955C192.288 427.677 191.776 428.395 191.282 429.125C190.746 429.915 190.317 430.763 189.841 431.571C189.788 431.66 189.798 431.762 189.836 431.834C189.892 431.945 190.031 432.043 190.186 431.972L190.266 431.909C190.855 431.231 191.49 430.584 192.056 429.869C192.626 429.15 193.152 428.399 193.696 427.669C194.242 426.937 194.792 426.209 195.302 425.444C195.785 424.717 196.401 423.96 196.725 423.109C196.764 423.008 196.757 422.902 196.714 422.82C196.615 422.632 196.38 422.551 196.178 422.648L196.107 422.694C195.404 423.27 194.87 424.12 194.337 424.805C193.793 425.505 193.294 426.231 192.79 426.955Z" fill="white"/>
<path d="M196.327 424.759C195.925 425.173 195.627 425.658 195.336 426.134C195.04 426.618 194.745 427.101 194.449 427.584C193.855 428.556 193.343 429.58 192.801 430.571C192.745 430.671 192.747 430.787 192.791 430.872C192.865 431.018 193.046 431.101 193.215 431.02L193.336 430.914C193.994 429.997 194.693 429.094 195.31 428.139L196.232 426.712C196.535 426.244 196.847 425.764 197.046 425.222C197.088 425.108 197.074 424.989 197.026 424.896C196.922 424.694 196.671 424.567 196.437 424.677L196.327 424.759Z" fill="white"/>
<path d="M183.992 402.856C183.534 403.777 183.11 404.709 182.69 405.645C182.28 406.559 181.877 407.476 181.486 408.4C181.07 409.38 180.729 410.389 180.346 411.374L180.356 411.621C180.441 411.779 180.632 411.86 180.808 411.779L180.935 411.657C181.447 410.769 182.006 409.898 182.495 408.988C182.985 408.077 183.462 407.162 183.933 406.241C184.385 405.355 184.834 404.47 185.252 403.565C185.474 403.082 185.707 402.601 185.895 402.094C186.058 401.649 186.323 401.158 186.332 400.628L186.282 400.404C186.169 400.181 185.893 400.078 185.656 400.197L185.563 400.258C185.177 400.579 184.973 401.054 184.742 401.437C184.464 401.901 184.23 402.379 183.992 402.856Z" fill="white"/>
<path d="M187.169 402.71C186.754 403.223 186.459 403.812 186.103 404.334C185.916 404.609 185.747 404.87 185.594 405.174L185.185 405.989C184.614 407.128 184.156 408.292 183.654 409.449L183.658 409.677C183.737 409.822 183.91 409.886 184.069 409.814L184.18 409.711C184.853 408.633 185.557 407.585 186.174 406.461C186.477 405.909 186.774 405.372 187.005 404.776C187.231 404.191 187.547 403.618 187.732 402.989L187.715 402.753C187.633 402.595 187.44 402.54 187.282 402.618L187.169 402.71Z" fill="white"/>
<path d="M293.081 237.053C293.618 237.256 294.198 237.362 294.747 237.467C295.901 237.685 297.069 237.783 298.244 237.726C300.114 237.636 302.058 237.304 303.753 236.452C304.147 236.253 304.528 236.026 304.891 235.768C305.188 235.565 305.232 235.237 305.104 235C304.936 234.674 304.515 234.441 304.11 234.578C302.158 235.265 300.288 235.978 298.23 236.163C297.232 236.253 296.213 236.244 295.215 236.146C294.718 236.097 294.223 236.023 293.733 235.924C293.161 235.808 292.6 235.821 292.07 235.703L291.823 235.736C291.659 235.82 291.539 236.015 291.629 236.214L291.781 236.361C292.205 236.579 292.602 236.872 293.081 237.053Z" fill="white"/>
<path d="M307.281 234.134C307.488 234.031 307.615 233.861 307.658 233.68C307.703 233.498 307.672 233.309 307.591 233.148C307.51 232.986 307.376 232.849 307.204 232.777C307.032 232.704 306.821 232.704 306.615 232.809C306.408 232.912 306.281 233.082 306.238 233.264C306.193 233.445 306.224 233.634 306.305 233.796C306.386 233.957 306.52 234.094 306.692 234.166C306.863 234.239 307.075 234.239 307.281 234.134Z" fill="white"/>
<path d="M332.423 206.779C333.472 206.536 334.678 206.165 335.776 205.613C336.945 205.024 337.997 204.227 338.595 203.147C338.681 202.992 338.674 202.818 338.606 202.684C338.507 202.476 338.242 202.346 337.983 202.471L337.826 202.548C336.89 203.019 336.083 203.667 335.193 204.168C335.017 204.267 334.838 204.362 334.658 204.453C333.854 204.857 333.01 205.178 332.138 205.403C329.991 205.959 327.627 206.147 325.471 205.628L325.237 205.653C325.077 205.737 325.004 205.929 325.084 206.097L325.272 206.255C327.594 207.074 330 207.341 332.423 206.779Z" fill="white"/>
<path d="M341.783 200.951C342.019 200.833 342.162 200.642 342.211 200.436C342.262 200.231 342.227 200.016 342.135 199.832C342.042 199.648 341.89 199.492 341.695 199.41C341.5 199.328 341.262 199.328 341.027 199.448C340.791 199.565 340.649 199.757 340.599 199.962C340.548 200.168 340.583 200.383 340.675 200.567C340.768 200.751 340.92 200.907 341.115 200.988C341.31 201.071 341.548 201.071 341.783 200.951Z" fill="white"/>
<path d="M293.571 191.961C293.67 191.915 293.747 191.792 293.718 191.658C293.394 189.977 292.759 188.269 292.15 186.684C291.486 184.958 290.77 183.254 289.985 181.578C289.655 180.873 289.315 180.175 288.967 179.483C287.652 176.872 286.214 174.345 284.685 171.84C284.585 171.673 284.386 171.649 284.256 171.719L284.104 171.882C284.073 171.956 284.078 172.049 284.12 172.131L284.123 172.136C284.392 172.653 284.658 173.174 284.92 173.696C286.283 176.403 287.562 179.164 288.796 181.929C289.518 183.548 290.229 185.173 290.926 186.804C291.545 188.252 292.136 189.782 292.855 191.211C292.962 191.424 293.072 191.636 293.186 191.844C293.27 191.997 293.451 192.025 293.571 191.961Z" fill="white"/>
<path d="M289.08 164.041L289.169 163.978L289.09 163.892L289.169 163.978C291.138 162.161 293.023 160.28 294.901 158.373C295.806 157.456 296.706 156.536 297.594 155.601C298.488 154.66 299.493 153.73 300.233 152.628C300.322 152.498 300.329 152.344 300.269 152.231C300.164 152.028 299.903 151.932 299.673 152.043L299.612 152.081C298.563 152.838 297.69 153.846 296.801 154.748C295.861 155.702 294.938 156.669 294.017 157.64C292.201 159.552 290.412 161.471 288.687 163.468C288.576 163.594 288.573 163.761 288.635 163.879L288.813 164.05C288.891 164.085 288.992 164.086 289.08 164.041Z" fill="white"/>
<path d="M365.254 194.47L365.1 194.631C364.051 196.862 363.586 199.275 363.569 201.732C363.556 203.833 363.807 206.211 364.782 208.149C364.889 208.361 365.004 208.568 365.129 208.768C365.265 208.986 365.527 209.031 365.714 208.935C365.862 208.865 365.969 208.688 365.929 208.484C365.729 207.369 365.419 206.291 365.197 205.196C364.963 204.041 364.852 202.873 364.816 201.693C364.745 199.393 365.105 197.063 365.7 194.838L365.681 194.604C365.599 194.446 365.408 194.394 365.254 194.47Z" fill="white"/>
<path d="M368.263 209.103L368.063 208.96L368.047 208.948L368.027 208.943L367.813 208.882L367.792 208.876L367.743 208.881C367.64 208.857 367.522 208.851 367.408 208.909C367.294 208.966 367.229 209.064 367.186 209.161L367.168 209.181L367.157 209.194L367.085 209.344L367.076 209.362L367.051 209.604L367.048 209.625L367.11 209.869L367.116 209.894L367.279 210.093L367.292 210.109L367.502 210.233L367.524 210.246L367.772 210.272L367.792 210.274L368.036 210.213L368.056 210.208L368.203 210.108L368.21 210.103L368.216 210.097C368.306 210.015 368.372 209.913 368.41 209.798L368.413 209.791L368.443 209.637L368.444 209.629L368.445 209.621C368.452 209.497 368.427 209.375 368.371 209.263L368.368 209.256L368.275 209.12L368.263 209.103Z" fill="white"/>
<path d="M376.372 173.132C376.511 173.061 376.627 172.907 376.592 172.719C376.343 171.527 375.792 170.425 375.311 169.341C374.777 168.14 374.235 166.942 373.685 165.747C373.156 164.598 372.624 163.447 372.062 162.311C371.796 161.774 371.543 161.221 371.269 160.676C370.981 160.104 370.67 159.542 370.297 159.021C370.188 158.871 369.998 158.869 369.875 158.935C369.748 158.997 369.635 159.147 369.686 159.326C370.026 160.483 370.611 161.55 371.098 162.627C371.641 163.825 372.198 165.016 372.742 166.212C373.265 167.364 373.782 168.52 374.29 169.679C374.612 170.411 374.911 171.168 375.276 171.894C375.473 172.285 375.689 172.667 375.939 173.031C376.045 173.192 376.246 173.202 376.372 173.132Z" fill="white"/>
<path d="M373.103 139.934C372.581 140.196 372.16 140.601 371.856 141.094C371.799 141.185 371.806 141.293 371.846 141.37C371.906 141.489 372.057 141.585 372.216 141.51L372.293 141.453C372.497 141.238 372.729 141.071 372.981 140.944C373.637 140.613 374.434 140.557 375.182 140.675C375.67 140.751 376.142 140.951 376.539 141.244C376.727 141.384 376.887 141.564 377.054 141.754C377.127 141.837 377.211 141.984 377.309 142.122C377.409 142.259 377.524 142.399 377.704 142.446C377.817 142.473 377.94 142.466 378.049 142.412L378.217 142.258C378.399 141.956 378.257 141.643 378.142 141.412L378.095 141.321C377.968 141.075 377.807 140.854 377.605 140.662C377.212 140.285 376.747 140 376.24 139.808C375.224 139.421 374.099 139.439 373.116 139.928L373.103 139.934Z" fill="white"/>
<path d="M383.017 146.296C382.923 146.113 382.712 146.075 382.564 146.149C382.451 146.201 382.368 146.341 382.398 146.494C382.465 146.888 382.594 147.27 382.774 147.627C383.142 148.36 383.725 148.987 384.433 149.397C384.978 149.713 385.573 149.922 386.197 150.011C386.486 150.052 386.811 150.087 387.121 150.009C387.281 149.968 387.438 149.917 387.59 149.86L387.679 149.821C387.806 149.757 387.894 149.679 387.994 149.616C388.145 149.511 388.186 149.324 388.116 149.169C388.075 149.079 387.965 149.01 387.847 149.02C387.745 149.027 387.629 148.996 387.479 149C387.357 149.004 387.234 149.001 387.112 148.992C386.845 148.972 386.588 148.984 386.341 148.96C385.865 148.915 385.39 148.769 384.969 148.543C384.239 148.152 383.608 147.593 383.245 146.871C383.163 146.709 383.095 146.538 383.042 146.358L383.017 146.296Z" fill="white"/>
<path d="M409.6 218.863L409.574 218.877L409.574 218.877L409.574 218.877C408.004 219.806 406.556 221.025 405.121 222.122C403.626 223.266 402.141 224.425 400.656 225.581C397.623 227.941 394.601 230.317 391.59 232.707C385.577 237.482 379.636 242.375 373.868 247.447C373.781 247.518 373.766 247.646 373.811 247.725C373.865 247.831 374.002 247.903 374.14 247.837L374.182 247.81C380.195 243.14 386.149 238.389 392.104 233.647C395.049 231.303 398.005 228.972 400.972 226.656C402.456 225.497 403.942 224.343 405.431 223.191C406.956 222.012 408.621 220.855 410.015 219.499C410.153 219.365 410.154 219.172 410.084 219.037C410.044 218.957 409.979 218.889 409.893 218.851C409.807 218.812 409.697 218.812 409.6 218.863Z" fill="white"/>
<path d="M408.16 223.514L408.16 223.513L408.156 223.515C406.839 224.178 405.6 225.26 404.48 226.173C403.207 227.212 401.977 228.308 400.77 229.419C398.443 231.559 396.329 233.837 394.342 236.294C394.274 236.375 394.273 236.489 394.314 236.563C394.378 236.686 394.528 236.771 394.686 236.699L394.751 236.653C396.974 234.49 399.248 232.358 401.552 230.281C402.685 229.259 403.843 228.264 405.022 227.295C406.21 226.317 407.588 225.355 408.647 224.209C408.788 224.056 408.795 223.847 408.717 223.695C408.672 223.604 408.596 223.528 408.495 223.489C408.395 223.45 408.273 223.456 408.16 223.514Z" fill="white"/>
<path d="M356.606 139.283L356.67 139.237L356.589 139.152L356.671 139.236C359.166 136.81 361.703 134.424 364.236 132.036C366.763 129.654 369.465 127.414 371.894 124.915C371.992 124.818 372.006 124.674 371.953 124.576C371.886 124.444 371.713 124.361 371.551 124.443L371.5 124.474C368.708 126.553 366.196 129.048 363.681 131.43C361.145 133.832 358.714 136.328 356.324 138.873C356.241 138.959 356.238 139.083 356.282 139.165L356.409 139.288L356.606 139.283Z" fill="white"/>
<path d="M363.274 129.149L363.337 129.109L363.264 129.017L363.337 129.109C363.982 128.597 364.628 128.085 365.273 127.573C365.599 127.314 365.91 127.044 366.219 126.77C366.537 126.486 366.795 126.146 367.061 125.84C367.189 125.695 367.203 125.507 367.132 125.37C367.086 125.279 367.007 125.207 366.908 125.172C366.81 125.136 366.692 125.141 366.583 125.196L366.515 125.237C366.185 125.473 365.822 125.697 365.51 125.988C365.208 126.27 364.91 126.554 364.622 126.854C364.051 127.448 363.481 128.043 362.91 128.638C362.804 128.744 362.792 128.898 362.849 129.004C362.919 129.143 363.1 129.236 363.274 129.149Z" fill="white"/>
<path d="M201.362 136.231C198.265 134.911 194.39 133.673 190.989 134.384L190.901 134.403L190.887 134.636L190.882 134.715L190.954 134.749C192.731 135.584 194.592 136.023 196.406 136.702C198.129 137.348 199.825 138.12 201.431 139.017C204.751 140.871 207.778 143.314 210.271 146.186C212.098 148.291 213.612 150.592 214.839 153.03C217.345 158.008 218.653 163.559 218.977 169.178L219.023 169.349C219.138 169.566 219.398 169.691 219.628 169.586C219.724 169.539 219.797 169.441 219.824 169.316C221.186 163.12 220.077 156.496 217.238 150.856C216.916 150.215 216.571 149.587 216.205 148.974C212.767 143.215 207.503 138.851 201.362 136.231Z" fill="white"/>
<path d="M219.201 173.424C218.938 173.555 218.781 173.767 218.726 173.995C218.67 174.223 218.708 174.462 218.811 174.667C218.914 174.871 219.083 175.045 219.3 175.135C219.515 175.226 219.779 175.227 220.041 175.093C220.304 174.963 220.461 174.75 220.516 174.523C220.572 174.295 220.533 174.056 220.43 173.851C220.328 173.646 220.159 173.473 219.942 173.382C219.727 173.291 219.463 173.291 219.201 173.424Z" fill="white"/>
<path d="M296.153 258.931C289.933 255.562 283.143 252.962 275.981 252.879L275.78 252.924C275.563 253.038 275.469 253.303 275.573 253.52C275.619 253.614 275.709 253.69 275.828 253.724C281.664 255.42 287.459 257.442 292.789 260.377C298.041 263.27 302.949 266.881 307.401 270.893C315.426 278.126 322.19 286.574 327.026 296.183C327.744 297.609 328.419 299.062 329.05 300.539C330.375 303.642 331.376 306.878 332.003 310.194C332.323 311.89 332.567 313.612 332.698 315.331C332.833 317.122 332.997 319.009 332.892 320.787L332.924 320.942C333.014 321.107 333.207 321.171 333.373 321.095L333.522 320.896C333.837 319.441 334.241 318.041 334.381 316.534C334.529 314.928 334.598 313.299 334.511 311.683C334.343 308.524 333.835 305.408 333.009 302.355C332.137 299.138 330.914 296.076 329.435 293.139C327.979 290.245 326.275 287.471 324.415 284.785C317.189 274.35 307.35 264.995 296.153 258.931Z" fill="white"/>
<path d="M332.01 325.215C331.672 325.383 331.474 325.653 331.403 325.943C331.331 326.233 331.381 326.54 331.513 326.802C331.645 327.065 331.861 327.287 332.137 327.402C332.412 327.518 332.747 327.519 333.083 327.348C333.421 327.18 333.619 326.91 333.69 326.62C333.761 326.33 333.712 326.023 333.58 325.76C333.448 325.498 333.231 325.276 332.955 325.161C332.681 325.045 332.346 325.044 332.01 325.215Z" fill="white"/>
<path d="M240.866 323.485C241.017 323.621 241.168 323.765 241.353 323.886C241.774 324.162 242.284 324.151 242.689 323.947C243.091 323.745 243.4 323.346 243.424 322.842C243.457 322.154 243.297 321.528 243.013 320.966C242.537 320.021 241.72 319.252 240.878 318.623C239.705 317.749 238.291 317.124 236.861 316.823C235.362 316.508 233.787 316.39 232.275 316.793C231.762 316.929 231.298 317.094 230.853 317.317C230.57 317.46 230.294 317.627 230.02 317.825C229.464 318.226 228.95 318.693 228.5 319.21C228.223 319.524 228.082 319.956 228.286 320.361L228.365 320.491C228.638 320.877 229.16 321.049 229.609 320.825L229.62 320.819L229.621 320.818L229.689 320.784C230.646 320.302 231.725 320.131 232.842 320L233.089 319.977C233.215 319.972 233.341 319.968 233.468 319.962C233.767 319.948 234.063 319.942 234.359 319.954C234.657 319.966 234.954 319.993 235.249 320.033L235.568 320.084L235.859 320.15C236.405 320.287 236.938 320.476 237.452 320.709L237.652 320.81C237.772 320.874 237.89 320.942 238.007 321.013C238.279 321.177 238.543 321.356 238.795 321.549L238.999 321.719L239.181 321.887C239.405 322.105 239.61 322.351 239.839 322.585C240.098 322.847 240.358 323.11 240.662 323.338L240.772 323.42L240.83 323.463L240.854 323.479L240.866 323.485Z" fill="white"/>
<path d="M246.193 326.247L246.191 326.242L246.187 326.238C246.115 326.131 246.042 326.025 245.969 325.918L245.964 325.912L245.959 325.905C245.775 325.704 245.55 325.558 245.291 325.471L245.284 325.469L245.088 325.431L245.088 325.432C244.891 325.377 244.688 325.374 244.486 325.421L244.486 325.421C244.485 325.421 244.485 325.421 244.484 325.421C244.484 325.422 244.483 325.422 244.482 325.422L244.482 325.422C244.35 325.45 244.205 325.513 244.083 325.56L244.042 325.576L243.946 325.612L243.759 325.684L243.756 325.685L243.753 325.687L243.706 325.709C243.529 325.798 243.382 325.925 243.266 326.082L243.265 326.082C243.263 326.084 243.262 326.087 243.26 326.089C243.257 326.092 243.254 326.094 243.252 326.097L243.253 326.098C243.111 326.243 243.008 326.416 242.949 326.614L242.948 326.614C242.948 326.615 242.948 326.617 242.948 326.618C242.947 326.62 242.946 326.621 242.946 326.622L242.947 326.622C242.876 326.816 242.855 327.016 242.883 327.218L242.882 327.218C242.882 327.221 242.883 327.225 242.883 327.228C242.884 327.231 242.883 327.234 242.883 327.237L242.884 327.237C242.883 327.433 242.926 327.623 243.015 327.8L243.039 327.845L243.042 327.85L243.045 327.855C243.12 327.964 243.195 328.074 243.27 328.183L243.275 328.19L243.28 328.196C243.469 328.403 243.7 328.554 243.966 328.642L243.973 328.645L243.981 328.646C244.105 328.67 244.229 328.694 244.353 328.719L244.361 328.72L244.369 328.721C244.656 328.738 244.932 328.681 245.189 328.553L245.195 328.55L245.369 328.439L245.451 328.387L245.492 328.36C245.603 328.289 245.754 328.206 245.848 328.116L245.851 328.112L245.855 328.109C245.936 328.013 246.017 327.918 246.098 327.823L246.108 327.811L246.115 327.797C246.169 327.684 246.223 327.57 246.277 327.457L246.28 327.453L246.282 327.448C246.353 327.257 246.373 327.058 246.346 326.86L246.347 326.86C246.347 326.856 246.346 326.853 246.346 326.849C246.345 326.846 246.346 326.843 246.345 326.84L246.345 326.84C246.345 326.649 246.303 326.464 246.216 326.292L246.193 326.247Z" fill="white"/>
<path d="M297.98 226.262L297.809 226.182L297.563 226.04C297.383 225.934 297.205 225.826 297.035 225.704C296.948 225.642 296.865 225.576 296.78 225.511L296.739 225.474C296.585 225.329 296.435 225.181 296.295 225.024C296.156 224.869 296.042 224.678 295.896 224.532L295.886 224.523L295.874 224.503C295.814 224.404 295.751 224.307 295.694 224.207C295.598 224.04 295.509 223.869 295.427 223.694C295.379 223.59 295.333 223.484 295.29 223.377L295.229 223.204C295.117 222.825 295.041 222.445 294.984 222.052L294.983 222.048C294.985 222.05 294.983 222.014 294.968 221.878C294.954 221.747 294.938 221.623 294.915 221.493C294.895 221.385 294.876 221.276 294.863 221.167C294.859 221.143 294.837 220.876 294.842 220.981C294.839 220.92 294.849 220.611 294.853 220.449C294.861 220.151 294.767 219.963 294.76 219.778C294.739 219.245 294.148 218.882 293.706 219.27C293.47 219.478 293.28 219.539 293.091 219.866C292.956 220.099 292.847 220.356 292.749 220.607C292.558 221.098 292.407 221.639 292.428 222.167C292.472 223.303 292.75 224.413 293.267 225.428C293.783 226.444 294.509 227.314 295.389 228.032C296.235 228.721 297.443 229.31 298.557 229.286C299.231 229.271 299.838 228.887 299.962 228.188C300.081 227.515 299.716 226.883 299.067 226.646C298.705 226.514 298.339 226.401 297.98 226.262Z" fill="white"/>
<path d="M303.429 223.564C303.426 223.562 303.423 223.56 303.421 223.558C303.418 223.556 303.416 223.553 303.414 223.551L303.413 223.552C303.295 223.437 303.154 223.354 302.995 223.306L302.995 223.305C302.994 223.305 302.992 223.305 302.991 223.304C302.989 223.304 302.988 223.303 302.987 223.303L302.987 223.303C302.83 223.247 302.667 223.23 302.504 223.251L302.504 223.251C302.501 223.251 302.497 223.252 302.493 223.252C302.49 223.252 302.487 223.252 302.484 223.252L302.485 223.253C302.325 223.253 302.171 223.288 302.027 223.36L301.99 223.38L301.986 223.382L301.981 223.385C301.893 223.445 301.805 223.505 301.718 223.565L301.711 223.57L301.705 223.576C301.537 223.729 301.414 223.917 301.342 224.134L301.34 224.141L301.28 224.447L301.279 224.455L301.278 224.462C301.264 224.696 301.31 224.921 301.415 225.13L301.419 225.137L301.423 225.143C301.477 225.225 301.532 225.307 301.587 225.388L301.6 225.416C301.67 225.555 301.77 225.672 301.894 225.764L301.893 225.764C301.895 225.767 301.899 225.768 301.901 225.77C301.904 225.772 301.906 225.775 301.909 225.777L301.909 225.776C302.024 225.888 302.16 225.969 302.315 226.015L302.315 226.015C302.316 226.016 302.318 226.016 302.319 226.016C302.321 226.017 302.322 226.018 302.323 226.018L302.324 226.017C302.476 226.073 302.634 226.089 302.792 226.068L302.792 226.069C302.796 226.069 302.799 226.068 302.803 226.068C302.806 226.067 302.809 226.068 302.812 226.068L302.812 226.067C302.966 226.067 303.116 226.033 303.255 225.962L303.291 225.944L303.296 225.941L303.301 225.938C303.386 225.88 303.471 225.821 303.556 225.763L303.563 225.759L303.569 225.753C303.733 225.604 303.852 225.421 303.922 225.211L303.924 225.203L303.982 224.907L303.983 224.899L303.984 224.891C303.997 224.669 303.952 224.455 303.855 224.255L303.856 224.255C303.822 224.16 303.788 224.064 303.754 223.969L303.752 223.964L303.75 223.96L303.732 223.923C303.66 223.779 303.556 223.659 303.429 223.564Z" fill="white"/>
<path d="M331.042 194.781C330.622 194.502 330.41 194.318 330.049 193.913C329.751 193.577 329.496 193.201 329.292 192.796C329.089 192.393 328.937 191.962 328.841 191.514C328.671 190.716 328.705 189.882 328.927 189.061C329.182 188.11 329.371 187.252 329.906 186.426C330.063 186.183 330.04 185.892 329.924 185.663C329.841 185.498 329.708 185.358 329.542 185.279C329.377 185.2 329.172 185.189 328.98 185.287L328.906 185.33C327.877 186.005 326.87 186.961 326.391 188.142C325.901 189.354 325.795 190.727 325.955 192.006C326.054 192.798 326.308 193.563 326.666 194.275C326.945 194.83 327.288 195.353 327.672 195.831C328.081 196.34 328.683 196.971 329.366 197.448C330.048 197.923 330.816 198.252 331.56 198.118C331.682 198.095 331.799 198.055 331.908 197.999C332.563 197.667 332.99 196.813 332.639 196.099L332.584 196.001C332.126 195.272 331.633 195.175 331.042 194.781Z" fill="white"/>
<path d="M335.074 194.653C334.721 194.83 334.513 195.112 334.439 195.415C334.364 195.719 334.416 196.04 334.554 196.315C334.692 196.59 334.919 196.822 335.208 196.943C335.496 197.064 335.845 197.065 336.198 196.886C336.551 196.71 336.758 196.428 336.832 196.125C336.907 195.821 336.856 195.5 336.717 195.225C336.579 194.95 336.352 194.717 336.064 194.597C335.776 194.476 335.426 194.475 335.074 194.653Z" fill="white"/>
<path d="M319.022 149.389C318.477 149.521 317.964 149.718 317.478 149.963C315.712 150.852 314.29 152.366 312.894 153.681C310.884 155.576 308.848 157.444 306.786 159.283C302.717 162.913 298.464 166.356 294.902 170.52C294.732 170.721 294.725 170.986 294.825 171.184C294.881 171.296 294.975 171.392 295.099 171.438C295.223 171.485 295.373 171.476 295.519 171.402L295.521 171.401L295.522 171.4L295.524 171.399C300.409 168.9 304.59 165.326 308.702 161.748C310.729 159.983 312.733 158.192 314.712 156.373C316.611 154.625 318.958 152.773 319.673 150.111C319.713 149.962 319.691 149.81 319.627 149.682C319.527 149.475 319.292 149.323 319.022 149.389Z" fill="white"/>
<path d="M377.154 201.751C376.362 201.233 375.744 200.552 375.33 199.729L375.277 199.621C374.909 198.848 374.718 197.81 374.762 196.878C374.785 196.357 374.923 195.873 375.007 195.337C375.093 194.793 375.159 194.3 375.337 193.791C375.418 193.561 375.396 193.336 375.305 193.156C375.096 192.748 374.561 192.547 374.114 192.768L373.947 192.878C373.426 193.312 372.905 193.836 372.544 194.427C372.147 195.077 372.003 195.89 371.886 196.6C371.645 198.075 371.883 199.561 372.479 200.92C372.529 201.033 372.581 201.144 372.636 201.254C373.233 202.44 374.159 203.455 375.223 204.229C376.373 205.062 378.121 205.964 379.609 205.499L379.827 205.41C380.508 205.066 380.887 204.232 380.554 203.557C380.455 203.36 380.292 203.182 380.065 203.042C379.093 202.449 378.021 202.321 377.154 201.751Z" fill="white"/>
<path d="M382.803 198.05C382.348 198.278 382.085 198.637 381.99 199.025C381.894 199.413 381.96 199.826 382.138 200.18C382.316 200.534 382.608 200.832 382.976 200.986C383.345 201.141 383.79 201.143 384.244 200.913C384.699 200.685 384.963 200.326 385.058 199.938C385.153 199.55 385.088 199.137 384.91 198.783C384.732 198.429 384.44 198.131 384.071 197.977C383.703 197.822 383.257 197.82 382.803 198.05Z" fill="white"/>
<path d="M377.298 148.264C377.013 147.962 376.67 147.691 376.308 147.486C375.954 147.285 375.571 147.113 375.174 147.014C375.023 146.976 374.862 146.93 374.707 146.925C374.569 146.92 374.425 146.938 374.288 146.949C374.011 146.97 373.734 147.036 373.539 147.225C373.365 147.278 373.188 147.324 373.024 147.401C372.565 147.613 372.709 148.379 373.225 148.384C373.331 148.385 373.438 148.39 373.543 148.401L373.616 148.41C373.791 148.54 374.003 148.607 374.226 148.698C374.414 148.776 374.608 148.825 374.799 148.897L374.94 148.956L374.893 149.064L374.895 149.065L374.895 149.065L374.942 149.086L374.991 148.979L375.023 148.994L375.166 149.075C375.307 149.159 375.436 149.259 375.565 149.361C375.706 149.495 375.84 149.635 375.981 149.769C376.066 149.848 376.146 149.932 376.221 150.021C376.419 150.254 376.658 150.423 376.976 150.433C377.27 150.442 377.573 150.313 377.729 150.054C377.912 149.75 377.927 149.435 377.796 149.108L377.691 148.874C377.586 148.664 377.457 148.434 377.298 148.264ZM374.991 148.979L374.991 148.978L375.058 149.006L374.991 148.979Z" fill="white"/>
<path d="M227.591 408.025C227.871 407.878 227.935 407.536 227.814 407.291C227.743 407.144 227.587 407.029 227.385 407.029C222.427 406.969 217.394 406.344 212.688 404.769C208.031 403.211 203.739 400.765 199.852 397.771C195.706 394.578 191.975 391.009 188.804 386.84C186.296 383.541 184.129 379.97 182.259 376.255C181.332 374.413 180.479 372.537 179.693 370.64C178.316 367.319 177.134 363.901 176.046 360.472C175.5 358.753 174.929 357.045 174.412 355.321C173.884 353.566 173.086 351.964 172.655 350.205L172.622 350.115C172.518 349.91 172.281 349.874 172.116 349.957C171.987 350.019 171.887 350.171 171.914 350.351C172.136 351.984 172.041 353.642 172.27 355.296C172.515 357.068 172.831 358.851 173.227 360.596C173.954 363.791 174.885 366.906 175.995 369.988C177.09 373.026 178.347 375.995 179.793 378.868C181.311 381.884 183.037 384.794 185 387.567C188.196 392.082 192.053 396.332 196.541 399.612C200.774 402.706 205.613 405.074 210.593 406.683C216.047 408.444 221.794 409.223 227.461 408.07L227.591 408.025Z" fill="white"/>
<path d="M207.554 399.937C208.6 400.575 209.775 401.057 210.911 401.481C212.048 401.904 213.217 402.258 214.417 402.472C215.584 402.68 216.886 402.906 218.064 402.464L218.114 402.443C218.426 402.276 218.496 401.873 218.355 401.585C218.307 401.489 218.23 401.403 218.126 401.349C217.105 400.822 215.935 400.764 214.87 400.538C213.758 400.304 212.655 400.061 211.577 399.721C210.499 399.381 209.472 398.938 208.431 398.481C207.392 398.026 206.366 397.574 205.375 397.031C205.21 396.94 205.026 396.959 204.883 397.032C204.772 397.088 204.679 397.176 204.624 397.287C204.57 397.396 204.558 397.536 204.622 397.662L204.739 397.811C205.618 398.588 206.546 399.323 207.554 399.937Z" fill="white"/>
<path d="M320.528 293.15C320.678 293.277 320.873 293.273 321.015 293.199C321.211 293.098 321.359 292.877 321.313 292.633C321.188 292.016 320.96 291.43 320.677 290.867C320.188 289.896 319.534 288.995 318.949 288.135C318.041 286.799 317.063 285.525 316.031 284.283C314.976 283.013 313.888 281.752 312.723 280.576C311.519 279.361 310.058 278.485 308.762 277.424L308.534 277.398C308.43 277.453 308.363 277.576 308.422 277.712L308.458 277.763C309.588 278.983 310.416 280.392 311.519 281.669C312.602 282.921 313.678 284.171 314.689 285.478C315.699 286.784 316.67 288.125 317.626 289.473C318.512 290.722 319.306 292.136 320.528 293.15Z" fill="white"/>
<path d="M236.266 325.536C236.089 325.409 235.906 325.293 235.723 325.179C235.365 324.957 234.996 324.753 234.617 324.568C233.827 324.182 233.011 323.863 232.159 323.636C231.959 323.583 231.743 323.604 231.56 323.696C231.392 323.78 231.252 323.928 231.195 324.131C231.138 324.331 231.159 324.543 231.25 324.722C231.335 324.892 231.485 325.033 231.686 325.096C232.07 325.215 232.449 325.352 232.819 325.508L233.096 325.629L233.219 325.684L233.272 325.709C233.452 325.796 233.63 325.888 233.806 325.985C234.148 326.172 234.481 326.377 234.804 326.596C234.97 326.709 235.134 326.826 235.294 326.947C235.514 327.112 235.759 327.193 235.979 327.291C236.17 327.374 236.385 327.341 236.564 327.252C236.685 327.191 236.792 327.101 236.86 326.986C237.006 326.742 237.004 326.465 236.884 326.232L236.791 326.083C236.64 325.883 236.486 325.693 236.266 325.536Z" fill="white"/>
<path d="M205.703 145.195C204.12 143.575 202.232 142.454 200.101 141.715C199.975 141.67 199.848 141.686 199.746 141.738C199.513 141.86 199.378 142.15 199.497 142.404C199.535 142.481 199.602 142.549 199.689 142.594C201.499 143.539 203.149 144.884 204.529 146.393C205.21 147.138 205.819 147.945 206.333 148.813C206.443 149 206.545 149.192 206.643 149.387C206.84 149.778 207.021 150.181 207.22 150.578C207.395 150.925 207.584 151.266 207.812 151.589C208.035 151.914 208.398 151.947 208.662 151.805C208.971 151.647 209.208 151.3 209.177 150.93C209.12 150.355 208.912 149.799 208.647 149.272C208.392 148.765 208.082 148.284 207.796 147.841C207.185 146.894 206.492 146.003 205.703 145.195Z" fill="white"/>
<path d="M296.267 219.134C296.17 219.183 296.087 219.268 296.049 219.381C295.96 219.643 295.996 219.885 296.017 220.117C296.04 220.352 296.064 220.588 296.133 220.827C296.26 221.261 296.408 221.69 296.576 222.109C296.629 222.239 296.681 222.369 296.745 222.497C296.788 222.582 296.836 222.667 296.894 222.749C297.014 222.921 297.134 223.087 297.246 223.257C297.503 223.647 297.779 224.024 298.076 224.385C298.196 224.534 298.39 224.541 298.519 224.472C298.601 224.43 298.67 224.363 298.71 224.275C298.749 224.188 298.753 224.076 298.701 223.975L298.696 223.966L298.695 223.963L298.695 223.963C298.618 223.822 298.543 223.681 298.471 223.538C298.35 223.297 298.237 223.053 298.132 222.805C298.054 222.62 298.007 222.431 297.947 222.225C297.883 222.005 297.787 221.808 297.708 221.614C297.556 221.242 297.434 220.862 297.317 220.474C297.248 220.247 297.158 220.036 297.079 219.825C297.034 219.703 296.993 219.58 296.932 219.457C296.893 219.38 296.846 219.304 296.784 219.231C296.646 219.067 296.426 219.052 296.267 219.134Z" fill="white"/>
<path d="M333.866 186.019L333.709 186.081C333.469 186.203 333.319 186.399 333.161 186.578C332.974 186.792 332.751 187.017 332.605 187.295C332.338 187.807 332.103 188.337 331.911 188.882C331.729 189.402 331.526 189.98 331.477 190.552C331.43 191.1 331.457 191.657 331.501 192.196L331.53 192.302C331.626 192.473 331.826 192.498 331.973 192.427L332.126 192.24C332.255 191.743 332.426 191.263 332.615 190.781C332.805 190.294 332.923 189.793 333.116 189.329C333.301 188.881 333.521 188.45 333.769 188.032C333.922 187.774 334.017 187.502 334.132 187.251C334.228 187.034 334.416 186.795 334.416 186.479L334.361 186.258C334.282 186.095 334.092 185.952 333.866 186.019Z" fill="white"/>
<path d="M314.835 160.455C315.499 159.898 316.414 159.222 316.747 158.338C316.798 158.2 316.782 158.058 316.724 157.943C316.622 157.741 316.393 157.604 316.146 157.653C315.93 157.697 315.72 157.776 315.517 157.878C314.847 158.217 314.244 158.802 313.744 159.239C313.043 159.854 312.352 160.478 311.657 161.096C310.212 162.381 308.767 163.666 307.323 164.951C307.075 165.167 307.054 165.475 307.171 165.698C307.321 165.994 307.699 166.198 308.062 166.018L308.198 165.929C309.691 164.697 311.184 163.466 312.677 162.234C313.396 161.642 314.119 161.052 314.835 160.455Z" fill="white"/>
<path d="M378.064 193.635L378.017 193.656C377.745 193.797 377.621 194.081 377.509 194.288C377.385 194.524 377.252 194.782 377.174 195.054C377.025 195.576 376.988 196.145 377.018 196.678C377.051 197.261 377.227 197.839 377.495 198.37C377.743 198.863 378.069 199.316 378.437 199.697C378.654 199.927 378.947 199.951 379.161 199.839C379.451 199.692 379.634 199.317 379.456 198.958L379.387 198.847C379.262 198.68 379.16 198.512 379.075 198.343C378.796 197.79 378.695 197.208 378.582 196.526C378.515 196.12 378.528 195.779 378.564 195.319C378.58 195.103 378.587 194.895 378.62 194.694C378.65 194.486 378.776 194.236 378.7 193.945L378.662 193.847C378.556 193.627 378.295 193.536 378.064 193.635Z" fill="white"/>
<path d="M253.972 435.935C252.045 434.32 249.698 433.351 247.245 432.911C246.02 432.691 244.824 432.696 243.6 432.917C242.94 433.035 242.304 433.296 241.695 433.602C241.215 433.844 240.753 434.113 240.309 434.367C239.897 434.599 239.821 435.059 239.99 435.387C240.123 435.657 240.426 435.855 240.802 435.803C241.295 435.738 241.758 435.732 242.257 435.761C242.704 435.786 243.268 435.919 243.801 435.955C244.298 435.988 244.789 436.078 245.294 436.141C245.56 436.173 245.822 436.194 246.079 436.232C246.193 436.248 246.311 436.271 246.433 436.289L246.449 436.291L246.584 436.32C247.072 436.428 247.553 436.564 248.024 436.728C248.271 436.814 248.516 436.907 248.758 437.008C248.867 437.054 248.976 437.102 249.087 437.151L249.148 437.177L249.207 437.209L249.208 437.209C249.673 437.452 250.125 437.712 250.556 438.006C250.753 438.14 250.945 438.279 251.133 438.425C251.213 438.487 251.293 438.552 251.373 438.618C251.402 438.645 251.484 438.715 251.549 438.774C252.174 439.348 253.037 439.553 253.766 439.187C253.98 439.079 254.181 438.922 254.357 438.714C254.895 438.087 254.918 437.336 254.6 436.713C254.455 436.424 254.239 436.158 253.972 435.935Z" fill="white"/>
<path d="M257.796 440.01C257.347 440.235 257.086 440.59 256.992 440.974C256.897 441.358 256.962 441.766 257.138 442.116C257.314 442.465 257.603 442.76 257.967 442.912C258.331 443.065 258.772 443.067 259.22 442.84C259.67 442.615 259.93 442.26 260.024 441.876C260.119 441.492 260.054 441.084 259.878 440.735C259.702 440.385 259.414 440.09 259.049 439.938C258.685 439.785 258.245 439.783 257.796 440.01Z" fill="white"/>
<path d="M252.459 443.12C252.178 442.963 251.89 442.823 251.611 442.678C250.987 442.352 250.364 442.026 249.74 441.7C248.514 441.058 247.287 440.417 246.061 439.775C245.939 439.711 245.805 439.717 245.705 439.769C245.533 439.856 245.426 440.066 245.521 440.265L245.66 440.414C246.838 441.172 248.016 441.93 249.194 442.688C249.764 443.055 250.334 443.421 250.904 443.788C251.201 443.979 251.499 444.202 251.823 444.38C252.151 444.559 252.516 444.633 252.859 444.696C252.959 444.714 253.055 444.7 253.134 444.66C253.389 444.521 253.462 444.193 253.342 443.943L253.284 443.854C253.051 443.575 252.79 443.307 252.459 443.12Z" fill="white"/>
</svg>
