<svg width="387" height="380" viewBox="0 0 387 380" fill="none" xmlns="http://www.w3.org/2000/svg">
<path d="M273.3 262.977L279.614 261.205L282.631 260.356L292.729 257.517C294.555 254.619 296.759 252.231 299.226 250.202C300.117 249.474 301.045 248.786 302.002 248.145C308.51 243.761 316.375 241.265 323.871 238.469C325.873 237.72 327.853 236.95 329.768 236.115C329.798 236.102 329.832 236.088 329.862 236.075C341.613 230.952 354.683 223.803 359.465 211.106C361.042 206.92 361.535 202.426 361.186 197.985C361.166 197.707 361.14 197.43 361.11 197.155C361.055 196.63 360.995 196.101 360.923 195.574C359.819 187.461 356.616 179.62 350.287 175.381C349.495 174.843 348.646 174.363 347.744 173.956C345.769 173.043 343.553 172.446 341.06 172.228C337.972 171.957 334.892 172.179 331.859 172.765C330.907 172.942 329.96 173.161 329.021 173.411C320.725 175.617 312.826 180.293 305.971 184.813C304.185 185.992 302.463 187.253 300.808 188.607C300.018 189.239 299.241 189.9 298.485 190.578C295.718 193.041 293.145 195.739 290.781 198.619C290.201 199.329 289.63 200.054 289.077 200.785C286.42 204.282 284.052 208.023 281.997 211.947C281.377 213.13 280.788 214.327 280.225 215.545C273.335 230.37 270.73 247.331 273.3 262.977Z" fill="url(#paint0_linear_40_2620)"/>
<path d="M279.614 261.205L282.631 260.356C283.982 257.581 285.394 254.835 286.787 252.077C286.992 252.157 287.231 252.179 287.502 252.106C291.075 251.152 295.295 249.998 299.226 250.201C300.117 249.473 301.045 248.785 302.002 248.144C297.536 247.192 292.449 248.338 288.096 249.481C289.814 246.038 291.48 242.564 292.955 238.997C293.958 236.576 295.176 234.297 296.536 232.124C300.101 236.125 306.44 237.057 311.444 237.701C315.566 238.232 319.716 238.419 323.871 238.468C325.873 237.719 327.853 236.949 329.768 236.114C329.7 236.104 329.627 236.095 329.552 236.097C324.269 236.127 318.98 236.093 313.722 235.567C308.688 235.067 301.63 234.439 298.099 230.31C298.027 230.219 297.952 230.156 297.872 230.1C301.822 224.338 306.725 219.237 311.325 213.902C314.003 210.797 316.61 207.623 319.226 204.463C325.688 208.45 335.253 206.049 341.986 204.297C348.524 202.594 354.805 200.144 361.186 197.985C361.166 197.707 361.14 197.43 361.11 197.155C361.055 196.63 360.995 196.101 360.923 195.574C355.124 197.534 349.413 199.761 343.51 201.414C337.033 203.232 327.253 206.232 320.771 202.603C322.155 200.947 323.541 199.296 324.953 197.665C330.191 191.632 335.644 185.637 341.911 180.655C344.238 178.808 347.169 176.609 350.287 175.381C349.495 174.843 348.646 174.363 347.744 173.956C345.178 175.237 342.788 176.964 340.754 178.547C334.659 183.297 329.364 188.882 324.328 194.718C324.969 190.601 326.611 186.481 327.984 182.677C329.189 179.34 330.466 176.028 331.859 172.764C330.907 172.941 329.96 173.16 329.021 173.41C327.844 176.25 326.741 179.121 325.7 182.003C323.929 186.896 321.827 192.231 321.674 197.5C321.673 197.604 321.687 197.704 321.704 197.797C320.562 199.159 319.428 200.53 318.299 201.899C318.214 201.975 318.139 202.064 318.077 202.166C314.94 205.967 311.817 209.776 308.57 213.442C308.467 213.555 308.37 213.666 308.272 213.777C305.307 209.845 303.657 204.812 302.455 200.109C301.521 196.444 300.737 192.481 300.806 188.604C300.016 189.236 299.239 189.897 298.483 190.575C298.639 194.003 299.313 197.434 300.144 200.683C301.476 205.882 303.36 211.291 306.677 215.588C304.473 218.085 302.33 220.561 300.306 223.101C297.112 214.947 293.919 206.793 290.779 198.615C290.199 199.325 289.628 200.05 289.075 200.781C292.225 208.957 295.415 217.117 298.615 225.274C295.523 229.363 292.775 233.678 290.618 238.547C289.046 234.48 287.25 230.502 285.737 226.41C284 221.704 282.751 216.882 281.996 211.942C281.376 213.125 280.787 214.322 280.224 215.54C280.925 219.143 281.879 222.694 283.135 226.192C284.922 231.163 287.165 235.956 288.982 240.919C289.065 241.143 289.194 241.313 289.347 241.443C286.398 248.174 282.81 254.602 279.614 261.205Z" fill="white"/>
<path d="M252.433 234.012L257.191 238.526L259.465 240.682L267.078 247.898C270.503 247.981 273.683 248.649 276.689 249.728C277.771 250.12 278.837 250.565 279.878 251.058C286.978 254.399 293.151 259.874 299.394 264.878C301.063 266.214 302.739 267.519 304.438 268.735C304.464 268.754 304.494 268.776 304.52 268.795C314.941 276.26 327.778 283.82 341.131 281.421C345.534 280.63 349.645 278.75 353.281 276.175C353.509 276.015 353.734 275.852 353.955 275.684C354.378 275.368 354.801 275.045 355.217 274.714C361.618 269.608 366.71 262.84 367.107 255.233C367.162 254.277 367.14 253.302 367.027 252.319C366.799 250.156 366.176 247.946 365.086 245.694C363.736 242.903 361.967 240.372 359.91 238.068C359.27 237.341 358.596 236.64 357.9 235.962C351.754 229.968 343.691 225.581 336.297 222.011C334.369 221.082 332.404 220.249 330.393 219.521C329.446 219.166 328.479 218.838 327.509 218.536C323.976 217.422 320.341 216.595 316.656 216.041C315.749 215.907 314.834 215.788 313.923 215.688C309.558 215.198 305.133 215.082 300.71 215.328C299.376 215.402 298.046 215.509 296.712 215.65C280.452 217.333 264.552 223.787 252.433 234.012Z" fill="url(#paint1_linear_40_2620)"/>
<path d="M257.191 238.526L259.465 240.682C262.54 240.42 265.622 240.225 268.704 240.008C268.741 240.225 268.844 240.442 269.045 240.637C271.695 243.216 274.848 246.249 276.689 249.728C277.771 250.12 278.837 250.565 279.878 251.058C278.407 246.735 274.816 242.954 271.603 239.802C275.44 239.513 279.277 239.164 283.096 238.602C285.69 238.223 288.271 238.101 290.833 238.155C289.224 243.266 291.672 249.187 293.684 253.815C295.34 257.627 297.307 261.286 299.393 264.879C301.062 266.215 302.738 267.52 304.437 268.736C304.411 268.672 304.381 268.605 304.341 268.541C301.608 264.02 298.927 259.461 296.684 254.676C294.534 250.097 291.456 243.714 293.192 238.566C293.234 238.458 293.249 238.361 293.257 238.264C300.229 238.703 307.122 240.299 314.061 241.515C318.1 242.224 322.161 242.836 326.215 243.462C326.102 251.055 333.066 258.038 338.02 262.922C342.833 267.664 348.155 271.802 353.28 276.175C353.508 276.015 353.733 275.852 353.954 275.684C354.377 275.368 354.8 275.045 355.216 274.714C350.561 270.739 345.723 266.976 341.278 262.754C336.398 258.124 328.81 251.263 328.604 243.837C330.736 244.177 332.863 244.52 334.987 244.898C342.852 246.304 350.794 247.915 358.284 250.743C361.063 251.795 364.453 253.185 367.105 255.234C367.16 254.278 367.138 253.303 367.025 252.32C364.61 250.773 361.903 249.605 359.501 248.671C352.298 245.871 344.79 244.186 337.197 242.852C341.061 241.293 345.44 240.591 349.41 239.821C352.893 239.146 356.391 238.546 359.908 238.069C359.268 237.342 358.594 236.641 357.898 235.963C354.856 236.408 351.825 236.931 348.817 237.515C343.708 238.502 338.05 239.431 333.447 241.999C333.357 242.051 333.278 242.114 333.207 242.177C331.453 241.894 329.694 241.623 327.94 241.356C327.832 241.322 327.716 241.303 327.596 241.302C322.724 240.557 317.853 239.826 313.042 238.917C312.893 238.887 312.747 238.86 312.602 238.833C314.459 234.272 317.936 230.276 321.358 226.833C324.027 224.153 327.028 221.448 330.392 219.522C329.445 219.167 328.478 218.839 327.508 218.537C324.644 220.428 322.044 222.765 319.679 225.143C315.897 228.951 312.218 233.341 310.228 238.392C306.955 237.779 303.73 237.208 300.511 236.771C305.876 229.85 311.242 222.929 316.655 216.042C315.748 215.908 314.833 215.789 313.922 215.689C308.516 222.584 303.143 229.504 297.778 236.433C292.682 235.874 287.569 235.725 282.282 236.368C284.968 232.934 287.465 229.353 290.203 225.957C293.354 222.054 296.855 218.51 300.709 215.33C299.375 215.404 298.045 215.511 296.711 215.652C293.976 218.1 291.416 220.739 289.056 223.611C285.703 227.693 282.737 232.075 279.406 236.179C279.256 236.365 279.177 236.563 279.143 236.761C271.857 237.673 264.499 237.887 257.191 238.526Z" fill="white"/>
<path d="M127.102 206.099L121.312 203.02L118.546 201.547L109.287 196.618C108.122 193.397 106.479 190.593 104.502 188.084C103.787 187.183 103.027 186.312 102.229 185.482C96.8069 179.81 89.6569 175.692 82.9299 171.361C81.1339 170.202 79.3639 169.027 77.6719 167.802C77.6459 167.783 77.6149 167.762 77.5889 167.743C67.2029 160.23 55.9599 150.455 53.9989 137.03C53.3519 132.604 53.8299 128.109 55.1189 123.844C55.1979 123.577 55.2819 123.312 55.3709 123.049C55.5359 122.547 55.7089 122.044 55.8909 121.544C58.7019 113.854 63.5049 106.877 70.5929 104.087C71.4819 103.731 72.4139 103.443 73.3809 103.238C75.5049 102.767 77.7979 102.658 80.2799 102.977C83.3549 103.371 86.3169 104.246 89.1549 105.466C90.0469 105.842 90.9259 106.259 91.7899 106.703C99.4239 110.629 106.143 116.884 111.875 122.762C113.368 124.295 114.781 125.895 116.109 127.571C116.746 128.357 117.364 129.169 117.958 129.993C120.136 132.99 122.073 136.175 123.768 139.493C124.183 140.311 124.586 141.14 124.97 141.973C126.819 145.957 128.334 150.116 129.504 154.389C129.857 155.677 130.178 156.972 130.467 158.282C134.029 174.236 132.954 191.362 127.102 206.099Z" fill="url(#paint2_linear_40_2620)"/>
<path d="M121.312 203.02L118.546 201.547C117.819 198.548 117.025 195.564 116.253 192.572C116.036 192.606 115.797 192.577 115.549 192.448C112.262 190.753 108.386 188.725 104.502 188.084C103.787 187.183 103.027 186.312 102.229 185.482C106.795 185.506 111.521 187.711 115.529 189.757C114.586 186.027 113.699 182.277 113.02 178.477C112.557 175.897 111.853 173.411 110.989 170.998C106.652 174.146 100.26 173.703 95.2339 173.264C91.0939 172.903 86.9989 172.199 82.9299 171.361C81.1339 170.202 79.3639 169.027 77.6719 167.802C77.7399 167.806 77.8139 167.813 77.8869 167.832C83.0419 168.989 88.2159 170.085 93.4649 170.693C98.4899 171.279 105.519 172.172 109.85 168.892C109.939 168.818 110.027 168.773 110.116 168.735C107.487 162.263 103.786 156.233 100.431 150.038C98.4769 146.433 96.608 142.775 94.727 139.13C87.562 141.646 78.7309 137.258 72.5269 134.11C66.5029 131.051 60.8899 127.316 55.1169 123.844C55.1959 123.577 55.2799 123.312 55.3689 123.049C55.5339 122.547 55.7069 122.044 55.8889 121.544C61.1359 124.697 66.2399 128.091 71.6529 130.967C77.5919 134.126 86.5069 139.144 93.6139 136.983C92.6149 135.069 91.6139 133.161 90.5829 131.266C86.7539 124.254 82.7059 117.233 77.6479 111.028C75.7689 108.727 73.3749 105.953 70.5899 104.087C71.4789 103.731 72.4109 103.443 73.3779 103.238C75.6119 105.037 77.5779 107.234 79.2259 109.216C84.1669 115.158 88.1469 121.744 91.8209 128.521C92.0729 124.362 91.349 119.986 90.82 115.977C90.355 112.459 89.8139 108.952 89.1509 105.466C90.0429 105.842 90.9219 106.259 91.7859 106.703C92.3289 109.729 92.7949 112.769 93.1959 115.808C93.8819 120.966 94.7959 126.627 93.8209 131.807C93.7999 131.909 93.7649 132.003 93.7279 132.091C94.5529 133.665 95.3679 135.246 96.1779 136.825C96.2449 136.917 96.2989 137.021 96.3379 137.134C98.5909 141.517 100.829 145.905 103.218 150.179C103.294 150.311 103.366 150.441 103.437 150.57C107.173 147.361 109.859 142.797 112.038 138.459C113.733 135.078 115.345 131.374 116.105 127.572C116.742 128.358 117.36 129.17 117.954 129.994C117.069 133.31 115.679 136.517 114.174 139.515C111.763 144.31 108.767 149.192 104.609 152.682C106.229 155.592 107.794 158.469 109.23 161.382C114.091 154.098 118.951 146.814 123.765 139.495C124.18 140.313 124.583 141.142 124.967 141.975C120.144 149.29 115.286 156.581 110.418 163.867C112.566 168.522 114.329 173.324 115.397 178.542C117.801 174.905 120.405 171.401 122.757 167.727C125.459 163.5 127.708 159.056 129.5 154.392C129.853 155.68 130.174 156.975 130.463 158.285C129.01 161.655 127.319 164.921 125.345 168.07C122.538 172.545 119.324 176.748 116.489 181.21C116.36 181.411 116.198 181.549 116.021 181.645C117.467 188.841 119.6 195.887 121.312 203.02Z" fill="white"/>
<path d="M153.672 182.257L148.061 185.651L145.379 187.271L136.401 192.696C133.037 192.046 129.788 192.019 126.621 192.431C125.48 192.583 124.344 192.791 123.222 193.05C115.573 194.799 108.373 198.829 101.206 202.386C99.2909 203.335 97.375 204.251 95.455 205.077C95.426 205.09 95.3919 205.107 95.3619 205.119C83.5879 210.188 69.433 214.832 56.9 209.637C52.768 207.924 49.152 205.21 46.15 201.918C45.961 201.713 45.777 201.506 45.596 201.296C45.25 200.897 44.9059 200.49 44.5699 200.078C39.4069 193.723 35.8769 186.025 37.1129 178.509C37.2629 177.563 37.493 176.615 37.813 175.679C38.497 173.614 39.578 171.589 41.124 169.621C43.038 167.183 45.3069 165.087 47.8089 163.276C48.5889 162.702 49.3969 162.163 50.2219 161.649C57.5049 157.105 66.319 154.54 74.305 152.63C76.387 152.134 78.484 151.741 80.604 151.459C81.605 151.315 82.619 151.201 83.632 151.112C87.321 150.778 91.0489 150.745 94.7669 150.99C95.6819 151.053 96.6009 151.133 97.5119 151.229C101.88 151.682 106.229 152.514 110.497 153.698C111.784 154.055 113.061 154.443 114.334 154.865C129.86 159.98 144.015 169.681 153.672 182.257Z" fill="url(#paint3_linear_40_2620)"/>
<path d="M148.06 185.651L145.378 187.271C142.43 186.359 139.461 185.511 136.496 184.641C136.414 184.845 136.266 185.035 136.028 185.182C132.888 187.136 129.161 189.425 126.62 192.432C125.479 192.584 124.343 192.791 123.221 193.05C125.581 189.141 129.897 186.214 133.708 183.82C130.021 182.718 126.347 181.559 122.736 180.194C120.283 179.27 117.787 178.6 115.273 178.105C115.754 183.442 112.098 188.704 109.145 192.795C106.713 196.165 104.011 199.321 101.205 202.385C99.2901 203.334 97.3741 204.251 95.4541 205.077C95.4931 205.02 95.5361 204.961 95.5901 204.908C99.2251 201.074 102.817 197.193 106.03 192.997C109.108 188.982 113.478 183.404 112.881 178.004C112.863 177.889 112.869 177.791 112.882 177.695C105.977 176.636 98.9021 176.724 91.8641 176.43C87.7671 176.26 83.6691 175.991 79.5741 175.738C78.0631 183.18 69.7691 188.515 63.8861 192.229C58.1721 195.834 52.0891 198.74 46.1491 201.919C45.9601 201.714 45.7761 201.506 45.5951 201.296C45.2491 200.897 44.9051 200.491 44.5691 200.079C49.9651 197.189 55.4961 194.546 60.7391 191.37C66.4951 187.889 75.3731 182.805 77.1591 175.594C75.0041 175.471 72.8521 175.352 70.6971 175.268C62.7141 174.962 54.6101 174.841 46.6891 176.004C43.7501 176.438 40.1411 177.073 37.1121 178.508C37.2621 177.562 37.4921 176.615 37.8121 175.679C40.5021 174.683 43.3961 174.12 45.9421 173.72C53.5761 172.522 61.2721 172.479 68.9741 172.797C65.5321 170.449 61.4031 168.829 57.6901 167.229C54.4311 165.826 51.1421 164.493 47.8081 163.276C48.5881 162.702 49.3961 162.162 50.2211 161.648C53.0981 162.732 55.9471 163.89 58.7621 165.103C63.5431 167.158 68.8721 169.273 72.8211 172.765C72.8981 172.835 72.9611 172.914 73.0171 172.991C74.7911 173.089 76.5671 173.2 78.3381 173.313C78.4511 173.303 78.5681 173.309 78.6851 173.334C83.6031 173.646 88.5181 173.972 93.4131 174.111C93.5651 174.113 93.7131 174.118 93.8611 174.123C93.0201 169.27 90.4771 164.625 87.8691 160.531C85.8341 157.343 83.4791 154.06 80.6041 151.46C81.6051 151.316 82.6191 151.202 83.6321 151.113C86.0261 153.572 88.0681 156.41 89.8701 159.238C92.7521 163.765 95.4091 168.84 96.2751 174.199C99.6041 174.299 102.876 174.429 106.114 174.689C102.35 166.782 98.5861 158.876 94.7671 150.992C95.6821 151.055 96.6011 151.134 97.5121 151.23C101.322 159.12 105.093 167.028 108.856 174.942C113.954 175.483 118.981 176.43 124.009 178.186C122.118 174.258 120.443 170.227 118.493 166.323C116.248 161.837 113.584 157.628 110.497 153.699C111.784 154.056 113.061 154.445 114.334 154.867C116.483 157.843 118.421 160.967 120.113 164.276C122.518 168.98 124.48 173.894 126.858 178.614C126.965 178.828 127 179.038 126.991 179.239C133.914 181.688 141.057 183.467 148.06 185.651Z" fill="white"/>
<path d="M294.703 352.361H109.296C105.33 352.361 102.115 349.146 102.115 345.18V93.2474C102.115 89.2814 105.33 86.0664 109.296 86.0664H294.703C298.669 86.0664 301.884 89.2814 301.884 93.2474V345.181C301.884 349.146 298.669 352.361 294.703 352.361Z" fill="url(#paint4_linear_40_2620)"/>
<path d="M294.71 100.459H116.105V345.171H294.71V100.459Z" fill="#E6E6E6"/>
<path d="M291.616 96.5H113.011V341.212H291.616V96.5Z" fill="url(#paint5_linear_40_2620)"/>
<path d="M273.288 314.975H233.93V275.617H273.288V314.975ZM236.502 312.402H270.715V278.189H236.502V312.402Z" fill="#40C1E5"/>
<path d="M273.406 156.749H234.048V117.391H273.406V156.749ZM236.621 154.177H270.834V119.964H236.621V154.177Z" fill="#40C1E5"/>
<path d="M249.832 153.155C249.783 153.155 249.735 153.153 249.686 153.15C249.114 153.107 248.588 152.818 248.247 152.356L239.046 139.917C238.399 139.042 238.583 137.807 239.458 137.16C240.333 136.514 241.569 136.697 242.215 137.573L250.055 148.172L276.664 121.562C277.435 120.792 278.683 120.792 279.452 121.562C280.222 122.332 280.222 123.58 279.453 124.35L251.226 152.578C250.854 152.949 250.353 153.155 249.832 153.155Z" fill="#FF9D3B"/>
<path d="M273.288 262.172H233.93V222.814H273.288V262.172ZM236.502 259.6H270.715V225.387H236.502V259.6Z" fill="#40C1E5"/>
<path d="M273.406 209.145H234.048V169.787H273.406V209.145ZM236.621 206.572H270.834V172.359H236.621V206.572Z" fill="#40C1E5"/>
<path d="M249.832 205.551C249.783 205.551 249.735 205.549 249.686 205.546C249.114 205.503 248.588 205.214 248.247 204.752L239.046 192.313C238.399 191.438 238.583 190.203 239.458 189.556C240.333 188.91 241.569 189.093 242.215 189.969L250.055 200.568L276.664 173.958C277.435 173.188 278.683 173.188 279.452 173.958C280.222 174.728 280.222 175.976 279.453 176.746L251.226 204.974C250.854 205.345 250.353 205.551 249.832 205.551Z" fill="#FF9D3B"/>
<path d="M207.805 126.513H128.405C127.477 126.513 126.717 125.754 126.717 124.825C126.717 123.897 127.477 123.137 128.405 123.137H207.805C208.733 123.137 209.493 123.896 209.493 124.825C209.492 125.753 208.733 126.513 207.805 126.513Z" fill="#FF9D3B"/>
<path d="M200.528 134.356H128.404C127.476 134.356 126.716 133.597 126.716 132.668C126.716 131.74 127.476 130.98 128.404 130.98H200.528C201.456 130.98 202.216 131.739 202.216 132.668C202.216 133.597 201.457 134.356 200.528 134.356Z" fill="#40C1E5"/>
<path d="M200.528 151.003H128.404C127.476 151.003 126.716 150.244 126.716 149.315C126.716 148.387 127.476 147.627 128.404 147.627H200.528C201.456 147.627 202.216 148.386 202.216 149.315C202.216 150.244 201.457 151.003 200.528 151.003Z" fill="#40C1E5"/>
<path d="M170.521 142.626H128.404C127.476 142.626 126.716 141.867 126.716 140.938C126.716 140.01 127.476 139.25 128.404 139.25H170.521C171.449 139.25 172.209 140.009 172.209 140.938C172.209 141.867 171.449 142.626 170.521 142.626Z" fill="#40C1E5"/>
<path d="M220.418 142.626H178.301C177.373 142.626 176.613 141.867 176.613 140.938C176.613 140.01 177.372 139.25 178.301 139.25H220.418C221.346 139.25 222.106 140.009 222.106 140.938C222.106 141.867 221.346 142.626 220.418 142.626Z" fill="#40C1E5"/>
<path d="M207.805 177.909H128.405C127.477 177.909 126.717 177.15 126.717 176.221C126.717 175.293 127.477 174.533 128.405 174.533H207.805C208.733 174.533 209.493 175.293 209.493 176.221C209.492 177.149 208.733 177.909 207.805 177.909Z" fill="#FF9D3B"/>
<path d="M200.528 185.753H128.404C127.476 185.753 126.716 184.994 126.716 184.065C126.716 183.137 127.476 182.377 128.404 182.377H200.528C201.456 182.377 202.216 183.137 202.216 184.065C202.216 184.994 201.457 185.753 200.528 185.753Z" fill="#40C1E5"/>
<path d="M200.528 202.399H128.404C127.476 202.399 126.716 201.64 126.716 200.711C126.716 199.783 127.476 199.023 128.404 199.023H200.528C201.456 199.023 202.216 199.782 202.216 200.711C202.216 201.64 201.457 202.399 200.528 202.399Z" fill="#40C1E5"/>
<path d="M170.521 194.024H128.404C127.476 194.024 126.716 193.264 126.716 192.336C126.716 191.408 127.476 190.648 128.404 190.648H170.521C171.449 190.648 172.209 191.407 172.209 192.336C172.209 193.264 171.449 194.024 170.521 194.024Z" fill="#40C1E5"/>
<path d="M220.418 194.024H178.301C177.373 194.024 176.613 193.264 176.613 192.336C176.613 191.408 177.372 190.648 178.301 190.648H220.418C221.346 190.648 222.106 191.407 222.106 192.336C222.106 193.264 221.346 194.024 220.418 194.024Z" fill="#40C1E5"/>
<path d="M207.805 232.937H128.405C127.477 232.937 126.717 232.178 126.717 231.249C126.717 230.321 127.477 229.561 128.405 229.561H207.805C208.733 229.561 209.493 230.32 209.493 231.249C209.492 232.178 208.733 232.937 207.805 232.937Z" fill="#FF9D3B"/>
<path d="M200.528 240.78H128.404C127.476 240.78 126.716 240.021 126.716 239.092C126.716 238.164 127.476 237.404 128.404 237.404H200.528C201.456 237.404 202.216 238.163 202.216 239.092C202.216 240.021 201.457 240.78 200.528 240.78Z" fill="#40C1E5"/>
<path d="M200.528 257.427H128.404C127.476 257.427 126.716 256.668 126.716 255.739C126.716 254.811 127.476 254.051 128.404 254.051H200.528C201.456 254.051 202.216 254.81 202.216 255.739C202.216 256.668 201.457 257.427 200.528 257.427Z" fill="#40C1E5"/>
<path d="M170.521 249.05H128.404C127.476 249.05 126.716 248.291 126.716 247.362C126.716 246.434 127.476 245.674 128.404 245.674H170.521C171.449 245.674 172.209 246.433 172.209 247.362C172.209 248.291 171.449 249.05 170.521 249.05Z" fill="#40C1E5"/>
<path d="M220.418 249.05H178.301C177.373 249.05 176.613 248.291 176.613 247.362C176.613 246.434 177.372 245.674 178.301 245.674H220.418C221.346 245.674 222.106 246.433 222.106 247.362C222.106 248.291 221.346 249.05 220.418 249.05Z" fill="#40C1E5"/>
<path d="M207.805 286.21H128.405C127.477 286.21 126.717 285.451 126.717 284.522C126.717 283.594 127.477 282.834 128.405 282.834H207.805C208.733 282.834 209.493 283.593 209.493 284.522C209.492 285.451 208.733 286.21 207.805 286.21Z" fill="#FF9D3B"/>
<path d="M200.528 294.054H128.404C127.476 294.054 126.716 293.295 126.716 292.366C126.716 291.438 127.476 290.678 128.404 290.678H200.528C201.456 290.678 202.216 291.438 202.216 292.366C202.216 293.294 201.457 294.054 200.528 294.054Z" fill="#40C1E5"/>
<path d="M200.528 310.7H128.404C127.476 310.7 126.716 309.941 126.716 309.012C126.716 308.084 127.476 307.324 128.404 307.324H200.528C201.456 307.324 202.216 308.083 202.216 309.012C202.216 309.94 201.457 310.7 200.528 310.7Z" fill="#40C1E5"/>
<path d="M170.521 302.323H128.404C127.476 302.323 126.716 301.564 126.716 300.635C126.716 299.707 127.476 298.947 128.404 298.947H170.521C171.449 298.947 172.209 299.706 172.209 300.635C172.209 301.564 171.449 302.323 170.521 302.323Z" fill="#40C1E5"/>
<path d="M220.418 302.323H178.301C177.373 302.323 176.613 301.564 176.613 300.635C176.613 299.707 177.372 298.947 178.301 298.947H220.418C221.346 298.947 222.106 299.706 222.106 300.635C222.106 301.564 221.346 302.323 220.418 302.323Z" fill="#40C1E5"/>
<path d="M203.741 59.248H200.894C189.557 59.248 179.283 63.845 171.856 71.28C165.917 77.219 161.788 84.974 160.372 93.64C159.8 97.141 162.554 100.309 166.102 100.309H238.526C242.074 100.309 244.828 97.142 244.256 93.64C241.07 74.137 224.145 59.248 203.741 59.248ZM202.797 79.241C199.164 79.241 196.217 76.295 196.217 72.661C196.217 69.033 199.163 66.087 202.797 66.087C206.43 66.087 209.371 69.033 209.371 72.661C209.37 76.294 206.43 79.241 202.797 79.241Z" fill="url(#paint6_linear_40_2620)"/>
<path d="M202 379.636C251.494 379.636 291.616 377.427 291.616 374.702C291.616 371.977 251.494 369.768 202 369.768C152.506 369.768 112.384 371.977 112.384 374.702C112.384 377.427 152.506 379.636 202 379.636Z" fill="#F2F2F2"/>
<path d="M252.223 82.4224C253.353 85.1424 256.273 86.4524 260.693 86.5524C261.843 86.5824 262.993 86.5124 264.123 86.3624C267.193 85.9524 270.163 84.9024 272.863 83.3524L290.973 72.9624L292.923 71.8424C294.483 70.9424 296.243 70.4924 297.983 70.4924C299.853 70.4924 301.733 71.0124 303.383 72.0524C306.983 74.3124 308.803 78.5624 307.933 82.7324L306.703 88.6524L306.723 88.7724L319.023 104.432L319.153 104.592C318.473 110.462 323.163 109.362 333.613 106.692C335.063 106.312 335.693 104.522 333.033 104.382L322.323 103.462L322.293 103.392L307.063 65.3924C304.083 57.9824 295.893 53.8324 288.343 56.4324L277.623 60.4824L277.613 60.4924L261.773 65.9524C256.463 67.7724 252.463 72.3824 251.783 77.9524C251.563 79.7324 251.723 81.2124 252.223 82.4224Z" fill="url(#paint7_linear_40_2620)"/>
<path d="M294.873 128.992L294.883 129.112C291.073 133.632 295.593 135.302 305.763 138.852C307.193 139.332 308.703 138.212 306.563 136.612L298.143 129.922L298.163 129.832L306.703 88.6522L307.933 82.7322C308.803 78.5622 306.983 74.3122 303.383 72.0522C301.733 71.0122 299.853 70.4922 297.983 70.4922C296.243 70.4922 294.483 70.9422 292.923 71.8422L290.973 72.9622L264.123 86.3622L264.103 86.3722L292.493 85.8322L294.873 128.992Z" fill="url(#paint8_linear_40_2620)"/>
<path d="M252.218 82.427H252.227C251.721 81.216 251.567 79.733 251.784 77.952C252.462 72.384 256.466 67.774 261.772 65.948L269.252 63.366C262.014 54.309 259.119 45.353 263.533 28.072L257.532 24.666C237.078 50.066 239.175 68.045 252.218 82.427Z" fill="url(#paint9_linear_40_2620)"/>
<path d="M284.353 54.2406C284.24 53.9876 283.223 50.3566 283.223 50.3566L251.689 54.9896L259.188 40.6626C260.567 38.0286 261.535 35.1376 261.55 32.1656C261.569 28.3206 259.446 25.3056 255.136 26.8146C251.177 28.2006 248.031 31.2816 246.303 35.1026C237.332 54.9406 238.006 66.4836 252.401 66.7356C256.518 66.8076 260.57 65.6956 264.191 63.7356L284.353 54.2406Z" fill="url(#paint10_linear_40_2620)"/>
<path d="M283.223 50.3563L284.353 54.2403L293.637 50.4353C292.183 46.7533 288.426 46.7643 283.223 50.3563Z" fill="#EDCACC"/>
<path d="M279.078 56.4013L280.311 59.5523L302.343 51.0073C302.343 51.0073 305.786 25.9473 305.531 25.9473C305.276 25.9473 302.279 25.9473 302.279 25.9473L298.772 48.3293L279.078 56.4013Z" fill="#FFD239"/>
<path d="M257.533 24.6655L261.076 19.0195L266.499 21.3545C264.794 23.5855 264.102 25.9475 263.533 28.0725L257.533 24.6655Z" fill="#E4AFB4"/>
<path d="M260.086 17.1291C260.887 20.6891 263.467 24.4901 266.402 24.6551C269.436 24.8261 272.291 22.7451 273.738 19.9481C273.763 19.9651 273.791 19.9781 273.823 19.9811C274.194 20.0101 274.702 20.0101 274.824 19.6801C274.935 19.3801 274.615 18.9911 274.279 18.6821C274.421 18.2621 274.537 17.8341 274.612 17.3991C276.344 7.36714 273.475 4.71014 269.576 4.14714C266.596 3.71614 262.597 7.47314 260.79 11.2611C260.456 10.9391 258.923 16.4821 260.086 17.1291Z" fill="#EDCACC"/>
<path d="M270.681 20.04C270.159 19.426 269.75 18.502 270.132 17.234C270.164 17.13 270.274 17.071 270.378 17.102C270.481 17.133 270.541 17.243 270.51 17.348C269.828 19.614 271.984 20.594 272.076 20.635C272.176 20.678 272.22 20.795 272.177 20.895C272.133 20.995 272.017 21.04 271.917 20.996C271.905 20.991 271.23 20.686 270.681 20.04Z" fill="#422410"/>
<path d="M272.41 16.2924C272.226 16.9214 272.326 17.5034 272.632 17.5934C272.939 17.6834 273.336 17.2464 273.52 16.6174C273.704 15.9884 273.604 15.4064 273.297 15.3164C272.991 15.2264 272.593 15.6634 272.41 16.2924Z" fill="#422410"/>
<path d="M271.818 14.0263C271.812 14.0223 271.807 14.0173 271.802 14.0123C271.723 13.9373 271.72 13.8123 271.796 13.7333C272.696 12.7933 273.694 13.2053 274.101 13.5503C274.183 13.6213 274.192 13.7453 274.122 13.8273C274.051 13.9103 273.937 13.9263 273.844 13.8493C273.816 13.8253 272.945 13.1033 272.082 14.0053C272.011 14.0793 271.897 14.0863 271.818 14.0263Z" fill="#422410"/>
<path d="M305.763 138.852C307.193 139.332 308.703 138.212 306.563 136.612L298.143 129.922L298.163 129.832C296.963 129.522 295.843 129.242 294.873 128.992L294.883 129.112C291.073 133.632 295.593 135.302 305.763 138.852Z" fill="#422410"/>
<path d="M319.153 104.593C318.473 110.463 323.163 109.363 333.613 106.693C335.063 106.313 335.693 104.523 333.033 104.383L322.323 103.463L322.293 103.393C320.923 103.823 319.773 104.193 319.023 104.433L319.153 104.593Z" fill="#422410"/>
<path d="M275.378 5.73195C274.701 3.82095 273.66 1.91395 271.61 1.24895C269.681 0.622952 267.435 1.04195 265.756 2.14095C265.448 2.34195 265.131 2.57595 264.764 2.58595C264.524 2.59295 264.293 2.50195 264.064 2.42995C262.424 1.91295 260.569 2.34795 259.18 3.36095C257.791 4.37495 256.84 5.90995 256.31 7.54595C255.558 9.86395 255.673 12.4209 256.508 14.7009C256.931 15.8569 257.54 16.947 258.319 17.902C258.521 18.15 260.768 20.1599 260.744 20.2149L263.33 17.608C263.33 17.608 262.655 16.601 262.566 16.168C262.32 14.97 262.454 13.401 263.438 12.538C264.306 11.777 265.804 11.814 266.534 12.764C267.058 13.445 266.879 14.299 267.219 15.022C267.127 14.825 269.932 12.331 269.914 11.654C269.93 12.247 277.459 13.614 278.794 12.15C276.233 9.64495 275.861 7.09595 275.378 5.73195Z" fill="#422410"/>
<path d="M147.486 27.8125L146.778 26.7825L143.821 22.4805L138.622 24.9815C140.304 27.0005 142.044 28.6755 142.162 30.7775L138.365 36.7445L144.045 38.9265L150.415 30.7645C149.311 29.7165 148.205 28.6655 147.486 27.8125Z" fill="#E4AFB4"/>
<path d="M159.14 61.3633C160.254 68.8903 163.643 74.9813 155.405 84.4413L138.094 70.1063C139.969 67.5353 141.554 64.9223 142.206 62.0723L159.14 61.3633Z" fill="url(#paint11_linear_40_2620)"/>
<path d="M138.471 49.5055C135.914 45.6465 135.87 40.6505 138.364 36.7455C140.917 37.4495 143.605 36.2095 144.725 33.8095L147.506 27.8535C157.967 33.3645 153.24 54.1205 158.75 57.6765L142.502 58.3555C142.4 56.9005 142.034 55.4005 141.32 53.8055L138.471 49.5055Z" fill="url(#paint12_linear_40_2620)"/>
<path d="M142.205 62.0737C142.499 60.8777 142.613 59.6467 142.504 58.3567L158.752 57.6777C158.805 58.9427 158.952 60.1617 159.14 61.3657L142.205 62.0737Z" fill="#422410"/>
<path d="M156.639 82.5642C155.581 85.2522 152.759 86.5822 148.443 86.7622C147.316 86.8092 146.198 86.7592 145.106 86.6402L145.092 86.6412C142.089 86.2852 139.157 85.3192 136.493 83.8472L123.851 76.8992L118.622 74.0332L116.691 72.9712C115.155 72.1262 113.416 71.7172 111.724 71.7472C109.894 71.7822 108.058 72.3272 106.477 73.3712C103.005 75.6372 101.294 79.8252 102.221 83.8902L103.536 89.6462L103.513 89.7572L91.783 105.284L91.666 105.44C91.684 105.549 91.688 105.646 91.692 105.742C92.275 111.129 87.648 110.138 77.579 107.75C76.147 107.424 75.509 105.675 78.104 105.484L88.538 104.4L88.576 104.33L88.638 104.162L102.751 66.9302C105.531 59.6402 113.465 55.4382 120.891 57.8402L123.002 58.5922L131.417 61.6002L131.431 61.6132L147.009 66.6492C152.229 68.3312 156.229 72.7632 156.979 78.1982C157.231 79.9232 157.113 81.3742 156.639 82.5642Z" fill="url(#paint13_linear_40_2620)"/>
<path d="M120.085 86.6265L113.93 86.6225C120.085 86.6265 115.272 109.163 115.833 128.844L115.824 128.955C115.867 128.994 115.897 129.048 115.94 129.088C119.532 133.33 115.129 135.043 105.366 138.66C103.982 139.159 102.478 138.092 104.545 136.491L112.651 129.804L112.634 129.722L103.536 89.6465L102.221 83.8905C101.294 79.8255 103.005 75.6375 106.477 73.3715C108.058 72.3275 109.894 71.7825 111.724 71.7475C113.416 71.7185 115.155 72.1275 116.691 72.9715L118.622 74.0335L123.904 76.5395L145.091 86.6415L120.085 86.6265Z" fill="url(#paint14_linear_40_2620)"/>
<path d="M131.569 58.0905L130.494 61.2165L108.639 53.7756C108.639 53.7756 104.255 29.4546 104.504 29.4436C104.753 29.4326 107.678 29.3105 107.678 29.3105L112.015 51.0145L131.569 58.0905Z" fill="#FFD239"/>
<path d="M143.783 14.8966C141.864 11.2726 137.807 7.76957 134.916 8.31157C131.133 9.02057 128.441 11.7316 130.542 21.4536C130.633 21.8756 130.764 22.2886 130.92 22.6926C130.604 23.0076 130.308 23.4006 130.428 23.6886C130.56 24.0056 131.056 23.9856 131.418 23.9416C131.449 23.9376 131.476 23.9246 131.5 23.9066C133.027 26.5776 135.899 28.4926 138.853 28.2026C141.711 27.9216 144.075 24.1056 144.711 20.5976C145.82 19.9176 144.097 14.5696 143.783 14.8966Z" fill="#EDCACC"/>
<path d="M134.488 23.8678C134.972 23.2468 135.334 22.3289 134.909 21.1059C134.874 21.0059 134.764 20.9528 134.663 20.9868C134.563 21.0208 134.509 21.1309 134.544 21.2329C135.302 23.4169 133.238 24.4618 133.149 24.5048C133.053 24.5518 133.015 24.6668 133.061 24.7628C133.108 24.8588 133.223 24.8978 133.319 24.8508C133.332 24.8458 133.978 24.5218 134.488 23.8678Z" fill="#422410"/>
<path d="M132.648 20.2836C132.853 20.8896 132.78 21.4626 132.484 21.5626C132.188 21.6626 131.782 21.2526 131.577 20.6456C131.372 20.0396 131.445 19.4666 131.741 19.3666C132.036 19.2666 132.442 19.6766 132.648 20.2836Z" fill="#422410"/>
<path d="M133.132 18.0446C133.137 18.0406 133.142 18.0356 133.147 18.0296C133.221 17.9526 133.219 17.8306 133.142 17.7566C132.225 16.8756 131.268 17.3186 130.884 17.6726C130.807 17.7456 130.803 17.8666 130.875 17.9446C130.947 18.0226 131.06 18.0336 131.148 17.9546C131.174 17.9296 131.995 17.1896 132.874 18.0356C132.946 18.1046 133.057 18.1076 133.132 18.0446Z" fill="#422410"/>
<path d="M154.387 36.9756C152.554 33.3206 151.369 27.6596 148.392 27.8116C145.424 27.9636 143.429 29.8736 144.147 32.1066C144.522 33.2726 154.117 53.0306 154.117 53.0306L123.84 52.6046C118.723 48.1236 114.471 47.8736 113.192 51.5346L122.419 54.8666C122.419 54.8666 158.581 64.4666 160.032 57.9796C161.11 53.1666 154.733 37.6776 154.387 36.9756Z" fill="#EDCACC"/>
<path d="M77.58 107.75C76.148 107.424 75.51 105.675 78.105 105.484L88.539 104.4L88.5769 104.33L88.639 104.162L91.6929 105.742C92.2759 111.128 87.649 110.138 77.58 107.75Z" fill="#422410"/>
<path d="M105.366 138.658C103.982 139.157 102.478 138.09 104.545 136.489L112.651 129.802L112.634 129.72L115.94 129.086C119.532 133.328 115.129 135.041 105.366 138.658Z" fill="#422410"/>
<path d="M146.334 12.7158L143.131 9.67077C141.199 7.82977 138.215 7.16877 135.533 7.54477C135.476 7.55277 130.835 8.31978 129.634 11.3978C129.23 12.4328 128.391 13.2028 127.375 13.6488C122.698 15.7038 127.556 21.3968 129.922 17.6668C129.922 17.6668 129.693 16.3588 130.802 15.1848C131.8 14.1278 133.543 14.3518 134.338 15.5698C135.516 17.3728 137.905 19.7588 138.305 20.0338C138.159 18.8368 137.744 17.1478 139.073 16.3848C140.593 15.5118 142.745 16.8988 142.406 18.6688C142.246 19.5008 141.614 20.2418 140.825 20.4758L141.296 30.7048C141.296 30.7048 144.205 28.9248 146.858 25.9698C150.297 22.1378 150.065 16.2628 146.334 12.7158Z" fill="url(#paint15_linear_40_2620)"/>
<path d="M85.7432 267.349C81.5612 266.699 78.0242 261.291 78.0242 261.291C66.7162 258.801 54.2462 255.268 44.9302 249.832L53.4022 242.752C60.9112 248.617 70.4522 253.154 80.3662 256.545C82.4242 256.376 83.9352 256.482 85.0202 256.713C86.4542 257.035 86.3072 259.114 84.8612 259.262L83.0802 259.651L84.8002 260.514C86.1962 261.078 87.2242 261.741 87.9762 262.381C90.0552 264.221 88.4852 267.764 85.7432 267.349Z" fill="#EDCACC"/>
<path d="M44.9301 249.832C42.7801 248.587 40.8061 247.226 39.0421 245.761C36.1841 243.379 33.9341 240.372 32.4881 236.967C32.2041 236.298 31.9611 235.626 31.7371 234.931C30.4991 230.986 33.6931 227.05 37.8031 227.463C39.6581 227.648 41.2961 228.716 42.2241 230.338C44.9161 235.019 48.7661 239.138 53.4031 242.753L44.9301 249.832Z" fill="url(#paint16_linear_40_2620)"/>
<path d="M0.633057 373.439C0.633057 375.465 21.8291 377.108 47.9761 377.108C74.1231 377.108 95.3191 375.465 95.3191 373.439C95.3191 371.413 74.1231 369.77 47.9761 369.77C21.8291 369.77 0.633057 371.413 0.633057 373.439Z" fill="#F2F2F2"/>
<path d="M77.9459 184.129L83.684 192.804L89.41 201.467L66.3669 201.39L72.1509 192.777L77.9459 184.129Z" fill="#EFCCA7"/>
<path d="M77.9459 184.129L83.6839 192.804C80.1229 192.804 75.5819 192.789 72.1509 192.777L77.9459 184.129Z" fill="#40C1E5"/>
<path d="M66.3669 201.391L89.4099 201.468L88.9219 348.485L65.8789 348.408L66.3669 201.391Z" fill="url(#paint17_linear_40_2620)"/>
<path d="M65.8787 348.4L65.8606 353.895L88.9036 353.971L88.9217 348.476L65.8787 348.4Z" fill="#40C1E5"/>
<path d="M65.861 353.904L88.903 353.98L88.902 354.251C88.897 355.674 88.875 365.275 88.85 369.133C88.81 375.327 83.836 374.475 77.643 374.587C71.394 374.7 66.21 375.651 66.029 369.404C65.929 365.959 65.851 356.568 65.859 354.174L65.861 353.904Z" fill="url(#paint18_linear_40_2620)"/>
<path d="M38.2481 216.814C38.2481 216.814 36.4711 222.902 35.8101 228.201C35.4991 230.695 41.8741 233.625 42.1381 233.527C42.4511 233.41 42.6931 233.109 42.6701 232.717C42.5201 230.112 42.6121 225.489 44.6351 221.943L38.2481 216.814Z" fill="#E4AFB4"/>
<path d="M35.855 219.842C37.645 223.117 41.254 226.129 44.187 225.464C47.219 224.777 49.438 221.234 50.073 218.076C50.102 218.086 50.134 218.091 50.166 218.084C50.539 218.008 51.039 217.865 51.066 217.506C51.091 217.18 50.667 216.887 50.249 216.679C50.271 216.226 50.266 216.464 50.218 216.015C49.095 205.661 45.525 203.857 41.532 204.401C39.816 204.635 38.149 206.259 36.904 208.396C34.673 212.225 35.236 218.877 35.855 219.842Z" fill="#EDCACC"/>
<path d="M47.094 219.72C46.407 219.263 45.746 218.47 45.764 217.115C45.766 217.004 45.857 216.915 45.969 216.916C46.079 216.917 46.169 217.008 46.168 217.121C46.136 219.541 48.532 219.898 48.635 219.912C48.746 219.926 48.822 220.029 48.808 220.139C48.793 220.25 48.691 220.327 48.581 220.312C48.565 220.31 47.816 220.201 47.094 219.72Z" fill="#422410"/>
<path d="M47.7391 215.548C47.7351 216.218 47.9971 216.763 48.3241 216.765C48.6511 216.767 48.9191 216.225 48.9231 215.555C48.9271 214.885 48.6641 214.34 48.3371 214.338C48.0101 214.336 47.7421 214.878 47.7391 215.548Z" fill="#422410"/>
<path d="M46.5179 213.485C46.5109 213.482 46.5039 213.479 46.4979 213.476C46.3989 213.424 46.3609 213.302 46.4129 213.203C47.0329 212.025 48.1299 212.149 48.6279 212.374C48.7289 212.421 48.7729 212.54 48.7269 212.641C48.6809 212.743 48.5729 212.79 48.4599 212.741C48.4249 212.725 47.3659 212.261 46.7709 213.391C46.7229 213.483 46.6129 213.522 46.5179 213.485Z" fill="#422410"/>
<path d="M40.866 368.457C38.555 374.554 43.254 374.655 55.156 374.616C56.81 374.6 57.967 372.855 55.158 371.988L46.007 368.255C46.007 368.255 41.815 368.2 40.948 368.255L40.866 368.457Z" fill="#422410"/>
<path d="M13.197 367.995C10.886 374.092 15.988 374.048 27.89 374.01C29.544 373.994 30.701 372.249 27.892 371.382L19.302 367.649C19.302 367.649 14.208 367.594 13.341 367.649L13.197 367.995Z" fill="#422410"/>
<path d="M47.852 277.178H26.832C36.474 305.934 40.953 336.367 40.95 368.254H45.97C50.752 338.409 51.423 308.056 47.852 277.178Z" fill="url(#paint19_linear_40_2620)"/>
<path d="M47.852 277.178H23.381C20.112 284.34 23.926 292.787 23.926 292.787C23.908 316.947 20.077 342.648 13.342 367.652H19.303C30.442 343.07 38.474 311.643 47.852 277.178Z" fill="url(#paint20_linear_40_2620)"/>
<path d="M47.8519 277.178H23.3809C28.0659 261.02 22.2389 245.721 26.7019 236.045C28.3999 232.365 30.8639 229.607 34.4179 228.159C39.6399 226.031 45.7229 228.771 47.4489 234.139C48.5019 237.415 48.0979 241.828 47.3419 246.778C46.1509 254.582 46.1229 262.519 47.0479 270.359L47.8519 277.178Z" fill="url(#paint21_linear_40_2620)"/>
<path d="M88.8909 213.643C86.1179 216.84 79.6578 216.963 79.6578 216.963C71.5408 225.22 61.9218 233.907 52.3668 238.911L50.8708 227.972C59.8288 224.726 68.7419 219.054 76.8829 212.457C77.8339 210.624 78.7258 209.4 79.4978 208.603C80.5328 207.559 82.2158 208.788 81.5728 210.092L80.9568 211.807L82.6019 210.808C83.8209 209.925 84.9288 209.406 85.8708 209.11C88.5318 208.328 90.6989 211.54 88.8909 213.643Z" fill="#EDCACC"/>
<path d="M52.3669 238.911C50.1699 240.071 47.9679 241.02 45.7889 241.736C42.2519 242.892 38.5089 243.2 34.8569 242.615C34.1389 242.5 33.4409 242.349 32.7329 242.17C28.7339 241.123 27.0959 236.326 29.6289 233.063C30.7719 231.59 32.5459 230.77 34.4139 230.845C39.8099 231.051 45.3439 229.978 50.8709 227.971L52.3669 238.911Z" fill="url(#paint22_linear_40_2620)"/>
<path d="M40.8611 217.541C39.0151 217.805 38.2271 214.555 38.9371 213.299C40.1021 211.236 42.2551 212.456 43.0711 213.962C43.6281 212.861 45.2671 212.746 45.3331 211.268C46.0731 211.268 48.9161 212.617 48.9631 210.765C49.0661 212.425 54.2581 210.68 54.8301 210.044C53.4121 209.542 52.6621 207.741 52.0101 206.489C51.3731 205.267 50.8731 203.239 49.7221 202.391C47.9591 201.093 44.1421 202.562 42.6051 203.76C42.5571 203.798 42.5061 203.839 42.4521 203.882C41.7601 204.449 40.8501 204.64 39.9771 204.444C39.7631 204.396 39.2561 204.384 39.0911 204.386C37.8921 204.404 36.4821 205.13 35.6251 205.965C33.3901 208.144 32.1751 213.418 33.6701 216.236C34.5011 217.803 38.3481 222.055 35.9511 223.833C37.3851 224.062 38.8301 222.097 39.4931 221.042C40.0281 220.191 41.3841 218.575 40.9341 217.54" fill="#422410"/>
<path d="M348.509 377.107C369.26 377.107 386.082 376.031 386.082 374.703C386.082 373.375 369.26 372.299 348.509 372.299C327.758 372.299 310.936 373.375 310.936 374.703C310.936 376.031 327.758 377.107 348.509 377.107Z" fill="#F2F2F2"/>
<path d="M358.625 337.451C358.625 337.451 353.831 359.514 354.308 360.438C354.308 360.438 361.674 365.87 378.272 361.117V366.241C339.815 379.469 340.881 368.202 345.413 337.449L358.625 337.451Z" fill="url(#paint23_linear_40_2620)"/>
<path d="M380.564 374.651L383.762 374.652C386.383 374.465 384.407 368.277 384.099 367.551C383.579 366.293 383.424 363.125 383.58 361.801C383.602 361.615 383.595 361.431 383.563 361.255C383.348 360.069 381.949 359.503 380.89 360.077C380.2 360.45 379.26 360.621 378.273 361.119V366.243L379.778 367.016C380.348 367.819 380.567 370.86 380.118 371.695L379.709 372.455C379.277 373.261 379.672 374.279 380.564 374.651Z" fill="#422410"/>
<path d="M283.45 293.357C286.685 296.356 293.392 295.751 293.392 295.751C302.737 303.387 313.687 311.298 324.154 315.4L324.465 303.897C314.816 301.549 304.939 296.682 295.757 290.768C294.564 288.977 293.501 287.81 292.611 287.071C291.421 286.107 289.816 287.571 290.63 288.849L291.463 290.556L289.645 289.708C288.282 288.931 287.075 288.519 286.066 288.318C283.22 287.81 281.338 291.383 283.45 293.357Z" fill="#EDCACC"/>
<path d="M324.155 315.402C326.562 316.355 328.952 317.089 331.29 317.584C335.085 318.381 338.998 318.276 342.717 317.257C343.448 317.057 344.154 316.821 344.867 316.555C348.892 315.017 350.045 309.861 347.051 306.768C345.7 305.371 343.769 304.722 341.842 305.012C336.275 305.837 330.419 305.352 324.466 303.898L324.155 315.402Z" fill="url(#paint24_linear_40_2620)"/>
<g opacity="0.05">
<path d="M305.099 290.704H265.74V251.346H305.098V290.704H305.099ZM268.313 288.131H302.526V253.919H268.313V288.131Z" fill="black"/>
<path d="M281.524 287.11C281.475 287.11 281.427 287.108 281.378 287.105C280.806 287.062 280.28 286.773 279.939 286.311L270.738 273.872C270.091 272.997 270.275 271.762 271.15 271.115C272.025 270.469 273.261 270.652 273.907 271.528L281.747 282.127L308.356 255.517C309.128 254.747 310.375 254.747 311.144 255.517C311.914 256.287 311.914 257.535 311.145 258.305L282.917 286.533C282.547 286.904 282.045 287.11 281.524 287.11Z" fill="black"/>
</g>
<path d="M306.099 289.704H266.74V250.346H306.098V289.704H306.099ZM269.313 287.131H303.526V252.919H269.313V287.131Z" fill="#40C1E5"/>
<path d="M282.524 286.11C282.475 286.11 282.427 286.108 282.378 286.105C281.806 286.062 281.28 285.773 280.939 285.311L271.738 272.872C271.091 271.997 271.275 270.762 272.15 270.115C273.025 269.469 274.261 269.652 274.907 270.528L282.747 281.127L309.356 254.517C310.128 253.747 311.375 253.747 312.144 254.517C312.914 255.287 312.914 256.535 312.145 257.305L283.917 285.533C283.547 285.904 283.045 286.11 282.524 286.11Z" fill="#FF9D3B"/>
<path d="M337.829 291.74L342.127 299.832L334.378 301.797L332.063 292.591L337.829 291.74Z" fill="#E4AFB4"/>
<path d="M357.202 325.262C357.202 325.262 366.681 342.729 354.457 344.248C352.663 344.471 350.838 344.314 349.077 343.904C341.541 342.149 335.267 339.877 334.541 341.275C333.682 342.927 331.08 351.623 334.274 368.589L328.943 368.182C319.555 339.794 320.485 322.209 342.832 329.301L342.894 325.44L357.202 325.262Z" fill="url(#paint25_linear_40_2620)"/>
<path d="M334.208 368.39C336.575 374.636 331.762 374.738 319.571 374.699C317.877 374.683 316.692 372.895 319.569 372.007L328.942 368.183C328.942 368.183 333.236 368.127 334.124 368.183L334.208 368.39Z" fill="#422410"/>
<path d="M337.792 329.508C337.792 329.508 354.119 332.266 359.923 330.922C359.923 330.922 356.191 305.248 344.35 299.751C339.835 297.655 334.472 297.842 330.369 300.661C327.897 302.359 327.535 303.679 326.77 306.643C325.231 312.609 328.109 318.826 333.394 321.992C335.862 323.47 333.938 329.005 337.792 329.508Z" fill="url(#paint26_linear_40_2620)"/>
<path d="M286.939 274.727C289.462 278.345 296.144 279.182 296.144 279.182C303.651 288.632 312.666 298.692 322.02 304.927L324.772 293.753C315.844 289.405 307.229 282.548 299.515 274.816C298.731 272.812 297.94 271.445 297.228 270.535C296.27 269.34 294.391 270.428 294.914 271.85L295.364 273.696L293.769 272.48C292.602 271.431 291.511 270.771 290.568 270.361C287.894 269.257 285.295 272.349 286.939 274.727Z" fill="#EDCACC"/>
<path d="M322.02 304.928C324.17 306.372 326.348 307.597 328.527 308.578C332.066 310.164 335.912 310.895 339.762 310.69C340.518 310.65 341.259 310.57 342.012 310.462C346.272 309.815 348.496 305.023 346.229 301.364C345.206 299.712 343.457 298.666 341.513 298.54C335.898 298.161 330.279 296.442 324.772 293.754L322.02 304.928Z" fill="url(#paint27_linear_40_2620)"/>
<path d="M342.535 281.205C342.096 278.796 341.09 276.722 339.57 275.926C336.035 274.075 332.103 274.553 327.57 283.817C327.374 284.219 327.45 283.996 327.317 284.425C326.857 284.479 326.364 284.609 326.277 284.92C326.181 285.263 326.598 285.565 326.92 285.761C326.948 285.778 326.979 285.784 327.01 285.785C326.538 288.94 327.412 292.987 330.004 294.647C332.512 296.254 336.886 294.664 339.656 292.217C340.559 291.527 343.322 285.522 342.535 281.205Z" fill="#EDCACC"/>
<path d="M329.233 288.318C330.026 288.123 330.91 287.608 331.349 286.339C331.385 286.235 331.33 286.121 331.225 286.085C331.122 286.049 331.007 286.103 330.97 286.209C330.185 288.474 327.834 287.999 327.733 287.978C327.625 287.954 327.519 288.024 327.496 288.132C327.473 288.24 327.542 288.346 327.65 288.369C327.664 288.373 328.398 288.523 329.233 288.318Z" fill="#422410"/>
<path d="M330.037 284.217C329.815 284.842 329.387 285.261 329.082 285.153C328.777 285.045 328.71 284.45 328.932 283.824C329.154 283.199 329.582 282.779 329.887 282.888C330.192 282.997 330.259 283.592 330.037 284.217Z" fill="#422410"/>
<path d="M331.868 282.706C331.875 282.706 331.883 282.705 331.89 282.704C331.999 282.689 332.076 282.588 332.061 282.479C331.88 281.173 330.817 280.919 330.277 280.961C330.167 280.97 330.086 281.067 330.095 281.177C330.103 281.287 330.189 281.368 330.31 281.361C330.348 281.358 331.49 281.282 331.664 282.535C331.678 282.636 331.767 282.709 331.868 282.706Z" fill="#422410"/>
<path d="M331.421 280.092L331.414 280.08L331.418 280.085L331.421 280.092Z" fill="#422410"/>
<path d="M328.658 274.446C328.838 273.695 330.85 269.193 330.896 268.672C330.919 270.221 331.157 271.72 332.298 272.833C332.451 272.264 332.543 271.655 332.694 271.069C332.904 270.254 333.344 269.597 333.601 268.84C333.59 270.75 335.993 272.427 337.506 273.14C337.449 272.418 338.09 271.736 338.569 271.252C338.724 272.377 339.315 273.318 339.984 274.205C340.786 275.269 344.476 278.634 345.392 282.425C345.899 284.521 346.003 286.826 344.773 288.68C343.503 290.594 342.089 292.257 339.793 292.957C337.702 293.595 336.084 293.07 334.146 292.229C334.602 291.512 338.499 286.074 332.263 279.912C332.213 280.731 332.423 281.585 332.719 282.349C328.802 279.88 328.56 277.525 328.467 276.82C328.366 276.063 328.483 275.172 328.658 274.446Z" fill="url(#paint28_linear_40_2620)"/>
<path d="M331.535 269.34C331.534 269.264 331.531 269.188 331.531 269.111C331.544 269.178 331.543 269.257 331.535 269.34Z" fill="#422410"/>
<path d="M334.107 288.903C334.617 289.892 335.951 290.219 337.088 289.633C338.225 289.047 338.733 287.77 338.224 286.781C337.714 285.792 336.38 285.465 335.243 286.051C334.106 286.637 333.598 287.914 334.107 288.903Z" fill="#EDCACC"/>
<defs>
<linearGradient id="paint0_linear_40_2620" x1="270.803" y1="246.32" x2="394.803" y2="155.82" gradientUnits="userSpaceOnUse">
<stop stop-color="#40C1E5"/>
<stop offset="0.274" stop-color="#40C1E5"/>
<stop offset="0.4988" stop-color="#40C1E5"/>
<stop offset="0.61" stop-color="#40C1E5"/>
</linearGradient>
<linearGradient id="paint1_linear_40_2620" x1="281.29" y1="270.726" x2="405.291" y2="180.226" gradientUnits="userSpaceOnUse">
<stop stop-color="#40C1E5"/>
<stop offset="0.0856" stop-color="#40C1E5"/>
<stop offset="0.1771" stop-color="#40C1E5"/>
<stop offset="0.2783" stop-color="#40C1E5"/>
<stop offset="0.391" stop-color="#40C1E5"/>
<stop offset="0.5217" stop-color="#40C1E5"/>
<stop offset="0.6863" stop-color="#40C1E5"/>
<stop offset="0.9955" stop-color="#40C1E5"/>
</linearGradient>
<linearGradient id="paint2_linear_40_2620" x1="133.096" y1="190.346" x2="31.2818" y2="75.4617" gradientUnits="userSpaceOnUse">
<stop stop-color="#40C1E5"/>
<stop offset="0.4988" stop-color="#40C1E5" stop-opacity="0.898039"/>
<stop offset="0.61" stop-color="#40C1E5"/>
</linearGradient>
<linearGradient id="paint3_linear_40_2620" x1="117.64" y1="211.949" x2="15.8262" y2="97.0655" gradientUnits="userSpaceOnUse">
<stop stop-color="#40C1E5"/>
<stop offset="0.0856" stop-color="#40C1E5"/>
<stop offset="0.1771" stop-color="#40C1E5"/>
<stop offset="0.2783" stop-color="#40C1E5"/>
<stop offset="0.391" stop-color="#40C1E5"/>
<stop offset="0.5217" stop-color="#40C1E5"/>
<stop offset="0.6863" stop-color="#40C1E5"/>
<stop offset="0.9955" stop-color="#40C1E5"/>
</linearGradient>
<linearGradient id="paint4_linear_40_2620" x1="202" y1="296.634" x2="202" y2="82.9691" gradientUnits="userSpaceOnUse">
<stop offset="0.0188" stop-color="#FF9D3B"/>
<stop offset="0.9838" stop-color="#FFD239"/>
<stop offset="1" stop-color="#FFD039"/>
</linearGradient>
<linearGradient id="paint5_linear_40_2620" x1="91.3535" y1="345.389" x2="319.353" y2="85.3899" gradientUnits="userSpaceOnUse">
<stop stop-color="white"/>
<stop offset="0.2367" stop-color="#FCFCFC"/>
<stop offset="0.4055" stop-color="#F3F3F3"/>
<stop offset="0.532" stop-color="#E6E6E6"/>
<stop offset="0.6382" stop-color="#F1F1F1"/>
<stop offset="0.8054" stop-color="#FCFCFC"/>
<stop offset="1" stop-color="white"/>
</linearGradient>
<linearGradient id="paint6_linear_40_2620" x1="202.155" y1="107.7" x2="203.006" y2="37.049" gradientUnits="userSpaceOnUse">
<stop stop-color="#40C1E5"/>
<stop offset="0.0856" stop-color="#40C1E5"/>
<stop offset="0.1771" stop-color="#40C1E5"/>
<stop offset="0.2783" stop-color="#40C1E5"/>
<stop offset="0.391" stop-color="#40C1E5"/>
<stop offset="0.5217" stop-color="#40C1E5"/>
<stop offset="0.6863" stop-color="#40C1E5"/>
<stop offset="0.9955" stop-color="#40C1E5"/>
</linearGradient>
<linearGradient id="paint7_linear_40_2620" x1="269.672" y1="109.892" x2="330.029" y2="57.8488" gradientUnits="userSpaceOnUse">
<stop offset="0.1749" stop-color="#D56F5A"/>
<stop offset="0.3515" stop-color="#D97C5C"/>
<stop offset="0.7548" stop-color="#E1965F"/>
<stop offset="0.9981" stop-color="#E49F60"/>
</linearGradient>
<linearGradient id="paint8_linear_40_2620" x1="283.068" y1="114.817" x2="343.425" y2="62.7739" gradientUnits="userSpaceOnUse">
<stop offset="0.00066106" stop-color="#D56F5A"/>
<stop offset="0.5359" stop-color="#DC875D"/>
<stop offset="0.9981" stop-color="#E49F60"/>
</linearGradient>
<linearGradient id="paint9_linear_40_2620" x1="239.285" y1="53.5464" x2="266.253" y2="53.5464" gradientUnits="userSpaceOnUse">
<stop stop-color="#074C47"/>
<stop offset="0.0511" stop-color="#08544E"/>
<stop offset="0.5021" stop-color="#0E988A"/>
<stop offset="0.8287" stop-color="#12C2AF"/>
<stop offset="0.9955" stop-color="#13D2BD"/>
</linearGradient>
<linearGradient id="paint10_linear_40_2620" x1="236.642" y1="46.5779" x2="280.591" y2="46.5779" gradientUnits="userSpaceOnUse">
<stop stop-color="#074C47"/>
<stop offset="0.2207" stop-color="#0B786D"/>
<stop offset="0.4541" stop-color="#0E9F90"/>
<stop offset="0.669" stop-color="#11BBA9"/>
<stop offset="0.8564" stop-color="#12CCB8"/>
<stop offset="0.9955" stop-color="#13D2BD"/>
</linearGradient>
<linearGradient id="paint11_linear_40_2620" x1="166.879" y1="86.5821" x2="121.866" y2="35.1972" gradientUnits="userSpaceOnUse">
<stop stop-color="#074C47"/>
<stop offset="0.0511" stop-color="#08544E"/>
<stop offset="0.5021" stop-color="#0E988A"/>
<stop offset="0.8287" stop-color="#12C2AF"/>
<stop offset="0.9955" stop-color="#13D2BD"/>
</linearGradient>
<linearGradient id="paint12_linear_40_2620" x1="130.041" y1="38.7695" x2="156.791" y2="46.5195" gradientUnits="userSpaceOnUse">
<stop offset="0.0019" stop-color="#E49F60"/>
<stop offset="0.1451" stop-color="#E0925E"/>
<stop offset="0.4236" stop-color="#DA7F5C"/>
<stop offset="0.7068" stop-color="#D6735A"/>
<stop offset="0.9993" stop-color="#D56F5A"/>
</linearGradient>
<linearGradient id="paint13_linear_40_2620" x1="136.354" y1="113.324" x2="91.3399" y2="61.9388" gradientUnits="userSpaceOnUse">
<stop stop-color="#074C47"/>
<stop offset="0.0511" stop-color="#08544E"/>
<stop offset="0.5021" stop-color="#0E988A"/>
<stop offset="0.8287" stop-color="#12C2AF"/>
<stop offset="0.9955" stop-color="#13D2BD"/>
</linearGradient>
<linearGradient id="paint14_linear_40_2620" x1="101.972" y1="105.263" x2="145.092" y2="105.263" gradientUnits="userSpaceOnUse">
<stop offset="0.0045" stop-color="#13D2BD"/>
<stop offset="0.1713" stop-color="#12C2AF"/>
<stop offset="0.4979" stop-color="#0E988A"/>
<stop offset="0.9489" stop-color="#08544E"/>
<stop offset="1" stop-color="#074C47"/>
</linearGradient>
<linearGradient id="paint15_linear_40_2620" x1="150.564" y1="28.5448" x2="111.564" y2="-7.45523" gradientUnits="userSpaceOnUse">
<stop offset="0.0188" stop-color="#FF9D3B"/>
<stop offset="0.0445" stop-color="#FF9F3B"/>
<stop offset="0.4153" stop-color="#FFBB3A"/>
<stop offset="0.7408" stop-color="#FFCC39"/>
<stop offset="0.9838" stop-color="#FFD239"/>
<stop offset="1" stop-color="#FFD039"/>
</linearGradient>
<linearGradient id="paint16_linear_40_2620" x1="-15.745" y1="223.307" x2="83.807" y2="249.98" gradientUnits="userSpaceOnUse">
<stop stop-color="#074C47"/>
<stop offset="0.0511" stop-color="#08544E"/>
<stop offset="0.5021" stop-color="#0E988A"/>
<stop offset="0.8287" stop-color="#12C2AF"/>
<stop offset="0.9955" stop-color="#13D2BD"/>
</linearGradient>
<linearGradient id="paint17_linear_40_2620" x1="65.8791" y1="274.938" x2="89.4097" y2="274.938" gradientUnits="userSpaceOnUse">
<stop offset="0.0188" stop-color="#FF9D3B"/>
<stop offset="0.9838" stop-color="#FFD239"/>
<stop offset="1" stop-color="#FFD039"/>
</linearGradient>
<linearGradient id="paint18_linear_40_2620" x1="77.3814" y1="344.724" x2="77.3814" y2="369.427" gradientUnits="userSpaceOnUse">
<stop offset="0.00066106" stop-color="#D56F5A"/>
<stop offset="0.5359" stop-color="#DC875D"/>
<stop offset="0.9981" stop-color="#E49F60"/>
</linearGradient>
<linearGradient id="paint19_linear_40_2620" x1="26.8325" y1="322.715" x2="50.1164" y2="322.715" gradientUnits="userSpaceOnUse">
<stop offset="0.00066106" stop-color="#D56F5A"/>
<stop offset="0.5359" stop-color="#DC875D"/>
<stop offset="0.9981" stop-color="#E49F60"/>
</linearGradient>
<linearGradient id="paint20_linear_40_2620" x1="13.3421" y1="322.414" x2="47.8521" y2="322.414" gradientUnits="userSpaceOnUse">
<stop offset="0.00066106" stop-color="#D56F5A"/>
<stop offset="0.5359" stop-color="#DC875D"/>
<stop offset="0.9981" stop-color="#E49F60"/>
</linearGradient>
<linearGradient id="paint21_linear_40_2620" x1="3.10986" y1="283.531" x2="82.7395" y2="218.099" gradientUnits="userSpaceOnUse">
<stop stop-color="#074C47"/>
<stop offset="0.0511" stop-color="#08544E"/>
<stop offset="0.5021" stop-color="#0E988A"/>
<stop offset="0.8287" stop-color="#12C2AF"/>
<stop offset="0.9955" stop-color="#13D2BD"/>
</linearGradient>
<linearGradient id="paint22_linear_40_2620" x1="-2.34739" y1="276.217" x2="73.1501" y2="206.056" gradientUnits="userSpaceOnUse">
<stop stop-color="#074C47"/>
<stop offset="0.0511" stop-color="#08544E"/>
<stop offset="0.5021" stop-color="#0E988A"/>
<stop offset="0.8287" stop-color="#12C2AF"/>
<stop offset="0.9955" stop-color="#13D2BD"/>
</linearGradient>
<linearGradient id="paint23_linear_40_2620" x1="367.353" y1="335.315" x2="350.353" y2="386.314" gradientUnits="userSpaceOnUse">
<stop stop-color="#074C47"/>
<stop offset="0.0511" stop-color="#08544E"/>
<stop offset="0.5021" stop-color="#0E988A"/>
<stop offset="0.8287" stop-color="#12C2AF"/>
<stop offset="0.9955" stop-color="#13D2BD"/>
</linearGradient>
<linearGradient id="paint24_linear_40_2620" x1="380.968" y1="340.026" x2="309.966" y2="294.581" gradientUnits="userSpaceOnUse">
<stop offset="0.00066106" stop-color="#D56F5A"/>
<stop offset="0.2932" stop-color="#D6735A"/>
<stop offset="0.5764" stop-color="#DA7F5C"/>
<stop offset="0.8549" stop-color="#E0925E"/>
<stop offset="0.9981" stop-color="#E49F60"/>
</linearGradient>
<linearGradient id="paint25_linear_40_2620" x1="348.975" y1="310.405" x2="339.975" y2="346.405" gradientUnits="userSpaceOnUse">
<stop stop-color="#074C47"/>
<stop offset="0.0511" stop-color="#08544E"/>
<stop offset="0.5021" stop-color="#0E988A"/>
<stop offset="0.8287" stop-color="#12C2AF"/>
<stop offset="0.9955" stop-color="#13D2BD"/>
</linearGradient>
<linearGradient id="paint26_linear_40_2620" x1="384.055" y1="337.998" x2="333.142" y2="310.449" gradientUnits="userSpaceOnUse">
<stop offset="0.00066106" stop-color="#D56F5A"/>
<stop offset="0.2932" stop-color="#D6735A"/>
<stop offset="0.5764" stop-color="#DA7F5C"/>
<stop offset="0.8549" stop-color="#E0925E"/>
<stop offset="0.9981" stop-color="#E49F60"/>
</linearGradient>
<linearGradient id="paint27_linear_40_2620" x1="387.47" y1="331.685" x2="336.558" y2="304.137" gradientUnits="userSpaceOnUse">
<stop offset="0.00066106" stop-color="#D56F5A"/>
<stop offset="0.2932" stop-color="#D6735A"/>
<stop offset="0.5764" stop-color="#DA7F5C"/>
<stop offset="0.8549" stop-color="#E0925E"/>
<stop offset="0.9981" stop-color="#E49F60"/>
</linearGradient>
<linearGradient id="paint28_linear_40_2620" x1="340.989" y1="298.068" x2="331.489" y2="255.068" gradientUnits="userSpaceOnUse">
<stop offset="0.0188" stop-color="#FF9D3B"/>
<stop offset="0.9838" stop-color="#FFD239"/>
<stop offset="1" stop-color="#FFD039"/>
</linearGradient>
</defs>
</svg>
