<svg width="800" height="800" viewBox="0 0 800 800" fill="none" xmlns="http://www.w3.org/2000/svg">
<g clip-path="url(#clip0_24_4)">
<path d="M566.667 508.167V737.234C566.667 740.183 565.885 743.079 564.401 745.627C562.917 748.175 560.783 750.283 558.217 751.737C555.652 753.191 552.746 753.938 549.798 753.903C546.849 753.867 543.963 753.049 541.433 751.534L400 666.667L258.567 751.534C256.035 753.051 253.145 753.868 250.194 753.903C247.242 753.937 244.335 753.187 241.768 751.729C239.202 750.271 237.068 748.158 235.586 745.605C234.104 743.053 233.327 740.152 233.333 737.2V508.2C190.205 473.67 158.866 426.596 143.649 373.485C128.431 320.374 130.085 263.847 148.383 211.716C166.681 159.586 200.719 114.425 245.793 82.4764C290.867 50.5274 344.751 33.3672 400 33.3672C455.249 33.3672 509.133 50.5274 554.207 82.4764C599.281 114.425 633.319 159.586 651.617 211.716C669.915 263.847 671.569 320.374 656.351 373.485C641.134 426.596 609.795 473.67 566.667 508.2V508.167ZM300 547.267V648.934L400 588.934L500 648.934V547.267C468.228 560.117 434.272 566.705 400 566.667C365.728 566.705 331.772 560.117 300 547.267ZM400 500C453.043 500 503.914 478.929 541.421 441.422C578.929 403.915 600 353.044 600 300C600 246.957 578.929 196.086 541.421 158.579C503.914 121.072 453.043 100 400 100C346.957 100 296.086 121.072 258.579 158.579C221.071 196.086 200 246.957 200 300C200 353.044 221.071 403.915 258.579 441.422C296.086 478.929 346.957 500 400 500Z" fill="white"/>
</g>
<defs>
<clipPath id="clip0_24_4">
<rect width="800" height="800" fill="white"/>
</clipPath>
</defs>
</svg>
