<svg width="252" height="252" viewBox="0 0 252 252" fill="none" xmlns="http://www.w3.org/2000/svg">
<path d="M90.5671 246.373C84.9557 248.99 78.2618 246.553 75.6452 240.942L5.52517 90.5691C2.90855 84.9577 5.34494 78.2638 10.9563 75.6472L161.329 5.5273C166.94 2.91067 173.634 5.34705 176.251 10.9584L246.371 161.331C248.987 166.943 246.551 173.636 240.94 176.253L90.5671 246.373Z" fill="white"/>
<path d="M235.75 167.897L87.5012 237.026C86.1831 237.641 84.6162 237.071 84.0016 235.753L14.8717 87.5032C14.2571 86.1851 14.8274 84.6181 16.1455 84.0035L164.395 14.8737C165.713 14.259 167.28 14.8294 167.895 16.1475L237.024 164.397C237.639 165.715 237.069 167.282 235.75 167.897Z" fill="#1A486A"/>
<path d="M99.8736 154.991L87.351 213.439C86.3487 218.118 91.1283 221.926 95.4648 219.904L160.811 189.433C165.147 187.411 165.302 181.301 161.074 179.062L108.25 151.085C104.854 149.286 100.679 151.232 99.8736 154.991Z" fill="white"/>
<path d="M217.515 162.99L168.24 185.967C168.331 185.467 168.383 184.955 168.397 184.436C168.493 180.602 166.45 177.106 163.06 175.31L133.838 159.833L142.177 120.921C142.98 117.162 147.156 115.215 150.554 117.015L217.779 152.619C222.006 154.859 221.851 160.968 217.515 162.99Z" fill="white"/>
<path d="M76.9858 122.361C85.5337 118.375 89.2319 108.214 85.2459 99.6662C81.26 91.1184 71.0994 87.4202 62.5515 91.4061C54.0036 95.3921 50.3055 105.553 54.2914 114.101C58.2773 122.648 68.438 126.347 76.9858 122.361Z" fill="white"/>
</svg>
