<svg width="390" height="361" viewBox="0 0 390 361" fill="none" xmlns="http://www.w3.org/2000/svg">
<path d="M226.905 30.4892L31.2261 121.736L120.572 313.339L316.251 222.093L226.905 30.4892Z" fill="#1A486A"/>
<path d="M224.74 38.9575L39.1157 125.516L125.605 310.992L311.229 224.434L224.74 38.9575Z" fill="white"/>
<path d="M314.991 219.39L316.251 222.093L217.637 268.077L229.016 236.841L244.674 193.797L314.991 219.39Z" fill="white"/>
<path d="M120.572 313.339L111.985 294.923L144.342 206.022L260.247 248.208L120.572 313.339Z" fill="white"/>
<path d="M203.983 152.522C220.529 144.807 227.687 125.139 219.972 108.593C212.256 92.0471 192.589 84.8887 176.043 92.6041C159.497 100.32 152.339 119.987 160.054 136.533C167.77 153.079 187.437 160.237 203.983 152.522Z" fill="white"/>
<path d="M266.901 23.9226L267.233 24.8657L274.005 22.4781L273.673 21.535L266.901 23.9226Z" fill="white"/>
<path d="M243.851 32.0456L244.183 32.9888L260.752 27.1467L260.419 26.2036L243.851 32.0456Z" fill="white"/>
<path d="M87.4813 90.8924L157.784 290.28L361.412 218.482L291.11 19.0946L87.4813 90.8924Z" fill="#1A486A"/>
<path d="M94.9676 95.4208L163.022 288.433L356.188 220.324L288.133 27.3122L94.9676 95.4208Z" fill="white"/>
<path d="M360.41 215.677L361.402 218.489L258.785 254.672L273.146 224.69L292.913 183.37L360.41 215.677Z" fill="#1A486A"/>
<path d="M157.781 290.286L151.024 271.122L191.868 185.786L303.124 239.039L157.781 290.286Z" fill="#0053CC"/>
<path d="M207.204 65.9132L17.8853 169.727L119.536 355.102L308.855 251.289L207.204 65.9132Z" fill="#1A486A"/>
<path d="M205.597 74.5043L26.0054 172.983L124.406 352.432L303.997 253.953L205.597 74.5043Z" fill="white"/>
<path d="M307.405 248.679L308.839 251.294L213.431 303.607L222.75 271.696L235.569 227.723L307.405 248.679Z" fill="#1A486A"/>
<path d="M119.522 355.099L109.753 337.283L136.247 246.46L254.656 281.003L119.522 355.099Z" fill="#1A486A"/>
<path d="M207.442 171.51C213.686 154.355 204.84 135.386 187.685 129.142C170.53 122.898 151.561 131.744 145.317 148.899C139.073 166.054 147.919 185.023 165.074 191.267C182.229 197.511 201.198 188.665 207.442 171.51Z" fill="#1A486A"/>
</svg>
