<svg width="271" height="68" viewBox="0 0 271 68" fill="none" xmlns="http://www.w3.org/2000/svg">
<path d="M101.002 15.7969H98.2016C97.9016 15.7969 97.7016 15.6969 97.5016 15.4969L93.8016 10.8969H92.5016V15.2969C92.5016 15.5969 92.3016 15.7969 92.0016 15.7969H89.6016C89.3016 15.7969 89.1016 15.5969 89.1016 15.2969V1.29688C89.1016 0.996875 89.3016 0.796875 89.6016 0.796875H92.5016H94.9016C97.8016 0.796875 100.002 3.09688 100.002 5.89688C100.002 7.69688 98.9016 9.29688 97.3016 10.1969L101.202 15.0969C101.602 15.4969 101.502 15.7969 101.002 15.7969ZM92.6016 7.89688H95.0016C95.9016 7.89688 96.7016 7.09688 96.7016 5.99688C96.7016 4.89688 95.9016 4.09688 95.0016 4.09688H92.6016C92.6016 3.99688 92.6016 7.89688 92.6016 7.89688Z" fill="#292667"/>
<path d="M112.002 13.0969V15.2969C112.002 15.5969 111.802 15.7969 111.502 15.7969H104.102H103.602C103.302 15.7969 103.102 15.5969 103.102 15.2969V1.29688C103.102 0.996875 103.302 0.796875 103.602 0.796875H106.502H111.402C111.702 0.796875 111.902 0.996875 111.902 1.29688V3.49688C111.902 3.79688 111.702 3.99688 111.402 3.99688H106.502V6.49688H110.902C111.202 6.49688 111.402 6.69688 111.402 6.99688V9.09688C111.402 9.39688 111.202 9.59688 110.902 9.59688H106.502V12.2969H111.502C111.802 12.4969 112.002 12.6969 112.002 13.0969Z" fill="#292667"/>
<path d="M113.301 11.7C113.301 11.3 113.501 11.1 113.801 11.1H116.201C116.501 11.1 116.701 11.3 116.801 11.6C117.001 12.4 117.601 12.8 118.901 12.8C120.301 12.8 120.801 12.3 120.801 11.6C120.801 10.7 119.701 10.3 118.401 9.9C116.301 9.2 113.601 8.3 113.601 5C113.601 2 116.001 0.5 118.601 0.5C121.101 0.5 123.501 1.9 123.801 5C123.801 5.4 123.601 5.6 123.301 5.6H120.901C120.601 5.6 120.401 5.4 120.301 5.1C120.101 4.3 119.601 3.9 118.601 3.9C117.501 3.9 117.001 4.4 117.001 5.1C117.001 6 117.901 6.4 119.101 6.9C121.201 7.7 124.201 8.4 124.201 11.7C124.201 14.7 121.801 16.2 118.901 16.2C116.001 16.2 113.501 14.8 113.301 11.7Z" fill="#292667"/>
<path d="M135.002 13.0969V15.2969C135.002 15.5969 134.802 15.7969 134.502 15.7969H127.102H126.602C126.302 15.7969 126.102 15.5969 126.102 15.2969V1.29688C126.102 0.996875 126.302 0.796875 126.602 0.796875H129.502H134.402C134.702 0.796875 134.902 0.996875 134.902 1.29688V3.49688C134.902 3.79688 134.702 3.99688 134.402 3.99688H129.502V6.49688H133.902C134.202 6.49688 134.402 6.69688 134.402 6.99688V9.09688C134.402 9.39688 134.202 9.59688 133.902 9.59688H129.502V12.2969H134.502C134.802 12.4969 135.002 12.6969 135.002 13.0969Z" fill="#292667"/>
<path d="M149.402 15.8031H146.802C146.502 15.8031 146.302 15.7031 146.202 15.3031L145.602 13.4031H140.302L139.702 15.3031C139.602 15.6031 139.402 15.8031 139.102 15.8031H136.502C136.102 15.8031 135.902 15.6031 136.102 15.2031L140.702 1.20312C140.802 0.903125 141.002 0.703125 141.302 0.703125H144.702C145.002 0.703125 145.202 0.803125 145.302 1.20312L149.902 15.2031C150.002 15.6031 149.802 15.8031 149.402 15.8031ZM144.702 10.3031L143.002 4.60312L141.302 10.3031H144.702Z" fill="#292667"/>
<path d="M163.4 15.7969H160.6C160.3 15.7969 160.1 15.6969 159.9 15.4969L156.2 10.8969H154.9V15.2969C154.9 15.5969 154.7 15.7969 154.4 15.7969H152C151.7 15.7969 151.5 15.5969 151.5 15.2969V1.29688C151.5 0.996875 151.7 0.796875 152 0.796875H154.9H157.3C160.2 0.796875 162.4 3.09688 162.4 5.89688C162.4 7.69688 161.3 9.29688 159.7 10.1969L163.6 15.0969C164 15.4969 163.8 15.7969 163.4 15.7969ZM155 7.89688H157.4C158.3 7.89688 159.1 7.09688 159.1 5.99688C159.1 4.89688 158.3 4.09688 157.4 4.09688H155V7.89688Z" fill="#292667"/>
<path d="M164 8.3C164 3.9 167.3 0.5 171.8 0.5C175.2 0.5 178.2 2.6 179 5.8C179.1 6.2 178.9 6.4 178.5 6.4H176C175.7 6.4 175.5 6.3 175.4 6C174.8 4.7 173.4 3.9 171.8 3.9C169.1 3.9 167.4 5.7 167.4 8.4C167.4 11.1 169.1 12.9 171.8 12.9C173.4 12.9 174.8 12.1 175.4 10.8C175.5 10.5 175.7 10.4 176 10.4H178.5C178.9 10.4 179.1 10.6 179 11C178.2 14.1 175.2 16.3 171.8 16.3C167.3 16.2 164 12.8 164 8.3Z" fill="#292667"/>
<path d="M192.002 1.40048V15.4005C192.002 15.7005 191.802 15.9005 191.502 15.9005H189.102C188.802 15.9005 188.602 15.7005 188.602 15.4005V9.90048H184.302V15.4005C184.302 15.7005 184.102 15.9005 183.802 15.9005H181.402C181.102 15.9005 180.902 15.7005 180.902 15.4005V1.40048C180.902 1.10048 181.102 0.900483 181.402 0.900483H183.802C184.102 0.900483 184.302 1.10048 184.302 1.40048V6.50048H188.602V1.40048C188.602 1.10048 188.802 0.900483 189.102 0.900483H191.502C191.902 0.800483 192.002 1.00048 192.002 1.40048Z" fill="#292667"/>
<path d="M89.7031 26.6016H92.1031C92.4031 26.6016 92.6031 26.8016 92.6031 27.1016V41.1016C92.6031 41.4016 92.4031 41.6016 92.1031 41.6016H89.7031C89.4031 41.6016 89.2031 41.4016 89.2031 41.1016V27.1016C89.2031 26.8016 89.4031 26.6016 89.7031 26.6016Z" fill="#292667"/>
<path d="M103.9 26.6016H106.3C106.6 26.6016 106.8 26.8016 106.8 27.1016V41.1016C106.8 41.4016 106.6 41.6016 106.3 41.6016H104.7C104.4 41.6016 104.2 41.5016 104 41.3016L98.9 33.3016V41.1016C98.9 41.4016 98.7 41.6016 98.4 41.6016H96C95.7 41.6016 95.5 41.4016 95.5 41.1016V27.1016C95.5 26.8016 95.7 26.6016 96 26.6016H97.6C97.9 26.6016 98.1 26.7016 98.3 26.9016L103.4 34.9016V27.1016C103.4 26.8016 103.6 26.6016 103.9 26.6016Z" fill="#292667"/>
<path d="M118.102 26.6016H120.502C120.802 26.6016 121.002 26.8016 121.002 27.1016V41.1016C121.002 41.4016 120.802 41.6016 120.502 41.6016H118.802C118.502 41.6016 118.302 41.5016 118.102 41.3016L113.002 33.3016V41.1016C113.002 41.4016 112.802 41.6016 112.502 41.6016H110.102C109.802 41.6016 109.602 41.4016 109.602 41.1016V27.1016C109.602 26.8016 109.802 26.6016 110.102 26.6016H111.702C112.002 26.6016 112.202 26.7016 112.402 26.9016L117.502 34.9016V27.1016C117.502 26.8016 117.702 26.6016 118.102 26.6016Z" fill="#292667"/>
<path d="M123.102 34.0969C123.102 29.6969 126.602 26.2969 130.902 26.2969C135.202 26.2969 138.702 29.6969 138.702 34.0969C138.702 38.4969 135.202 41.8969 130.902 41.8969C126.602 41.8969 123.102 38.4969 123.102 34.0969ZM135.302 34.0969C135.302 31.3969 133.402 29.5969 130.902 29.5969C128.502 29.5969 126.502 31.3969 126.502 34.0969C126.502 36.7969 128.402 38.5969 130.902 38.5969C133.402 38.4969 135.302 36.7969 135.302 34.0969Z" fill="#292667"/>
<path d="M143.5 41.2016L139.1 27.2016C139 26.8016 139.2 26.6016 139.5 26.6016H142.1C142.4 26.6016 142.6 26.7016 142.7 27.1016L145.7 37.7016L148.7 27.1016C148.8 26.8016 149 26.6016 149.3 26.6016H151.9C152.3 26.6016 152.5 26.8016 152.3 27.2016L147.9 41.2016C147.8 41.5016 147.6 41.7016 147.3 41.7016H143.9C143.8 41.6016 143.6 41.5016 143.5 41.2016Z" fill="#292667"/>
<path d="M165.601 41.6H163.001C162.701 41.6 162.501 41.5 162.401 41.1L161.801 39.2H156.501L155.901 41.1C155.801 41.4 155.601 41.6 155.301 41.6H152.701C152.301 41.6 152.101 41.4 152.301 41L156.901 27C157.001 26.7 157.201 26.5 157.501 26.5H160.901C161.201 26.5 161.401 26.7 161.501 27L166.101 41C166.101 41.4 165.901 41.6 165.601 41.6ZM160.801 36L159.101 30.3L157.401 36H160.801Z" fill="#292667"/>
<path d="M175.903 27.0979V29.2979C175.903 29.5979 175.703 29.7979 175.403 29.7979H172.503V40.9979C172.503 41.2979 172.303 41.4979 172.003 41.4979H169.603C169.303 41.4979 169.103 41.2979 169.103 40.9979V29.8979H166.203C165.903 29.8979 165.703 29.6979 165.703 29.3979V27.1979C165.703 26.8979 165.903 26.6979 166.203 26.6979H172.503H175.403C175.703 26.5979 175.903 26.7979 175.903 27.0979Z" fill="#292667"/>
<path d="M178.102 26.6016H180.502C180.802 26.6016 181.002 26.8016 181.002 27.1016V41.1016C181.002 41.4016 180.802 41.6016 180.502 41.6016H178.102C177.802 41.6016 177.602 41.4016 177.602 41.1016V27.1016C177.602 26.8016 177.802 26.6016 178.102 26.6016Z" fill="#292667"/>
<path d="M183.203 34.0969C183.203 29.6969 186.703 26.2969 191.003 26.2969C195.303 26.2969 198.803 29.6969 198.803 34.0969C198.803 38.4969 195.303 41.8969 191.003 41.8969C186.703 41.8969 183.203 38.4969 183.203 34.0969ZM195.403 34.0969C195.403 31.3969 193.503 29.5969 191.003 29.5969C188.503 29.5969 186.603 31.3969 186.603 34.0969C186.603 36.7969 188.503 38.5969 191.003 38.5969C193.503 38.5969 195.403 36.7969 195.403 34.0969Z" fill="#292667"/>
<path d="M209.4 26.6016H211.8C212.1 26.6016 212.3 26.8016 212.3 27.1016V41.1016C212.3 41.4016 212.1 41.6016 211.8 41.6016H210.2C209.9 41.6016 209.7 41.5016 209.5 41.3016L204.4 33.3016V41.1016C204.4 41.4016 204.2 41.6016 203.9 41.6016H201.5C201.2 41.6016 201 41.4016 201 41.1016V27.1016C201 26.8016 201.2 26.6016 201.5 26.6016H203.1C203.4 26.6016 203.6 26.7016 203.8 26.9016L208.9 34.9016V27.1016C208.9 26.8016 209.1 26.6016 209.4 26.6016Z" fill="#292667"/>
<path d="M97.7008 52.3031H100.101C100.401 52.3031 100.601 52.5031 100.601 52.8031V66.7031C100.601 67.0031 100.401 67.2031 100.101 67.2031H98.5008C98.2008 67.2031 98.0008 67.1031 97.8008 66.9031L92.7008 58.9031V66.7031C92.7008 67.0031 92.5008 67.2031 92.2008 67.2031H89.8008C89.5008 67.2031 89.3008 67.0031 89.3008 66.7031V52.7031C89.3008 52.4031 89.5008 52.2031 89.8008 52.2031H91.4008C91.7008 52.2031 91.9008 52.3031 92.1008 52.5031L97.2008 60.5031V52.7031C97.2008 52.5031 97.4008 52.3031 97.7008 52.3031Z" fill="#292667"/>
<path d="M112.4 64.5969V66.7969C112.4 67.0969 112.2 67.2969 111.9 67.2969H104.5H104C103.7 67.2969 103.5 67.0969 103.5 66.7969V52.7969C103.5 52.4969 103.7 52.2969 104 52.2969H106.9H111.8C112.1 52.2969 112.3 52.4969 112.3 52.7969V54.9969C112.3 55.2969 112.1 55.4969 111.8 55.4969H106.8V57.9969H111.2C111.5 57.9969 111.7 58.1969 111.7 58.4969V60.6969C111.7 60.9969 111.5 61.1969 111.2 61.1969H106.8V63.8969H111.8C112.2 63.9969 112.4 64.1969 112.4 64.5969Z" fill="#292667"/>
<path d="M123.802 52.9005V55.1005C123.802 55.4005 123.602 55.6005 123.302 55.6005H120.402V66.8005C120.402 67.1005 120.202 67.3005 119.902 67.3005H117.502C117.202 67.3005 117.002 67.1005 117.002 66.8005V55.6005H114.102C113.802 55.6005 113.602 55.4005 113.602 55.1005V52.9005C113.602 52.6005 113.802 52.4005 114.102 52.4005H120.402H123.302C123.602 52.3005 123.802 52.5005 123.802 52.9005Z" fill="#292667"/>
<path d="M143.301 52.8969L139.501 66.8969C139.401 67.1969 139.201 67.2969 138.901 67.2969H136.101C135.801 67.2969 135.601 67.1969 135.501 66.8969L133.801 60.6969L132.101 66.8969C132.001 67.1969 131.801 67.2969 131.501 67.2969H128.801C128.501 67.2969 128.301 67.1969 128.201 66.8969L124.401 52.8969C124.301 52.4969 124.501 52.2969 124.801 52.2969H127.301C127.601 52.2969 127.801 52.4969 127.901 52.7969L130.401 62.7969L132.401 55.3969L131.701 52.8969C131.601 52.4969 131.801 52.2969 132.101 52.2969H134.201C134.501 52.2969 134.701 52.4969 134.801 52.7969L137.301 62.7969L139.801 52.7969C139.901 52.4969 140.101 52.2969 140.401 52.2969H142.901C143.301 52.2969 143.401 52.4969 143.301 52.8969Z" fill="#292667"/>
<path d="M143.703 59.8C143.703 55.4 147.203 52 151.503 52C155.803 52 159.303 55.4 159.303 59.8C159.303 64.2 155.803 67.6 151.503 67.6C147.203 67.6 143.703 64.3 143.703 59.8ZM155.903 59.8C155.903 57.1 154.003 55.3 151.503 55.3C149.003 55.3 147.103 57.1 147.103 59.8C147.103 62.5 149.003 64.3 151.503 64.3C154.003 64.3 155.903 62.5 155.903 59.8Z" fill="#292667"/>
<path d="M173.302 67.2969H170.502C170.202 67.2969 170.002 67.1969 169.802 66.9969L166.102 62.3969H164.802V66.7969C164.802 67.0969 164.602 67.2969 164.302 67.2969H161.902C161.602 67.2969 161.402 67.0969 161.402 66.7969V52.7969C161.402 52.4969 161.602 52.2969 161.902 52.2969H164.802H167.202C170.102 52.2969 172.302 54.5969 172.302 57.4969C172.302 59.2969 171.202 60.8969 169.602 61.7969L173.502 66.6969C173.902 66.9969 173.802 67.2969 173.302 67.2969ZM164.902 59.3969H167.302C168.202 59.3969 169.002 58.5969 169.002 57.4969C169.002 56.3969 168.202 55.5969 167.302 55.5969H164.902V59.3969Z" fill="#292667"/>
<path d="M186.601 67.2984H183.901C183.601 67.2984 183.401 67.1984 183.301 66.9984L178.701 60.3984V66.7984C178.701 67.0984 178.501 67.2984 178.201 67.2984H175.801C175.501 67.2984 175.301 67.0984 175.301 66.7984V52.8984C175.301 52.5984 175.501 52.3984 175.801 52.3984H178.201C178.501 52.3984 178.701 52.5984 178.701 52.8984V58.8984L183.101 52.6984C183.301 52.4984 183.501 52.3984 183.701 52.3984H186.401C186.801 52.3984 187.001 52.6984 186.701 52.9984L182.101 59.6984L186.901 66.7984C187.201 67.0984 187.001 67.2984 186.601 67.2984Z" fill="#292667"/>
<path d="M205.8 67.2984H203.1C202.8 67.2984 202.6 67.1984 202.5 66.9984L197.9 60.3984V66.7984C197.9 67.0984 197.7 67.2984 197.4 67.2984H195C194.7 67.2984 194.5 67.0984 194.5 66.7984V52.8984C194.5 52.5984 194.7 52.3984 195 52.3984H197.4C197.7 52.3984 197.9 52.5984 197.9 52.8984V58.8984L202.3 52.6984C202.5 52.4984 202.7 52.3984 202.9 52.3984H205.6C206 52.3984 206.2 52.6984 205.9 52.9984L201.3 59.6984L206.1 66.7984C206.4 67.0984 206.2 67.2984 205.8 67.2984Z" fill="#292667"/>
<path d="M217.103 64.5969V66.7969C217.103 67.0969 216.903 67.2969 216.603 67.2969H209.203H208.703C208.403 67.2969 208.203 67.0969 208.203 66.7969V52.7969C208.203 52.4969 208.403 52.2969 208.703 52.2969H211.603H216.503C216.803 52.2969 217.003 52.4969 217.003 52.7969V54.9969C217.003 55.2969 216.803 55.4969 216.503 55.4969H211.603V57.9969H216.003C216.303 57.9969 216.503 58.1969 216.503 58.4969V60.6969C216.503 60.9969 216.303 61.1969 216.003 61.1969H211.603V63.8969H216.603C216.903 63.9969 217.103 64.1969 217.103 64.5969Z" fill="#292667"/>
<path d="M231.101 67.2969H228.301C228.001 67.2969 227.801 67.1969 227.601 66.9969L223.901 62.3969H222.601V66.7969C222.601 67.0969 222.401 67.2969 222.101 67.2969H219.801C219.501 67.2969 219.301 67.0969 219.301 66.7969V52.7969C219.301 52.4969 219.501 52.2969 219.801 52.2969H222.701H225.101C228.001 52.2969 230.201 54.5969 230.201 57.4969C230.201 59.2969 229.101 60.8969 227.501 61.7969L231.401 66.6969C231.701 66.9969 231.501 67.2969 231.101 67.2969ZM222.701 59.3969H225.101C226.001 59.3969 226.801 58.5969 226.801 57.4969C226.801 56.3969 226.001 55.5969 225.101 55.5969H222.701V59.3969Z" fill="#292667"/>
<path d="M245.203 67.2969H242.603C242.303 67.2969 242.103 67.1969 242.003 66.8969L241.403 64.9969H236.103L235.503 66.8969C235.403 67.1969 235.203 67.2969 234.903 67.2969H232.303C231.903 67.2969 231.703 67.0969 231.803 66.6969L236.303 52.6969C236.403 52.3969 236.603 52.2969 236.903 52.2969H240.303C240.603 52.2969 240.803 52.4969 240.903 52.6969L245.403 66.6969C245.803 67.0969 245.603 67.2969 245.203 67.2969ZM240.503 61.7969L238.803 56.0969L237.103 61.7969H240.503Z" fill="#292667"/>
<path d="M255.902 64.5969V66.7969C255.902 67.0969 255.702 67.2969 255.402 67.2969H249.102H247.902C247.602 67.2969 247.402 67.0969 247.402 66.7969V52.7969C247.402 52.4969 247.602 52.2969 247.902 52.2969H250.302C250.602 52.2969 250.802 52.4969 250.802 52.7969V63.9969H255.402C255.802 63.9969 255.902 64.1969 255.902 64.5969Z" fill="#292667"/>
<path d="M269.902 67.2969H267.302C267.002 67.2969 266.802 67.1969 266.702 66.8969L266.102 64.9969H260.802L260.202 66.8969C260.102 67.1969 259.902 67.2969 259.602 67.2969H257.002C256.602 67.2969 256.402 67.0969 256.502 66.6969L261.002 52.6969C261.102 52.3969 261.302 52.2969 261.602 52.2969H265.002C265.302 52.2969 265.502 52.4969 265.602 52.6969L270.102 66.6969C270.502 67.0969 270.302 67.2969 269.902 67.2969ZM265.102 61.7969L263.402 56.0969L261.702 61.7969H265.102Z" fill="#292667"/>
<path d="M33.2023 61.3969H41.0023C41.4023 61.3969 41.8023 60.9969 41.8023 60.5969C41.8023 60.1969 41.4023 59.7969 41.0023 59.7969H33.2023C32.8023 59.7969 32.4023 60.1969 32.4023 60.5969C32.4023 60.9969 32.7023 61.3969 33.2023 61.3969Z" fill="#1B8DCD"/>
<path d="M41.0023 62.8984H33.2023C32.8023 62.8984 32.4023 63.2984 32.4023 63.6984C32.4023 64.0984 32.8023 64.4984 33.2023 64.4984H41.0023C41.4023 64.4984 41.8023 64.0984 41.8023 63.6984C41.8023 63.2984 41.4023 62.8984 41.0023 62.8984Z" fill="#1B8DCD"/>
<path d="M37.8023 66.0938H33.2023C32.8023 66.0938 32.4023 66.4938 32.4023 66.8938C32.4023 67.2938 32.8023 67.6937 33.2023 67.6937H37.8023C38.2023 67.6937 38.6023 67.2938 38.6023 66.8938C38.6023 66.3938 38.3023 66.0938 37.8023 66.0938Z" fill="#1B8DCD"/>
<path d="M41.0031 67.6937C41.445 67.6937 41.8031 67.3356 41.8031 66.8938C41.8031 66.4519 41.445 66.0938 41.0031 66.0938C40.5613 66.0938 40.2031 66.4519 40.2031 66.8938C40.2031 67.3356 40.5613 67.6937 41.0031 67.6937Z" fill="#1B8DCD"/>
<path d="M58.5004 12.6985C65.5004 18.1985 70.1004 26.0985 71.4004 34.9985C71.5004 35.6985 71.0004 36.2985 70.3004 36.4985C69.6004 36.5985 69.0004 36.0985 68.9004 35.3985C67.7004 27.1985 63.4004 19.8985 56.9004 14.6985C42.8004 3.59854 22.3004 5.99853 11.1004 20.0985C7.90037 24.0985 5.80036 28.6985 4.80036 33.5985C4.70036 34.2985 4.00036 34.6985 3.30036 34.5985C2.60036 34.4985 2.20036 33.7985 2.30036 33.0985C3.40036 27.6985 5.70037 22.7985 9.10037 18.4985C21.1004 3.29854 43.3004 0.698536 58.5004 12.6985Z" fill="#1B8DCD"/>
<path d="M0.400995 25.0006C0.100995 25.7006 0.400992 26.4006 1.10099 26.7006C1.80099 27.0006 2.50099 26.7006 2.80099 26.0006C4.10099 22.9006 5.801 20.0006 7.901 17.4006C17.201 5.50058 32.701 0.700577 47.201 5.00058C47.901 5.20058 48.601 4.80058 48.801 4.10058C49.001 3.60058 48.801 3.10058 48.401 2.70058C48.301 2.60058 48.101 2.50058 48.001 2.50058C32.401 -2.09942 15.901 3.10058 5.80099 15.9006C3.60099 18.7006 1.801 21.7006 0.400995 25.0006Z" fill="#1B8DCD"/>
<path d="M61.1021 9.40363C66.9021 14.0036 71.3021 20.1036 73.8021 27.0036C74.0021 27.7036 73.7021 28.4036 73.0021 28.6036C72.3021 28.8036 71.6021 28.5036 71.4021 27.8036C69.1021 21.3036 65.0021 15.6036 59.6021 11.3036C57.4021 9.60363 55.1021 8.10363 52.7021 7.00363C52.1021 6.70363 51.8021 5.90363 52.1021 5.30363C52.4021 4.70363 53.2021 4.40363 53.8021 4.70363C56.3021 6.00363 58.8021 7.60363 61.1021 9.40363Z" fill="#1B8DCD"/>
<path d="M55.8994 16.098C63.6994 22.298 68.0994 31.998 67.5994 41.998C67.5994 42.698 66.9994 43.198 66.2994 43.198C65.5994 43.198 65.0994 42.598 65.0994 41.898C65.5994 32.698 61.5994 23.798 54.3994 18.098C48.6994 13.598 41.5994 11.398 34.2994 12.098C33.5994 12.198 32.9994 11.598 32.8994 10.898C32.7994 10.198 33.2994 9.59798 34.0994 9.49798C41.8994 8.79798 49.5994 11.098 55.8994 16.098Z" fill="#1B8DCD"/>
<path d="M29.7999 10.7025C29.9999 10.9025 30.1999 11.1025 30.1999 11.4025C30.3999 12.1025 29.9999 12.8025 29.2999 13.0025C23.3999 14.6025 18.1999 18.0025 14.3999 22.8025C13.9999 23.3025 13.1999 23.4025 12.5999 23.0025C11.9999 22.6025 11.9999 21.8025 12.3999 21.2025C16.5999 16.0025 22.1999 12.2025 28.5999 10.5025C29.0999 10.3025 29.4999 10.4025 29.7999 10.7025Z" fill="#1B8DCD"/>
<path d="M11.4008 25.1988C11.9008 25.5988 12.0008 26.1988 11.7008 26.7988C9.50078 30.8988 8.30078 35.5988 8.30078 40.2988C8.30078 40.9988 7.70078 41.5988 7.00078 41.5988C6.30078 41.5988 5.80078 40.9988 5.80078 40.2988C5.80078 35.1988 7.10078 30.0988 9.50078 25.5988C9.80078 24.9988 10.6008 24.7988 11.2008 25.0988C11.3008 25.0988 11.4008 25.0988 11.4008 25.1988Z" fill="#1B8DCD"/>
<path d="M53.2024 19.4011C61.9024 26.3011 65.4024 37.5011 62.2024 48.1011C62.0024 48.8011 61.3024 49.2011 60.6024 48.9011C59.9024 48.7011 59.5024 48.0011 59.8024 47.3011C62.7024 37.7011 59.5024 27.5011 51.7024 21.3011C41.3024 13.0011 26.1024 14.8011 17.8024 25.3011C13.1024 31.2011 11.5024 38.8011 13.3024 46.1011C13.5024 46.8011 13.1024 47.5011 12.4024 47.6011C11.7024 47.7011 11.0024 47.4011 10.9024 46.7011C8.90239 38.6011 10.7024 30.3011 15.9024 23.8011C24.9024 12.2011 41.7024 10.2011 53.2024 19.4011Z" fill="#1B8DCD"/>
<path d="M54.1015 26.203C54.2015 26.303 54.3015 26.303 54.3015 26.403C60.4015 34.203 60.7015 45.203 55.0015 53.203C54.6015 53.803 53.8015 53.903 53.2015 53.503C52.6015 53.103 52.5015 52.303 52.9015 51.703C58.0015 44.603 57.7015 34.803 52.3015 27.903C51.9015 27.403 52.0015 26.603 52.5015 26.103C53.0015 25.803 53.7015 25.903 54.1015 26.203Z" fill="#1B8DCD"/>
<path d="M50.6021 22.6987C51.2021 23.0987 51.2021 23.8987 50.8021 24.4987C50.4021 25.0987 49.6021 25.0987 49.0021 24.6987C40.4021 17.8987 27.9021 19.3987 21.0021 27.9987C15.8021 34.5987 15.3021 43.7987 19.8021 50.8987C20.2021 51.4987 20.0021 52.2986 19.4021 52.6986C18.8021 53.0986 18.0021 52.8987 17.6021 52.2987C12.6021 44.2987 13.1021 33.8987 19.0021 26.3987C26.8021 16.6987 40.9021 14.9987 50.6021 22.6987Z" fill="#1B8DCD"/>
<path d="M31.7002 56.1023C31.7002 55.9023 31.7002 55.8022 31.7002 55.7022C31.7002 55.7022 31.7002 55.7023 31.7002 55.6023C31.7002 55.5023 31.6002 55.4023 31.5002 55.3023C31.5002 55.3023 31.3002 55.1023 31.3002 55.0023C31.3002 55.0023 31.3002 55.0023 31.2002 55.0023C31.1002 54.9023 31.0002 54.9023 30.9002 54.8023C29.5002 54.2023 28.2002 53.5023 27.0002 52.6023C22.3002 48.8023 20.1002 42.6023 21.5002 36.8023C21.6002 36.3023 21.4002 35.8023 21.0002 35.5023C20.9002 35.4023 20.7002 35.3023 20.5002 35.3023C19.8002 35.1023 19.1002 35.6023 19.0002 36.3023C17.4002 43.1023 19.9002 50.4022 25.4002 54.7022C26.8002 55.8022 28.3002 56.7023 29.9002 57.3023C30.5002 57.5023 31.1002 57.3023 31.4002 56.8023C31.5002 56.7023 31.5002 56.6023 31.5002 56.6023C31.6002 56.4023 31.6002 56.2023 31.7002 56.1023Z" fill="#1B8DCD"/>
<path d="M20.7003 31.5991C20.4003 32.1991 20.6003 32.9991 21.2003 33.2991C21.8003 33.5991 22.6003 33.3991 22.9003 32.7991C23.3003 31.9991 23.8003 31.2991 24.4003 30.5991C29.8003 23.7991 39.6003 22.6991 46.4003 27.9991C53.2003 33.2991 54.3003 43.1991 49.0003 49.9991C47.1003 52.3991 44.6003 54.0991 41.7003 55.0991C41.0003 55.2991 40.7003 55.9991 40.9003 56.6991C41.1003 57.3991 41.8003 57.6991 42.5003 57.4991C45.8003 56.3991 48.8003 54.2991 50.9003 51.5991C57.1003 43.6991 55.8003 32.2991 47.9003 25.9991C40.0003 19.6991 28.6003 21.0991 22.3003 28.9991C21.8003 29.7991 21.2003 30.6991 20.7003 31.5991Z" fill="#1B8DCD"/>
</svg>
