<?xml version="1.0" encoding="utf-8"?>
<!-- Generator: Adobe Illustrator 25.1.0, SVG Export Plug-In . SVG Version: 6.00 Build 0)  -->
<svg version="1.1" id="Layer_1" xmlns="http://www.w3.org/2000/svg" xmlns:xlink="http://www.w3.org/1999/xlink" x="0px" y="0px"
	 viewBox="0 0 468.8 109.3" style="enable-background:new 0 0 468.8 109.3;" xml:space="preserve">
<style type="text/css">
	.st0{fill:#292667;}
	.st1{fill:#1B8DCD;}
	.st2{fill:#00AEEF;}
	.st3{fill:#0B9444;}
	.st4{fill:#231F20;}
	.st5{fill:none;stroke:#292667;stroke-width:2;stroke-miterlimit:10;}
</style>
<g>
	<g>
		<g>
			<path class="st0" d="M272.2,37.8h-2.8c-0.3,0-0.5-0.1-0.7-0.3l-3.7-4.6h-1.3v4.4c0,0.3-0.2,0.5-0.5,0.5h-2.4
				c-0.3,0-0.5-0.2-0.5-0.5v-14c0-0.3,0.2-0.5,0.5-0.5h2.9h2.4c2.9,0,5.1,2.3,5.1,5.1c0,1.8-1.1,3.4-2.7,4.3l3.9,4.9
				C272.8,37.5,272.7,37.8,272.2,37.8z M263.8,29.9h2.4c0.9,0,1.7-0.8,1.7-1.9s-0.8-1.9-1.7-1.9h-2.4
				C263.8,26,263.8,29.9,263.8,29.9z"/>
			<path class="st0" d="M283.2,35.1v2.2c0,0.3-0.2,0.5-0.5,0.5h-7.4h-0.5c-0.3,0-0.5-0.2-0.5-0.5v-14c0-0.3,0.2-0.5,0.5-0.5h2.9h4.9
				c0.3,0,0.5,0.2,0.5,0.5v2.2c0,0.3-0.2,0.5-0.5,0.5h-4.9v2.5h4.4c0.3,0,0.5,0.2,0.5,0.5v2.1c0,0.3-0.2,0.5-0.5,0.5h-4.4v2.7h5
				C283,34.5,283.2,34.7,283.2,35.1z"/>
			<path class="st0" d="M284.5,33.7c0-0.4,0.2-0.6,0.5-0.6h2.4c0.3,0,0.5,0.2,0.6,0.5c0.2,0.8,0.8,1.2,2.1,1.2
				c1.4,0,1.9-0.5,1.9-1.2c0-0.9-1.1-1.3-2.4-1.7c-2.1-0.7-4.8-1.6-4.8-4.9c0-3,2.4-4.5,5-4.5c2.5,0,4.9,1.4,5.2,4.5
				c0,0.4-0.2,0.6-0.5,0.6h-2.4c-0.3,0-0.5-0.2-0.6-0.5c-0.2-0.8-0.7-1.2-1.7-1.2c-1.1,0-1.6,0.5-1.6,1.2c0,0.9,0.9,1.3,2.1,1.8
				c2.1,0.8,5.1,1.5,5.1,4.8c0,3-2.4,4.5-5.3,4.5S284.7,36.8,284.5,33.7z"/>
			<path class="st0" d="M306.2,35.1v2.2c0,0.3-0.2,0.5-0.5,0.5h-7.4h-0.5c-0.3,0-0.5-0.2-0.5-0.5v-14c0-0.3,0.2-0.5,0.5-0.5h2.9h4.9
				c0.3,0,0.5,0.2,0.5,0.5v2.2c0,0.3-0.2,0.5-0.5,0.5h-4.9v2.5h4.4c0.3,0,0.5,0.2,0.5,0.5v2.1c0,0.3-0.2,0.5-0.5,0.5h-4.4v2.7h5
				C306,34.5,306.2,34.7,306.2,35.1z"/>
			<path class="st0" d="M320.6,37.8H318c-0.3,0-0.5-0.1-0.6-0.5l-0.6-1.9h-5.3l-0.6,1.9c-0.1,0.3-0.3,0.5-0.6,0.5h-2.6
				c-0.4,0-0.6-0.2-0.4-0.6l4.6-14c0.1-0.3,0.3-0.5,0.6-0.5h3.4c0.3,0,0.5,0.1,0.6,0.5l4.6,14C321.2,37.6,321,37.8,320.6,37.8z
				 M315.9,32.3l-1.7-5.7l-1.7,5.7H315.9z"/>
			<path class="st0" d="M334.6,37.8h-2.8c-0.3,0-0.5-0.1-0.7-0.3l-3.7-4.6h-1.3v4.4c0,0.3-0.2,0.5-0.5,0.5h-2.4
				c-0.3,0-0.5-0.2-0.5-0.5v-14c0-0.3,0.2-0.5,0.5-0.5h2.9h2.4c2.9,0,5.1,2.3,5.1,5.1c0,1.8-1.1,3.4-2.7,4.3l3.9,4.9
				C335.2,37.5,335,37.8,334.6,37.8z M326.2,29.9h2.4c0.9,0,1.7-0.8,1.7-1.9s-0.8-1.9-1.7-1.9h-2.4V29.9z"/>
			<path class="st0" d="M335.2,30.3c0-4.4,3.3-7.8,7.8-7.8c3.4,0,6.4,2.1,7.2,5.3c0.1,0.4-0.1,0.6-0.5,0.6h-2.5
				c-0.3,0-0.5-0.1-0.6-0.4c-0.6-1.3-2-2.1-3.6-2.1c-2.7,0-4.4,1.8-4.4,4.5s1.7,4.5,4.4,4.5c1.6,0,3-0.8,3.6-2.1
				c0.1-0.3,0.3-0.4,0.6-0.4h2.5c0.4,0,0.6,0.2,0.5,0.6c-0.8,3.1-3.8,5.3-7.2,5.3C338.5,38.2,335.2,34.8,335.2,30.3z"/>
			<path class="st0" d="M363.2,23.4v14c0,0.3-0.2,0.5-0.5,0.5h-2.4c-0.3,0-0.5-0.2-0.5-0.5v-5.5h-4.3v5.5c0,0.3-0.2,0.5-0.5,0.5
				h-2.4c-0.3,0-0.5-0.2-0.5-0.5v-14c0-0.3,0.2-0.5,0.5-0.5h2.4c0.3,0,0.5,0.2,0.5,0.5v5.1h4.3v-5.1c0-0.3,0.2-0.5,0.5-0.5h2.4
				C363.1,22.8,363.2,23,363.2,23.4z"/>
			<path class="st0" d="M260.9,48.6h2.4c0.3,0,0.5,0.2,0.5,0.5v14c0,0.3-0.2,0.5-0.5,0.5h-2.4c-0.3,0-0.5-0.2-0.5-0.5v-14
				C260.4,48.8,260.6,48.6,260.9,48.6z"/>
			<path class="st0" d="M275.1,48.6h2.4c0.3,0,0.5,0.2,0.5,0.5v14c0,0.3-0.2,0.5-0.5,0.5h-1.6c-0.3,0-0.5-0.1-0.7-0.3l-5.1-8v7.8
				c0,0.3-0.2,0.5-0.5,0.5h-2.4c-0.3,0-0.5-0.2-0.5-0.5v-14c0-0.3,0.2-0.5,0.5-0.5h1.6c0.3,0,0.5,0.1,0.7,0.3l5.1,8v-7.8
				C274.6,48.8,274.8,48.6,275.1,48.6z"/>
			<path class="st0" d="M289.3,48.6h2.4c0.3,0,0.5,0.2,0.5,0.5v14c0,0.3-0.2,0.5-0.5,0.5H290c-0.3,0-0.5-0.1-0.7-0.3l-5.1-8v7.8
				c0,0.3-0.2,0.5-0.5,0.5h-2.4c-0.3,0-0.5-0.2-0.5-0.5v-14c0-0.3,0.2-0.5,0.5-0.5h1.6c0.3,0,0.5,0.1,0.7,0.3l5.1,8v-7.8
				C288.7,48.8,288.9,48.6,289.3,48.6z"/>
			<path class="st0" d="M294.3,56.1c0-4.4,3.5-7.8,7.8-7.8s7.8,3.4,7.8,7.8s-3.5,7.8-7.8,7.8C297.8,63.9,294.3,60.5,294.3,56.1z
				 M306.5,56.1c0-2.7-1.9-4.5-4.4-4.5c-2.4,0-4.4,1.8-4.4,4.5s1.9,4.5,4.4,4.5C304.6,60.5,306.5,58.8,306.5,56.1z"/>
			<path class="st0" d="M314.7,63.2l-4.4-14c-0.1-0.4,0.1-0.6,0.4-0.6h2.6c0.3,0,0.5,0.1,0.6,0.5l3,10.6l3-10.6
				c0.1-0.3,0.3-0.5,0.6-0.5h2.6c0.4,0,0.6,0.2,0.4,0.6l-4.4,14c-0.1,0.3-0.3,0.5-0.6,0.5h-3.4C315,63.6,314.8,63.5,314.7,63.2z"/>
			<path class="st0" d="M336.8,63.6h-2.6c-0.3,0-0.5-0.1-0.6-0.5l-0.6-1.9h-5.3l-0.6,1.9c-0.1,0.3-0.3,0.5-0.6,0.5h-2.6
				c-0.4,0-0.6-0.2-0.4-0.6l4.6-14c0.1-0.3,0.3-0.5,0.6-0.5h3.4c0.3,0,0.5,0.2,0.6,0.5l4.6,14C337.3,63.4,337.1,63.6,336.8,63.6z
				 M332,58l-1.7-5.7l-1.7,5.7H332z"/>
			<path class="st0" d="M347.1,49.1v2.2c0,0.3-0.2,0.5-0.5,0.5h-2.9V63c0,0.3-0.2,0.5-0.5,0.5h-2.4c-0.3,0-0.5-0.2-0.5-0.5V51.9
				h-2.9c-0.3,0-0.5-0.2-0.5-0.5v-2.2c0-0.3,0.2-0.5,0.5-0.5h6.3h2.9C346.9,48.6,347.1,48.8,347.1,49.1z"/>
			<path class="st0" d="M349.3,48.6h2.4c0.3,0,0.5,0.2,0.5,0.5v14c0,0.3-0.2,0.5-0.5,0.5h-2.4c-0.3,0-0.5-0.2-0.5-0.5v-14
				C348.8,48.8,349,48.6,349.3,48.6z"/>
			<path class="st0" d="M354.4,56.1c0-4.4,3.5-7.8,7.8-7.8c4.3,0,7.8,3.4,7.8,7.8s-3.5,7.8-7.8,7.8
				C357.9,63.9,354.4,60.5,354.4,56.1z M366.6,56.1c0-2.7-1.9-4.5-4.4-4.5s-4.4,1.8-4.4,4.5s1.9,4.5,4.4,4.5S366.6,58.8,366.6,56.1z
				"/>
			<path class="st0" d="M380.6,48.6h2.4c0.3,0,0.5,0.2,0.5,0.5v14c0,0.3-0.2,0.5-0.5,0.5h-1.6c-0.3,0-0.5-0.1-0.7-0.3l-5.1-8v7.8
				c0,0.3-0.2,0.5-0.5,0.5h-2.4c-0.3,0-0.5-0.2-0.5-0.5v-14c0-0.3,0.2-0.5,0.5-0.5h1.6c0.3,0,0.5,0.1,0.7,0.3l5.1,8v-7.8
				C380.1,48.8,380.3,48.6,380.6,48.6z"/>
			<path class="st0" d="M268.9,74.3h2.4c0.3,0,0.5,0.2,0.5,0.5v13.9c0,0.3-0.2,0.5-0.5,0.5h-1.6c-0.3,0-0.5-0.1-0.7-0.3l-5.1-8v7.8
				c0,0.3-0.2,0.5-0.5,0.5H261c-0.3,0-0.5-0.2-0.5-0.5v-14c0-0.3,0.2-0.5,0.5-0.5h1.6c0.3,0,0.5,0.1,0.7,0.3l5.1,8v-7.8
				C268.4,74.5,268.6,74.3,268.9,74.3z"/>
			<path class="st0" d="M283.6,86.6v2.2c0,0.3-0.2,0.5-0.5,0.5h-7.4h-0.5c-0.3,0-0.5-0.2-0.5-0.5v-14c0-0.3,0.2-0.5,0.5-0.5h2.9h4.9
				c0.3,0,0.5,0.2,0.5,0.5V77c0,0.3-0.2,0.5-0.5,0.5h-5V80h4.4c0.3,0,0.5,0.2,0.5,0.5v2.2c0,0.3-0.2,0.5-0.5,0.5H278v2.7h5
				C283.4,86,283.6,86.2,283.6,86.6z"/>
			<path class="st0" d="M295,74.9v2.2c0,0.3-0.2,0.5-0.5,0.5h-2.9v11.2c0,0.3-0.2,0.5-0.5,0.5h-2.4c-0.3,0-0.5-0.2-0.5-0.5V77.6
				h-2.9c-0.3,0-0.5-0.2-0.5-0.5v-2.2c0-0.3,0.2-0.5,0.5-0.5h6.3h2.9C294.8,74.3,295,74.5,295,74.9z"/>
			<path class="st0" d="M314.5,74.9l-3.8,14c-0.1,0.3-0.3,0.4-0.6,0.4h-2.8c-0.3,0-0.5-0.1-0.6-0.4l-1.7-6.2l-1.7,6.2
				c-0.1,0.3-0.3,0.4-0.6,0.4H300c-0.3,0-0.5-0.1-0.6-0.4l-3.8-14c-0.1-0.4,0.1-0.6,0.4-0.6h2.5c0.3,0,0.5,0.2,0.6,0.5l2.5,10l2-7.4
				l-0.7-2.5c-0.1-0.4,0.1-0.6,0.4-0.6h2.1c0.3,0,0.5,0.2,0.6,0.5l2.5,10l2.5-10c0.1-0.3,0.3-0.5,0.6-0.5h2.5
				C314.5,74.3,314.6,74.5,314.5,74.9z"/>
			<path class="st0" d="M314.9,81.8c0-4.4,3.5-7.8,7.8-7.8c4.3,0,7.8,3.4,7.8,7.8s-3.5,7.8-7.8,7.8
				C318.4,89.6,314.9,86.3,314.9,81.8z M327.1,81.8c0-2.7-1.9-4.5-4.4-4.5s-4.4,1.8-4.4,4.5s1.9,4.5,4.4,4.5S327.1,84.5,327.1,81.8z
				"/>
			<path class="st0" d="M344.5,89.3h-2.8c-0.3,0-0.5-0.1-0.7-0.3l-3.7-4.6H336v4.4c0,0.3-0.2,0.5-0.5,0.5h-2.4
				c-0.3,0-0.5-0.2-0.5-0.5v-14c0-0.3,0.2-0.5,0.5-0.5h2.9h2.4c2.9,0,5.1,2.3,5.1,5.2c0,1.8-1.1,3.4-2.7,4.3l3.9,4.9
				C345.1,89,345,89.3,344.5,89.3z M336.1,81.4h2.4c0.9,0,1.7-0.8,1.7-1.9s-0.8-1.9-1.7-1.9h-2.4V81.4z"/>
			<path class="st0" d="M357.8,89.3h-2.7c-0.3,0-0.5-0.1-0.6-0.3l-4.6-6.6v6.4c0,0.3-0.2,0.5-0.5,0.5H347c-0.3,0-0.5-0.2-0.5-0.5
				V74.9c0-0.3,0.2-0.5,0.5-0.5h2.4c0.3,0,0.5,0.2,0.5,0.5v6l4.4-6.2c0.2-0.2,0.4-0.3,0.6-0.3h2.7c0.4,0,0.6,0.3,0.3,0.6l-4.6,6.7
				l4.8,7.1C358.4,89.1,358.2,89.3,357.8,89.3z"/>
			<path class="st0" d="M377,89.3h-2.7c-0.3,0-0.5-0.1-0.6-0.3l-4.6-6.6v6.4c0,0.3-0.2,0.5-0.5,0.5h-2.4c-0.3,0-0.5-0.2-0.5-0.5
				V74.9c0-0.3,0.2-0.5,0.5-0.5h2.4c0.3,0,0.5,0.2,0.5,0.5v6l4.4-6.2c0.2-0.2,0.4-0.3,0.6-0.3h2.7c0.4,0,0.6,0.3,0.3,0.6l-4.6,6.7
				l4.8,7.1C377.6,89.1,377.4,89.3,377,89.3z"/>
			<path class="st0" d="M388.3,86.6v2.2c0,0.3-0.2,0.5-0.5,0.5h-7.4h-0.5c-0.3,0-0.5-0.2-0.5-0.5v-14c0-0.3,0.2-0.5,0.5-0.5h2.9h4.9
				c0.3,0,0.5,0.2,0.5,0.5V77c0,0.3-0.2,0.5-0.5,0.5h-4.9V80h4.4c0.3,0,0.5,0.2,0.5,0.5v2.2c0,0.3-0.2,0.5-0.5,0.5h-4.4v2.7h5
				C388.1,86,388.3,86.2,388.3,86.6z"/>
			<path class="st0" d="M402.3,89.3h-2.8c-0.3,0-0.5-0.1-0.7-0.3l-3.7-4.6h-1.3v4.4c0,0.3-0.2,0.5-0.5,0.5H391
				c-0.3,0-0.5-0.2-0.5-0.5v-14c0-0.3,0.2-0.5,0.5-0.5h2.9h2.4c2.9,0,5.1,2.3,5.1,5.2c0,1.8-1.1,3.4-2.7,4.3l3.9,4.9
				C402.9,89,402.7,89.3,402.3,89.3z M393.9,81.4h2.4c0.9,0,1.7-0.8,1.7-1.9s-0.8-1.9-1.7-1.9h-2.4V81.4z"/>
			<path class="st0" d="M416.4,89.3h-2.6c-0.3,0-0.5-0.1-0.6-0.4l-0.6-1.9h-5.3l-0.6,1.9c-0.1,0.3-0.3,0.4-0.6,0.4h-2.6
				c-0.4,0-0.6-0.2-0.5-0.6l4.5-14c0.1-0.3,0.3-0.4,0.6-0.4h3.4c0.3,0,0.5,0.2,0.6,0.4l4.5,14C417,89.1,416.8,89.3,416.4,89.3z
				 M411.7,83.8l-1.7-5.7l-1.7,5.7H411.7z"/>
			<path class="st0" d="M427.1,86.6v2.2c0,0.3-0.2,0.5-0.5,0.5h-6.3h-1.2c-0.3,0-0.5-0.2-0.5-0.5v-14c0-0.3,0.2-0.5,0.5-0.5h2.4
				c0.3,0,0.5,0.2,0.5,0.5V86h4.6C427,86,427.1,86.2,427.1,86.6z"/>
			<path class="st0" d="M441.1,89.3h-2.6c-0.3,0-0.5-0.1-0.6-0.4l-0.6-1.9H432l-0.6,1.9c-0.1,0.3-0.3,0.4-0.6,0.4h-2.6
				c-0.4,0-0.6-0.2-0.5-0.6l4.5-14c0.1-0.3,0.3-0.4,0.6-0.4h3.4c0.3,0,0.5,0.2,0.6,0.4l4.5,14C441.7,89.1,441.5,89.3,441.1,89.3z
				 M436.3,83.8l-1.7-5.7l-1.7,5.7H436.3z"/>
		</g>
	</g>
	<g>
		<g>
			<path class="st1" d="M204.4,83.4h7.8c0.4,0,0.8-0.4,0.8-0.8s-0.4-0.8-0.8-0.8h-7.8c-0.4,0-0.8,0.4-0.8,0.8S203.9,83.4,204.4,83.4
				z"/>
			<path class="st1" d="M212.2,84.9h-7.8c-0.4,0-0.8,0.4-0.8,0.8s0.4,0.8,0.8,0.8h7.8c0.4,0,0.8-0.4,0.8-0.8S212.6,84.9,212.2,84.9z
				"/>
			<path class="st1" d="M209,88.1h-4.6c-0.4,0-0.8,0.4-0.8,0.8s0.4,0.8,0.8,0.8h4.6c0.4,0,0.8-0.4,0.8-0.8
				C209.8,88.4,209.5,88.1,209,88.1z"/>
			<circle class="st1" cx="212.2" cy="88.9" r="0.8"/>
		</g>
		<g>
			<path class="st1" d="M229.7,34.7c7,5.5,11.6,13.4,12.9,22.3c0.1,0.7-0.4,1.3-1.1,1.5c-0.7,0.1-1.3-0.4-1.4-1.1
				c-1.2-8.2-5.5-15.5-12-20.7c-14.1-11.1-34.6-8.7-45.8,5.4c-3.2,4-5.3,8.6-6.3,13.5c-0.1,0.7-0.8,1.1-1.5,1s-1.1-0.8-1-1.5
				c1.1-5.4,3.4-10.3,6.8-14.6C192.3,25.3,214.5,22.7,229.7,34.7z"/>
			<path class="st1" d="M171.6,47c-0.3,0.7,0,1.4,0.7,1.7s1.4,0,1.7-0.7c1.3-3.1,3-6,5.1-8.6c9.3-11.9,24.8-16.7,39.3-12.4
				c0.7,0.2,1.4-0.2,1.6-0.9c0.2-0.5,0-1-0.4-1.4c-0.1-0.1-0.3-0.2-0.4-0.2c-15.6-4.6-32.1,0.6-42.2,13.4
				C174.8,40.7,173,43.7,171.6,47z"/>
			<path class="st1" d="M232.3,31.4C238.1,36,242.5,42.1,245,49c0.2,0.7-0.1,1.4-0.8,1.6s-1.4-0.1-1.6-0.8
				c-2.3-6.5-6.4-12.2-11.8-16.5c-2.2-1.7-4.5-3.2-6.9-4.3c-0.6-0.3-0.9-1.1-0.6-1.7c0.3-0.6,1.1-0.9,1.7-0.6
				C227.5,28,230,29.6,232.3,31.4z"/>
			<path class="st1" d="M227.1,38.1c7.8,6.2,12.2,15.9,11.7,25.9c0,0.7-0.6,1.2-1.3,1.2c-0.7,0-1.2-0.6-1.2-1.3
				c0.5-9.2-3.5-18.1-10.7-23.8c-5.7-4.5-12.8-6.7-20.1-6c-0.7,0.1-1.3-0.5-1.4-1.2c-0.1-0.7,0.4-1.3,1.2-1.4
				C213.1,30.8,220.8,33.1,227.1,38.1z"/>
			<path class="st1" d="M201,32.7c0.2,0.2,0.4,0.4,0.4,0.7c0.2,0.7-0.2,1.4-0.9,1.6c-5.9,1.6-11.1,5-14.9,9.8
				c-0.4,0.5-1.2,0.6-1.8,0.2c-0.6-0.4-0.6-1.2-0.2-1.8c4.2-5.2,9.8-9,16.2-10.7C200.3,32.3,200.7,32.4,201,32.7z"/>
			<path class="st1" d="M182.6,47.2c0.5,0.4,0.6,1,0.3,1.6c-2.2,4.1-3.4,8.8-3.4,13.5c0,0.7-0.6,1.3-1.3,1.3S177,63,177,62.3
				c0-5.1,1.3-10.2,3.7-14.7c0.3-0.6,1.1-0.8,1.7-0.5C182.5,47.1,182.6,47.1,182.6,47.2z"/>
			<path class="st1" d="M224.4,41.4c8.7,6.9,12.2,18.1,9,28.7c-0.2,0.7-0.9,1.1-1.6,0.8c-0.7-0.2-1.1-0.9-0.8-1.6
				c2.9-9.6-0.3-19.8-8.1-26c-10.4-8.3-25.6-6.5-33.9,4c-4.7,5.9-6.3,13.5-4.5,20.8c0.2,0.7-0.2,1.4-0.9,1.5
				c-0.7,0.1-1.4-0.2-1.5-0.9c-2-8.1-0.2-16.4,5-22.9C196.1,34.2,212.9,32.2,224.4,41.4z"/>
			<path class="st1" d="M225.3,48.2c0.1,0.1,0.2,0.1,0.2,0.2c6.1,7.8,6.4,18.8,0.7,26.8c-0.4,0.6-1.2,0.7-1.8,0.3
				c-0.6-0.4-0.7-1.2-0.3-1.8c5.1-7.1,4.8-16.9-0.6-23.8c-0.4-0.5-0.3-1.3,0.2-1.8C224.2,47.8,224.9,47.9,225.3,48.2z"/>
			<path class="st1" d="M221.8,44.7c0.6,0.4,0.6,1.2,0.2,1.8s-1.2,0.6-1.8,0.2c-8.6-6.8-21.1-5.3-28,3.3c-5.2,6.6-5.7,15.8-1.2,22.9
				c0.4,0.6,0.2,1.4-0.4,1.8c-0.6,0.4-1.4,0.2-1.8-0.4c-5-8-4.5-18.4,1.4-25.9C198,38.7,212.1,37,221.8,44.7z"/>
			<path class="st1" d="M202.9,78.1L202.9,78.1c0-0.2,0-0.3,0-0.4c0,0,0,0,0-0.1s-0.1-0.2-0.2-0.3c0,0-0.2-0.2-0.2-0.3
				c0,0,0,0-0.1,0c-0.1-0.1-0.2-0.1-0.3-0.2c-1.4-0.6-2.7-1.3-3.9-2.2c-4.7-3.8-6.9-10-5.5-15.8c0.1-0.5-0.1-1-0.5-1.3
				c-0.1-0.1-0.3-0.2-0.5-0.2c-0.7-0.2-1.4,0.3-1.5,1c-1.6,6.8,0.9,14.1,6.4,18.4c1.4,1.1,2.9,2,4.5,2.6c0.6,0.2,1.2,0,1.5-0.5
				c0.1-0.1,0.1-0.2,0.1-0.2C202.8,78.4,202.8,78.2,202.9,78.1z"/>
			<path class="st1" d="M191.9,53.6c-0.3,0.6-0.1,1.4,0.5,1.7c0.6,0.3,1.4,0.1,1.7-0.5c0.4-0.8,0.9-1.5,1.5-2.2
				c5.4-6.8,15.2-7.9,22-2.6s7.9,15.2,2.6,22c-1.9,2.4-4.4,4.1-7.3,5.1c-0.7,0.2-1,0.9-0.8,1.6c0.2,0.7,0.9,1,1.6,0.8
				c3.3-1.1,6.3-3.2,8.4-5.9c6.2-7.9,4.9-19.3-3-25.6c-7.9-6.3-19.3-4.9-25.6,3C193,51.8,192.4,52.7,191.9,53.6z"/>
		</g>
	</g>
</g>
<g>
	<g>
		<g>
			<polygon class="st2" points="78,39.8 70.9,43.9 69.8,38 76.6,32.4 			"/>
		</g>
		<g>
			<polygon class="st2" points="91.5,31.6 84.6,35.5 83.1,26.4 89.9,20.9 			"/>
		</g>
		<g>
			<polygon class="st2" points="100.3,39.4 93,41.9 91.5,31.6 98.4,27.8 			"/>
		</g>
		<g>
			<polygon class="st2" points="109.5,50 101.9,50.7 100.3,38.8 107.6,37.1 			"/>
		</g>
		<g>
			<polygon class="st2" points="94.9,51.7 87.6,53.2 86.2,44.3 93.3,41.3 			"/>
		</g>
		<g>
			<polygon class="st2" points="103.9,62.3 96.4,62.1 94.8,51.6 102.2,50.4 			"/>
		</g>
		<g>
			<polygon class="st2" points="86.2,44.4 79.2,47.2 77.9,39.7 84.8,35.4 			"/>
		</g>
		<g>
			<polygon class="st2" points="80.6,54.8 73.3,56.1 72.1,50.1 79.3,47.3 			"/>
		</g>
		<g>
			<polygon class="st2" points="89.2,62.2 81.8,62.2 80.5,54.6 87.7,53.2 			"/>
		</g>
		<g>
			<polygon class="st2" points="74.6,62.1 67.1,61.8 66,57 73.3,56 			"/>
		</g>
		<g>
			<polygon class="st2" points="72.3,50.1 65.1,52.6 63.9,47.7 71,44 			"/>
		</g>
		<g>
			<polygon class="st2" points="66.1,57.2 58.8,57.7 57.8,54.1 65.1,52.6 			"/>
		</g>
	</g>
	<g>
		<g>
			<path class="st3" d="M51.8,66.6h1.6v3.3h0c0.2-0.3,0.3-0.5,0.5-0.8l1.7-2.4h2l-2.4,3.1l2.6,4.2h-1.9l-1.8-3.2l-0.6,0.8V74h-1.6
				C51.8,74,51.8,66.6,51.8,66.6z"/>
		</g>
		<g>
			<path class="st3" d="M68.7,70.9H66v1.7h3V74h-4.7v-7.4h4.5V68H66v1.5h2.7V70.9z"/>
		</g>
		<g>
			<path class="st3" d="M75.9,66.7c0.5-0.1,1.3-0.2,2.2-0.2c1.1,0,1.9,0.2,2.4,0.6c0.4,0.3,0.7,0.9,0.7,1.5c0,0.9-0.7,1.6-1.3,1.8v0
				c0.5,0.2,0.8,0.7,1,1.4c0.2,0.8,0.5,1.8,0.6,2.1h-1.7c-0.1-0.2-0.3-0.8-0.5-1.7c-0.2-0.9-0.5-1.2-1.2-1.2h-0.5V74h-1.6
				C75.9,74,75.9,66.7,75.9,66.7z M77.6,69.9h0.7c0.8,0,1.3-0.4,1.3-1.1c0-0.7-0.5-1-1.2-1c-0.4,0-0.6,0-0.8,0.1V69.9z"/>
		</g>
		<g>
			<path class="st3" d="M90,72.1L89.5,74h-1.7l2.2-7.4h2.2l2.3,7.4h-1.8l-0.6-1.9H90z M91.9,70.9l-0.5-1.6c-0.1-0.4-0.3-1-0.4-1.4h0
				c-0.1,0.4-0.2,1-0.3,1.4l-0.4,1.6H91.9z"/>
		</g>
		<g>
			<path class="st3" d="M101.3,66.6h1.7v6h2.9V74h-4.6C101.3,74,101.3,66.6,101.3,66.6z"/>
		</g>
		<g>
			<path class="st3" d="M114.4,72.1l-0.5,1.9h-1.7l2.2-7.4h2.2l2.3,7.4h-1.8l-0.6-1.9H114.4z M116.3,70.9l-0.5-1.6
				c-0.1-0.4-0.3-1-0.4-1.4h0c-0.1,0.4-0.2,1-0.3,1.4l-0.4,1.6H116.3z"/>
		</g>
	</g>
	<g>
		<g>
			<g>
				<path class="st4" d="M29.1,86.4c0.6,0.3,1.5,0.6,2.4,0.6c1,0,1.5-0.4,1.5-1c0-0.6-0.5-0.9-1.6-1.3c-1.6-0.6-2.6-1.4-2.6-2.8
					c0-1.6,1.4-2.9,3.6-2.9c1.1,0,1.9,0.2,2.4,0.5l-0.5,1.7c-0.4-0.2-1.1-0.5-2-0.5c-0.9,0-1.4,0.4-1.4,0.9c0,0.6,0.5,0.9,1.8,1.3
					c1.7,0.6,2.5,1.5,2.5,2.8c0,1.6-1.2,3-3.8,3c-1.1,0-2.2-0.3-2.7-0.6L29.1,86.4z"/>
			</g>
			<g>
				<path class="st4" d="M38.4,80.9h-2.6v-1.8h7.3v1.8h-2.6v7.7h-2.2C38.4,88.6,38.4,80.9,38.4,80.9z"/>
			</g>
			<g>
				<path class="st4" d="M45.3,86.2l-0.7,2.4h-2.2l2.9-9.5h2.8l3,9.5h-2.3l-0.7-2.4H45.3z M47.8,84.6l-0.6-2
					c-0.2-0.6-0.3-1.3-0.5-1.8h0c-0.1,0.6-0.3,1.3-0.4,1.8l-0.6,2H47.8z"/>
			</g>
			<g>
				<path class="st4" d="M52.2,79.2c0.7-0.1,1.7-0.2,2.9-0.2c1.4,0,2.4,0.2,3.1,0.8c0.6,0.5,0.9,1.1,0.9,2c0,1.2-0.9,2.1-1.7,2.3v0
					c0.7,0.3,1,0.9,1.3,1.8c0.3,1.1,0.6,2.3,0.8,2.7h-2.2c-0.2-0.3-0.4-1-0.7-2.2c-0.3-1.2-0.7-1.5-1.5-1.5h-0.7v3.7h-2.1
					C52.2,88.6,52.2,79.2,52.2,79.2z M54.4,83.3h0.8c1.1,0,1.7-0.5,1.7-1.4c0-0.9-0.6-1.3-1.6-1.3c-0.5,0-0.8,0-1,0.1
					C54.4,80.7,54.4,83.3,54.4,83.3z"/>
			</g>
			<g>
				<path class="st4" d="M62.3,80.9h-2.6v-1.8h7.3v1.8h-2.6v7.7h-2.2V80.9z"/>
			</g>
			<g>
				<path class="st4" d="M70.2,79.1v5.5c0,1.6,0.6,2.5,1.7,2.5c1.1,0,1.8-0.8,1.8-2.5v-5.5h2.2v5.3c0,2.9-1.5,4.3-4,4.3
					c-2.4,0-3.8-1.3-3.8-4.4v-5.3C68.1,79.1,70.2,79.1,70.2,79.1z"/>
			</g>
			<g>
				<path class="st4" d="M77.6,79.2c0.7-0.1,1.6-0.2,2.9-0.2c1.3,0,2.3,0.3,2.9,0.8c0.6,0.5,1,1.3,1,2.2c0,0.9-0.3,1.7-0.9,2.3
					c-0.7,0.7-1.8,1-3.1,1c-0.3,0-0.5,0-0.7,0v3.4h-2.1L77.6,79.2L77.6,79.2z M79.7,83.6c0.2,0,0.4,0.1,0.7,0.1
					c1.1,0,1.9-0.6,1.9-1.6c0-0.9-0.6-1.4-1.7-1.4c-0.4,0-0.7,0-0.9,0.1V83.6z"/>
			</g>
			<g>
				<path class="st4" d="M96.4,85c0-1.1-0.1-2.5-0.1-3.9h0c-0.3,1.2-0.7,2.6-1.1,3.7L94,88.5h-1.7l-1-3.7c-0.3-1.1-0.6-2.5-0.9-3.7
					h0c-0.1,1.3-0.1,2.8-0.2,3.9l-0.2,3.6h-2l0.6-9.5h2.9l0.9,3.2c0.3,1.1,0.6,2.3,0.8,3.4h0c0.3-1.1,0.6-2.4,0.9-3.4l1-3.2h2.8
					l0.5,9.5h-2.1L96.4,85z"/>
			</g>
			<g>
				<path class="st4" d="M102.3,79.1v9.5h-2.2v-9.5H102.3z"/>
			</g>
			<g>
				<path class="st4" d="M104.1,86.4c0.6,0.3,1.5,0.6,2.4,0.6c1,0,1.5-0.4,1.5-1c0-0.6-0.5-0.9-1.6-1.3c-1.6-0.6-2.6-1.4-2.6-2.8
					c0-1.6,1.4-2.9,3.6-2.9c1.1,0,1.9,0.2,2.4,0.5l-0.5,1.7c-0.4-0.2-1.1-0.5-2-0.5c-0.9,0-1.4,0.4-1.4,0.9c0,0.6,0.5,0.9,1.8,1.3
					c1.7,0.6,2.5,1.5,2.5,2.8c0,1.6-1.2,3-3.8,3c-1.1,0-2.2-0.3-2.7-0.6L104.1,86.4z"/>
			</g>
			<g>
				<path class="st4" d="M111.6,86.4c0.6,0.3,1.5,0.6,2.4,0.6c1,0,1.5-0.4,1.5-1c0-0.6-0.5-0.9-1.6-1.3c-1.6-0.6-2.6-1.4-2.6-2.8
					c0-1.6,1.4-2.9,3.6-2.9c1.1,0,1.9,0.2,2.4,0.5l-0.5,1.7c-0.4-0.2-1.1-0.5-2-0.5s-1.4,0.4-1.4,0.9c0,0.6,0.5,0.9,1.8,1.3
					c1.7,0.6,2.5,1.5,2.5,2.8c0,1.6-1.2,3-3.8,3c-1.1,0-2.2-0.3-2.7-0.6L111.6,86.4z"/>
			</g>
			<g>
				<path class="st4" d="M121.1,79.1v9.5H119v-9.5H121.1z"/>
			</g>
			<g>
				<path class="st4" d="M131.6,83.8c0,3.1-1.9,5-4.7,5c-2.8,0-4.5-2.1-4.5-4.9c0-2.9,1.8-5,4.6-5C130,79,131.6,81.1,131.6,83.8z
					 M124.7,83.9c0,1.9,0.9,3.2,2.3,3.2c1.5,0,2.3-1.4,2.3-3.2c0-1.7-0.8-3.2-2.3-3.2C125.5,80.7,124.7,82.1,124.7,83.9z"/>
			</g>
			<g>
				<path class="st4" d="M132.8,88.6v-9.5h2.5l2,3.5c0.6,1,1.1,2.2,1.6,3.3h0c-0.1-1.3-0.2-2.5-0.2-4v-2.8h2v9.5h-2.3l-2-3.7
					c-0.6-1-1.2-2.2-1.7-3.4l0,0c0.1,1.3,0.1,2.6,0.1,4.2v2.9H132.8z"/>
			</g>
		</g>
	</g>
</g>
<g>
	<g>
		<path d="M146.1,85.7c-1.9,0-3.5-1.6-3.5-3.5s1.6-3.5,3.5-3.5s3.5,1.6,3.5,3.5S148.1,85.7,146.1,85.7z M146.1,79.2
			c-1.6,0-3,1.3-3,3s1.3,3,3,3s3-1.3,3-3S147.8,79.2,146.1,79.2z"/>
	</g>
	<g>
		<g>
			<path d="M145,84v-3.2h1.4c0.3,0,0.5,0,0.7,0.1c0.1,0.1,0.3,0.2,0.4,0.3s0.1,0.3,0.1,0.5c0,0.2-0.1,0.4-0.2,0.6s-0.4,0.3-0.7,0.3
				c0.1,0.1,0.2,0.1,0.3,0.2c0.1,0.1,0.2,0.3,0.4,0.4l0.6,0.9h-0.5l-0.4-0.7c-0.1-0.2-0.2-0.3-0.3-0.4c-0.1-0.1-0.2-0.2-0.2-0.2
				c-0.1,0-0.1-0.1-0.2-0.1c0,0-0.1,0-0.2,0h-0.5V84L145,84L145,84z M145.4,82.1h0.9c0.2,0,0.3,0,0.5-0.1c0.1,0,0.2-0.1,0.3-0.2
				c0.1-0.1,0.1-0.2,0.1-0.3c0-0.2-0.1-0.3-0.2-0.4c-0.1-0.1-0.3-0.1-0.5-0.1h-1V82.1z"/>
		</g>
	</g>
</g>
<line class="st5" x1="161" y1="20.9" x2="161" y2="89.7"/>
</svg>
