<svg width="1062" height="485" viewBox="0 0 1062 485" fill="none" xmlns="http://www.w3.org/2000/svg">
<path d="M23.5606 207.458C23.5106 207.108 23.6406 206.738 23.5606 206.458L25.5606 204.458C25.9706 204.828 27.8106 205.968 28.5606 206.458C32.0206 210.668 27.3006 221.438 33.5606 223.458C33.6706 223.768 33.4406 224.198 33.5606 224.458L34.5606 225.458C34.7006 225.698 35.2506 226.088 35.5606 226.458C35.7106 226.638 35.2006 227.968 35.6606 228.318C37.5606 229.738 46.5206 229.428 49.2106 228.068C49.5706 227.888 54.4806 222.538 54.6706 222.078C56.5106 217.608 54.7406 213.048 55.5806 209.158C55.6306 208.928 57.8006 206.498 58.5606 205.458C62.2306 200.418 67.5906 196.158 68.5606 189.458C84.4806 193.738 86.3606 218.708 77.9706 230.368C65.6606 247.498 41.9506 248.228 29.1206 231.388C21.5106 221.398 25.0406 217.728 23.5506 207.458H23.5606ZM74.5606 214.458C77.0306 211.958 67.0206 201.988 64.5706 204.468C62.1206 206.948 72.1106 216.938 74.5606 214.458Z" fill="#F7E17F" style="fill:#F7E17F;fill:color(display-p3 0.9686 0.8824 0.4980);fill-opacity:1;"/>
<path d="M68.5618 189.458C67.5918 196.158 62.2318 200.418 58.5618 205.458C51.5518 205.978 55.5218 213.448 54.5118 218.908C52.9118 227.558 42.6218 228.938 35.5618 226.458C35.2518 226.088 34.7018 225.698 34.5618 225.458C34.3218 225.048 33.7018 224.748 33.5618 224.458C33.4418 224.198 33.6718 223.768 33.5618 223.458C33.0118 221.938 31.8618 220.778 31.6218 218.908C31.2118 215.648 32.2618 210.738 31.4218 208.078C30.8318 206.238 29.1518 206.848 28.5618 206.458C27.8118 205.968 25.9718 204.828 25.5618 204.458C17.4418 197.068 14.5818 185.838 18.0918 175.488C27.7418 147.058 73.5018 155.198 68.5618 189.458ZM27.5618 198.458C29.3818 200.328 31.6318 202.658 34.2718 203.248C37.0518 203.878 49.1218 203.898 51.8218 203.218C58.3818 201.548 63.2318 191.738 63.5618 185.458C64.8118 161.588 33.2818 155.118 23.8318 175.228C19.9818 183.408 21.2218 191.948 27.5618 198.458ZM49.5618 208.458C49.0718 207.958 37.6818 208.828 35.5618 208.458C32.8218 213.868 48.9818 213.058 49.5618 212.458C49.7018 212.318 49.6918 208.608 49.5618 208.458ZM49.5618 216.458H35.5618C36.7718 225.388 49.4018 226.298 49.5618 216.458Z" fill="#191D63" style="fill:#191D63;fill:color(display-p3 0.0980 0.1137 0.3882);fill-opacity:1;"/>
<path d="M74.5618 152.468C77.1618 155.158 67.3218 167.868 64.0018 161.468C62.7518 159.058 70.7818 150.488 74.5618 152.468Z" fill="#1A216C" style="fill:#1A216C;fill:color(display-p3 0.1020 0.1294 0.4235);fill-opacity:1;"/>
<path d="M14.1121 157.888C13.8821 157.548 12.7721 157.548 12.5921 156.748C10.9521 149.598 16.9621 151.928 20.5321 155.998C27.0221 163.398 19.9421 166.558 14.1121 157.888Z" fill="#1A216C" style="fill:#1A216C;fill:color(display-p3 0.1020 0.1294 0.4235);fill-opacity:1;"/>
<path d="M45.431 140.607C46.621 141.337 48.821 155.257 42.201 153.507C39.651 152.837 39.121 136.707 45.431 140.607Z" fill="#191D63" style="fill:#191D63;fill:color(display-p3 0.0980 0.1137 0.3882);fill-opacity:1;"/>
<path d="M0.66155 181.558C1.90155 179.678 15.2315 179.508 13.5515 184.958C12.6715 187.808 -3.41845 187.708 0.66155 181.558Z" fill="#191D63" style="fill:#191D63;fill:color(display-p3 0.0980 0.1137 0.3882);fill-opacity:1;"/>
<path d="M23.5619 206.458C23.6419 206.738 23.5119 207.108 23.5619 207.458C21.4019 211.028 11.5819 220.678 12.4619 210.948C12.5519 209.938 20.2219 203.468 21.0919 203.558C21.2919 203.578 23.4819 206.178 23.5719 206.458H23.5619Z" fill="#1A216C" style="fill:#1A216C;fill:color(display-p3 0.1020 0.1294 0.4235);fill-opacity:1;"/>
<path d="M86.5118 181.517C87.2118 182.367 86.6717 185.757 84.9217 186.317C83.1717 186.877 74.2218 187.017 73.5718 184.947C71.9018 179.647 85.2818 180.007 86.5118 181.507V181.517Z" fill="#191D63" style="fill:#191D63;fill:color(display-p3 0.0980 0.1137 0.3882);fill-opacity:1;"/>
<path d="M74.5624 214.458C72.1124 216.938 62.1024 206.968 64.5724 204.468C67.0424 201.968 77.0324 211.958 74.5624 214.458Z" fill="#2B2E41" style="fill:#2B2E41;fill:color(display-p3 0.1686 0.1804 0.2549);fill-opacity:1;"/>
<path d="M33.5625 223.458C27.3025 221.438 32.0225 210.668 28.5625 206.458C29.1525 206.848 30.8325 206.238 31.4225 208.078C32.2725 210.738 31.2225 215.648 31.6225 218.908C31.8525 220.778 33.0025 221.938 33.5625 223.458Z" fill="#B2B6B7" style="fill:#B2B6B7;fill:color(display-p3 0.6980 0.7137 0.7176);fill-opacity:1;"/>
<path d="M58.5619 205.458C57.8019 206.498 55.6319 208.928 55.5819 209.158C54.7319 213.048 56.5019 217.608 54.6719 222.078C54.4819 222.528 49.5719 227.888 49.2119 228.068C46.5219 229.428 37.5719 229.738 35.6619 228.318C35.2019 227.968 35.7119 226.638 35.5619 226.458C42.6219 228.948 52.9219 227.558 54.5119 218.908C55.5219 213.448 51.5519 205.978 58.5619 205.458Z" fill="#B2B6B7" style="fill:#B2B6B7;fill:color(display-p3 0.6980 0.7137 0.7176);fill-opacity:1;"/>
<path d="M34.5625 225.458L33.5625 224.458C33.7025 224.748 34.3225 225.048 34.5625 225.458Z" fill="#B2B6B7" style="fill:#B2B6B7;fill:color(display-p3 0.6980 0.7137 0.7176);fill-opacity:1;"/>
<path d="M63.562 185.458C49.252 181.668 35.532 186.098 27.562 198.458C21.222 191.948 19.982 183.408 23.832 175.228C33.282 155.118 64.812 161.588 63.562 185.458ZM44.422 167.588C43.182 166.798 37.982 168.138 36.362 168.768C29.292 171.518 25.282 179.058 26.562 186.468C32.442 187.858 30.372 182.808 32.352 178.748C35.572 172.128 43.892 173.098 45.132 171.498C45.802 170.638 44.782 167.818 44.422 167.588Z" fill="#F3F5F8" style="fill:#F3F5F8;fill:color(display-p3 0.9529 0.9608 0.9725);fill-opacity:1;"/>
<path d="M63.5625 185.457C63.2325 191.737 58.3825 201.537 51.8225 203.217C49.1325 203.907 37.0625 203.877 34.2725 203.247C31.6325 202.657 29.3825 200.327 27.5625 198.457C35.5325 186.097 49.2525 181.667 63.5625 185.457Z" fill="#F7E17F" style="fill:#F7E17F;fill:color(display-p3 0.9686 0.8824 0.4980);fill-opacity:1;"/>
<path d="M49.5625 216.458C49.4025 226.298 36.7725 225.388 35.5625 216.458H49.5625Z" fill="#F7E17F" style="fill:#F7E17F;fill:color(display-p3 0.9686 0.8824 0.4980);fill-opacity:1;"/>
<path d="M49.5606 208.457C49.7006 208.597 49.7006 212.307 49.5606 212.457C48.9806 213.067 32.8206 213.867 35.5606 208.457C37.6806 208.827 49.0706 207.957 49.5606 208.457Z" fill="#F7E17F" style="fill:#F7E17F;fill:color(display-p3 0.9686 0.8824 0.4980);fill-opacity:1;"/>
<path d="M44.4215 167.588C44.7815 167.818 45.8015 170.638 45.1315 171.498C43.8815 173.098 35.5715 172.128 32.3515 178.748C30.3815 182.808 32.4515 187.848 26.5615 186.468C25.2715 179.058 29.2915 171.508 36.3615 168.768C37.9815 168.138 43.1815 166.798 44.4215 167.588Z" fill="#1A216C" style="fill:#1A216C;fill:color(display-p3 0.1020 0.1294 0.4235);fill-opacity:1;"/>
<path d="M821.991 413.662C822.204 424.971 831.881 423.356 826.917 412.808C848.697 411.106 862.825 430.682 856.473 451.369C850.995 469.196 828.087 476.919 812.467 467.071C807.317 463.822 803.141 455.533 798.576 454.254L805.483 453.057L804.628 448.121C803.031 448.509 801.258 448.532 799.691 448.976L798.155 440.108C805.847 438.167 802.542 437.075 799.916 432.699C802.997 425.639 807.385 418.222 814.865 415.119C817.157 414.174 819.629 414.203 821.989 413.652L821.991 413.662ZM830.509 434.361C832.101 432.949 830.496 423.738 826.629 425.088C822.448 426.553 825.67 438.65 830.509 434.361ZM821.502 440.134L823.977 454.421C824.337 456.5 838.556 454.158 839.404 452.317C840.158 450.694 837.789 437.312 835.789 437.659L821.502 440.134ZM811.267 447.194C806.49 449.554 809.582 453.169 815.867 451.309C822.152 449.449 818.121 443.815 811.267 447.194Z" fill="#A6E8F8" style="fill:#A6E8F8;fill:color(display-p3 0.6510 0.9098 0.9725);fill-opacity:1;"/>
<path d="M826.918 412.808C831.881 423.356 822.205 424.971 821.991 413.662C824.623 413.033 824.044 413.032 826.918 412.808Z" fill="#1A216C" style="fill:#1A216C;fill:color(display-p3 0.1020 0.1294 0.4235);fill-opacity:1;"/>
<path d="M799.694 448.986C801.261 448.542 803.033 448.519 804.63 448.131L805.485 453.067L798.578 454.264C798.216 454.164 797.106 454.844 796.728 454.483C793.994 451.881 797.336 449.668 799.695 448.996L799.694 448.986Z" fill="#1A216C" style="fill:#1A216C;fill:color(display-p3 0.1020 0.1294 0.4235);fill-opacity:1;"/>
<path d="M821.502 440.133L835.789 437.658C837.789 437.312 840.17 450.702 839.404 452.316C838.544 454.15 824.335 456.49 823.977 454.421L821.502 440.133ZM833.031 442.186L827.11 443.211L828.306 450.118L834.228 449.093L833.031 442.186Z" fill="#1A216C" style="fill:#1A216C;fill:color(display-p3 0.1020 0.1294 0.4235);fill-opacity:1;"/>
<path d="M830.508 434.361C825.669 438.65 822.437 426.554 826.629 425.088C830.505 423.736 832.101 432.949 830.508 434.361Z" fill="#1A216C" style="fill:#1A216C;fill:color(display-p3 0.1020 0.1294 0.4235);fill-opacity:1;"/>
<path d="M811.267 447.194C818.121 443.814 822.316 449.4 815.867 451.309C809.418 453.218 806.479 449.546 811.267 447.194Z" fill="#1A216C" style="fill:#1A216C;fill:color(display-p3 0.1020 0.1294 0.4235);fill-opacity:1;"/>
<path d="M833.021 442.188L827.1 443.213L828.296 450.12L834.218 449.095L833.021 442.188Z" fill="#A6E8F8" style="fill:#A6E8F8;fill:color(display-p3 0.6510 0.9098 0.9725);fill-opacity:1;"/>
<path d="M798.156 440.118C795.549 440.772 782.756 443.202 781.295 442.562C777.284 440.79 783.199 435.797 783.081 435.118L778.558 409.006C775.972 409.546 773.07 409.551 770.68 410.808C768.289 412.064 768.647 415.361 765.885 416.114C764.722 416.427 762.606 416.459 762.415 415.355L759.684 399.59C759.665 399.481 760.797 397.875 760.906 397.856L807.216 389.834C807.324 389.815 808.931 390.947 808.95 391.056L811.681 406.821C812.516 411.639 803.317 405.468 802.352 405.341C799.62 404.982 796.976 405.887 794.333 406.274C796.641 413.973 796.013 426.169 799.927 432.707C802.552 437.083 805.857 438.175 798.166 440.116L798.156 440.118ZM804.611 395.359C802.996 394.178 770.351 401.294 765.198 402.187C765.001 402.221 765.684 406.162 765.881 406.128L782.631 403.226L788.434 436.727L794.346 435.703L788.799 403.68C788.78 403.572 789.913 401.965 790.021 401.946L805.294 399.301C805.491 399.267 804.773 395.473 804.611 395.359Z" fill="#1A216C" style="fill:#1A216C;fill:color(display-p3 0.1020 0.1294 0.4235);fill-opacity:1;"/>
<path d="M824.978 366.459L827.624 381.732C827.926 383.476 822.391 384.333 820.984 384.414C823.98 386.828 824.342 390.084 824.508 393.8C822.786 395.165 820.924 395.487 818.852 394.78C816.023 391.627 819.163 385.734 819.078 385.242C818.692 383.015 815.367 385.672 813.791 385.539C809.124 385.139 808.845 373.039 809.213 369.19L824.978 366.459ZM814.982 373.255L816.007 379.177L821.929 378.151L820.903 372.229L814.982 373.255Z" fill="#1A216C" style="fill:#1A216C;fill:color(display-p3 0.1020 0.1294 0.4235);fill-opacity:1;"/>
<path d="M752.797 468.274C750.751 468.009 748.535 455.625 748.663 453.431C748.752 451.782 753.842 450.758 755.314 450.584C746.574 443.248 758.053 432.704 758.567 445.515C758.722 449.283 757.286 447.848 756.3 450.414C767.709 446.032 767.033 457.891 767.086 465.808C763.21 465.759 756.109 468.705 752.798 468.283L752.797 468.274ZM759.985 454.992C758.764 454.503 755.787 455.831 754.186 455.844L755.382 462.751C761.541 464.384 763.898 456.547 759.985 454.992Z" fill="#1A216C" style="fill:#1A216C;fill:color(display-p3 0.1020 0.1294 0.4235);fill-opacity:1;"/>
<path d="M752.064 379.09C753.609 384.201 754.83 389.318 754.595 394.697C754.067 395.925 740.029 398.143 739.501 397.555C738.486 395.386 735.449 381.958 737.785 381.553L752.072 379.078L752.064 379.09ZM747.989 384.86L742.067 385.886C742.531 391.438 743.284 393.611 749.175 391.769L747.979 384.862L747.989 384.86Z" fill="#1A216C" style="fill:#1A216C;fill:color(display-p3 0.1020 0.1294 0.4235);fill-opacity:1;"/>
<path d="M749.492 413.159C754.233 410.998 755.184 422.525 753.129 423.55C748.381 425.905 745.148 415.149 749.492 413.159Z" fill="#1A216C" style="fill:#1A216C;fill:color(display-p3 0.1020 0.1294 0.4235);fill-opacity:1;"/>
<path d="M747.403 410.243C746.053 409.654 742.282 399.022 748.988 400.002C752.633 400.537 753.229 412.765 747.403 410.243Z" fill="#1A216C" style="fill:#1A216C;fill:color(display-p3 0.1020 0.1294 0.4235);fill-opacity:1;"/>
<path d="M779.74 457.415C779.152 458.766 768.519 462.536 769.499 455.83C770.035 452.185 782.262 451.589 779.74 457.415Z" fill="#1A216C" style="fill:#1A216C;fill:color(display-p3 0.1020 0.1294 0.4235);fill-opacity:1;"/>
<path d="M766.799 382.718C771.142 387.345 759.419 390.908 757.688 387.656C754.51 381.67 765.791 381.644 766.799 382.718Z" fill="#1A216C" style="fill:#1A216C;fill:color(display-p3 0.1020 0.1294 0.4235);fill-opacity:1;"/>
<path d="M796.556 377.563C797.145 376.213 807.777 372.443 806.797 379.148C806.262 382.793 794.034 383.389 796.556 377.563Z" fill="#1A216C" style="fill:#1A216C;fill:color(display-p3 0.1020 0.1294 0.4235);fill-opacity:1;"/>
<path d="M783.62 451.933C791.667 447.768 796.129 455.074 789.419 456.936C783.744 458.508 779.913 453.854 783.62 451.933Z" fill="#1A216C" style="fill:#1A216C;fill:color(display-p3 0.1020 0.1294 0.4235);fill-opacity:1;"/>
<path d="M752.01 436.836C750.581 436.201 747.274 425.549 753.573 426.64C757.371 427.301 757.725 439.358 752.01 436.836Z" fill="#1A216C" style="fill:#1A216C;fill:color(display-p3 0.1020 0.1294 0.4235);fill-opacity:1;"/>
<path d="M820.941 398.63C825.454 396.387 828.534 406.256 825.448 407.897C819.678 410.967 818.753 399.71 820.941 398.63Z" fill="#1A216C" style="fill:#1A216C;fill:color(display-p3 0.1020 0.1294 0.4235);fill-opacity:1;"/>
<path d="M772.364 380.861C779.791 377.159 783.457 384.085 777.146 385.969C769.859 388.135 767.965 383.064 772.364 380.861Z" fill="#1A216C" style="fill:#1A216C;fill:color(display-p3 0.1020 0.1294 0.4235);fill-opacity:1;"/>
<path d="M783.746 379.782C784.746 377.528 794.688 376.567 794.069 381.434C793.645 384.786 781.111 385.719 783.746 379.782Z" fill="#1A216C" style="fill:#1A216C;fill:color(display-p3 0.1020 0.1294 0.4235);fill-opacity:1;"/>
<path d="M804.611 395.359C804.773 395.473 805.491 399.266 805.294 399.3L790.022 401.946C789.913 401.965 788.781 403.572 788.8 403.68L794.347 435.703L788.435 436.727L782.632 403.226L765.881 406.128C765.684 406.162 765.001 402.221 765.198 402.187C770.352 401.294 802.996 394.178 804.611 395.359Z" fill="#F3F5F8" style="fill:#F3F5F8;fill:color(display-p3 0.9529 0.9608 0.9725);fill-opacity:1;"/>
<path d="M820.902 372.23L814.98 373.255L816.006 379.177L821.928 378.151L820.902 372.23Z" fill="#F3F5F8" style="fill:#F3F5F8;fill:color(display-p3 0.9529 0.9608 0.9725);fill-opacity:1;"/>
<path d="M759.985 454.991C763.908 456.545 761.551 464.382 755.382 462.751L754.186 455.844C755.787 455.83 758.754 454.504 759.985 454.991Z" fill="#DBD5F8" style="fill:#DBD5F8;fill:color(display-p3 0.8588 0.8353 0.9725);fill-opacity:1;"/>
<path d="M747.988 384.86L749.185 391.767C743.283 393.611 742.531 391.438 742.066 385.886L747.988 384.86Z" fill="#DBD5F8" style="fill:#DBD5F8;fill:color(display-p3 0.8588 0.8353 0.9725);fill-opacity:1;"/>
<path d="M226.043 366.622C245.633 357.56 269.421 375.111 266.574 396.497C262.773 425.044 229.121 433.301 212.302 410.704C214.857 403.801 220.016 399.78 222.315 393.016L215.113 374.467L220.517 368.484C221.94 371.293 229.393 384.993 229.384 386.721C229.377 389.043 223.759 393.106 226.553 399.471C233.605 415.519 256.73 396.431 241.755 386.367C238.428 384.124 234.35 385.218 233.562 384.513C232.844 383.865 227.143 369.125 226.043 366.622Z" fill="#B2F6DB" style="fill:#B2F6DB;fill:color(display-p3 0.6980 0.9647 0.8588);fill-opacity:1;"/>
<path d="M226.042 366.622C227.143 369.125 232.834 383.863 233.562 384.513C234.349 385.218 238.427 384.124 241.755 386.368C256.73 396.431 233.603 415.529 226.552 399.471C223.758 393.106 229.377 389.043 229.383 386.721C229.393 384.993 221.939 371.293 220.516 368.484C219.424 366.321 215.91 357.209 214.959 356.458C214.141 355.798 208.251 355.861 206.389 354.266L181.138 375.959C183.657 385.877 176.273 394.263 166.153 390.318C156.994 386.748 159.273 370.581 169.944 370.183C172.649 370.079 175.089 371.278 177.263 371.119C178.907 370.998 201.5 351.865 202.539 350.158C203.719 348.225 202.077 346.464 202.236 344.431C203.371 329.979 227.108 333.31 223.036 348.081C222.335 350.63 219.955 352.525 219.894 353.321C219.805 354.519 225.028 364.333 226.032 366.62L226.042 366.622ZM218.151 346.593C218.793 343.662 216.938 340.769 214.008 340.127C211.077 339.486 208.184 341.341 207.542 344.271C206.901 347.202 208.756 350.095 211.686 350.736C214.617 351.378 217.51 349.523 218.151 346.593ZM176.3 381.933C176.945 378.983 175.073 376.076 172.133 375.432C169.192 374.789 166.275 376.658 165.632 379.599C164.989 382.539 166.858 385.456 169.799 386.1C172.739 386.743 175.656 384.874 176.3 381.933ZM241.543 396.128C242.191 393.168 240.321 390.251 237.361 389.603C234.401 388.956 231.484 390.825 230.837 393.785C230.189 396.745 232.059 399.662 235.019 400.31C237.979 400.958 240.896 399.088 241.543 396.128Z" fill="#1A216C" style="fill:#1A216C;fill:color(display-p3 0.1020 0.1294 0.4235);fill-opacity:1;"/>
<path d="M212.301 410.704C211.584 412.625 210.839 421.644 208.484 421.129L185.039 415.999C182.88 415.526 186.116 404.667 186.149 401.849C186.194 397.764 182.097 386.918 183.84 384.054C188.992 381.281 202.677 365.85 206.994 364.973C208.719 364.623 209.831 365.245 211.041 366.36C211.606 369.483 214.016 372.129 215.114 374.458L222.316 393.006C220.014 399.78 214.856 403.801 212.303 410.694L212.301 410.704ZM208.212 387.289C207.982 388.201 206.744 393.765 206.715 394.127C201.84 397.697 195.572 391.955 198.41 387.171C199.208 385.82 201.06 385.212 201.877 383.303C202.797 381.16 203.431 377.326 203.244 374.952C200.713 377.162 189.899 384.479 189.117 386.837C188.794 387.8 190.489 399.421 190.968 400.273C191.773 401.739 192.969 401.089 193.842 401.547C197.822 403.615 202.661 405.032 207.304 405.516C207.935 405.582 208.537 406.011 209.207 405.85C209.775 405.125 209.553 403.428 209.9 403.013C211.771 400.73 216.922 395.9 217.273 392.895C217.453 391.369 212.732 383.098 211.672 380.88C210.717 378.88 210.472 376.492 208.843 375.143C208.717 378.76 204.933 384.309 208.222 387.291L208.212 387.289ZM207.417 409.635L190.809 406.001L189.527 411.863L206.134 415.497L207.417 409.635Z" fill="#1A216C" style="fill:#1A216C;fill:color(display-p3 0.1020 0.1294 0.4235);fill-opacity:1;"/>
<path d="M235.018 400.31C237.975 400.957 240.896 399.084 241.543 396.128C242.19 393.171 240.318 390.25 237.361 389.603C234.405 388.956 231.483 390.828 230.836 393.785C230.189 396.742 232.062 399.663 235.018 400.31Z" fill="#B2F6DB" style="fill:#B2F6DB;fill:color(display-p3 0.6980 0.9647 0.8588);fill-opacity:1;"/>
<path d="M169.798 386.1C172.744 386.744 175.655 384.879 176.299 381.933C176.944 378.987 175.078 376.077 172.133 375.432C169.187 374.788 166.276 376.653 165.632 379.599C164.987 382.545 166.853 385.455 169.798 386.1Z" fill="#F3F5F8" style="fill:#F3F5F8;fill:color(display-p3 0.9529 0.9608 0.9725);fill-opacity:1;"/>
<path d="M211.686 350.736C214.616 351.378 217.51 349.522 218.151 346.593C218.792 343.663 216.937 340.769 214.008 340.128C211.078 339.486 208.183 341.342 207.542 344.271C206.901 347.201 208.757 350.095 211.686 350.736Z" fill="#F3F5F8" style="fill:#F3F5F8;fill:color(display-p3 0.9529 0.9608 0.9725);fill-opacity:1;"/>
<path d="M206.717 394.127C206.552 396.189 208.157 401.393 209.891 403.011C209.542 403.436 209.767 405.123 209.199 405.848C208.531 405.999 207.929 405.57 207.296 405.514C204.043 402.509 198.036 403.017 193.834 401.544C192.969 401.099 191.765 401.736 190.959 400.27C190.492 399.411 188.797 387.79 189.109 386.834C189.891 384.477 200.705 377.159 203.236 374.949C203.423 377.324 202.788 381.157 201.869 383.3C201.05 385.219 199.209 385.82 198.402 387.168C195.576 391.945 201.831 397.695 206.707 394.125L206.717 394.127Z" fill="#F3F5F8" style="fill:#F3F5F8;fill:color(display-p3 0.9529 0.9608 0.9725);fill-opacity:1;"/>
<path d="M209.891 403.011C208.157 401.393 206.552 396.189 206.717 394.127C206.745 393.764 207.983 388.2 208.213 387.289C208.807 384.9 209.473 382.231 211.663 380.878C212.714 383.094 217.435 391.364 217.264 392.893C216.912 395.907 211.772 400.73 209.891 403.011Z" fill="#B2F6DB" style="fill:#B2F6DB;fill:color(display-p3 0.6980 0.9647 0.8588);fill-opacity:1;"/>
<path d="M207.418 409.635L190.811 406.001L189.528 411.863L206.135 415.497L207.418 409.635Z" fill="#F3F5F8" style="fill:#F3F5F8;fill:color(display-p3 0.9529 0.9608 0.9725);fill-opacity:1;"/>
<path d="M211.663 380.878C209.474 382.231 208.808 384.9 208.213 387.289C204.925 384.307 208.708 378.757 208.834 375.141C210.464 376.49 210.709 378.878 211.663 380.878Z" fill="#DBD5F8" style="fill:#DBD5F8;fill:color(display-p3 0.8588 0.8353 0.9725);fill-opacity:1;"/>
<path d="M207.295 405.514C202.651 405.03 197.812 403.613 193.832 401.544C198.034 403.017 204.042 402.509 207.295 405.514Z" fill="#B2F6DB" style="fill:#B2F6DB;fill:color(display-p3 0.6980 0.9647 0.8588);fill-opacity:1;"/>
<path d="M455.317 234.832C457.107 230.462 459.587 226.372 462.247 222.472C461.867 220.292 448.347 209.972 446.767 206.802C446.327 205.922 446.457 205.662 446.697 204.802C447.137 203.182 461.077 189.002 463.297 187.312C465.517 185.622 467.207 183.892 470.027 186.132L483.837 200.832C485.687 201.312 489.877 195.232 491.317 193.832C493.347 191.862 500.567 184.402 502.617 184.942C503.987 185.302 522.237 203.592 522.867 204.862C524.687 208.522 509.667 219.912 507.337 223.332C509.947 227.032 523.697 237.512 523.187 241.102C523.037 242.152 522.057 243.522 521.327 244.352C516.177 246.382 506.597 260.682 502.617 261.732C501.227 262.102 500.787 261.572 499.777 260.902C497.247 259.202 485.887 245.862 484.827 245.862C482.697 250.372 451.777 260.302 449.957 259.772C448.867 259.462 448.377 258.422 448.297 257.342C448.197 256.082 454.297 237.382 455.337 234.842L455.317 234.832ZM465.317 199.832C465.337 196.722 467.257 197.932 468.377 196.432C470.077 194.172 469.357 190.282 466.837 190.842C465.797 191.072 452.207 205.152 452.387 206.202C454.557 208.202 464.927 220.082 466.677 219.762L481.307 205.322L478.827 202.842C476.217 207.262 467.877 210.952 472.267 203.292C473.437 201.252 475.177 202.032 475.317 197.842C475.437 194.292 472.877 195.022 473.317 197.842C472.967 197.862 472.587 197.772 472.317 197.842C469.867 198.512 468.107 200.392 465.317 199.842V199.832ZM463.747 228.842L479.317 244.422L517.427 206.332L501.857 190.752L463.747 228.842ZM505.317 229.812C505.987 228.932 504.387 226.482 502.837 226.832C501.377 227.162 490.737 239.572 488.397 241.462C488.147 242.882 499.507 253.942 501.827 254.862C503.327 254.862 516.377 241.932 516.377 240.322C516.377 238.712 514.347 237.082 513.347 237.832C512.447 238.502 511.317 244.632 506.337 242.822C504.367 239.562 512.277 234.782 510.327 232.832C508.377 230.882 502.847 239.222 500.337 236.822C497.527 234.132 505.047 230.172 505.327 229.812H505.317ZM474.317 246.822C472.607 244.762 462.547 232.912 460.327 234.832C460.007 235.112 458.337 242.732 458.447 243.152C458.557 243.572 463.977 249.162 464.337 249.392C466.067 250.502 471.977 246.722 474.317 246.822Z" fill="#191D63" style="fill:#191D63;fill:color(display-p3 0.0980 0.1137 0.3882);fill-opacity:1;"/>
<path d="M491.317 193.832C489.867 195.232 485.677 201.312 483.837 200.832L470.027 186.132C467.207 183.892 465.607 185.552 463.297 187.312C460.987 189.072 447.137 203.182 446.697 204.802C446.467 205.662 446.327 205.912 446.767 206.802C448.347 209.972 461.867 220.282 462.247 222.472C459.587 226.372 457.107 230.462 455.317 234.832C434.767 229.102 427.317 203.252 440.807 186.822C455.077 169.452 482.167 173.862 491.317 193.832Z" fill="#F7E17F" style="fill:#F7E17F;fill:color(display-p3 0.9686 0.8824 0.4980);fill-opacity:1;"/>
<path d="M470.027 235.132C485.057 232.072 497.077 215.722 492.047 200.562L501.857 190.762L517.427 206.342L479.317 244.432L470.027 235.132Z" fill="#F3F5F8" style="fill:#F3F5F8;fill:color(display-p3 0.9529 0.9608 0.9725);fill-opacity:1;"/>
<path d="M470.026 235.132L463.746 228.852L492.046 200.562C497.066 215.732 485.056 232.072 470.026 235.132Z" fill="#F7E17F" style="fill:#F7E17F;fill:color(display-p3 0.9686 0.8824 0.4980);fill-opacity:1;"/>
<path d="M505.317 229.812C505.037 230.182 497.517 234.132 500.327 236.822C502.837 239.222 508.427 230.942 510.317 232.832C512.207 234.722 504.357 239.562 506.327 242.822C511.317 244.642 512.437 238.512 513.337 237.832C514.347 237.082 516.377 238.712 516.367 240.322C516.357 241.932 503.317 254.862 501.817 254.862C499.497 253.942 488.137 242.892 488.387 241.462C490.737 239.572 501.367 227.162 502.827 226.832C504.377 226.482 505.977 228.932 505.307 229.812H505.317Z" fill="#F3F5F8" style="fill:#F3F5F8;fill:color(display-p3 0.9529 0.9608 0.9725);fill-opacity:1;"/>
<path d="M475.317 197.832C475.177 202.022 473.437 201.252 472.267 203.282C467.877 210.942 476.227 207.262 478.827 202.832L481.307 205.312L466.677 219.752C464.927 220.062 454.557 208.182 452.387 206.192C452.207 205.152 465.797 191.062 466.837 190.832C469.367 190.282 470.077 194.172 468.377 196.422C467.247 197.922 465.337 196.712 465.317 199.822C465.277 205.052 470.407 200.312 472.317 197.822C472.587 197.752 472.967 197.842 473.317 197.822C473.977 197.782 474.657 197.852 475.317 197.822V197.832ZM463.327 203.822H458.317C457.787 208.052 459.157 209.352 463.317 208.832V203.822H463.327Z" fill="#F7E17F" style="fill:#F7E17F;fill:color(display-p3 0.9686 0.8824 0.4980);fill-opacity:1;"/>
<path d="M474.317 246.822C471.977 246.722 466.067 250.502 464.337 249.392C463.977 249.162 458.557 243.562 458.447 243.152C458.337 242.742 460.007 235.112 460.327 234.832C462.547 232.912 472.597 244.762 474.317 246.822Z" fill="#F3F5F8" style="fill:#F3F5F8;fill:color(display-p3 0.9529 0.9608 0.9725);fill-opacity:1;"/>
<path d="M472.317 197.832C470.407 200.322 465.277 205.062 465.317 199.832C468.107 200.382 469.867 198.502 472.317 197.832Z" fill="#55595A" style="fill:#55595A;fill:color(display-p3 0.3333 0.3490 0.3529);fill-opacity:1;"/>
<path d="M473.317 197.832C472.877 195.012 475.437 194.282 475.317 197.832C474.657 197.862 473.977 197.792 473.317 197.832Z" fill="#55595A" style="fill:#55595A;fill:color(display-p3 0.3333 0.3490 0.3529);fill-opacity:1;"/>
<path d="M463.328 203.822V208.832C459.158 209.352 457.788 208.052 458.318 203.832H463.328V203.822Z" fill="#2B2E41" style="fill:#2B2E41;fill:color(display-p3 0.1686 0.1804 0.2549);fill-opacity:1;"/>
<path d="M965.256 262.412C964.582 261.964 964.398 261.053 964.847 260.379C965.296 259.705 966.206 259.521 966.88 259.97C967.555 260.419 967.738 261.329 967.289 262.003C966.841 262.678 965.93 262.861 965.256 262.412Z" fill="#020100" style="fill:#020100;fill:color(display-p3 0.0078 0.0039 0.0000);fill-opacity:1;"/>
<path d="M1007.83 290.753C1007.16 290.304 1006.98 289.394 1007.43 288.719C1007.87 288.045 1008.78 287.862 1009.46 288.31C1010.13 288.759 1010.32 289.669 1009.87 290.344C1009.42 291.018 1008.51 291.201 1007.83 290.753Z" fill="#020100" style="fill:#020100;fill:color(display-p3 0.0078 0.0039 0.0000);fill-opacity:1;"/>
<path d="M1021.85 267.533C1017.95 264.552 1012.71 270.431 1011.26 273.702C1010.31 275.849 1010.02 279.004 1010.77 281.246C1012.41 286.109 1019.16 284.996 1019.23 280.031C1019.25 279.046 1018.69 278.336 1019.16 277.361C1020.18 275.227 1022.25 274.699 1023.2 272.765C1024.04 271.047 1023.35 268.674 1021.85 267.533ZM1020.14 269.859C1020.39 270.045 1020.56 270.416 1020.62 270.722C1020.87 272.028 1019.43 272.531 1018.68 273.261C1017.37 274.525 1016.14 276.088 1016.04 277.991C1015.98 279.105 1017.05 280.956 1015.32 281.446C1013.21 282.042 1013.07 278.541 1013.25 277.21C1013.6 274.682 1015.44 272.148 1017.41 270.585C1018.15 269.994 1019.18 269.154 1020.14 269.861L1020.14 269.859Z" fill="#020100" style="fill:#020100;fill:color(display-p3 0.0078 0.0039 0.0000);fill-opacity:1;"/>
<path d="M1003.73 289.607C1003.32 289.234 1002.76 289.262 1002.25 289.299C997.404 289.644 991.606 291.931 986.649 292.432C984.704 293.103 985.364 295.601 987.358 295.349C992.088 293.926 998.279 293.783 1002.84 292.242C1004.09 291.821 1004.79 290.589 1003.72 289.606L1003.73 289.607Z" fill="#020100" style="fill:#020100;fill:color(display-p3 0.0078 0.0039 0.0000);fill-opacity:1;"/>
<path d="M1002.26 281.729C1001.78 281.253 1001.39 281.305 1000.79 281.413C999.326 281.675 993.38 283.552 992.073 284.192C990.194 285.113 991.055 287.311 992.773 287.073L1001.72 284.203C1002.76 283.793 1003.08 282.526 1002.26 281.727L1002.26 281.729Z" fill="#020100" style="fill:#020100;fill:color(display-p3 0.0078 0.0039 0.0000);fill-opacity:1;"/>
<path d="M991.171 238.746L987.094 244.874C987.02 251.052 985.802 257.782 985.938 263.902C985.958 264.833 986.052 265.415 986.49 266.259L972.968 286.648C972.674 287.418 974.289 291.033 974.728 291.907C975.111 292.669 975.137 293.181 976.105 293.394C976.601 293.502 981.538 293.419 981.936 293.267C982.134 293.19 982.334 293.143 982.489 292.981L996.065 272.627C996.794 272.611 997.542 272.672 998.238 272.372L1015.55 263.803L1019.63 257.674L1023.65 260.345C1024.56 260.954 1026.44 260.111 1027.1 259.294C1028.57 257.457 1031.89 252.591 1032.88 250.553C1033.33 249.624 1033.13 248.383 1032.56 247.566C1020.77 239.275 1008.52 231.526 996.571 223.429C995.178 222.486 993.483 222.741 992.42 224.032C990.989 225.774 987.587 230.791 986.629 232.761C986.233 233.577 986.403 235.575 987.153 236.074L991.168 238.744L991.171 238.746ZM1027.88 247.716L1030.28 249.31L1024.75 257.622L989.242 234.007L994.77 225.695L997.166 227.288L995.339 230.036C994.908 230.684 996.033 232.01 996.935 231.904C997.054 231.889 997.801 231.529 997.828 231.488L999.562 228.882L1001.75 230.334C1002.46 230.812 998.443 233.616 1000.95 234.901C1001.24 235.047 1002.18 235.026 1002.29 234.863L1004.21 231.975L1006.61 233.568L1004.87 236.174C1004.07 237.387 1006.46 238.98 1007.27 237.768L1009 235.162L1011.4 236.755L1009.48 239.643C1009.37 239.804 1009.72 240.686 1009.96 240.893C1012.12 242.709 1013.15 237.916 1013.87 238.395L1016.05 239.848L1014.32 242.454C1014.29 242.495 1014.24 243.322 1014.28 243.439C1014.53 244.312 1016.19 244.835 1016.62 244.189L1018.45 241.441L1020.84 243.035L1019.01 245.782C1018.67 246.306 1019.43 247.305 1019.97 247.536C1020.36 247.7 1021.4 247.39 1021.6 247.092L1023.24 244.626L1025.49 246.125L1023.85 248.592C1023.65 248.89 1023.77 249.967 1024.07 250.26C1024.5 250.674 1025.71 250.99 1026.06 250.467L1027.88 247.719L1027.88 247.716ZM1003.86 255.721C1004.24 255.212 1004.13 254.076 1003.65 253.75L990.472 244.989L993.564 240.34L1017.24 256.083L1014.14 260.732L1009.14 257.406C1008.77 257.156 1007.65 257.611 1007.38 258.064C1007.18 258.398 1007.11 259.506 1007.41 259.706L1011.56 262.47C1011.03 262.938 1010.29 263.248 1009.65 263.569C1005.45 265.683 1001.18 267.641 996.976 269.741C994.897 268.502 992.863 267.151 990.871 265.777C990.371 265.433 988.895 264.636 988.778 264.184C989.322 259.144 989.155 253.885 989.69 248.867C989.72 248.584 989.674 248.276 989.868 248.04C990.574 248.502 991.275 248.983 991.981 249.446C995.4 251.683 998.776 253.996 1002.19 256.235C1002.65 256.428 1003.57 256.112 1003.86 255.722L1003.86 255.721ZM988.854 267.894L993.644 271.08L990.458 275.87L987.808 269.752C987.786 269.154 988.586 268.447 988.855 267.893L988.854 267.894ZM985.762 272.543C986.966 274.435 987.443 276.742 988.584 278.688L986.522 281.788L983.841 275.431L985.762 272.543ZM981.826 278.461C983.03 280.353 983.507 282.66 984.648 284.606L982.586 287.706L979.905 281.349L981.826 278.461ZM977.891 284.378L980.621 290.361C980.413 290.68 977.482 290.601 977.258 290.42C977.127 290.312 975.876 287.41 975.971 287.267L977.892 284.379L977.891 284.378Z" fill="#020100" style="fill:#020100;fill:color(display-p3 0.0078 0.0039 0.0000);fill-opacity:1;"/>
<path d="M968.217 265.99C966.933 264.877 965.732 266.174 965.816 267.704C966.073 272.389 968.437 278.26 968.902 283.072C969.383 284.998 971.93 284.662 971.881 282.717L968.682 266.761C968.603 266.487 968.431 266.173 968.218 265.988L968.217 265.99Z" fill="#020100" style="fill:#020100;fill:color(display-p3 0.0078 0.0039 0.0000);fill-opacity:1;"/>
<path d="M976.247 264.629C975.299 263.639 974.039 264.006 973.689 265.267L974.473 274.875C974.976 276.594 977.252 276.464 977.372 274.413C977.452 273.056 976.897 266.751 976.589 265.417C976.523 265.13 976.461 264.853 976.249 264.63L976.247 264.629Z" fill="#020100" style="fill:#020100;fill:color(display-p3 0.0078 0.0039 0.0000);fill-opacity:1;"/>
<path d="M1027.88 247.716L1026.05 250.463C1025.71 250.987 1024.49 250.671 1024.07 250.257C1023.76 249.963 1023.65 248.886 1023.85 248.588L1025.49 246.122L1023.23 244.623L1021.59 247.089C1021.39 247.387 1020.36 247.696 1019.97 247.533C1019.42 247.299 1018.66 246.303 1019.01 245.779L1020.84 243.031L1018.44 241.438L1016.61 244.185C1016.18 244.833 1014.53 244.308 1014.27 243.436C1014.24 243.32 1014.29 242.492 1014.31 242.451L1016.05 239.845L1013.86 238.392C1013.14 237.914 1012.11 242.706 1009.96 240.89C1009.71 240.684 1009.37 239.803 1009.47 239.64L1011.4 236.752L1009 235.158L1007.27 237.764C1006.46 238.977 1004.06 237.384 1004.87 236.171L1006.6 233.565L1004.21 231.971L1002.29 234.86C1002.18 235.021 1001.23 235.043 1000.95 234.898C998.44 233.612 1002.46 230.81 1001.74 230.331L999.558 228.878L997.825 231.485C997.798 231.526 997.052 231.887 996.931 231.9C996.03 232.007 994.905 230.679 995.335 230.032L997.162 227.285L994.767 225.692L989.238 234.004L1024.74 257.619L1030.27 249.307L1027.88 247.713L1027.88 247.716Z" fill="#F3F5F8" style="fill:#F3F5F8;fill:color(display-p3 0.9529 0.9608 0.9725);fill-opacity:1;"/>
<path d="M1003.86 255.721C1003.57 256.111 1002.65 256.427 1002.19 256.234C998.772 253.995 995.397 251.682 991.979 249.445L990.87 265.777C992.862 267.151 994.896 268.502 996.976 269.741C1001.18 267.642 1005.46 265.684 1009.65 263.569C1010.28 263.247 1011.03 262.938 1011.56 262.47L1007.41 259.706C1007.11 259.507 1007.18 258.398 1007.38 258.064L1003.86 255.721Z" fill="#F7E17F" style="fill:#F7E17F;fill:color(display-p3 0.9686 0.8824 0.4980);fill-opacity:1;"/>
<path d="M1007.38 258.063C1007.65 257.61 1008.77 257.155 1009.14 257.405L1014.14 260.731L1017.24 256.083L993.565 240.339L990.473 244.988L1003.65 253.749C1004.13 254.074 1004.24 255.212 1003.86 255.72L1007.38 258.063Z" fill="#DAD26D" style="fill:#DAD26D;fill:color(display-p3 0.8549 0.8235 0.4275);fill-opacity:1;"/>
<path d="M991.979 249.446C991.272 248.984 990.571 248.504 989.865 248.04C989.672 248.276 989.719 248.584 989.688 248.867C989.152 253.885 989.321 259.145 988.776 264.184C988.892 264.636 990.37 265.434 990.868 265.777L991.977 249.445L991.979 249.446Z" fill="#DAD26D" style="fill:#DAD26D;fill:color(display-p3 0.8549 0.8235 0.4275);fill-opacity:1;"/>
<path d="M988.852 267.893C988.584 268.447 987.784 269.153 987.805 269.752L990.456 275.87L993.642 271.08L988.852 267.894L988.852 267.893Z" fill="#F3F5F8" style="fill:#F3F5F8;fill:color(display-p3 0.9529 0.9608 0.9725);fill-opacity:1;"/>
<path d="M985.763 272.541L983.841 275.43L986.523 281.786L988.585 278.686C987.443 276.741 986.965 274.432 985.763 272.541Z" fill="#F3F5F8" style="fill:#F3F5F8;fill:color(display-p3 0.9529 0.9608 0.9725);fill-opacity:1;"/>
<path d="M981.827 278.46L979.906 281.349L982.587 287.705L984.649 284.605C983.507 282.66 983.029 280.351 981.827 278.46Z" fill="#F3F5F8" style="fill:#F3F5F8;fill:color(display-p3 0.9529 0.9608 0.9725);fill-opacity:1;"/>
<path d="M977.891 284.378L975.97 287.266C975.876 287.407 977.125 290.311 977.257 290.419C977.48 290.601 980.411 290.679 980.619 290.361L977.889 284.377L977.891 284.378Z" fill="#F3F5F8" style="fill:#F3F5F8;fill:color(display-p3 0.9529 0.9608 0.9725);fill-opacity:1;"/>
<path d="M1020.13 269.86C1019.18 269.153 1018.15 269.994 1017.4 270.584C1015.44 272.147 1013.59 274.68 1013.25 277.209C1013.07 278.54 1013.21 282.043 1015.32 281.445C1017.04 280.954 1015.98 279.104 1016.04 277.99C1016.14 276.086 1017.36 274.523 1018.68 273.259C1019.43 272.532 1020.87 272.028 1020.62 270.721C1020.56 270.415 1020.38 270.043 1020.13 269.857L1020.13 269.86Z" fill="#A6E8F8" style="fill:#A6E8F8;fill:color(display-p3 0.6510 0.9098 0.9725);fill-opacity:1;"/>
<path d="M1056.62 263.176C1055.05 262.656 1053.51 262.652 1052.15 263.701C1050.18 265.217 1050.85 266.685 1049.83 268.507C1047.2 273.195 1043.24 270.951 1039.15 271.874C1033.99 273.039 1029.93 276.948 1028.37 281.979C1027.81 283.784 1027.9 285.372 1026.55 286.919C1023.77 290.103 1019.43 288.296 1015.58 289.427C1010.56 290.904 1005.39 296.31 1005.32 301.748C1005.27 305.835 1010.28 307.747 1012.91 304.674C1014.35 302.993 1013.65 301.005 1015.81 299.022C1018.43 296.612 1020.98 297.903 1024.04 297.498C1029.53 296.774 1034.17 292.793 1035.88 287.546C1036.73 284.965 1036.42 282.967 1039.06 281.172C1041.32 279.642 1043.5 280.501 1045.96 280.265C1049.69 279.907 1052.94 278.128 1055.55 275.472C1056.16 274.38 1057.14 273.323 1057.71 272.232C1058.32 271.051 1059.17 267.99 1059.03 266.657C1058.92 265.591 1058.33 264.778 1057.75 263.926L1056.62 263.177L1056.62 263.176ZM1046.2 274.462C1048.94 273.947 1051.29 272.017 1052.57 269.545C1053.19 268.341 1053.17 265.268 1055.17 265.963C1056.66 266.48 1056.08 268.137 1055.71 269.279C1054.24 273.804 1050.23 276.999 1045.51 277.412C1042.89 277.641 1041.24 276.842 1038.58 278.142C1032.47 281.131 1034.65 286.732 1030.45 291.135C1024.67 297.192 1018.98 292.392 1014.01 296.775C1012.82 297.826 1012.11 298.771 1011.52 300.255C1011.1 301.336 1011.21 303.224 1009.71 303.312C1007.55 303.435 1008.32 300.667 1008.77 299.467C1010.08 295.947 1012.92 293.286 1016.51 292.199C1020.83 290.891 1024.18 293.271 1028.15 289.399C1031.17 286.45 1030.24 283.78 1031.99 280.638C1033.9 277.205 1037.16 275.015 1041.03 274.543C1042.76 274.331 1044.53 274.775 1046.2 274.461L1046.2 274.462Z" fill="#020100" style="fill:#020100;fill:color(display-p3 0.0078 0.0039 0.0000);fill-opacity:1;"/>
<path d="M1033.35 308.866L1034.38 307.316C1035.55 303.945 1032.65 300.445 1029.12 301.485C1027.11 302.076 1027.09 303.733 1024.59 303.249C1023.01 302.946 1021.73 301.843 1020.06 301.951C1015.94 302.221 1014.47 307.674 1017.88 309.935C1021.29 312.196 1027.29 312.719 1030.84 310.655L1033.35 308.866ZM1031.44 304.793C1033.26 306.698 1028.33 308.787 1026.84 309.006C1024.84 309.299 1021.02 308.582 1019.42 307.337C1018.04 306.27 1019.35 304.38 1020.89 304.894C1023.2 305.665 1025.36 306.995 1027.89 305.709C1029.15 305.068 1030.03 303.319 1031.44 304.793Z" fill="#020100" style="fill:#020100;fill:color(display-p3 0.0078 0.0039 0.0000);fill-opacity:1;"/>
<path d="M1046.2 274.461C1044.53 274.775 1042.76 274.331 1041.03 274.543C1037.15 275.015 1033.9 277.205 1031.99 280.638C1030.24 283.78 1031.17 286.45 1028.15 289.399C1024.18 293.269 1020.83 290.889 1016.51 292.199C1012.92 293.286 1010.08 295.947 1008.76 299.467C1008.32 300.666 1007.55 303.435 1009.71 303.311C1011.2 303.226 1011.1 301.336 1011.52 300.255C1012.11 298.771 1012.82 297.824 1014.01 296.775C1018.98 292.391 1024.67 297.192 1030.45 291.135C1034.65 286.732 1032.47 281.131 1038.58 278.142C1041.23 276.841 1042.88 277.64 1045.51 277.412C1050.23 276.999 1054.24 273.803 1055.71 269.279C1056.08 268.137 1056.66 266.479 1055.17 265.963C1053.17 265.267 1053.19 268.339 1052.57 269.545C1051.29 272.02 1048.94 273.947 1046.2 274.462L1046.2 274.461Z" fill="#A6E8F8" style="fill:#A6E8F8;fill:color(display-p3 0.6510 0.9098 0.9725);fill-opacity:1;"/>
<path d="M1031.44 304.793C1030.03 303.32 1029.15 305.07 1027.89 305.709C1025.35 306.995 1023.19 305.665 1020.89 304.894C1019.35 304.38 1018.04 306.27 1019.41 307.337C1021.02 308.583 1024.84 309.3 1026.84 309.006C1028.32 308.789 1033.26 306.698 1031.44 304.793Z" fill="#A6E8F8" style="fill:#A6E8F8;fill:color(display-p3 0.6510 0.9098 0.9725);fill-opacity:1;"/>
<rect x="10.128" y="231.639" width="991" height="98" transform="rotate(3.79 10.128 231.639)" fill="#E8422E" stroke="#0D99FF" style="fill:#E8422E;fill:color(display-p3 0.9098 0.2588 0.1804);fill-opacity:1;stroke:#0D99FF;stroke:color(display-p3 0.0510 0.6000 1.0000);stroke-opacity:1;"/>
<path d="M51.6335 261.436L48.6914 305.85L37.1421 305.085L40.0843 260.671L51.6335 261.436ZM66.6848 270.479L66.271 273.813C67.1642 272.531 68.2086 271.599 69.4044 271.017C70.6197 270.418 71.9863 270.169 73.5043 270.27C75.4063 270.396 76.9311 270.947 78.0788 271.923C79.2265 272.899 79.9287 274.084 80.1853 275.479C80.4431 276.855 80.4666 279.134 80.2558 282.317L78.5657 307.829L67.4829 307.095L69.1529 281.884C69.3189 279.379 69.3378 277.846 69.2095 277.287C69.0813 276.727 68.6422 276.422 67.8924 276.373C67.106 276.321 66.591 276.608 66.3474 277.235C66.1051 277.843 65.893 279.519 65.7113 282.262L64.0812 306.87L52.9983 306.136L55.4099 269.732L66.6848 270.479ZM110.559 265.34L107.617 309.754L96.5343 309.02L96.7087 306.386C95.5753 307.413 94.4052 308.162 93.1984 308.633C91.9915 309.104 90.748 309.298 89.4678 309.213C87.7487 309.099 86.2879 308.552 85.0853 307.572C83.884 306.574 83.1398 305.469 82.8528 304.256C82.5841 303.044 82.5387 301.094 82.7168 298.405L83.8454 281.37C84.0307 278.572 84.3359 276.599 84.7609 275.451C85.2042 274.305 86.0951 273.335 87.4334 272.542C88.773 271.731 90.3298 271.384 92.1038 271.502C93.4754 271.592 94.7118 271.922 95.813 272.491C96.9325 273.061 97.9258 273.871 98.7931 274.921L99.4764 264.606L110.559 265.34ZM98.3388 281.779C98.4273 280.444 98.3677 279.54 98.1603 279.067C97.9711 278.595 97.5382 278.337 96.8615 278.292C96.2031 278.248 95.7411 278.429 95.4755 278.834C95.2294 279.222 95.0591 280.129 94.9646 281.555L93.7833 299.387C93.6852 300.868 93.7301 301.854 93.9181 302.344C94.1073 302.815 94.5128 303.072 95.1346 303.113C95.8478 303.16 96.3403 302.936 96.612 302.439C96.8848 301.925 97.0885 300.653 97.223 298.622L98.3388 281.779ZM125.949 266.359L125.566 272.148L114.154 271.392L114.537 265.603L125.949 266.359ZM125.418 274.37L123.007 310.773L111.595 310.017L114.006 273.614L125.418 274.37ZM138.393 289.392L127.996 288.703L128.158 286.261C128.344 283.445 128.808 281.299 129.548 279.823C130.309 278.331 131.706 277.064 133.74 276.023C135.775 274.982 138.356 274.566 141.483 274.773C145.232 275.021 148.013 275.876 149.827 277.337C151.642 278.78 152.677 280.483 152.933 282.447C153.189 284.393 153.119 288.374 152.72 294.391L151.51 312.661L140.729 311.947L140.943 308.71C140.18 309.964 139.238 310.884 138.115 311.471C137.012 312.041 135.72 312.277 134.238 312.178C132.3 312.05 130.552 311.392 128.996 310.206C127.459 309.002 126.813 306.562 127.056 302.886L127.254 299.896C127.435 297.171 127.988 295.343 128.913 294.412C129.838 293.481 132.045 292.47 135.533 291.379C139.267 290.194 141.279 289.362 141.567 288.886C141.856 288.409 142.051 287.411 142.151 285.893C142.277 283.991 142.213 282.747 141.958 282.161C141.722 281.557 141.275 281.234 140.617 281.19C139.867 281.141 139.384 281.357 139.169 281.838C138.954 282.302 138.78 283.548 138.645 285.578L138.393 289.392ZM141.574 294.617C139.713 295.798 138.608 296.818 138.257 297.676C137.925 298.536 137.704 299.789 137.595 301.435C137.47 303.318 137.509 304.542 137.71 305.107C137.93 305.672 138.405 305.98 139.137 306.028C139.832 306.074 140.294 305.893 140.523 305.486C140.771 305.062 140.956 303.935 141.077 302.106L141.574 294.617ZM164.712 268.927L164.448 272.905C164.311 274.972 163.951 276.665 163.368 277.986C162.785 279.288 161.851 280.365 160.564 281.217C159.296 282.051 157.883 282.582 156.325 282.81L156.538 279.6C157.675 279.069 158.351 278.287 158.567 277.255L156.701 277.131L157.277 268.435L164.712 268.927ZM189.033 290.266L179.212 289.616L179.343 287.641C179.454 285.958 179.424 284.891 179.252 284.439C179.099 283.969 178.639 283.709 177.871 283.658C177.249 283.617 176.769 283.796 176.43 284.197C176.092 284.578 175.896 285.181 175.842 286.004C175.768 287.119 175.786 287.947 175.898 288.487C176.028 289.01 176.457 289.608 177.184 290.281C177.929 290.955 179.47 291.966 181.805 293.314C184.919 295.101 186.934 296.722 187.847 298.178C188.761 299.635 189.13 301.689 188.955 304.341C188.758 307.304 188.226 309.519 187.357 310.986C186.49 312.435 185.123 313.51 183.258 314.213C181.413 314.899 179.219 315.158 176.677 314.99C173.86 314.803 171.475 314.204 169.522 313.193C167.587 312.183 166.294 310.904 165.643 309.354C164.993 307.805 164.768 305.512 164.969 302.477L165.085 300.721L174.906 301.371L174.754 303.676C174.624 305.633 174.659 306.912 174.858 307.513C175.075 308.115 175.549 308.44 176.281 308.489C177.067 308.541 177.629 308.385 177.965 308.022C178.303 307.64 178.513 306.818 178.597 305.556C178.712 303.819 178.583 302.717 178.21 302.252C177.818 301.785 175.755 300.344 172.021 297.929C168.887 295.885 167.012 294.098 166.397 292.569C165.783 291.022 165.544 289.225 165.68 287.176C165.872 284.269 166.398 282.154 167.257 280.834C168.117 279.494 169.487 278.511 171.365 277.882C173.262 277.254 175.426 277.021 177.859 277.182C180.273 277.342 182.301 277.789 183.942 278.522C185.603 279.238 186.848 280.129 187.678 281.194C188.525 282.261 189.012 283.23 189.138 284.102C189.282 284.974 189.294 286.325 189.173 288.154L189.033 290.266ZM215.956 272.322L213.603 307.847L220.626 308.313L220.037 317.201L201.465 315.971L204.407 271.557L215.956 272.322ZM233.914 295.719L223.517 295.031L223.679 292.589C223.865 289.773 224.329 287.627 225.07 286.151C225.83 284.659 227.227 283.392 229.261 282.351C231.296 281.31 233.877 280.893 237.004 281.1C240.753 281.349 243.535 282.204 245.348 283.665C247.163 285.107 248.198 286.811 248.454 288.775C248.711 290.721 248.64 294.702 248.241 300.719L247.031 318.989L236.25 318.275L236.464 315.038C235.701 316.292 234.759 317.212 233.636 317.799C232.533 318.369 231.241 318.604 229.759 318.506C227.821 318.378 226.073 317.72 224.517 316.533C222.981 315.329 222.334 312.889 222.577 309.213L222.776 306.223C222.956 303.498 223.509 301.67 224.434 300.74C225.359 299.809 227.566 298.798 231.055 297.707C234.789 296.521 236.8 295.69 237.089 295.213C237.377 294.737 237.572 293.739 237.673 292.221C237.799 290.319 237.734 289.075 237.479 288.489C237.243 287.885 236.796 287.562 236.138 287.518C235.388 287.468 234.906 287.684 234.69 288.166C234.476 288.63 234.301 289.876 234.167 291.906L233.914 295.719ZM237.095 300.945C235.235 302.126 234.129 303.146 233.779 304.004C233.446 304.864 233.225 306.116 233.116 307.762C232.991 309.646 233.03 310.87 233.231 311.435C233.451 312 233.926 312.307 234.658 312.356C235.353 312.402 235.815 312.221 236.044 311.814C236.293 311.389 236.477 310.263 236.599 308.434L237.095 300.945ZM264.338 283.573L263.583 288.317C265.419 285.003 267.871 283.347 270.938 283.348L270.09 296.16C268.06 296.025 266.551 296.201 265.564 296.686C264.576 297.172 263.94 297.901 263.655 298.874C263.372 299.829 263.113 302.071 262.879 305.601L261.927 319.976L250.844 319.242L253.256 282.838L264.338 283.573ZM298.575 285.84L296.717 313.877C296.467 317.663 296.213 320.107 295.956 321.211C295.719 322.297 295.029 323.418 293.887 324.573C292.744 325.746 291.2 326.59 289.256 327.104C287.329 327.638 284.929 327.809 282.058 327.619C278.528 327.385 275.733 326.594 273.674 325.245C271.613 323.915 270.662 321.491 270.821 317.975L281.575 318.687C281.468 320.297 282 321.14 283.171 321.218C284.012 321.274 284.586 321.064 284.893 320.588C285.2 320.112 285.406 319.088 285.51 317.515L285.692 314.772C284.684 315.569 283.635 316.151 282.545 316.52C281.474 316.89 280.362 317.037 279.21 316.96C277.216 316.828 275.597 316.317 274.352 315.426C273.125 314.537 272.317 313.427 271.927 312.097C271.539 310.749 271.425 308.867 271.585 306.453L272.461 293.231C272.69 289.774 273.476 287.328 274.82 285.893C276.164 284.457 278.108 283.823 280.65 283.992C282.04 284.084 283.283 284.451 284.379 285.093C285.494 285.736 286.462 286.655 287.283 287.848L288.26 285.157L298.575 285.84ZM286.825 294.761C286.935 293.097 286.905 292.029 286.734 291.559C286.581 291.089 286.176 290.833 285.517 290.789C284.877 290.747 284.402 290.982 284.093 291.494C283.803 291.989 283.607 293.005 283.505 294.541L282.695 306.776C282.587 308.404 282.617 309.471 282.786 309.978C282.955 310.467 283.36 310.733 284 310.775C284.732 310.824 285.227 310.562 285.485 309.992C285.743 309.421 285.941 308.102 286.078 306.036L286.825 294.761ZM326.378 306.611L312.03 305.661L311.509 313.534C311.4 315.18 311.448 316.249 311.654 316.74C311.861 317.231 312.302 317.499 312.979 317.544C313.82 317.6 314.398 317.326 314.714 316.722C315.049 316.102 315.276 314.886 315.396 313.075L315.714 308.275L326.221 308.971L326.043 311.659C325.894 313.908 325.633 315.627 325.261 316.815C324.906 318.004 324.163 319.249 323.029 320.552C321.896 321.854 320.502 322.8 318.846 323.388C317.21 323.96 315.185 324.165 312.771 324.005C310.43 323.85 308.386 323.375 306.639 322.58C304.891 321.784 303.553 320.768 302.625 319.531C301.716 318.277 301.116 316.933 300.826 315.499C300.536 314.047 300.481 311.968 300.66 309.261L301.363 298.645C301.574 295.462 302.17 292.985 303.151 291.213C304.133 289.423 305.634 288.108 307.655 287.269C309.678 286.411 311.96 286.066 314.502 286.234C317.611 286.44 320.132 287.204 322.065 288.526C324.017 289.831 325.331 291.489 326.006 293.499C326.701 295.492 326.931 298.253 326.697 301.783L326.378 306.611ZM315.66 299.95L315.836 297.289C315.961 295.405 315.941 294.182 315.776 293.62C315.611 293.058 315.218 292.757 314.596 292.716C313.828 292.665 313.337 292.871 313.122 293.334C312.909 293.779 312.735 295.026 312.599 297.074L312.423 299.735L315.66 299.95ZM353.136 301.137L343.315 300.487L343.446 298.512C343.557 296.829 343.527 295.762 343.355 295.31C343.202 294.84 342.742 294.58 341.974 294.529C341.352 294.488 340.872 294.667 340.533 295.067C340.196 295.449 340 296.052 339.945 296.875C339.871 297.99 339.89 298.818 340.001 299.358C340.132 299.881 340.56 300.479 341.287 301.152C342.033 301.825 343.573 302.837 345.908 304.185C349.023 305.972 351.037 307.593 351.951 309.049C352.865 310.506 353.234 312.56 353.058 315.212C352.862 318.175 352.329 320.39 351.461 321.857C350.593 323.305 349.227 324.381 347.362 325.084C345.516 325.77 343.322 326.029 340.78 325.861C337.964 325.674 335.579 325.075 333.625 324.064C331.69 323.054 330.397 321.775 329.746 320.225C329.096 318.676 328.871 316.383 329.072 313.348L329.189 311.592L339.01 312.242L338.857 314.547C338.727 316.504 338.762 317.783 338.961 318.384C339.178 318.986 339.653 319.311 340.384 319.36C341.171 319.412 341.732 319.256 342.068 318.892C342.406 318.511 342.616 317.689 342.7 316.427C342.815 314.69 342.686 313.588 342.313 313.123C341.921 312.656 339.858 311.215 336.124 308.8C332.99 306.755 331.115 304.969 330.5 303.44C329.886 301.893 329.647 300.096 329.783 298.047C329.975 295.14 330.501 293.025 331.36 291.704C332.22 290.365 333.59 289.382 335.468 288.753C337.365 288.125 339.53 287.892 341.962 288.053C344.376 288.213 346.404 288.66 348.045 289.393C349.706 290.109 350.951 291 351.781 292.065C352.629 293.132 353.115 294.101 353.241 294.973C353.386 295.845 353.397 297.196 353.276 299.025L353.136 301.137ZM369.728 285.677L369.348 291.411L372.338 291.609L371.957 297.37L368.966 297.171L367.676 316.649C367.517 319.045 367.548 320.388 367.767 320.678C368.005 320.969 369.03 321.174 370.84 321.294L370.451 327.165L365.98 326.869C363.456 326.702 361.661 326.482 360.595 326.209C359.531 325.918 358.612 325.37 357.839 324.566C357.067 323.744 356.612 322.841 356.475 321.858C356.339 320.857 356.391 318.546 356.631 314.925L357.856 296.435L355.469 296.277L355.851 290.516L358.238 290.675L358.618 284.941L369.728 285.677ZM411.312 304.716L399.763 303.951L400.275 296.215C400.424 293.965 400.389 292.558 400.169 291.992C399.969 291.409 399.448 291.09 398.607 291.034C397.656 290.971 397.03 291.27 396.729 291.929C396.428 292.589 396.203 294.044 396.054 296.293L394.688 316.923C394.545 319.081 394.58 320.497 394.792 321.173C395.004 321.848 395.559 322.216 396.455 322.275C397.314 322.332 397.894 322.04 398.194 321.398C398.512 320.758 398.751 319.222 398.912 316.789L399.281 311.22L410.83 311.985L410.716 313.714C410.412 318.304 409.867 321.538 409.081 323.414C408.314 325.292 406.767 326.88 404.44 328.177C402.131 329.475 399.349 330.016 396.094 329.801C392.711 329.576 389.962 328.779 387.849 327.408C385.735 326.038 384.393 324.25 383.823 322.044C383.254 319.821 383.114 316.533 383.402 312.18L384.262 299.204C384.474 296.004 384.742 293.615 385.067 292.039C385.393 290.444 386.145 288.941 387.322 287.531C388.517 286.123 390.103 285.061 392.079 284.347C394.075 283.616 396.325 283.334 398.831 283.5C402.232 283.725 404.996 284.569 407.122 286.033C409.247 287.496 410.592 289.238 411.156 291.259C411.722 293.262 411.867 296.34 411.592 300.491L411.312 304.716ZM439.73 314.12L425.383 313.17L424.861 321.043C424.752 322.689 424.801 323.758 425.007 324.249C425.213 324.74 425.655 325.008 426.331 325.053C427.173 325.109 427.751 324.835 428.067 324.231C428.402 323.611 428.629 322.395 428.749 320.584L429.067 315.784L439.574 316.48L439.396 319.168C439.247 321.417 438.986 323.136 438.613 324.324C438.259 325.513 437.515 326.758 436.382 328.061C435.249 329.363 433.854 330.309 432.199 330.897C430.563 331.469 428.538 331.674 426.124 331.514C423.783 331.359 421.739 330.884 419.991 330.089C418.244 329.293 416.906 328.277 415.977 327.04C415.069 325.786 414.469 324.442 414.178 323.008C413.888 321.556 413.833 319.477 414.013 316.77L414.716 306.154C414.927 302.971 415.523 300.494 416.503 298.722C417.485 296.932 418.987 295.617 421.008 294.778C423.03 293.92 425.312 293.575 427.854 293.743C430.963 293.949 433.484 294.713 435.417 296.035C437.37 297.34 438.684 298.998 439.359 301.008C440.053 303.001 440.284 305.762 440.05 309.292L439.73 314.12ZM429.012 307.459L429.189 304.798C429.313 302.914 429.293 301.691 429.128 301.129C428.964 300.567 428.57 300.266 427.949 300.225C427.18 300.174 426.689 300.38 426.475 300.843C426.262 301.288 426.087 302.535 425.951 304.583L425.775 307.244L429.012 307.459ZM456.57 288.261L453.628 332.675L442.216 331.919L445.158 287.505L456.57 288.261ZM483.897 317.046L469.55 316.096L469.028 323.969C468.919 325.615 468.968 326.684 469.174 327.175C469.38 327.666 469.822 327.934 470.498 327.979C471.339 328.035 471.918 327.761 472.233 327.157C472.568 326.536 472.796 325.321 472.916 323.51L473.234 318.709L483.741 319.405L483.563 322.094C483.414 324.343 483.153 326.062 482.78 327.25C482.426 328.438 481.682 329.684 480.549 330.987C479.415 332.289 478.021 333.235 476.366 333.823C474.73 334.394 472.705 334.6 470.291 334.44C467.95 334.285 465.905 333.81 464.158 333.014C462.411 332.219 461.073 331.203 460.144 329.966C459.235 328.711 458.636 327.368 458.345 325.934C458.055 324.482 458 322.403 458.18 319.696L458.883 309.079C459.094 305.897 459.689 303.42 460.67 301.648C461.652 299.858 463.154 298.543 465.175 297.703C467.197 296.845 469.479 296.501 472.021 296.669C475.13 296.875 477.651 297.639 479.584 298.961C481.537 300.266 482.851 301.924 483.526 303.934C484.22 305.927 484.451 308.688 484.217 312.218L483.897 317.046ZM473.179 310.385L473.355 307.724C473.48 305.84 473.46 304.617 473.295 304.055C473.131 303.493 472.737 303.192 472.115 303.15C471.347 303.099 470.856 303.306 470.642 303.769C470.428 304.214 470.254 305.461 470.118 307.509L469.942 310.17L473.179 310.385ZM500.407 291.165L499.711 301.672C500.696 300.672 501.763 299.953 502.913 299.515C504.082 299.059 505.325 298.875 506.642 298.963C508.159 299.063 509.46 299.388 510.545 299.937C511.629 300.487 512.435 301.211 512.963 302.109C513.491 303.007 513.783 303.872 513.838 304.702C513.912 305.533 513.86 307.293 513.682 309.982L512.595 326.387C512.418 329.057 512.103 331.038 511.65 332.331C511.216 333.606 510.309 334.685 508.928 335.567C507.548 336.431 505.953 336.803 504.143 336.683C502.844 336.597 501.647 336.233 500.551 335.591C499.472 334.95 498.505 334.031 497.647 332.836L496.752 335.532L486.382 334.845L489.325 290.431L500.407 291.165ZM502.566 309.741C502.691 307.858 502.653 306.624 502.453 306.042C502.254 305.441 501.807 305.117 501.112 305.071C500.435 305.026 499.979 305.253 499.744 305.752C499.51 306.233 499.326 307.488 499.192 309.518L498.152 325.209C498.023 327.166 498.049 328.426 498.232 328.99C498.434 329.554 498.873 329.859 499.55 329.903C500.245 329.949 500.711 329.696 500.95 329.142C501.207 328.59 501.407 327.234 501.55 325.076L502.566 309.741ZM529.065 301.109L528.31 305.853C530.146 302.54 532.598 300.884 535.665 300.885L534.817 313.696C532.787 313.562 531.278 313.737 530.291 314.223C529.303 314.709 528.667 315.438 528.382 316.411C528.099 317.366 527.84 319.608 527.606 323.138L526.654 337.513L515.571 336.778L517.983 300.375L529.065 301.109ZM547.087 316.465L536.69 315.777L536.852 313.335C537.039 310.519 537.502 308.373 538.243 306.897C539.003 305.405 540.4 304.138 542.435 303.097C544.469 302.056 547.05 301.639 550.177 301.847C553.927 302.095 556.708 302.95 558.521 304.411C560.336 305.853 561.371 307.557 561.627 309.521C561.884 311.467 561.813 315.448 561.415 321.465L560.204 339.735L549.423 339.021L549.638 335.784C548.875 337.038 547.932 337.958 546.81 338.545C545.706 339.115 544.414 339.35 542.933 339.252C540.994 339.124 539.247 338.466 537.691 337.279C536.154 336.075 535.507 333.636 535.751 329.96L535.949 326.969C536.129 324.244 536.682 322.417 537.607 321.486C538.532 320.555 540.739 319.544 544.228 318.453C547.962 317.267 549.973 316.436 550.262 315.959C550.551 315.483 550.745 314.485 550.846 312.967C550.972 311.065 550.907 309.821 550.652 309.235C550.417 308.631 549.97 308.308 549.311 308.264C548.562 308.215 548.079 308.431 547.863 308.912C547.649 309.376 547.474 310.622 547.34 312.652L547.087 316.465ZM550.268 321.691C548.408 322.872 547.303 323.892 546.952 324.75C546.619 325.61 546.399 326.863 546.29 328.508C546.165 330.392 546.203 331.616 546.405 332.181C546.624 332.746 547.1 333.053 547.831 333.102C548.526 333.148 548.988 332.967 549.217 332.56C549.466 332.136 549.651 331.009 549.772 329.18L550.268 321.691ZM578.437 299.503L578.057 305.236L581.047 305.434L580.666 311.195L577.676 310.997L576.385 330.475C576.227 332.87 576.257 334.213 576.477 334.503C576.714 334.795 577.739 335 579.549 335.12L579.16 340.991L574.689 340.695C572.165 340.528 570.37 340.308 569.304 340.035C568.24 339.744 567.321 339.196 566.548 338.392C565.776 337.569 565.321 336.667 565.184 335.684C565.048 334.683 565.1 332.372 565.34 328.751L566.565 310.261L564.179 310.103L564.56 304.342L566.947 304.5L567.327 298.767L578.437 299.503ZM595.49 297.464L595.106 303.252L583.694 302.496L584.078 296.708L595.49 297.464ZM594.959 305.474L592.548 341.878L581.135 341.122L583.547 304.718L594.959 305.474ZM623.191 320.184L622.6 329.1C622.384 332.374 622.06 334.768 621.629 336.282C621.199 337.778 620.4 339.158 619.233 340.422C618.067 341.667 616.612 342.553 614.869 343.081C613.145 343.591 611.186 343.774 608.991 343.628C606.54 343.466 604.482 343.063 602.817 342.42C601.152 341.759 599.88 340.857 599.001 339.715C598.14 338.556 597.56 337.195 597.26 335.632C596.96 334.051 596.913 331.715 597.118 328.624L597.736 319.297C597.96 315.914 598.501 313.295 599.358 311.442C600.216 309.588 601.634 308.148 603.612 307.122C605.59 306.096 608.061 305.681 611.023 305.877C613.511 306.042 615.617 306.558 617.341 307.425C619.085 308.276 620.402 309.327 621.292 310.58C622.183 311.833 622.76 313.102 623.024 314.387C623.306 315.673 623.362 317.606 623.191 320.184ZM612.29 316.707C612.413 314.841 612.39 313.664 612.221 313.176C612.052 312.668 611.639 312.393 610.98 312.349C610.322 312.306 609.867 312.524 609.615 313.003C609.364 313.464 609.176 314.627 609.053 316.492L607.964 332.925C607.85 334.644 607.886 335.776 608.07 336.321C608.255 336.847 608.668 337.132 609.308 337.174C609.967 337.218 610.412 337.009 610.645 336.546C610.896 336.086 611.074 335.069 611.178 333.496L612.29 316.707ZM638.989 308.391L638.575 311.725C639.468 310.443 640.513 309.512 641.708 308.929C642.924 308.33 644.29 308.081 645.808 308.182C647.71 308.308 649.235 308.859 650.383 309.835C651.531 310.811 652.233 311.996 652.489 313.391C652.747 314.767 652.771 317.047 652.56 320.229L650.87 345.741L639.787 345.007L641.457 319.796C641.623 317.291 641.642 315.758 641.514 315.199C641.385 314.639 640.946 314.334 640.196 314.285C639.41 314.233 638.895 314.52 638.651 315.147C638.409 315.755 638.197 317.431 638.015 320.174L636.385 344.782L625.302 344.048L627.714 307.644L638.989 308.391ZM691.279 324.695L690.689 333.611C690.472 336.884 690.148 339.278 689.717 340.793C689.287 342.289 688.489 343.669 687.321 344.932C686.155 346.178 684.7 347.064 682.957 347.591C681.233 348.102 679.274 348.284 677.079 348.139C674.629 347.976 672.571 347.574 670.905 346.931C669.24 346.269 667.968 345.368 667.089 344.226C666.229 343.067 665.648 341.706 665.348 340.143C665.049 338.562 665.001 336.226 665.206 333.135L665.824 323.808C666.048 320.424 666.589 317.806 667.446 315.952C668.304 314.099 669.722 312.659 671.7 311.633C673.679 310.606 676.149 310.191 679.112 310.388C681.599 310.553 683.705 311.069 685.429 311.936C687.173 312.786 688.49 313.838 689.381 315.091C690.271 316.344 690.848 317.613 691.112 318.898C691.395 320.184 691.45 322.116 691.279 324.695ZM680.378 321.217C680.502 319.352 680.479 318.175 680.309 317.686C680.141 317.179 679.727 316.904 679.069 316.86C678.41 316.816 677.955 317.034 677.703 317.513C677.452 317.974 677.265 319.138 677.141 321.003L676.053 337.435C675.939 339.154 675.974 340.286 676.158 340.831C676.344 341.358 676.757 341.642 677.397 341.685C678.055 341.728 678.501 341.519 678.733 341.057C678.984 340.596 679.162 339.579 679.266 338.006L680.378 321.217ZM710.461 305.08L710.088 310.704C707.802 310.552 706.442 310.573 706.006 310.764C705.591 310.939 705.35 311.52 705.285 312.507L705.208 313.659L709.872 313.968L709.49 319.729L706.857 319.555L704.885 349.319L693.802 348.585L695.774 318.821L693.497 318.67L693.879 312.909L696.156 313.06C696.314 310.664 696.503 309.069 696.72 308.275C696.938 307.482 697.388 306.795 698.069 306.216C698.77 305.619 699.717 305.195 700.909 304.943C702.101 304.692 703.932 304.648 706.401 304.811L710.461 305.08ZM734.382 306.665L731.44 351.079L719.891 350.314L722.833 305.9L734.382 306.665ZM749.433 315.707L749.02 319.042C749.913 317.76 750.957 316.828 752.153 316.246C753.368 315.647 754.735 315.397 756.253 315.498C758.155 315.624 759.68 316.175 760.827 317.151C761.975 318.127 762.677 319.313 762.934 320.707C763.192 322.084 763.215 324.363 763.004 327.545L761.314 353.058L750.232 352.323L751.902 327.113C752.068 324.607 752.086 323.075 751.958 322.515C751.83 321.955 751.391 321.651 750.641 321.601C749.855 321.549 749.34 321.836 749.096 322.463C748.854 323.072 748.642 324.748 748.46 327.491L746.83 352.098L735.747 351.364L738.159 314.961L749.433 315.707ZM778.841 317.656L778.428 320.99C779.321 319.708 780.365 318.776 781.561 318.194C782.776 317.595 784.143 317.345 785.661 317.446C787.563 317.572 789.088 318.123 790.236 319.099C791.383 320.075 792.085 321.261 792.342 322.655C792.6 324.032 792.623 326.311 792.413 329.493L790.722 355.006L779.64 354.272L781.31 329.061C781.476 326.555 781.494 325.023 781.366 324.463C781.238 323.904 780.799 323.599 780.049 323.549C779.263 323.497 778.748 323.785 778.504 324.411C778.262 325.02 778.05 326.696 777.868 329.439L776.238 354.046L765.155 353.312L767.567 316.909L778.841 317.656ZM821.201 333.301L820.611 342.217C820.394 345.491 820.07 347.885 819.639 349.399C819.209 350.895 818.411 352.275 817.243 353.539C816.077 354.784 814.622 355.671 812.879 356.198C811.155 356.708 809.196 356.891 807.001 356.745C804.551 356.583 802.493 356.18 800.827 355.537C799.162 354.876 797.89 353.974 797.011 352.832C796.151 351.673 795.57 350.312 795.27 348.749C794.971 347.168 794.923 344.832 795.128 341.741L795.746 332.414C795.97 329.031 796.511 326.412 797.368 324.559C798.226 322.705 799.644 321.265 801.622 320.239C803.6 319.213 806.071 318.798 809.034 318.994C811.521 319.159 813.627 319.675 815.351 320.543C817.095 321.393 818.412 322.444 819.303 323.697C820.193 324.95 820.77 326.219 821.034 327.504C821.316 328.79 821.372 330.723 821.201 333.301ZM810.3 329.824C810.424 327.959 810.401 326.781 810.231 326.293C810.063 325.786 809.649 325.51 808.991 325.467C808.332 325.423 807.877 325.641 807.625 326.12C807.374 326.581 807.187 327.744 807.063 329.61L805.975 346.042C805.861 347.761 805.896 348.893 806.08 349.438C806.266 349.965 806.679 350.249 807.319 350.291C807.977 350.335 808.423 350.126 808.655 349.664C808.906 349.203 809.084 348.186 809.188 346.613L810.3 329.824ZM848.631 322.279L841.034 358.339L826.577 357.381L823.42 320.609L833.323 321.265L834.664 348.025C835.03 346.102 835.747 341.374 836.816 333.84C837.425 329.637 838.062 325.565 838.727 321.623L848.631 322.279ZM859.273 337.146L848.876 336.457L849.038 334.016C849.224 331.199 849.688 329.053 850.429 327.578C851.189 326.085 852.586 324.819 854.621 323.778C856.655 322.737 859.236 322.32 862.363 322.527C866.112 322.776 868.894 323.63 870.707 325.091C872.522 326.534 873.557 328.237 873.813 330.202C874.07 332.147 873.999 336.129 873.6 342.146L872.39 360.416L861.609 359.702L861.823 356.465C861.061 357.718 860.118 358.638 858.995 359.225C857.892 359.795 856.6 360.031 855.119 359.933C853.18 359.805 851.433 359.147 849.876 357.96C848.34 356.756 847.693 354.316 847.937 350.64L848.135 347.65C848.315 344.925 848.868 343.097 849.793 342.167C850.718 341.236 852.925 340.225 856.414 339.133C860.148 337.948 862.159 337.117 862.448 336.64C862.737 336.163 862.931 335.166 863.032 333.648C863.158 331.746 863.093 330.502 862.838 329.915C862.603 329.312 862.156 328.988 861.497 328.945C860.747 328.895 860.265 329.111 860.049 329.593C859.835 330.056 859.66 331.303 859.526 333.333L859.273 337.146ZM862.454 342.371C860.594 343.552 859.488 344.572 859.138 345.431C858.805 346.29 858.584 347.543 858.475 349.189C858.351 351.073 858.389 352.297 858.59 352.861C858.81 353.427 859.286 353.734 860.017 353.782C860.712 353.828 861.174 353.648 861.403 353.241C861.652 352.816 861.837 351.69 861.958 349.861L862.454 342.371ZM890.623 320.184L890.243 325.917L893.233 326.115L892.852 331.876L889.861 331.678L888.571 351.155C888.412 353.551 888.443 354.894 888.662 355.184C888.9 355.475 889.924 355.681 891.735 355.801L891.346 361.672L886.875 361.375C884.351 361.208 882.556 360.988 881.49 360.716C880.426 360.425 879.507 359.877 878.734 359.073C877.961 358.25 877.507 357.347 877.37 356.365C877.234 355.364 877.286 353.053 877.526 349.432L878.751 330.942L876.364 330.784L876.746 325.023L879.133 325.181L879.512 319.448L890.623 320.184ZM907.675 318.145L907.292 323.933L895.88 323.177L896.263 317.389L907.675 318.145ZM907.145 326.155L904.733 362.558L893.321 361.802L895.733 325.399L907.145 326.155ZM935.377 340.865L934.786 349.781C934.569 353.054 934.245 355.448 933.814 356.963C933.385 358.459 932.586 359.839 931.419 361.102C930.252 362.348 928.798 363.234 927.054 363.761C925.331 364.272 923.371 364.454 921.177 364.309C918.726 364.147 916.668 363.744 915.002 363.101C913.338 362.44 912.066 361.538 911.186 360.396C910.326 359.237 909.746 357.876 909.445 356.313C909.146 354.732 909.099 352.396 909.303 349.305L909.921 339.978C910.145 336.594 910.686 333.976 911.544 332.122C912.401 330.269 913.819 328.829 915.798 327.803C917.776 326.777 920.246 326.362 923.209 326.558C925.696 326.723 927.802 327.239 929.527 328.106C931.27 328.956 932.588 330.008 933.478 331.261C934.369 332.514 934.946 333.783 935.21 335.068C935.492 336.354 935.548 338.286 935.377 340.865ZM924.476 337.388C924.599 335.522 924.576 334.345 924.407 333.856C924.238 333.349 923.825 333.074 923.166 333.03C922.508 332.986 922.053 333.204 921.8 333.684C921.549 334.144 921.362 335.308 921.239 337.173L920.15 353.605C920.036 355.325 920.071 356.457 920.256 357.001C920.441 357.528 920.854 357.813 921.494 357.855C922.153 357.899 922.598 357.689 922.831 357.227C923.082 356.766 923.259 355.749 923.363 354.176L924.476 337.388ZM951.175 329.072L950.761 332.406C951.654 331.124 952.698 330.192 953.894 329.61C955.11 329.011 956.476 328.762 957.994 328.862C959.896 328.988 961.421 329.539 962.569 330.515C963.716 331.491 964.419 332.677 964.675 334.071C964.933 335.448 964.956 337.727 964.746 340.909L963.056 366.422L951.973 365.688L953.643 340.477C953.809 337.971 953.828 336.439 953.699 335.879C953.571 335.32 953.132 335.015 952.382 334.965C951.596 334.913 951.081 335.201 950.837 335.827C950.595 336.436 950.383 338.112 950.201 340.855L948.571 365.462L937.488 364.728L939.9 328.325L951.175 329.072Z" fill="white" style="fill:white;fill-opacity:1;"/>
<rect x="7.2998" y="228.409" width="7.23069" height="7.23069" transform="rotate(3.79 7.2998 228.409)" fill="white" stroke="#0D99FF" style="fill:white;fill-opacity:1;stroke:#0D99FF;stroke:color(display-p3 0.0510 0.6000 1.0000);stroke-opacity:1;" stroke-width="0.769312"/>
<rect x="0.887686" y="325.197" width="7.23069" height="7.23069" transform="rotate(3.79 0.887686 325.197)" fill="white" stroke="#0D99FF" style="fill:white;fill-opacity:1;stroke:#0D99FF;stroke:color(display-p3 0.0510 0.6000 1.0000);stroke-opacity:1;" stroke-width="0.769312"/>
<rect x="988.724" y="390.636" width="7.23069" height="7.23069" transform="rotate(3.79 988.724 390.636)" fill="white" stroke="#0D99FF" style="fill:white;fill-opacity:1;stroke:#0D99FF;stroke:color(display-p3 0.0510 0.6000 1.0000);stroke-opacity:1;" stroke-width="0.769312"/>
<rect x="995.136" y="293.848" width="7.23069" height="7.23069" transform="rotate(3.79 995.136 293.848)" fill="white" stroke="#0D99FF" style="fill:white;fill-opacity:1;stroke:#0D99FF;stroke:color(display-p3 0.0510 0.6000 1.0000);stroke-opacity:1;" stroke-width="0.769312"/>
<g filter="url(#filter0_d_2004_1915)">
<rect x="703" y="2" width="300" height="300" rx="150" fill="white" style="fill:white;fill-opacity:1;" shape-rendering="crispEdges"/>
<path d="M906.552 49.1055H883.963V140.505H906.552V49.1055Z" fill="#F9421E" style="fill:#F9421E;fill:color(display-p3 0.9765 0.2588 0.1176);fill-opacity:1;"/>
<path d="M864.79 49.1055H842.201V140.505H864.79V49.1055Z" fill="#00AEEF" style="fill:#00AEEF;fill:color(display-p3 0.0000 0.6824 0.9373);fill-opacity:1;"/>
<path d="M941.829 49.1055H883.93V71.6943H941.829V49.1055Z" fill="#F9421E" style="fill:#F9421E;fill:color(display-p3 0.9765 0.2588 0.1176);fill-opacity:1;"/>
<path d="M941.886 83.4644H919.242V106.053H941.886V83.4644Z" fill="#F9421E" style="fill:#F9421E;fill:color(display-p3 0.9765 0.2588 0.1176);fill-opacity:1;"/>
<path d="M829.361 49.1055H800.328L761 94.8517L800.328 140.505H829.361L790.033 94.8517L829.361 49.1055Z" fill="#22B244" style="fill:#22B244;fill:color(display-p3 0.1333 0.6980 0.2667);fill-opacity:1;"/>
<path d="M771.698 165.94L771.521 167.576L772.494 166.338L783.104 154.358H791.414L777.976 168.946L791.459 186.895H783.325L773.29 173.014L771.698 174.605V186.895H765.2V154.358H771.698V165.94ZM796.326 154.358H818.518V160.547H802.736V167.488H816.705V173.677H802.736V180.706H819.137V186.895H796.326V154.358ZM835.627 154.358C837.66 154.358 839.473 154.623 841.064 155.154C842.656 155.655 843.982 156.392 845.043 157.364C846.133 158.307 846.958 159.457 847.518 160.812C848.078 162.139 848.358 163.642 848.358 165.321C848.358 166.648 848.152 167.974 847.739 169.3C847.356 170.626 846.708 171.835 845.794 172.925C844.91 174.016 843.731 174.9 842.258 175.578C840.784 176.226 838.957 176.55 836.776 176.55H832.179V186.895H825.769V154.358H835.627ZM836.732 170.361C837.704 170.361 838.515 170.199 839.163 169.875C839.812 169.551 840.313 169.138 840.666 168.637C841.049 168.136 841.315 167.62 841.462 167.09C841.639 166.53 841.727 166.014 841.727 165.543C841.727 165.189 841.668 164.747 841.55 164.216C841.462 163.656 841.256 163.096 840.932 162.536C840.607 161.976 840.106 161.505 839.429 161.122C838.78 160.739 837.896 160.547 836.776 160.547H832.179V170.361H836.732ZM842.744 174.34L850.79 186.895H843.319L835.096 174.517L842.744 174.34ZM852.405 186.895L867.082 153.076H867.436L882.113 186.895H874.686L865.314 163.111L869.956 159.928L858.727 186.895H852.405ZM862.44 175.135H872.21L874.465 180.529H860.451L862.44 175.135ZM886.855 154.358H893.265V180.706H908.561V186.895H886.855V154.358ZM911.506 186.895L926.183 153.076H926.537L941.214 186.895H933.787L924.415 163.111L929.057 159.928L917.828 186.895H911.506ZM921.541 175.135H931.311L933.566 180.529H919.552L921.541 175.135ZM763.582 191.888H767.524V211.895H763.582V191.888ZM790.601 212.71L775.433 199.01L776.602 199.662L776.683 211.895H772.687V191.1H772.85L787.692 204.746L786.822 204.365L786.741 191.888H790.709V212.71H790.601ZM813.775 212.71L798.607 199.01L799.776 199.662L799.857 211.895H795.861V191.1H796.024L810.866 204.746L809.996 204.365L809.915 191.888H813.883V212.71H813.775ZM817.812 201.919C817.812 200.541 818.075 199.237 818.6 198.004C819.126 196.772 819.851 195.685 820.775 194.742C821.717 193.782 822.805 193.03 824.037 192.486C825.269 191.943 826.592 191.671 828.006 191.671C829.401 191.671 830.715 191.943 831.947 192.486C833.179 193.03 834.267 193.782 835.209 194.742C836.169 195.685 836.912 196.772 837.438 198.004C837.981 199.237 838.253 200.541 838.253 201.919C838.253 203.332 837.981 204.655 837.438 205.887C836.912 207.12 836.169 208.207 835.209 209.149C834.267 210.073 833.179 210.798 831.947 211.324C830.715 211.849 829.401 212.112 828.006 212.112C826.592 212.112 825.269 211.849 824.037 211.324C822.805 210.798 821.717 210.073 820.775 209.149C819.851 208.207 819.126 207.12 818.6 205.887C818.075 204.655 817.812 203.332 817.812 201.919ZM821.89 201.919C821.89 202.807 822.044 203.64 822.352 204.419C822.678 205.18 823.122 205.86 823.684 206.458C824.263 207.038 824.925 207.491 825.668 207.817C826.429 208.143 827.253 208.306 828.141 208.306C828.993 208.306 829.781 208.143 830.506 207.817C831.249 207.491 831.893 207.038 832.436 206.458C832.98 205.86 833.406 205.18 833.714 204.419C834.022 203.64 834.176 202.807 834.176 201.919C834.176 201.013 834.013 200.17 833.687 199.391C833.379 198.611 832.944 197.932 832.382 197.352C831.838 196.754 831.195 196.292 830.452 195.966C829.709 195.639 828.903 195.476 828.033 195.476C827.163 195.476 826.356 195.639 825.613 195.966C824.87 196.292 824.218 196.754 823.656 197.352C823.095 197.932 822.66 198.611 822.352 199.391C822.044 200.17 821.89 201.013 821.89 201.919ZM843.846 191.888L849.69 206.295L847.407 205.833L852.708 191.888H857.383L848.25 212.819L839.117 191.888H843.846ZM855.854 211.895L864.878 191.1H865.096L874.12 211.895H869.554L863.791 197.27L866.645 195.313L859.741 211.895H855.854ZM862.024 204.664H868.032L869.418 207.98H860.801L862.024 204.664ZM874.058 191.888H887.541V195.694H882.675V211.895H878.734V195.694H874.058V191.888ZM891.345 191.888H895.286V211.895H891.345V191.888ZM899.226 201.919C899.226 200.541 899.489 199.237 900.015 198.004C900.54 196.772 901.265 195.685 902.189 194.742C903.132 193.782 904.219 193.03 905.451 192.486C906.683 191.943 908.006 191.671 909.42 191.671C910.815 191.671 912.129 191.943 913.361 192.486C914.594 193.03 915.681 193.782 916.623 194.742C917.584 195.685 918.327 196.772 918.852 198.004C919.396 199.237 919.668 200.541 919.668 201.919C919.668 203.332 919.396 204.655 918.852 205.887C918.327 207.12 917.584 208.207 916.623 209.149C915.681 210.073 914.594 210.798 913.361 211.324C912.129 211.849 910.815 212.112 909.42 212.112C908.006 212.112 906.683 211.849 905.451 211.324C904.219 210.798 903.132 210.073 902.189 209.149C901.265 208.207 900.54 207.12 900.015 205.887C899.489 204.655 899.226 203.332 899.226 201.919ZM903.304 201.919C903.304 202.807 903.458 203.64 903.766 204.419C904.092 205.18 904.536 205.86 905.098 206.458C905.678 207.038 906.339 207.491 907.082 207.817C907.843 208.143 908.668 208.306 909.556 208.306C910.407 208.306 911.196 208.143 911.921 207.817C912.664 207.491 913.307 207.038 913.851 206.458C914.394 205.86 914.82 205.18 915.128 204.419C915.436 203.64 915.59 202.807 915.59 201.919C915.59 201.013 915.427 200.17 915.101 199.391C914.793 198.611 914.358 197.932 913.796 197.352C913.253 196.754 912.609 196.292 911.866 195.966C911.123 195.639 910.317 195.476 909.447 195.476C908.577 195.476 907.771 195.639 907.028 195.966C906.285 196.292 905.632 196.754 905.071 197.352C904.509 197.932 904.074 198.611 903.766 199.391C903.458 200.17 903.304 201.013 903.304 201.919ZM941.51 212.71L926.343 199.01L927.511 199.662L927.593 211.895H923.597V191.1H923.76L938.602 204.746L937.732 204.365L937.65 191.888H941.619V212.71H941.51ZM764.67 218.465H782.438V223.873H770.271V230.323H780.816V235.731H770.271V246.895H764.67V218.465ZM787.831 218.465H807.222V223.873H793.432V229.937H805.638V235.345H793.432V241.487H807.763V246.895H787.831V218.465ZM828.738 225.34C827.657 224.748 826.549 224.259 825.416 223.873C824.309 223.486 823.266 223.293 822.287 223.293C821.077 223.293 820.124 223.538 819.429 224.027C818.734 224.516 818.386 225.25 818.386 226.229C818.386 226.898 818.644 227.504 819.159 228.044C819.699 228.559 820.382 229.023 821.206 229.435C822.056 229.847 822.931 230.22 823.833 230.555C824.657 230.864 825.468 231.238 826.266 231.675C827.09 232.087 827.824 232.615 828.468 233.259C829.112 233.877 829.627 234.662 830.013 235.615C830.399 236.542 830.592 237.688 830.592 239.053C830.592 240.495 830.219 241.834 829.472 243.07C828.725 244.306 827.631 245.311 826.189 246.083C824.747 246.83 822.97 247.204 820.858 247.204C819.777 247.204 818.669 247.101 817.536 246.895C816.429 246.663 815.334 246.328 814.253 245.89C813.171 245.427 812.128 244.847 811.124 244.152L813.596 239.787C814.266 240.276 814.987 240.714 815.759 241.1C816.558 241.461 817.356 241.744 818.154 241.95C818.953 242.156 819.686 242.259 820.356 242.259C821.026 242.259 821.695 242.169 822.365 241.989C823.06 241.783 823.627 241.448 824.064 240.985C824.528 240.521 824.76 239.877 824.76 239.053C824.76 238.487 824.566 237.972 824.18 237.508C823.82 237.045 823.317 236.62 822.674 236.233C822.056 235.847 821.373 235.512 820.626 235.229C819.751 234.894 818.85 234.508 817.923 234.07C816.995 233.632 816.12 233.105 815.296 232.486C814.498 231.843 813.841 231.057 813.326 230.13C812.837 229.177 812.592 228.019 812.592 226.654C812.592 225.006 812.952 223.576 813.673 222.366C814.42 221.156 815.463 220.203 816.802 219.508C818.141 218.787 819.686 218.387 821.438 218.31C823.73 218.31 825.584 218.581 827 219.121C828.442 219.662 829.73 220.306 830.863 221.053L828.738 225.34ZM834.146 218.465H853.306V223.873H846.391V246.895H840.79V223.873H834.146V218.465ZM858.711 218.465H864.312V246.895H858.711V218.465ZM875.937 218.465L884.242 238.937L880.998 238.281L888.53 218.465H895.174L882.195 248.208L869.216 218.465H875.937ZM893.001 246.895L905.825 217.344H906.134L918.959 246.895H912.469L904.28 226.113L908.336 223.332L898.525 246.895H893.001ZM901.769 236.62H910.306L912.276 241.332H900.031L901.769 236.62ZM923.103 218.465H928.704V241.487H942.069V246.895H923.103V218.465Z" fill="black" style="fill:black;fill-opacity:1;"/>
</g>
<defs>
<filter id="filter0_d_2004_1915" x="702" y="0" width="308" height="308" filterUnits="userSpaceOnUse" color-interpolation-filters="sRGB">
<feFlood flood-opacity="0" result="BackgroundImageFix"/>
<feColorMatrix in="SourceAlpha" type="matrix" values="0 0 0 0 0 0 0 0 0 0 0 0 0 0 0 0 0 0 127 0" result="hardAlpha"/>
<feOffset dx="3" dy="2"/>
<feGaussianBlur stdDeviation="2"/>
<feComposite in2="hardAlpha" operator="out"/>
<feColorMatrix type="matrix" values="0 0 0 0 0 0 0 0 0 0 0 0 0 0 0 0 0 0 0.25 0"/>
<feBlend mode="normal" in2="BackgroundImageFix" result="effect1_dropShadow_2004_1915"/>
<feBlend mode="normal" in="SourceGraphic" in2="effect1_dropShadow_2004_1915" result="shape"/>
</filter>
</defs>
</svg>
