<svg width="423" height="316" viewBox="0 0 423 316" fill="none" xmlns="http://www.w3.org/2000/svg">
<path d="M187.285 259.569C187.311 259.987 187.372 261.737 187.79 261.798C187.79 261.798 191.203 261.811 195.245 261.811C197.266 261.811 199.444 261.808 201.432 261.798C203.419 261.808 205.598 261.811 207.619 261.811C211.661 261.811 215.074 261.798 215.074 261.798C215.493 261.737 215.554 259.987 215.579 259.569C215.771 256.477 215.44 253.481 212.835 251.77C211.727 251.042 209.439 249.962 207.78 249.315C204.819 248.16 204.609 244.686 205.821 244.457C208.639 243.925 208.935 243.466 209.311 242.851C209.578 242.414 209.007 241.877 208.963 240.581C208.918 239.285 209.086 234.759 208.624 233.32C208.225 232.078 206.638 226.893 201.432 226.893C201.366 226.891 201.3 226.891 201.236 226.891C199.48 226.891 198.575 227.472 197.94 228.315C197.922 228.32 197.903 228.322 197.886 228.327C194.074 229.819 195.428 232.022 194.574 233.009C193.72 233.995 193.946 239.287 193.901 240.582C193.856 241.877 193.285 242.414 193.553 242.852C193.929 243.467 194.225 243.926 197.043 244.458C198.255 244.687 198.045 248.161 195.084 249.316C193.425 249.963 191.138 251.043 190.029 251.771C187.424 253.481 187.094 256.477 187.285 259.569Z" fill="#26BDE2"/>
<path d="M232.152 250.759C230.432 249.602 227.913 248.082 226.038 247.245C224.083 246.371 223.084 244.829 222.927 243.251C222.77 241.674 223.349 239.364 223.491 238.562C223.593 237.988 225.058 237.786 225.352 236.204C225.472 235.559 225.413 234.307 224.622 233.871C224.598 233.699 224.61 232.677 224.619 232.513C224.711 230.661 225.194 231.177 224.965 228.685C224.886 227.83 223.744 227.06 222.934 226.351C222.121 225.639 221.439 224.465 218.463 224.462C215.487 224.465 214.805 225.639 213.992 226.351C213.182 227.06 212.04 227.83 211.961 228.685C211.732 231.176 212.215 230.661 212.307 232.513C212.315 232.677 212.327 233.699 212.304 233.871C211.513 234.307 211.454 235.559 211.574 236.204C211.868 237.786 213.353 238.008 213.455 238.582C213.597 239.383 214.196 241.673 214.039 243.251C213.905 244.598 213.097 245.866 211.678 246.809C211.177 247.142 211.222 247.647 211.765 247.906C212.775 248.388 213.727 248.9 214.42 249.355C218.923 252.312 218.587 257.713 218.461 259.747L218.455 259.847C218.432 260.266 218.4 260.818 218.3 261.4C218.264 261.608 218.428 261.797 218.639 261.797H219.322H234.968C235.299 261.798 235.979 253.335 232.152 250.759Z" fill="#26BDE2"/>
<path d="M211.426 4C200.796 4 192.178 11.858 192.178 21.552C192.178 27.07 194.973 31.992 199.34 35.209V43.265L206.381 38.491C207.989 38.888 209.679 39.104 211.426 39.104C222.056 39.104 230.674 31.246 230.674 21.552C230.674 11.858 222.057 4 211.426 4ZM213.753 26.682L208.634 21.264L199.394 26.682L209.099 15.913L214.217 21.331L223.457 15.913L213.753 26.682Z" fill="#E5243B"/>
<path d="M230.18 129.578C229.776 126.163 228.021 123.903 226.868 122.736C223.109 118.851 217.016 118.851 213.257 122.736L210.569 125.514L207.881 122.736C204.122 118.851 198.029 118.851 194.27 122.736C193.117 123.903 191.361 126.163 190.958 129.578C190.213 135.882 193.547 144.176 210.565 153.65V153.654C210.565 153.654 210.567 153.653 210.569 153.652C210.569 153.652 210.571 153.653 210.573 153.654V153.65C227.592 144.176 230.925 135.882 230.18 129.578Z" fill="#E5243B"/>
<path d="M319.998 58.2139L317.703 54.3879C316.643 52.6219 316.083 50.5989 316.083 48.5399V45.1879C316.083 40.9569 313.26 37.3779 309.399 36.2239V33.8239C309.399 32.3489 308.2 31.1499 306.725 31.1499C305.25 31.1499 304.051 32.3489 304.051 33.8239V36.2239C300.19 37.3779 297.367 40.9569 297.367 45.1879V48.5399C297.367 50.5989 296.807 52.6199 295.748 54.3859L293.453 58.2119C293.329 58.4189 293.326 58.6759 293.445 58.8859C293.564 59.0959 293.785 59.2259 294.025 59.2259H319.426C319.667 59.2259 319.889 59.0959 320.008 58.8879C320.125 58.6789 320.121 58.4199 319.998 58.2139Z" fill="#26BDE2"/>
<path d="M306.724 64.517C308.584 64.517 310.18 63.418 310.934 61.843H302.514C303.269 63.418 304.865 64.517 306.724 64.517Z" fill="#26BDE2"/>
<path d="M56.772 115.273H51.011C49.348 115.273 48 116.621 48 118.285V135.717C48 137.38 49.348 138.728 51.011 138.728H56.772C58.435 138.728 59.784 137.38 59.784 135.717V118.285C59.784 116.622 58.435 115.273 56.772 115.273Z" fill="#26BDE2"/>
<path d="M89.7389 121.427C89.9039 119.735 88.7379 118.285 87.1649 117.992C88.9749 117.523 90.2119 115.631 89.5919 113.577C89.1599 112.144 87.7939 111.194 86.2979 111.194H86.2319H75.2459L77.3459 103.849C77.7029 102.595 77.8839 101.298 77.8839 99.9939V98.9839C77.8839 96.6419 75.9509 94.752 73.5939 94.822C72.2829 94.861 71.2559 95.9729 71.2559 97.2849V99.9159C71.2559 101.205 70.8359 102.459 70.0599 103.487L63.7759 111.661C62.8099 112.917 62.2859 114.458 62.2859 116.043V133.629C62.2859 134.755 63.1989 135.669 64.3259 135.669L85.4209 135.641C86.8449 135.641 87.9989 134.487 87.9989 133.063V132.751C87.9989 131.606 87.2519 130.636 86.2179 130.3C87.7569 130.155 88.9619 128.86 88.9619 127.283C88.9619 125.743 87.8119 124.473 86.3239 124.28H86.4759C88.1239 124.282 89.5789 123.068 89.7389 121.427Z" fill="#26BDE2"/>
<path d="M335.911 141.369C335.761 141.33 335.685 141.242 335.685 141.124V127.973C335.685 127.85 335.739 127.789 335.836 127.789C335.938 127.746 336.067 127.746 336.212 127.789L346.967 132.811C347.064 132.811 347.106 132.868 347.106 132.99C347.106 133.069 347.079 133.139 347.031 133.165L336.211 141.312C336.211 141.351 336.147 141.369 336.066 141.369H335.911ZM372.219 145.353H336.965C336.869 145.353 336.659 145.305 336.363 145.222C336.26 145.143 336.207 145.082 336.207 145.043C336.207 144.92 336.234 144.841 336.299 144.798L350.054 134.396C350.14 134.317 350.269 134.317 350.42 134.396L354.017 136.051C354.571 136.296 355.098 136.296 355.598 136.051L359.733 134.099C359.943 134.011 360.056 134.033 360.11 134.152L372.435 144.921C372.488 144.965 372.515 145.066 372.515 145.223C372.407 145.305 372.305 145.353 372.219 145.353ZM373.864 141.741C373.864 141.781 373.788 141.864 373.649 141.983H373.488C373.444 141.983 373.359 141.943 373.272 141.864L363.034 132.868C362.932 132.789 362.915 132.723 362.969 132.688C362.969 132.561 363.023 132.495 363.114 132.495L373.342 127.544H373.649C373.788 127.623 373.864 127.71 373.864 127.789V141.741ZM373.864 124.304C373.864 124.466 373.757 124.549 373.563 124.549C373.471 124.588 373.391 124.61 373.342 124.61C373.283 124.61 373.218 124.628 373.111 124.667L355.005 133.357C354.957 133.397 354.871 133.419 354.774 133.419L354.634 133.357L335.91 124.667C335.76 124.667 335.684 124.588 335.684 124.422V121.178C335.684 120.855 335.808 120.596 336.066 120.412C336.308 120.233 336.614 120.141 336.963 120.141H372.583C372.937 120.141 373.239 120.233 373.487 120.412C373.745 120.596 373.863 120.855 373.863 121.178V124.304H373.864Z" fill="#26BDE2"/>
<path d="M140.471 42.7829C140.357 32.8759 132.203 24.9089 122.293 25.0219H122.291H122.289C112.381 25.1359 104.414 33.2889 104.528 43.1969C104.642 53.1049 112.794 61.0719 122.702 60.9579H122.704C132.615 60.8409 140.585 52.6889 140.471 42.7829ZM122.683 58.9839C120.74 59.0059 118.611 55.7589 117.482 50.5469C119.092 50.7209 120.8 50.8099 122.59 50.7889C124.379 50.7679 126.084 50.6409 127.689 50.4299C126.679 55.6649 124.623 58.9599 122.683 58.9839ZM122.566 48.8139C120.611 48.8359 118.787 48.7189 117.108 48.5049C116.855 46.8319 116.696 45.0109 116.674 43.0559C116.652 41.1009 116.768 39.2769 116.983 37.5979C118.656 37.3449 120.477 37.1859 122.432 37.1629C124.386 37.1409 126.21 37.2569 127.888 37.4719C128.141 39.1449 128.3 40.9659 128.323 42.9219C128.345 44.8769 128.228 46.7009 128.014 48.3799C126.341 48.6329 124.52 48.7919 122.566 48.8139ZM115.06 48.1799C109.822 47.1699 106.527 45.1139 106.504 43.1729C106.482 41.2319 109.729 39.1019 114.942 37.9719C114.768 39.5819 114.679 41.2899 114.7 43.0799C114.721 44.8689 114.849 46.5739 115.06 48.1799ZM122.313 26.9949H122.315C124.256 26.9739 126.386 30.2199 127.516 35.4319C125.906 35.2579 124.199 35.1699 122.41 35.1899C120.62 35.2109 118.915 35.3379 117.309 35.5489C118.318 30.3129 120.372 27.0179 122.313 26.9949ZM129.937 37.7979C135.175 38.8069 138.47 40.8629 138.493 42.8039C138.515 44.7459 135.268 46.8769 130.055 48.0069C130.229 46.3969 130.318 44.6889 130.297 42.8989C130.276 41.1099 130.148 39.4039 129.937 37.7979ZM137.902 38.7299C135.99 37.3589 133.12 36.3019 129.608 35.7139C128.94 32.2199 127.818 29.3769 126.405 27.4969C131.962 28.8999 136.372 33.2079 137.902 38.7299ZM118.237 27.5889C116.867 29.5009 115.811 32.3699 115.223 35.8789C111.727 36.5469 108.882 37.6699 107.002 39.0839C108.406 33.5279 112.715 29.1179 118.237 27.5889ZM107.097 47.2489C109.009 48.6199 111.879 49.6769 115.389 50.2649C116.057 53.7599 117.179 56.6039 118.593 58.4829C113.036 57.0809 108.626 52.7719 107.097 47.2489ZM126.76 58.3879C128.13 56.4769 129.186 53.6079 129.773 50.0999C133.27 49.4309 136.116 48.3079 137.996 46.8929C136.594 52.4479 132.283 56.8579 126.76 58.3879Z" fill="#26BDE2"/>
<path d="M324.831 207.117C323.29 207.793 321.648 208.241 319.937 208.458C321.698 207.407 323.042 205.754 323.674 203.763C322.032 204.742 320.219 205.433 318.288 205.819C316.729 204.159 314.507 203.131 312.083 203.131C307.38 203.131 303.594 206.948 303.594 211.628C303.594 212.301 303.651 212.949 303.791 213.565C296.729 213.221 290.48 209.836 286.283 204.68C285.55 205.951 285.12 207.407 285.12 208.974C285.12 211.916 286.635 214.524 288.893 216.033C287.528 216.007 286.189 215.611 285.055 214.987C285.055 215.013 285.055 215.047 285.055 215.08C285.055 219.208 287.999 222.637 291.861 223.426C291.17 223.615 290.416 223.706 289.634 223.706C289.09 223.706 288.541 223.675 288.026 223.561C289.127 226.925 292.25 229.398 295.963 229.478C293.073 231.739 289.403 233.101 285.431 233.101C284.734 233.101 284.066 233.07 283.398 232.984C287.161 235.41 291.62 236.796 296.429 236.796C312.06 236.796 320.606 223.848 320.606 212.624C320.606 212.249 320.593 211.886 320.575 211.526C322.259 210.331 323.676 208.837 324.831 207.117Z" fill="#26BDE2"/>
<path d="M128.794 206.944L114.644 203.293C114.475 203.249 114.306 203.227 114.139 203.22C114.499 200.103 113.889 196.85 112.152 193.957C107.967 186.988 98.8939 184.724 91.9259 188.908C84.9579 193.093 82.6929 202.166 86.8769 209.134C91.0619 216.102 100.135 218.367 107.103 214.183C109.744 212.597 111.706 210.307 112.901 207.697C113.071 207.79 113.251 207.87 113.447 207.921L127.597 211.572C128.244 211.739 128.896 211.625 129.426 211.307C129.945 210.995 130.346 210.488 130.51 209.856C130.841 208.578 130.072 207.273 128.794 206.944ZM104.643 210.085C99.9349 212.912 93.8039 211.382 90.9759 206.674C88.1489 201.966 89.6789 195.835 94.3869 193.008C99.0949 190.181 105.226 191.711 108.053 196.419C110.882 201.127 109.351 207.258 104.643 210.085Z" fill="#26BDE2"/>
<path d="M150.445 229.967C152.47 229.967 154.413 230.289 156.276 230.931C158.137 231.574 159.787 232.548 161.224 233.847C162.661 235.149 163.811 236.784 164.672 238.756C165.535 240.726 165.966 243.026 165.966 245.655C165.966 246.038 165.946 246.544 165.905 247.175C165.864 247.804 165.775 248.475 165.638 249.186C165.501 249.899 165.295 250.623 165.023 251.362C164.749 252.101 164.371 252.773 163.893 253.375C163.414 253.977 162.812 254.462 162.086 254.832C161.36 255.202 160.492 255.386 159.479 255.386C158.74 255.386 158.116 255.284 157.611 255.079C157.103 254.873 156.7 254.62 156.398 254.318C156.098 254.018 155.872 253.675 155.722 253.292C155.57 252.909 155.468 252.54 155.413 252.183C154.537 253.059 153.489 253.731 152.271 254.194C151.053 254.661 149.773 254.894 148.431 254.894C146.378 254.894 144.811 254.353 143.729 253.27C142.648 252.189 142.107 250.787 142.107 249.061C142.107 247.913 142.333 246.941 142.785 246.145C143.237 245.351 143.818 244.716 144.531 244.236C145.242 243.757 146.056 243.414 146.975 243.21C147.891 243.005 148.828 242.901 149.787 242.901C150.855 242.901 151.765 243.005 152.518 243.21C153.272 243.415 153.84 243.599 154.222 243.764C154.222 243.107 154.154 242.505 154.017 241.957C153.88 241.409 153.641 240.944 153.298 240.561C152.956 240.178 152.491 239.876 151.902 239.657C151.313 239.439 150.567 239.329 149.665 239.329C148.515 239.329 147.495 239.487 146.606 239.801C145.715 240.116 144.956 240.548 144.326 241.095L143.176 237.688C145.202 236.318 147.585 235.634 150.322 235.634C152.183 235.634 153.634 235.914 154.675 236.475C155.715 237.038 156.488 237.742 156.995 238.59C157.502 239.44 157.81 240.377 157.919 241.403C158.028 242.429 158.084 243.395 158.084 244.297V247.665C158.084 248.267 158.097 248.863 158.125 249.452C158.151 250.041 158.234 250.561 158.371 251.013C158.508 251.463 158.713 251.833 158.986 252.122C159.26 252.409 159.629 252.553 160.095 252.553C160.78 252.553 161.341 252.286 161.78 251.753C162.217 251.218 162.546 250.575 162.765 249.823C162.984 249.071 163.135 248.29 163.217 247.482C163.299 246.675 163.339 246.012 163.339 245.49C163.339 243.629 163.032 241.905 162.415 240.316C161.8 238.729 160.917 237.354 159.767 236.189C158.617 235.026 157.234 234.115 155.619 233.458C154.004 232.801 152.212 232.473 150.24 232.473C148.296 232.473 146.531 232.795 144.944 233.438C143.355 234.081 142 234.971 140.878 236.106C139.754 237.243 138.886 238.597 138.269 240.172C137.654 241.748 137.345 243.465 137.345 245.327C137.345 247.106 137.634 248.775 138.208 250.336C138.782 251.897 139.604 253.266 140.671 254.443C141.739 255.619 143.032 256.543 144.552 257.215C146.072 257.885 147.789 258.22 149.707 258.22C151.075 258.22 152.232 258.07 153.177 257.77C154.121 257.468 155.112 257.098 156.154 256.661L156.893 259.083C155.743 259.631 154.552 260.042 153.321 260.316C152.088 260.588 150.856 260.727 149.625 260.727C147.571 260.727 145.642 260.357 143.835 259.618C142.028 258.879 140.446 257.838 139.091 256.496C137.736 255.155 136.669 253.533 135.888 251.63C135.108 249.728 134.718 247.599 134.718 245.245C134.718 242.782 135.149 240.599 136.01 238.694C136.873 236.792 138.03 235.198 139.482 233.911C140.932 232.624 142.602 231.646 144.491 230.974C146.379 230.302 148.363 229.967 150.445 229.967ZM152.293 250.908C152.867 250.636 153.326 250.279 153.667 249.84C154.01 249.403 154.18 248.909 154.18 248.362V246.72C153.797 246.583 153.202 246.418 152.395 246.227C151.586 246.036 150.732 245.94 149.828 245.94C148.597 245.94 147.645 246.179 146.975 246.659C146.303 247.138 145.968 247.911 145.968 248.979C145.968 249.855 146.214 250.525 146.707 250.99C147.199 251.457 147.925 251.688 148.883 251.688C149.348 251.688 149.903 251.627 150.546 251.503C151.189 251.382 151.772 251.182 152.293 250.908Z" fill="#26BDE2"/>
<path d="M128.658 268.742H122.771L121.725 273.157H126.761V277.767H120.603L118.936 284.7H113.979L115.683 277.767H112.158L110.454 284.7H105.496L107.239 277.767H102.863V273.157H108.324L109.37 268.742H104.76V264.482H110.415L112.197 257.2H117.155L115.334 264.482H118.898L120.678 257.2H125.636L123.815 264.482H128.657L128.658 268.742ZM116.807 273.157L117.853 268.742H114.289L113.243 273.157H116.807Z" fill="#26BDE2"/>
<path d="M265.884 177.558H254.106C253.063 177.558 252.213 176.708 252.213 175.665V161.54L253.834 163.161C254.264 163.591 254.827 163.806 255.391 163.806C255.955 163.806 256.518 163.591 256.948 163.161C257.808 162.301 257.808 160.908 256.948 160.048L251.461 154.563C250.601 153.703 249.208 153.703 248.348 154.563L242.863 160.048C242.003 160.908 242.003 162.301 242.863 163.161C243.723 164.021 245.116 164.021 245.976 163.161L247.811 161.326V175.665C247.811 179.137 250.636 181.962 254.108 181.962H265.886C267.101 181.962 268.088 180.976 268.088 179.76C268.088 178.544 267.099 177.558 265.884 177.558Z" fill="#26BDE2"/>
<path d="M281.567 169.421C280.707 168.561 279.314 168.561 278.454 169.421L276.619 171.256V156.917C276.619 153.446 273.794 150.62 270.322 150.62H258.177C256.962 150.62 255.975 151.606 255.975 152.822C255.975 154.038 256.961 155.024 258.177 155.024H270.322C271.365 155.024 272.215 155.874 272.215 156.917V171.042L270.594 169.421C269.734 168.561 268.341 168.561 267.481 169.421C266.621 170.281 266.621 171.674 267.481 172.534L272.968 178.019C273.398 178.449 273.961 178.664 274.525 178.664C275.089 178.664 275.652 178.449 276.082 178.019L281.567 172.534C282.427 171.675 282.427 170.281 281.567 169.421Z" fill="#26BDE2"/>
<path d="M162.553 131.458C162.131 131.458 161.705 131.376 161.299 131.207C160.071 130.698 159.279 129.512 159.279 128.185V123.203H158.787C152.512 123.203 147.408 118.098 147.408 111.824V108.094C147.408 101.819 152.513 96.7151 158.787 96.7151H168.963C175.238 96.7151 180.342 101.82 180.342 108.094V111.824C179.886 122.151 166.555 129.706 164.51 130.804C163.94 131.234 163.252 131.458 162.553 131.458ZM158.787 101.495C155.148 101.495 152.188 104.455 152.188 108.094V111.824C152.188 115.463 155.148 118.423 158.787 118.423H159.635C162.075 118.423 164.059 120.409 164.059 122.849V125.549C168.375 122.88 175.311 117.419 175.564 111.718L175.561 108.093C175.561 104.454 172.601 101.494 168.962 101.494L158.787 101.495Z" fill="#26BDE2"/>
<path d="M170.161 152.081H157.247C151.999 152.081 147.729 156.351 147.729 161.599V174.513C147.729 179.761 151.999 184.031 157.247 184.031H170.161C175.409 184.031 179.679 179.761 179.679 174.513V161.599C179.678 156.351 175.409 152.081 170.161 152.081ZM176.464 174.513C176.464 177.995 173.642 180.817 170.16 180.817H157.246C153.764 180.817 150.942 177.995 150.942 174.513V161.599C150.942 158.117 153.764 155.295 157.246 155.295H170.16C173.642 155.295 176.464 158.117 176.464 161.599V174.513Z" fill="#26BDE2"/>
<path d="M163.704 159.793C159.148 159.793 155.441 163.5 155.441 168.056C155.441 172.612 159.148 176.319 163.704 176.319C168.26 176.319 171.967 172.612 171.967 168.056C171.967 163.5 168.26 159.793 163.704 159.793ZM163.704 173.105C160.915 173.105 158.655 170.844 158.655 168.056C158.655 165.267 160.916 163.007 163.704 163.007C166.493 163.007 168.753 165.268 168.753 168.056C168.753 170.845 166.492 173.105 163.704 173.105Z" fill="#26BDE2"/>
<path d="M171.983 161.835C173.076 161.835 173.963 160.949 173.963 159.855C173.963 158.761 173.076 157.875 171.983 157.875C170.889 157.875 170.003 158.761 170.003 159.855C170.003 160.949 170.889 161.835 171.983 161.835Z" fill="#26BDE2"/>
<path d="M280.342 110.36C280.342 120.448 272.163 128.627 262.075 128.627C251.987 128.627 243.808 120.448 243.808 110.36C243.808 100.272 251.987 92.093 262.075 92.093C272.163 92.093 280.342 100.272 280.342 110.36Z" fill="#26BDE2"/>
<path d="M263.549 116.555C262.169 116.447 261.589 115.763 260.506 115.105C259.91 118.228 259.183 121.222 257.028 122.786C256.363 118.066 258.004 114.52 258.767 110.758C257.468 108.569 258.923 104.164 261.665 105.25C265.039 106.584 258.743 113.386 262.97 114.235C267.382 115.122 269.184 106.579 266.447 103.8C262.493 99.788 254.937 103.709 255.867 109.452C256.093 110.856 257.544 111.282 256.446 113.22C253.916 112.659 253.161 110.663 253.258 108.004C253.415 103.649 257.171 100.6 260.939 100.177C265.706 99.644 270.178 101.927 270.795 106.409C271.491 111.469 268.645 116.948 263.549 116.555Z" fill="#F1F2F2"/>
<path d="M227.573 74.682L213.648 61.062C213.267 60.689 212.658 60.689 212.277 61.062L198.352 74.682C197.727 75.293 197.375 76.13 197.375 77.004V92.656C197.375 93.197 197.814 93.636 198.355 93.636H208.062C208.603 93.636 209.042 93.197 209.042 92.656V79.389C209.042 78.848 209.481 78.409 210.022 78.409H215.903C216.444 78.409 216.883 78.848 216.883 79.389V92.656C216.883 93.197 217.322 93.636 217.863 93.636H227.57C228.111 93.636 228.55 93.197 228.55 92.656V77.004C228.549 76.13 228.197 75.293 227.573 74.682Z" fill="#26BDE2"/>
<path d="M210.73 187.141C208.167 187.141 206.081 189.226 206.081 191.79C206.081 194.352 208.166 196.437 210.73 196.437C213.292 196.437 215.377 194.352 215.377 191.79C215.377 189.226 213.291 187.141 210.73 187.141Z" fill="#26BDE2"/>
<path d="M224.511 181.206H219.392C218.381 181.206 217.465 180.612 217.052 179.689L216.486 178.423C215.972 177.273 214.83 176.533 213.571 176.533H207.886C206.627 176.533 205.485 177.273 204.971 178.423L204.405 179.689C203.993 180.612 203.076 181.206 202.065 181.206H196.946C195.289 181.206 193.945 182.549 193.945 184.207V200.724C193.945 202.381 195.288 203.725 196.946 203.725H224.51C226.167 203.725 227.511 202.382 227.511 200.724V184.207C227.512 182.55 226.168 181.206 224.511 181.206ZM210.73 201.217C205.53 201.217 201.301 196.987 201.301 191.789C201.301 186.59 205.531 182.36 210.73 182.36C215.928 182.36 220.158 186.59 220.158 191.789C220.158 196.987 215.928 201.217 210.73 201.217Z" fill="#26BDE2"/>
<path d="M354.579 76.017C354.025 75.375 353.188 75.0911 352.385 75.2231H321.419C320.431 75.2231 319.545 75.8321 319.189 76.7531C318.833 77.6741 319.082 78.72 319.813 79.383L330.524 89.103L332.19 103.335C332.305 104.315 333.012 105.125 333.969 105.371C334.167 105.422 334.367 105.447 334.565 105.447C335.324 105.447 336.054 105.084 336.51 104.446L354.717 78.9681C355.357 78.0711 355.301 76.851 354.579 76.017ZM342.835 80.004L333.119 85.004L327.609 80.004H342.835ZM336.218 96.631L335.352 89.239L345.071 84.241L336.218 96.631Z" fill="#E5243B"/>
<path fill-rule="evenodd" clip-rule="evenodd" d="M269.279 14.6941C272.659 14.7771 275.812 15.7801 278.869 17.1421C281.305 18.2281 283.527 19.7091 285.557 21.4291C285.986 21.7751 286.537 22.0731 286.44 22.7781C285.414 23.7811 284.35 24.7481 283.36 25.7751C282.966 26.1811 282.763 26.1811 282.345 25.7871C278.654 22.4441 274.284 20.4371 269.352 19.8881C262.175 19.0761 255.821 21.0941 250.412 25.9301C250.28 26.0501 250.137 26.1931 249.706 26.5761C248.632 25.3691 247.557 24.1511 246.483 22.9331C246.351 22.3001 246.841 22.0131 247.223 21.6911C249.468 19.6981 251.952 18.0971 254.698 16.9271C256.943 15.9351 259.261 15.2081 261.696 14.8371C262.437 14.7421 263.201 14.6941 263.941 14.6941C264.562 14.7061 265.803 14.6941 266.425 14.6941C267.142 14.6941 268.552 14.6821 269.279 14.6941Z" fill="#26BDE2"/>
<path fill-rule="evenodd" clip-rule="evenodd" d="M265.733 47.857C264.037 47.427 262.64 46.591 261.839 44.955C260.538 42.244 261.816 38.984 264.633 37.921C267.428 36.871 270.557 38.422 271.393 41.253C272.24 44.178 270.449 47.092 267.452 47.713C267.381 47.736 267.273 47.808 267.189 47.856C266.688 47.857 266.187 47.857 265.733 47.857Z" fill="#26BDE2"/>
<path fill-rule="evenodd" clip-rule="evenodd" d="M266.545 22.3601C271.775 22.4081 276.433 24.1281 280.445 27.6021C280.923 28.0201 280.971 28.2601 280.469 28.7141C279.537 29.5491 278.653 30.4931 277.77 31.4131C277.47 31.6991 277.316 31.7241 277.006 31.4361C273.543 28.3911 269.482 27.1011 264.92 27.5071C261.552 27.8181 258.555 29.1311 256.035 31.4131C255.629 31.7821 255.403 31.8071 255.02 31.4011C254.148 30.4571 253.217 29.5371 252.261 28.6301C251.915 28.3191 251.939 28.1641 252.285 27.8661C256.323 24.2361 261.075 22.4201 266.545 22.3601Z" fill="#26BDE2"/>
<path fill-rule="evenodd" clip-rule="evenodd" d="M272.038 37.1321C268.838 34.2671 264.467 34.1351 261.267 36.7981C260.956 37.0491 260.789 37.1441 260.478 36.8101C259.571 35.8781 258.663 34.9591 257.696 34.0631C257.421 33.8001 257.409 33.6801 257.696 33.3941C262.222 28.9991 270.629 28.9641 275.215 33.3571C275.478 33.6201 275.383 33.7521 275.167 33.9671C274.153 34.9951 273.101 36.0341 272.038 37.1321Z" fill="#26BDE2"/>
<path d="M309.991 147.962C309.445 148.015 308.928 148.15 308.446 148.35L300.507 141.826C300.657 141.332 300.761 140.818 300.761 140.274C300.761 139.565 300.616 138.892 300.367 138.272L308.446 131.633C308.927 131.833 309.445 131.967 309.991 132.021C312.948 132.31 315.58 130.148 315.87 127.191C316.16 124.234 313.997 121.602 311.04 121.312C308.083 121.023 305.451 123.185 305.161 126.142C305.097 126.792 305.158 127.423 305.314 128.02L296.72 135.082C296.29 134.971 295.847 134.894 295.382 134.894C292.411 134.894 290.002 137.303 290.002 140.274C290.002 143.245 292.411 145.654 295.382 145.654C296.03 145.654 296.644 145.521 297.219 145.311L305.313 151.963C305.158 152.56 305.097 153.191 305.16 153.841C305.449 156.798 308.081 158.961 311.039 158.671C313.997 158.381 316.159 155.75 315.869 152.792C315.58 149.835 312.948 147.673 309.991 147.962Z" fill="#26BDE2"/>
<path d="M159.34 23.2161C163.086 23.2161 166.122 20.1797 166.122 16.4341C166.122 12.6885 163.086 9.6521 159.34 9.6521C155.595 9.6521 152.558 12.6885 152.558 16.4341C152.558 20.1797 155.595 23.2161 159.34 23.2161Z" fill="#26BDE2"/>
<path fill-rule="evenodd" clip-rule="evenodd" d="M165.019 42.7861H153.52C152.208 42.7861 151.145 41.7231 151.145 40.4111V30.1201C151.145 28.1411 152.749 26.5371 154.728 26.5371H163.81C165.789 26.5371 167.393 28.1411 167.393 30.1201V40.4111C167.394 41.7221 166.331 42.7861 165.019 42.7861Z" fill="#26BDE2"/>
<path d="M176.343 24.6571C179.037 24.6571 181.221 22.4732 181.221 19.7791C181.221 17.0851 179.037 14.9011 176.343 14.9011C173.649 14.9011 171.465 17.0851 171.465 19.7791C171.465 22.4732 173.649 24.6571 176.343 24.6571Z" fill="#26BDE2"/>
<path fill-rule="evenodd" clip-rule="evenodd" d="M179.76 38.7312H172.824C171.512 38.7312 170.449 37.6682 170.449 36.3562V30.6282C170.449 28.6492 172.053 27.0452 174.032 27.0452H178.552C180.531 27.0452 182.135 28.6492 182.135 30.6282V36.3562C182.135 37.6682 181.072 38.7312 179.76 38.7312Z" fill="#26BDE2"/>
<path d="M336.338 200.268C335.835 200.268 335.326 200.17 334.842 199.969C333.379 199.364 332.434 197.951 332.434 196.368V193.325C332.434 192.552 331.804 191.921 331.03 191.921H330.333C326.056 191.921 322.578 188.443 322.578 184.166V170.942C322.578 166.665 326.056 163.187 330.333 163.187H352.539C356.814 163.187 360.292 166.665 360.292 170.942V184.166C360.292 188.443 356.814 191.921 352.539 191.921H346.874C346.499 191.921 346.146 192.067 345.881 192.332L339.089 199.124C338.344 199.873 337.351 200.268 336.338 200.268ZM330.334 167.969C328.694 167.969 327.36 169.303 327.36 170.943V184.167C327.36 185.807 328.694 187.141 330.334 187.141H331.031C334.441 187.141 337.216 189.916 337.216 193.326V194.24L342.503 188.953C343.67 187.784 345.223 187.142 346.876 187.142H352.541C354.18 187.142 355.513 185.808 355.513 184.168V170.944C355.513 169.304 354.179 167.97 352.541 167.97H330.334V167.969Z" fill="#E5243B"/>
<path d="M78.231 179.97C77.923 179.97 77.612 179.911 77.316 179.788C76.423 179.418 75.841 178.546 75.841 177.58V170.399C72.188 170.506 65.453 172.092 59.998 178.77C59.397 179.503 58.423 179.819 57.503 179.561C56.589 179.306 55.912 178.534 55.779 177.594C55.726 177.22 54.546 168.379 60.253 161.56C63.758 157.371 68.995 154.923 75.841 154.269V147.214C75.841 146.248 76.423 145.376 77.316 145.006C78.208 144.637 79.238 144.841 79.921 145.524L95.104 160.707C96.038 161.641 96.038 163.153 95.104 164.087L79.921 179.27C79.464 179.727 78.852 179.97 78.231 179.97ZM76.16 165.599C77.089 165.599 77.933 165.674 78.666 165.809C79.799 166.018 80.622 167.006 80.622 168.159V171.808L90.034 162.396L80.622 152.984V156.506C80.622 157.793 79.604 158.848 78.319 158.895C71.747 159.133 66.902 161.061 63.92 164.627C62.147 166.745 61.253 169.164 60.814 171.292C66.145 167.09 72.006 165.599 76.16 165.599Z" fill="#E5243B"/>
<path d="M270.889 250.886H253.142C251.002 250.886 249.267 249.151 249.267 247.011V229.263C249.267 227.123 251.002 225.388 253.142 225.388H270.89C273.03 225.388 274.765 227.123 274.765 229.263V247.011C274.764 249.151 273.03 250.886 270.889 250.886Z" fill="#E5243B"/>
<path d="M265.274 236.438H263.242V234.407C263.242 233.599 262.587 232.944 261.779 232.944C260.971 232.944 260.316 233.599 260.316 234.407V236.438H258.285C257.477 236.438 256.822 237.093 256.822 237.901C256.822 238.709 257.477 239.364 258.285 239.364H260.316V241.396C260.316 242.204 260.971 242.859 261.779 242.859C262.587 242.859 263.242 242.204 263.242 241.396V239.364H265.274C266.082 239.364 266.737 238.709 266.737 237.901C266.737 237.093 266.082 236.438 265.274 236.438Z" fill="white"/>
<path d="M122.687 88.147C117.629 88.147 113.514 84.032 113.514 78.974C113.514 73.916 117.629 69.801 122.687 69.801C127.745 69.801 131.86 73.916 131.86 78.974C131.86 84.032 127.745 88.147 122.687 88.147ZM122.687 74.582C120.265 74.582 118.295 76.552 118.295 78.974C118.295 81.396 120.265 83.366 122.687 83.366C125.109 83.366 127.079 81.396 127.079 78.974C127.079 76.552 125.109 74.582 122.687 74.582Z" fill="#26BDE2"/>
<path d="M130.741 107.527C129.421 107.527 128.351 106.456 128.351 105.137V98.3829C128.351 96.5529 126.862 95.063 125.031 95.063H120.202C118.372 95.063 116.882 96.5519 116.882 98.3829V104.672C116.882 105.992 115.811 107.062 114.492 107.062C113.173 107.062 112.102 105.991 112.102 104.672V98.3829C112.102 93.9169 115.736 90.283 120.202 90.283H125.031C129.497 90.283 133.131 93.9169 133.131 98.3829V105.137C133.132 106.456 132.061 107.527 130.741 107.527Z" fill="#26BDE2"/>
<path d="M111.689 86.4381H109.657V84.4071C109.657 83.5991 109.002 82.9441 108.194 82.9441C107.386 82.9441 106.731 83.5991 106.731 84.4071V86.4381H104.7C103.892 86.4381 103.237 87.0931 103.237 87.9011C103.237 88.7091 103.892 89.3641 104.7 89.3641H106.731V91.3961C106.731 92.2041 107.386 92.8591 108.194 92.8591C109.002 92.8591 109.657 92.2041 109.657 91.3961V89.3641H111.689C112.497 89.3641 113.152 88.7091 113.152 87.9011C113.152 87.0931 112.497 86.4381 111.689 86.4381Z" fill="#26BDE2"/>
<path d="M85.3659 77.9781C91.3068 77.9781 96.1229 73.162 96.1229 67.2211C96.1229 61.2802 91.3068 56.4641 85.3659 56.4641C79.425 56.4641 74.6089 61.2802 74.6089 67.2211C74.6089 73.162 79.425 77.9781 85.3659 77.9781Z" fill="#E5243B"/>
<path d="M86.2748 65.2412H82.1348V63.2202H89.7638L84.9178 73.0512H82.4118L86.2748 65.2412Z" fill="white"/>
<path d="M167.286 221.572C173.227 221.572 178.043 216.756 178.043 210.815C178.043 204.874 173.227 200.058 167.286 200.058C161.345 200.058 156.529 204.874 156.529 210.815C156.529 216.756 161.345 221.572 167.286 221.572Z" fill="#E5243B"/>
<path d="M167.507 209.278C167.978 209.278 168.412 209.356 168.809 209.513C169.206 209.67 169.55 209.887 169.84 210.163C170.131 210.44 170.358 210.772 170.519 211.16C170.68 211.548 170.761 211.976 170.761 212.447C170.761 212.946 170.669 213.401 170.485 213.811C170.299 214.221 170.044 214.575 169.716 214.871C169.388 215.166 168.998 215.394 168.546 215.556C168.093 215.718 167.595 215.799 167.05 215.799C166.33 215.799 165.684 215.655 165.112 215.369C164.539 215.083 164.105 214.681 163.81 214.165L165.042 212.794C165.31 213.117 165.621 213.375 165.977 213.569C166.331 213.762 166.694 213.86 167.064 213.86C167.498 213.86 167.843 213.735 168.102 213.486C168.36 213.237 168.49 212.904 168.49 212.489C168.49 212.093 168.37 211.774 168.13 211.534C167.89 211.294 167.576 211.174 167.189 211.174C166.94 211.174 166.71 211.23 166.497 211.34C166.285 211.451 166.114 211.608 165.985 211.811H164.06C164.06 211.802 164.079 211.707 164.116 211.528C164.152 211.347 164.196 211.115 164.247 210.829C164.298 210.543 164.358 210.222 164.428 209.866C164.497 209.512 164.569 209.148 164.642 208.779C164.809 207.912 164.997 206.928 165.21 205.83H170.098V207.851H166.816L166.54 209.527C166.596 209.463 166.704 209.405 166.865 209.354C167.026 209.303 167.239 209.278 167.507 209.278Z" fill="white"/>
<path d="M112.747 251.151C118.688 251.151 123.504 246.335 123.504 240.394C123.504 234.453 118.688 229.637 112.747 229.637C106.806 229.637 101.99 234.453 101.99 240.394C101.99 246.335 106.806 251.151 112.747 251.151Z" fill="#E5243B"/>
<path d="M114.42 239.97C114.706 240.026 114.969 240.124 115.209 240.268C115.449 240.411 115.654 240.591 115.825 240.808C115.996 241.025 116.127 241.274 116.22 241.555C116.312 241.837 116.359 242.139 116.359 242.462C116.359 242.896 116.271 243.285 116.095 243.632C115.92 243.978 115.668 244.274 115.341 244.518C115.013 244.763 114.618 244.952 114.157 245.086C113.695 245.219 113.178 245.286 112.606 245.286C111.203 245.286 110.104 244.875 109.31 244.054L110.501 242.476C110.75 242.735 111.033 242.931 111.353 243.065C111.671 243.199 112.051 243.265 112.495 243.265C113.538 243.265 114.059 242.882 114.059 242.116C114.059 241.701 113.905 241.387 113.595 241.175C113.286 240.963 112.799 240.857 112.135 240.857H111.719V239.265H112.176C112.693 239.265 113.097 239.159 113.388 238.947C113.678 238.734 113.824 238.453 113.824 238.102C113.824 237.797 113.718 237.567 113.506 237.41C113.294 237.253 113.012 237.175 112.661 237.175C112.283 237.175 111.939 237.265 111.63 237.445C111.32 237.626 111.06 237.882 110.848 238.214L109.45 236.609C109.597 236.415 109.792 236.235 110.032 236.069C110.271 235.903 110.544 235.762 110.848 235.646C111.153 235.531 111.48 235.441 111.831 235.376C112.182 235.312 112.541 235.279 112.911 235.279C113.399 235.279 113.848 235.337 114.254 235.452C114.66 235.567 115.006 235.733 115.292 235.95C115.578 236.167 115.8 236.426 115.957 236.725C116.113 237.025 116.192 237.36 116.192 237.729C116.192 238.006 116.148 238.269 116.06 238.518C115.972 238.767 115.85 238.994 115.693 239.197C115.536 239.4 115.349 239.568 115.132 239.702C114.915 239.836 114.677 239.924 114.42 239.97Z" fill="white"/>
<path d="M98.8019 312.323C104.743 312.323 109.559 307.507 109.559 301.566C109.559 295.625 104.743 290.809 98.8019 290.809C92.861 290.809 88.0449 295.625 88.0449 301.566C88.0449 307.507 92.861 312.323 98.8019 312.323Z" fill="#E5243B"/>
<path d="M101.932 303.525V305.519H95.9509V303.525H97.9169V299.995C97.8339 300.105 97.7049 300.219 97.5289 300.334C97.3539 300.45 97.1579 300.556 96.9409 300.652C96.7239 300.75 96.5028 300.828 96.2758 300.887C96.0488 300.948 95.8489 300.978 95.6729 300.978V298.928C95.8209 298.928 96.0128 298.877 96.2478 298.776C96.4828 298.675 96.7159 298.552 96.9469 298.41C97.1769 298.266 97.3849 298.121 97.5699 297.973C97.7549 297.825 97.8698 297.705 97.9158 297.613H100.173V303.525H101.932Z" fill="white"/>
<path d="M301.059 192.187C307 192.187 311.816 187.371 311.816 181.43C311.816 175.489 307 170.673 301.059 170.673C295.118 170.673 290.302 175.489 290.302 181.43C290.302 187.371 295.118 192.187 301.059 192.187Z" fill="#E5243B"/>
<path d="M297.41 180.43C297.41 179.95 297.503 179.5 297.687 179.079C297.872 178.659 298.125 178.295 298.449 177.985C298.771 177.676 299.155 177.431 299.597 177.252C300.04 177.072 300.52 176.981 301.037 176.981C301.609 176.981 302.121 177.087 302.574 177.3C303.026 177.512 303.409 177.817 303.722 178.213C304.036 178.61 304.277 179.1 304.443 179.681C304.609 180.263 304.692 180.918 304.692 181.647C304.692 182.505 304.602 183.27 304.421 183.939C304.241 184.608 303.985 185.171 303.653 185.628C303.32 186.084 302.914 186.433 302.434 186.673C301.954 186.913 301.413 187.033 300.814 187.033C300.205 187.033 299.639 186.908 299.118 186.659C298.597 186.41 298.138 186.05 297.741 185.579L298.987 184.167C299.217 184.462 299.494 184.693 299.817 184.859C300.14 185.025 300.482 185.108 300.841 185.108C301.386 185.108 301.818 184.914 302.136 184.526C302.454 184.138 302.623 183.589 302.642 182.879C302.456 183.128 302.212 183.322 301.908 183.461C301.603 183.599 301.248 183.668 300.842 183.668C300.353 183.668 299.899 183.585 299.479 183.419C299.059 183.253 298.697 183.024 298.392 182.733C298.087 182.443 297.847 182.101 297.672 181.709C297.498 181.318 297.41 180.891 297.41 180.43ZM301.038 178.851C300.835 178.851 300.641 178.893 300.456 178.976C300.271 179.059 300.11 179.172 299.972 179.315C299.833 179.459 299.723 179.627 299.64 179.821C299.557 180.014 299.515 180.217 299.515 180.43C299.515 180.642 299.554 180.838 299.633 181.018C299.711 181.199 299.82 181.355 299.958 181.489C300.096 181.623 300.258 181.729 300.442 181.807C300.627 181.886 300.825 181.925 301.038 181.925C301.241 181.925 301.434 181.886 301.619 181.807C301.804 181.729 301.966 181.622 302.104 181.489C302.242 181.355 302.353 181.199 302.436 181.018C302.519 180.838 302.561 180.642 302.561 180.43C302.561 180.217 302.519 180.014 302.436 179.821C302.353 179.627 302.242 179.459 302.104 179.315C301.965 179.172 301.803 179.059 301.619 178.976C301.435 178.893 301.241 178.851 301.038 178.851Z" fill="white"/>
<path d="M163.169 65.926C164.457 65.926 165.502 64.8815 165.502 63.593C165.502 62.3045 164.457 61.26 163.169 61.26C161.88 61.26 160.836 62.3045 160.836 63.593C160.836 64.8815 161.88 65.926 163.169 65.926Z" fill="#E5243B"/>
<path d="M180.21 54.4719H156.704C155.384 54.4719 154.314 55.5429 154.314 56.8619V80.3679C154.314 81.6879 155.385 82.7579 156.704 82.7579H180.21C181.53 82.7579 182.6 81.6869 182.6 80.3679V56.8619C182.601 55.5429 181.53 54.4719 180.21 54.4719ZM177.82 59.2529V66.8379L176.238 65.2559C175.714 64.7319 174.866 64.7319 174.342 65.2559L169.875 69.7229C169.813 69.7849 169.714 69.7849 169.652 69.7229L167.827 67.8979C167.381 67.4519 166.659 67.4519 166.213 67.8979L159.095 75.0159V59.2519H177.82V59.2529Z" fill="#E5243B"/>
<path d="M133.671 123.014H112.101C110.039 123.014 108.37 124.693 108.37 126.745V170.544C108.37 172.606 110.039 174.275 112.101 174.275H133.671C135.733 174.275 137.402 172.606 137.402 170.544V126.745C137.402 124.693 135.733 123.014 133.671 123.014ZM117.564 125.286H128.207C128.48 125.286 128.7 125.688 128.7 126.18C128.7 126.682 128.48 127.084 128.207 127.084H117.564C117.288 127.084 117.078 126.682 117.078 126.18C117.079 125.687 117.289 125.286 117.564 125.286ZM122.89 170.588C121.575 170.588 120.499 169.521 120.499 168.209C120.499 166.894 121.575 165.827 122.89 165.827C124.193 165.827 125.26 166.894 125.26 168.209C125.26 169.521 124.193 170.588 122.89 170.588ZM133.803 162.425H111.966V129.318H133.803V162.425Z" fill="#26BDE2"/>
<path d="M128.351 137.157H116.996C116.115 137.157 115.402 136.444 115.402 135.563C115.402 134.682 116.115 133.969 116.996 133.969H128.351C129.232 133.969 129.945 134.682 129.945 135.563C129.945 136.444 129.232 137.157 128.351 137.157Z" fill="#26BDE2"/>
<path d="M128.351 143.83H116.996C116.115 143.83 115.402 143.117 115.402 142.236C115.402 141.355 116.115 140.642 116.996 140.642H128.351C129.232 140.642 129.945 141.355 129.945 142.236C129.945 143.117 129.232 143.83 128.351 143.83Z" fill="#26BDE2"/>
<path d="M128.351 150.504H116.996C116.115 150.504 115.402 149.791 115.402 148.91C115.402 148.029 116.115 147.316 116.996 147.316H128.351C129.232 147.316 129.945 148.029 129.945 148.91C129.945 149.791 129.232 150.504 128.351 150.504Z" fill="#26BDE2"/>
<path d="M128.351 157.177H116.996C116.115 157.177 115.402 156.464 115.402 155.583C115.402 154.702 116.115 153.989 116.996 153.989H128.351C129.232 153.989 129.945 154.702 129.945 155.583C129.944 156.464 129.232 157.177 128.351 157.177Z" fill="#26BDE2"/>
<path d="M301.059 114.631C300.262 114.631 299.517 114.234 299.073 113.571L289.64 99.491C285.998 94.053 286.714 86.751 291.341 82.125C296.698 76.765 305.419 76.765 310.776 82.125C315.403 86.752 316.119 94.054 312.477 99.491L303.044 113.571C302.601 114.234 301.856 114.631 301.059 114.631ZM301.059 82.885C298.764 82.885 296.47 83.758 294.722 85.506C291.706 88.524 291.239 93.286 293.612 96.831L301.059 107.946L308.506 96.831C310.879 93.286 310.412 88.524 307.396 85.506C305.649 83.758 303.355 82.885 301.059 82.885Z" fill="#26BDE2"/>
<path d="M300.926 96.5039C303.236 96.5039 305.109 94.6311 305.109 92.3209C305.109 90.0107 303.236 88.1379 300.926 88.1379C298.616 88.1379 296.743 90.0107 296.743 92.3209C296.743 94.6311 298.616 96.5039 300.926 96.5039Z" fill="#26BDE2"/>
<path d="M268.525 73.9941C268.523 77.8131 265.425 80.9071 261.606 80.9041C259.776 80.9031 258.021 80.1761 256.726 78.8831L250.439 72.6011C249.14 71.3061 248.411 69.5461 248.414 67.7111C248.414 66.3891 248.793 65.0951 249.506 63.9821C249.773 63.5621 250.086 63.1721 250.439 62.8211C250.84 62.4211 251.394 62.2121 251.96 62.2481C252.433 62.2821 252.879 62.4851 253.214 62.8211C253.948 63.6011 253.948 64.8171 253.214 65.5971C252.058 66.7541 252.058 68.6281 253.214 69.7851L259.516 76.0921C260.674 77.2501 262.551 77.2501 263.709 76.0921C264.867 74.9341 264.867 73.0571 263.709 71.8991L259.975 68.1701C259.833 68.0291 259.79 67.8171 259.866 67.6321C260.274 66.6281 260.482 65.5551 260.478 64.4711V64.2731C260.476 64.0001 260.696 63.7781 260.969 63.7761C261.102 63.7751 261.229 63.8281 261.323 63.9221L266.509 69.1081C267.806 70.4031 268.531 72.1621 268.525 73.9941Z" fill="#26BDE2"/>
<path d="M258.998 64.442V64.472V64.818C258.988 65.064 258.965 65.31 258.929 65.554C258.894 65.756 258.855 65.954 258.806 66.152L258.727 66.443C258.697 66.547 258.663 66.655 258.623 66.759C258.584 66.863 258.549 66.971 258.504 67.075C258.46 67.179 258.42 67.282 258.371 67.386C258.03 68.121 257.562 68.79 256.988 69.362C256.587 69.762 256.033 69.971 255.467 69.935C254.99 69.903 254.541 69.7 254.203 69.362C253.469 68.582 253.469 67.366 254.203 66.586C255.359 65.429 255.359 63.555 254.203 62.398L252.593 60.778L252.549 60.738L247.921 56.105C246.763 54.947 244.886 54.947 243.728 56.105C242.57 57.263 242.57 59.14 243.728 60.298L247.442 64.017C247.584 64.158 247.627 64.37 247.551 64.555C247.141 65.557 246.932 66.629 246.934 67.711V67.894C246.938 68.096 246.819 68.28 246.633 68.358C246.448 68.438 246.233 68.397 246.09 68.254L240.914 63.073C238.214 60.373 238.214 55.994 240.914 53.294C243.614 50.594 247.993 50.594 250.693 53.294L256.98 59.581C257.865 60.465 258.493 61.573 258.798 62.786V62.84L258.857 63.126L258.887 63.284L258.936 63.625V63.793C258.936 63.921 258.961 64.035 258.966 64.144L258.998 64.442Z" fill="#26BDE2"/>
<path d="M246.463 213.667V196.472C246.463 194.77 248.254 193.663 249.776 194.425L266.971 203.023C268.658 203.867 268.658 206.274 266.971 207.118L249.776 215.716C248.254 216.475 246.463 215.368 246.463 213.667Z" fill="#26BDE2"/>
</svg>
