<?xml version="1.0" encoding="UTF-8"?>
<svg id="Layer_2" data-name="Layer 2" xmlns="http://www.w3.org/2000/svg" viewBox="0 0 780 779.84">
  <defs>
    <style>
      .cls-1 {
        fill: #00a7d7;
      }

      .cls-2 {
        fill: #0076b8;
      }

      .cls-3 {
        fill: #ec640f;
      }

      .cls-4 {
        fill: #f59c0e;
      }

      .cls-5 {
        fill: #e6301c;
      }

      .cls-6 {
        fill: #fff;
      }

      .cls-7 {
        fill: #fbb800;
      }

      .cls-8 {
        fill: #931831;
      }

      .cls-9 {
        fill: #dd0979;
      }

      .cls-10 {
        fill: #c11628;
      }

      .cls-11 {
        fill: #d28d0d;
      }

      .cls-12 {
        fill: #e2061e;
      }

      .cls-13 {
        fill: #d6a207;
      }

      .cls-14 {
        fill: #1e3263;
      }

      .cls-15 {
        fill: #074c84;
      }

      .cls-16 {
        fill: #3ea635;
      }

      .cls-17 {
        fill: #497635;
      }

      .cls-18 {
        fill: #249437;
      }
    </style>
  </defs>
  <g id="Layer_1-2" data-name="Layer 1">
    <path class="cls-16" d="m200.39,278.67c9.67-16.43,21.43-31.55,34.96-44.97l-114.64-125.68c-28.95,27.68-53.49,59.62-72.77,94.72l152.45,75.93Z"/>
    <path class="cls-13" d="m481.39,189.88c17.26,7.9,33.42,18.03,48.06,30.11l114.95-125.5c-30.49-26.29-64.84-47.72-101.86-63.55l-61.15,158.94Z"/>
    <path class="cls-10" d="m744.62,227.67l-152.34,75.95c7.37,17.21,12.49,35.3,15.24,53.82l169.48-16c-4.89-39.36-15.81-77.73-32.38-113.77Z"/>
    <path class="cls-18" d="m581.34,281.6l152.33-75.93c-18.8-34.93-42.8-66.8-71.17-94.52l-114.96,125.48c13.15,13.48,24.51,28.6,33.8,44.97Z"/>
    <path class="cls-17" d="m170.12,389.86c0-3.44.1-6.86.26-10.25L.88,364.43c-.55,8.4-.88,16.87-.88,25.43,0,31.78,3.88,63.44,11.54,94.28l163.74-46.96c-3.43-15.54-5.16-31.41-5.16-47.33Z"/>
    <path class="cls-7" d="m560.02,529.18c-12.06,14.67-25.96,27.74-41.35,38.88l89.5,144.92c33.2-22.5,62.76-49.95,87.65-81.39l-135.8-102.41Z"/>
    <path class="cls-5" d="m609.89,389.86c.02,15.73-1.67,31.4-5.05,46.76l163.71,47.05c7.62-30.69,11.46-62.19,11.45-93.81,0-8.03-.28-16-.76-23.95l-169.49,16.02c.08,2.66.14,5.27.14,7.92"/>
    <path class="cls-4" d="m222.75,532.42l-135.5,102.97c25.25,31.07,55.09,58.1,88.5,80.15l89.47-144.74c-15.75-10.91-30.03-23.81-42.47-38.38Z"/>
    <path class="cls-2" d="m172.86,355.14c2.98-18.84,8.44-37.2,16.24-54.6L36.8,224.67c-17.14,36.43-28.48,75.32-33.62,115.25l169.67,15.22Z"/>
    <path class="cls-8" d="m587.35,726.09l-89.36-144.73c-16.4,9.28-33.94,16.41-52.16,21.2l31.55,167.41c38.69-8.92,75.78-23.72,109.98-43.89"/>
    <path class="cls-1" d="m598.34,460.33c-5.88,17.25-13.87,33.71-23.8,49l135.93,102.52c22.29-32.06,39.63-67.29,51.42-104.52l-163.56-47Z"/>
    <path class="cls-3" d="m421.72,607.45c-10.5,1.53-21.1,2.3-31.72,2.3-8.56-.02-17.11-.52-25.61-1.5l-31.51,167.41c18.91,2.77,38,4.16,57.12,4.17,21.18,0,42.32-1.71,63.21-5.13l-31.5-167.26Z"/>
    <path class="cls-12" d="m404.06,170.4c18.51,1.18,36.8,4.71,54.42,10.51l61.13-158.89C482.43,8.89,443.47,1.51,404.06.14v170.26Z"/>
    <path class="cls-9" d="m340.18,604.05c-18.82-4.38-36.98-11.25-54-20.42l-89.53,144.84c34.91,19.98,72.71,34.43,112.04,42.82l31.49-167.23Z"/>
    <path class="cls-14" d="m323.92,180.12c18.01-5.69,36.69-9.01,55.55-9.88V0c-39.9,1.05-79.4,8.25-117.11,21.33l61.56,158.79h0Z"/>
    <path class="cls-11" d="m207.84,512.86c-10.93-16.1-19.65-33.59-25.93-52.01l-163.63,46.96c12.28,38.61,30.52,75.05,54.06,108.02l135.49-102.97Z"/>
    <path class="cls-15" d="m253.76,217.38c14.46-11.45,30.3-21.04,47.16-28.54L239.39,30.14c-36.36,15.3-70.19,36.02-100.33,61.46l114.7,125.78Z"/>
    <path class="cls-6" d="m475.8,77.58c.06-.31.17-.61.35-.87.17-.27.39-.49.66-.67.26-.18.55-.3.86-.37.31-.06.63-.07.94,0,.31.06.61.18.87.36.26.18.49.4.66.67.18.26.3.56.36.87.06.31.06.63,0,.94-.13.61-.49,1.15-1.02,1.5-.52.35-1.16.47-1.78.35-.61-.12-1.16-.48-1.51-1-.35-.52-.49-1.15-.38-1.77Z"/>
    <path class="cls-6" d="m480.24,81.81c.76.22,1.41.72,1.83,1.4.41.68.56,1.49.4,2.26l-1.26,6.49c-.05.24-.19.45-.39.59-.2.14-.45.19-.69.14-.24-.05-.45-.19-.59-.39-.14-.2-.19-.45-.14-.69l1.08-5.58c.02-.06.03-.13.03-.19,0-.06-.03-.13-.06-.18-.03-.06-.08-.1-.13-.14-.05-.04-.12-.06-.18-.07-.27-.05-.37.22-.42.4l-3.25,16.72c-.07.35-.27.65-.56.85-.29.2-.65.27-1,.2-.35-.07-.65-.27-.85-.56-.2-.29-.27-.65-.2-1l1.87-9.63s.02-.1,0-.15c0-.05-.03-.1-.06-.14-.03-.04-.06-.08-.11-.11-.04-.03-.09-.05-.14-.05-.05-.01-.09-.01-.14,0-.05,0-.09.02-.13.05-.04.02-.08.06-.11.1-.03.04-.05.08-.06.13,0,.01,0,.03,0,.04l-1.87,9.63c-.03.17-.09.34-.18.49-.09.15-.21.28-.36.38-.14.1-.3.17-.47.21-.17.04-.35.04-.52.02-.17-.03-.34-.09-.48-.18-.15-.09-.28-.21-.38-.35-.1-.14-.17-.3-.21-.47-.04-.17-.05-.35-.02-.52v-.07s3.26-16.72,3.26-16.72c.03-.18.02-.47-.24-.52-.39-.07-.5.2-.54.41l-1.08,5.58c-.06.23-.2.43-.4.55-.2.13-.44.17-.67.13-.23-.05-.44-.18-.58-.37-.14-.19-.2-.43-.16-.66l1.26-6.49c.15-.78.59-1.47,1.23-1.95.64-.47,1.43-.69,2.22-.61.06,0,.12,0,.17.02l5.12,1c.06.01.12.03.17.05"/>
    <path class="cls-6" d="m461.63,76.1c.08-.44.04-.89-.14-1.3-.17-.41-.46-.76-.84-1.01-.37-.25-.81-.38-1.26-.37-.45,0-.88.14-1.25.39-.37.25-.66.6-.83,1.02s-.21.87-.12,1.3.31.84.62,1.15c.32.31.72.53,1.16.61.29.06.59.06.88,0,.29-.06.57-.18.81-.34.25-.17.46-.38.62-.63.16-.25.28-.52.33-.82Z"/>
    <path class="cls-6" d="m453.96,79.82l-3.01,5.64s-.54,1.04.34,1.49c.88.46,1.37-.56,1.37-.56l2.46-4.72s.16-.37.43-.23c.27.14.08.53.08.53l-4.41,8.88,2.41.47-1.31,6.72c-.06.31,0,.62.18.88.18.26.45.44.75.5.31.06.62,0,.88-.18s.44-.44.5-.75l1.31-6.72.66.13-1.31,6.72c-.05.3.02.61.19.87.18.25.44.43.74.48.3.06.61,0,.87-.17.26-.17.44-.43.5-.73l1.31-6.72,2.41.47-.76-9.89s-.03-.43.28-.46.31.37.31.37l.51,5.3s.07,1.13,1.06,1.03c.98-.09.87-1.26.87-1.26l-.68-6.37s-.32-1.86-1.78-2.15l-4.7-.91c-1.46-.28-2.46,1.32-2.46,1.32"/>
    <path class="cls-6" d="m448.34,73.51c.06-.29.05-.59,0-.88-.06-.29-.18-.57-.34-.81-.17-.25-.38-.46-.63-.62-.25-.16-.52-.28-.82-.33-.59-.11-1.2,0-1.69.34-.5.33-.84.85-.95,1.44-.11.59,0,1.2.34,1.69.33.5.85.84,1.44.95.59.11,1.2,0,1.69-.34.5-.33.84-.85.95-1.44Z"/>
    <path class="cls-6" d="m440.68,77.23l-3.01,5.64s-.54,1.04.34,1.49,1.37-.56,1.37-.56l2.46-4.72s.16-.37.43-.23c.27.14.08.53.08.53l-4.41,8.89,2.41.47-1.31,6.72c-.05.3.02.61.19.87.18.25.44.43.74.48.3.06.61,0,.87-.17.26-.17.44-.43.5-.73l1.31-6.72.66.13-1.31,6.72c-.05.3.02.61.19.87.17.25.44.43.74.48.3.06.61,0,.87-.17.26-.17.44-.43.5-.73l1.31-6.72,2.41.47-.76-9.89s-.03-.43.28-.46c.3-.03.31.37.31.37l.51,5.3s.07,1.13,1.06,1.04.87-1.26.87-1.26l-.68-6.36s-.32-1.86-1.78-2.15l-4.7-.91c-1.46-.28-2.46,1.32-2.46,1.32"/>
    <path class="cls-6" d="m466.66,89.96c.49,0,.95-.19,1.29-.54.34-.34.54-.81.54-1.3,0-.49-.19-.95-.54-1.29-.34-.34-.81-.54-1.3-.54s-.95.19-1.29.54c-.34.34-.54.81-.54,1.29,0,.49.19.95.54,1.3.34.34.81.54,1.29.54h0Z"/>
    <path class="cls-6" d="m461.12,94.84c-.05.07-.1.14-.12.22-.02.08-.03.17-.02.25,0,.09.03.17.07.24.04.08.1.14.16.2h0s0,0,0,0c.13.09.29.13.44.11.16-.02.3-.09.4-.21l1.63-3.01s.22-.18.17.04l-1.47,7.53h0c-.04.25.01.5.15.7.14.21.35.35.6.41.24.05.5,0,.71-.12.21-.13.37-.34.43-.58v-.04s.59-2.97.59-2.97c0,0,.03-.43.37-.37.34.07.2.48.2.48l-.58,2.97c-.05.25,0,.51.15.73.14.21.37.36.62.41.25.05.51,0,.73-.15.21-.14.36-.37.41-.62l1.47-7.54c.04-.22.13-.04.13-.04l.36,2.35c.04.38.13.75.25,1.11.13.09.28.13.44.12.15,0,.3-.07.42-.17.12-.1.2-.24.23-.39.03-.15.02-.31-.05-.45h0c0-.08-.61-3.14-.67-3.56-.18-1.3-.94-1.43-1.67-1.6-.73-.17-1.17-.23-1.17-.23,0,0-.46-.11-1.43-.27-.97-.16-1.37.28-2.96,2.8-.23.36-.99,1.54-1.01,1.61h0Z"/>
    <path class="cls-6" d="m428.77,68.43c.06-.31.06-.63,0-.93-.06-.31-.18-.6-.36-.86-.18-.26-.4-.48-.66-.66-.26-.17-.56-.29-.86-.35-.31-.06-.63-.06-.93,0-.31.06-.6.19-.86.36-.26.18-.48.4-.65.66-.17.26-.29.56-.35.86-.12.62.01,1.26.36,1.79.35.52.9.89,1.52,1.01.62.12,1.26,0,1.79-.36.52-.35.89-.9,1.01-1.52Z"/>
    <path class="cls-6" d="m423.06,70.69c-.79-.08-1.58.14-2.22.61-.64.47-1.07,1.17-1.22,1.95l-1.26,6.49c-.02.12-.02.24,0,.36.02.12.07.23.14.33.07.1.15.19.26.25.1.07.21.11.33.14.12.02.24.02.36,0,.12-.02.23-.07.33-.14.1-.07.19-.16.25-.26.07-.1.11-.21.14-.33l1.08-5.58c.04-.21.16-.48.54-.4.26.05.26.34.24.52l-3.25,16.72c-.04.17-.05.35-.02.52.03.17.09.34.19.49.09.15.22.28.36.38.14.1.31.17.48.21.17.04.35.04.52,0,.17-.03.34-.1.49-.2.15-.1.27-.22.37-.37.1-.15.17-.31.2-.48,0-.02,0-.04.01-.05l1.87-9.63c0-.05.02-.1.05-.14.03-.04.06-.08.1-.11.04-.03.09-.05.14-.06.05,0,.1,0,.15,0,.2.03.34.21.31.41,0,.01,0,.03,0,.04l-1.87,9.63c-.06.34.02.69.22.98.2.28.5.48.84.55s.69,0,.98-.19c.29-.19.49-.48.57-.82l3.25-16.72c.04-.18.16-.45.42-.4.38.08.39.37.35.58l-1.09,5.58c-.02.12-.02.24,0,.36.02.12.07.23.14.33.07.1.15.19.26.25.1.07.21.11.33.14.12.02.24.02.36,0,.12-.02.23-.07.33-.14.1-.07.19-.16.25-.26.07-.1.11-.21.14-.33l1.26-6.49c.15-.78,0-1.59-.41-2.26-.41-.68-1.07-1.18-1.83-1.4-.06-.02-.11-.04-.17-.05l-5.12-1c-.06-.01-.12-.02-.18-.02"/>
    <path class="cls-6" d="m414.74,92.45c-.16,0-.32-.04-.46-.12-.14-.08-.27-.19-.36-.32-.09-.13-.15-.29-.16-.45-.02-.16,0-.32.06-.47l4.23-10.62c.1-.24.29-.42.53-.52.24-.1.51-.1.74,0,.24.1.43.28.54.51.1.23.12.5.03.74l-4.23,10.62c-.07.18-.2.34-.36.45-.17.11-.36.17-.56.17Z"/>
    <path class="cls-6" d="m430.64,81.95c-.05-.14-.15-.26-.28-.33-.13-.08-.27-.11-.42-.1-.15.01-.29.07-.4.17-.11.1-.19.23-.22.38,0,.1,0,.21,0,.31l1.21,3.73c.04.15.05.31.03.47l-1.41,7.23c-.05.24,0,.49.14.69.14.2.35.34.59.39.24.05.49,0,.7-.14.2-.14.34-.35.39-.59l.55-2.85s.03-.42.35-.35c.33.06.2.46.2.46l-.55,2.86c-.05.24,0,.49.14.7.14.2.35.35.59.39.24.05.49,0,.7-.14.2-.14.35-.35.39-.59l1.41-7.23c.04-.15.11-.3.2-.42l2.33-2.78c.12-.16.23-.33.32-.51.03-.15,0-.3-.06-.43s-.17-.24-.3-.31c-.13-.07-.28-.09-.43-.06s-.28.1-.38.21h0c-.06.03-1.22,1.39-1.56,1.63-.08.07-.19.12-.29.15-.11.03-.22.03-.33.01l-2.24-.43c-.11-.02-.21-.07-.3-.13-.09-.07-.16-.15-.22-.25-.23-.34-.79-2.04-.84-2.1h0Z"/>
    <path class="cls-6" d="m433.35,83.48c.49.1,1,0,1.41-.29.41-.28.7-.71.79-1.2.1-.49,0-1-.29-1.41-.28-.41-.71-.7-1.2-.8-.49-.1-1,0-1.41.29s-.7.71-.79,1.2c-.1.49,0,1,.29,1.41.28.41.71.7,1.2.8Z"/>
    <path class="cls-6" d="m432.85,86.07l1.79,1.93.28,3.84-6.16-1.2,1.7-3.46,2.39-1.11Z"/>
    <path class="cls-6" d="m537.43,135.29l-.8,1.29-.02.02v.03c-.1.16-.13.34-.09.52.04.18.15.33.3.43h.01s.01.02.01.02l15.07,9.42h.01s.01.02.01.02c.16.1.35.12.53.08.18-.04.34-.16.44-.31l.91-1.45c10.22,2.52,20.88-.38,27.52-7.89l.04-.04s.04-.05.06-.08c.1-.16.13-.35.09-.54-.04-.18-.16-.35-.32-.45l-48.04-30.03c-.16-.1-.36-.13-.54-.09-.19.04-.35.16-.45.32l-.14.29c-3.82,9.38-1.61,20.38,5.38,28.46"/>
    <path class="cls-6" d="m578.38,106.04c-.37.16-9.19,3.94-7.63,12.43.72,3.9-.85,5.96-2.42,7.04l3.17,1.98c2.01-1.78,3.45-4.68,2.64-9.1-1.15-6.26,5.9-9.33,6.01-9.38.19-.08.36-.21.5-.36.14-.16.24-.34.3-.55.06-.2.07-.41.03-.62-.04-.21-.12-.4-.24-.57-.23-.4-.6-.7-1.03-.86-.43-.16-.9-.16-1.34-.01"/>
    <path class="cls-6" d="m558.77,119.54l3.17,1.98c2.01-1.78,3.45-4.68,2.63-9.1-1.15-6.26,5.9-9.33,6.01-9.38.19-.08.36-.21.5-.36.14-.16.24-.34.29-.54.06-.2.07-.41.03-.62-.04-.21-.12-.4-.23-.57-.23-.39-.6-.7-1.03-.85-.43-.16-.9-.16-1.33-.01-.37.16-9.2,3.93-7.63,12.43.72,3.9-.85,5.96-2.42,7.04"/>
    <path class="cls-6" d="m559.26,94.09c-.38.16-9.19,3.94-7.63,12.43.72,3.9-.85,5.96-2.41,7.04l3.17,1.98c2-1.78,3.45-4.68,2.63-9.11-1.15-6.26,5.9-9.33,6.01-9.38.19-.08.36-.21.5-.36.14-.16.24-.34.29-.54.06-.2.07-.41.03-.62-.04-.21-.12-.4-.24-.57-.23-.39-.59-.7-1.02-.85-.43-.16-.9-.16-1.33,0"/>
    <path class="cls-6" d="m669.65,187.35c-1.75-2.99-5.09-4.29-8-2.59-1.45.85-2.27,3.47-2.66,5.01-1.53-.42-4.1-1.06-5.55-.21-2.91,1.7-3.53,5.32-1.77,8.31.83,1.43,2.19,2.48,3.78,2.93l11.83,3.1,3.08-11.82h0c.39-1.61.14-3.31-.7-4.74Z"/>
    <path class="cls-6" d="m651.66,229.42l-.08.04c-.28.14-.61.19-.92.12-.31-.06-.6-.23-.8-.48l-16.7-19.83.49,13.99c.01.3-.07.59-.24.84-.17.25-.41.44-.69.54-.28.1-.59.11-.87.03s-.54-.25-.73-.48l-12.4-15.59,1.4,12.61c.03.27-.02.55-.14.79-.12.25-.31.45-.55.59l-17.32,10.13c-.16.09-.34.15-.52.18-.18.03-.37.01-.55-.03-.18-.05-.35-.13-.5-.24-.15-.11-.27-.25-.37-.41s-.16-.34-.18-.52c-.03-.18-.02-.37.03-.55.05-.18.13-.35.24-.5.11-.15.25-.27.41-.37l16.52-9.67-1.83-16.59c-.03-.31.03-.62.19-.88.16-.26.4-.47.68-.59.29-.12.6-.14.9-.06.3.08.56.25.75.49l12.78,16.08-.48-13.8c0-.29.07-.58.24-.83.16-.25.4-.43.67-.54.27-.11.58-.12.86-.05.28.07.54.23.73.46l15.46,18.37-12.07-49.93c-.07-.28-.05-.57.05-.84.1-.27.28-.5.52-.66s.51-.25.8-.26c.28,0,.57.08.8.24l14.88,10c.31.21.52.54.59.9.07.37,0,.75-.22,1.06-.21.31-.53.53-.9.6-.37.07-.75,0-1.06-.21l-11.86-7.97,12.62,52.24c.15.61-.12,1.25-.67,1.57Z"/>
    <path class="cls-6" d="m677.27,296.13l-23.7-6.35,10.26,38.33,22.18.7-8.74-32.68Z"/>
    <path class="cls-6" d="m679.55,295.61l8.73,32.61,18.99-11.74-10.26-38.33-17.46,17.46Z"/>
    <path class="cls-6" d="m712.86,272.86c-.17-.64-.58-1.19-1.15-1.52-.57-.34-1.25-.43-1.89-.27-.64.16-1.19.57-1.54,1.13s-.45,1.24-.3,1.88c0,.03.01.05.02.08l.7,2.62,4.85-1.3-.7-2.62Z"/>
    <path class="cls-6" d="m718.95,312.63l-.6.16,4.7,7.83.15-9.14-9.13-34.1-4.85,1.3,9.13,34.1.6-.16Z"/>
    <path class="cls-6" d="m701.86,278.61l-2.66-1.15,10.57,39.46-20.83,13.47-2.32.62-24.4-.26-10.84-40.49-1.74,2.33,10.79,40.29,26.63.22,2.52-.68,20.93-13.39,1.86-1.13-10.52-39.3Z"/>
    <path class="cls-6" d="m724.5,391.39l-13.99-2.33s-.1,0-.13.03c-.04.03-.07.07-.07.12l-.77,4.65s0,.05,0,.07c0,.02.01.04.03.06.01.02.03.04.05.05.02.01.04.02.07.03l5.57.93-7.21,5.16c-6.91-7.57-18.66-8.1-26.23-1.19s-8.1,18.66-1.19,26.23c2.26,2.47,5.14,4.29,8.34,5.25l-.89,5.36-5.52-.92s-.09,0-.13.03c-.04.03-.07.07-.08.12l-.83,4.98s0,.09.03.13c.03.04.07.07.11.07h0l5.52.92-.88,5.27s0,.09.03.13c.03.04.07.07.12.07l4.98.83s.1,0,.14-.03c.04-.03.07-.07.08-.12l.88-5.27,5.52.92s.09,0,.13-.03c.04-.03.07-.07.07-.12l.83-4.98s0-.1-.03-.13c-.03-.04-.07-.07-.12-.07l-5.52-.92.91-5.44c10.25.03,18.58-8.26,18.61-18.51,0-2.81-.62-5.58-1.84-8.11l7.11-5.08-.87,5.21s0,.1.03.13c.03.04.07.07.12.07l4.65.77s.1,0,.13-.03c.04-.03.07-.07.08-.12l2.33-13.99s0-.1-.03-.14c-.03-.04-.07-.07-.12-.07m-32.4,34.77c-7.45-1.24-12.48-8.28-11.24-15.73s8.28-12.48,15.73-11.24c7.45,1.24,12.48,8.28,11.24,15.73-1.24,7.45-8.28,12.48-15.73,11.24Z"/>
    <path class="cls-6" d="m703.5,408.52l-16.36-2.72s-.09,0-.13.02c-.04.02-.06.06-.07.11l-.66,3.96s0,.09.03.13c.03.04.07.06.11.07h0l16.36,2.72s.09,0,.13-.02c.04-.02.07-.06.08-.11l.66-3.96s-.01-.09-.04-.13c-.03-.04-.07-.06-.12-.06"/>
    <path class="cls-6" d="m702.33,415.59l-16.36-2.72s-.09,0-.13.03c-.04.03-.06.07-.07.11l-.66,3.96s0,.09.04.13c.03.04.07.06.11.06l16.36,2.72s.09,0,.13-.02c.04-.02.07-.06.08-.11l.66-3.96s0-.05,0-.07c0-.02-.02-.04-.03-.06-.01-.02-.03-.03-.05-.05-.02-.01-.04-.02-.07-.02h0"/>
    <path class="cls-6" d="m652.66,490.73c-.08.02-.15.05-.21.1-.06.05-.11.11-.15.18l-22.21,40.6c-.04.06-.06.12-.07.19-.01.07,0,.14.01.2.02.07.05.13.09.18.04.06.09.1.15.14.03.02.07.04.11.05l44.98,15.74c.12.04.25.04.37,0,.12-.05.22-.13.28-.24l4.58-8.37,7.03,3.1-1.93,3.52,12.68-3.71-3.72-12.71-1.93,3.52-6.4-4.24,4.66-8.52c.06-.11.08-.24.05-.37-.03-.13-.1-.24-.2-.32l-37.75-28.94c-.06-.05-.13-.08-.21-.1-.08-.02-.15-.02-.23,0Zm24.44,33.75c.34,1.98,0,4.01-.96,5.77-.96,1.76-2.49,3.14-4.34,3.92-4.7,1.38-7.89-1.77-9.27-3.9-.87-1.32-5.33-9.84-5.71-10.56l-.05-.02h.03s-.01-.04-.01-.04l.05.03c.81-.07,10.39-.91,11.97-.89,2.53,0,6.9.99,8.28,5.7Zm-17.3-26.19c-1.12,1.02-1.79,2.45-1.86,3.96-.71,6.15-1.85,9.98-6.41,14.37-2.87,2.76-6.77,4.69-7.45,9.11-.46,2.93-.87,5.67-2.4,8.43l-9.07-2.89,20.78-37.99,6.42,5.01Z"/>
    <path class="cls-6" d="m587.13,601.33c-6.95,6.14-7.6,16.74-1.46,23.69,6.14,6.95,16.74,7.6,23.69,1.47,6.95-6.14,7.6-16.74,1.47-23.69h0c-6.14-6.95-16.74-7.6-23.68-1.46h0m3.46,5.79c-.2-.25-.29-.57-.27-.89.03-.32.18-.61.42-.82.24-.21.55-.32.87-.31.32.01.62.14.85.37l3.82,4.32c.19.25.28.57.25.88-.03.31-.18.6-.42.81-.24.21-.54.32-.86.31-.32,0-.62-.14-.84-.36l-3.82-4.32Zm13.35,13.22c-1.57,1.39-3.57,2.16-5.66,2.19-2.09.03-4.12-.69-5.72-2.03-1.6-1.34-2.67-3.21-3.01-5.27-.34-2.06.07-4.18,1.15-5.96l2.15,2.43c-.47,1.2-.53,2.51-.16,3.74.37,1.23,1.14,2.3,2.2,3.03,1.05.74,2.32,1.1,3.6,1.02,1.28-.07,2.5-.58,3.46-1.43.96-.85,1.61-2,1.83-3.27.23-1.26.02-2.57-.58-3.7-.6-1.13-1.57-2.03-2.75-2.54-1.18-.52-2.49-.62-3.73-.29l-2.15-2.43c1.91-.86,4.06-1.01,6.06-.42,2.01.59,3.73,1.88,4.87,3.64,1.14,1.76,1.6,3.86,1.32,5.93-.29,2.07-1.3,3.97-2.87,5.35"/>
    <path class="cls-6" d="m583.72,626.56c-.23-.26-.56-.42-.9-.45-.35-.03-.7.07-.97.27l-5.51,4.87c-.25.25-.39.58-.4.93s.11.69.35.96c.23.26.56.43.91.46.35.03.7-.07.98-.28l5.51-4.87c.5-.52.52-1.34.05-1.89"/>
    <path class="cls-6" d="m620.04,594.45c-.23-.26-.56-.42-.9-.45-.35-.03-.69.07-.97.27l-5.51,4.87c-.25.25-.4.58-.42.94-.01.36.11.7.35.97.23.27.56.43.92.46.35.03.71-.08.98-.3l5.51-4.87c.5-.52.52-1.34.05-1.89"/>
    <path class="cls-6" d="m585.4,599.36c.26-.23.42-.56.45-.9.03-.35-.07-.69-.27-.97l-4.87-5.51c-.25-.25-.58-.4-.94-.42-.35-.01-.7.11-.97.34-.27.24-.43.56-.46.92-.03.35.08.7.3.98l4.87,5.51c.52.5,1.34.52,1.89.05Z"/>
    <path class="cls-6" d="m617.5,635.68c.26-.24.42-.56.45-.9.03-.35-.07-.69-.28-.97l-4.87-5.51c-.25-.25-.58-.39-.93-.4-.35-.01-.69.11-.96.35-.26.23-.43.56-.46.91-.03.35.07.7.28.98l4.87,5.51c.25.24.59.38.94.39.35,0,.69-.11.95-.34"/>
    <path class="cls-6" d="m579.28,617.7c-.08-.34-.28-.64-.56-.84-.28-.2-.63-.29-.98-.24l-7.2,1.49c-.34.09-.62.31-.81.61-.18.3-.24.66-.17,1,.07.34.27.65.55.85.28.2.64.29.98.24l7.2-1.49c.34-.1.62-.32.8-.62.18-.3.25-.65.18-1"/>
    <path class="cls-6" d="m626.76,607.88c-.08-.34-.28-.64-.56-.84-.29-.2-.64-.29-.98-.24l-7.2,1.49c-.34.09-.62.31-.81.61s-.24.65-.17,1c.07.34.27.65.55.85.29.2.64.29.98.24l7.2-1.49c.34-.1.62-.32.8-.62.18-.3.25-.66.18-1"/>
    <path class="cls-6" d="m594.25,594.93c.34-.08.64-.27.84-.56.2-.28.29-.64.24-.98l-1.49-7.2c-.1-.33-.32-.61-.62-.79s-.65-.24-.99-.17c-.34.07-.64.27-.84.54-.2.28-.29.63-.25.97l1.49,7.2c.21.7.91,1.12,1.62.98"/>
    <path class="cls-6" d="m604.07,642.4c.34-.08.64-.28.84-.56s.29-.64.24-.98l-1.49-7.2c-.1-.33-.32-.62-.61-.8-.3-.18-.65-.24-.99-.17-.34.07-.64.27-.84.55-.2.28-.29.63-.25.97l1.49,7.2c.1.34.32.62.62.8.3.18.65.25,1,.18"/>
    <path class="cls-6" d="m579.9,607.64c.11-.33.09-.69-.06-1.01-.15-.32-.4-.57-.72-.71l-6.96-2.35c-.34-.09-.7-.05-1.01.11s-.55.45-.66.78c-.11.33-.09.7.05,1.02.15.32.41.57.74.7l6.96,2.35c.34.08.7.04,1.01-.13s.54-.44.66-.77"/>
    <path class="cls-6" d="m625.83,623.12c.11-.33.08-.69-.06-1.01-.15-.32-.4-.57-.72-.71l-6.96-2.35c-.34-.09-.7-.05-1.01.12-.31.17-.55.44-.66.78-.11.33-.09.7.05,1.02.15.32.41.57.74.7l6.96,2.35c.34.08.7.04,1.01-.13.31-.17.54-.44.66-.77Z"/>
    <path class="cls-6" d="m604.31,595.54c.33.11.69.09,1.01-.06.32-.15.57-.4.71-.72l2.35-6.96c.09-.34.04-.7-.12-1.01-.17-.31-.44-.54-.77-.65s-.69-.09-1.01.05c-.32.14-.57.4-.71.72l-2.35,6.96c-.08.34-.04.7.13,1.01.17.31.44.54.77.66"/>
    <path class="cls-6" d="m588.83,641.47c.33.11.69.09,1.01-.06.32-.15.57-.4.71-.72l2.35-6.96c.09-.34.04-.7-.12-1-.17-.31-.44-.54-.77-.65-.33-.11-.69-.09-1.01.05-.32.14-.57.4-.71.73l-2.35,6.96c-.08.34-.04.7.13,1.01.17.31.44.54.77.66"/>
    <path class="cls-6" d="m515.73,646.65l-6.46,13.92c-.14.26-.21.56-.21.85,0,.3.07.59.21.86l10.88,27.57c.06.16.18.28.34.35s.33.07.48,0l10.68-4.21c.16-.06.28-.18.35-.34.07-.15.07-.33,0-.48l-15.24-38.64c-.13-.33-.62-.82-1.03.12Z"/>
    <path class="cls-6" d="m490.99,671.22l-6.46,13.92c-.14.26-.21.56-.21.85,0,.3.07.59.21.86l5.82,14.76c.13.32.5.48.82.35l10.68-4.21c.16-.06.28-.18.35-.34.07-.15.07-.33.01-.48l-10.19-25.82c-.13-.33-.62-.82-1.03.12Z"/>
    <path class="cls-6" d="m515.72,632.86s-.04-.08-.07-.11c-.03-.03-.07-.06-.11-.08-.07-.03-.15-.03-.22,0l-.06.02-.08.04-7.21,4.91-.14.07c-.05.03-.1.08-.12.14-.03.08-.04.17,0,.25.03.08.09.14.17.18l.12.05,2.52,1.09-10.86,25.02-11.56-5.02s-.06-.02-.1-.02c-.03,0-.07,0-.1.02s-.06.03-.08.05c-.02.02-.04.05-.06.08l-1.36,3.14-8.05,18.53c-.03.06-.03.13,0,.2.02.06.07.11.14.14l3.14,1.36s.06.02.1.02c.03,0,.07,0,.1-.02.03-.01.06-.03.08-.05.02-.02.04-.05.06-.08h0s7.95-18.3,7.95-18.3l8.39,3.64s.02.02.03.02l3.14,1.36c.06.03.13.03.19,0,.06-.02.11-.07.14-.13l12.33-28.4,2.65,1.15c.16.07.35,0,.42-.16h0c.03-.08.04-.16.01-.23v-.03s-1.46-8.77-1.46-8.77l-.03-.09Z"/>
    <path class="cls-6" d="m506.63,667.04l-3.01,7.02c-.03.06-.08.1-.14.12s-.13.02-.19,0l-6.36-2.83c-1.16-.5-1.07.24-.94.57l9.37,23.76c.03.08.07.15.13.21.06.06.13.11.2.14.08.03.16.05.24.05.08,0,.17-.01.24-.04l10.68-4.22c.16-.06.28-.18.35-.34.07-.15.07-.33.01-.48l-9.53-24.15c-.13-.33-.62-.82-1.06.2"/>
    <path class="cls-6" d="m423.71,694.17l-14.32-8.26v-16.53c0-.17-.04-.34-.13-.49-.09-.15-.21-.27-.36-.36l-14.8-8.55c-.15-.09-.32-.13-.49-.13s-.34.04-.49.13l-14.81,8.55c-.15.09-.27.21-.36.36-.08.15-.13.32-.13.49v16.53l-14.32,8.26c-.15.09-.27.21-.36.36-.08.15-.13.32-.13.49v17.1c0,.35.19.67.49.85l14.81,8.55c.15.09.32.13.49.13s.34-.05.49-.13l14.32-8.26,14.32,8.26c.15.09.32.13.49.13s.34-.05.49-.13l14.81-8.55c.15-.09.27-.21.36-.36.09-.15.13-.32.13-.49v-17.1c0-.17-.05-.34-.13-.49-.09-.15-.21-.27-.36-.36Zm-31.08,16.25l-11.88-6.86,11.88-6.86v13.71Zm13.83-23.95l-11.87,6.85v-13.71l11.87,6.86Zm-13.83,6.85l-11.88-6.86,11.88-6.86v13.71Zm2.93,1.69l12.85-7.42,12.86,7.42-12.85,7.42-12.85-7.42Zm11.87-10.24l-11.87-6.85,11.87-6.86v13.71Zm-15.78-6.85l-11.88,6.85v-13.71l11.88,6.86Zm-13.83,41.04l-12.85-7.42v-14.84l12.85,7.42v14.84Zm1.95,0v-13.71l11.88,6.86-11.88,6.85Zm42.46-7.42l-12.85,7.42v-14.84l12.85-7.42v14.84Z"/>
    <path class="cls-6" d="m292.42,682.49l-21.25-8.63c-.07-.02-.14-.02-.2.01-.06.03-.11.08-.13.15l-2.6,6.39c-.03.06-.03.14-.01.2s.07.12.13.15h0s21.25,8.64,21.25,8.64c.03.01.07.02.1.01.04,0,.07-.01.1-.02.03-.01.06-.04.08-.06.02-.02.04-.05.05-.09h0s2.6-6.39,2.6-6.39c.02-.03.02-.07.03-.1,0-.03,0-.07-.02-.1s-.03-.06-.05-.09c-.02-.03-.05-.05-.08-.06"/>
    <path class="cls-6" d="m297.94,668.9l-21.25-8.63s-.07-.02-.1-.01c-.04,0-.07.01-.1.03-.03.02-.06.04-.08.06-.02.03-.04.06-.05.09h0s-2.6,6.39-2.6,6.39c-.01.03-.02.07-.02.1,0,.03,0,.07.02.1.01.03.03.06.05.09.02.03.05.05.08.06l21.25,8.63s.07.02.1.02c.04,0,.07-.01.1-.03.03-.02.06-.04.08-.06.02-.03.04-.06.05-.09l2.6-6.39c.03-.06.03-.14,0-.2-.02-.07-.07-.12-.14-.15"/>
    <path class="cls-6" d="m301.56,659.13l-6.05-14.34s-.06-.08-.1-.1c-.05-.02-.1-.02-.14,0l-14.34,6.05s-.07.04-.09.07-.03.07-.03.11.01.08.03.11.05.06.09.07l20.4,8.29s.07.02.11.01c.04,0,.07-.03.1-.05.03-.03.05-.06.05-.1,0-.04,0-.08-.01-.11h0Z"/>
    <path class="cls-6" d="m298.86,693.24l14.34-6.05s.08-.06.1-.1c.02-.05.02-.1,0-.15h0s-6.05-14.34-6.05-14.34c-.01-.03-.04-.06-.07-.08-.03-.02-.07-.03-.1-.03s-.07.01-.11.03c-.03.02-.05.05-.07.08l-8.29,20.4s-.02.1,0,.15c.02.05.06.08.1.1.02.01.05.02.07.01.02,0,.05,0,.07-.01h0Z"/>
    <path class="cls-6" d="m264.74,690.53l6.05,14.34s.06.08.1.1c.05.02.1.02.14,0l14.34-6.05s.06-.04.08-.07c.02-.03.03-.07.03-.1s-.01-.07-.03-.11c-.02-.03-.05-.05-.08-.07l-20.4-8.29s-.1-.02-.14,0c-.05.02-.08.05-.1.1-.01.02-.02.05-.01.08,0,.02,0,.05.02.07Z"/>
    <path class="cls-6" d="m267.45,656.42l-14.34,6.06s-.08.06-.1.1c-.02.05-.02.1,0,.14l6.05,14.34s.04.07.07.09c.03.02.07.03.11.03s.08-.01.11-.03c.03-.02.06-.05.07-.09l8.29-20.39s.01-.05.01-.07,0-.05-.01-.07c-.01-.02-.02-.04-.04-.06-.02-.02-.04-.03-.06-.04-.05-.02-.1-.02-.15,0h0Z"/>
    <path class="cls-6" d="m158.17,600.14l10.16,9.02c.07.06.15.09.24.08.09,0,.17-.05.23-.11.05-.06.08-.14.08-.22v-.03l.75-11.03v-.1c0-.09-.04-.17-.1-.23-.06-.06-.15-.1-.23-.09h-.06s-.09.02-.09.02l-10.68,2.1-.16.03c-.06.02-.11.04-.16.09-.04.04-.07.1-.09.16-.01.06-.01.12,0,.18.02.06.05.11.1.15h0Z"/>
    <path class="cls-6" d="m167.49,610.05l-10.18-9.04c-.07-.06-.15-.09-.24-.08s-.17.04-.23.11h0s-7.07,7.97-7.07,7.97c-.06.07-.09.15-.08.24,0,.09.05.17.11.23l3.28,2.91,4.45-5.01c.06-.07.14-.11.23-.11.09,0,.17.02.24.08l3.04,2.7c.14.12.15.33.03.47l-4.45,5.01,3.36,2.99c.14.12.35.11.47-.03l7.07-7.97s.05-.07.07-.11c.01-.04.02-.09.02-.13,0-.04-.01-.09-.03-.13-.02-.04-.05-.08-.08-.1Z"/>
    <path class="cls-6" d="m204.53,639.2l-10.08-8.95c-.06-.06-.15-.09-.23-.08-.09,0-.17.04-.22.1h0s-9.03,10.17-9.03,10.17c-.06.07-.08.15-.08.23,0,.09.05.17.11.22l10.08,8.95c.06.06.15.09.23.09.09,0,.17-.04.23-.1l9.03-10.18c.06-.07.08-.15.08-.23,0-.09-.05-.17-.11-.22m-11.41,1.75c-.06.06-.14.1-.23.11-.09,0-.17-.03-.23-.08l-3.01-2.67s-.06-.06-.08-.1c-.02-.04-.03-.08-.03-.12,0-.04,0-.09.02-.13.01-.04.04-.08.06-.11l1.62-1.83c.06-.06.14-.1.23-.11.09,0,.17.03.24.08l3.01,2.67s.06.06.08.1c.02.04.03.08.03.12,0,.04,0,.09-.02.13-.01.04-.03.08-.06.11l-1.62,1.83Zm3-3.38c-.06.06-.14.1-.23.11-.09,0-.17-.02-.23-.08l-3.01-2.67s-.06-.06-.08-.1c-.02-.04-.03-.08-.03-.12,0-.04,0-.09.01-.13.01-.04.03-.08.06-.11l1.62-1.83c.06-.06.14-.1.23-.1.09,0,.17.03.23.09l3.01,2.67c.13.12.15.32.03.46l-1.62,1.83Zm1.6,7.46s-.06.06-.1.08c-.04.02-.08.03-.12.03-.04,0-.09,0-.12-.02-.04-.01-.08-.04-.11-.07h0s-3.01-2.67-3.01-2.67c-.07-.06-.11-.14-.11-.22,0-.09.02-.17.08-.24h0s1.62-1.83,1.62-1.83c.06-.06.14-.1.22-.11.09,0,.17.02.23.08l3.01,2.67c.07.06.11.14.11.22,0,.09-.02.17-.08.24l-1.62,1.83Zm3-3.38s-.06.06-.1.07c-.04.02-.08.03-.12.03-.04,0-.09,0-.13-.02-.04-.01-.08-.04-.11-.07h0s-3.01-2.67-3.01-2.67c-.07-.06-.11-.14-.11-.22,0-.08.02-.17.08-.24h0s1.62-1.83,1.62-1.83c.03-.03.06-.06.1-.08.04-.02.08-.03.12-.03s.08,0,.12.02c.04.01.08.04.11.07l3.01,2.67s.06.06.08.1c.02.04.03.08.03.12,0,.04,0,.08-.01.13-.01.04-.04.08-.06.11h0s-1.62,1.83-1.62,1.83Z"/>
    <path class="cls-6" d="m202.07,594.78l-9.86-8.75c-.06-.06-.15-.09-.23-.08-.09,0-.17.04-.22.11l-29.92,33.71c-.06.06-.09.15-.08.23,0,.09.04.16.11.22l9.86,8.75c.06.06.15.09.23.08.09,0,.17-.04.22-.11l29.92-33.71c.06-.07.09-.15.08-.23,0-.09-.04-.17-.11-.22Zm-32.8,25.15s-.07.05-.12.06c-.05,0-.09-.01-.12-.04l-2.26-2s-.06-.07-.06-.12c0-.05.01-.09.04-.12l2.23-2.52s.03-.03.05-.04c.02,0,.04-.02.07-.02.02,0,.04,0,.07,0,.02,0,.04.02.06.03l2.26,2s.03.03.04.05c0,.02.02.04.02.07,0,.02,0,.04,0,.07,0,.02-.02.04-.03.06h0s-2.23,2.52-2.23,2.52Zm5.13-5.78s-.07.05-.12.06c-.05,0-.09-.01-.12-.04l-2.26-2s-.03-.03-.04-.05c0-.02-.02-.04-.02-.07,0-.02,0-.05,0-.07,0-.02.02-.04.03-.06l2.23-2.52s.07-.06.12-.06c.04,0,.09.01.12.04l2.26,2s.05.07.06.12c0,.04-.01.09-.04.12l-2.23,2.51Zm5.13-5.78s-.07.05-.12.06c-.05,0-.09-.01-.12-.04l-2.26-2s-.05-.07-.06-.12c0-.05.01-.09.04-.12l2.23-2.52s.03-.03.05-.04c.02,0,.04-.02.06-.02.02,0,.05,0,.07,0,.02,0,.04.02.06.03l2.26,2s.05.07.06.12c0,.05-.01.09-.04.13l-2.23,2.52Zm5.13-5.78s-.07.05-.12.06c-.05,0-.09-.01-.12-.04l-2.26-2s-.05-.07-.06-.12c0-.05.01-.09.04-.12l2.23-2.52s.07-.05.12-.06c.05,0,.09.01.12.04l2.26,2c.07.06.08.17.02.24l-2.23,2.52Zm5.13-5.78s-.03.03-.05.04c-.02.01-.04.02-.07.02-.02,0-.04,0-.07,0-.02,0-.04-.02-.06-.03l-2.26-2s-.06-.07-.06-.12c0-.04.01-.09.04-.12l2.23-2.52s.07-.06.12-.06c.04,0,.09.01.12.04l2.26,2s.06.07.06.12c0,.05-.01.09-.04.13l-2.23,2.52Zm-16.09,27.05s-.07.05-.12.06c-.05,0-.09-.01-.12-.04l-2.26-2s-.03-.03-.04-.05c0-.02-.02-.04-.02-.07,0-.02,0-.05,0-.07,0-.02.02-.04.03-.06h0s2.23-2.52,2.23-2.52c.01-.02.03-.03.05-.04.02-.01.04-.02.06-.02.02,0,.04,0,.07,0,.02,0,.04.02.06.03h0s2.26,2,2.26,2c.02.02.03.03.04.05,0,.02.02.04.02.07,0,.02,0,.05,0,.07,0,.02-.02.04-.03.06l-2.23,2.52Zm5.13-5.78s-.07.05-.12.06c-.04,0-.09-.01-.12-.04h0s-2.26-2-2.26-2c-.03-.03-.06-.07-.06-.12,0-.05.01-.09.04-.12l2.23-2.52s.07-.05.12-.06c.04,0,.09.01.12.04l2.26,2c.07.06.08.17.02.24l-2.23,2.51Zm5.13-5.78s-.07.05-.12.06c-.05,0-.09-.01-.12-.04l-2.26-2s-.03-.03-.04-.05c-.01-.02-.02-.04-.02-.07,0-.02,0-.04,0-.07,0-.02.02-.04.03-.06l2.23-2.52s.03-.03.05-.04c.02-.01.04-.02.07-.02.02,0,.04,0,.07,0,.02,0,.04.02.06.03l2.26,2s.06.07.06.12c0,.05-.01.09-.04.13l-2.23,2.52Zm5.13-5.78s-.07.05-.12.06c-.05,0-.09-.01-.12-.04l-2.26-2s-.03-.03-.04-.05c-.01-.02-.02-.04-.02-.07,0-.02,0-.05,0-.07s.02-.04.03-.06l2.23-2.52s.03-.03.05-.04c.02,0,.04-.01.06-.02.02,0,.04,0,.07,0,.02,0,.04.02.06.03h0s2.26,2,2.26,2c.07.06.08.17.02.24h0s-2.23,2.52-2.23,2.52Zm5.13-5.78s-.07.05-.12.06c-.05,0-.09-.01-.12-.04l-2.26-2s-.03-.03-.04-.05c0-.02-.02-.04-.02-.07,0-.02,0-.04,0-.07,0-.02.02-.04.03-.06l2.23-2.52s.07-.05.12-.06c.05,0,.09.01.12.04l2.26,2s.06.07.06.12c0,.04-.01.09-.04.12l-2.23,2.52Z"/>
    <path class="cls-6" d="m205.67,638.39s-.05.05-.08.06-.07.02-.1.03c-.04,0-.07,0-.1-.01-.03-.01-.07-.03-.09-.05h0l-10.14-9c-.05-.05-.09-.11-.09-.19,0-.07.02-.14.07-.2h0s1.8-2.03,1.8-2.03c.05-.05.12-.09.19-.09.07,0,.14.02.2.07l10.14,9c.11.1.12.27.02.38l-1.8,2.03Z"/>
    <path class="cls-6" d="m208.33,611.72c.03-.07.04-.14.03-.22-.01-.07-.05-.14-.11-.19-.05-.04-.12-.07-.18-.08h-.03l-.18.03-20.61,3.69-.1.02c-.1,0-.19.05-.25.12l-13.41,15.11s-.05.07-.06.11c-.01.04-.02.08-.02.12,0,.04.01.08.03.12.02.04.04.07.08.1h0s9.85,8.75,9.85,8.75c.06.06.15.09.23.08.08,0,.16-.04.22-.11l24.44-27.54s.05-.08.06-.13Zm-10.01,3.06l.15-.03c1.42-.26,3.76-.65,4.9-.83l.15-.02c.07-.01.14,0,.21.03.06.03.12.07.16.13.04.06.06.13.06.2,0,.07-.02.14-.05.2l-2.76,3.11c-.06.07-.15.12-.25.12-.1,0-.19-.02-.26-.08h-.01s-.01-.02-.01-.02l-2.42-2.15h-.01s-.01-.02-.01-.02c-.05-.05-.08-.11-.1-.17-.02-.07-.02-.13,0-.2.02-.07.05-.12.1-.17.05-.05.11-.08.18-.09h0Zm-16.82,15.86c-.06.06-.13.1-.22.11-.08,0-.17-.02-.23-.08l-2.94-2.61c-.06-.06-.1-.14-.11-.22,0-.08.02-.17.08-.23l1.63-1.84s.06-.06.1-.08c.04-.02.08-.03.12-.03.04,0,.08,0,.12.02.04.01.08.04.11.06h0s2.94,2.61,2.94,2.61c.13.12.15.32.03.45l-1.64,1.84Zm3.02-3.4c-.06.06-.13.1-.22.11-.09,0-.17-.02-.23-.08l-2.94-2.61c-.06-.06-.1-.14-.11-.22,0-.09.02-.17.08-.23l1.63-1.84s.06-.06.1-.08c.04-.02.08-.03.12-.03.04,0,.08,0,.12.02.04.01.08.04.11.06l2.94,2.61s.06.06.08.1c.02.04.03.08.03.12,0,.04,0,.08-.02.12-.01.04-.03.08-.06.11l-1.63,1.84Zm3.02-3.4c-.06.06-.14.1-.22.11-.09,0-.17-.02-.23-.08l-2.94-2.61c-.06-.06-.1-.14-.11-.22,0-.09.02-.17.08-.23l1.63-1.84c.06-.06.14-.1.22-.11.08,0,.17.02.23.08l2.94,2.61c.06.06.1.14.11.22,0,.08-.02.17-.08.23l-1.64,1.84Zm6.62-7.44l-3.6,4.05c-.06.06-.14.1-.22.11-.09,0-.17-.03-.23-.08l-2.94-2.61c-.06-.06-.1-.14-.11-.22,0-.08.02-.17.08-.23h0s.45-.51.45-.51c.03-.03.06-.05.1-.07.01,0,.03-.01.04-.01.02,0,.03-.01.05-.01h.06c.85-.22,4.4-.8,5.89-1.04l.15-.02c.07-.01.14,0,.21.03.07.03.12.07.16.13.04.06.06.13.06.2,0,.07-.02.14-.05.2l-.09.1Zm-8.16,18.23c-.06.06-.14.1-.22.11-.09,0-.17-.02-.23-.08l-2.94-2.61c-.06-.06-.1-.14-.11-.22,0-.08.02-.17.08-.23h0s1.63-1.85,1.63-1.85c.06-.06.14-.1.22-.11.09,0,.17.03.23.08l2.94,2.61c.06.06.1.14.11.22,0,.08-.02.17-.08.23l-1.63,1.84Zm3.02-3.4c-.06.06-.14.1-.22.11-.09,0-.17-.02-.23-.08l-2.94-2.61c-.06-.06-.1-.13-.11-.22,0-.09.02-.17.08-.23h0s1.63-1.84,1.63-1.84c.06-.06.14-.1.22-.11.09,0,.17.02.23.08l2.94,2.61c.13.12.15.32.03.45h0s-1.63,1.84-1.63,1.84Zm3.02-3.4c-.06.06-.14.1-.22.11-.08,0-.17-.02-.23-.08l-2.94-2.6s-.06-.06-.08-.1c-.02-.04-.03-.08-.03-.12,0-.04,0-.09.02-.12.01-.04.04-.08.06-.11l1.63-1.84c.06-.06.14-.1.22-.11.09,0,.17.02.23.08l2.94,2.61c.06.06.1.14.11.22,0,.09-.02.17-.08.23l-1.63,1.84Zm3.02-3.4c-.06.06-.14.1-.22.11s-.17-.02-.23-.08l-2.94-2.61c-.06-.06-.1-.14-.11-.22,0-.09.02-.17.08-.23l1.63-1.84c.06-.06.14-.1.22-.11.09,0,.17.02.23.08l2.94,2.61c.06.06.1.14.11.22,0,.09-.02.17-.08.23l-1.63,1.84Zm3.02-3.4c-.06.06-.14.1-.22.11-.09,0-.17-.02-.23-.08l-2.94-2.61c-.06-.06-.1-.14-.11-.22,0-.09.02-.17.08-.23l1.63-1.84c.06-.06.14-.1.22-.11.09,0,.17.02.23.08l2.94,2.61c.06.06.1.14.11.22,0,.08-.02.17-.08.23l-1.63,1.84Z"/>
    <path class="cls-6" d="m138.52,497.92c-4.42-.77-8.97-.09-12.96,1.94-.91.44-1.76.97-2.56,1.6l-.24.2c-2.33,1.95-6.22,5.22-8.16,14.19l-.06.26c-.03.14,0,.29.05.42.06.13.15.24.28.32l.21.13c1.56.99,2.89,1.88,3.98,2.64.1.07.21.12.33.14.12.02.24,0,.36-.03.12-.04.22-.11.3-.19.08-.09.15-.19.18-.31.01-.07.02-.13.03-.18,1.36-8.38,4.43-10.95,6.46-12.65l.25-.21c.42-.32.87-.6,1.35-.83,2.76-1.4,5.89-1.89,8.95-1.4,3.61.74,6.56,3.34,8.77,7.73,3.7,7.36,1.58,12.01-.85,14.62-.95,1.02-2.08,1.85-3.33,2.47-1.9.94-3.98,1.45-6.1,1.5h-.27c-3.13.17-8.13-.22-15.41-5.68-14.93-11.19-21.88-9.47-26.49-8.33l-.24.06c-.96.27-1.9.63-2.78,1.1-3.97,1.94-7.18,5.15-9.12,9.12-1.62,3.5-2.73,9.29,1.13,16.97,2.35,4.68,4.87,7.29,8.97,9.3,2.54,1.17,5.32,1.75,8.12,1.69,2.8-.06,5.55-.76,8.03-2.04,1.26-.64,2.47-1.4,3.59-2.27,2.09-1.67,3.79-3.78,4.96-6.18l3.16.87c.18.04.37.02.53-.07.16-.09.28-.24.33-.41.02-.08.03-.17.02-.25,0-.09-.04-.17-.08-.24l-3.52-11.2-.06-.12c-.04-.08-.1-.16-.18-.22-.07-.06-.16-.1-.25-.13-.09-.03-.18-.03-.26-.02-.09.01-.17.04-.25.08l-8.68,7.85-.17.13c-.11.09-.19.21-.23.35-.05.18-.03.38.07.54.04.08.11.15.18.21.07.06.16.1.25.12l3.04.84c-.68,1.14-1.56,2.14-2.6,2.97-.8.61-1.65,1.15-2.54,1.61-1.62.86-3.42,1.35-5.25,1.43-1.84.08-3.67-.27-5.35-.99l-.09-.05c-2.89-1.41-4.45-3.06-6.2-6.54-2.21-4.4-2.56-8.31-1.04-11.62,1.38-2.69,3.59-4.86,6.3-6.21.47-.25.97-.45,1.49-.6l.25-.06c3.68-.91,8.71-2.16,21.3,7.28,6.65,4.98,12.98,7.24,19.34,6.91,3.1-.05,6.14-.79,8.92-2.16,1.9-.95,3.62-2.23,5.08-3.79,2.47-2.67,7.61-10.11,1.84-21.6-3.87-7.65-9.23-10.2-13.05-10.98Z"/>
    <path class="cls-6" d="m126.17,410.29c-20.07-21.49-53.76-22.65-75.25-2.59-3.8,3.55-7.06,7.63-9.67,12.12-.11.2-.2.37-.28.51.11.13.24.27.39.44,20.07,21.49,53.76,22.65,75.26,2.58,3.79-3.54,7.05-7.62,9.67-12.11.11-.2.2-.37.28-.52-.1-.12-.23-.27-.38-.44Zm-57.94-4.18c.19-.37.85-1.42.93-1.55.21-.24.51-.4.83-.45.27-.08.65.03.71.23.06.39.02.79-.11,1.16-.45.56-1.09.94-1.8,1.07-.42-.02-.62-.32-.56-.45m-.71,1.92l.08-.12c.37-.36.84-.6,1.35-.67.44-.13,1.05.03,1.16.32.1.29-1.02.96-1.22,1.18-.55.64-1.39,1.9-1.94,2.09-.15.06-.32.06-.47,0,.26-.96.61-1.9,1.03-2.8m11.8,18.6c-.07.86-.36,1.69-.84,2.41-.61.67-1.43,1.1-2.33,1.2-.82.03-1.18-2.12-1.3-3.24-.04-.39-.46.82-1-1.47-.35-1.46-1.12.28-1.3-.7-.18-.98-.63-.73-1.2-1.29s-1.11.19-1.77.58c-.66.39-.35.52-1.37.32l-.07-.02c-1.18-2.09-1.92-4.4-2.18-6.79-.07-.6-.1-1.2-.11-1.79.03-.06.06-.12.09-.18.82-1.22.77-1.48.77-1.48l1-.48c1.01.05,2.02.18,3.01.4,1.08.27,2.81.97,3.71.47.65-.36,1.15-.79,1.02-1.36-.16-.71-.74-.81-1.37-.26-.23.21-.91-.99-1.32-.88-.41.11.68,1.42.34,1.52s-1.24-1.35-1.39-1.59c-.15-.24-.77-.79-1.22-.26-.94,1.12-2.66,1.25-2.97,1.55-.96.9-1.35-.11-1.4-.74.03-.15.05-.3.08-.45.27-.23.58-.39.93-.46.34-.08.7-.07,1.04.02.5.26.79-.17.94-.38.06-.11.09-.24.07-.37-.01-.13-.07-.25-.15-.35-.14-.23.18-.45.42-.55.44-.29.86-.61,1.26-.96.85-.39,1.8-.5,2.71-.32.64.25,1.37.02,1.74-.56.32-.47.71-.89,1.17-1.22.25-.15-.74-.88-1.38.11-.63.99-1,1.12-1.35,1.15-.35.04-2.47-.24-2.79-.87-.33-.62.52-1.21,1.24-1.67,1.08-.39,2.19-.68,3.32-.86,1.06-.36,2.38-1.06,3.13-.66.75.4-2.76,1.61-1.51,2.12.45.18,2.2-1.36,2.82-1.77,1.45-.97-1.61-.89-1.4-2.54.24-1.87-3.83-.7-5.89-.31,7.71-6.24,19.02-5.06,25.26,2.65,1.26,1.56,2.25,3.31,2.93,5.19.04.28.04.56,0,.84-.06.21-.17.4-.33.55-.16.15-.36.25-.58.29-.22.04-.44.02-.64-.06-.21-.08-.38-.21-.52-.39-.21-.24-1.06-.88-.89.36s1.36,1.23.3,2.1c-.52.46-1.13.79-1.8.96-.29.29-.51.64-.62,1.04-.12.39-.13.81-.05,1.21.2.67,2.04,2.35.82,2.4-1.18-.42-2.23-1.14-3.04-2.1-.48-.95-1-1.86-1.37-2.58-.06-.13-.14-.24-.24-.34-.1-.09-.22-.17-.36-.22-.13-.05-.27-.07-.41-.07-.14,0-.28.04-.41.1h0c-.12.06-.22.13-.32.22-.59.51.28.85-.08,1.83-.35.98-.58,1.85-1.34,1.15-1.97-1.8-4.39-.53-5.04-2.71-.35-1.18-1.37-.95-2.32-1.53s-1.47-.89-1.57-.39c-.08.45,3.03,2.39,3.3,2.95.4.83-.67,1.72-1.5,2.02-.83.3-1.27-.34-2.2-1.11s-1.36-1.35-1.34-.66c.1.58.33,1.13.67,1.61.34.48.79.88,1.3,1.17.77.38,1.61.49,1.46,1.26-.15.77.03.32-.69,1.21-.32.28-.55.64-.66,1.04-.12.4-.12.83,0,1.23.18,1.1-.1,1.2-.17,2.15-.07.95-.56.19-.76,1.59m18.35-9.27c.6-.12,1.59.61,1.27.97-.25.17-.55.26-.85.27-.3,0-.6-.07-.87-.23-.49-.3.18-.96.45-1.01Zm-.82-.46c-.2-.05-.39-.21-.58-.64-.05-.07-.08-.16-.07-.25,0-.09.04-.18.1-.24.06-.07.14-.11.23-.12.09-.01.18,0,.26.05.43.17.77.51.96.93.03.29-.69.34-.9.28m-7.88.85c-.25.17-.55.26-.86.27-.3,0-.61-.07-.87-.23-.49-.3.18-.96.45-1.01.6-.12,1.59.62,1.28.97m-6.89,4.36c-.2.43-.53,3.51-1.03,3.21-.49-.3-.21-3.5-.1-3.75.56-1.37,2.09-1.48,1.13.55m3.74,11.36c-1.7.19-3.42.14-5.1-.16-.14-.09-.24-.22-.3-.37-.06-.15-.06-.32-.01-.48.39-1.5,1.97-2.25,3.26-2.52,2.86-.61,6.91,1.13,7.47.71.56-.42,1.61-2.14,3.42-2.28.57-.1,1.15-.02,1.67.23-2.84,2.72-6.5,4.43-10.41,4.87m12.01-6.61c-.2-.03-.4-.08-.58-.14-1.03-.39-.82.39-1.32.27-.5-.12.4-1.35-.94-.25-1.34,1.1-1.06-.03-1.87-1.55s.34-3.49,1.42-4.02c1.02-.49,2.07-.89,3.14-1.22,2.08-.78,2.4-2.1,2.87-1.37l.25.39c.21.34.35.73.41,1.13-.64,2.47-1.79,4.77-3.39,6.76m3.88-9.56c-.49-.08-2.81-2.62-1.43-4.62.23-.33-.66-1.12-.45-1.16.37-.07.75,0,1.06.2.32.2.54.51.64.88.26,1.56.33,3.14.18,4.72"/>
    <path class="cls-6" d="m122.37,325.15c-.82-2.4-6.38-17.2-19.42-21.32-11.33-3.58-26.69,2.86-26.69,2.86,0,0-1.61-10.76-10.63-14.59-.05-.02-.11-.05-.17-.07l-.06-.02c-.1-.02-.2-.01-.29.04s-.15.12-.19.22c-.01.13,0,.26.04.39.57,2.37,1.84,9.01.05,14.67-1.8,5.68-6.67,10.39-8.49,12l-.12.1c-.05.04-.09.1-.11.16-.02.06-.03.13-.02.2.01.07.04.13.08.18.04.05.1.09.16.12l.1.02s.07.02.1.02c9.61,2.08,17.14-5.82,17.14-5.82,0,0,8.87,14.1,20.19,17.68,13.04,4.12,26.1-4.8,28.15-6.28.06-.04.1-.08.14-.1.03-.04.06-.08.08-.13.01-.05.02-.1.01-.15-.02-.05-.03-.1-.06-.17m-17.1-3.45c-1.03-.26-1.91-.91-2.45-1.82-.54-.91-.71-2-.45-3.02.26-1.03.91-1.91,1.82-2.45.91-.55,2-.71,3.02-.45,1.03.26,1.91.91,2.45,1.82.54.91.71,1.99.45,3.02-.26,1.03-.91,1.91-1.82,2.46-.91.54-1.99.71-3.02.45h0Z"/>
    <path class="cls-6" d="m72.4,269.64s-.04-.03-.07-.04c-.05-.01-.1-.02-.15-.02-.05,0-.1.02-.15.04-.05.02-.09.06-.12.1-.03.04-.06.09-.07.13l-.82,2.6s-.02.1-.02.15c0,.05.02.1.04.15,4.56,7.46,12.15,4.22,13.96,3.3.04-.04.09-.06.15-.08.05-.01.11-.02.17,0,.06.01.11.03.15.07.05.03.08.08.11.12,0,0,0,.02.01.02,4.97,9.04,14.16,5.89,16.12,5.1l.2-.1c.05,0,.1,0,.15.02.05.01.1.04.14.07l.11.19c1.14,1.78,6.86,9.64,16.12,5.1.08-.05.17-.06.26-.04.09.02.17.07.22.14.03.04.06.09.07.14.95,1.79,5.29,8.8,13.32,5.32.09-.05.16-.13.19-.24l.82-2.6s.03-.09.03-.14c0-.05,0-.09-.03-.14-.02-.04-.04-.08-.08-.12-.03-.03-.07-.06-.12-.08h0s-.1-.03-.15-.03c-.07.01-.15.03-.22.04-2.51.47-5.1.13-7.4-.97-2.3-1.1-4.19-2.9-5.4-5.15-.04-.06-.07-.13-.11-.2-.07-.07-.17-.1-.27-.1-.08,0-.17.04-.24.09-2.02.72-11.07,3.41-15.75-4.88l-.07-.13c-.05-.09-.14-.16-.24-.2-.1-.03-.2-.02-.29.03l-.13.06c-8.6,4.1-14.46-3.31-15.7-5.06-.03-.08-.07-.15-.14-.21-.04-.02-.07-.04-.11-.05-.05-.02-.11-.02-.17-.02-.07.04-.14.07-.21.1-2.28,1.14-4.86,1.53-7.37,1.11-2.51-.42-4.83-1.63-6.61-3.46-.06-.05-.11-.1-.16-.16"/>
    <path class="cls-6" d="m82.01,285.51s.11-.07.17-.08c.06-.01.13-.01.19,0,.05.02.1.04.14.08.04.04.07.08.09.13,4.97,9.03,14.16,5.89,16.12,5.1l.2-.1c.05,0,.1,0,.15.02.05.01.1.04.14.07l.11.19c1.14,1.78,6.86,9.63,16.12,5.1h.02s.09-.05.14-.05c.05,0,.1,0,.14.02.06.02.11.06.16.11.04.05.08.1.1.17.95,1.79,5.28,8.8,13.32,5.32.05-.02.09-.06.12-.1.03-.04.06-.08.07-.13l.82-2.6c.03-.1.02-.21-.02-.3-.05-.09-.13-.16-.23-.19-.03,0-.06,0-.09,0l-.22.03c-2.51.47-5.1.13-7.4-.97-2.3-1.1-4.19-2.9-5.4-5.14l-.11-.2s-.09-.07-.15-.09c-.04-.01-.08-.02-.12,0-.09,0-.17.02-.24.08-2.01.72-11.07,3.42-15.75-4.88l-.07-.13c-.05-.09-.14-.16-.24-.19-.1-.03-.2-.02-.29.02l-.13.07c-8.6,4.1-14.47-3.31-15.7-5.06-.02-.08-.07-.15-.14-.2-.04-.03-.08-.06-.13-.07-.05-.01-.1-.02-.15,0-.07.04-.14.07-.21.1-2.28,1.14-4.86,1.53-7.38,1.1-2.51-.42-4.83-1.64-6.61-3.46-.06-.06-.11-.11-.16-.15-.02-.02-.04-.03-.07-.04-.1-.03-.21-.02-.3.02s-.16.13-.19.23l-.82,2.6s-.02.1-.02.15c0,.05.02.1.04.15,4.56,7.47,12.15,4.22,13.96,3.3"/>
    <path class="cls-6" d="m137.12,195.76c.05.04.09.1.1.17.01.07,0,.13-.05.19l-4.9,6.81c-.04.05-.1.09-.16.1-.07.01-.13,0-.19-.04h0s-2.75-1.99-2.75-1.99c-.03-.02-.05-.04-.07-.07-.02-.03-.03-.06-.04-.09,0-.03,0-.07,0-.1,0-.03.02-.06.04-.09l4.9-6.81c.04-.06.1-.09.17-.1.07-.01.13,0,.19.04l2.75,1.98Z"/>
    <path class="cls-6" d="m160.07,227.68l-45.39-32.68c-.06-.04-.13-.05-.19-.04s-.13.05-.17.11l-2,2.77c-.04.05-.05.12-.04.19.01.07.05.12.1.16l45.4,32.68c.05.04.12.06.19.05.07-.01.13-.05.17-.1l2-2.77c.04-.06.06-.12.05-.19,0-.07-.05-.13-.1-.17"/>
    <path class="cls-6" d="m156.1,233.19l-45.39-32.68c-.06-.04-.12-.05-.19-.04-.07.01-.13.05-.17.1l-2,2.78c-.04.06-.05.12-.04.19.01.07.05.12.1.16l45.39,32.68c.05.04.12.06.19.04.07,0,.13-.05.17-.1l2-2.78c.04-.06.05-.12.04-.19-.01-.07-.05-.12-.1-.17Z"/>
    <path class="cls-6" d="m164.16,203.78c-.47-1.7-1.47-3.21-2.86-4.31-1.39-.97-3.09-1.35-4.76-1.08-.07,0-.13.03-.18.07-.06.03-.11.08-.14.13l-.18.25c-.04.05-.07.12-.09.19-.02.07-.02.14,0,.21.02.07.05.13.1.18.05.05.1.09.17.12.03.02.07.03.1.04.11.03.22.04.33.02.76.13,1.49.45,2.09.93,1.73,1.29,2.9,3.2,3.27,5.33v.07c.03.09.06.18.11.25.05.08.11.14.18.2.07.05.15.09.24.11.09.02.18.02.26,0h.07c2.14-.34,4.32.17,6.1,1.4.65.42,1.19,1,1.55,1.69.02.12.07.23.14.33.07.09.16.15.26.2.1.04.21.04.31,0,.1-.03.19-.09.25-.18l.16-.22c.04-.05.06-.11.08-.18.01-.06.01-.13,0-.19-.25-1.7-1.17-3.23-2.54-4.25-1.47-.97-3.22-1.44-4.99-1.34"/>
    <path class="cls-6" d="m174.36,183.66c-.07-.01-.13,0-.19.01-.06.02-.12.05-.18.09l-.15.12c-.06.04-.11.1-.14.17-.03.07-.05.14-.05.21,0,.07.02.14.05.2.03.06.07.12.12.16.02.02.04.03.06.04.08.05.17.09.26.1.11.04.21.1.3.17.65.53,1.14,1.22,1.44,2,.3.78.4,1.62.27,2.45v.04c-.02.08-.01.16,0,.24.02.08.06.15.11.21.05.06.11.12.18.16.07.04.15.07.22.08h.04c.86.14,1.68.46,2.38.96.78.5,1.34,1.27,1.59,2.15,0,.09,0,.19.03.28.03.06.06.12.1.18.02.02.04.04.06.06.01.01.03.02.04.03.08.06.18.09.29.09.1,0,.2-.04.28-.1l.13-.11c.05-.04.09-.09.12-.15.03-.06.05-.12.06-.18.12-.77.01-1.56-.29-2.28-.31-.72-.81-1.34-1.45-1.79-.56-.4-1.19-.69-1.86-.87.02-.75-.14-1.49-.46-2.17-.32-.68-.79-1.28-1.37-1.75-.6-.42-1.29-.69-2.01-.79"/>
    <path class="cls-6" d="m159.75,183.74l-.14.21c-.04.06-.06.13-.07.2,0,.07,0,.14.02.21.02.07.06.13.11.18.05.05.11.09.17.12.12.05.26.06.38.03.74.1,1.43.39,2.01.85,1.31.97,2.23,2.36,2.61,3.94v.06c.04.15.13.29.26.38l.03.02c.14.09.32.12.48.08h.05c.91-.22,1.85-.23,2.76-.05.91.18,1.78.54,2.54,1.07.42.27.77.64,1.03,1.07.03.11.08.21.15.29.07.08.17.15.27.18.1.03.21.03.3,0,.1-.04.18-.1.24-.19l.11-.18c.03-.05.06-.11.07-.18,0-.06,0-.13,0-.19-.28-1.29-1.02-2.44-2.08-3.23-1.3-.85-2.86-1.22-4.41-1.04-.45-1.26-1.24-2.37-2.3-3.19-.62-.43-1.32-.73-2.06-.87-.74-.14-1.5-.13-2.24.04-.06.01-.12.04-.18.08s-.1.09-.14.14"/>
    <path class="cls-6" d="m134.15,170.85c.46-.65,1.05-1.19,1.73-1.61s1.43-.7,2.22-.83c.79-.13,1.59-.1,2.37.08.77.18,1.51.52,2.15.98.11.08.2.16.3.24.78-.93,1.75-1.67,2.84-2.18,1.1-.51,2.29-.76,3.5-.76,1.21,0,2.4.29,3.49.81,1.09.52,2.05,1.28,2.81,2.22.76.94,1.31,2.03,1.6,3.2.29,1.17.32,2.39.08,3.58-.24,1.18-.73,2.3-1.45,3.27-.72.97-1.64,1.77-2.71,2.34,1.51,1.68,2.34,3.87,2.33,6.13,0,2.26-.84,4.44-2.36,6.12-1.51,1.68-3.59,2.74-5.84,2.98-2.25.24-4.5-.36-6.33-1.68-.3-.22-9.89-7.21-9.89-7.21-1.03-.74-1.82-1.76-2.27-2.95-.45-1.18-.55-2.47-.28-3.71.27-1.24.9-2.37,1.81-3.25.91-.88,2.06-1.48,3.3-1.72-.44-.97-.62-2.04-.51-3.11.11-1.06.49-2.08,1.12-2.95Z"/>
    <path class="cls-6" d="m231.33,84.23c-.12.56-.1,1.14.05,1.69s.44,1.05.84,1.47c.39.41.88.73,1.43.91.54.18,1.12.23,1.68.13.12-.56.1-1.14-.05-1.69s-.44-1.05-.84-1.47c-.39-.41-.88-.73-1.43-.91-.54-.18-1.12-.23-1.68-.13Z"/>
    <path class="cls-6" d="m234.33,93.1c.12-.56.1-1.14-.05-1.69-.15-.55-.44-1.05-.84-1.47-.39-.41-.88-.73-1.43-.91-.54-.18-1.12-.23-1.68-.13-.12.56-.1,1.14.05,1.69s.44,1.05.84,1.47c.39.41.88.73,1.43.91.54.18,1.12.23,1.68.13Z"/>
    <path class="cls-6" d="m237.71,89.08c.99.25,2.04.1,2.93-.4.77-.7,1.24-1.66,1.34-2.69-.99-.25-2.04-.1-2.93.4-.77.7-1.24,1.66-1.34,2.69Z"/>
    <path class="cls-6" d="m235.98,82.12c-.15,1.19.14,2.39.83,3.37,1.06-.52,1.88-1.44,2.28-2.55.15-1.19-.14-2.39-.83-3.37-1.06.52-1.88,1.43-2.28,2.55Z"/>
    <path class="cls-6" d="m239.71,93.44c.89-.53,1.56-1.37,1.86-2.36-.92-.44-1.98-.52-2.95-.2-.89.53-1.56,1.37-1.86,2.36.92.44,1.98.52,2.95.2"/>
    <path class="cls-6" d="m252.74,112.74l-9.28,5.54c-.33.21-.57.55-.66.94-.09.39-.03.79.17,1.14.2.34.53.59.92.69.38.1.79.05,1.14-.14l9.28-5.54c.34-.21.59-.55.68-.94.1-.39.03-.8-.17-1.15-.21-.35-.54-.59-.93-.7-.39-.1-.8-.04-1.15.16Z"/>
    <path class="cls-6" d="m261.39,127.21l-9.28,5.54c-.33.21-.57.55-.66.94-.09.39-.03.79.18,1.14.2.34.53.59.92.69s.79.05,1.14-.14l9.28-5.54c.34-.21.58-.55.67-.94.09-.39.03-.8-.18-1.14-.2-.34-.54-.59-.92-.69-.39-.1-.8-.05-1.14.15Z"/>
    <path class="cls-6" d="m209.1,134.48c-.25.06-.5.13-.74.22,0,0,.28-.07.74-.22Z"/>
    <path class="cls-6" d="m254.52,116.48l-8.6,5.14c-.1.06-.18.14-.25.23-.07.09-.12.2-.15.31-.03.11-.03.23-.02.34.02.11.06.22.11.32l1.55,2.6-5.25,3.97-8.32,4.71-2.99-5.01c1.02-.8,1.98-1.67,2.87-2.61,6.56-6.94,5.35-12.89,2.48-17.3-2.92-4.5-2.51-7.16-.87-9.22.44-.55.94-1.06,1.48-1.51.87,1.33,1.93,2.53,3.15,3.55.18-.12.36-.25.53-.38-1.24-1.02-2.31-2.23-3.18-3.57.57-.45,1.19-.84,1.84-1.18-.85.01-1.7-.05-2.54-.2-.94-2.39-.45-4.5.07-6.67.33-1.21.54-2.45.62-3.71l-.64-.02c-.08,1.21-.29,2.41-.61,3.58-.51,2.11-1.01,4.26-.16,6.69-.73-.15-1.45-.33-2.17-.55-3.25-1.02-4.8,2.08-6.38,7.54-1.58,5.46-6.02,8.26-13.09,6.39-9.34-2.47-14.37.58-17.64,2.99,2.98-.4,5.13,1.32,9.69,6.23,4.79,5.16,9.55,5.94,14.11,3.71-1.82,1.53-2.17,2.12-4.07,6.28-1.49,3.25-5.37,4.82-7,5.36,3.14-.75,7.92.15,11.3-.56,1.99-.42,3.92-1.1,5.74-2l2.86,4.8-15.76,8.96,2,3.35,27.93-17.53,5.98-2.74,1.55,2.6c.12.2.31.34.54.4.22.06.46.02.66-.1l8.6-5.14c.2-.12.34-.31.4-.54.06-.22.02-.46-.1-.66h0s-5.1-8.54-5.1-8.54c-.12-.2-.31-.34-.54-.4-.22-.06-.46-.02-.66.1h0s0,0,0,0Zm-26.98,14.69c.62-.36,1.22-.74,1.81-1.15l2.89,4.85-1.87,1.06-2.84-4.75Z"/>
    <path class="cls-6" d="m214.11,148.94c.21.3.29.67.23,1.04s-.27.68-.56.9l-.66.4c-.33.16-.71.19-1.06.07-.35-.12-.64-.37-.8-.69l-1.38-2.31c-.21-.3-.29-.67-.23-1.04.06-.36.26-.68.56-.9l.66-.4c.33-.16.71-.19,1.06-.07.35.12.64.37.8.69l1.38,2.31Z"/>
    <path class="cls-6" d="m364.16,75.85c-1.45-8.14-9.08-13.68-17.27-12.55-4.18-7.39-13.56-9.99-20.95-5.81-2,1.13-3.72,2.69-5.03,4.57-1.32,1.88-2.19,4.03-2.57,6.3-8.3,1.78-13.58,9.95-11.8,18.25.47,2.2,1.42,4.26,2.78,6.05,1.36,1.79,3.09,3.26,5.08,4.31-.9,8.44,5.2,16.01,13.64,16.92,2.26.24,4.54-.02,6.69-.77,2.15-.75,4.1-1.96,5.72-3.55,7.77,3.41,16.84-.12,20.25-7.89.89-2.04,1.34-4.25,1.29-6.47-.04-2.22-.57-4.41-1.54-6.42,1.56-1.73,2.71-3.8,3.35-6.05.64-2.24.76-4.6.36-6.9m-18.56-7.12c.51,2.9-.04,5.88-1.54,8.41-1.5,2.53-3.86,4.43-6.65,5.37-2.23-6.34,1.11-13.29,7.45-15.52.08-.03.17-.06.25-.09.21.6.37,1.21.49,1.83m-5.87,36.92c-5.61-3.78-7.08-11.39-3.3-17h0c.05-.07.1-.14.14-.21,5.61,3.78,7.08,11.39,3.3,17l-.14.21Zm-18.48-34.52c6.71-.24,12.35,5.01,12.59,11.72,0,.1,0,.19,0,.29-6.71.24-12.35-5.01-12.59-11.73,0-.1,0-.19,0-.28Zm12.09,15.76c-1.91,6.48-8.7,10.19-15.19,8.29l-.23-.07c1.9-6.48,8.7-10.19,15.19-8.29h0s.23.07.23.07Zm5.78-1.11c5.34-4.14,13.03-3.16,17.17,2.18.07.1.15.19.22.29-5.34,4.14-13.03,3.16-17.17-2.18h0c-.07-.1-.15-.19-.22-.29Zm-7.75-27c2.36-.41,4.78-.13,6.98.81,2.2.94,4.07,2.51,5.4,4.5-2.32.85-4.4,2.25-6.07,4.07-1.67,1.82-2.87,4.02-3.51,6.4-1.42-2.02-3.31-3.67-5.5-4.81-2.19-1.14-4.62-1.74-7.09-1.74.56-2.33,1.78-4.44,3.52-6.08,1.74-1.64,3.92-2.74,6.28-3.16m-21.89,26.75c-.52-2.98.07-6.05,1.67-8.62s4.09-4.46,7-5.31c.12,2.47.82,4.87,2.07,7.01,1.24,2.14,2.98,3.94,5.08,5.26-2.38.71-4.55,1.99-6.33,3.72-1.78,1.73-3.11,3.86-3.89,6.22-1.46-.91-2.71-2.11-3.68-3.53s-1.62-3.03-1.92-4.72m8.1,15.21c-.15-.84-.21-1.7-.18-2.55,2.36.67,4.85.76,7.26.26,2.41-.49,4.66-1.56,6.57-3.1-.03,2.46.54,4.89,1.65,7.08,1.11,2.19,2.73,4.09,4.73,5.52-5.15,4.39-12.89,3.78-17.28-1.37-1.42-1.67-2.37-3.68-2.75-5.84m41.12-7.39c1.19,6.67-3.25,13.04-9.92,14.23-2.1.38-4.27.19-6.28-.53,1.35-2.04,2.2-4.38,2.46-6.81.26-2.43-.06-4.9-.94-7.18,2.33.8,4.82,1.03,7.25.67,2.44-.36,4.75-1.31,6.75-2.76.3.77.53,1.56.67,2.37m-12.93-13.2c1.28-1.69,2.2-3.62,2.7-5.68.5-2.06.56-4.2.19-6.28-.12-.65-.27-1.28-.47-1.91,6.76-.47,12.61,4.62,13.08,11.38.21,3.01-.7,5.99-2.54,8.37-1.53-1.95-3.5-3.5-5.76-4.53-2.26-1.02-4.72-1.49-7.2-1.35Z"/>
  </g>
</svg>