<svg width="512" height="564" viewBox="0 0 512 564" fill="none" xmlns="http://www.w3.org/2000/svg">
<path d="M436.193 308.711H60.5372C51.8836 308.711 44.8688 300.73 44.8688 290.884V17.8271C44.8688 7.9817 51.8836 0 60.5372 0H436.193C444.847 0 451.862 7.9817 451.862 17.8271V290.884C451.862 300.73 444.847 308.711 436.193 308.711Z" fill="#063E70"/>
<path d="M441.73 10.1221H55.0002V278.347H441.73V10.1221Z" fill="#C9EDF9"/>
<path d="M441.73 83.8108C436.467 82.0238 430.157 80.8832 422.579 80.77C380.693 80.1455 378.84 139.529 378.84 139.529C330.653 124.702 317.309 177.551 317.309 177.551C317.309 177.551 324.723 107.964 253.184 94.0469C181.645 80.1292 183.898 158.718 183.898 158.718C162.8 129.764 138.277 151.403 138.277 151.403C138.277 151.403 131.605 106.699 93.7964 104.911C73.4842 103.95 61.6272 117.441 55.0002 130.132V206.224L84.53 214.242C84.53 214.242 273.2 232.377 283.424 231.955C293.649 231.534 394.037 245.872 395.891 245.029C396.997 244.526 421.596 235.613 441.73 227.25L441.73 83.8108Z" fill="#EEFBFF"/>
<path d="M441.73 278.347V209.573C429.002 209.274 413.208 208.53 394.779 206.932C342.885 202.434 181.57 179.735 149.601 176.005C93.3022 169.436 55.0002 189.38 55.0002 189.38V278.346L441.73 278.347Z" fill="#6577FF"/>
<path d="M224.483 264.038C241.992 256.477 381.225 231.112 381.225 231.112C236.702 202.996 84.9004 243.483 84.9004 243.483C83.4179 227.176 124.933 197.936 124.933 197.936C94.4803 199.839 68.5641 220.044 55.0002 232.896V278.347H205.72C209.322 273.983 214.848 268.199 224.483 264.038Z" fill="#4054E7"/>
<path d="M258.293 83.3181L275.952 81.9146L258.293 80.5112V83.3181Z" fill="#EAF5F9"/>
<path d="M272.597 81.9154C272.597 83.0224 273.386 83.9197 274.358 83.9197C275.331 83.9197 276.12 83.022 276.12 81.9154C276.12 80.8087 275.331 79.9111 274.358 79.9111C273.386 79.9111 272.597 80.8084 272.597 81.9154Z" fill="#65CEFE"/>
<path d="M260.28 87.446C263.042 87.446 265.281 84.8983 265.281 81.7566C265.281 78.6145 263.042 76.0669 260.28 76.0669V87.446Z" fill="#063E70"/>
<path d="M205.632 83.3181L187.974 81.9146L205.632 80.5112V83.3181Z" fill="#063E70"/>
<path d="M191.329 81.9154C191.329 83.0224 190.54 83.9197 189.567 83.9197C188.594 83.9197 187.806 83.022 187.806 81.9154C187.806 80.8087 188.594 79.9111 189.567 79.9111C190.54 79.9111 191.329 80.8084 191.329 81.9154Z" fill="#FF6E53"/>
<path d="M203.645 87.446C200.883 87.446 198.645 84.8983 198.645 81.7566C198.645 78.6145 200.883 76.0669 203.645 76.0669V87.446Z" fill="#063E70"/>
<path d="M258.293 83.3181L275.952 81.9146L258.293 80.5112V83.3181Z" fill="#063E70"/>
<path d="M272.597 81.9154C272.597 83.0224 273.386 83.9197 274.358 83.9197C275.331 83.9197 276.12 83.022 276.12 81.9154C276.12 80.8087 275.331 79.9111 274.358 79.9111C273.386 79.9111 272.597 80.8084 272.597 81.9154Z" fill="#FF6E53"/>
<path d="M260.28 87.446C263.042 87.446 265.281 84.8983 265.281 81.7566C265.281 78.6145 263.042 76.0669 260.28 76.0669V87.446Z" fill="#063E70"/>
<path d="M269.558 135.957L271.725 130.311C285.274 137.044 301.114 132.507 310.245 119.276L313.628 114.375L317.886 118.181L314.504 123.082C303.849 138.519 285.367 143.814 269.558 135.957Z" fill="#063E70"/>
<path d="M323.22 116.521C323.987 115.181 324.167 113.573 323.846 111.998L326.547 107.28C326.885 106.688 326.738 105.897 326.219 105.511C325.699 105.126 325.003 105.294 324.664 105.885L322.736 109.255C322.194 108.396 321.49 107.617 320.637 106.985C319.775 106.347 318.853 105.925 317.935 105.711L319.869 102.332C320.208 101.741 320.061 100.949 319.541 100.564C319.021 100.178 318.325 100.346 317.987 100.937L315.272 105.68C313.892 105.99 312.686 106.825 311.927 108.152C311.042 109.699 310.938 111.604 311.485 113.401C311.045 113.491 310.638 113.777 310.375 114.237C309.868 115.122 310.088 116.307 310.866 116.882L316.61 121.138C317.387 121.714 318.428 121.464 318.935 120.58C319.194 120.126 319.262 119.593 319.162 119.105C320.835 118.952 322.332 118.072 323.22 116.521Z" fill="#FF6E53"/>
<path d="M199.575 127.854L200.466 133.931C185.883 136.7 174.786 150.337 173.479 167.093L172.995 173.301L167.601 172.756L168.085 166.549C169.61 146.998 182.558 131.086 199.575 127.854Z" fill="#063E70"/>
<path d="M163.928 177.46C163.928 179.058 164.549 180.518 165.572 181.638V187.27C165.572 187.975 166.075 188.547 166.695 188.547C167.316 188.547 167.818 187.976 167.818 187.27V183.248C168.684 183.632 169.648 183.847 170.666 183.847C171.695 183.847 172.669 183.627 173.541 183.237V187.27C173.541 187.975 174.044 188.547 174.664 188.547C175.284 188.547 175.787 187.976 175.787 187.27V181.609C176.795 180.493 177.405 179.044 177.405 177.46C177.405 175.615 176.579 173.954 175.258 172.788C175.583 172.439 175.787 171.946 175.787 171.397C175.787 170.342 175.035 169.486 174.107 169.486H167.253C166.324 169.486 165.572 170.342 165.572 171.397C165.572 171.939 165.771 172.427 166.089 172.774C164.76 173.941 163.928 175.608 163.928 177.46Z" fill="#FF6E53"/>
<path d="M248.543 200.142H241.079V247.66H248.543V200.142Z" fill="#063E70"/>
<path d="M244.49 236.686C239.699 236.686 235.589 240.006 233.84 244.734C232.944 247.155 234.538 249.828 236.847 249.828H252.134C254.442 249.828 256.037 247.155 255.141 244.734C253.392 240.006 249.282 236.686 244.49 236.686Z" fill="#65CEFE"/>
<path d="M250.719 217.956C251.091 222.23 247.96 225.792 244.204 225.369C241.426 225.055 239.178 222.498 238.903 219.336C238.531 215.064 241.661 211.502 245.416 211.925C248.196 212.237 250.443 214.795 250.719 217.956Z" fill="#FF6E53"/>
<path d="M220.975 200.142H213.512V247.66H220.975V200.142Z" fill="#063E70"/>
<path d="M246.106 109.161C246.106 108.27 245.471 107.547 244.687 107.547C245.471 107.547 246.106 106.824 246.106 105.933C246.106 105.042 245.471 104.319 244.687 104.319H219.022C218.239 104.319 217.604 105.042 217.604 105.933C217.604 106.824 218.239 107.547 219.022 107.547C218.239 107.547 217.604 108.27 217.604 109.161C217.604 110.052 218.239 110.775 219.022 110.775C218.239 110.775 217.604 111.497 217.604 112.389C217.604 113.28 218.239 114.003 219.022 114.003H244.687C245.471 114.003 246.106 113.28 246.106 112.389C246.106 111.497 245.471 110.775 244.687 110.775C245.471 110.775 246.106 110.052 246.106 109.161Z" fill="#063E70"/>
<path d="M215.163 65.5332L217.463 28.0674L219.763 65.5332H215.163Z" fill="#063E70"/>
<path d="M244.165 65.5332L246.465 28.0674L248.765 65.5332H244.165Z" fill="#063E70"/>
<path d="M252.772 69.0749H210.962V65.5786C210.962 59.9038 215.005 55.3037 219.992 55.3037H243.741C248.728 55.3037 252.772 59.9038 252.772 65.5786L252.772 69.0749Z" fill="#063E70"/>
<path d="M199.984 144.738C194.176 144.738 189.468 139.381 189.468 132.774C189.468 126.166 194.176 120.809 199.984 120.809V144.738Z" fill="#063E70"/>
<path d="M263.915 144.738H263.915C269.723 144.738 274.431 139.381 274.431 132.774C274.431 126.166 269.723 120.809 263.915 120.809H263.915V144.738Z" fill="#063E70"/>
<path d="M251.22 105.332H212.683C207.678 105.332 203.622 100.717 203.622 95.0231V70.1365C203.622 64.4428 207.678 59.8271 212.683 59.8271H251.22C256.224 59.8271 260.28 64.4428 260.28 70.1365V95.0231C260.28 100.717 256.224 105.332 251.22 105.332Z" fill="#65CEFE"/>
<path d="M218.738 76.9821C219.07 80.7915 216.279 83.9669 212.931 83.5897C210.453 83.3107 208.449 81.0305 208.204 78.2118C207.872 74.402 210.663 71.2262 214.012 71.6038C216.489 71.8832 218.493 74.1633 218.738 76.9821Z" fill="#EAF5F9"/>
<path d="M255.699 76.982C256.03 80.7914 253.24 83.9664 249.891 83.5896C247.414 83.3106 245.41 81.0308 245.164 78.2121C244.832 74.4023 247.623 71.2265 250.972 71.6037C253.449 71.8828 255.453 74.1629 255.699 76.982Z" fill="#EAF5F9"/>
<path d="M231.951 92.7767C226.245 92.7767 223.37 89.5839 221.962 86.9053C221.432 85.8968 221.074 84.8959 220.832 84.0145C220.427 82.5386 221.361 81.026 222.718 80.9551H222.72C223.667 80.9057 224.516 81.5962 224.8 82.6269C224.967 83.2328 225.218 83.9318 225.594 84.6165C226.85 86.899 228.989 88.0562 231.951 88.0562C234.914 88.0562 237.052 86.8986 238.308 84.6165C238.685 83.9318 238.936 83.2328 239.103 82.6269C239.386 81.5962 240.235 80.9057 241.183 80.9551H241.184C242.542 81.0264 243.475 82.5386 243.07 84.0145C242.828 84.8959 242.471 85.8968 241.941 86.9053C240.533 89.5839 237.657 92.7767 231.951 92.7767Z" fill="#EAF5F9"/>
<path d="M231.951 90.9721C229.284 90.9721 227.072 90.1949 225.373 88.6612C224.241 87.6393 223.359 86.3082 222.745 84.6978C222.634 84.4061 222.76 84.0673 223.021 83.9553C223.264 83.8512 223.536 83.9807 223.639 84.2518C224.656 86.9181 226.918 89.8616 231.95 89.8616C236.984 89.8616 239.246 86.9181 240.262 84.2518C240.365 83.9807 240.637 83.8512 240.881 83.9553C241.142 84.0673 241.267 84.4061 241.156 84.6978C240.543 86.3078 239.66 87.6393 238.528 88.6612C236.83 90.1949 234.617 90.9721 231.951 90.9721Z" fill="#063E70"/>
<path d="M217.235 77.0355C217.548 79.8602 215.46 82.2357 212.977 81.8791C211.286 81.6368 209.92 80.0829 209.707 78.1587C209.394 75.3336 211.482 72.9581 213.965 73.3143C215.656 73.5569 217.022 75.1108 217.235 77.0355Z" fill="#063E70"/>
<path d="M254.195 77.0351C254.508 79.8598 252.421 82.2352 249.938 81.8794C248.247 81.6372 246.881 80.0833 246.668 78.159C246.354 75.334 248.442 72.9581 250.925 73.3143C252.616 73.5565 253.982 75.1108 254.195 77.0351Z" fill="#063E70"/>
<path d="M252.513 74.7026C253.328 75.4965 253.529 76.7508 252.962 77.5044C252.395 78.2579 251.274 78.2254 250.459 77.4315C249.644 76.6376 249.443 75.3829 250.01 74.6293C250.577 73.8758 251.698 73.9086 252.513 74.7026Z" fill="#E3EEF4"/>
<path d="M215.705 74.7026C216.52 75.4965 216.721 76.7508 216.154 77.5044C215.587 78.2579 214.467 78.2254 213.651 77.4315C212.836 76.6376 212.635 75.3829 213.202 74.6293C213.769 73.8758 214.89 73.9086 215.705 74.7026Z" fill="#E3EEF4"/>
<path opacity="0.3" d="M253.615 100.35H210.288C206.606 100.35 203.622 96.9537 203.622 92.7651V97.7488C203.622 101.937 206.606 105.333 210.288 105.333H253.615C257.296 105.333 260.28 101.937 260.28 97.7488V92.7651C260.28 96.9537 257.296 100.35 253.615 100.35Z" fill="#063E70"/>
<path d="M255.036 201.735H208.863C203.959 201.735 199.984 197.212 199.984 191.633V122.642C199.984 117.062 203.959 112.54 208.863 112.54H255.036C259.94 112.54 263.915 117.062 263.915 122.642V191.633C263.915 197.212 259.94 201.735 255.036 201.735Z" fill="#65CEFE"/>
<path opacity="0.3" d="M256.394 196.112H207.505C203.351 196.112 199.984 192.28 199.984 187.554V193.177C199.984 197.903 203.351 201.735 207.505 201.735H256.394C260.548 201.735 263.915 197.903 263.915 193.177V187.554C263.915 192.28 260.548 196.112 256.394 196.112Z" fill="#063E70"/>
<path opacity="0.3" d="M225.457 174.516H212.804C208.562 174.516 205.124 170.604 205.124 165.778V134.158C205.124 129.333 208.562 125.42 212.804 125.42H225.457C229.699 125.42 233.137 129.333 233.137 134.158V165.778C233.137 170.604 229.699 174.516 225.457 174.516Z" fill="#063E70"/>
<path opacity="0.3" d="M252.674 174.516H243.98C239.738 174.516 236.299 170.604 236.299 165.778V134.158C236.299 129.333 239.738 125.42 243.98 125.42H252.674C256.916 125.42 260.354 129.333 260.354 134.158V165.778C260.354 170.604 256.916 174.516 252.674 174.516Z" fill="#063E70"/>
<path d="M228.882 168.233C228.226 168.233 227.694 167.628 227.694 166.881V133.055C227.694 132.308 228.226 131.704 228.882 131.704H228.882C229.538 131.704 230.069 132.308 230.069 133.054V166.881C230.069 167.628 229.537 168.233 228.882 168.233Z" fill="#063E70"/>
<path d="M248.327 129.804C242.779 129.804 238.28 135.069 238.28 141.562H258.374C258.373 135.069 253.876 129.804 248.327 129.804Z" fill="#063E70"/>
<path d="M248.327 131.456C244.085 131.456 240.646 135.22 240.646 139.863H256.007C256.007 135.22 252.569 131.456 248.327 131.456Z" fill="#EAF5F9"/>
<path d="M242.25 151.807C242.513 153.162 241.475 154.342 240.285 154.042C239.685 153.89 239.201 153.34 239.068 152.657C238.802 151.301 239.842 150.118 241.034 150.421C241.634 150.573 242.118 151.124 242.25 151.807Z" fill="#063E70"/>
<path d="M258.258 152.231C258.258 153.257 257.526 154.089 256.625 154.089C255.723 154.089 254.992 153.257 254.992 152.231C254.992 151.205 255.723 150.373 256.625 150.373C257.527 150.373 258.258 151.205 258.258 152.231Z" fill="#063E70"/>
<path d="M242.25 169.335C242.513 170.691 241.475 171.87 240.285 171.57C239.685 171.419 239.201 170.868 239.068 170.185C238.802 168.829 239.842 167.647 241.034 167.949C241.634 168.101 242.118 168.652 242.25 169.335Z" fill="#063E70"/>
<path d="M258.258 169.759C258.258 170.785 257.526 171.616 256.625 171.616C255.723 171.616 254.992 170.785 254.992 169.759C254.992 168.733 255.723 167.901 256.625 167.901C257.527 167.901 258.258 168.733 258.258 169.759Z" fill="#063E70"/>
<path d="M258.914 184.396H206.966C206.171 184.396 205.526 183.662 205.526 182.758C205.526 181.853 206.171 181.119 206.966 181.119H258.914C259.709 181.119 260.354 181.853 260.354 182.758C260.354 183.662 259.709 184.396 258.914 184.396Z" fill="#063E70"/>
<path d="M258.914 190.831H206.966C206.171 190.831 205.526 190.097 205.526 189.192C205.526 188.288 206.171 187.554 206.966 187.554H258.914C259.709 187.554 260.354 188.288 260.354 189.192C260.354 190.097 259.709 190.831 258.914 190.831Z" fill="#063E70"/>
<path opacity="0.3" d="M247.87 138.803L250.827 132.639L249.198 138.968L247.87 138.803Z" fill="#063E70"/>
<path d="M249.807 139.863C249.808 139.829 249.811 139.795 249.811 139.76C249.811 138.827 249.147 138.071 248.327 138.071C247.507 138.071 246.842 138.827 246.842 139.76C246.842 139.795 246.845 139.829 246.847 139.863H249.807Z" fill="#65CEFE"/>
<path d="M216.923 236.686C212.131 236.686 208.021 240.006 206.272 244.734C205.377 247.155 206.971 249.828 209.28 249.828H224.566C226.875 249.828 228.469 247.155 227.574 244.734C225.824 240.006 221.714 236.686 216.923 236.686Z" fill="#65CEFE"/>
<path d="M223.151 217.957C223.523 222.229 220.394 225.791 216.639 225.369C213.859 225.056 211.611 222.499 211.335 219.337C210.963 215.064 214.093 211.502 217.849 211.925C220.628 212.237 222.876 214.795 223.151 217.957Z" fill="#FF6E53"/>
<path d="M220.201 30.1281C220.513 32.2899 218.894 34.1322 216.993 33.778C215.843 33.5639 214.915 32.508 214.726 31.1991C214.413 29.0358 216.034 27.1926 217.935 27.548C219.085 27.7633 220.013 28.8193 220.201 30.1281Z" fill="#FF6E53"/>
<path d="M249.203 30.1275C249.515 32.2905 247.895 34.134 245.994 33.7782C244.844 33.5629 243.916 32.5069 243.727 31.1977C243.416 29.0359 245.035 27.1936 246.935 27.5478C248.086 27.7627 249.014 28.8183 249.203 30.1275Z" fill="#FF6E53"/>
<path d="M441.73 248.437C404.961 251.716 359.058 257.281 333.495 265.975C333.495 265.975 410.1 266.943 438.271 274.894C439.43 275.221 440.582 275.557 441.73 275.896V248.437Z" fill="#4054E7"/>
<path d="M133.634 67.8497C132.841 63.9192 129.749 60.9872 126.055 60.9872C125.376 60.9872 124.718 61.0865 124.091 61.2721C122.267 56.835 118.309 53.7606 113.72 53.7606C112.533 53.7606 111.389 53.9665 110.313 54.3472C107.842 49.6924 103.353 46.5796 98.2251 46.5796C92.1241 46.5796 86.9275 50.9858 84.9586 57.1533C83.5648 56.2695 81.9601 55.7633 80.2511 55.7633C74.9032 55.7633 70.5682 60.696 70.5682 66.7807C70.5682 67.1413 70.5846 67.4978 70.6145 67.8497H133.634Z" fill="#EEFBFF"/>
<path d="M421.321 27.7622C421.114 26.7364 420.307 25.9713 419.343 25.9713C419.166 25.9713 418.994 25.9971 418.83 26.0457C418.354 24.8877 417.321 24.0854 416.123 24.0854C415.813 24.0854 415.515 24.1393 415.234 24.2386C414.589 23.0239 413.417 22.2114 412.079 22.2114C410.487 22.2114 409.131 23.3611 408.617 24.9712C408.253 24.7404 407.834 24.6087 407.388 24.6087C405.992 24.6087 404.861 25.8957 404.861 27.484C404.861 27.5778 404.865 27.6716 404.873 27.763H421.321V27.7622Z" fill="#EEFBFF"/>
<path d="M350.203 68.4189C350.858 65.3199 353.411 63.0082 356.462 63.0082C357.023 63.0082 357.566 63.0865 358.084 63.2326C359.59 59.7339 362.859 57.3097 366.649 57.3097C367.629 57.3097 368.574 57.472 369.464 57.7728C371.504 54.1027 375.211 51.6484 379.447 51.6484C384.485 51.6484 388.777 55.1218 390.403 59.9848C391.555 59.2874 392.88 58.8888 394.291 58.8888C398.708 58.8888 402.289 62.7778 402.289 67.575C402.289 67.8592 402.275 68.1407 402.251 68.4181H350.203V68.4189Z" fill="#EEFBFF"/>
<path d="M162.64 33.1945C162.382 31.9137 161.375 30.9583 160.171 30.9583C159.949 30.9583 159.735 30.9907 159.531 31.0513C158.936 29.6051 157.647 28.603 156.151 28.603C155.765 28.603 155.392 28.6699 155.041 28.7942C154.236 27.2775 152.773 26.2632 151.102 26.2632C149.114 26.2632 147.421 27.6987 146.779 29.7084C146.325 29.4203 145.802 29.2556 145.245 29.2556C143.503 29.2556 142.09 30.8629 142.09 32.8454C142.09 32.963 142.096 33.0793 142.105 33.1941L162.64 33.1945Z" fill="#EEFBFF"/>
<path d="M250.961 296.598H242.352C240.818 296.598 239.575 295.183 239.575 293.438C239.575 291.693 240.818 290.279 242.352 290.279H250.961C252.495 290.279 253.739 291.693 253.739 293.438C253.739 295.183 252.495 296.598 250.961 296.598Z" fill="#E9FFFE"/>
<path opacity="0.5" d="M68.7757 296.598C67.2416 296.598 65.9984 295.183 65.9984 293.438C65.9984 291.693 67.242 290.279 68.7757 290.279C70.3094 290.279 71.5526 291.693 71.5526 293.438C71.5526 295.183 70.3094 296.598 68.7757 296.598Z" fill="#E9FFFE"/>
<path opacity="0.5" d="M78.7734 296.598C77.2393 296.598 75.9961 295.183 75.9961 293.438C75.9961 291.693 77.2393 290.279 78.7734 290.279C80.307 290.279 81.5506 291.693 81.5506 293.438C81.5506 295.183 80.3074 296.598 78.7734 296.598Z" fill="#E1303E"/>
<path opacity="0.5" d="M88.7713 296.598C87.2373 296.598 85.994 295.183 85.994 293.438C85.994 291.693 87.2373 290.279 88.7713 290.279C90.305 290.279 91.5486 291.693 91.5486 293.438C91.5486 295.183 90.305 296.598 88.7713 296.598Z" fill="#E9FFFE"/>
<path opacity="0.3" d="M171.858 10.1221L64.7446 278.347L154.592 278.27L250.817 10.1221H171.858Z" fill="white"/>
<path opacity="0.3" d="M317.941 10.1221L210.827 278.347L300.674 278.27L396.9 10.1221H317.941Z" fill="white"/>
<path opacity="0.5" d="M425.465 564C460.637 564 489.15 553.8 489.15 541.218C489.15 528.636 460.637 518.436 425.465 518.436C390.294 518.436 361.781 528.636 361.781 541.218C361.781 553.8 390.294 564 425.465 564Z" fill="#C9EDF9"/>
<path d="M497.992 454.41C493.647 458.103 493.234 465.293 497.121 469.597C500.178 472.982 505.041 473.344 508.459 470.439C512.804 466.746 513.217 459.556 509.33 455.252C506.273 451.866 501.41 451.505 497.992 454.41Z" fill="#65CEFE"/>
<path d="M499.525 457.627C497.197 459.952 496.966 463.985 499.009 466.634C501.053 469.284 504.597 469.547 506.926 467.221C509.254 464.897 509.486 460.864 507.442 458.214C505.398 455.564 501.854 455.302 499.525 457.627Z" fill="#C9EDF9"/>
<path d="M484.228 422.688C481.142 419.154 476.124 418.782 472.66 421.829C468.618 425.385 468.101 432.02 471.42 436.323C474.616 440.467 480.16 440.879 483.803 437.242C487.584 433.466 487.829 426.811 484.228 422.688Z" fill="#65CEFE"/>
<path d="M474.315 424.941C471.986 427.266 471.756 431.299 473.799 433.949C475.842 436.598 479.387 436.861 481.715 434.536C484.044 432.211 484.275 428.178 482.232 425.528C480.188 422.879 476.644 422.616 474.315 424.941Z" fill="#C9EDF9"/>
<path d="M463.556 436.973C454.975 445.541 455.067 461.625 463.762 472.899C472.457 484.172 486.462 486.365 495.043 477.797C503.624 469.23 503.532 453.145 494.837 441.872C486.142 430.599 472.137 428.405 463.556 436.973Z" fill="#65CEFE"/>
<path d="M486.394 456.896C484.623 458.153 484.462 460.972 486.074 462.48C487.051 463.394 488.47 463.499 489.543 462.739C491.317 461.482 491.478 458.66 489.864 457.152C488.887 456.239 487.467 456.134 486.394 456.896Z" fill="#031322"/>
<path d="M491.385 458.77C491.589 459.721 491.278 460.624 490.69 460.788C490.101 460.951 489.459 460.314 489.254 459.363C489.05 458.413 489.361 457.509 489.95 457.345C490.538 457.182 491.181 457.82 491.385 458.77Z" fill="white"/>
<path d="M476.32 444.713C475.07 445.961 474.946 448.125 476.043 449.547C477.14 450.969 479.042 451.11 480.291 449.863C481.541 448.615 481.665 446.451 480.569 445.028C479.472 443.607 477.57 443.465 476.32 444.713Z" fill="#031322"/>
<path d="M481.721 446.241C481.925 447.191 481.614 448.094 481.026 448.258C480.438 448.422 479.795 447.784 479.591 446.833C479.386 445.883 479.698 444.979 480.286 444.816C480.874 444.652 481.517 445.29 481.721 446.241Z" fill="white"/>
<path d="M465.844 448.783C461.177 453.442 461.692 462.794 466.995 469.67C472.299 476.545 480.381 478.341 485.048 473.682C489.715 469.022 489.2 459.67 483.897 452.794C478.594 445.919 470.511 444.123 465.844 448.783Z" fill="#C9EDF9"/>
<path d="M480.562 454.889C480.915 455.36 481.274 455.825 481.639 456.284C482.978 457.972 485.995 462.072 484.792 463.357C483.277 464.977 478.483 466.012 474.028 462.752L473.974 462.713L473.938 462.634C471.675 457.185 473.2 451.911 474.808 450.413C476.084 449.223 479.266 453.159 480.562 454.889Z" fill="#031322"/>
<path opacity="0.5" d="M477.215 453.322C476.79 453.746 477.678 455.688 479.198 457.659C480.718 459.63 482.295 460.883 482.72 460.459C483.145 460.035 482.257 458.093 480.737 456.122C479.217 454.152 477.64 452.898 477.215 453.322Z" fill="#FDF8F7"/>
<g opacity="0.5">
<path d="M472.364 464.309C479.547 473.622 490.353 476.738 498.732 472.71C497.765 474.59 496.535 476.307 495.043 477.797C486.461 486.365 472.456 484.172 463.762 472.899C455.067 461.625 454.974 445.541 463.555 436.973C465.048 435.483 466.704 434.319 468.468 433.471C463.87 442.401 465.181 454.997 472.364 464.309Z" fill="#8BCDF2"/>
</g>
<path d="M369.278 494.826C376.856 487.489 392.818 498.312 392.818 498.312L424.257 518.124L455.697 498.312C455.697 498.312 471.659 487.489 479.237 494.826C486.814 502.164 475.722 533.192 453.924 543.989C441.186 550.297 407.328 550.297 394.591 543.989C372.792 533.192 361.7 502.164 369.278 494.826Z" fill="#063E70"/>
<path d="M473.371 471.742C473.371 471.742 477.611 486.439 477.414 492.161C477.217 497.883 470.413 506.746 463.117 506.746C455.82 506.746 454.933 466.694 454.933 466.694L473.371 471.742Z" fill="#FFC0BB"/>
<path d="M377.4 471.742C377.4 471.742 373.16 486.439 373.357 492.161C373.554 497.883 380.358 506.746 387.655 506.746C394.952 506.746 395.839 466.694 395.839 466.694L377.4 471.742Z" fill="#FFC0BB"/>
<path d="M374.653 472.141C377.34 438.51 403.136 427.871 403.136 427.871H425.386H447.636C447.636 427.871 473.432 438.51 476.119 472.141C476.119 472.141 470.423 477.277 459.566 477.889C459.566 477.889 464.296 506.872 465.263 513.232C465.263 513.232 450.407 528.507 428.309 528.327C426.36 528.311 424.412 528.311 422.463 528.327C400.366 528.507 385.509 513.232 385.509 513.232C386.476 506.872 391.206 477.889 391.206 477.889C380.349 477.277 374.653 472.141 374.653 472.141Z" fill="#FF6E53"/>
<path d="M387.848 342.019C405.701 320.495 425.136 329.545 425.136 329.545C425.136 329.545 444.572 320.495 462.425 342.019C480.278 363.543 496.55 431.784 435.984 436.675H427.848H422.424H414.289C353.724 431.783 369.995 363.543 387.848 342.019Z" fill="#FFCB83"/>
<g opacity="0.5">
<path d="M376.598 363.23C374.764 393.398 379.836 396.365 393.57 397.786C407.758 399.253 410.123 388.002 426.46 390.692C442.798 393.383 453.977 406.346 465.89 392.649C473.204 384.24 467.406 359.329 461.841 341.347C462.035 341.574 462.231 341.785 462.425 342.019C480.279 363.543 496.55 431.784 435.984 436.675H427.848H422.424H414.289C367.807 432.921 366.584 391.855 376.598 363.23Z" fill="#E6A748"/>
</g>
<path opacity="0.5" d="M459.566 477.889C459.566 477.889 464.296 506.872 465.263 513.232C465.263 513.232 450.406 528.507 428.309 528.327C426.36 528.311 424.412 528.311 422.463 528.327C400.365 528.507 385.509 513.232 385.509 513.232C385.857 510.94 386.695 505.707 387.623 499.954C446.95 521.051 459.566 477.889 459.566 477.889Z" fill="#EE5F3D"/>
<path opacity="0.5" d="M475.429 466.583C475.726 468.365 475.965 470.21 476.119 472.14C476.119 472.14 470.422 477.277 459.566 477.888L457.47 471.529C465.278 471.839 471.398 469.065 475.429 466.583Z" fill="#EE5F3D"/>
<path opacity="0.5" d="M375.342 466.583C375.045 468.365 374.807 470.21 374.653 472.14C374.653 472.14 380.349 477.277 391.205 477.888L393.302 471.529C385.494 471.839 379.373 469.065 375.342 466.583Z" fill="#EE5F3D"/>
<path d="M465.263 513.231C464.677 508.242 464 503.273 463.233 498.324C462.486 493.371 461.656 488.437 460.809 483.506C459.935 478.581 459.044 473.661 458.07 468.759C457.116 463.852 456.07 458.967 454.933 454.102C455.517 459.092 456.192 464.062 456.96 469.01C457.707 473.963 458.538 478.897 459.386 483.828C460.261 488.751 461.153 493.673 462.127 498.574C463.082 503.481 464.127 508.366 465.263 513.231Z" fill="white"/>
<path d="M385.509 513.231C386.095 508.242 386.771 503.273 387.538 498.324C388.285 493.371 389.116 488.437 389.963 483.506C390.836 478.581 391.727 473.661 392.702 468.759C393.655 463.852 394.702 458.967 395.839 454.102C395.255 459.092 394.58 464.062 393.812 469.01C393.064 473.963 392.234 478.897 391.385 483.828C390.51 488.751 389.619 493.673 388.644 498.574C387.69 503.481 386.644 508.366 385.509 513.231Z" fill="white"/>
<path opacity="0.5" d="M248.365 564C283.537 564 312.049 553.8 312.049 541.218C312.049 528.636 283.537 518.436 248.365 518.436C213.193 518.436 184.681 528.636 184.681 541.218C184.681 553.8 213.193 564 248.365 564Z" fill="#C9EDF9"/>
<path d="M302.894 463.79C302.894 463.79 307.516 479.811 307.301 486.047C307.086 492.285 299.67 501.946 291.716 501.946C283.762 501.946 282.795 458.286 282.795 458.286L302.894 463.79Z" fill="#FFC0BB"/>
<path d="M193.643 463.79C193.643 463.79 189.021 479.811 189.236 486.047C189.451 492.285 196.867 501.946 204.822 501.946C212.775 501.946 213.743 458.286 213.743 458.286L193.643 463.79Z" fill="#FFC0BB"/>
<path d="M204.617 513.381L235.018 507.694L248.211 516.386L261.403 507.694L291.804 513.381C291.804 513.381 296.876 537.418 274.794 548.051C263.036 553.713 258.917 549.693 248.283 549.557C248.259 549.557 248.234 549.556 248.211 549.557C248.188 549.556 248.162 549.557 248.139 549.557C237.504 549.694 233.386 553.713 221.627 548.051C199.546 537.419 204.617 513.381 204.617 513.381Z" fill="#063E70"/>
<path d="M192.828 464.218C200.245 428.263 224.429 415.605 224.429 415.605L248.21 417.388L271.991 415.605C271.991 415.605 296.176 428.263 303.593 464.218C303.593 464.218 302.464 473.869 290.855 481.095L294.886 511.913C294.886 511.913 285.813 530.907 251.354 532.073V532.091C250.502 532.115 249.668 532.124 248.843 532.128C248.634 532.13 248.421 532.129 248.21 532.129C248 532.129 247.787 532.13 247.578 532.128C246.753 532.124 245.919 532.115 245.066 532.091V532.073C210.608 530.907 201.535 511.913 201.535 511.913L205.566 481.095C193.957 473.869 192.828 464.218 192.828 464.218Z" fill="#65CEFE"/>
<path d="M198.848 350.667C184.499 347.549 212.714 330.489 212.714 330.489C212.714 330.489 200.46 330.856 200.245 324.618C200.03 318.382 221.904 319.666 221.904 319.666C221.904 319.666 207.07 312.695 210.456 309.026C213.244 306.006 236.28 309.657 244.337 311.042C242.324 308.487 241.217 305.617 243.239 303.217C248.184 297.347 276.843 318.417 276.843 318.417L276.843 318.417C289.107 326.669 293.005 339.172 293.005 339.172C293.005 339.172 295.988 333.699 297.519 335.381C300.625 338.79 294.94 344.064 294.94 344.064C298.593 342.06 301.044 342.48 302.116 342.862C302.512 343.003 302.8 343.397 302.851 343.865C303.363 348.524 297.949 349.689 297.949 349.689C297.949 349.689 314.442 381.724 299.048 375.46C299.048 375.46 308.615 401.507 297.228 398.176C291.68 425.567 268.527 432.647 261.082 431.566C253.504 430.465 244.959 432.3 244.959 432.3C205.297 433.584 200.245 392.86 200.245 392.86C189.389 401.665 197.88 375.983 197.88 375.983C180.952 382.403 198.848 350.667 198.848 350.667Z" fill="#FF6E53"/>
<path d="M241.197 404.599C255.385 421.843 260.544 402.765 260.544 402.765C269.573 405.7 267.316 387.356 267.316 387.356C292.468 386.989 279.892 347.822 279.892 347.822C289.559 347.885 283.552 330.521 279.029 319.998C289.575 328.172 293.005 339.171 293.005 339.171C293.005 339.171 295.988 333.699 297.52 335.38C300.626 338.789 294.94 344.063 294.94 344.063C298.593 342.059 301.045 342.479 302.116 342.861C302.513 343.003 302.8 343.396 302.852 343.864C303.363 348.523 297.95 349.689 297.95 349.689C297.95 349.689 314.442 381.724 299.048 375.459C299.048 375.459 308.615 401.507 297.228 398.175C291.68 425.567 268.528 432.647 261.082 431.565C253.504 430.465 244.959 432.299 244.959 432.299C205.297 433.583 200.245 392.859 200.245 392.859C215.078 431.749 241.197 404.599 241.197 404.599Z" fill="#EE5F3D"/>
<path opacity="0.3" d="M287.459 458.287L290.957 481.029C290.923 481.051 290.891 481.073 290.856 481.095L294.887 511.913C294.887 511.913 285.813 530.907 251.355 532.073V532.091C250.502 532.115 249.669 532.125 248.843 532.128C248.634 532.13 248.422 532.129 248.211 532.129C248 532.129 247.787 532.13 247.578 532.128C246.753 532.125 245.919 532.115 245.066 532.091V532.073C210.608 530.907 201.535 511.913 201.535 511.913L204.122 492.137C258.169 515.108 287.459 458.287 287.459 458.287Z" fill="#65CEFE"/>
<path d="M286.893 455.321C286.705 454.352 286.512 453.383 286.317 452.416C286.753 457.425 287.28 462.418 287.9 467.393C288.5 472.372 289.184 477.335 289.885 482.296C290.614 487.251 291.358 492.203 292.186 497.139C292.994 502.079 293.894 507.002 294.885 511.908C294.447 506.899 293.919 501.907 293.299 496.932C292.699 491.952 292.016 486.989 291.316 482.029C290.59 477.073 289.845 472.121 289.018 467.184C288.369 463.219 287.661 459.264 286.893 455.321Z" fill="white"/>
<path d="M201.535 511.916C201.972 506.907 202.5 501.915 203.12 496.939C203.72 491.96 204.403 486.997 205.103 482.036C205.829 477.081 206.574 472.129 207.401 467.192C208.209 462.253 209.11 457.329 210.102 452.423C209.667 457.433 209.139 462.426 208.519 467.401C207.919 472.38 207.236 477.343 206.534 482.303C205.806 487.258 205.061 492.21 204.233 497.147C203.425 502.087 202.525 507.01 201.535 511.916Z" fill="white"/>
<path opacity="0.5" d="M78.1375 564C121.292 564 156.275 553.8 156.275 541.218C156.275 528.636 121.292 518.436 78.1375 518.436C34.9833 518.436 0 528.636 0 541.218C0 553.8 34.9833 564 78.1375 564Z" fill="#C9EDF9"/>
<path d="M62.9645 492.743C62.9645 492.743 88.9913 474.583 95.7495 475.729C102.508 476.874 100.351 487.181 95.7495 498.306C91.1484 509.431 87.7895 513.947 77.3441 515.321C66.8984 516.695 58.7948 519.738 57.9321 511.885C57.0691 504.032 62.9645 492.743 62.9645 492.743Z" fill="#063E70"/>
<path d="M138.061 547.179L108.296 547.235C107.646 547.236 107.126 546.65 107.134 545.926L107.146 544.952C107.155 544.228 107.69 543.641 108.34 543.64L138.105 543.584C138.756 543.583 139.276 544.169 139.267 544.892L139.255 545.867C139.246 546.59 138.712 547.178 138.061 547.179Z" fill="#65CEFE"/>
<path d="M108.766 532.719L107.58 542.719C107.434 543.951 108.04 545.07 108.855 545.069L137.16 545.016C137.895 545.014 138.628 544.503 139.026 543.543C139.434 542.559 139.531 541.077 138.289 539.087C135.803 535.108 127.488 534.152 123.457 530.759L110.272 530.783C109.536 530.784 108.898 531.604 108.766 532.719Z" fill="#FF6E53"/>
<path d="M121.385 536.567C121.182 536.427 121.112 536.044 121.234 535.752C121.806 534.382 123.584 531.044 127.111 531.722C127.315 531.761 127.449 532.062 127.411 532.373L127.409 532.383C127.372 532.684 127.186 532.882 126.988 532.845C123.828 532.25 122.315 535.191 121.851 536.341C121.753 536.586 121.554 536.683 121.385 536.567Z" fill="#65CEFE"/>
<path d="M124.309 537.848C124.106 537.708 124.036 537.325 124.158 537.034C124.73 535.663 126.508 532.325 130.035 533.003C130.238 533.042 130.373 533.343 130.334 533.654L130.333 533.664C130.296 533.966 130.11 534.163 129.913 534.126C126.752 533.531 125.239 536.473 124.776 537.622C124.677 537.868 124.478 537.964 124.309 537.848Z" fill="#65CEFE"/>
<path d="M127.028 539.044C126.825 538.904 126.755 538.521 126.877 538.229C127.449 536.859 129.228 533.521 132.754 534.199C132.958 534.238 133.092 534.539 133.054 534.85L133.052 534.86C133.015 535.161 132.829 535.359 132.632 535.322C129.471 534.726 127.958 537.668 127.495 538.818C127.396 539.063 127.197 539.16 127.028 539.044Z" fill="#65CEFE"/>
<path d="M116.409 545.054C114.278 536.982 110.445 536.096 108.343 536.287L107.58 542.718C107.434 543.951 108.04 545.07 108.855 545.069L116.409 545.054Z" fill="#FF6E53"/>
<path d="M26.441 532.499C26.441 532.499 35.8352 551.149 57.1169 547.223C78.3983 543.296 96.4203 518.647 96.4203 518.647C96.4203 518.647 100.446 535.007 106.198 541.333C106.198 541.333 118.752 538.451 124.853 530.364C124.853 530.364 121.062 510.722 120.194 502.33C119.467 495.301 117.51 473.928 111.759 473.71C106.007 473.492 89.1352 473.58 70.7299 502.33C52.3239 531.081 26.441 532.499 26.441 532.499Z" fill="#064C91"/>
<path d="M98.9128 351.225C98.9128 351.225 100.7 350.913 105.815 368.567C110.129 383.455 100.782 433.027 67.9972 428.282C24.4009 421.974 38.3836 396.052 42.4062 393.598C46.4281 391.144 59.6574 380.183 67.9972 376.583C76.3374 372.984 96.7557 366.113 96.7557 366.113L98.9128 351.225Z" fill="#FFC0BB"/>
<path d="M39.3824 428.447C39.3824 428.447 -13.2456 492.252 16.663 541.334C16.663 541.334 67.2782 530.406 75.9057 502.331C75.9057 502.331 67.5659 491.162 68.1409 488.435C68.7159 485.708 77.3438 465.285 77.3438 465.285L62.6768 423.866L39.3824 428.447Z" fill="#FFCB83"/>
<path d="M115.043 454.432C115.043 454.432 120.029 453.115 122.234 456.386C124.439 459.659 121.664 465.985 121.664 465.985C121.664 465.985 117.824 466.966 117.729 465.985C117.633 465.003 115.043 454.432 115.043 454.432Z" fill="#FFC0BB"/>
<path d="M69.7709 430.737C69.7709 430.737 59.9927 430.301 65.3608 452.333C70.7296 474.365 88.9429 480.909 105.623 478.51C122.303 476.11 123.453 463.676 118.468 456.695C113.484 449.715 100.83 458.877 87.6012 444.48C74.372 430.082 69.7709 430.737 69.7709 430.737Z" fill="#FFCB83"/>
<path d="M34.877 504.468C19.9224 498.36 48.2979 474.365 42.4063 460.723C38.6258 451.969 48.4837 435.706 56.0353 425.172L39.3828 428.447C39.3828 428.447 -13.2455 492.252 16.6633 541.334C16.6633 541.334 66.513 530.567 75.697 502.958C63.0337 505.543 44.268 508.304 34.877 504.468Z" fill="#E6A748"/>
<path d="M104.363 363.742C104.363 363.742 113.58 336.556 82.7118 322.594C58.2024 311.509 39.478 336.501 26.8245 331.92C26.8245 331.92 27.9748 336.169 33.3429 336.553C33.3429 336.553 18.3883 340.427 13.9789 354.17C13.9789 354.17 19.922 349.492 22.9897 349.214C22.9897 349.214 15.7043 354.17 13.9789 368.568L16.3753 365.786C16.3753 365.786 8.32315 392.944 16.8066 407.669C16.8066 407.669 17.238 403.252 17.3816 400.471C17.3816 400.471 25.2905 433.845 50.5979 435.318L47.2909 429.755C47.2909 429.755 58.075 437.281 69.8663 438.917L67.9969 428.283C67.9969 428.283 70.1539 429.91 78.0624 430.732C78.0624 430.732 74.899 425.011 73.1733 416.994C73.1733 416.994 77.0557 418.957 82.6635 419.284C82.6635 419.284 79.0688 412.086 82.0881 402.924L88.9906 395.889L93.7357 393.272C93.7364 393.272 104.952 384.764 104.363 363.742Z" fill="#031322"/>
<path opacity="0.3" d="M67.9972 428.283C67.9972 428.283 69.98 429.767 77.0554 430.617C67.4563 428.926 57.8455 409.796 57.8455 409.796C58.3822 416.559 62.6768 421.794 62.6768 421.794C42.5461 420.921 40.2451 389.917 40.2451 389.917C37.369 397.959 38.3277 409.142 38.3277 409.142C23.3734 388.855 37.0615 359.842 37.0615 359.842C33.8779 361.369 27.7828 374.894 27.7828 374.894C25.4825 346.972 52.5153 333.229 52.5153 333.229C48.4892 333.447 42.4059 335.847 42.4059 335.847C46.2129 328.782 59.7371 323.908 67.3502 319.821C50.2146 321.341 36.2691 335.34 26.8241 331.92C26.8241 331.92 27.9748 336.169 33.3429 336.553C33.3429 336.553 18.3883 340.428 13.9789 354.171C13.9789 354.171 19.922 349.493 22.9897 349.214C22.9897 349.214 15.7043 354.171 13.9789 368.568L16.3753 365.787C16.3753 365.787 8.32315 392.945 16.8066 407.669C16.8066 407.669 17.238 403.252 17.3816 400.471C17.3816 400.471 25.2905 433.846 50.5979 435.318L47.2909 429.755C47.2909 429.755 58.075 437.281 69.8663 438.917L67.9972 428.283Z" fill="#031322"/>
<path d="M90.8481 396.7C91.5285 402.885 88.4375 408.311 83.9439 408.82C79.4503 409.328 75.2566 404.726 74.5762 398.541C73.8958 392.355 76.9871 386.929 81.4804 386.421C85.9736 385.913 90.1681 390.515 90.8481 396.7Z" fill="#FFC0BB"/>
</svg>
