<svg width="997" height="396" viewBox="0 0 997 396" fill="none" xmlns="http://www.w3.org/2000/svg">
<rect x="7.12601" y="231.639" width="991" height="98" transform="rotate(3.79 7.12601 231.639)" fill="#E8422E" stroke="#0D99FF" style="fill:#E8422E;fill:color(display-p3 0.9098 0.2588 0.1804);fill-opacity:1;stroke:#0D99FF;stroke:color(display-p3 0.0510 0.6000 1.0000);stroke-opacity:1;"/>
<path d="M48.6316 261.436L45.6894 305.85L34.1402 305.085L37.0824 260.671L48.6316 261.436ZM63.6828 270.479L63.2691 273.813C64.1622 272.531 65.2067 271.599 66.4025 271.017C67.6178 270.418 68.9844 270.169 70.5023 270.27C72.4043 270.396 73.9292 270.947 75.0769 271.923C76.2245 272.899 76.9267 274.084 77.1833 275.479C77.4411 276.855 77.4647 279.134 77.2539 282.317L75.5638 307.829L64.4809 307.095L66.151 281.884C66.317 279.379 66.3358 277.846 66.2076 277.287C66.0793 276.727 65.6403 276.422 64.8905 276.373C64.1041 276.321 63.5891 276.608 63.3455 277.235C63.1031 277.843 62.8911 279.519 62.7093 282.262L61.0792 306.87L49.9964 306.136L52.4079 269.732L63.6828 270.479ZM107.557 265.34L104.615 309.754L93.5323 309.02L93.7068 306.386C92.5733 307.413 91.4032 308.162 90.1964 308.633C88.9896 309.104 87.7461 309.298 86.4659 309.213C84.7468 309.099 83.2859 308.552 82.0834 307.572C80.882 306.574 80.1379 305.469 79.8508 304.256C79.5821 303.044 79.5368 301.094 79.7149 298.405L80.8434 281.37C81.0288 278.572 81.334 276.599 81.759 275.451C82.2023 274.305 83.0931 273.335 84.4315 272.542C85.771 271.731 87.3278 271.384 89.1018 271.502C90.4734 271.592 91.7099 271.922 92.811 272.491C93.9305 273.061 94.9239 273.871 95.7912 274.921L96.4745 264.606L107.557 265.34ZM95.3369 281.779C95.4253 280.444 95.3658 279.54 95.1583 279.067C94.9692 278.595 94.5362 278.337 93.8595 278.292C93.2012 278.248 92.7392 278.429 92.4735 278.834C92.2274 279.222 92.0571 280.129 91.9626 281.555L90.7814 299.387C90.6833 300.868 90.7282 301.854 90.9161 302.344C91.1053 302.815 91.5108 303.072 92.1326 303.113C92.8459 303.16 93.3383 302.936 93.61 302.439C93.8829 301.925 94.0866 300.653 94.2211 298.622L95.3369 281.779ZM122.947 266.359L122.564 272.148L111.152 271.392L111.535 265.603L122.947 266.359ZM122.417 274.37L120.005 310.773L108.593 310.017L111.004 273.614L122.417 274.37ZM135.391 289.392L124.994 288.703L125.156 286.261C125.342 283.445 125.806 281.299 126.546 279.823C127.307 278.331 128.704 277.064 130.738 276.023C132.773 274.982 135.354 274.566 138.481 274.773C142.23 275.021 145.011 275.876 146.825 277.337C148.64 278.78 149.675 280.483 149.931 282.447C150.187 284.393 150.117 288.374 149.718 294.391L148.508 312.661L137.727 311.947L137.941 308.71C137.178 309.964 136.236 310.884 135.113 311.471C134.01 312.041 132.718 312.277 131.236 312.178C129.298 312.05 127.55 311.392 125.994 310.206C124.457 309.002 123.811 306.562 124.054 302.886L124.252 299.896C124.433 297.171 124.986 295.343 125.911 294.412C126.836 293.481 129.043 292.47 132.531 291.379C136.265 290.194 138.277 289.362 138.565 288.886C138.854 288.409 139.049 287.411 139.149 285.893C139.275 283.991 139.211 282.747 138.956 282.161C138.72 281.557 138.273 281.234 137.615 281.19C136.865 281.141 136.382 281.357 136.167 281.838C135.952 282.302 135.778 283.548 135.643 285.578L135.391 289.392ZM138.572 294.617C136.712 295.798 135.606 296.818 135.255 297.676C134.923 298.536 134.702 299.789 134.593 301.435C134.468 303.318 134.507 304.542 134.708 305.107C134.928 305.672 135.403 305.98 136.135 306.028C136.83 306.074 137.292 305.893 137.521 305.486C137.769 305.062 137.954 303.935 138.075 302.106L138.572 294.617ZM161.71 268.927L161.446 272.905C161.309 274.972 160.949 276.665 160.366 277.986C159.784 279.288 158.849 280.365 157.562 281.217C156.294 282.051 154.881 282.582 153.323 282.81L153.536 279.6C154.673 279.069 155.349 278.287 155.565 277.255L153.699 277.131L154.275 268.435L161.71 268.927ZM186.031 290.266L176.21 289.616L176.341 287.641C176.452 285.958 176.422 284.891 176.25 284.439C176.097 283.969 175.637 283.709 174.869 283.658C174.247 283.617 173.767 283.796 173.428 284.197C173.09 284.578 172.894 285.181 172.84 286.004C172.766 287.119 172.784 287.947 172.896 288.487C173.026 289.01 173.455 289.608 174.182 290.281C174.927 290.955 176.468 291.966 178.803 293.314C181.917 295.101 183.932 296.722 184.845 298.178C185.759 299.635 186.128 301.689 185.953 304.341C185.756 307.304 185.224 309.519 184.355 310.986C183.488 312.435 182.122 313.51 180.256 314.213C178.411 314.899 176.217 315.158 173.675 314.99C170.858 314.803 168.473 314.204 166.52 313.193C164.585 312.183 163.292 310.904 162.641 309.354C161.991 307.805 161.766 305.512 161.967 302.477L162.083 300.721L171.904 301.371L171.752 303.676C171.622 305.633 171.657 306.912 171.856 307.513C172.073 308.115 172.547 308.44 173.279 308.489C174.065 308.541 174.627 308.385 174.963 308.022C175.301 307.64 175.511 306.818 175.595 305.556C175.71 303.819 175.581 302.717 175.208 302.252C174.816 301.785 172.753 300.344 169.019 297.929C165.885 295.885 164.01 294.098 163.395 292.569C162.781 291.022 162.542 289.225 162.678 287.176C162.87 284.269 163.396 282.154 164.255 280.834C165.115 279.494 166.485 278.511 168.363 277.882C170.26 277.254 172.424 277.021 174.857 277.182C177.271 277.342 179.299 277.789 180.94 278.522C182.601 279.238 183.846 280.129 184.676 281.194C185.523 282.261 186.01 283.23 186.136 284.102C186.28 284.974 186.292 286.325 186.171 288.154L186.031 290.266ZM212.954 272.322L210.601 307.847L217.624 308.313L217.035 317.201L198.463 315.971L201.405 271.557L212.954 272.322ZM230.912 295.719L220.515 295.031L220.677 292.589C220.863 289.773 221.327 287.627 222.068 286.151C222.828 284.659 224.225 283.392 226.259 282.351C228.294 281.31 230.875 280.893 234.002 281.1C237.751 281.349 240.533 282.204 242.346 283.665C244.161 285.107 245.196 286.811 245.452 288.775C245.709 290.721 245.638 294.702 245.239 300.719L244.029 318.989L233.248 318.275L233.462 315.038C232.7 316.292 231.757 317.212 230.634 317.799C229.531 318.369 228.239 318.604 226.757 318.506C224.819 318.378 223.071 317.72 221.515 316.533C219.979 315.329 219.332 312.889 219.575 309.213L219.774 306.223C219.954 303.498 220.507 301.67 221.432 300.74C222.357 299.809 224.564 298.798 228.053 297.707C231.787 296.521 233.798 295.69 234.087 295.213C234.375 294.737 234.57 293.739 234.671 292.221C234.797 290.319 234.732 289.075 234.477 288.489C234.241 287.885 233.795 287.562 233.136 287.518C232.386 287.468 231.904 287.684 231.688 288.166C231.474 288.63 231.299 289.876 231.165 291.906L230.912 295.719ZM234.093 300.945C232.233 302.126 231.127 303.146 230.777 304.004C230.444 304.864 230.223 306.116 230.114 307.762C229.99 309.646 230.028 310.87 230.229 311.435C230.449 312 230.925 312.307 231.656 312.356C232.351 312.402 232.813 312.221 233.042 311.814C233.291 311.389 233.475 310.263 233.597 308.434L234.093 300.945ZM261.336 283.573L260.581 288.317C262.417 285.003 264.869 283.347 267.937 283.348L267.088 296.16C265.058 296.025 263.549 296.201 262.562 296.686C261.574 297.172 260.938 297.901 260.653 298.874C260.37 299.829 260.111 302.071 259.877 305.601L258.925 319.976L247.842 319.242L250.254 282.838L261.336 283.573ZM295.573 285.84L293.715 313.877C293.465 317.663 293.211 320.107 292.954 321.211C292.717 322.297 292.027 323.418 290.885 324.573C289.742 325.746 288.198 326.59 286.254 327.104C284.327 327.638 281.927 327.809 279.056 327.619C275.526 327.385 272.732 326.594 270.672 325.245C268.611 323.915 267.66 321.491 267.819 317.975L278.573 318.687C278.466 320.297 278.998 321.14 280.169 321.218C281.01 321.274 281.584 321.064 281.891 320.588C282.198 320.112 282.404 319.088 282.508 317.515L282.69 314.772C281.682 315.569 280.633 316.151 279.543 316.52C278.472 316.89 277.36 317.037 276.208 316.96C274.214 316.828 272.595 316.317 271.35 315.426C270.123 314.537 269.315 313.427 268.925 312.097C268.537 310.749 268.423 308.867 268.583 306.453L269.459 293.231C269.688 289.774 270.474 287.328 271.818 285.893C273.162 284.457 275.106 283.823 277.648 283.992C279.038 284.084 280.281 284.451 281.377 285.093C282.492 285.736 283.46 286.655 284.281 287.848L285.258 285.157L295.573 285.84ZM283.823 294.761C283.933 293.097 283.903 292.029 283.732 291.559C283.579 291.089 283.174 290.833 282.515 290.789C281.875 290.747 281.4 290.982 281.091 291.494C280.801 291.989 280.605 293.005 280.503 294.541L279.693 306.776C279.585 308.404 279.615 309.471 279.784 309.978C279.953 310.467 280.358 310.733 280.998 310.775C281.73 310.824 282.225 310.562 282.483 309.992C282.741 309.421 282.939 308.102 283.076 306.036L283.823 294.761ZM323.376 306.611L309.028 305.661L308.507 313.534C308.398 315.18 308.446 316.249 308.652 316.74C308.859 317.231 309.3 317.499 309.977 317.544C310.818 317.6 311.397 317.326 311.712 316.722C312.047 316.102 312.275 314.886 312.394 313.075L312.712 308.275L323.219 308.971L323.041 311.659C322.892 313.908 322.631 315.627 322.259 316.815C321.904 318.004 321.161 319.249 320.027 320.552C318.894 321.854 317.5 322.8 315.844 323.388C314.208 323.96 312.183 324.165 309.769 324.005C307.428 323.85 305.384 323.375 303.637 322.58C301.889 321.784 300.551 320.768 299.623 319.531C298.714 318.277 298.114 316.933 297.824 315.499C297.534 314.047 297.479 311.968 297.658 309.261L298.361 298.645C298.572 295.462 299.168 292.985 300.149 291.213C301.131 289.423 302.632 288.108 304.653 287.269C306.676 286.411 308.958 286.066 311.5 286.234C314.609 286.44 317.13 287.204 319.063 288.526C321.015 289.831 322.329 291.489 323.004 293.499C323.699 295.492 323.929 298.253 323.695 301.783L323.376 306.611ZM312.658 299.95L312.834 297.289C312.959 295.405 312.939 294.182 312.774 293.62C312.609 293.058 312.216 292.757 311.594 292.716C310.826 292.665 310.335 292.871 310.12 293.334C309.907 293.779 309.733 295.026 309.597 297.074L309.421 299.735L312.658 299.95ZM350.134 301.137L340.313 300.487L340.444 298.512C340.556 296.829 340.525 295.762 340.353 295.31C340.201 294.84 339.74 294.58 338.972 294.529C338.35 294.488 337.87 294.667 337.531 295.067C337.194 295.449 336.998 296.052 336.943 296.875C336.869 297.99 336.888 298.818 336.999 299.358C337.13 299.881 337.558 300.479 338.285 301.152C339.031 301.825 340.571 302.837 342.906 304.185C346.021 305.972 348.035 307.593 348.949 309.049C349.863 310.506 350.232 312.56 350.056 315.212C349.86 318.175 349.327 320.39 348.459 321.857C347.591 323.305 346.225 324.381 344.36 325.084C342.514 325.77 340.32 326.029 337.778 325.861C334.962 325.674 332.577 325.075 330.623 324.064C328.688 323.054 327.395 321.775 326.744 320.225C326.094 318.676 325.869 316.383 326.07 313.348L326.187 311.592L336.008 312.242L335.855 314.547C335.725 316.504 335.76 317.783 335.959 318.384C336.176 318.986 336.651 319.311 337.382 319.36C338.169 319.412 338.73 319.256 339.066 318.892C339.404 318.511 339.615 317.689 339.698 316.427C339.813 314.69 339.684 313.588 339.311 313.123C338.919 312.656 336.856 311.215 333.122 308.8C329.988 306.755 328.113 304.969 327.498 303.44C326.884 301.893 326.645 300.096 326.781 298.047C326.973 295.14 327.499 293.025 328.358 291.704C329.218 290.365 330.588 289.382 332.466 288.753C334.363 288.125 336.528 287.892 338.96 288.053C341.374 288.213 343.402 288.66 345.043 289.393C346.704 290.109 347.949 291 348.779 292.065C349.627 293.132 350.114 294.101 350.239 294.973C350.384 295.845 350.395 297.196 350.274 299.025L350.134 301.137ZM366.726 285.677L366.346 291.411L369.336 291.609L368.955 297.37L365.964 297.171L364.674 316.649C364.516 319.045 364.546 320.388 364.766 320.678C365.003 320.969 366.028 321.174 367.838 321.294L367.449 327.165L362.978 326.869C360.454 326.702 358.659 326.482 357.593 326.209C356.529 325.918 355.61 325.37 354.837 324.566C354.065 323.744 353.61 322.841 353.473 321.858C353.337 320.857 353.389 318.546 353.629 314.925L354.854 296.435L352.468 296.277L352.849 290.516L355.236 290.675L355.616 284.941L366.726 285.677ZM408.31 304.716L396.761 303.951L397.273 296.215C397.422 293.965 397.387 292.558 397.167 291.992C396.967 291.409 396.446 291.09 395.605 291.034C394.654 290.971 394.028 291.27 393.727 291.929C393.426 292.589 393.201 294.044 393.052 296.293L391.686 316.923C391.543 319.081 391.578 320.497 391.79 321.173C392.002 321.848 392.557 322.216 393.453 322.275C394.312 322.332 394.892 322.04 395.192 321.398C395.51 320.758 395.749 319.222 395.91 316.789L396.279 311.22L407.828 311.985L407.714 313.714C407.41 318.304 406.865 321.538 406.079 323.414C405.312 325.292 403.765 326.88 401.438 328.177C399.129 329.475 396.347 330.016 393.092 329.801C389.709 329.576 386.96 328.779 384.847 327.408C382.733 326.038 381.391 324.25 380.821 322.044C380.252 319.821 380.112 316.533 380.4 312.18L381.26 299.204C381.472 296.004 381.74 293.615 382.065 292.039C382.391 290.444 383.143 288.941 384.32 287.531C385.515 286.123 387.101 285.061 389.077 284.347C391.073 283.616 393.323 283.334 395.829 283.5C399.23 283.725 401.994 284.569 404.12 286.033C406.245 287.496 407.59 289.238 408.154 291.259C408.72 293.262 408.865 296.34 408.59 300.491L408.31 304.716ZM436.728 314.12L422.381 313.17L421.859 321.043C421.75 322.689 421.799 323.758 422.005 324.249C422.211 324.74 422.653 325.008 423.329 325.053C424.171 325.109 424.749 324.835 425.065 324.231C425.4 323.611 425.627 322.395 425.747 320.584L426.065 315.784L436.572 316.48L436.394 319.168C436.245 321.417 435.984 323.136 435.611 324.324C435.257 325.513 434.513 326.758 433.38 328.061C432.247 329.363 430.852 330.309 429.197 330.897C427.561 331.469 425.536 331.674 423.122 331.514C420.781 331.359 418.737 330.884 416.989 330.089C415.242 329.293 413.904 328.277 412.976 327.04C412.067 325.786 411.467 324.442 411.176 323.008C410.887 321.556 410.831 319.477 411.011 316.77L411.714 306.154C411.925 302.971 412.521 300.494 413.501 298.722C414.483 296.932 415.985 295.617 418.006 294.778C420.028 293.92 422.31 293.575 424.852 293.743C427.961 293.949 430.482 294.713 432.415 296.035C434.368 297.34 435.682 298.998 436.357 301.008C437.051 303.001 437.282 305.762 437.048 309.292L436.728 314.12ZM426.01 307.459L426.187 304.798C426.311 302.914 426.291 301.691 426.127 301.129C425.962 300.567 425.568 300.266 424.947 300.225C424.178 300.174 423.687 300.38 423.473 300.843C423.26 301.288 423.085 302.535 422.95 304.583L422.773 307.244L426.01 307.459ZM453.568 288.261L450.626 332.675L439.214 331.919L442.156 287.505L453.568 288.261ZM480.895 317.046L466.548 316.096L466.026 323.969C465.917 325.615 465.966 326.684 466.172 327.175C466.378 327.666 466.82 327.934 467.496 327.979C468.338 328.035 468.916 327.761 469.231 327.157C469.566 326.536 469.794 325.321 469.914 323.51L470.232 318.709L480.739 319.405L480.561 322.094C480.412 324.343 480.151 326.062 479.778 327.25C479.424 328.438 478.68 329.684 477.547 330.987C476.413 332.289 475.019 333.235 473.364 333.823C471.728 334.394 469.703 334.6 467.289 334.44C464.948 334.285 462.904 333.81 461.156 333.014C459.409 332.219 458.071 331.203 457.142 329.966C456.234 328.711 455.634 327.368 455.343 325.934C455.053 324.482 454.998 322.403 455.178 319.696L455.881 309.079C456.092 305.897 456.687 303.42 457.668 301.648C458.65 299.858 460.152 298.543 462.173 297.703C464.195 296.845 466.477 296.501 469.019 296.669C472.128 296.875 474.649 297.639 476.582 298.961C478.535 300.266 479.849 301.924 480.524 303.934C481.218 305.927 481.449 308.688 481.215 312.218L480.895 317.046ZM470.177 310.385L470.353 307.724C470.478 305.84 470.458 304.617 470.293 304.055C470.129 303.493 469.735 303.192 469.113 303.15C468.345 303.099 467.854 303.306 467.64 303.769C467.427 304.214 467.252 305.461 467.116 307.509L466.94 310.17L470.177 310.385ZM497.406 291.165L496.71 301.672C497.694 300.672 498.761 299.953 499.911 299.515C501.08 299.059 502.323 298.875 503.64 298.963C505.158 299.063 506.459 299.388 507.543 299.937C508.627 300.487 509.433 301.211 509.961 302.109C510.49 303.007 510.781 303.872 510.836 304.702C510.91 305.533 510.858 307.293 510.68 309.982L509.593 326.387C509.416 329.057 509.101 331.038 508.648 332.331C508.215 333.606 507.307 334.685 505.926 335.567C504.547 336.431 502.951 336.803 501.141 336.683C499.842 336.597 498.645 336.233 497.549 335.591C496.471 334.95 495.503 334.031 494.645 332.836L493.75 335.532L483.38 334.845L486.323 290.431L497.406 291.165ZM499.564 309.741C499.689 307.858 499.651 306.624 499.451 306.042C499.252 305.441 498.805 305.117 498.11 305.071C497.433 305.026 496.977 305.253 496.742 305.752C496.508 306.233 496.324 307.488 496.19 309.518L495.15 325.209C495.021 327.166 495.047 328.426 495.231 328.99C495.432 329.554 495.871 329.859 496.548 329.903C497.243 329.949 497.709 329.696 497.948 329.142C498.205 328.59 498.405 327.234 498.548 325.076L499.564 309.741ZM526.063 301.109L525.308 305.853C527.144 302.54 529.596 300.884 532.663 300.885L531.815 313.696C529.785 313.562 528.276 313.737 527.289 314.223C526.301 314.709 525.665 315.438 525.38 316.411C525.097 317.366 524.838 319.608 524.604 323.138L523.652 337.513L512.569 336.778L514.981 300.375L526.063 301.109ZM544.085 316.465L533.688 315.777L533.85 313.335C534.037 310.519 534.5 308.373 535.241 306.897C536.001 305.405 537.398 304.138 539.433 303.097C541.467 302.056 544.048 301.639 547.175 301.847C550.925 302.095 553.706 302.95 555.52 304.411C557.334 305.853 558.37 307.557 558.625 309.521C558.882 311.467 558.811 315.448 558.413 321.465L557.202 339.735L546.421 339.021L546.636 335.784C545.873 337.038 544.93 337.958 543.808 338.545C542.704 339.115 541.412 339.35 539.931 339.252C537.992 339.124 536.245 338.466 534.689 337.279C533.152 336.075 532.505 333.636 532.749 329.96L532.947 326.969C533.127 324.244 533.68 322.417 534.605 321.486C535.53 320.555 537.737 319.544 541.226 318.453C544.96 317.267 546.971 316.436 547.26 315.959C547.549 315.483 547.743 314.485 547.844 312.967C547.97 311.065 547.905 309.821 547.65 309.235C547.415 308.631 546.968 308.308 546.309 308.264C545.56 308.215 545.077 308.431 544.861 308.912C544.647 309.376 544.473 310.622 544.338 312.652L544.085 316.465ZM547.266 321.691C545.406 322.872 544.301 323.892 543.95 324.75C543.617 325.61 543.397 326.863 543.288 328.508C543.163 330.392 543.201 331.616 543.403 332.181C543.622 332.746 544.098 333.053 544.829 333.102C545.524 333.148 545.986 332.967 546.215 332.56C546.464 332.136 546.649 331.009 546.77 329.18L547.266 321.691ZM575.435 299.503L575.055 305.236L578.045 305.434L577.664 311.195L574.674 310.997L573.383 330.475C573.225 332.87 573.255 334.213 573.475 334.503C573.712 334.795 574.737 335 576.547 335.12L576.158 340.991L571.687 340.695C569.163 340.528 567.368 340.308 566.303 340.035C565.238 339.744 564.319 339.196 563.546 338.392C562.774 337.569 562.319 336.667 562.182 335.684C562.046 334.683 562.099 332.372 562.338 328.751L563.563 310.261L561.177 310.103L561.558 304.342L563.945 304.5L564.325 298.767L575.435 299.503ZM592.488 297.464L592.104 303.252L580.692 302.496L581.076 296.708L592.488 297.464ZM591.957 305.474L589.546 341.878L578.134 341.122L580.545 304.718L591.957 305.474ZM620.189 320.184L619.598 329.1C619.382 332.374 619.058 334.768 618.627 336.282C618.197 337.778 617.398 339.158 616.231 340.422C615.065 341.667 613.61 342.553 611.867 343.081C610.143 343.591 608.184 343.774 605.989 343.628C603.538 343.466 601.48 343.063 599.815 342.42C598.15 341.759 596.878 340.857 595.999 339.715C595.139 338.556 594.558 337.195 594.258 335.632C593.958 334.051 593.911 331.715 594.116 328.624L594.734 319.297C594.958 315.914 595.499 313.295 596.356 311.442C597.214 309.588 598.632 308.148 600.61 307.122C602.588 306.096 605.059 305.681 608.022 305.877C610.509 306.042 612.615 306.558 614.339 307.425C616.083 308.276 617.4 309.327 618.29 310.58C619.181 311.833 619.758 313.102 620.022 314.387C620.304 315.673 620.36 317.606 620.189 320.184ZM609.288 316.707C609.412 314.841 609.388 313.664 609.219 313.176C609.05 312.668 608.637 312.393 607.979 312.349C607.32 312.306 606.865 312.524 606.613 313.003C606.362 313.464 606.174 314.627 606.051 316.492L604.962 332.925C604.848 334.644 604.884 335.776 605.068 336.321C605.254 336.847 605.666 337.132 606.306 337.174C606.965 337.218 607.41 337.009 607.643 336.546C607.894 336.086 608.072 335.069 608.176 333.496L609.288 316.707ZM635.987 308.391L635.573 311.725C636.466 310.443 637.511 309.512 638.706 308.929C639.922 308.33 641.288 308.081 642.806 308.182C644.708 308.308 646.233 308.859 647.381 309.835C648.529 310.811 649.231 311.996 649.487 313.391C649.745 314.767 649.769 317.047 649.558 320.229L647.868 345.741L636.785 345.007L638.455 319.796C638.621 317.291 638.64 315.758 638.512 315.199C638.383 314.639 637.944 314.334 637.194 314.285C636.408 314.233 635.893 314.52 635.65 315.147C635.407 315.755 635.195 317.431 635.013 320.174L633.383 344.782L622.3 344.048L624.712 307.644L635.987 308.391ZM688.277 324.695L687.687 333.611C687.47 336.884 687.146 339.278 686.715 340.793C686.285 342.289 685.487 343.669 684.319 344.932C683.153 346.178 681.698 347.064 679.955 347.591C678.231 348.102 676.272 348.284 674.077 348.139C671.627 347.976 669.569 347.574 667.903 346.931C666.238 346.269 664.966 345.368 664.087 344.226C663.227 343.067 662.647 341.706 662.346 340.143C662.047 338.562 661.999 336.226 662.204 333.135L662.822 323.808C663.046 320.424 663.587 317.806 664.444 315.952C665.302 314.099 666.72 312.659 668.698 311.633C670.677 310.606 673.147 310.191 676.11 310.388C678.597 310.553 680.703 311.069 682.427 311.936C684.171 312.786 685.488 313.838 686.379 315.091C687.269 316.344 687.846 317.613 688.11 318.898C688.393 320.184 688.448 322.116 688.277 324.695ZM677.376 321.217C677.5 319.352 677.477 318.175 677.307 317.686C677.139 317.179 676.725 316.904 676.067 316.86C675.408 316.816 674.953 317.034 674.701 317.513C674.45 317.974 674.263 319.138 674.139 321.003L673.051 337.435C672.937 339.154 672.972 340.286 673.156 340.831C673.342 341.358 673.755 341.642 674.395 341.685C675.053 341.728 675.499 341.519 675.731 341.057C675.982 340.596 676.16 339.579 676.264 338.006L677.376 321.217ZM707.459 305.08L707.086 310.704C704.8 310.552 703.44 310.573 703.004 310.764C702.589 310.939 702.348 311.52 702.283 312.507L702.206 313.659L706.87 313.968L706.488 319.729L703.855 319.555L701.883 349.319L690.8 348.585L692.772 318.821L690.495 318.67L690.877 312.909L693.154 313.06C693.312 310.664 693.501 309.069 693.719 308.275C693.936 307.482 694.386 306.795 695.067 306.216C695.768 305.619 696.715 305.195 697.907 304.943C699.099 304.692 700.93 304.648 703.399 304.811L707.459 305.08ZM731.38 306.665L728.438 351.079L716.889 350.314L719.831 305.9L731.38 306.665ZM746.431 315.707L746.018 319.042C746.911 317.76 747.955 316.828 749.151 316.246C750.366 315.647 751.733 315.397 753.251 315.498C755.153 315.624 756.678 316.175 757.826 317.151C758.973 318.127 759.675 319.313 759.932 320.707C760.19 322.084 760.213 324.363 760.003 327.545L758.312 353.058L747.23 352.323L748.9 327.113C749.066 324.607 749.085 323.075 748.956 322.515C748.828 321.955 748.389 321.651 747.639 321.601C746.853 321.549 746.338 321.836 746.094 322.463C745.852 323.072 745.64 324.748 745.458 327.491L743.828 352.098L732.745 351.364L735.157 314.961L746.431 315.707ZM775.839 317.656L775.426 320.99C776.319 319.708 777.363 318.776 778.559 318.194C779.774 317.595 781.141 317.345 782.659 317.446C784.561 317.572 786.086 318.123 787.234 319.099C788.381 320.075 789.083 321.261 789.34 322.655C789.598 324.032 789.621 326.311 789.411 329.493L787.72 355.006L776.638 354.272L778.308 329.061C778.474 326.555 778.493 325.023 778.364 324.463C778.236 323.904 777.797 323.599 777.047 323.549C776.261 323.497 775.746 323.785 775.502 324.411C775.26 325.02 775.048 326.696 774.866 329.439L773.236 354.046L762.153 353.312L764.565 316.909L775.839 317.656ZM818.199 333.301L817.609 342.217C817.392 345.491 817.068 347.885 816.637 349.399C816.207 350.895 815.409 352.275 814.241 353.539C813.075 354.784 811.62 355.671 809.877 356.198C808.153 356.708 806.194 356.891 803.999 356.745C801.549 356.583 799.491 356.18 797.825 355.537C796.16 354.876 794.888 353.974 794.009 352.832C793.149 351.673 792.569 350.312 792.268 348.749C791.969 347.168 791.921 344.832 792.126 341.741L792.744 332.414C792.968 329.031 793.509 326.412 794.366 324.559C795.224 322.705 796.642 321.265 798.62 320.239C800.599 319.213 803.069 318.798 806.032 318.994C808.519 319.159 810.625 319.675 812.349 320.543C814.093 321.393 815.41 322.444 816.301 323.697C817.191 324.95 817.768 326.219 818.032 327.504C818.315 328.79 818.37 330.723 818.199 333.301ZM807.298 329.824C807.422 327.959 807.399 326.781 807.229 326.293C807.061 325.786 806.647 325.51 805.989 325.467C805.33 325.423 804.875 325.641 804.623 326.12C804.372 326.581 804.185 327.744 804.061 329.61L802.973 346.042C802.859 347.761 802.894 348.893 803.078 349.438C803.264 349.965 803.677 350.249 804.317 350.291C804.975 350.335 805.421 350.126 805.653 349.664C805.904 349.203 806.082 348.186 806.186 346.613L807.298 329.824ZM845.629 322.279L838.032 358.339L823.575 357.381L820.418 320.609L830.321 321.265L831.662 348.025C832.028 346.102 832.745 341.374 833.814 333.84C834.423 329.637 835.06 325.565 835.725 321.623L845.629 322.279ZM856.271 337.146L845.874 336.457L846.036 334.016C846.223 331.199 846.686 329.053 847.427 327.578C848.187 326.085 849.584 324.819 851.619 323.778C853.653 322.737 856.234 322.32 859.361 322.527C863.11 322.776 865.892 323.63 867.705 325.091C869.52 326.534 870.555 328.237 870.811 330.202C871.068 332.147 870.997 336.129 870.598 342.146L869.388 360.416L858.607 359.702L858.821 356.465C858.059 357.718 857.116 358.638 855.993 359.225C854.89 359.795 853.598 360.031 852.117 359.933C850.178 359.805 848.431 359.147 846.874 357.96C845.338 356.756 844.691 354.316 844.935 350.64L845.133 347.65C845.313 344.925 845.866 343.097 846.791 342.167C847.716 341.236 849.923 340.225 853.412 339.133C857.146 337.948 859.157 337.117 859.446 336.64C859.735 336.163 859.929 335.166 860.03 333.648C860.156 331.746 860.091 330.502 859.836 329.915C859.601 329.312 859.154 328.988 858.495 328.945C857.745 328.895 857.263 329.111 857.047 329.593C856.833 330.056 856.658 331.303 856.524 333.333L856.271 337.146ZM859.452 342.371C857.592 343.552 856.487 344.572 856.136 345.431C855.803 346.29 855.583 347.543 855.473 349.189C855.349 351.073 855.387 352.297 855.588 352.861C855.808 353.427 856.284 353.734 857.015 353.782C857.71 353.828 858.172 353.648 858.401 353.241C858.65 352.816 858.835 351.69 858.956 349.861L859.452 342.371ZM887.621 320.184L887.241 325.917L890.231 326.115L889.85 331.876L886.859 331.678L885.569 351.155C885.41 353.551 885.441 354.894 885.66 355.184C885.898 355.475 886.923 355.681 888.733 355.801L888.344 361.672L883.873 361.375C881.349 361.208 879.554 360.988 878.488 360.716C877.424 360.425 876.505 359.877 875.732 359.073C874.96 358.25 874.505 357.347 874.368 356.365C874.232 355.364 874.284 353.053 874.524 349.432L875.749 330.942L873.362 330.784L873.744 325.023L876.131 325.181L876.511 319.448L887.621 320.184ZM904.674 318.145L904.29 323.933L892.878 323.177L893.261 317.389L904.674 318.145ZM904.143 326.155L901.731 362.558L890.319 361.802L892.731 325.399L904.143 326.155ZM932.375 340.865L931.784 349.781C931.567 353.054 931.243 355.448 930.813 356.963C930.383 358.459 929.584 359.839 928.417 361.102C927.25 362.348 925.796 363.234 924.052 363.761C922.329 364.272 920.37 364.454 918.175 364.309C915.724 364.147 913.666 363.744 912 363.101C910.336 362.44 909.064 361.538 908.184 360.396C907.324 359.237 906.744 357.876 906.443 356.313C906.144 354.732 906.097 352.396 906.301 349.305L906.919 339.978C907.143 336.594 907.684 333.976 908.542 332.122C909.399 330.269 910.817 328.829 912.796 327.803C914.774 326.777 917.245 326.362 920.207 326.558C922.695 326.723 924.8 327.239 926.525 328.106C928.268 328.956 929.586 330.008 930.476 331.261C931.367 332.514 931.944 333.783 932.208 335.068C932.49 336.354 932.546 338.286 932.375 340.865ZM921.474 337.388C921.597 335.522 921.574 334.345 921.405 333.856C921.236 333.349 920.823 333.074 920.164 333.03C919.506 332.986 919.051 333.204 918.798 333.684C918.547 334.144 918.36 335.308 918.237 337.173L917.148 353.605C917.034 355.325 917.069 356.457 917.254 357.001C917.439 357.528 917.852 357.813 918.492 357.855C919.151 357.899 919.596 357.689 919.829 357.227C920.08 356.766 920.257 355.749 920.362 354.176L921.474 337.388ZM948.173 329.072L947.759 332.406C948.652 331.124 949.697 330.192 950.892 329.61C952.108 329.011 953.474 328.762 954.992 328.862C956.894 328.988 958.419 329.539 959.567 330.515C960.714 331.491 961.417 332.677 961.673 334.071C961.931 335.448 961.955 337.727 961.744 340.909L960.054 366.422L948.971 365.688L950.641 340.477C950.807 337.971 950.826 336.439 950.697 335.879C950.569 335.32 950.13 335.015 949.38 334.965C948.594 334.913 948.079 335.201 947.835 335.827C947.593 336.436 947.381 338.112 947.199 340.855L945.569 365.462L934.486 364.728L936.898 328.325L948.173 329.072Z" fill="white" style="fill:white;fill-opacity:1;"/>
<g filter="url(#filter0_d_2005_1923)">
<rect x="666.998" y="2" width="300" height="300" rx="150" fill="white" style="fill:white;fill-opacity:1;" shape-rendering="crispEdges"/>
<path d="M870.55 49.1055H847.961V140.505H870.55V49.1055Z" fill="#F9421E" style="fill:#F9421E;fill:color(display-p3 0.9765 0.2588 0.1176);fill-opacity:1;"/>
<path d="M828.788 49.1055H806.199V140.505H828.788V49.1055Z" fill="#00AEEF" style="fill:#00AEEF;fill:color(display-p3 0.0000 0.6824 0.9373);fill-opacity:1;"/>
<path d="M905.827 49.1055H847.928V71.6943H905.827V49.1055Z" fill="#F9421E" style="fill:#F9421E;fill:color(display-p3 0.9765 0.2588 0.1176);fill-opacity:1;"/>
<path d="M905.884 83.4644H883.24V106.053H905.884V83.4644Z" fill="#F9421E" style="fill:#F9421E;fill:color(display-p3 0.9765 0.2588 0.1176);fill-opacity:1;"/>
<path d="M793.359 49.1055H764.327L724.998 94.8517L764.327 140.505H793.359L754.031 94.8517L793.359 49.1055Z" fill="#22B244" style="fill:#22B244;fill:color(display-p3 0.1333 0.6980 0.2667);fill-opacity:1;"/>
<path d="M735.696 165.94L735.519 167.576L736.492 166.338L747.102 154.358H755.413L741.974 168.946L755.457 186.895H747.323L737.288 173.014L735.696 174.605V186.895H729.198V154.358H735.696V165.94ZM760.324 154.358H782.516V160.547H766.734V167.488H780.703V173.677H766.734V180.706H783.135V186.895H760.324V154.358ZM799.625 154.358C801.658 154.358 803.471 154.623 805.062 155.154C806.654 155.655 807.98 156.392 809.041 157.364C810.131 158.307 810.957 159.457 811.516 160.812C812.076 162.139 812.356 163.642 812.356 165.321C812.356 166.648 812.15 167.974 811.738 169.3C811.354 170.626 810.706 171.835 809.792 172.925C808.908 174.016 807.729 174.9 806.256 175.578C804.782 176.226 802.955 176.55 800.774 176.55H796.177V186.895H789.767V154.358H799.625ZM800.73 170.361C801.703 170.361 802.513 170.199 803.161 169.875C803.81 169.551 804.311 169.138 804.664 168.637C805.048 168.136 805.313 167.62 805.46 167.09C805.637 166.53 805.725 166.014 805.725 165.543C805.725 165.189 805.666 164.747 805.549 164.216C805.46 163.656 805.254 163.096 804.93 162.536C804.605 161.976 804.104 161.505 803.427 161.122C802.778 160.739 801.894 160.547 800.774 160.547H796.177V170.361H800.73ZM806.742 174.34L814.788 186.895H807.317L799.094 174.517L806.742 174.34ZM816.403 186.895L831.08 153.076H831.434L846.111 186.895H838.684L829.312 163.111L833.954 159.928L822.725 186.895H816.403ZM826.438 175.135H836.208L838.463 180.529H824.449L826.438 175.135ZM850.854 154.358H857.264V180.706H872.559V186.895H850.854V154.358ZM875.504 186.895L890.181 153.076H890.535L905.212 186.895H897.785L888.413 163.111L893.055 159.928L881.826 186.895H875.504ZM885.539 175.135H895.309L897.564 180.529H883.55L885.539 175.135ZM727.58 191.888H731.522V211.895H727.58V191.888ZM754.599 212.71L739.431 199.01L740.6 199.662L740.681 211.895H736.685V191.1H736.848L751.69 204.746L750.82 204.365L750.739 191.888H754.707V212.71H754.599ZM777.773 212.71L762.605 199.01L763.774 199.662L763.855 211.895H759.859V191.1H760.022L774.864 204.746L773.994 204.365L773.913 191.888H777.881V212.71H777.773ZM781.81 201.919C781.81 200.541 782.073 199.237 782.598 198.004C783.124 196.772 783.849 195.685 784.773 194.742C785.715 193.782 786.803 193.03 788.035 192.486C789.267 191.943 790.59 191.671 792.004 191.671C793.399 191.671 794.713 191.943 795.945 192.486C797.177 193.03 798.265 193.782 799.207 194.742C800.167 195.685 800.91 196.772 801.436 198.004C801.979 199.237 802.251 200.541 802.251 201.919C802.251 203.332 801.979 204.655 801.436 205.887C800.91 207.12 800.167 208.207 799.207 209.149C798.265 210.073 797.177 210.798 795.945 211.324C794.713 211.849 793.399 212.112 792.004 212.112C790.59 212.112 789.267 211.849 788.035 211.324C786.803 210.798 785.715 210.073 784.773 209.149C783.849 208.207 783.124 207.12 782.598 205.887C782.073 204.655 781.81 203.332 781.81 201.919ZM785.888 201.919C785.888 202.807 786.042 203.64 786.35 204.419C786.676 205.18 787.12 205.86 787.682 206.458C788.261 207.038 788.923 207.491 789.666 207.817C790.427 208.143 791.252 208.306 792.139 208.306C792.991 208.306 793.779 208.143 794.504 207.817C795.247 207.491 795.891 207.038 796.434 206.458C796.978 205.86 797.404 205.18 797.712 204.419C798.02 203.64 798.174 202.807 798.174 201.919C798.174 201.013 798.011 200.17 797.685 199.391C797.377 198.611 796.942 197.932 796.38 197.352C795.836 196.754 795.193 196.292 794.45 195.966C793.707 195.639 792.901 195.476 792.031 195.476C791.161 195.476 790.355 195.639 789.612 195.966C788.869 196.292 788.216 196.754 787.654 197.352C787.093 197.932 786.658 198.611 786.35 199.391C786.042 200.17 785.888 201.013 785.888 201.919ZM807.844 191.888L813.688 206.295L811.405 205.833L816.706 191.888H821.381L812.248 212.819L803.115 191.888H807.844ZM819.852 211.895L828.876 191.1H829.094L838.118 211.895H833.552L827.789 197.27L830.643 195.313L823.739 211.895H819.852ZM826.022 204.664H832.03L833.416 207.98H824.799L826.022 204.664ZM838.056 191.888H851.539V195.694H846.673V211.895H842.732V195.694H838.056V191.888ZM855.343 191.888H859.284V211.895H855.343V191.888ZM863.224 201.919C863.224 200.541 863.487 199.237 864.013 198.004C864.538 196.772 865.263 195.685 866.187 194.742C867.13 193.782 868.217 193.03 869.449 192.486C870.682 191.943 872.004 191.671 873.418 191.671C874.813 191.671 876.127 191.943 877.359 192.486C878.592 193.03 879.679 193.782 880.621 194.742C881.582 195.685 882.325 196.772 882.85 198.004C883.394 199.237 883.666 200.541 883.666 201.919C883.666 203.332 883.394 204.655 882.85 205.887C882.325 207.12 881.582 208.207 880.621 209.149C879.679 210.073 878.592 210.798 877.359 211.324C876.127 211.849 874.813 212.112 873.418 212.112C872.004 212.112 870.682 211.849 869.449 211.324C868.217 210.798 867.13 210.073 866.187 209.149C865.263 208.207 864.538 207.12 864.013 205.887C863.487 204.655 863.224 203.332 863.224 201.919ZM867.302 201.919C867.302 202.807 867.456 203.64 867.764 204.419C868.09 205.18 868.534 205.86 869.096 206.458C869.676 207.038 870.337 207.491 871.08 207.817C871.841 208.143 872.666 208.306 873.554 208.306C874.405 208.306 875.194 208.143 875.919 207.817C876.662 207.491 877.305 207.038 877.849 206.458C878.392 205.86 878.818 205.18 879.126 204.419C879.434 203.64 879.588 202.807 879.588 201.919C879.588 201.013 879.425 200.17 879.099 199.391C878.791 198.611 878.356 197.932 877.794 197.352C877.251 196.754 876.607 196.292 875.864 195.966C875.121 195.639 874.315 195.476 873.445 195.476C872.575 195.476 871.769 195.639 871.026 195.966C870.283 196.292 869.63 196.754 869.069 197.352C868.507 197.932 868.072 198.611 867.764 199.391C867.456 200.17 867.302 201.013 867.302 201.919ZM905.508 212.71L890.341 199.01L891.509 199.662L891.591 211.895H887.595V191.1H887.758L902.6 204.746L901.73 204.365L901.648 191.888H905.617V212.71H905.508ZM728.668 218.465H746.436V223.873H734.269V230.323H744.814V235.731H734.269V246.895H728.668V218.465ZM751.829 218.465H771.22V223.873H757.43V229.937H769.636V235.345H757.43V241.487H771.761V246.895H751.829V218.465ZM792.736 225.34C791.655 224.748 790.547 224.259 789.414 223.873C788.307 223.486 787.264 223.293 786.285 223.293C785.075 223.293 784.122 223.538 783.427 224.027C782.732 224.516 782.384 225.25 782.384 226.229C782.384 226.898 782.642 227.504 783.157 228.044C783.697 228.559 784.38 229.023 785.204 229.435C786.054 229.847 786.929 230.22 787.831 230.555C788.655 230.864 789.466 231.238 790.264 231.675C791.088 232.087 791.822 232.615 792.466 233.259C793.11 233.877 793.625 234.662 794.011 235.615C794.397 236.542 794.59 237.688 794.59 239.053C794.59 240.495 794.217 241.834 793.47 243.07C792.723 244.306 791.629 245.311 790.187 246.083C788.745 246.83 786.968 247.204 784.856 247.204C783.775 247.204 782.667 247.101 781.534 246.895C780.427 246.663 779.333 246.328 778.251 245.89C777.169 245.427 776.126 244.847 775.122 244.152L777.594 239.787C778.264 240.276 778.985 240.714 779.757 241.1C780.556 241.461 781.354 241.744 782.152 241.95C782.951 242.156 783.685 242.259 784.354 242.259C785.024 242.259 785.693 242.169 786.363 241.989C787.058 241.783 787.625 241.448 788.062 240.985C788.526 240.521 788.758 239.877 788.758 239.053C788.758 238.487 788.564 237.972 788.178 237.508C787.818 237.045 787.316 236.62 786.672 236.233C786.054 235.847 785.371 235.512 784.624 235.229C783.749 234.894 782.848 234.508 781.921 234.07C780.993 233.632 780.118 233.105 779.294 232.486C778.496 231.843 777.839 231.057 777.324 230.13C776.835 229.177 776.59 228.019 776.59 226.654C776.59 225.006 776.95 223.576 777.672 222.366C778.418 221.156 779.461 220.203 780.8 219.508C782.139 218.787 783.685 218.387 785.436 218.31C787.728 218.31 789.582 218.581 790.998 219.121C792.44 219.662 793.728 220.306 794.861 221.053L792.736 225.34ZM798.144 218.465H817.304V223.873H810.389V246.895H804.788V223.873H798.144V218.465ZM822.709 218.465H828.31V246.895H822.709V218.465ZM839.935 218.465L848.24 238.937L844.996 238.281L852.528 218.465H859.172L846.193 248.208L833.214 218.465H839.935ZM856.999 246.895L869.823 217.344H870.132L882.957 246.895H876.467L868.278 226.113L872.334 223.332L862.523 246.895H856.999ZM865.767 236.62H874.304L876.274 241.332H864.029L865.767 236.62ZM887.101 218.465H892.702V241.487H906.067V246.895H887.101V218.465Z" fill="black" style="fill:black;fill-opacity:1;"/>
</g>
<defs>
<filter id="filter0_d_2005_1923" x="665.998" y="0" width="308" height="308" filterUnits="userSpaceOnUse" color-interpolation-filters="sRGB">
<feFlood flood-opacity="0" result="BackgroundImageFix"/>
<feColorMatrix in="SourceAlpha" type="matrix" values="0 0 0 0 0 0 0 0 0 0 0 0 0 0 0 0 0 0 127 0" result="hardAlpha"/>
<feOffset dx="3" dy="2"/>
<feGaussianBlur stdDeviation="2"/>
<feComposite in2="hardAlpha" operator="out"/>
<feColorMatrix type="matrix" values="0 0 0 0 0 0 0 0 0 0 0 0 0 0 0 0 0 0 0.25 0"/>
<feBlend mode="normal" in2="BackgroundImageFix" result="effect1_dropShadow_2005_1923"/>
<feBlend mode="normal" in="SourceGraphic" in2="effect1_dropShadow_2005_1923" result="shape"/>
</filter>
</defs>
</svg>
