<svg width="1062" height="345" viewBox="0 0 1062 345" fill="none" xmlns="http://www.w3.org/2000/svg">
<path d="M23.5606 67.4575C23.5106 67.1075 23.6406 66.7375 23.5606 66.4575L25.5606 64.4575C25.9706 64.8275 27.8106 65.9675 28.5606 66.4575C32.0206 70.6675 27.3006 81.4375 33.5606 83.4575C33.6706 83.7675 33.4406 84.1975 33.5606 84.4575L34.5606 85.4575C34.7006 85.6975 35.2506 86.0875 35.5606 86.4575C35.7106 86.6375 35.2006 87.9675 35.6606 88.3175C37.5606 89.7375 46.5206 89.4275 49.2106 88.0675C49.5706 87.8875 54.4806 82.5375 54.6706 82.0775C56.5106 77.6075 54.7406 73.0475 55.5806 69.1575C55.6306 68.9275 57.8006 66.4975 58.5606 65.4575C62.2306 60.4175 67.5906 56.1575 68.5606 49.4575C84.4806 53.7375 86.3606 78.7075 77.9706 90.3675C65.6606 107.498 41.9506 108.228 29.1206 91.3875C21.5106 81.3975 25.0406 77.7275 23.5506 67.4575H23.5606ZM74.5606 74.4575C77.0306 71.9575 67.0206 61.9875 64.5706 64.4675C62.1206 66.9475 72.1106 76.9375 74.5606 74.4575Z" fill="#F7E17F" style="fill:#F7E17F;fill:color(display-p3 0.9686 0.8824 0.4980);fill-opacity:1;"/>
<path d="M68.5618 49.4575C67.5918 56.1575 62.2318 60.4175 58.5618 65.4575C51.5518 65.9775 55.5218 73.4475 54.5118 78.9075C52.9118 87.5575 42.6218 88.9375 35.5618 86.4575C35.2518 86.0875 34.7018 85.6975 34.5618 85.4575C34.3218 85.0475 33.7018 84.7475 33.5618 84.4575C33.4418 84.1975 33.6718 83.7675 33.5618 83.4575C33.0118 81.9375 31.8618 80.7775 31.6218 78.9075C31.2118 75.6475 32.2618 70.7375 31.4218 68.0775C30.8318 66.2375 29.1518 66.8475 28.5618 66.4575C27.8118 65.9675 25.9718 64.8275 25.5618 64.4575C17.4418 57.0675 14.5818 45.8375 18.0918 35.4875C27.7418 7.05754 73.5018 15.1975 68.5618 49.4575ZM27.5618 58.4575C29.3818 60.3275 31.6318 62.6575 34.2718 63.2475C37.0518 63.8775 49.1218 63.8975 51.8218 63.2175C58.3818 61.5475 63.2318 51.7375 63.5618 45.4575C64.8118 21.5875 33.2818 15.1175 23.8318 35.2275C19.9818 43.4075 21.2218 51.9475 27.5618 58.4575ZM49.5618 68.4575C49.0718 67.9575 37.6818 68.8275 35.5618 68.4575C32.8218 73.8675 48.9818 73.0575 49.5618 72.4575C49.7018 72.3175 49.6918 68.6075 49.5618 68.4575ZM49.5618 76.4575H35.5618C36.7718 85.3875 49.4018 86.2975 49.5618 76.4575Z" fill="#191D63" style="fill:#191D63;fill:color(display-p3 0.0980 0.1137 0.3882);fill-opacity:1;"/>
<path d="M74.5618 12.4677C77.1618 15.1577 67.3218 27.8677 64.0018 21.4677C62.7518 19.0577 70.7818 10.4877 74.5618 12.4677Z" fill="#1A216C" style="fill:#1A216C;fill:color(display-p3 0.1020 0.1294 0.4235);fill-opacity:1;"/>
<path d="M14.1121 17.8876C13.8821 17.5476 12.7721 17.5476 12.5921 16.7476C10.9521 9.59756 16.9621 11.9276 20.5321 15.9976C27.0221 23.3976 19.9421 26.5576 14.1121 17.8876Z" fill="#1A216C" style="fill:#1A216C;fill:color(display-p3 0.1020 0.1294 0.4235);fill-opacity:1;"/>
<path d="M45.431 0.607425C46.621 1.33742 48.821 15.2574 42.201 13.5074C39.651 12.8374 39.121 -3.29258 45.431 0.607425Z" fill="#191D63" style="fill:#191D63;fill:color(display-p3 0.0980 0.1137 0.3882);fill-opacity:1;"/>
<path d="M0.66155 41.5576C1.90155 39.6776 15.2316 39.5076 13.5515 44.9576C12.6715 47.8076 -3.41845 47.7076 0.66155 41.5576Z" fill="#191D63" style="fill:#191D63;fill:color(display-p3 0.0980 0.1137 0.3882);fill-opacity:1;"/>
<path d="M23.5619 66.4576C23.6419 66.7376 23.5119 67.1076 23.5619 67.4576C21.4019 71.0276 11.5819 80.6776 12.4619 70.9476C12.5519 69.9376 20.2219 63.4676 21.0919 63.5576C21.2919 63.5776 23.4819 66.1776 23.5719 66.4576H23.5619Z" fill="#1A216C" style="fill:#1A216C;fill:color(display-p3 0.1020 0.1294 0.4235);fill-opacity:1;"/>
<path d="M86.5118 41.5173C87.2118 42.3673 86.6717 45.7573 84.9217 46.3173C83.1717 46.8773 74.2218 47.0173 73.5718 44.9473C71.9018 39.6473 85.2818 40.0073 86.5118 41.5073V41.5173Z" fill="#191D63" style="fill:#191D63;fill:color(display-p3 0.0980 0.1137 0.3882);fill-opacity:1;"/>
<path d="M74.5624 74.4575C72.1124 76.9375 62.1024 66.9675 64.5724 64.4675C67.0424 61.9675 77.0324 71.9575 74.5624 74.4575Z" fill="#2B2E41" style="fill:#2B2E41;fill:color(display-p3 0.1686 0.1804 0.2549);fill-opacity:1;"/>
<path d="M33.5625 83.4575C27.3025 81.4375 32.0225 70.6675 28.5625 66.4575C29.1525 66.8475 30.8325 66.2375 31.4225 68.0775C32.2725 70.7375 31.2225 75.6475 31.6225 78.9075C31.8525 80.7775 33.0025 81.9375 33.5625 83.4575Z" fill="#B2B6B7" style="fill:#B2B6B7;fill:color(display-p3 0.6980 0.7137 0.7176);fill-opacity:1;"/>
<path d="M58.5619 65.4575C57.8019 66.4975 55.6319 68.9275 55.5819 69.1575C54.7319 73.0475 56.5019 77.6075 54.6719 82.0775C54.4819 82.5275 49.5719 87.8875 49.2119 88.0675C46.5219 89.4275 37.5719 89.7375 35.6619 88.3175C35.2019 87.9675 35.7119 86.6375 35.5619 86.4575C42.6219 88.9475 52.9219 87.5575 54.5119 78.9075C55.5219 73.4475 51.5519 65.9775 58.5619 65.4575Z" fill="#B2B6B7" style="fill:#B2B6B7;fill:color(display-p3 0.6980 0.7137 0.7176);fill-opacity:1;"/>
<path d="M34.5625 85.4575L33.5625 84.4575C33.7025 84.7475 34.3225 85.0475 34.5625 85.4575Z" fill="#B2B6B7" style="fill:#B2B6B7;fill:color(display-p3 0.6980 0.7137 0.7176);fill-opacity:1;"/>
<path d="M63.562 45.4576C49.252 41.6676 35.532 46.0975 27.562 58.4576C21.222 51.9475 19.982 43.4076 23.832 35.2276C33.282 15.1176 64.812 21.5876 63.562 45.4576ZM44.422 27.5876C43.182 26.7976 37.982 28.1376 36.362 28.7676C29.292 31.5176 25.282 39.0576 26.562 46.4676C32.442 47.8576 30.372 42.8076 32.352 38.7476C35.572 32.1276 43.892 33.0976 45.132 31.4976C45.802 30.6376 44.782 27.8176 44.422 27.5876Z" fill="#F3F5F8" style="fill:#F3F5F8;fill:color(display-p3 0.9529 0.9608 0.9725);fill-opacity:1;"/>
<path d="M63.5625 45.4572C63.2325 51.7372 58.3825 61.5372 51.8225 63.2172C49.1325 63.9072 37.0625 63.8772 34.2725 63.2472C31.6325 62.6572 29.3825 60.3272 27.5625 58.4572C35.5325 46.0972 49.2525 41.6672 63.5625 45.4572Z" fill="#F7E17F" style="fill:#F7E17F;fill:color(display-p3 0.9686 0.8824 0.4980);fill-opacity:1;"/>
<path d="M49.5625 76.4575C49.4025 86.2975 36.7725 85.3875 35.5625 76.4575H49.5625Z" fill="#F7E17F" style="fill:#F7E17F;fill:color(display-p3 0.9686 0.8824 0.4980);fill-opacity:1;"/>
<path d="M49.5606 68.4572C49.7006 68.5972 49.7006 72.3072 49.5606 72.4572C48.9806 73.0672 32.8206 73.8672 35.5606 68.4572C37.6806 68.8272 49.0706 67.9572 49.5606 68.4572Z" fill="#F7E17F" style="fill:#F7E17F;fill:color(display-p3 0.9686 0.8824 0.4980);fill-opacity:1;"/>
<path d="M44.4215 27.5876C44.7815 27.8176 45.8015 30.6376 45.1315 31.4976C43.8815 33.0976 35.5715 32.1276 32.3515 38.7476C30.3815 42.8076 32.4515 47.8476 26.5615 46.4676C25.2715 39.0576 29.2915 31.5076 36.3615 28.7676C37.9815 28.1376 43.1815 26.7976 44.4215 27.5876Z" fill="#1A216C" style="fill:#1A216C;fill:color(display-p3 0.1020 0.1294 0.4235);fill-opacity:1;"/>
<path d="M821.991 273.662C822.204 284.971 831.881 283.356 826.917 272.808C848.697 271.106 862.825 290.682 856.473 311.369C850.995 329.196 828.087 336.919 812.467 327.071C807.317 323.822 803.141 315.533 798.576 314.254L805.483 313.057L804.628 308.121C803.031 308.509 801.258 308.532 799.691 308.976L798.155 300.108C805.847 298.167 802.542 297.075 799.916 292.699C802.997 285.639 807.385 278.222 814.865 275.119C817.157 274.174 819.629 274.203 821.989 273.652L821.991 273.662ZM830.509 294.361C832.101 292.949 830.496 283.738 826.629 285.088C822.448 286.553 825.67 298.65 830.509 294.361ZM821.502 300.134L823.977 314.421C824.337 316.5 838.556 314.158 839.404 312.317C840.158 310.694 837.789 297.312 835.789 297.659L821.502 300.134ZM811.267 307.194C806.49 309.554 809.582 313.169 815.867 311.309C822.152 309.449 818.121 303.815 811.267 307.194Z" fill="#A6E8F8" style="fill:#A6E8F8;fill:color(display-p3 0.6510 0.9098 0.9725);fill-opacity:1;"/>
<path d="M826.918 272.808C831.881 283.356 822.205 284.971 821.991 273.662C824.623 273.033 824.044 273.032 826.918 272.808Z" fill="#1A216C" style="fill:#1A216C;fill:color(display-p3 0.1020 0.1294 0.4235);fill-opacity:1;"/>
<path d="M799.694 308.986C801.261 308.542 803.033 308.519 804.63 308.131L805.485 313.067L798.578 314.264C798.216 314.164 797.106 314.844 796.728 314.483C793.994 311.881 797.336 309.668 799.695 308.996L799.694 308.986Z" fill="#1A216C" style="fill:#1A216C;fill:color(display-p3 0.1020 0.1294 0.4235);fill-opacity:1;"/>
<path d="M821.502 300.133L835.789 297.658C837.789 297.312 840.17 310.702 839.404 312.316C838.544 314.15 824.335 316.49 823.977 314.421L821.502 300.133ZM833.031 302.186L827.11 303.211L828.306 310.118L834.228 309.093L833.031 302.186Z" fill="#1A216C" style="fill:#1A216C;fill:color(display-p3 0.1020 0.1294 0.4235);fill-opacity:1;"/>
<path d="M830.508 294.361C825.669 298.65 822.437 286.554 826.629 285.088C830.505 283.736 832.101 292.949 830.508 294.361Z" fill="#1A216C" style="fill:#1A216C;fill:color(display-p3 0.1020 0.1294 0.4235);fill-opacity:1;"/>
<path d="M811.267 307.194C818.121 303.814 822.316 309.4 815.867 311.309C809.418 313.218 806.479 309.546 811.267 307.194Z" fill="#1A216C" style="fill:#1A216C;fill:color(display-p3 0.1020 0.1294 0.4235);fill-opacity:1;"/>
<path d="M833.021 302.188L827.1 303.213L828.296 310.12L834.218 309.095L833.021 302.188Z" fill="#A6E8F8" style="fill:#A6E8F8;fill:color(display-p3 0.6510 0.9098 0.9725);fill-opacity:1;"/>
<path d="M798.156 300.118C795.549 300.772 782.756 303.202 781.295 302.562C777.284 300.79 783.199 295.797 783.081 295.118L778.558 269.006C775.972 269.546 773.07 269.551 770.68 270.808C768.289 272.064 768.647 275.361 765.885 276.114C764.722 276.427 762.606 276.459 762.415 275.355L759.684 259.59C759.665 259.481 760.797 257.875 760.906 257.856L807.216 249.834C807.324 249.815 808.931 250.947 808.95 251.056L811.681 266.821C812.516 271.639 803.317 265.468 802.352 265.341C799.62 264.982 796.976 265.887 794.333 266.274C796.641 273.973 796.013 286.169 799.927 292.707C802.552 297.083 805.857 298.175 798.166 300.116L798.156 300.118ZM804.611 255.359C802.996 254.178 770.351 261.294 765.198 262.187C765.001 262.221 765.684 266.162 765.881 266.128L782.631 263.226L788.434 296.727L794.346 295.703L788.799 263.68C788.78 263.572 789.913 261.965 790.021 261.946L805.294 259.301C805.491 259.267 804.773 255.473 804.611 255.359Z" fill="#1A216C" style="fill:#1A216C;fill:color(display-p3 0.1020 0.1294 0.4235);fill-opacity:1;"/>
<path d="M824.978 226.459L827.624 241.732C827.926 243.476 822.391 244.333 820.984 244.414C823.98 246.828 824.342 250.084 824.508 253.8C822.786 255.165 820.924 255.487 818.852 254.78C816.023 251.627 819.163 245.734 819.078 245.242C818.692 243.015 815.367 245.672 813.791 245.539C809.124 245.139 808.845 233.039 809.213 229.19L824.978 226.459ZM814.982 233.255L816.007 239.177L821.929 238.151L820.903 232.229L814.982 233.255Z" fill="#1A216C" style="fill:#1A216C;fill:color(display-p3 0.1020 0.1294 0.4235);fill-opacity:1;"/>
<path d="M752.797 328.274C750.751 328.009 748.535 315.625 748.663 313.431C748.752 311.782 753.842 310.758 755.314 310.584C746.574 303.248 758.053 292.704 758.567 305.515C758.722 309.283 757.286 307.848 756.3 310.414C767.709 306.032 767.033 317.891 767.086 325.808C763.21 325.759 756.109 328.705 752.798 328.283L752.797 328.274ZM759.985 314.992C758.764 314.503 755.787 315.831 754.186 315.844L755.382 322.751C761.541 324.384 763.898 316.547 759.985 314.992Z" fill="#1A216C" style="fill:#1A216C;fill:color(display-p3 0.1020 0.1294 0.4235);fill-opacity:1;"/>
<path d="M752.064 239.09C753.609 244.201 754.83 249.318 754.595 254.697C754.067 255.925 740.029 258.143 739.501 257.555C738.486 255.386 735.449 241.958 737.785 241.553L752.072 239.078L752.064 239.09ZM747.989 244.86L742.067 245.886C742.531 251.438 743.284 253.611 749.175 251.769L747.979 244.862L747.989 244.86Z" fill="#1A216C" style="fill:#1A216C;fill:color(display-p3 0.1020 0.1294 0.4235);fill-opacity:1;"/>
<path d="M749.492 273.159C754.233 270.998 755.184 282.525 753.129 283.55C748.381 285.905 745.148 275.149 749.492 273.159Z" fill="#1A216C" style="fill:#1A216C;fill:color(display-p3 0.1020 0.1294 0.4235);fill-opacity:1;"/>
<path d="M747.403 270.243C746.053 269.654 742.282 259.022 748.988 260.002C752.633 260.537 753.229 272.765 747.403 270.243Z" fill="#1A216C" style="fill:#1A216C;fill:color(display-p3 0.1020 0.1294 0.4235);fill-opacity:1;"/>
<path d="M779.74 317.415C779.152 318.766 768.519 322.536 769.499 315.83C770.035 312.185 782.262 311.589 779.74 317.415Z" fill="#1A216C" style="fill:#1A216C;fill:color(display-p3 0.1020 0.1294 0.4235);fill-opacity:1;"/>
<path d="M766.799 242.718C771.142 247.345 759.419 250.908 757.688 247.656C754.51 241.67 765.791 241.644 766.799 242.718Z" fill="#1A216C" style="fill:#1A216C;fill:color(display-p3 0.1020 0.1294 0.4235);fill-opacity:1;"/>
<path d="M796.556 237.563C797.145 236.213 807.777 232.443 806.797 239.148C806.262 242.793 794.034 243.389 796.556 237.563Z" fill="#1A216C" style="fill:#1A216C;fill:color(display-p3 0.1020 0.1294 0.4235);fill-opacity:1;"/>
<path d="M783.62 311.933C791.667 307.768 796.129 315.074 789.419 316.936C783.744 318.508 779.913 313.854 783.62 311.933Z" fill="#1A216C" style="fill:#1A216C;fill:color(display-p3 0.1020 0.1294 0.4235);fill-opacity:1;"/>
<path d="M752.01 296.836C750.581 296.201 747.274 285.549 753.573 286.64C757.371 287.301 757.725 299.358 752.01 296.836Z" fill="#1A216C" style="fill:#1A216C;fill:color(display-p3 0.1020 0.1294 0.4235);fill-opacity:1;"/>
<path d="M820.941 258.63C825.454 256.387 828.534 266.256 825.448 267.897C819.678 270.967 818.753 259.71 820.941 258.63Z" fill="#1A216C" style="fill:#1A216C;fill:color(display-p3 0.1020 0.1294 0.4235);fill-opacity:1;"/>
<path d="M772.364 240.861C779.791 237.159 783.457 244.085 777.146 245.969C769.859 248.135 767.965 243.064 772.364 240.861Z" fill="#1A216C" style="fill:#1A216C;fill:color(display-p3 0.1020 0.1294 0.4235);fill-opacity:1;"/>
<path d="M783.746 239.782C784.746 237.528 794.688 236.567 794.069 241.434C793.645 244.786 781.111 245.719 783.746 239.782Z" fill="#1A216C" style="fill:#1A216C;fill:color(display-p3 0.1020 0.1294 0.4235);fill-opacity:1;"/>
<path d="M804.611 255.359C804.773 255.473 805.491 259.266 805.294 259.3L790.022 261.946C789.913 261.965 788.781 263.572 788.8 263.68L794.347 295.703L788.435 296.727L782.632 263.226L765.881 266.128C765.684 266.162 765.001 262.221 765.198 262.187C770.352 261.294 802.996 254.178 804.611 255.359Z" fill="#F3F5F8" style="fill:#F3F5F8;fill:color(display-p3 0.9529 0.9608 0.9725);fill-opacity:1;"/>
<path d="M820.902 232.23L814.98 233.255L816.006 239.177L821.928 238.151L820.902 232.23Z" fill="#F3F5F8" style="fill:#F3F5F8;fill:color(display-p3 0.9529 0.9608 0.9725);fill-opacity:1;"/>
<path d="M759.985 314.991C763.908 316.545 761.551 324.382 755.382 322.751L754.186 315.844C755.787 315.83 758.754 314.504 759.985 314.991Z" fill="#DBD5F8" style="fill:#DBD5F8;fill:color(display-p3 0.8588 0.8353 0.9725);fill-opacity:1;"/>
<path d="M747.988 244.86L749.185 251.767C743.283 253.611 742.531 251.438 742.066 245.886L747.988 244.86Z" fill="#DBD5F8" style="fill:#DBD5F8;fill:color(display-p3 0.8588 0.8353 0.9725);fill-opacity:1;"/>
<path d="M226.043 226.622C245.633 217.56 269.421 235.111 266.574 256.497C262.773 285.044 229.121 293.301 212.302 270.704C214.857 263.801 220.016 259.78 222.315 253.016L215.113 234.467L220.517 228.484C221.94 231.293 229.393 244.993 229.384 246.721C229.377 249.043 223.759 253.106 226.553 259.471C233.605 275.519 256.73 256.431 241.755 246.367C238.428 244.124 234.35 245.218 233.562 244.513C232.844 243.865 227.143 229.125 226.043 226.622Z" fill="#B2F6DB" style="fill:#B2F6DB;fill:color(display-p3 0.6980 0.9647 0.8588);fill-opacity:1;"/>
<path d="M226.042 226.622C227.143 229.125 232.834 243.863 233.562 244.513C234.349 245.218 238.427 244.124 241.755 246.368C256.73 256.431 233.603 275.529 226.552 259.471C223.758 253.106 229.377 249.043 229.383 246.721C229.393 244.993 221.939 231.293 220.516 228.484C219.424 226.321 215.91 217.209 214.959 216.458C214.141 215.798 208.251 215.861 206.389 214.266L181.138 235.959C183.657 245.877 176.273 254.263 166.153 250.318C156.994 246.748 159.273 230.581 169.944 230.183C172.649 230.079 175.089 231.278 177.263 231.119C178.907 230.998 201.5 211.865 202.539 210.158C203.719 208.225 202.077 206.464 202.236 204.431C203.371 189.979 227.108 193.31 223.036 208.081C222.335 210.63 219.955 212.525 219.894 213.321C219.805 214.519 225.028 224.333 226.032 226.62L226.042 226.622ZM218.151 206.593C218.793 203.662 216.938 200.769 214.008 200.127C211.077 199.486 208.184 201.341 207.542 204.271C206.901 207.202 208.756 210.095 211.686 210.736C214.617 211.378 217.51 209.523 218.151 206.593ZM176.3 241.933C176.945 238.983 175.073 236.076 172.133 235.432C169.192 234.789 166.275 236.658 165.632 239.599C164.989 242.539 166.858 245.456 169.799 246.1C172.739 246.743 175.656 244.874 176.3 241.933ZM241.543 256.128C242.191 253.168 240.321 250.251 237.361 249.603C234.401 248.956 231.484 250.825 230.837 253.785C230.189 256.745 232.059 259.662 235.019 260.31C237.979 260.958 240.896 259.088 241.543 256.128Z" fill="#1A216C" style="fill:#1A216C;fill:color(display-p3 0.1020 0.1294 0.4235);fill-opacity:1;"/>
<path d="M212.301 270.704C211.584 272.625 210.839 281.644 208.484 281.129L185.039 275.999C182.88 275.526 186.116 264.667 186.149 261.849C186.194 257.764 182.097 246.918 183.84 244.054C188.992 241.281 202.677 225.85 206.994 224.973C208.719 224.623 209.831 225.245 211.041 226.36C211.606 229.483 214.016 232.129 215.114 234.458L222.316 253.006C220.014 259.78 214.856 263.801 212.303 270.694L212.301 270.704ZM208.212 247.289C207.982 248.201 206.744 253.765 206.715 254.127C201.84 257.697 195.572 251.955 198.41 247.171C199.208 245.82 201.06 245.212 201.877 243.303C202.797 241.16 203.431 237.326 203.244 234.952C200.713 237.162 189.899 244.479 189.117 246.837C188.794 247.8 190.489 259.421 190.968 260.273C191.773 261.739 192.969 261.089 193.842 261.547C197.822 263.615 202.661 265.032 207.304 265.516C207.935 265.582 208.537 266.011 209.207 265.85C209.775 265.125 209.553 263.428 209.9 263.013C211.771 260.73 216.922 255.9 217.273 252.895C217.453 251.369 212.732 243.098 211.672 240.88C210.717 238.88 210.472 236.492 208.843 235.143C208.717 238.76 204.933 244.309 208.222 247.291L208.212 247.289ZM207.417 269.635L190.809 266.001L189.527 271.863L206.134 275.497L207.417 269.635Z" fill="#1A216C" style="fill:#1A216C;fill:color(display-p3 0.1020 0.1294 0.4235);fill-opacity:1;"/>
<path d="M235.018 260.31C237.975 260.957 240.896 259.084 241.543 256.128C242.19 253.171 240.318 250.25 237.361 249.603C234.405 248.956 231.483 250.828 230.836 253.785C230.189 256.742 232.062 259.663 235.018 260.31Z" fill="#B2F6DB" style="fill:#B2F6DB;fill:color(display-p3 0.6980 0.9647 0.8588);fill-opacity:1;"/>
<path d="M169.798 246.1C172.744 246.744 175.655 244.879 176.299 241.933C176.944 238.987 175.078 236.077 172.133 235.432C169.187 234.788 166.276 236.653 165.632 239.599C164.987 242.545 166.853 245.455 169.798 246.1Z" fill="#F3F5F8" style="fill:#F3F5F8;fill:color(display-p3 0.9529 0.9608 0.9725);fill-opacity:1;"/>
<path d="M211.686 210.736C214.616 211.378 217.51 209.522 218.151 206.593C218.792 203.663 216.937 200.769 214.008 200.128C211.078 199.486 208.183 201.342 207.542 204.271C206.901 207.201 208.757 210.095 211.686 210.736Z" fill="#F3F5F8" style="fill:#F3F5F8;fill:color(display-p3 0.9529 0.9608 0.9725);fill-opacity:1;"/>
<path d="M206.717 254.127C206.552 256.189 208.157 261.393 209.891 263.011C209.542 263.436 209.767 265.123 209.199 265.848C208.531 265.999 207.929 265.57 207.296 265.514C204.043 262.509 198.036 263.017 193.834 261.544C192.969 261.099 191.765 261.736 190.959 260.27C190.492 259.411 188.797 247.79 189.109 246.834C189.891 244.477 200.705 237.159 203.236 234.949C203.423 237.324 202.788 241.157 201.869 243.3C201.05 245.219 199.209 245.82 198.402 247.168C195.576 251.945 201.831 257.695 206.707 254.125L206.717 254.127Z" fill="#F3F5F8" style="fill:#F3F5F8;fill:color(display-p3 0.9529 0.9608 0.9725);fill-opacity:1;"/>
<path d="M209.891 263.011C208.157 261.393 206.552 256.189 206.717 254.127C206.745 253.764 207.983 248.2 208.213 247.289C208.807 244.9 209.473 242.231 211.663 240.878C212.714 243.094 217.435 251.364 217.264 252.893C216.912 255.907 211.772 260.73 209.891 263.011Z" fill="#B2F6DB" style="fill:#B2F6DB;fill:color(display-p3 0.6980 0.9647 0.8588);fill-opacity:1;"/>
<path d="M207.418 269.635L190.811 266.001L189.528 271.863L206.135 275.497L207.418 269.635Z" fill="#F3F5F8" style="fill:#F3F5F8;fill:color(display-p3 0.9529 0.9608 0.9725);fill-opacity:1;"/>
<path d="M211.663 240.878C209.474 242.231 208.808 244.9 208.213 247.289C204.925 244.307 208.708 238.757 208.834 235.141C210.464 236.49 210.709 238.878 211.663 240.878Z" fill="#DBD5F8" style="fill:#DBD5F8;fill:color(display-p3 0.8588 0.8353 0.9725);fill-opacity:1;"/>
<path d="M207.295 265.514C202.651 265.03 197.812 263.613 193.832 261.544C198.034 263.017 204.042 262.509 207.295 265.514Z" fill="#B2F6DB" style="fill:#B2F6DB;fill:color(display-p3 0.6980 0.9647 0.8588);fill-opacity:1;"/>
<path d="M455.317 94.832C457.107 90.462 459.587 86.3719 462.247 82.4719C461.867 80.2919 448.347 69.972 446.767 66.802C446.327 65.922 446.457 65.662 446.697 64.802C447.137 63.182 461.077 49.0019 463.297 47.3119C465.517 45.6219 467.207 43.8919 470.027 46.1319L483.837 60.832C485.687 61.312 489.877 55.232 491.317 53.832C493.347 51.862 500.567 44.4019 502.617 44.9419C503.987 45.3019 522.237 63.592 522.867 64.862C524.687 68.522 509.667 79.912 507.337 83.332C509.947 87.032 523.697 97.5119 523.187 101.102C523.037 102.152 522.057 103.522 521.327 104.352C516.177 106.382 506.597 120.682 502.617 121.732C501.227 122.102 500.787 121.572 499.777 120.902C497.247 119.202 485.887 105.862 484.827 105.862C482.697 110.372 451.777 120.302 449.957 119.772C448.867 119.462 448.377 118.422 448.297 117.342C448.197 116.082 454.297 97.3819 455.337 94.8419L455.317 94.832ZM465.317 59.832C465.337 56.722 467.257 57.932 468.377 56.432C470.077 54.172 469.357 50.2819 466.837 50.8419C465.797 51.0719 452.207 65.152 452.387 66.202C454.557 68.202 464.927 80.0819 466.677 79.7619L481.307 65.3219L478.827 62.8419C476.217 67.2619 467.877 70.9519 472.267 63.2919C473.437 61.2519 475.177 62.0319 475.317 57.8419C475.437 54.2919 472.877 55.0219 473.317 57.8419C472.967 57.8619 472.587 57.7719 472.317 57.8419C469.867 58.5119 468.107 60.3919 465.317 59.8419V59.832ZM463.747 88.8419L479.317 104.422L517.427 66.332L501.857 50.7519L463.747 88.8419ZM505.317 89.8119C505.987 88.9319 504.387 86.482 502.837 86.832C501.377 87.162 490.737 99.572 488.397 101.462C488.147 102.882 499.507 113.942 501.827 114.862C503.327 114.862 516.377 101.932 516.377 100.322C516.377 98.7119 514.347 97.082 513.347 97.832C512.447 98.502 511.317 104.632 506.337 102.822C504.367 99.5619 512.277 94.782 510.327 92.832C508.377 90.882 502.847 99.2219 500.337 96.8219C497.527 94.1319 505.047 90.1719 505.327 89.8119H505.317ZM474.317 106.822C472.607 104.762 462.547 92.912 460.327 94.832C460.007 95.112 458.337 102.732 458.447 103.152C458.557 103.572 463.977 109.162 464.337 109.392C466.067 110.502 471.977 106.722 474.317 106.822Z" fill="#191D63" style="fill:#191D63;fill:color(display-p3 0.0980 0.1137 0.3882);fill-opacity:1;"/>
<path d="M491.317 53.8322C489.867 55.2322 485.677 61.3122 483.837 60.8322L470.027 46.1322C467.207 43.8922 465.607 45.5522 463.297 47.3122C460.987 49.0722 447.137 63.1822 446.697 64.8022C446.467 65.6622 446.327 65.9122 446.767 66.8022C448.347 69.9722 461.867 80.2822 462.247 82.4722C459.587 86.3722 457.107 90.4622 455.317 94.8322C434.767 89.1022 427.317 63.2522 440.807 46.8222C455.077 29.4522 482.167 33.8622 491.317 53.8322Z" fill="#F7E17F" style="fill:#F7E17F;fill:color(display-p3 0.9686 0.8824 0.4980);fill-opacity:1;"/>
<path d="M470.027 95.1322C485.057 92.0722 497.077 75.7222 492.047 60.5622L501.857 50.7622L517.427 66.3422L479.317 104.432L470.027 95.1322Z" fill="#F3F5F8" style="fill:#F3F5F8;fill:color(display-p3 0.9529 0.9608 0.9725);fill-opacity:1;"/>
<path d="M470.026 95.132L463.746 88.852L492.046 60.562C497.066 75.732 485.056 92.072 470.026 95.132Z" fill="#F7E17F" style="fill:#F7E17F;fill:color(display-p3 0.9686 0.8824 0.4980);fill-opacity:1;"/>
<path d="M505.317 89.8123C505.037 90.1823 497.517 94.1323 500.327 96.8223C502.837 99.2223 508.427 90.9423 510.317 92.8323C512.207 94.7223 504.357 99.5623 506.327 102.822C511.317 104.642 512.437 98.5123 513.337 97.8323C514.347 97.0823 516.377 98.7123 516.367 100.322C516.357 101.932 503.317 114.862 501.817 114.862C499.497 113.942 488.137 102.892 488.387 101.462C490.737 99.5723 501.367 87.1623 502.827 86.8323C504.377 86.4823 505.977 88.9323 505.307 89.8123H505.317Z" fill="#F3F5F8" style="fill:#F3F5F8;fill:color(display-p3 0.9529 0.9608 0.9725);fill-opacity:1;"/>
<path d="M475.317 57.8324C475.177 62.0224 473.437 61.2524 472.267 63.2824C467.877 70.9424 476.227 67.2624 478.827 62.8324L481.307 65.3124L466.677 79.7524C464.927 80.0624 454.557 68.1824 452.387 66.1924C452.207 65.1524 465.797 51.0624 466.837 50.8324C469.367 50.2824 470.077 54.1724 468.377 56.4224C467.247 57.9224 465.337 56.7124 465.317 59.8224C465.277 65.0524 470.407 60.3124 472.317 57.8224C472.587 57.7524 472.967 57.8424 473.317 57.8224C473.977 57.7824 474.657 57.8524 475.317 57.8224V57.8324ZM463.327 63.8224H458.317C457.787 68.0524 459.157 69.3524 463.317 68.8324V63.8224H463.327Z" fill="#F7E17F" style="fill:#F7E17F;fill:color(display-p3 0.9686 0.8824 0.4980);fill-opacity:1;"/>
<path d="M474.317 106.822C471.977 106.722 466.067 110.502 464.337 109.392C463.977 109.162 458.557 103.562 458.447 103.152C458.337 102.742 460.007 95.1121 460.327 94.8321C462.547 92.9121 472.597 104.762 474.317 106.822Z" fill="#F3F5F8" style="fill:#F3F5F8;fill:color(display-p3 0.9529 0.9608 0.9725);fill-opacity:1;"/>
<path d="M472.317 57.832C470.407 60.322 465.277 65.062 465.317 59.832C468.107 60.382 469.867 58.502 472.317 57.832Z" fill="#55595A" style="fill:#55595A;fill:color(display-p3 0.3333 0.3490 0.3529);fill-opacity:1;"/>
<path d="M473.317 57.8321C472.877 55.0121 475.437 54.2821 475.317 57.8321C474.657 57.8621 473.977 57.7921 473.317 57.8321Z" fill="#55595A" style="fill:#55595A;fill:color(display-p3 0.3333 0.3490 0.3529);fill-opacity:1;"/>
<path d="M463.328 63.8223V68.8323C459.158 69.3523 457.788 68.0523 458.318 63.8323H463.328V63.8223Z" fill="#2B2E41" style="fill:#2B2E41;fill:color(display-p3 0.1686 0.1804 0.2549);fill-opacity:1;"/>
<path d="M965.256 122.412C964.582 121.964 964.398 121.053 964.847 120.379C965.296 119.705 966.206 119.521 966.88 119.97C967.555 120.419 967.738 121.329 967.289 122.003C966.841 122.678 965.93 122.861 965.256 122.412Z" fill="#020100" style="fill:#020100;fill:color(display-p3 0.0078 0.0039 0.0000);fill-opacity:1;"/>
<path d="M1007.83 150.753C1007.16 150.304 1006.98 149.394 1007.43 148.719C1007.87 148.045 1008.78 147.862 1009.46 148.31C1010.13 148.759 1010.32 149.669 1009.87 150.344C1009.42 151.018 1008.51 151.201 1007.83 150.753Z" fill="#020100" style="fill:#020100;fill:color(display-p3 0.0078 0.0039 0.0000);fill-opacity:1;"/>
<path d="M1021.85 127.533C1017.95 124.552 1012.71 130.431 1011.26 133.702C1010.31 135.849 1010.02 139.004 1010.77 141.246C1012.41 146.109 1019.16 144.996 1019.23 140.031C1019.25 139.046 1018.69 138.336 1019.16 137.361C1020.18 135.227 1022.25 134.699 1023.2 132.765C1024.04 131.047 1023.35 128.674 1021.85 127.533ZM1020.14 129.859C1020.39 130.045 1020.56 130.416 1020.62 130.722C1020.87 132.028 1019.43 132.531 1018.68 133.261C1017.37 134.525 1016.14 136.088 1016.04 137.991C1015.98 139.105 1017.05 140.956 1015.32 141.446C1013.21 142.042 1013.07 138.541 1013.25 137.21C1013.6 134.682 1015.44 132.148 1017.41 130.585C1018.15 129.994 1019.18 129.154 1020.14 129.861L1020.14 129.859Z" fill="#020100" style="fill:#020100;fill:color(display-p3 0.0078 0.0039 0.0000);fill-opacity:1;"/>
<path d="M1003.73 149.607C1003.32 149.234 1002.76 149.262 1002.25 149.299C997.404 149.644 991.606 151.931 986.649 152.432C984.704 153.103 985.364 155.601 987.358 155.349C992.088 153.926 998.279 153.783 1002.84 152.242C1004.09 151.821 1004.79 150.589 1003.72 149.606L1003.73 149.607Z" fill="#020100" style="fill:#020100;fill:color(display-p3 0.0078 0.0039 0.0000);fill-opacity:1;"/>
<path d="M1002.26 141.729C1001.78 141.253 1001.39 141.305 1000.79 141.413C999.326 141.675 993.38 143.552 992.073 144.192C990.194 145.113 991.055 147.311 992.773 147.073L1001.72 144.203C1002.76 143.793 1003.08 142.526 1002.26 141.727L1002.26 141.729Z" fill="#020100" style="fill:#020100;fill:color(display-p3 0.0078 0.0039 0.0000);fill-opacity:1;"/>
<path d="M991.171 98.7459L987.094 104.874C987.02 111.052 985.802 117.782 985.938 123.902C985.958 124.833 986.052 125.415 986.49 126.259L972.968 146.648C972.674 147.418 974.289 151.033 974.728 151.907C975.111 152.669 975.137 153.181 976.105 153.394C976.601 153.502 981.538 153.419 981.936 153.267C982.134 153.19 982.334 153.143 982.489 152.981L996.065 132.627C996.794 132.611 997.542 132.672 998.238 132.372L1015.55 123.803L1019.63 117.674L1023.65 120.345C1024.56 120.954 1026.44 120.111 1027.1 119.294C1028.57 117.457 1031.89 112.591 1032.88 110.553C1033.33 109.624 1033.13 108.383 1032.56 107.566C1020.77 99.2747 1008.52 91.5256 996.571 83.4287C995.178 82.486 993.483 82.7413 992.42 84.0323C990.989 85.7743 987.587 90.7913 986.629 92.7608C986.233 93.5766 986.403 95.575 987.153 96.0736L991.168 98.744L991.171 98.7459ZM1027.88 107.716L1030.28 109.31L1024.75 117.622L989.242 94.0074L994.77 85.6949L997.166 87.2883L995.339 90.0356C994.908 90.6836 996.033 92.0104 996.935 91.9036C997.054 91.8894 997.801 91.5288 997.828 91.4879L999.562 88.8818L1001.75 90.3343C1002.46 90.8123 998.443 93.6156 1000.95 94.9013C1001.24 95.0473 1002.18 95.0255 1002.29 94.8632L1004.21 91.9747L1006.61 93.5681L1004.87 96.1743C1004.07 97.387 1006.46 98.9804 1007.27 97.7677L1009 95.1616L1011.4 96.755L1009.48 99.6434C1009.37 99.8044 1009.72 100.686 1009.96 100.893C1012.12 102.709 1013.15 97.9165 1013.87 98.3953L1016.05 99.8479L1014.32 102.454C1014.29 102.495 1014.24 103.322 1014.28 103.439C1014.53 104.312 1016.19 104.835 1016.62 104.189L1018.45 101.441L1020.84 103.035L1019.01 105.782C1018.67 106.306 1019.43 107.305 1019.97 107.536C1020.36 107.7 1021.4 107.39 1021.6 107.092L1023.24 104.626L1025.49 106.125L1023.85 108.592C1023.65 108.89 1023.77 109.967 1024.07 110.26C1024.5 110.674 1025.71 110.99 1026.06 110.467L1027.88 107.719L1027.88 107.716ZM1003.86 115.721C1004.24 115.212 1004.13 114.076 1003.65 113.75L990.472 104.989L993.564 100.34L1017.24 116.083L1014.14 120.732L1009.14 117.406C1008.77 117.156 1007.65 117.611 1007.38 118.064C1007.18 118.398 1007.11 119.506 1007.41 119.706L1011.56 122.47C1011.03 122.938 1010.29 123.248 1009.65 123.569C1005.45 125.683 1001.18 127.641 996.976 129.741C994.897 128.502 992.863 127.151 990.871 125.777C990.371 125.433 988.895 124.636 988.778 124.184C989.322 119.144 989.155 113.885 989.69 108.867C989.72 108.584 989.674 108.276 989.868 108.04C990.574 108.502 991.275 108.983 991.981 109.446C995.4 111.683 998.776 113.996 1002.19 116.235C1002.65 116.428 1003.57 116.112 1003.86 115.722L1003.86 115.721ZM988.854 127.894L993.644 131.08L990.458 135.87L987.808 129.752C987.786 129.154 988.586 128.447 988.855 127.893L988.854 127.894ZM985.762 132.543C986.966 134.435 987.443 136.742 988.584 138.688L986.522 141.788L983.841 135.431L985.762 132.543ZM981.826 138.461C983.03 140.353 983.507 142.66 984.648 144.606L982.586 147.706L979.905 141.349L981.826 138.461ZM977.891 144.378L980.621 150.361C980.413 150.68 977.482 150.601 977.258 150.42C977.127 150.312 975.876 147.41 975.971 147.267L977.892 144.379L977.891 144.378Z" fill="#020100" style="fill:#020100;fill:color(display-p3 0.0078 0.0039 0.0000);fill-opacity:1;"/>
<path d="M968.217 125.99C966.933 124.877 965.732 126.174 965.816 127.704C966.073 132.389 968.437 138.26 968.902 143.072C969.383 144.998 971.93 144.662 971.881 142.717L968.682 126.761C968.603 126.487 968.431 126.173 968.218 125.988L968.217 125.99Z" fill="#020100" style="fill:#020100;fill:color(display-p3 0.0078 0.0039 0.0000);fill-opacity:1;"/>
<path d="M976.247 124.629C975.299 123.639 974.039 124.006 973.689 125.267L974.473 134.875C974.976 136.594 977.252 136.464 977.372 134.413C977.452 133.056 976.897 126.751 976.589 125.417C976.523 125.13 976.461 124.853 976.249 124.63L976.247 124.629Z" fill="#020100" style="fill:#020100;fill:color(display-p3 0.0078 0.0039 0.0000);fill-opacity:1;"/>
<path d="M1027.88 107.716L1026.05 110.463C1025.71 110.987 1024.49 110.671 1024.07 110.257C1023.76 109.963 1023.65 108.886 1023.85 108.588L1025.49 106.122L1023.23 104.623L1021.59 107.089C1021.39 107.387 1020.36 107.696 1019.97 107.533C1019.42 107.299 1018.66 106.303 1019.01 105.779L1020.84 103.031L1018.44 101.438L1016.61 104.185C1016.18 104.833 1014.53 104.308 1014.27 103.436C1014.24 103.32 1014.29 102.492 1014.31 102.451L1016.05 99.8446L1013.86 98.3921C1013.14 97.9141 1012.11 102.706 1009.96 100.89C1009.71 100.684 1009.37 99.8025 1009.47 99.6402L1011.4 96.7517L1009 95.1583L1007.27 97.7644C1006.46 98.9771 1004.06 97.3837 1004.87 96.171L1006.6 93.5649L1004.21 91.9714L1002.29 94.8599C1002.18 95.0208 1001.23 95.0426 1000.95 94.898C998.44 93.6123 1002.46 90.8099 1001.74 90.3311L999.558 88.8785L997.825 91.4846C997.798 91.5255 997.052 91.887 996.931 91.9003C996.03 92.0071 994.905 90.679 995.335 90.0324L997.162 87.2851L994.767 85.6916L989.238 94.0041L1024.74 117.619L1030.27 109.307L1027.88 107.713L1027.88 107.716Z" fill="#F3F5F8" style="fill:#F3F5F8;fill:color(display-p3 0.9529 0.9608 0.9725);fill-opacity:1;"/>
<path d="M1003.86 115.721C1003.57 116.111 1002.65 116.427 1002.19 116.234C998.772 113.995 995.397 111.682 991.979 109.445L990.87 125.777C992.862 127.151 994.896 128.502 996.976 129.741C1001.18 127.642 1005.46 125.684 1009.65 123.569C1010.28 123.247 1011.03 122.938 1011.56 122.47L1007.41 119.706C1007.11 119.507 1007.18 118.398 1007.38 118.064L1003.86 115.721Z" fill="#F7E17F" style="fill:#F7E17F;fill:color(display-p3 0.9686 0.8824 0.4980);fill-opacity:1;"/>
<path d="M1007.38 118.063C1007.65 117.61 1008.77 117.155 1009.14 117.405L1014.14 120.731L1017.24 116.083L993.565 100.339L990.473 104.988L1003.65 113.749C1004.13 114.074 1004.24 115.212 1003.86 115.72L1007.38 118.063Z" fill="#DAD26D" style="fill:#DAD26D;fill:color(display-p3 0.8549 0.8235 0.4275);fill-opacity:1;"/>
<path d="M991.979 109.446C991.272 108.984 990.571 108.504 989.865 108.04C989.672 108.276 989.719 108.584 989.688 108.867C989.152 113.885 989.321 119.145 988.776 124.184C988.892 124.636 990.37 125.434 990.868 125.777L991.977 109.445L991.979 109.446Z" fill="#DAD26D" style="fill:#DAD26D;fill:color(display-p3 0.8549 0.8235 0.4275);fill-opacity:1;"/>
<path d="M988.852 127.893C988.584 128.447 987.784 129.153 987.805 129.752L990.456 135.87L993.642 131.08L988.852 127.894L988.852 127.893Z" fill="#F3F5F8" style="fill:#F3F5F8;fill:color(display-p3 0.9529 0.9608 0.9725);fill-opacity:1;"/>
<path d="M985.763 132.541L983.841 135.43L986.523 141.786L988.585 138.686C987.443 136.741 986.965 134.432 985.763 132.541Z" fill="#F3F5F8" style="fill:#F3F5F8;fill:color(display-p3 0.9529 0.9608 0.9725);fill-opacity:1;"/>
<path d="M981.827 138.46L979.906 141.349L982.587 147.705L984.649 144.605C983.507 142.66 983.029 140.351 981.827 138.46Z" fill="#F3F5F8" style="fill:#F3F5F8;fill:color(display-p3 0.9529 0.9608 0.9725);fill-opacity:1;"/>
<path d="M977.891 144.378L975.97 147.266C975.876 147.407 977.125 150.311 977.257 150.419C977.48 150.601 980.411 150.679 980.619 150.361L977.889 144.377L977.891 144.378Z" fill="#F3F5F8" style="fill:#F3F5F8;fill:color(display-p3 0.9529 0.9608 0.9725);fill-opacity:1;"/>
<path d="M1020.13 129.86C1019.18 129.153 1018.15 129.994 1017.4 130.584C1015.44 132.147 1013.59 134.68 1013.25 137.209C1013.07 138.54 1013.21 142.043 1015.32 141.445C1017.04 140.954 1015.98 139.104 1016.04 137.99C1016.14 136.086 1017.36 134.523 1018.68 133.259C1019.43 132.532 1020.87 132.028 1020.62 130.721C1020.56 130.415 1020.38 130.043 1020.13 129.857L1020.13 129.86Z" fill="#A6E8F8" style="fill:#A6E8F8;fill:color(display-p3 0.6510 0.9098 0.9725);fill-opacity:1;"/>
<path d="M1056.62 123.176C1055.05 122.656 1053.51 122.652 1052.15 123.701C1050.18 125.217 1050.85 126.685 1049.83 128.507C1047.2 133.195 1043.24 130.951 1039.15 131.874C1033.99 133.039 1029.93 136.948 1028.37 141.979C1027.81 143.784 1027.9 145.372 1026.55 146.919C1023.77 150.103 1019.43 148.296 1015.58 149.427C1010.56 150.904 1005.39 156.31 1005.32 161.748C1005.27 165.835 1010.28 167.747 1012.91 164.674C1014.35 162.993 1013.65 161.005 1015.81 159.022C1018.43 156.612 1020.98 157.903 1024.04 157.498C1029.53 156.774 1034.17 152.793 1035.88 147.546C1036.73 144.965 1036.42 142.967 1039.06 141.172C1041.32 139.642 1043.5 140.501 1045.96 140.265C1049.69 139.907 1052.94 138.128 1055.55 135.472C1056.16 134.38 1057.14 133.323 1057.71 132.232C1058.32 131.051 1059.17 127.99 1059.03 126.657C1058.92 125.591 1058.33 124.778 1057.75 123.926L1056.62 123.177L1056.62 123.176ZM1046.2 134.462C1048.94 133.947 1051.29 132.017 1052.57 129.545C1053.19 128.341 1053.17 125.268 1055.17 125.963C1056.66 126.48 1056.08 128.137 1055.71 129.279C1054.24 133.804 1050.23 136.999 1045.51 137.412C1042.89 137.641 1041.24 136.842 1038.58 138.142C1032.47 141.131 1034.65 146.732 1030.45 151.135C1024.67 157.192 1018.98 152.392 1014.01 156.775C1012.82 157.826 1012.11 158.771 1011.52 160.255C1011.1 161.336 1011.21 163.224 1009.71 163.312C1007.55 163.435 1008.32 160.667 1008.77 159.467C1010.08 155.947 1012.92 153.286 1016.51 152.199C1020.83 150.891 1024.18 153.271 1028.15 149.399C1031.17 146.45 1030.24 143.781 1031.99 140.638C1033.9 137.205 1037.16 135.015 1041.03 134.543C1042.76 134.331 1044.53 134.775 1046.2 134.461L1046.2 134.462Z" fill="#020100" style="fill:#020100;fill:color(display-p3 0.0078 0.0039 0.0000);fill-opacity:1;"/>
<path d="M1033.35 168.866L1034.38 167.316C1035.55 163.945 1032.65 160.445 1029.12 161.485C1027.11 162.076 1027.09 163.733 1024.59 163.249C1023.01 162.946 1021.73 161.843 1020.06 161.951C1015.94 162.221 1014.47 167.674 1017.88 169.935C1021.29 172.196 1027.29 172.719 1030.84 170.655L1033.35 168.866ZM1031.44 164.793C1033.26 166.698 1028.33 168.787 1026.84 169.006C1024.84 169.299 1021.02 168.582 1019.42 167.337C1018.04 166.27 1019.35 164.38 1020.89 164.894C1023.2 165.665 1025.36 166.995 1027.89 165.709C1029.15 165.068 1030.03 163.319 1031.44 164.793Z" fill="#020100" style="fill:#020100;fill:color(display-p3 0.0078 0.0039 0.0000);fill-opacity:1;"/>
<path d="M1046.2 134.461C1044.53 134.775 1042.76 134.331 1041.03 134.543C1037.15 135.015 1033.9 137.205 1031.99 140.638C1030.24 143.78 1031.17 146.45 1028.15 149.399C1024.18 153.269 1020.83 150.889 1016.51 152.199C1012.92 153.286 1010.08 155.947 1008.76 159.467C1008.32 160.666 1007.55 163.435 1009.71 163.311C1011.2 163.226 1011.1 161.336 1011.52 160.255C1012.11 158.771 1012.82 157.824 1014.01 156.775C1018.98 152.391 1024.67 157.192 1030.45 151.135C1034.65 146.732 1032.47 141.131 1038.58 138.142C1041.23 136.841 1042.88 137.64 1045.51 137.412C1050.23 136.999 1054.24 133.803 1055.71 129.279C1056.08 128.137 1056.66 126.479 1055.17 125.963C1053.17 125.267 1053.19 128.339 1052.57 129.545C1051.29 132.02 1048.94 133.947 1046.2 134.462L1046.2 134.461Z" fill="#A6E8F8" style="fill:#A6E8F8;fill:color(display-p3 0.6510 0.9098 0.9725);fill-opacity:1;"/>
<path d="M1031.44 164.793C1030.03 163.32 1029.15 165.07 1027.89 165.709C1025.35 166.995 1023.19 165.665 1020.89 164.894C1019.35 164.38 1018.04 166.27 1019.41 167.337C1021.02 168.583 1024.84 169.3 1026.84 169.006C1028.32 168.789 1033.26 166.698 1031.44 164.793Z" fill="#A6E8F8" style="fill:#A6E8F8;fill:color(display-p3 0.6510 0.9098 0.9725);fill-opacity:1;"/>
<rect x="10.128" y="91.6389" width="991" height="98" transform="rotate(3.79 10.128 91.6389)" fill="#E8422E" stroke="#0D99FF" style="fill:#E8422E;fill:color(display-p3 0.9098 0.2588 0.1804);fill-opacity:1;stroke:#0D99FF;stroke:color(display-p3 0.0510 0.6000 1.0000);stroke-opacity:1;"/>
<path d="M51.6335 121.436L48.6914 165.85L37.1421 165.085L40.0843 120.671L51.6335 121.436ZM66.6848 130.479L66.271 133.813C67.1642 132.531 68.2086 131.599 69.4044 131.017C70.6197 130.418 71.9863 130.169 73.5043 130.27C75.4063 130.396 76.9311 130.947 78.0788 131.923C79.2265 132.899 79.9287 134.084 80.1853 135.479C80.4431 136.855 80.4666 139.134 80.2558 142.317L78.5657 167.829L67.4829 167.095L69.1529 141.884C69.3189 139.379 69.3378 137.846 69.2095 137.287C69.0813 136.727 68.6422 136.422 67.8924 136.373C67.106 136.321 66.591 136.608 66.3474 137.235C66.1051 137.843 65.893 139.519 65.7113 142.262L64.0812 166.87L52.9983 166.136L55.4099 129.732L66.6848 130.479ZM110.559 125.34L107.617 169.754L96.5343 169.02L96.7087 166.386C95.5753 167.413 94.4052 168.162 93.1984 168.633C91.9915 169.104 90.748 169.298 89.4678 169.213C87.7487 169.099 86.2879 168.552 85.0853 167.572C83.884 166.574 83.1398 165.469 82.8528 164.256C82.5841 163.044 82.5387 161.094 82.7168 158.405L83.8454 141.37C84.0307 138.572 84.3359 136.599 84.7609 135.451C85.2042 134.305 86.0951 133.335 87.4334 132.542C88.773 131.731 90.3298 131.384 92.1038 131.502C93.4754 131.592 94.7118 131.922 95.813 132.491C96.9325 133.061 97.9258 133.871 98.7931 134.921L99.4764 124.606L110.559 125.34ZM98.3388 141.779C98.4273 140.444 98.3677 139.54 98.1603 139.067C97.9711 138.595 97.5382 138.337 96.8615 138.292C96.2031 138.248 95.7411 138.429 95.4755 138.834C95.2294 139.222 95.0591 140.129 94.9646 141.555L93.7833 159.387C93.6852 160.868 93.7301 161.854 93.9181 162.344C94.1073 162.815 94.5128 163.072 95.1346 163.113C95.8478 163.16 96.3403 162.936 96.612 162.439C96.8848 161.925 97.0885 160.653 97.223 158.622L98.3388 141.779ZM125.949 126.359L125.566 132.148L114.154 131.392L114.537 125.603L125.949 126.359ZM125.418 134.37L123.007 170.773L111.595 170.017L114.006 133.614L125.418 134.37ZM138.393 149.392L127.996 148.703L128.158 146.261C128.344 143.445 128.808 141.299 129.548 139.823C130.309 138.331 131.706 137.064 133.74 136.023C135.775 134.982 138.356 134.566 141.483 134.773C145.232 135.021 148.013 135.876 149.827 137.337C151.642 138.78 152.677 140.483 152.933 142.447C153.189 144.393 153.119 148.374 152.72 154.391L151.51 172.661L140.729 171.947L140.943 168.71C140.18 169.964 139.238 170.884 138.115 171.471C137.012 172.041 135.72 172.277 134.238 172.178C132.3 172.05 130.552 171.392 128.996 170.206C127.459 169.002 126.813 166.562 127.056 162.886L127.254 159.896C127.435 157.171 127.988 155.343 128.913 154.412C129.838 153.481 132.045 152.47 135.533 151.379C139.267 150.194 141.279 149.362 141.567 148.886C141.856 148.409 142.051 147.411 142.151 145.893C142.277 143.991 142.213 142.747 141.958 142.161C141.722 141.557 141.275 141.234 140.617 141.19C139.867 141.141 139.384 141.357 139.169 141.838C138.954 142.302 138.78 143.548 138.645 145.578L138.393 149.392ZM141.574 154.617C139.713 155.798 138.608 156.818 138.257 157.676C137.925 158.536 137.704 159.789 137.595 161.435C137.47 163.318 137.509 164.542 137.71 165.107C137.93 165.672 138.405 165.98 139.137 166.028C139.832 166.074 140.294 165.893 140.523 165.486C140.771 165.062 140.956 163.935 141.077 162.106L141.574 154.617ZM164.712 128.927L164.448 132.905C164.311 134.972 163.951 136.665 163.368 137.986C162.785 139.288 161.851 140.365 160.564 141.217C159.296 142.051 157.883 142.582 156.325 142.81L156.538 139.6C157.675 139.069 158.351 138.287 158.567 137.255L156.701 137.131L157.277 128.435L164.712 128.927ZM189.033 150.266L179.212 149.616L179.343 147.641C179.454 145.958 179.424 144.891 179.252 144.439C179.099 143.969 178.639 143.709 177.871 143.658C177.249 143.617 176.769 143.796 176.43 144.197C176.092 144.578 175.896 145.181 175.842 146.004C175.768 147.119 175.786 147.947 175.898 148.487C176.028 149.01 176.457 149.608 177.184 150.281C177.929 150.955 179.47 151.966 181.805 153.314C184.919 155.101 186.934 156.722 187.847 158.178C188.761 159.635 189.13 161.689 188.955 164.341C188.758 167.304 188.226 169.519 187.357 170.986C186.49 172.435 185.123 173.51 183.258 174.213C181.413 174.899 179.219 175.158 176.677 174.99C173.86 174.803 171.475 174.204 169.522 173.193C167.587 172.183 166.294 170.904 165.643 169.354C164.993 167.805 164.768 165.512 164.969 162.477L165.085 160.721L174.906 161.371L174.754 163.676C174.624 165.633 174.659 166.912 174.858 167.513C175.075 168.115 175.549 168.44 176.281 168.489C177.067 168.541 177.629 168.385 177.965 168.022C178.303 167.64 178.513 166.818 178.597 165.556C178.712 163.819 178.583 162.717 178.21 162.252C177.818 161.785 175.755 160.344 172.021 157.929C168.887 155.885 167.012 154.098 166.397 152.569C165.783 151.022 165.544 149.225 165.68 147.176C165.872 144.269 166.398 142.154 167.257 140.834C168.117 139.494 169.487 138.511 171.365 137.882C173.262 137.254 175.426 137.021 177.859 137.182C180.273 137.342 182.301 137.789 183.942 138.522C185.603 139.238 186.848 140.129 187.678 141.194C188.525 142.261 189.012 143.23 189.138 144.102C189.282 144.974 189.294 146.325 189.173 148.154L189.033 150.266ZM215.956 132.322L213.603 167.847L220.626 168.313L220.037 177.201L201.465 175.971L204.407 131.557L215.956 132.322ZM233.914 155.719L223.517 155.031L223.679 152.589C223.865 149.773 224.329 147.627 225.07 146.151C225.83 144.659 227.227 143.392 229.261 142.351C231.296 141.31 233.877 140.893 237.004 141.1C240.753 141.349 243.535 142.204 245.348 143.665C247.163 145.107 248.198 146.811 248.454 148.775C248.711 150.721 248.64 154.702 248.241 160.719L247.031 178.989L236.25 178.275L236.464 175.038C235.701 176.292 234.759 177.212 233.636 177.799C232.533 178.369 231.241 178.604 229.759 178.506C227.821 178.378 226.073 177.72 224.517 176.533C222.981 175.329 222.334 172.889 222.577 169.213L222.776 166.223C222.956 163.498 223.509 161.67 224.434 160.74C225.359 159.809 227.566 158.798 231.055 157.707C234.789 156.521 236.8 155.69 237.089 155.213C237.377 154.737 237.572 153.739 237.673 152.221C237.799 150.319 237.734 149.075 237.479 148.489C237.243 147.885 236.796 147.562 236.138 147.518C235.388 147.468 234.906 147.684 234.69 148.166C234.476 148.63 234.301 149.876 234.167 151.906L233.914 155.719ZM237.095 160.945C235.235 162.126 234.129 163.146 233.779 164.004C233.446 164.864 233.225 166.116 233.116 167.762C232.991 169.646 233.03 170.87 233.231 171.435C233.451 172 233.926 172.307 234.658 172.356C235.353 172.402 235.815 172.221 236.044 171.814C236.293 171.389 236.477 170.263 236.599 168.434L237.095 160.945ZM264.338 143.573L263.583 148.317C265.419 145.003 267.871 143.347 270.938 143.348L270.09 156.16C268.06 156.025 266.551 156.201 265.564 156.686C264.576 157.172 263.94 157.901 263.655 158.874C263.372 159.829 263.113 162.071 262.879 165.601L261.927 179.976L250.844 179.242L253.256 142.838L264.338 143.573ZM298.575 145.84L296.717 173.877C296.467 177.663 296.213 180.107 295.956 181.211C295.719 182.297 295.029 183.418 293.887 184.573C292.744 185.746 291.2 186.59 289.256 187.104C287.329 187.638 284.929 187.809 282.058 187.619C278.528 187.385 275.733 186.594 273.674 185.245C271.613 183.915 270.662 181.491 270.821 177.975L281.575 178.687C281.468 180.297 282 181.14 283.171 181.218C284.012 181.274 284.586 181.064 284.893 180.588C285.2 180.112 285.406 179.088 285.51 177.515L285.692 174.772C284.684 175.569 283.635 176.151 282.545 176.52C281.474 176.89 280.362 177.037 279.21 176.96C277.216 176.828 275.597 176.317 274.352 175.426C273.125 174.537 272.317 173.427 271.927 172.097C271.539 170.749 271.425 168.867 271.585 166.453L272.461 153.231C272.69 149.774 273.476 147.328 274.82 145.893C276.164 144.457 278.108 143.823 280.65 143.992C282.04 144.084 283.283 144.451 284.379 145.093C285.494 145.736 286.462 146.655 287.283 147.848L288.26 145.157L298.575 145.84ZM286.825 154.761C286.935 153.097 286.905 152.029 286.734 151.559C286.581 151.089 286.176 150.833 285.517 150.789C284.877 150.747 284.402 150.982 284.093 151.494C283.803 151.989 283.607 153.005 283.505 154.541L282.695 166.776C282.587 168.404 282.617 169.471 282.786 169.978C282.955 170.467 283.36 170.733 284 170.775C284.732 170.824 285.227 170.562 285.485 169.992C285.743 169.421 285.941 168.102 286.078 166.036L286.825 154.761ZM326.378 166.611L312.03 165.661L311.509 173.534C311.4 175.18 311.448 176.249 311.654 176.74C311.861 177.231 312.302 177.499 312.979 177.544C313.82 177.6 314.398 177.326 314.714 176.722C315.049 176.102 315.276 174.886 315.396 173.075L315.714 168.275L326.221 168.971L326.043 171.659C325.894 173.908 325.633 175.627 325.261 176.815C324.906 178.004 324.163 179.249 323.029 180.552C321.896 181.854 320.502 182.8 318.846 183.388C317.21 183.96 315.185 184.165 312.771 184.005C310.43 183.85 308.386 183.375 306.639 182.58C304.891 181.784 303.553 180.768 302.625 179.531C301.716 178.277 301.116 176.933 300.826 175.499C300.536 174.047 300.481 171.968 300.66 169.261L301.363 158.645C301.574 155.462 302.17 152.985 303.151 151.213C304.133 149.423 305.634 148.108 307.655 147.269C309.678 146.411 311.96 146.066 314.502 146.234C317.611 146.44 320.132 147.204 322.065 148.526C324.017 149.831 325.331 151.489 326.006 153.499C326.701 155.492 326.931 158.253 326.697 161.783L326.378 166.611ZM315.66 159.95L315.836 157.289C315.961 155.405 315.941 154.182 315.776 153.62C315.611 153.058 315.218 152.757 314.596 152.716C313.828 152.665 313.337 152.871 313.122 153.334C312.909 153.779 312.735 155.026 312.599 157.074L312.423 159.735L315.66 159.95ZM353.136 161.137L343.315 160.487L343.446 158.512C343.557 156.829 343.527 155.762 343.355 155.31C343.202 154.84 342.742 154.58 341.974 154.529C341.352 154.488 340.872 154.667 340.533 155.067C340.196 155.449 340 156.052 339.945 156.875C339.871 157.99 339.89 158.818 340.001 159.358C340.132 159.881 340.56 160.479 341.287 161.152C342.033 161.825 343.573 162.837 345.908 164.185C349.023 165.972 351.037 167.593 351.951 169.049C352.865 170.506 353.234 172.56 353.058 175.212C352.862 178.175 352.329 180.39 351.461 181.857C350.593 183.305 349.227 184.381 347.362 185.084C345.516 185.77 343.322 186.029 340.78 185.861C337.964 185.674 335.579 185.075 333.625 184.064C331.69 183.054 330.397 181.775 329.746 180.225C329.096 178.676 328.871 176.383 329.072 173.348L329.189 171.592L339.01 172.242L338.857 174.547C338.727 176.504 338.762 177.783 338.961 178.384C339.178 178.986 339.653 179.311 340.384 179.36C341.171 179.412 341.732 179.256 342.068 178.892C342.406 178.511 342.616 177.689 342.7 176.427C342.815 174.69 342.686 173.588 342.313 173.123C341.921 172.656 339.858 171.215 336.124 168.8C332.99 166.755 331.115 164.969 330.5 163.44C329.886 161.893 329.647 160.096 329.783 158.047C329.975 155.14 330.501 153.025 331.36 151.704C332.22 150.365 333.59 149.382 335.468 148.753C337.365 148.125 339.53 147.892 341.962 148.053C344.376 148.213 346.404 148.66 348.045 149.393C349.706 150.109 350.951 151 351.781 152.065C352.629 153.132 353.115 154.101 353.241 154.973C353.386 155.845 353.397 157.196 353.276 159.025L353.136 161.137ZM369.728 145.677L369.348 151.411L372.338 151.609L371.957 157.37L368.966 157.171L367.676 176.649C367.517 179.045 367.548 180.388 367.767 180.678C368.005 180.969 369.03 181.174 370.84 181.294L370.451 187.165L365.98 186.869C363.456 186.702 361.661 186.482 360.595 186.209C359.531 185.918 358.612 185.37 357.839 184.566C357.067 183.744 356.612 182.841 356.475 181.858C356.339 180.857 356.391 178.546 356.631 174.925L357.856 156.435L355.469 156.277L355.851 150.516L358.238 150.675L358.618 144.941L369.728 145.677ZM411.312 164.716L399.763 163.951L400.275 156.215C400.424 153.965 400.389 152.558 400.169 151.992C399.969 151.409 399.448 151.09 398.607 151.034C397.656 150.971 397.03 151.27 396.729 151.929C396.428 152.589 396.203 154.044 396.054 156.293L394.688 176.923C394.545 179.081 394.58 180.497 394.792 181.173C395.004 181.848 395.559 182.216 396.455 182.275C397.314 182.332 397.894 182.04 398.194 181.398C398.512 180.758 398.751 179.222 398.912 176.789L399.281 171.22L410.83 171.985L410.716 173.714C410.412 178.304 409.867 181.538 409.081 183.414C408.314 185.292 406.767 186.88 404.44 188.177C402.131 189.475 399.349 190.016 396.094 189.801C392.711 189.576 389.962 188.779 387.849 187.408C385.735 186.038 384.393 184.25 383.823 182.044C383.254 179.821 383.114 176.533 383.402 172.18L384.262 159.204C384.474 156.004 384.742 153.615 385.067 152.039C385.393 150.444 386.145 148.941 387.322 147.531C388.517 146.123 390.103 145.061 392.079 144.347C394.075 143.616 396.325 143.334 398.831 143.5C402.232 143.725 404.996 144.569 407.122 146.033C409.247 147.496 410.592 149.238 411.156 151.259C411.722 153.262 411.867 156.34 411.592 160.491L411.312 164.716ZM439.73 174.12L425.383 173.17L424.861 181.043C424.752 182.689 424.801 183.758 425.007 184.249C425.213 184.74 425.655 185.008 426.331 185.053C427.173 185.109 427.751 184.835 428.067 184.231C428.402 183.611 428.629 182.395 428.749 180.584L429.067 175.784L439.574 176.48L439.396 179.168C439.247 181.417 438.986 183.136 438.613 184.324C438.259 185.513 437.515 186.758 436.382 188.061C435.249 189.363 433.854 190.309 432.199 190.897C430.563 191.469 428.538 191.674 426.124 191.514C423.783 191.359 421.739 190.884 419.991 190.089C418.244 189.293 416.906 188.277 415.977 187.04C415.069 185.786 414.469 184.442 414.178 183.008C413.888 181.556 413.833 179.477 414.013 176.77L414.716 166.154C414.927 162.971 415.523 160.494 416.503 158.722C417.485 156.932 418.987 155.617 421.008 154.778C423.03 153.92 425.312 153.575 427.854 153.743C430.963 153.949 433.484 154.713 435.417 156.035C437.37 157.34 438.684 158.998 439.359 161.008C440.053 163.001 440.284 165.762 440.05 169.292L439.73 174.12ZM429.012 167.459L429.189 164.798C429.313 162.914 429.293 161.691 429.128 161.129C428.964 160.567 428.57 160.266 427.949 160.225C427.18 160.174 426.689 160.38 426.475 160.843C426.262 161.288 426.087 162.535 425.951 164.583L425.775 167.244L429.012 167.459ZM456.57 148.261L453.628 192.675L442.216 191.919L445.158 147.505L456.57 148.261ZM483.897 177.046L469.55 176.096L469.028 183.969C468.919 185.615 468.968 186.684 469.174 187.175C469.38 187.666 469.822 187.934 470.498 187.979C471.339 188.035 471.918 187.761 472.233 187.157C472.568 186.536 472.796 185.321 472.916 183.51L473.234 178.709L483.741 179.405L483.563 182.094C483.414 184.343 483.153 186.062 482.78 187.25C482.426 188.438 481.682 189.684 480.549 190.987C479.415 192.289 478.021 193.235 476.366 193.823C474.73 194.394 472.705 194.6 470.291 194.44C467.95 194.285 465.905 193.81 464.158 193.014C462.411 192.219 461.073 191.203 460.144 189.966C459.235 188.711 458.636 187.368 458.345 185.934C458.055 184.482 458 182.403 458.18 179.696L458.883 169.079C459.094 165.897 459.689 163.42 460.67 161.648C461.652 159.858 463.154 158.543 465.175 157.703C467.197 156.845 469.479 156.501 472.021 156.669C475.13 156.875 477.651 157.639 479.584 158.961C481.537 160.266 482.851 161.924 483.526 163.934C484.22 165.927 484.451 168.688 484.217 172.218L483.897 177.046ZM473.179 170.385L473.355 167.724C473.48 165.84 473.46 164.617 473.295 164.055C473.131 163.493 472.737 163.192 472.115 163.15C471.347 163.099 470.856 163.306 470.642 163.769C470.428 164.214 470.254 165.461 470.118 167.509L469.942 170.17L473.179 170.385ZM500.407 151.165L499.711 161.672C500.696 160.672 501.763 159.953 502.913 159.515C504.082 159.059 505.325 158.875 506.642 158.963C508.159 159.063 509.46 159.388 510.545 159.937C511.629 160.487 512.435 161.211 512.963 162.109C513.491 163.007 513.783 163.872 513.838 164.702C513.912 165.533 513.86 167.293 513.682 169.982L512.595 186.387C512.418 189.057 512.103 191.038 511.65 192.331C511.216 193.606 510.309 194.685 508.928 195.567C507.548 196.431 505.953 196.803 504.143 196.683C502.844 196.597 501.647 196.233 500.551 195.591C499.472 194.95 498.505 194.031 497.647 192.836L496.752 195.532L486.382 194.845L489.325 150.431L500.407 151.165ZM502.566 169.741C502.691 167.858 502.653 166.624 502.453 166.042C502.254 165.441 501.807 165.117 501.112 165.071C500.435 165.026 499.979 165.253 499.744 165.752C499.51 166.233 499.326 167.488 499.192 169.518L498.152 185.209C498.023 187.166 498.049 188.426 498.232 188.99C498.434 189.554 498.873 189.859 499.55 189.903C500.245 189.949 500.711 189.696 500.95 189.142C501.207 188.59 501.407 187.234 501.55 185.076L502.566 169.741ZM529.065 161.109L528.31 165.853C530.146 162.54 532.598 160.884 535.665 160.885L534.817 173.696C532.787 173.562 531.278 173.737 530.291 174.223C529.303 174.709 528.667 175.438 528.382 176.411C528.099 177.366 527.84 179.608 527.606 183.138L526.654 197.513L515.571 196.778L517.983 160.375L529.065 161.109ZM547.087 176.465L536.69 175.777L536.852 173.335C537.039 170.519 537.502 168.373 538.243 166.897C539.003 165.405 540.4 164.138 542.435 163.097C544.469 162.056 547.05 161.639 550.177 161.847C553.927 162.095 556.708 162.95 558.521 164.411C560.336 165.853 561.371 167.557 561.627 169.521C561.884 171.467 561.813 175.448 561.415 181.465L560.204 199.735L549.423 199.021L549.638 195.784C548.875 197.038 547.932 197.958 546.81 198.545C545.706 199.115 544.414 199.35 542.933 199.252C540.994 199.124 539.247 198.466 537.691 197.279C536.154 196.075 535.507 193.636 535.751 189.96L535.949 186.969C536.129 184.244 536.682 182.417 537.607 181.486C538.532 180.555 540.739 179.544 544.228 178.453C547.962 177.267 549.973 176.436 550.262 175.959C550.551 175.483 550.745 174.485 550.846 172.967C550.972 171.065 550.907 169.821 550.652 169.235C550.417 168.631 549.97 168.308 549.311 168.264C548.562 168.215 548.079 168.431 547.863 168.912C547.649 169.376 547.474 170.622 547.34 172.652L547.087 176.465ZM550.268 181.691C548.408 182.872 547.303 183.892 546.952 184.75C546.619 185.61 546.399 186.863 546.29 188.508C546.165 190.392 546.203 191.616 546.405 192.181C546.624 192.746 547.1 193.053 547.831 193.102C548.526 193.148 548.988 192.967 549.217 192.56C549.466 192.136 549.651 191.009 549.772 189.18L550.268 181.691ZM578.437 159.503L578.057 165.236L581.047 165.434L580.666 171.195L577.676 170.997L576.385 190.475C576.227 192.87 576.257 194.213 576.477 194.503C576.714 194.795 577.739 195 579.549 195.12L579.16 200.991L574.689 200.695C572.165 200.528 570.37 200.308 569.304 200.035C568.24 199.744 567.321 199.196 566.548 198.392C565.776 197.569 565.321 196.667 565.184 195.684C565.048 194.683 565.1 192.372 565.34 188.751L566.565 170.261L564.179 170.103L564.56 164.342L566.947 164.5L567.327 158.767L578.437 159.503ZM595.49 157.464L595.106 163.252L583.694 162.496L584.078 156.708L595.49 157.464ZM594.959 165.474L592.548 201.878L581.135 201.122L583.547 164.718L594.959 165.474ZM623.191 180.184L622.6 189.1C622.384 192.374 622.06 194.768 621.629 196.282C621.199 197.778 620.4 199.158 619.233 200.422C618.067 201.667 616.612 202.553 614.869 203.081C613.145 203.591 611.186 203.774 608.991 203.628C606.54 203.466 604.482 203.063 602.817 202.42C601.152 201.759 599.88 200.857 599.001 199.715C598.14 198.556 597.56 197.195 597.26 195.632C596.96 194.051 596.913 191.715 597.118 188.624L597.736 179.297C597.96 175.914 598.501 173.295 599.358 171.442C600.216 169.588 601.634 168.148 603.612 167.122C605.59 166.096 608.061 165.681 611.023 165.877C613.511 166.042 615.617 166.558 617.341 167.425C619.085 168.276 620.402 169.327 621.292 170.58C622.183 171.833 622.76 173.102 623.024 174.387C623.306 175.673 623.362 177.606 623.191 180.184ZM612.29 176.707C612.413 174.841 612.39 173.664 612.221 173.176C612.052 172.668 611.639 172.393 610.98 172.349C610.322 172.306 609.867 172.524 609.615 173.003C609.364 173.464 609.176 174.627 609.053 176.492L607.964 192.925C607.85 194.644 607.886 195.776 608.07 196.321C608.255 196.847 608.668 197.132 609.308 197.174C609.967 197.218 610.412 197.009 610.645 196.546C610.896 196.086 611.074 195.069 611.178 193.496L612.29 176.707ZM638.989 168.391L638.575 171.725C639.468 170.443 640.513 169.512 641.708 168.929C642.924 168.33 644.29 168.081 645.808 168.182C647.71 168.308 649.235 168.859 650.383 169.835C651.531 170.811 652.233 171.996 652.489 173.391C652.747 174.767 652.771 177.047 652.56 180.229L650.87 205.741L639.787 205.007L641.457 179.796C641.623 177.291 641.642 175.758 641.514 175.199C641.385 174.639 640.946 174.334 640.196 174.285C639.41 174.233 638.895 174.52 638.651 175.147C638.409 175.755 638.197 177.431 638.015 180.174L636.385 204.782L625.302 204.048L627.714 167.644L638.989 168.391ZM691.279 184.695L690.689 193.611C690.472 196.884 690.148 199.278 689.717 200.793C689.287 202.289 688.489 203.669 687.321 204.932C686.155 206.178 684.7 207.064 682.957 207.591C681.233 208.102 679.274 208.284 677.079 208.139C674.629 207.976 672.571 207.574 670.905 206.931C669.24 206.269 667.968 205.368 667.089 204.226C666.229 203.067 665.648 201.706 665.348 200.143C665.049 198.562 665.001 196.226 665.206 193.135L665.824 183.808C666.048 180.424 666.589 177.806 667.446 175.952C668.304 174.099 669.722 172.659 671.7 171.633C673.679 170.606 676.149 170.191 679.112 170.388C681.599 170.553 683.705 171.069 685.429 171.936C687.173 172.786 688.49 173.838 689.381 175.091C690.271 176.344 690.848 177.613 691.112 178.898C691.395 180.184 691.45 182.116 691.279 184.695ZM680.378 181.217C680.502 179.352 680.479 178.175 680.309 177.686C680.141 177.179 679.727 176.904 679.069 176.86C678.41 176.816 677.955 177.034 677.703 177.513C677.452 177.974 677.265 179.138 677.141 181.003L676.053 197.435C675.939 199.154 675.974 200.286 676.158 200.831C676.344 201.358 676.757 201.642 677.397 201.685C678.055 201.728 678.501 201.519 678.733 201.057C678.984 200.596 679.162 199.579 679.266 198.006L680.378 181.217ZM710.461 165.08L710.088 170.704C707.802 170.552 706.442 170.573 706.006 170.764C705.591 170.939 705.35 171.52 705.285 172.507L705.208 173.659L709.872 173.968L709.49 179.729L706.857 179.555L704.885 209.319L693.802 208.585L695.774 178.821L693.497 178.67L693.879 172.909L696.156 173.06C696.314 170.664 696.503 169.069 696.72 168.275C696.938 167.482 697.388 166.795 698.069 166.216C698.77 165.619 699.717 165.195 700.909 164.943C702.101 164.692 703.932 164.648 706.401 164.811L710.461 165.08ZM734.382 166.665L731.44 211.079L719.891 210.314L722.833 165.9L734.382 166.665ZM749.433 175.707L749.02 179.042C749.913 177.76 750.957 176.828 752.153 176.246C753.368 175.647 754.735 175.397 756.253 175.498C758.155 175.624 759.68 176.175 760.827 177.151C761.975 178.127 762.677 179.313 762.934 180.707C763.192 182.084 763.215 184.363 763.004 187.545L761.314 213.058L750.232 212.323L751.902 187.113C752.068 184.607 752.086 183.075 751.958 182.515C751.83 181.955 751.391 181.651 750.641 181.601C749.855 181.549 749.34 181.836 749.096 182.463C748.854 183.072 748.642 184.748 748.46 187.491L746.83 212.098L735.747 211.364L738.159 174.961L749.433 175.707ZM778.841 177.656L778.428 180.99C779.321 179.708 780.365 178.776 781.561 178.194C782.776 177.595 784.143 177.345 785.661 177.446C787.563 177.572 789.088 178.123 790.236 179.099C791.383 180.075 792.085 181.261 792.342 182.655C792.6 184.032 792.623 186.311 792.413 189.493L790.722 215.006L779.64 214.272L781.31 189.061C781.476 186.555 781.494 185.023 781.366 184.463C781.238 183.904 780.799 183.599 780.049 183.549C779.263 183.497 778.748 183.785 778.504 184.411C778.262 185.02 778.05 186.696 777.868 189.439L776.238 214.046L765.155 213.312L767.567 176.909L778.841 177.656ZM821.201 193.301L820.611 202.217C820.394 205.491 820.07 207.885 819.639 209.399C819.209 210.895 818.411 212.275 817.243 213.539C816.077 214.784 814.622 215.671 812.879 216.198C811.155 216.708 809.196 216.891 807.001 216.745C804.551 216.583 802.493 216.18 800.827 215.537C799.162 214.876 797.89 213.974 797.011 212.832C796.151 211.673 795.57 210.312 795.27 208.749C794.971 207.168 794.923 204.832 795.128 201.741L795.746 192.414C795.97 189.031 796.511 186.412 797.368 184.559C798.226 182.705 799.644 181.265 801.622 180.239C803.6 179.213 806.071 178.798 809.034 178.994C811.521 179.159 813.627 179.675 815.351 180.543C817.095 181.393 818.412 182.444 819.303 183.697C820.193 184.95 820.77 186.219 821.034 187.504C821.316 188.79 821.372 190.723 821.201 193.301ZM810.3 189.824C810.424 187.959 810.401 186.781 810.231 186.293C810.063 185.786 809.649 185.51 808.991 185.467C808.332 185.423 807.877 185.641 807.625 186.12C807.374 186.581 807.187 187.744 807.063 189.61L805.975 206.042C805.861 207.761 805.896 208.893 806.08 209.438C806.266 209.965 806.679 210.249 807.319 210.291C807.977 210.335 808.423 210.126 808.655 209.664C808.906 209.203 809.084 208.186 809.188 206.613L810.3 189.824ZM848.631 182.279L841.034 218.339L826.577 217.381L823.42 180.609L833.323 181.265L834.664 208.025C835.03 206.102 835.747 201.374 836.816 193.84C837.425 189.637 838.062 185.565 838.727 181.623L848.631 182.279ZM859.273 197.146L848.876 196.457L849.038 194.016C849.224 191.199 849.688 189.053 850.429 187.578C851.189 186.085 852.586 184.819 854.621 183.778C856.655 182.737 859.236 182.32 862.363 182.527C866.112 182.776 868.894 183.63 870.707 185.091C872.522 186.534 873.557 188.237 873.813 190.202C874.07 192.147 873.999 196.129 873.6 202.146L872.39 220.416L861.609 219.702L861.823 216.465C861.061 217.718 860.118 218.638 858.995 219.225C857.892 219.795 856.6 220.031 855.119 219.933C853.18 219.805 851.433 219.147 849.876 217.96C848.34 216.756 847.693 214.316 847.937 210.64L848.135 207.65C848.315 204.925 848.868 203.097 849.793 202.167C850.718 201.236 852.925 200.225 856.414 199.133C860.148 197.948 862.159 197.117 862.448 196.64C862.737 196.163 862.931 195.166 863.032 193.648C863.158 191.746 863.093 190.502 862.838 189.915C862.603 189.312 862.156 188.988 861.497 188.945C860.747 188.895 860.265 189.111 860.049 189.593C859.835 190.056 859.66 191.303 859.526 193.333L859.273 197.146ZM862.454 202.371C860.594 203.552 859.488 204.572 859.138 205.431C858.805 206.29 858.584 207.543 858.475 209.189C858.351 211.073 858.389 212.297 858.59 212.861C858.81 213.427 859.286 213.734 860.017 213.782C860.712 213.828 861.174 213.648 861.403 213.241C861.652 212.816 861.837 211.69 861.958 209.861L862.454 202.371ZM890.623 180.184L890.243 185.917L893.233 186.115L892.852 191.876L889.861 191.678L888.571 211.155C888.412 213.551 888.443 214.894 888.662 215.184C888.9 215.475 889.924 215.681 891.735 215.801L891.346 221.672L886.875 221.375C884.351 221.208 882.556 220.988 881.49 220.716C880.426 220.425 879.507 219.877 878.734 219.073C877.961 218.25 877.507 217.347 877.37 216.365C877.234 215.364 877.286 213.053 877.526 209.432L878.751 190.942L876.364 190.784L876.746 185.023L879.133 185.181L879.512 179.448L890.623 180.184ZM907.675 178.145L907.292 183.933L895.88 183.177L896.263 177.389L907.675 178.145ZM907.145 186.155L904.733 222.558L893.321 221.802L895.733 185.399L907.145 186.155ZM935.377 200.865L934.786 209.781C934.569 213.054 934.245 215.448 933.814 216.963C933.385 218.459 932.586 219.839 931.419 221.102C930.252 222.348 928.798 223.234 927.054 223.761C925.331 224.272 923.371 224.454 921.177 224.309C918.726 224.147 916.668 223.744 915.002 223.101C913.338 222.44 912.066 221.538 911.186 220.396C910.326 219.237 909.746 217.876 909.445 216.313C909.146 214.732 909.099 212.396 909.303 209.305L909.921 199.978C910.145 196.594 910.686 193.976 911.544 192.122C912.401 190.269 913.819 188.829 915.798 187.803C917.776 186.777 920.246 186.362 923.209 186.558C925.696 186.723 927.802 187.239 929.527 188.106C931.27 188.956 932.588 190.008 933.478 191.261C934.369 192.514 934.946 193.783 935.21 195.068C935.492 196.354 935.548 198.286 935.377 200.865ZM924.476 197.388C924.599 195.522 924.576 194.345 924.407 193.856C924.238 193.349 923.825 193.074 923.166 193.03C922.508 192.986 922.053 193.204 921.8 193.684C921.549 194.144 921.362 195.308 921.239 197.173L920.15 213.605C920.036 215.325 920.071 216.457 920.256 217.001C920.441 217.528 920.854 217.813 921.494 217.855C922.153 217.899 922.598 217.689 922.831 217.227C923.082 216.766 923.259 215.749 923.363 214.176L924.476 197.388ZM951.175 189.072L950.761 192.406C951.654 191.124 952.698 190.192 953.894 189.61C955.11 189.011 956.476 188.762 957.994 188.862C959.896 188.988 961.421 189.539 962.569 190.515C963.716 191.491 964.419 192.677 964.675 194.071C964.933 195.448 964.956 197.727 964.746 200.909L963.056 226.422L951.973 225.688L953.643 200.477C953.809 197.971 953.828 196.439 953.699 195.879C953.571 195.32 953.132 195.015 952.382 194.965C951.596 194.913 951.081 195.201 950.837 195.827C950.595 196.436 950.383 198.112 950.201 200.855L948.571 225.462L937.488 224.728L939.9 188.325L951.175 189.072Z" fill="white" style="fill:white;fill-opacity:1;"/>
<rect x="7.2998" y="88.4092" width="7.23069" height="7.23069" transform="rotate(3.79 7.2998 88.4092)" fill="white" stroke="#0D99FF" style="fill:white;fill-opacity:1;stroke:#0D99FF;stroke:color(display-p3 0.0510 0.6000 1.0000);stroke-opacity:1;" stroke-width="0.769312"/>
<rect x="0.887686" y="185.197" width="7.23069" height="7.23069" transform="rotate(3.79 0.887686 185.197)" fill="white" stroke="#0D99FF" style="fill:white;fill-opacity:1;stroke:#0D99FF;stroke:color(display-p3 0.0510 0.6000 1.0000);stroke-opacity:1;" stroke-width="0.769312"/>
<rect x="988.724" y="250.636" width="7.23069" height="7.23069" transform="rotate(3.79 988.724 250.636)" fill="white" stroke="#0D99FF" style="fill:white;fill-opacity:1;stroke:#0D99FF;stroke:color(display-p3 0.0510 0.6000 1.0000);stroke-opacity:1;" stroke-width="0.769312"/>
<rect x="995.136" y="153.848" width="7.23069" height="7.23069" transform="rotate(3.79 995.136 153.848)" fill="white" stroke="#0D99FF" style="fill:white;fill-opacity:1;stroke:#0D99FF;stroke:color(display-p3 0.0510 0.6000 1.0000);stroke-opacity:1;" stroke-width="0.769312"/>
</svg>
