<svg width="100" height="100" viewBox="0 0 100 100" fill="none" xmlns="http://www.w3.org/2000/svg">
<path d="M25.2272 28.4685L25.6111 27.9677L25.1102 27.5838L23.106 26.0479L22.6051 25.6641L22.2213 26.1648C21.3961 27.2415 20.6638 28.3863 20.0321 29.5868L19.7383 30.1451L20.2967 30.4391L22.5293 31.6141L23.0871 31.9076L23.3813 31.35C23.9145 30.3395 24.532 29.3755 25.2272 28.4685Z" fill="white" stroke="#26BDE2" stroke-width="1.26206"/>
<path d="M24.952 23.1601L24.4902 23.5901L24.9202 24.0519L26.6391 25.8983L27.069 26.3602L27.5309 25.9302C28.3686 25.1505 29.2697 24.4419 30.2251 23.8117L30.7513 23.4646L30.4045 22.9379L29.0162 20.8302L28.6688 20.3027L28.1416 20.6507C27.0106 21.3973 25.9438 22.2366 24.952 23.1601Z" fill="white" stroke="#26BDE2" stroke-width="1.26206"/>
<path d="M30.115 60.54L29.8394 59.9727L29.272 60.2479L27.0003 61.3497L26.4336 61.6246L26.7073 62.1919C27.2295 63.2731 27.7003 64.3728 28.0961 65.4622L28.3118 66.0561L28.9053 65.8396L31.2768 64.9751L31.8701 64.7589L31.6534 64.1657C31.2024 62.9318 30.689 61.7216 30.115 60.54Z" fill="white" stroke="#26BDE2" stroke-width="1.26206"/>
<path d="M21.0839 41.2444L21.0676 40.6133L20.4364 40.6299L17.9123 40.6968L17.2812 40.7136L17.2982 41.3446C17.3346 42.7006 17.4855 44.051 17.7492 45.3816L17.872 46.001L18.4913 45.8779L20.9662 45.3856L21.5847 45.2627L21.462 44.6441C21.24 43.5236 21.1135 42.3864 21.0839 41.2444Z" fill="white" stroke="#26BDE2" stroke-width="1.26206"/>
<path d="M19.2399 48.4725L18.6504 48.6995L18.878 49.2888C19.3667 50.5542 19.9621 51.7757 20.6577 52.9402L20.9808 53.4812L21.5222 53.159L23.6892 51.8691L24.2324 51.5458L23.908 51.0031C23.3219 50.0225 22.8205 48.9938 22.4091 47.9281L22.182 47.3398L21.5937 47.5664L19.2399 48.4725Z" fill="white" stroke="#26BDE2" stroke-width="1.26206"/>
<path d="M17.5301 37.29L17.4395 37.9152L18.0647 38.0052L20.5649 38.3649L21.1901 38.4549L21.2794 37.8295C21.4409 36.7 21.6992 35.5863 22.0514 34.501L22.246 33.9008L21.646 33.706L19.2481 32.9273L18.6481 32.7324L18.4531 33.3324C18.0336 34.623 17.7248 35.947 17.5301 37.29Z" fill="white" stroke="#26BDE2" stroke-width="1.26206"/>
<path d="M32.3952 21.8486L32.6505 22.4248L33.227 22.1703C34.274 21.7081 35.3573 21.3328 36.4659 21.0481L37.0779 20.891L36.92 20.2792L36.289 17.8346L36.1315 17.2246L35.5213 17.381C34.211 17.7169 32.9309 18.1611 31.6942 18.709L31.1172 18.9646L31.3729 19.5416L32.3952 21.8486Z" fill="white" stroke="#26BDE2" stroke-width="1.26206"/>
<path d="M25.9406 53.8205L25.5433 53.3262L25.051 53.7259L23.0922 55.3161L22.6055 55.7112L22.9975 56.2005C23.7281 57.1122 24.3997 58.0695 25.0086 59.0665L25.339 59.6077L25.8785 59.2748L28.024 57.9509L28.5577 57.6215L28.2316 57.0857C27.5396 55.9487 26.7743 54.8581 25.9406 53.8205Z" fill="white" stroke="#26BDE2" stroke-width="1.26206"/>
<path d="M32.7775 79.7246H32.1465V80.3556V82.8798V83.5108H32.7775H50.4464H51.0774V82.8798V80.3556V79.7246H50.4464H32.7775Z" fill="white" stroke="#26BDE2" stroke-width="1.26206"/>
<path d="M35.301 84.7715H34.6699V85.4025V87.9266V88.5577H35.301H47.9216H48.5526V87.9266V85.4025V84.7715H47.9216H35.301Z" fill="white" stroke="#26BDE2" stroke-width="1.26206"/>
<path d="M80.7371 28.7109V25.9849C80.7328 25.3033 80.4587 24.6512 79.9747 24.1714C79.4908 23.6914 78.8365 23.4227 78.1549 23.4241C77.9072 22.6631 77.6091 21.9193 77.2627 21.1978C77.4999 20.9618 77.6882 20.6811 77.8167 20.3721C77.9452 20.063 78.0113 19.7316 78.0113 19.3969C78.0113 19.0622 77.9452 18.7308 77.8167 18.4217C77.6882 18.1126 77.4999 17.832 77.2627 17.5959L75.3456 15.6788C74.8582 15.2016 74.2041 14.9327 73.5219 14.9292C72.8365 14.9353 72.1802 15.2067 71.6907 15.6864C70.9849 15.3241 70.2544 15.012 69.5048 14.7525C69.5038 14.0767 69.2348 13.4288 68.757 12.9509C68.2791 12.473 67.6312 12.2041 66.9554 12.2031H64.2293C63.8927 12.2032 63.5597 12.2704 63.2494 12.4008C62.9391 12.5312 62.6579 12.7221 62.4223 12.9624C62.1867 13.2027 62.0014 13.4876 61.8772 13.8004C61.7529 14.1132 61.6923 14.4476 61.6989 14.784C60.9266 15.0286 60.1727 15.3272 59.4423 15.6776C58.9578 15.2131 58.3125 14.9537 57.6414 14.9537C56.9702 14.9537 56.3249 15.2131 55.8404 15.6776L53.9233 17.5947C53.6827 17.833 53.4923 18.1172 53.3636 18.4305C53.2348 18.7437 53.1703 19.0797 53.1737 19.4183C53.1778 19.7356 53.2393 20.0494 53.3554 20.3447C50.5733 18.7559 47.4955 17.7535 44.3115 17.399C43.4154 17.3007 42.5147 17.2514 41.6132 17.2514C40.9401 17.2514 40.2745 17.2787 39.6166 17.3334L39.8261 19.8487C40.4151 19.7999 41.0108 19.7755 41.6132 19.7755C42.4223 19.7755 43.2308 19.8198 44.0351 19.908C48.7875 20.4309 53.2207 22.5547 56.6065 25.9305C59.9922 29.3064 62.1289 33.7334 62.6656 38.4843C62.9709 41.2836 62.701 44.1155 61.8723 46.8066C61.0438 49.4979 59.6739 51.9912 57.8471 54.1339C54.1287 58.8112 51.6684 64.3618 50.7 70.258H46.6614V48.803H47.9235V50.065C47.9235 50.3997 48.0565 50.7208 48.2931 50.9574C48.5298 51.1941 48.8508 51.3271 49.1855 51.3271H54.2338C54.5685 51.3271 54.8896 51.1941 55.1262 50.9574C55.3628 50.7208 55.4959 50.3997 55.4959 50.065V45.0168C55.4959 44.6821 55.3628 44.361 55.1262 44.1244C54.8896 43.8877 54.5685 43.7547 54.2338 43.7547H49.1855C48.8508 43.7547 48.5298 43.8877 48.2931 44.1244C48.0565 44.361 47.9235 44.6821 47.9235 45.0168V46.2788H45.3994C45.0647 46.2788 44.7436 46.4119 44.507 46.6485C44.2703 46.8851 44.1373 47.2062 44.1373 47.5409V70.258H42.8752V39.9685C42.8752 39.6338 42.7422 39.3127 42.5056 39.0761C42.2689 38.8395 41.9479 38.7065 41.6132 38.7065H39.089V37.4444C39.089 37.1097 38.956 36.7886 38.7194 36.552C38.4827 36.3153 38.1617 36.1823 37.827 36.1823H32.7787C32.444 36.1823 32.123 36.3153 31.8863 36.552C31.6497 36.7886 31.5167 37.1097 31.5167 37.4444V42.4926C31.5167 42.8273 31.6497 43.1484 31.8863 43.385C32.123 43.6217 32.444 43.7547 32.7787 43.7547H37.827C38.1617 43.7547 38.4827 43.6217 38.7194 43.385C38.956 43.1484 39.089 42.8273 39.089 42.4926V41.2306H40.3511V70.258H39.089V51.3271C39.089 50.9924 38.956 50.6713 38.7194 50.4347C38.4827 50.198 38.1617 50.065 37.827 50.065H35.3028V48.803C35.3028 48.4683 35.1698 48.1472 34.9332 47.9106C34.6966 47.6739 34.3755 47.5409 34.0408 47.5409H28.9925C28.6578 47.5409 28.3368 47.6739 28.1001 47.9106C27.8635 48.1472 27.7305 48.4683 27.7305 48.803V53.8512C27.7305 54.1859 27.8635 54.507 28.1001 54.7436C28.3368 54.9803 28.6578 55.1133 28.9925 55.1133H34.0408C34.3755 55.1133 34.6966 54.9803 34.9332 54.7436C35.1698 54.507 35.3028 54.1859 35.3028 53.8512V52.5891H36.5649V70.258H32.5869C32.5781 70.1949 32.5755 70.1318 32.5654 70.0738L31.3173 70.258L32.5654 70.0713C32.4695 69.4301 32.3433 68.7751 32.1868 68.1125L29.7296 68.6868C29.8668 69.2808 29.9795 69.8668 30.0678 70.4448C30.1864 71.2183 30.2489 71.9996 30.2546 72.7822V76.5684C30.2546 76.9031 30.3876 77.2241 30.6243 77.4608C30.8609 77.6974 31.182 77.8304 31.5167 77.8304H51.7097C52.0444 77.8304 52.3654 77.6974 52.6021 77.4608C52.8387 77.2241 52.9717 76.9031 52.9717 76.5684V72.8364C53.5225 66.6034 55.8874 60.6682 59.7743 55.7645C62.95 52.0299 64.8551 47.3818 65.2138 42.4926H66.9554C67.6369 42.4884 68.289 42.2142 68.7689 41.7302C69.2488 41.2464 69.5175 40.592 69.5161 39.9105C70.2772 39.6627 71.0209 39.3646 71.7424 39.0182C72.2272 39.4821 72.8723 39.7411 73.5434 39.7411C74.2144 39.7411 74.8596 39.4821 75.3443 39.0182L77.2614 37.1011C77.5021 36.8628 77.6924 36.5785 77.8211 36.2652C77.95 35.952 78.0145 35.6162 78.0111 35.2774C78.0049 34.592 77.7335 33.9357 77.2538 33.4462C77.6149 32.7398 77.9269 32.0094 78.1878 31.2603C78.8636 31.2593 79.5114 30.9903 79.9894 30.5125C80.4672 30.0346 80.7361 29.3867 80.7371 28.7109ZM50.4476 46.2788H52.9717V48.803H50.4476V46.2788ZM36.5649 41.2306H34.0408V38.7065H36.5649V41.2306ZM32.7787 52.5891H30.2546V50.065H32.7787V52.5891ZM50.4476 75.3063H32.7787V72.7822H50.4476V75.3063ZM59.5963 25.4548C59.948 24.3449 60.6004 23.3542 61.4811 22.5927C62.3616 21.831 63.4361 21.3284 64.5851 21.1404C65.7341 20.9525 66.9126 21.0865 67.99 21.5278C69.0675 21.9691 70.0015 22.7003 70.6886 23.6402C71.3756 24.5802 71.7887 25.6922 71.8821 26.8527C71.9755 28.0131 71.7454 29.1769 71.2176 30.2145C70.6897 31.2523 69.8846 32.1234 68.8917 32.7313C67.8987 33.3392 66.7566 33.66 65.5924 33.6582C65.1009 33.6525 64.6119 33.5878 64.1359 33.4651C63.1686 30.5205 61.6255 27.7976 59.5963 25.4548ZM75.7507 30.503C75.5614 31.1126 75.3177 31.7039 75.0225 32.2699C74.826 32.6359 74.7228 33.0447 74.7221 33.4601C74.7301 34.1529 75.0008 34.8169 75.4794 35.3178L73.5282 37.2374C73.1439 36.8481 72.6447 36.5924 72.1041 36.5083C71.5634 36.4243 71.0102 36.5161 70.5258 36.7704C69.9642 37.0639 69.3786 37.3087 68.7753 37.5024C68.2518 37.6709 67.7944 37.9996 67.4678 38.4422C67.1413 38.8847 66.9621 39.4186 66.9554 39.9685H65.2693C65.2516 39.388 65.2352 38.8074 65.1746 38.2231C65.1002 37.5125 64.9904 36.8121 64.8515 36.1217C65.1039 36.1419 65.3412 36.1823 65.5924 36.1823C67.172 36.189 68.7244 35.772 70.0881 34.9749C71.4519 34.1777 72.5769 33.0294 73.346 31.6498C74.1152 30.2701 74.5004 28.7094 74.4614 27.1303C74.4225 25.5511 73.9609 24.0114 73.1247 22.6712C72.2885 21.3311 71.1083 20.2397 69.7069 19.5107C68.3057 18.7817 66.7345 18.4417 65.1572 18.5262C63.5798 18.6107 62.0539 19.1165 60.7386 19.9911C59.4232 20.8656 58.3663 22.0768 57.678 23.4986C57.211 23.0711 56.7276 22.6622 56.2279 22.2719C56.3803 21.9487 56.462 21.5968 56.4677 21.2395C56.4597 20.5467 56.189 19.8827 55.7104 19.3817L57.6616 17.4621C58.0459 17.8515 58.5451 18.1071 59.0857 18.1912C59.6263 18.2753 60.1796 18.1834 60.664 17.9291C61.2356 17.6312 61.8329 17.3854 62.4486 17.1946C62.9663 17.0213 63.4164 16.6901 63.736 16.2474C64.0554 15.8048 64.228 15.2731 64.2293 14.7273L66.9806 14.7525C66.9798 15.2955 67.1518 15.8248 67.4717 16.2636C67.7916 16.7024 68.2428 17.028 68.7601 17.1933C69.3635 17.3855 69.9493 17.6296 70.5106 17.9228C71.0042 18.1692 71.5619 18.2571 72.1074 18.1747C72.653 18.0922 73.1597 17.8434 73.5585 17.4621L75.4781 19.4133C75.0888 19.7976 74.8331 20.2968 74.749 20.8374C74.665 21.378 74.7568 21.9313 75.0112 22.4157C75.3046 22.9774 75.5494 23.563 75.7431 24.1662C75.912 24.6901 76.2414 25.1476 76.6846 25.474C77.1279 25.8003 77.6626 25.9791 78.213 25.9849L78.1625 28.7362C77.6244 28.7364 77.1002 28.9077 76.6658 29.2253C76.2314 29.5429 75.9091 29.9904 75.7457 30.503H75.7507Z" fill="white"/>
<mask id="mask0_387_98" style="mask-type:luminance" maskUnits="userSpaceOnUse" x="26" y="10" width="57" height="70">
<path d="M82.0015 10.9414H26.4707V79.0928H82.0015V10.9414Z" fill="white"/>
<path d="M80.7391 28.7109V25.9849C80.7348 25.3033 80.4607 24.6512 79.9767 24.1714C79.4928 23.6914 78.8384 23.4227 78.1569 23.4241C77.9092 22.6631 77.6111 21.9193 77.2646 21.1978C77.5019 20.9618 77.6902 20.6811 77.8187 20.3721C77.9471 20.063 78.0133 19.7316 78.0133 19.3969C78.0133 19.0622 77.9471 18.7308 77.8187 18.4217C77.6902 18.1126 77.5019 17.832 77.2646 17.5959L75.3476 15.6788C74.8601 15.2016 74.206 14.9327 73.5239 14.9292C72.8384 14.9353 72.1822 15.2067 71.6926 15.6864C70.9869 15.3241 70.2564 15.012 69.5067 14.7525C69.5057 14.0767 69.2368 13.4288 68.7589 12.9509C68.281 12.473 67.6332 12.2041 66.9574 12.2031H64.2313C63.8947 12.2032 63.5616 12.2704 63.2513 12.4008C62.9411 12.5312 62.6599 12.7221 62.4243 12.9624C62.1886 13.2027 62.0034 13.4876 61.8792 13.8004C61.7549 14.1132 61.6943 14.4476 61.7009 14.784C60.9286 15.0286 60.1746 15.3272 59.4443 15.6776C58.9598 15.2131 58.3145 14.9537 57.6433 14.9537C56.9722 14.9537 56.3269 15.2131 55.8424 15.6776L53.9253 17.5947C53.6846 17.833 53.4943 18.1172 53.3656 18.4305C53.2367 18.7437 53.1722 19.0797 53.1756 19.4183C53.1798 19.7356 53.2412 20.0494 53.3574 20.3447C50.5753 18.7559 47.4975 17.7535 44.3134 17.399C43.4173 17.3007 42.5166 17.2514 41.6151 17.2514C40.9421 17.2514 40.2764 17.2787 39.6185 17.3334L39.828 19.8487C40.417 19.7999 41.0127 19.7755 41.6151 19.7755C42.4242 19.7755 43.2327 19.8198 44.037 19.908C48.7894 20.4309 53.2227 22.5547 56.6084 25.9305C59.9942 29.3064 62.1308 33.7334 62.6676 38.4843C62.9729 41.2836 62.7029 44.1155 61.8743 46.8066C61.0457 49.4979 59.6759 51.9912 57.849 54.1339C54.1306 58.8112 51.6704 64.3618 50.702 70.258H46.6634V48.803H47.9254V50.065C47.9254 50.3997 48.0585 50.7208 48.2951 50.9574C48.5317 51.1941 48.8528 51.3271 49.1875 51.3271H54.2358C54.5705 51.3271 54.8915 51.1941 55.1282 50.9574C55.3648 50.7208 55.4978 50.3997 55.4978 50.065V45.0168C55.4978 44.6821 55.3648 44.361 55.1282 44.1244C54.8915 43.8877 54.5705 43.7547 54.2358 43.7547H49.1875C48.8528 43.7547 48.5317 43.8877 48.2951 44.1244C48.0585 44.361 47.9254 44.6821 47.9254 45.0168V46.2788H45.4013C45.0666 46.2788 44.7455 46.4119 44.5089 46.6485C44.2723 46.8851 44.1392 47.2062 44.1392 47.5409V70.258H42.8772V39.9685C42.8772 39.6338 42.7442 39.3127 42.5075 39.0761C42.2709 38.8395 41.9498 38.7065 41.6151 38.7065H39.091V37.4444C39.091 37.1097 38.958 36.7886 38.7213 36.552C38.4847 36.3153 38.1636 36.1823 37.8289 36.1823H32.7807C32.446 36.1823 32.1249 36.3153 31.8883 36.552C31.6516 36.7886 31.5186 37.1097 31.5186 37.4444V42.4926C31.5186 42.8273 31.6516 43.1484 31.8883 43.385C32.1249 43.6217 32.446 43.7547 32.7807 43.7547H37.8289C38.1636 43.7547 38.4847 43.6217 38.7213 43.385C38.958 43.1484 39.091 42.8273 39.091 42.4926V41.2306H40.3531V70.258H39.091V51.3271C39.091 50.9924 38.958 50.6713 38.7213 50.4347C38.4847 50.198 38.1636 50.065 37.8289 50.065H35.3048V48.803C35.3048 48.4683 35.1718 48.1472 34.9351 47.9106C34.6985 47.6739 34.3774 47.5409 34.0427 47.5409H28.9945C28.6598 47.5409 28.3387 47.6739 28.1021 47.9106C27.8654 48.1472 27.7324 48.4683 27.7324 48.803V53.8512C27.7324 54.1859 27.8654 54.507 28.1021 54.7436C28.3387 54.9803 28.6598 55.1133 28.9945 55.1133H34.0427C34.3774 55.1133 34.6985 54.9803 34.9351 54.7436C35.1718 54.507 35.3048 54.1859 35.3048 53.8512V52.5891H36.5669V70.258H32.5888C32.58 70.1949 32.5775 70.1318 32.5674 70.0738L31.3192 70.258L32.5674 70.0713C32.4715 69.4301 32.3453 68.7751 32.1888 68.1125L29.7315 68.6868C29.8687 69.2808 29.9814 69.8668 30.0698 70.4448C30.1884 71.2183 30.2509 71.9996 30.2565 72.7822V76.5684C30.2565 76.9031 30.3896 77.2241 30.6262 77.4608C30.8628 77.6974 31.1839 77.8304 31.5186 77.8304H51.7116C52.0463 77.8304 52.3674 77.6974 52.604 77.4608C52.8407 77.2241 52.9737 76.9031 52.9737 76.5684V72.8364C53.5245 66.6034 55.8893 60.6682 59.7762 55.7645C62.9519 52.0299 64.857 47.3818 65.2157 42.4926H66.9574C67.6389 42.4884 68.291 42.2142 68.7708 41.7302C69.2508 41.2464 69.5195 40.592 69.5181 39.9105C70.2791 39.6627 71.0228 39.3646 71.7444 39.0182C72.2291 39.4821 72.8743 39.7411 73.5453 39.7411C74.2164 39.7411 74.8615 39.4821 75.3463 39.0182L77.2634 37.1011C77.504 36.8628 77.6944 36.5785 77.8231 36.2652C77.9519 35.952 78.0164 35.6162 78.013 35.2774C78.0068 34.592 77.7355 33.9357 77.2558 33.4462C77.6169 32.7398 77.9288 32.0094 78.1897 31.2603C78.8656 31.2593 79.5134 30.9903 79.9913 30.5125C80.4691 30.0346 80.7381 29.3867 80.7391 28.7109ZM50.4496 46.2788H52.9737V48.803H50.4496V46.2788ZM36.5669 41.2306H34.0427V38.7065H36.5669V41.2306ZM32.7807 52.5891H30.2565V50.065H32.7807V52.5891ZM50.4496 75.3063H32.7807V72.7822H50.4496V75.3063ZM59.5983 25.4548C59.95 24.3449 60.6024 23.3542 61.483 22.5927C62.3636 21.831 63.4381 21.3284 64.5871 21.1404C65.7361 20.9525 66.9146 21.0865 67.992 21.5278C69.0694 21.9691 70.0035 22.7003 70.6905 23.6402C71.3776 24.5802 71.7907 25.6922 71.8841 26.8527C71.9775 28.0131 71.7474 29.1769 71.2196 30.2145C70.6917 31.2523 69.8866 32.1234 68.8936 32.7313C67.9006 33.3392 66.7586 33.66 65.5943 33.6582C65.1029 33.6525 64.6138 33.5878 64.1379 33.4651C63.1705 30.5205 61.6274 27.7976 59.5983 25.4548ZM75.7527 30.503C75.5634 31.1126 75.3197 31.7039 75.0245 32.2699C74.828 32.6359 74.7247 33.0447 74.7241 33.4601C74.732 34.1529 75.0028 34.8169 75.4813 35.3178L73.5302 37.2374C73.1459 36.8481 72.6466 36.5924 72.1061 36.5083C71.5654 36.4243 71.0121 36.5161 70.5277 36.7704C69.9661 37.0639 69.3805 37.3087 68.7772 37.5024C68.2537 37.6709 67.7964 37.9996 67.4697 38.4422C67.1433 38.8847 66.964 39.4186 66.9574 39.9685H65.2712C65.2536 39.388 65.2372 38.8074 65.1766 38.2231C65.1021 37.5125 64.9923 36.8121 64.8535 36.1217C65.1059 36.1419 65.3432 36.1823 65.5943 36.1823C67.1739 36.189 68.7264 35.772 70.09 34.9749C71.4538 34.1777 72.5788 33.0294 73.3479 31.6498C74.1172 30.2701 74.5023 28.7094 74.4633 27.1303C74.4245 25.5511 73.9628 24.0114 73.1267 22.6712C72.2905 21.3311 71.1103 20.2397 69.7089 19.5107C68.3076 18.7817 66.7365 18.4417 65.1592 18.5262C63.5817 18.6107 62.0559 19.1165 60.7406 19.9911C59.4251 20.8656 58.3683 22.0768 57.6799 23.4986C57.213 23.0711 56.7296 22.6622 56.2298 22.2719C56.3823 21.9487 56.4639 21.5968 56.4696 21.2395C56.4617 20.5467 56.1909 19.8827 55.7124 19.3817L57.6635 17.4621C58.0478 17.8515 58.5471 18.1071 59.0876 18.1912C59.6283 18.2753 60.1816 18.1834 60.666 17.9291C61.2376 17.6312 61.8349 17.3854 62.4505 17.1946C62.9682 17.0213 63.4184 16.6901 63.738 16.2474C64.0574 15.8048 64.2299 15.2731 64.2313 14.7273L66.9826 14.7525C66.9817 15.2955 67.1537 15.8248 67.4737 16.2636C67.7936 16.7024 68.2448 17.028 68.7621 17.1933C69.3655 17.3855 69.9512 17.6296 70.5126 17.9228C71.0062 18.1692 71.5639 18.2571 72.1093 18.1747C72.6549 18.0922 73.1617 17.8434 73.5605 17.4621L75.4801 19.4133C75.0907 19.7976 74.835 20.2968 74.751 20.8374C74.6669 21.378 74.7588 21.9313 75.0131 22.4157C75.3065 22.9774 75.5514 23.563 75.7451 24.1662C75.914 24.6901 76.2434 25.1476 76.6866 25.474C77.1298 25.8003 77.6646 25.9791 78.215 25.9849L78.1645 28.7362C77.6263 28.7364 77.1022 28.9077 76.6678 29.2253C76.2334 29.5429 75.9111 29.9904 75.7476 30.503H75.7527Z" fill="black"/>
</mask>
<g mask="url(#mask0_387_98)">
<path d="M80.7391 28.7109V25.9849C80.7348 25.3033 80.4607 24.6512 79.9767 24.1714C79.4928 23.6914 78.8384 23.4227 78.1569 23.4241C77.9092 22.6631 77.6111 21.9193 77.2646 21.1978C77.5019 20.9618 77.6902 20.6811 77.8187 20.3721C77.9471 20.063 78.0133 19.7316 78.0133 19.3969C78.0133 19.0622 77.9471 18.7308 77.8187 18.4217C77.6902 18.1126 77.5019 17.832 77.2646 17.5959L75.3476 15.6788C74.8601 15.2016 74.206 14.9327 73.5239 14.9292C72.8384 14.9353 72.1822 15.2067 71.6926 15.6864C70.9869 15.3241 70.2564 15.012 69.5067 14.7525C69.5057 14.0767 69.2368 13.4288 68.7589 12.9509C68.281 12.473 67.6332 12.2041 66.9574 12.2031H64.2313C63.8947 12.2032 63.5616 12.2704 63.2513 12.4008C62.9411 12.5312 62.6599 12.7221 62.4243 12.9624C62.1886 13.2027 62.0034 13.4876 61.8792 13.8004C61.7549 14.1132 61.6943 14.4476 61.7009 14.784C60.9286 15.0286 60.1746 15.3272 59.4443 15.6776C58.9598 15.2131 58.3145 14.9537 57.6433 14.9537C56.9722 14.9537 56.3269 15.2131 55.8424 15.6776L53.9253 17.5947C53.6846 17.833 53.4943 18.1172 53.3656 18.4305C53.2367 18.7437 53.1722 19.0797 53.1756 19.4183C53.1798 19.7356 53.2412 20.0494 53.3574 20.3447C50.5753 18.7559 47.4975 17.7535 44.3134 17.399C43.4173 17.3007 42.5166 17.2514 41.6151 17.2514C40.9421 17.2514 40.2764 17.2787 39.6185 17.3334L39.828 19.8487C40.417 19.7999 41.0127 19.7755 41.6151 19.7755C42.4242 19.7755 43.2327 19.8198 44.037 19.908C48.7894 20.4309 53.2227 22.5547 56.6084 25.9305C59.9942 29.3064 62.1308 33.7334 62.6676 38.4843C62.9729 41.2836 62.7029 44.1155 61.8743 46.8066C61.0457 49.4979 59.6759 51.9912 57.849 54.1339C54.1306 58.8112 51.6704 64.3618 50.702 70.258H46.6634V48.803H47.9254V50.065C47.9254 50.3997 48.0585 50.7208 48.2951 50.9574C48.5317 51.1941 48.8528 51.3271 49.1875 51.3271H54.2358C54.5705 51.3271 54.8915 51.1941 55.1282 50.9574C55.3648 50.7208 55.4978 50.3997 55.4978 50.065V45.0168C55.4978 44.6821 55.3648 44.361 55.1282 44.1244C54.8915 43.8877 54.5705 43.7547 54.2358 43.7547H49.1875C48.8528 43.7547 48.5317 43.8877 48.2951 44.1244C48.0585 44.361 47.9254 44.6821 47.9254 45.0168V46.2788H45.4013C45.0666 46.2788 44.7455 46.4119 44.5089 46.6485C44.2723 46.8851 44.1392 47.2062 44.1392 47.5409V70.258H42.8772V39.9685C42.8772 39.6338 42.7442 39.3127 42.5075 39.0761C42.2709 38.8395 41.9498 38.7065 41.6151 38.7065H39.091V37.4444C39.091 37.1097 38.958 36.7886 38.7213 36.552C38.4847 36.3153 38.1636 36.1823 37.8289 36.1823H32.7807C32.446 36.1823 32.1249 36.3153 31.8883 36.552C31.6516 36.7886 31.5186 37.1097 31.5186 37.4444V42.4926C31.5186 42.8273 31.6516 43.1484 31.8883 43.385C32.1249 43.6217 32.446 43.7547 32.7807 43.7547H37.8289C38.1636 43.7547 38.4847 43.6217 38.7213 43.385C38.958 43.1484 39.091 42.8273 39.091 42.4926V41.2306H40.3531V70.258H39.091V51.3271C39.091 50.9924 38.958 50.6713 38.7213 50.4347C38.4847 50.198 38.1636 50.065 37.8289 50.065H35.3048V48.803C35.3048 48.4683 35.1718 48.1472 34.9351 47.9106C34.6985 47.6739 34.3774 47.5409 34.0427 47.5409H28.9945C28.6598 47.5409 28.3387 47.6739 28.1021 47.9106C27.8654 48.1472 27.7324 48.4683 27.7324 48.803V53.8512C27.7324 54.1859 27.8654 54.507 28.1021 54.7436C28.3387 54.9803 28.6598 55.1133 28.9945 55.1133H34.0427C34.3774 55.1133 34.6985 54.9803 34.9351 54.7436C35.1718 54.507 35.3048 54.1859 35.3048 53.8512V52.5891H36.5669V70.258H32.5888C32.58 70.1949 32.5775 70.1318 32.5674 70.0738L31.3192 70.258L32.5674 70.0713C32.4715 69.4301 32.3453 68.7751 32.1888 68.1125L29.7315 68.6868C29.8687 69.2808 29.9814 69.8668 30.0698 70.4448C30.1884 71.2183 30.2509 71.9996 30.2565 72.7822V76.5684C30.2565 76.9031 30.3896 77.2241 30.6262 77.4608C30.8628 77.6974 31.1839 77.8304 31.5186 77.8304H51.7116C52.0463 77.8304 52.3674 77.6974 52.604 77.4608C52.8407 77.2241 52.9737 76.9031 52.9737 76.5684V72.8364C53.5245 66.6034 55.8893 60.6682 59.7762 55.7645C62.9519 52.0299 64.857 47.3818 65.2157 42.4926H66.9574C67.6389 42.4884 68.291 42.2142 68.7708 41.7302C69.2508 41.2464 69.5195 40.592 69.5181 39.9105C70.2791 39.6627 71.0228 39.3646 71.7444 39.0182C72.2291 39.4821 72.8743 39.7411 73.5453 39.7411C74.2164 39.7411 74.8615 39.4821 75.3463 39.0182L77.2634 37.1011C77.504 36.8628 77.6944 36.5785 77.8231 36.2652C77.9519 35.952 78.0164 35.6162 78.013 35.2774C78.0068 34.592 77.7355 33.9357 77.2558 33.4462C77.6169 32.7398 77.9288 32.0094 78.1897 31.2603C78.8656 31.2593 79.5134 30.9903 79.9913 30.5125C80.4691 30.0346 80.7381 29.3867 80.7391 28.7109ZM50.4496 46.2788H52.9737V48.803H50.4496V46.2788ZM36.5669 41.2306H34.0427V38.7065H36.5669V41.2306ZM32.7807 52.5891H30.2565V50.065H32.7807V52.5891ZM50.4496 75.3063H32.7807V72.7822H50.4496V75.3063ZM59.5983 25.4548C59.95 24.3449 60.6024 23.3542 61.483 22.5927C62.3636 21.831 63.4381 21.3284 64.5871 21.1404C65.7361 20.9525 66.9146 21.0865 67.992 21.5278C69.0694 21.9691 70.0035 22.7003 70.6905 23.6402C71.3776 24.5802 71.7907 25.6922 71.8841 26.8527C71.9775 28.0131 71.7474 29.1769 71.2196 30.2145C70.6917 31.2523 69.8866 32.1234 68.8936 32.7313C67.9006 33.3392 66.7586 33.66 65.5943 33.6582C65.1029 33.6525 64.6138 33.5878 64.1379 33.4651C63.1705 30.5205 61.6274 27.7976 59.5983 25.4548ZM75.7527 30.503C75.5634 31.1126 75.3197 31.7039 75.0245 32.2699C74.828 32.6359 74.7247 33.0447 74.7241 33.4601C74.732 34.1529 75.0028 34.8169 75.4813 35.3178L73.5302 37.2374C73.1459 36.8481 72.6466 36.5924 72.1061 36.5083C71.5654 36.4243 71.0121 36.5161 70.5277 36.7704C69.9661 37.0639 69.3805 37.3087 68.7772 37.5024C68.2537 37.6709 67.7964 37.9996 67.4697 38.4422C67.1433 38.8847 66.964 39.4186 66.9574 39.9685H65.2712C65.2536 39.388 65.2372 38.8074 65.1766 38.2231C65.1021 37.5125 64.9923 36.8121 64.8535 36.1217C65.1059 36.1419 65.3432 36.1823 65.5943 36.1823C67.1739 36.189 68.7264 35.772 70.09 34.9749C71.4538 34.1777 72.5788 33.0294 73.3479 31.6498C74.1172 30.2701 74.5023 28.7094 74.4633 27.1303C74.4245 25.5511 73.9628 24.0114 73.1267 22.6712C72.2905 21.3311 71.1103 20.2397 69.7089 19.5107C68.3076 18.7817 66.7365 18.4417 65.1592 18.5262C63.5817 18.6107 62.0559 19.1165 60.7406 19.9911C59.4251 20.8656 58.3683 22.0768 57.6799 23.4986C57.213 23.0711 56.7296 22.6622 56.2298 22.2719C56.3823 21.9487 56.4639 21.5968 56.4696 21.2395C56.4617 20.5467 56.1909 19.8827 55.7124 19.3817L57.6635 17.4621C58.0478 17.8515 58.5471 18.1071 59.0876 18.1912C59.6283 18.2753 60.1816 18.1834 60.666 17.9291C61.2376 17.6312 61.8349 17.3854 62.4505 17.1946C62.9682 17.0213 63.4184 16.6901 63.738 16.2474C64.0574 15.8048 64.2299 15.2731 64.2313 14.7273L66.9826 14.7525C66.9817 15.2955 67.1537 15.8248 67.4737 16.2636C67.7936 16.7024 68.2448 17.028 68.7621 17.1933C69.3655 17.3855 69.9512 17.6296 70.5126 17.9228C71.0062 18.1692 71.5639 18.2571 72.1093 18.1747C72.6549 18.0922 73.1617 17.8434 73.5605 17.4621L75.4801 19.4133C75.0907 19.7976 74.835 20.2968 74.751 20.8374C74.6669 21.378 74.7588 21.9313 75.0131 22.4157C75.3065 22.9774 75.5514 23.563 75.7451 24.1662C75.914 24.6901 76.2434 25.1476 76.6866 25.474C77.1298 25.8003 77.6646 25.9791 78.215 25.9849L78.1645 28.7362C77.6263 28.7364 77.1022 28.9077 76.6678 29.2253C76.2334 29.5429 75.9111 29.9904 75.7476 30.503H75.7527Z" stroke="#26BDE2" stroke-width="2.52413"/>
</g>
</svg>
