<svg width="100" height="100" viewBox="0 0 100 100" fill="none" xmlns="http://www.w3.org/2000/svg">
<path d="M70.5294 42.8758C70.3928 42.4928 70.2459 42.1149 70.0886 41.7424C68.4721 37.9086 65.7677 34.6325 62.3097 32.3188C58.8517 30.0051 54.7916 28.7554 50.6311 28.7238L50.4681 28.7227L50.3157 28.7238C46.1533 28.7538 42.0909 30.0028 38.6308 32.3165C35.1706 34.6302 32.4643 37.9072 30.8464 41.7424C30.6886 42.1149 30.5419 42.4925 30.4062 42.8753C28.7633 47.4944 28.763 52.5386 30.4056 57.158C30.5421 57.541 30.6892 57.9195 30.8476 58.2902C32.4638 62.1242 35.1681 65.4005 38.6262 67.7142C42.0842 70.0279 46.1444 71.2776 50.305 71.3088L50.4681 71.31L50.6205 71.3088C54.7827 71.2788 58.8449 70.0298 62.3048 67.716C65.7648 65.4023 68.4709 62.1254 70.0886 58.2903C70.2463 57.9183 70.3931 57.5409 70.5288 57.158C72.1717 52.539 72.172 47.4949 70.5294 42.8758ZM62.0383 44.9745H67.4297C68.405 48.2652 68.405 51.7681 67.4297 55.0587H62.0377C62.4706 51.7113 62.4709 48.322 62.0383 44.9745ZM52.2678 55.0587V44.9745H58.3972C58.8844 48.3182 58.8844 51.715 58.3972 55.0587H52.2678ZM52.2678 41.3746V32.781C54.4788 33.9157 56.4686 37.079 57.6474 41.3745L52.2678 41.3746ZM58.5825 34.2936C61.6657 35.8835 64.2125 38.3463 65.9048 41.3745H61.375C60.8946 39.3045 60.1655 37.3001 59.2034 35.4052C59.0045 35.0209 58.7975 34.6504 58.5825 34.2936ZM65.9048 58.6581C64.2124 61.6859 61.6662 64.1485 58.5837 65.7391C58.7973 65.3843 59.0039 65.0142 59.2034 64.6291C60.1654 62.7336 60.8946 60.7287 61.3751 58.6581H65.9048ZM57.6474 58.6581C56.4686 62.9543 54.4788 66.1175 52.2678 67.2516V58.6581H57.6474ZM48.6678 32.7816V41.3745H43.2876C44.4664 37.0796 46.4561 33.9163 48.6678 32.7816ZM48.6678 44.9745V55.0587H42.5378C42.0505 51.715 42.0505 48.3182 42.5378 44.9745H48.6678ZM48.6678 58.6581V67.2516C46.4561 66.117 44.4664 62.9537 43.2876 58.6581H48.6678ZM35.0313 41.3745C36.723 38.3462 39.2694 35.8834 42.3524 34.2935C42.1376 34.649 41.9307 35.0196 41.7315 35.4053C40.7701 37.3004 40.0409 39.3046 39.5599 41.3746L35.0313 41.3745ZM39.5599 58.6581C40.0412 60.7282 40.7701 62.7328 41.731 64.6285C41.9299 65.0129 42.1364 65.3831 42.3507 65.7391C39.2684 64.1488 36.7227 61.686 35.0313 58.6581H39.5599ZM38.8973 55.0587H33.5059C32.5297 51.7681 32.5297 48.265 33.5059 44.9745H38.8973C38.4649 48.322 38.4649 51.7112 38.8973 55.0587Z" fill="#26BDE2"/>
<path d="M21.7827 28.5984L21.8008 28.6116C21.8323 28.5669 21.8653 28.5239 21.8984 28.481C21.9579 28.3983 22.0191 28.3173 22.082 28.2362C27.0782 21.6117 34.4067 17.1352 42.5815 15.7143C44.4267 15.3902 46.2961 15.2237 48.1694 15.2165C53.1945 15.175 58.1609 16.298 62.6792 18.4975C63.387 18.8431 64.0794 19.2135 64.7563 19.6088C67.5296 21.2284 70.0387 23.2628 72.1965 25.6414L71.9466 25.8913L69.772 28.0659L68.6065 29.2314C68.5362 29.3017 68.4883 29.3914 68.4688 29.4889C68.4495 29.5865 68.4594 29.6877 68.4975 29.7796C68.5356 29.8715 68.6001 29.95 68.6828 30.0053C68.7655 30.0606 68.8628 30.0901 68.9622 30.0901H81.4966C81.578 30.0901 81.6581 30.0703 81.7302 30.0324C81.8022 29.9946 81.8639 29.9397 81.91 29.8728L81.9996 29.8718L81.9968 29.6147C81.9974 29.6053 81.9996 29.5965 81.9996 29.587V17.0527C81.9996 16.9532 81.9702 16.8559 81.9149 16.7732C81.8596 16.6905 81.7811 16.626 81.6892 16.5879C81.5972 16.5499 81.4961 16.5399 81.3985 16.5593C81.3009 16.5787 81.2113 16.6266 81.141 16.697L80.1491 17.6888L77.8107 20.0272L77.7744 20.0636L77.3903 20.4476C77.313 20.3728 77.237 20.2966 77.1592 20.2223C72.2005 15.5309 66.0895 12.234 59.4457 10.666C52.8019 9.09799 45.8617 9.3146 39.3286 11.2938C36.5365 12.1435 33.8527 13.315 31.3313 14.7849C27.5583 16.9833 24.2073 19.8364 21.4354 23.2106C20.6209 24.2007 19.8613 25.2348 19.1599 26.308C19.0838 26.4254 19.0077 26.5428 18.9316 26.6619L20.8731 27.9815L21.7827 28.5984Z" fill="#26BDE2"/>
<path d="M79.1486 71.435L79.1304 71.4218C79.099 71.4664 79.0659 71.5094 79.0329 71.5524C78.9734 71.6351 78.9122 71.7162 78.8493 71.7971C73.8531 78.4217 66.5246 82.8982 58.3498 84.3191C56.5046 84.6431 54.6352 84.8093 52.7619 84.8169C47.7368 84.8583 42.7704 83.7354 38.2521 81.536C37.5442 81.1903 36.8519 80.8199 36.175 80.4247C33.4017 78.8051 30.8925 76.7707 28.7347 74.392L28.9846 74.1422L31.1592 71.9675L32.3248 70.802C32.395 70.7316 32.443 70.6421 32.4624 70.5444C32.4818 70.4469 32.4718 70.3458 32.4338 70.2539C32.3957 70.1619 32.3312 70.0834 32.2485 70.0281C32.1658 69.9728 32.0686 69.9434 31.969 69.9434H19.4346C19.3533 69.9434 19.2731 69.9631 19.2011 70.001C19.1291 70.0389 19.0673 70.0936 19.0212 70.1607L18.9316 70.1616L18.9344 70.4187C18.9339 70.428 18.9316 70.4369 18.9316 70.4464V82.9808C18.9316 83.0803 18.9611 83.1775 19.0164 83.2603C19.0717 83.343 19.1502 83.4075 19.2421 83.4455C19.3341 83.4836 19.4352 83.4936 19.5328 83.4741C19.6303 83.4548 19.72 83.4069 19.7903 83.3365L20.7821 82.3447L23.1205 80.0063L23.1569 79.9699L23.541 79.5858C23.6183 79.6606 23.6943 79.7368 23.7721 79.8112C28.7308 84.5026 34.8418 87.7993 41.4856 89.3677C48.1293 90.9354 55.0696 90.7192 61.6026 88.7394C64.3948 87.8897 67.0787 86.7182 69.6 85.2485C73.373 83.0502 76.724 80.197 79.4959 76.8229C80.3104 75.8327 81.07 74.7987 81.7714 73.7254C81.8475 73.6081 81.9235 73.4906 81.9996 73.3716L80.0581 72.0519L79.1486 71.435Z" fill="#26BDE2"/>
</svg>
