<svg width="84" height="108" viewBox="0 0 84 108" fill="none" xmlns="http://www.w3.org/2000/svg">
<path d="M68.6318 44.522C68.4505 44.0135 68.2555 43.5119 68.0466 43.0174C65.9008 37.9283 62.3109 33.5794 57.7206 30.5081C53.1303 27.4368 47.7407 25.7778 42.2178 25.7359L42.0014 25.7344L41.7991 25.7359C36.2738 25.7757 30.8812 27.4337 26.288 30.5051C21.6948 33.5764 18.1023 37.9264 15.9546 43.0174C15.7452 43.5119 15.5505 44.0132 15.3703 44.5213C13.1894 50.6529 13.1891 57.3489 15.3695 63.4808C15.5507 63.9893 15.746 64.4917 15.9562 64.9838C18.1017 70.0732 21.6915 74.4223 26.2819 77.4937C30.8723 80.565 36.262 82.2239 41.785 82.2653L42.0014 82.2669L42.2037 82.2653C47.7289 82.2255 53.1212 80.5675 57.7141 77.4961C62.3071 74.4247 65.8993 70.0748 68.0466 64.9839C68.256 64.4901 68.4508 63.9891 68.631 63.4808C70.8119 57.3494 70.8122 50.6536 68.6318 44.522ZM57.3603 47.3079H64.5171C65.8118 51.6761 65.8118 56.326 64.5171 60.6942H57.3595C57.9342 56.2506 57.9345 51.7515 57.3603 47.3079ZM44.3904 60.6942V47.3079H52.5269C53.1737 51.7465 53.1737 56.2555 52.5269 60.6942H44.3904ZM44.3904 42.5292V31.1217C47.3255 32.6279 49.9668 36.827 51.5316 42.5291L44.3904 42.5292ZM52.7729 33.1295C56.8657 35.2401 60.2464 38.5093 62.4929 42.5291H56.4798C55.8421 39.7812 54.8742 37.1205 53.5971 34.6051C53.3331 34.095 53.0583 33.6032 52.7729 33.1295ZM62.4929 65.4721C60.2463 69.4914 56.8664 72.7604 52.7745 74.8718C53.0581 74.4008 53.3323 73.9096 53.5971 73.3984C54.8741 70.8822 55.8421 68.2208 56.4799 65.4721L62.4929 65.4721ZM51.5316 65.4721C49.9668 71.1751 47.3254 75.3741 44.3904 76.8796V65.4721H51.5316ZM39.6116 31.1225V42.5291H32.4697C34.0345 36.8278 36.6758 32.6287 39.6116 31.1225ZM39.6116 47.3079V60.6942H31.4744C30.8275 56.2555 30.8275 51.7465 31.4744 47.3079L39.6116 47.3079ZM39.6116 65.4721V76.8796C36.6758 75.3734 34.0345 71.1743 32.4697 65.4721L39.6116 65.4721ZM21.5099 42.5291C23.7556 38.5092 27.1358 35.2399 31.2283 33.1294C30.9432 33.6013 30.6685 34.0932 30.4041 34.6052C29.1278 37.1209 28.1599 39.7814 27.5214 42.5292L21.5099 42.5291ZM27.5214 65.4721C28.1603 68.2201 29.1279 70.8811 30.4034 73.3976C30.6674 73.9078 30.9416 74.3992 31.226 74.8718C27.1345 72.7608 23.7552 69.4916 21.5099 65.4721L27.5214 65.4721ZM26.6418 60.6942H19.485C18.1892 56.3261 18.1892 51.6759 19.485 47.3079H26.6418C26.0678 51.7515 26.0678 56.2505 26.6418 60.6942Z" fill="#26BDE2" style="fill:#26BDE2;fill:color(display-p3 0.1490 0.7412 0.8863);fill-opacity:1;"/>
<path d="M3.92521 25.5691L3.94935 25.5866C3.99106 25.5273 4.03497 25.4702 4.07885 25.4132C4.15787 25.3034 4.2391 25.1959 4.32252 25.0883C10.9548 16.2946 20.683 10.3522 31.5346 8.46602C33.984 8.03591 36.4655 7.81486 38.9523 7.80525C45.6228 7.75022 52.2154 9.24095 58.2133 12.1606C59.1528 12.6194 60.0719 13.1111 60.9705 13.6358C64.6519 15.7857 67.9826 18.4863 70.847 21.6438L70.5153 21.9755L67.6286 24.8622L66.0815 26.4093C65.9881 26.5027 65.9245 26.6217 65.8987 26.7512C65.873 26.8807 65.8862 27.015 65.9367 27.137C65.9873 27.259 66.0729 27.3633 66.1827 27.4366C66.2925 27.51 66.4216 27.5492 66.5536 27.5492H83.1924C83.3004 27.5492 83.4068 27.5229 83.5024 27.4726C83.598 27.4224 83.68 27.3496 83.7412 27.2607L83.8601 27.2594L83.8564 26.9181C83.8571 26.9057 83.8601 26.894 83.8601 26.8814V10.2427C83.8601 10.1106 83.821 9.9815 83.7476 9.87169C83.6742 9.76189 83.57 9.67631 83.448 9.62577C83.3259 9.57523 83.1917 9.56201 83.0622 9.58777C82.9326 9.61354 82.8137 9.67713 82.7203 9.77051L81.4037 11.0871L78.2996 14.1912L78.2513 14.2395L77.7415 14.7493C77.6388 14.65 77.538 14.5489 77.4347 14.4502C70.8523 8.22257 62.7402 3.84616 53.921 1.76472C45.1017 -0.31673 35.8889 -0.0291969 27.2166 2.59816C23.5102 3.72598 19.9475 5.28115 16.6005 7.2323C11.5921 10.1506 7.1438 13.938 3.46421 18.417C2.38304 19.7314 1.37465 21.104 0.443568 22.5287C0.342584 22.6845 0.241609 22.8404 0.140625 22.9984L2.71782 24.7502L3.92521 25.5691Z" fill="#26BDE2" style="fill:#26BDE2;fill:color(display-p3 0.1490 0.7412 0.8863);fill-opacity:1;"/>
<path d="M80.0755 82.4313L80.0514 82.4137C80.0097 82.473 79.9658 82.5301 79.9219 82.5871C79.8429 82.6969 79.7617 82.8045 79.6782 82.912C73.046 91.7057 63.3178 97.6481 52.4662 99.5343C50.0168 99.9644 47.5353 100.185 45.0485 100.195C38.378 100.25 31.7854 98.7594 25.7875 95.8398C24.8479 95.3809 23.9289 94.8892 23.0303 94.3646C19.3489 92.2147 16.0181 89.5141 13.1537 86.3566L13.4854 86.0249L16.3721 83.1381L17.9193 81.591C18.0126 81.4976 18.0762 81.3787 18.102 81.2491C18.1278 81.1196 18.1145 80.9854 18.064 80.8634C18.0135 80.7413 17.9279 80.6371 17.8181 80.5637C17.7083 80.4903 17.5792 80.4512 17.4471 80.4512H0.808329C0.70032 80.4512 0.593932 80.4774 0.498327 80.5277C0.402722 80.578 0.320766 80.6507 0.25952 80.7397L0.140625 80.7409L0.144327 81.0822C0.143644 81.0946 0.140625 81.1063 0.140625 81.1189V97.7577C0.140624 97.8898 0.179783 98.0189 0.253151 98.1287C0.326519 98.2385 0.430801 98.3241 0.552809 98.3746C0.674817 98.4252 0.809071 98.4384 0.938594 98.4126C1.06812 98.3869 1.18709 98.3233 1.28047 98.2299L2.59708 96.9133L5.70114 93.8092L5.74944 93.7609L6.25931 93.2511C6.36195 93.3504 6.46279 93.4515 6.56607 93.5502C13.1485 99.7778 21.2605 104.154 30.0798 106.236C38.899 108.317 48.1119 108.03 56.7841 105.402C60.4906 104.274 64.0533 102.719 67.4003 100.768C72.4087 97.8498 76.857 94.0624 80.5366 89.5834C81.6177 88.269 82.6261 86.8964 83.5572 85.4717C83.6582 85.3159 83.7591 85.16 83.8601 85.002L81.2829 83.2502L80.0755 82.4313Z" fill="#26BDE2" style="fill:#26BDE2;fill:color(display-p3 0.1490 0.7412 0.8863);fill-opacity:1;"/>
</svg>
