<svg width="100" height="100" viewBox="0 0 100 100" fill="none" xmlns="http://www.w3.org/2000/svg">
<path d="M77.4686 49.8341H77.5641C77.8667 49.8348 78.1583 49.7206 78.3799 49.5146C78.6015 49.3084 78.7366 49.0258 78.7578 48.724C78.8414 47.8525 78.8414 47.1244 78.8414 46.4201C78.8414 45.7158 78.8414 45.107 78.8414 44.4624C78.8207 44.1458 78.6752 43.8504 78.4368 43.641C78.1984 43.4317 77.8866 43.3257 77.5701 43.3463C77.2535 43.3668 76.958 43.5123 76.7487 43.7507C76.5394 43.9892 76.4333 44.301 76.4539 44.6176C76.4539 45.2144 76.4539 45.8113 76.4539 46.4201C76.4539 47.0289 76.4539 47.8525 76.3704 48.5568C76.3473 48.8717 76.4499 49.1828 76.6558 49.4222C76.8616 49.6616 77.1538 49.8096 77.4686 49.8341Z" fill="#26BDE2"/>
<path d="M48.7422 76.1785C47.9305 76.1785 47.2501 76.2621 46.6055 76.2621C46.1996 76.2621 45.8057 76.2621 45.4117 76.2621V72.6809C45.4126 72.4706 45.3578 72.2637 45.253 72.0813C45.1482 71.8991 44.9971 71.7476 44.8149 71.6424L36.4589 66.8675C36.2774 66.7627 36.0715 66.7076 35.862 66.7076C35.6524 66.7076 35.4466 66.7627 35.2652 66.8675C35.0865 66.962 34.9346 67.1002 34.824 67.2693C34.7133 67.4385 34.6474 67.6329 34.6325 67.8344L34.155 73.5762C32.4341 72.7804 30.7916 71.8252 29.2488 70.7232L28.6997 61.2929L34.1789 56.9C34.3262 56.7925 34.4469 56.6527 34.5316 56.4913C34.6165 56.3299 34.6633 56.1512 34.6683 55.9689V46.4192C34.6683 46.1347 34.5667 45.8595 34.3818 45.6433L28.0909 38.3139L34.1311 34.2791C34.3507 34.1348 34.5166 33.9219 34.6029 33.6738C34.6892 33.4256 34.6912 33.1558 34.6086 32.9063L32.2212 25.744C32.1192 25.4476 31.9049 25.2032 31.6243 25.0636L27.8999 23.1894C30.3681 21.1986 33.1361 19.6112 36.1008 18.4862L39.6103 24.3473C39.7159 24.5256 39.8661 24.6732 40.0461 24.7758C40.2261 24.8783 40.4297 24.9323 40.6369 24.9323C40.842 24.9317 41.0433 24.8782 41.2218 24.7771L54.0781 17.5432C55.6895 17.9635 57.2628 18.5185 58.7814 19.2024L49.4584 26.3648C49.3231 26.4684 49.2116 26.5997 49.1312 26.7501C49.0509 26.9004 49.0038 27.0661 48.9929 27.2362C48.982 27.4052 49.0073 27.5745 49.067 27.733C49.1267 27.8915 49.2195 28.0355 49.3391 28.1553L55.1405 33.9449L46.2235 36.9172C46.0396 36.9801 45.8741 37.087 45.7409 37.2284C45.6078 37.3699 45.5112 37.5416 45.4595 37.7289L43.0721 46.0849C42.9899 46.3731 43.0193 46.6817 43.1542 46.9493C43.2891 47.2168 43.5197 47.4239 43.8002 47.5293L51.9414 50.5733L43.2272 63.7042C43.1076 63.8772 43.0358 64.0785 43.0189 64.2882C43.0022 64.4978 43.0411 64.7081 43.1318 64.8979C43.2179 65.0823 43.3497 65.2416 43.5148 65.3607C43.6799 65.4798 43.8726 65.5547 44.0748 65.5783L46.7248 65.9126H46.88C47.1966 65.9315 47.5078 65.824 47.7451 65.6135C47.9824 65.4031 48.1264 65.107 48.1454 64.7905C48.1643 64.4739 48.0568 64.1627 47.8463 63.9254C47.6359 63.6881 47.3398 63.5441 47.0233 63.5251L46.2832 63.4296L54.7585 50.7046C54.8581 50.5553 54.9226 50.3854 54.9474 50.2077C54.9722 50.0299 54.9566 49.8489 54.9018 49.678C54.8468 49.5069 54.7538 49.3502 54.6297 49.22C54.5057 49.0898 54.3539 48.9893 54.1856 48.926L45.6624 45.7388L47.5843 39.042L57.7309 35.6757C57.9248 35.6116 58.099 35.499 58.2369 35.3483C58.3748 35.1977 58.4717 35.0141 58.5185 34.8153C58.5652 34.6164 58.5601 34.409 58.5037 34.2127C58.4474 34.0165 58.3415 33.8379 58.1964 33.6942L51.9891 27.4988L61.1449 20.4558C63.0841 21.5284 64.8978 22.8136 66.5525 24.2876C66.6663 24.4038 66.8029 24.4955 66.9535 24.5569C67.1042 24.6184 67.2658 24.6484 67.4285 24.6452C67.5911 24.6419 67.7514 24.6054 67.8994 24.538C68.0476 24.4705 68.1803 24.3735 68.2894 24.2529C68.3987 24.1322 68.4821 23.9906 68.5345 23.8365C68.587 23.6826 68.6074 23.5194 68.5946 23.3573C68.5817 23.195 68.5358 23.0372 68.4597 22.8934C68.3836 22.7496 68.2789 22.6228 68.152 22.5209C66.186 20.7516 64.0089 19.232 61.6702 17.9968H61.5985C57.2704 15.6827 52.4709 14.3877 47.5662 14.2105C42.6614 14.0332 37.781 14.9785 33.2971 16.9741C28.8132 18.9697 24.8442 21.963 21.693 25.7256C18.5417 29.4884 16.2914 33.9209 15.1137 38.6855C13.9359 43.4499 13.8618 48.4206 14.897 53.218C15.9322 58.0155 18.0494 62.5133 21.0871 66.3682C24.1248 70.2231 28.0027 73.3334 32.4251 75.4618C36.8476 77.5901 41.6976 78.6804 46.6055 78.6495C47.3098 78.6495 48.0379 78.6495 48.9213 78.554C49.2378 78.5303 49.5321 78.3818 49.7391 78.1411C49.9462 77.9005 50.0492 77.5873 50.0255 77.2708C50.0017 76.9542 49.8532 76.66 49.6126 76.453C49.3719 76.2459 49.0588 76.1428 48.7422 76.1666V76.1785ZM36.9006 69.8757L43.0243 73.3733V76.0353C40.7996 75.7755 38.6123 75.2588 36.5066 74.4954L36.9006 69.8757ZM50.4373 16.8508L41.0666 22.127L38.4166 17.77C41.0775 16.9937 43.8337 16.5919 46.6055 16.5762C47.8874 16.5837 49.1674 16.6754 50.4373 16.8508ZM16.7625 46.4192C16.7648 42.4016 17.5816 38.4262 19.1634 34.7331C20.7453 31.0399 23.0594 27.7059 25.9661 24.9323L30.1083 27.0094L32.0541 32.8347L25.6558 37.1082C25.515 37.2007 25.3955 37.3219 25.305 37.4638C25.2144 37.6057 25.155 37.7653 25.1305 37.9319C25.1067 38.0996 25.1189 38.2703 25.1663 38.433C25.2136 38.5956 25.295 38.7462 25.4051 38.8749L32.2809 46.8609V55.3959L26.7659 59.8127C26.6154 59.9312 26.4955 60.0841 26.4166 60.2587C26.3377 60.4332 26.3019 60.6242 26.3123 60.8154L26.7778 68.6939C23.6319 65.8974 21.1133 62.4669 19.3872 58.628C17.6611 54.789 16.7666 50.6283 16.7625 46.4192Z" fill="#26BDE2"/>
<path d="M84.8056 24.9336H75.2559C71.7733 24.9336 68.4334 26.317 65.9709 28.7795C63.5084 31.242 62.125 34.5819 62.125 38.0645V40.4519C62.125 40.7685 62.2508 41.0722 62.4746 41.296C62.6985 41.5198 63.0021 41.6456 63.3187 41.6456C63.5498 41.638 63.7738 41.5633 63.9633 41.4307L70.8391 36.8708H76.4496C76.7662 36.8708 77.0698 36.7449 77.2937 36.5211C77.5175 36.2973 77.6433 35.9936 77.6433 35.677C77.6433 35.3605 77.5175 35.0568 77.2937 34.833C77.0698 34.6091 76.7662 34.4833 76.4496 34.4833H74.4203L79.4936 31.1051C79.6248 31.0184 79.7376 30.9066 79.8254 30.7761C79.9133 30.6456 79.9745 30.4992 80.0056 30.3449C80.0367 30.1907 80.0369 30.032 80.0064 29.8776C79.9759 29.7234 79.9152 29.5766 79.8278 29.4458C79.6528 29.1842 79.3815 29.0023 79.0729 28.9396C78.7644 28.877 78.4437 28.9389 78.1805 29.1116L76.4496 30.3053V29.7085C76.4496 29.3919 76.3238 29.0882 76.1 28.8644C75.8761 28.6406 75.5724 28.5147 75.2559 28.5147C74.9393 28.5147 74.6356 28.6406 74.4118 28.8644C74.188 29.0882 74.0622 29.3919 74.0622 29.7085V31.8571L71.6747 33.4448V32.0959C71.6747 31.7793 71.5489 31.4756 71.3251 31.2518C71.1013 31.028 70.7976 30.9022 70.481 30.9022C70.1644 30.9022 69.8608 31.028 69.6369 31.2518C69.4131 31.4756 69.2873 31.7793 69.2873 32.0959V35.0324L64.5124 38.2197V38.0645C64.5124 35.2152 65.6443 32.4825 67.6591 30.4677C69.6739 28.4529 72.4066 27.321 75.2559 27.321H83.6119V28.5147C83.6119 31.364 82.48 34.0967 80.4652 36.1116C78.4504 38.1263 75.7177 39.2582 72.8684 39.2582H71.6747C71.3582 39.2582 71.0545 39.384 70.8307 39.6078C70.6068 39.8316 70.481 40.1353 70.481 40.4519C70.481 40.7685 70.6068 41.0722 70.8307 41.296C71.0545 41.5198 71.3582 41.6456 71.6747 41.6456H72.8684C74.5928 41.6456 76.3003 41.306 77.8934 40.6461C79.4865 39.9862 80.934 39.019 82.1534 37.7997C83.3727 36.5803 84.3399 35.1328 84.9998 33.5397C85.6597 31.9466 85.9993 30.2391 85.9993 28.5147V26.1273C85.9993 25.8107 85.8735 25.5071 85.6497 25.2832C85.4259 25.0594 85.1222 24.9336 84.8056 24.9336Z" fill="#26BDE2"/>
<path d="M68.0952 50.0001C64.219 49.9887 60.4458 51.2466 57.3517 53.5812C57.2262 53.6753 57.1206 53.7931 57.0407 53.928C56.9609 54.0629 56.9084 54.2122 56.8863 54.3674C56.8641 54.5226 56.8727 54.6806 56.9116 54.8325C56.9505 54.9843 57.0189 55.127 57.113 55.2524C57.207 55.3779 57.3249 55.4835 57.4597 55.5634C57.5946 55.6432 57.744 55.6958 57.8991 55.718C58.0543 55.7401 58.2124 55.7315 58.3642 55.6925C58.5161 55.6536 58.6587 55.5852 58.7842 55.4912C61.4654 53.4672 64.7358 52.3771 68.0952 52.3875C71.1644 52.3875 74.1647 53.2976 76.7166 55.0028C79.2687 56.708 81.2577 59.1316 82.4322 61.9672C83.6068 64.8029 83.914 67.923 83.3153 70.9333C82.7165 73.9435 81.2386 76.7086 79.0683 78.8789C76.898 81.0492 74.1329 82.5272 71.1227 83.1259C68.1123 83.7247 64.9922 83.4174 62.1565 82.2428C59.321 81.0683 56.8974 79.0794 55.1922 76.5273C53.4869 73.9754 52.5768 70.9751 52.5768 67.9058C52.5742 64.5586 53.664 61.3021 55.6805 58.6306C55.777 58.5052 55.8476 58.3621 55.8888 58.2093C55.9299 58.0566 55.9404 57.8972 55.92 57.7404C55.8994 57.5835 55.8482 57.4323 55.7692 57.2952C55.6903 57.1581 55.5851 57.038 55.4597 56.9415C55.3342 56.8451 55.1911 56.7744 55.0383 56.7332C54.8856 56.6922 54.7263 56.6817 54.5694 56.7021C54.4125 56.7226 54.2613 56.7738 54.1243 56.8528C53.9871 56.9317 53.867 57.0369 53.7706 57.1624C51.3504 60.3892 50.0907 64.3388 50.1955 68.371C50.3003 72.4033 51.7634 76.282 54.348 79.3789C56.9325 82.4757 60.487 84.6091 64.4355 85.4336C68.3839 86.258 72.4951 85.7251 76.1028 83.9212C79.7106 82.1174 82.6037 79.1481 84.3132 75.4947C86.0227 71.8413 86.4487 67.7177 85.5219 63.7919C84.5952 59.8663 82.3701 56.3684 79.2072 53.8652C76.0442 51.362 72.1287 50.0001 68.0952 50.0001Z" fill="#26BDE2"/>
<path d="M72.9862 56.1239C72.8957 55.9949 72.7805 55.8849 72.6474 55.8005C72.5142 55.7162 72.3655 55.6591 72.2102 55.6325C72.0548 55.6057 71.8957 55.6102 71.7421 55.6454C71.5884 55.6806 71.4432 55.7459 71.315 55.8374L67.4115 58.571C67.1522 58.7518 66.9752 59.028 66.9192 59.339C66.8634 59.65 66.9329 59.9706 67.1131 60.2303L69.8467 64.1457C69.9564 64.3039 70.1026 64.4331 70.2731 64.5224C70.4435 64.6118 70.633 64.6586 70.8255 64.659C71.073 64.6609 71.315 64.5858 71.5179 64.4441C71.6469 64.3536 71.7569 64.2386 71.8413 64.1053C71.9255 63.9721 71.9827 63.8236 72.0093 63.6682C72.036 63.5129 72.0315 63.3538 71.9964 63.2C71.9612 63.0464 71.8959 62.9012 71.8044 62.7729L70.742 61.2569C72.0727 61.7869 73.2139 62.7038 74.0184 63.889C74.8227 65.0743 75.2531 66.4734 75.2542 67.9059C75.2542 68.2225 75.3799 68.5262 75.6039 68.75C75.8277 68.9738 76.1312 69.0996 76.4479 69.0996C76.7645 69.0996 77.0681 68.9738 77.292 68.75C77.5158 68.5262 77.6416 68.2225 77.6416 67.9059C77.6393 65.91 77.0116 63.965 75.8469 62.3441C74.6821 60.7233 73.0388 59.5082 71.1478 58.8695L72.6877 57.7832C72.9469 57.6025 73.1239 57.3264 73.1799 57.0153C73.2359 56.7042 73.1662 56.3837 72.9862 56.1239Z" fill="#26BDE2"/>
<path d="M55.4491 69.5651C55.3145 69.8516 55.2994 70.1799 55.4068 70.4776C55.5143 70.7753 55.7356 71.0182 56.0221 71.1527L60.3433 73.1701C60.5052 73.241 60.6799 73.2777 60.8566 73.2775C61.0829 73.2759 61.304 73.2099 61.4943 73.0873C61.6845 72.9647 61.8359 72.7905 61.931 72.5852L63.9483 68.2639C64.0718 67.9814 64.0811 67.6619 63.9742 67.3727C63.8674 67.0834 63.6528 66.8466 63.3754 66.7121C63.0889 66.5776 62.7606 66.5624 62.4629 66.6698C62.1652 66.7773 61.9224 66.9986 61.7877 67.2851L61.0118 68.9682C60.9586 68.6166 60.9306 68.2616 60.9282 67.9058C60.9296 66.6498 61.261 65.4162 61.8897 64.3289C62.5183 63.2414 63.4217 62.3384 64.5094 61.7104C64.652 61.6358 64.7781 61.533 64.88 61.4085C64.982 61.2839 65.0577 61.14 65.1025 60.9853C65.1474 60.8307 65.1606 60.6686 65.1411 60.5087C65.1216 60.349 65.0702 60.1947 64.9896 60.0554C64.909 59.9159 64.801 59.7943 64.6722 59.6977C64.5434 59.6011 64.3965 59.5315 64.2401 59.4932C64.0837 59.4549 63.9212 59.4487 63.7624 59.4748C63.6035 59.501 63.4515 59.559 63.3157 59.6453C61.8654 60.4827 60.6607 61.6867 59.8227 63.1366C58.9846 64.5863 58.5426 66.2312 58.5408 67.9058C58.5461 68.5363 58.618 69.1646 58.7557 69.78L57.0367 68.9802C56.8942 68.9139 56.7398 68.8766 56.5828 68.8701C56.4257 68.8638 56.2689 68.8884 56.1214 68.9428C55.9738 68.9971 55.8386 69.0801 55.7232 69.1869C55.6078 69.2936 55.5146 69.4222 55.4491 69.5651Z" fill="#26BDE2"/>
<path d="M62.8911 74.5446C62.7344 74.8173 62.6917 75.1408 62.7722 75.4447C62.8526 75.7487 63.0497 76.0086 63.3208 76.1681C65.0466 77.1787 67.0479 77.6167 69.0381 77.4195C71.0283 77.2221 72.9047 76.3997 74.3985 75.0699L74.5656 76.9679C74.5925 77.2655 74.73 77.5422 74.951 77.7433C75.172 77.9444 75.4604 78.0553 75.7593 78.0542H75.8667C76.1815 78.0268 76.4727 77.8758 76.6763 77.6341C76.88 77.3924 76.9794 77.0798 76.953 76.7649L76.5352 71.9901C76.5108 71.6753 76.3627 71.3831 76.1233 71.1773C75.8839 70.9715 75.5727 70.8688 75.258 70.8919L70.4831 71.3097C70.3261 71.3231 70.1733 71.3676 70.0335 71.4404C69.8939 71.5132 69.7698 71.613 69.6689 71.734C69.5679 71.8549 69.4918 71.9947 69.4452 72.1451C69.3985 72.2957 69.382 72.454 69.3968 72.6108C69.427 72.9234 69.5794 73.2116 69.8207 73.4127C70.0621 73.6139 70.3729 73.7118 70.686 73.6851L72.5243 73.53C71.4005 74.4124 70.0383 74.9384 68.613 75.0406C67.1878 75.1427 65.7646 74.8162 64.5264 74.103C64.3901 74.024 64.2397 73.9728 64.0836 73.9523C63.9274 73.9318 63.7688 73.9424 63.6168 73.9835C63.4648 74.0245 63.3223 74.0952 63.1978 74.1915C63.0733 74.2879 62.969 74.4078 62.8911 74.5446Z" fill="#26BDE2"/>
</svg>
