<svg width="61" height="60" viewBox="0 0 61 60" fill="none" xmlns="http://www.w3.org/2000/svg">
<path d="M53.8524 29.8609H53.9324C54.1859 29.8615 54.4302 29.7658 54.6158 29.5932C54.8015 29.4205 54.9146 29.1838 54.9324 28.9309C55.0024 28.2009 55.0024 27.5909 55.0024 27.0009C55.0024 26.4109 55.0024 25.9009 55.0024 25.3609C54.9851 25.0957 54.8632 24.8482 54.6635 24.6728C54.4638 24.4975 54.2026 24.4087 53.9374 24.4259C53.6722 24.4431 53.4247 24.565 53.2493 24.7647C53.074 24.9645 52.9851 25.2257 53.0024 25.4909C53.0024 25.9909 53.0024 26.4909 53.0024 27.0009C53.0024 27.5109 53.0024 28.2009 52.9324 28.7909C52.9131 29.0547 52.999 29.3153 53.1715 29.5158C53.3439 29.7164 53.5887 29.8404 53.8524 29.8609Z" fill="#26BDE2" style="fill:#26BDE2;fill:color(display-p3 0.1490 0.7412 0.8863);fill-opacity:1;"/>
<path d="M29.7884 51.9295C29.1084 51.9295 28.5384 51.9995 27.9984 51.9995C27.6584 51.9995 27.3284 51.9995 26.9984 51.9995V48.9995C26.9991 48.8233 26.9532 48.65 26.8654 48.4972C26.7776 48.3445 26.651 48.2176 26.4984 48.1295L19.4984 44.1295C19.3464 44.0417 19.1739 43.9955 18.9984 43.9955C18.8228 43.9955 18.6504 44.0417 18.4984 44.1295C18.3487 44.2086 18.2215 44.3244 18.1288 44.4661C18.0361 44.6078 17.9809 44.7707 17.9684 44.9395L17.5684 49.7495C16.1268 49.0828 14.7508 48.2826 13.4584 47.3595L12.9984 39.4595L17.5884 35.7795C17.7118 35.6894 17.8129 35.5723 17.8839 35.4371C17.955 35.3019 17.9942 35.1522 17.9984 34.9995V26.9995C17.9984 26.7612 17.9133 26.5306 17.7584 26.3495L12.4884 20.2095L17.5484 16.8295C17.7323 16.7086 17.8713 16.5303 17.9436 16.3224C18.0159 16.1145 18.0176 15.8885 17.9484 15.6795L15.9484 9.67946C15.863 9.43116 15.6834 9.22646 15.4484 9.10946L12.3284 7.53946C14.396 5.87169 16.7148 4.54189 19.1984 3.59946L22.1384 8.50946C22.2269 8.65876 22.3527 8.78246 22.5035 8.86836C22.6543 8.95426 22.8248 8.99946 22.9984 8.99946C23.1702 8.99896 23.3389 8.95416 23.4884 8.86946L34.2584 2.80946C35.6083 3.1616 36.9263 3.62657 38.1984 4.19946L30.3884 10.1995C30.275 10.2863 30.1816 10.3963 30.1143 10.5223C30.047 10.6482 30.0075 10.787 29.9984 10.9295C29.9893 11.0711 30.0105 11.2129 30.0605 11.3457C30.1105 11.4785 30.1882 11.5991 30.2884 11.6995L35.1484 16.5495L27.6784 19.0395C27.5244 19.0922 27.3857 19.1817 27.2741 19.3002C27.1626 19.4187 27.0817 19.5626 27.0384 19.7195L25.0384 26.7195C24.9696 26.9609 24.9942 27.2194 25.1072 27.4436C25.2202 27.6677 25.4134 27.8412 25.6484 27.9295L32.4684 30.4795L25.1684 41.4795C25.0682 41.6244 25.008 41.7931 24.9939 41.9687C24.9799 42.1443 25.0125 42.3205 25.0884 42.4795C25.1606 42.634 25.271 42.7674 25.4093 42.8672C25.5476 42.967 25.709 43.0297 25.8784 43.0495L28.0984 43.3295H28.2284C28.4936 43.3454 28.7543 43.2553 28.9531 43.079C29.1519 42.9027 29.2725 42.6547 29.2884 42.3895C29.3043 42.1243 29.2142 41.8636 29.0379 41.6648C28.8616 41.466 28.6136 41.3454 28.3484 41.3295L27.7284 41.2495L34.8284 30.5895C34.9118 30.4644 34.9658 30.3221 34.9866 30.1732C35.0074 30.0243 34.9943 29.8726 34.9484 29.7295C34.9023 29.5861 34.8244 29.4549 34.7205 29.3458C34.6166 29.2367 34.4894 29.1525 34.3484 29.0995L27.2084 26.4295L28.8184 20.8195L37.3184 17.9995C37.4808 17.9458 37.6268 17.8514 37.7423 17.7252C37.8578 17.599 37.939 17.4452 37.9782 17.2787C38.0173 17.1121 38.013 16.9383 37.9658 16.7739C37.9186 16.6095 37.8299 16.4599 37.7084 16.3395L32.5084 11.1495L40.1784 5.24946C41.8029 6.14795 43.3223 7.22459 44.7084 8.45946C44.8038 8.55676 44.9182 8.63356 45.0444 8.68506C45.1706 8.73656 45.306 8.76166 45.4423 8.75896C45.5785 8.75626 45.7128 8.72566 45.8368 8.66916C45.9609 8.61266 46.0721 8.53136 46.1635 8.43036C46.255 8.32926 46.3249 8.21066 46.3688 8.08156C46.4128 7.95257 46.4299 7.81592 46.4191 7.68005C46.4083 7.54417 46.3699 7.41193 46.3061 7.29145C46.2424 7.17098 46.1547 7.0648 46.0484 6.97946C44.4014 5.49724 42.5776 4.22425 40.6184 3.18946H40.5584C36.9326 1.25094 32.912 0.166084 28.8032 0.0176138C24.6944 -0.130866 20.606 0.660984 16.8497 2.33274C13.0935 4.00451 9.76855 6.51203 7.12871 9.66406C4.48885 12.8162 2.60371 16.5294 1.61707 20.5208C0.630433 24.5121 0.568353 28.6761 1.43557 32.695C2.30278 36.714 4.07639 40.4819 6.62111 43.7112C9.16585 46.9405 12.4145 49.5461 16.1192 51.3291C19.824 53.112 23.887 54.0254 27.9984 53.9995C28.5884 53.9995 29.1984 53.9995 29.9384 53.9195C30.2036 53.8996 30.4501 53.7752 30.6235 53.5736C30.797 53.372 30.8833 53.1097 30.8634 52.8445C30.8435 52.5793 30.7191 52.3328 30.5175 52.1594C30.3159 51.9859 30.0536 51.8996 29.7884 51.9195V51.9295ZM19.8684 46.6495L24.9984 49.5795V51.8095C23.1347 51.5919 21.3024 51.159 19.5384 50.5195L19.8684 46.6495ZM31.2084 2.22946L23.3584 6.64946L21.1384 2.99946C23.3675 2.34916 25.6764 2.01259 27.9984 1.99946C29.0723 2.00569 30.1446 2.08252 31.2084 2.22946ZM2.99834 26.9995C3.00027 23.6339 3.68448 20.3036 5.00965 17.2098C6.33481 14.116 8.27342 11.323 10.7084 8.99946L14.1784 10.7395L15.8084 15.6195L10.4484 19.1995C10.3305 19.277 10.2304 19.3785 10.1546 19.4974C10.0787 19.6163 10.0289 19.75 10.0084 19.8895C9.98845 20.03 9.99865 20.173 10.0384 20.3093C10.078 20.4455 10.1462 20.5717 10.2384 20.6795L15.9984 27.3695V34.5195L11.3784 38.2195C11.2523 38.3188 11.1519 38.4469 11.0858 38.5931C11.0197 38.7393 10.9897 38.8993 10.9984 39.0595L11.3884 45.6595C8.75301 43.3168 6.64307 40.443 5.19709 37.2271C3.7511 34.0111 3.00178 30.5256 2.99834 26.9995Z" fill="#26BDE2" style="fill:#26BDE2;fill:color(display-p3 0.1490 0.7412 0.8863);fill-opacity:1;"/>
<path d="M60 9H52C49.0826 9 46.2847 10.1589 44.2218 12.2218C42.1589 14.2847 41 17.0826 41 20V22C41 22.2652 41.1054 22.5196 41.2929 22.7071C41.4804 22.8946 41.7348 23 42 23C42.1936 22.9936 42.3812 22.931 42.54 22.82L48.3 19H53C53.2652 19 53.5196 18.8946 53.7071 18.7071C53.8946 18.5196 54 18.2652 54 18C54 17.7348 53.8946 17.4804 53.7071 17.2929C53.5196 17.1054 53.2652 17 53 17H51.3L55.55 14.17C55.6599 14.0974 55.7544 14.0037 55.828 13.8944C55.9016 13.7851 55.9529 13.6624 55.9789 13.5332C56.005 13.404 56.0052 13.271 55.9796 13.1417C55.9541 13.0125 55.9032 12.8895 55.83 12.78C55.6834 12.5608 55.4561 12.4084 55.1976 12.3559C54.9392 12.3035 54.6705 12.3553 54.45 12.5L53 13.5V13C53 12.7348 52.8946 12.4804 52.7071 12.2929C52.5196 12.1054 52.2652 12 52 12C51.7348 12 51.4804 12.1054 51.2929 12.2929C51.1054 12.4804 51 12.7348 51 13V14.8L49 16.13V15C49 14.7348 48.8946 14.4804 48.7071 14.2929C48.5196 14.1054 48.2652 14 48 14C47.7348 14 47.4804 14.1054 47.2929 14.2929C47.1054 14.4804 47 14.7348 47 15V17.46L43 20.13V20C43 17.6131 43.9482 15.3239 45.636 13.636C47.3239 11.9482 49.6131 11 52 11H59V12C59 14.3869 58.0518 16.6761 56.364 18.364C54.6761 20.0518 52.3869 21 50 21H49C48.7348 21 48.4804 21.1054 48.2929 21.2929C48.1054 21.4804 48 21.7348 48 22C48 22.2652 48.1054 22.5196 48.2929 22.7071C48.4804 22.8946 48.7348 23 49 23H50C51.4445 23 52.8749 22.7155 54.2095 22.1627C55.5441 21.6099 56.7567 20.7996 57.7782 19.7782C58.7996 18.7567 59.6099 17.5441 60.1627 16.2095C60.7155 14.8749 61 13.4445 61 12V10C61 9.7348 60.8946 9.4804 60.7071 9.2929C60.5196 9.1054 60.2652 9 60 9Z" fill="#26BDE2" style="fill:#26BDE2;fill:color(display-p3 0.1490 0.7412 0.8863);fill-opacity:1;"/>
<path d="M46 30.0001C42.7529 29.9906 39.592 31.0443 37 33.0001C36.8949 33.0789 36.8064 33.1776 36.7395 33.2906C36.6726 33.4036 36.6286 33.5287 36.6101 33.6587C36.5915 33.7887 36.5987 33.9211 36.6313 34.0483C36.6639 34.1755 36.7212 34.295 36.8 34.4001C36.8788 34.5052 36.9775 34.5937 37.0905 34.6606C37.2035 34.7275 37.3286 34.7715 37.4586 34.7901C37.5886 34.8086 37.721 34.8014 37.8482 34.7688C37.9754 34.7362 38.0949 34.6789 38.2 34.6001C40.4461 32.9046 43.1858 31.9914 46 32.0001C48.5712 32.0001 51.0846 32.7625 53.2224 34.191C55.3603 35.6195 57.0265 37.6498 58.0104 40.0252C58.9944 42.4007 59.2518 45.0145 58.7502 47.5363C58.2486 50.058 57.0105 52.3744 55.1924 54.1925C53.3743 56.0106 51.0579 57.2487 48.5362 57.7503C46.0144 58.2519 43.4006 57.9945 41.0251 57.0105C38.6497 56.0266 36.6194 54.3604 35.1909 52.2225C33.7624 50.0847 33 47.5713 33 45.0001C32.9978 42.1961 33.9107 39.468 35.6 37.2301C35.6808 37.125 35.74 37.0051 35.7745 36.8771C35.8089 36.7492 35.8177 36.6157 35.8006 36.4843C35.7834 36.3529 35.7405 36.2262 35.6743 36.1114C35.6082 35.9965 35.5201 35.8959 35.415 35.8151C35.3099 35.7343 35.19 35.6751 35.062 35.6406C34.9341 35.6062 34.8006 35.5974 34.6692 35.6145C34.5378 35.6317 34.4111 35.6746 34.2963 35.7408C34.1814 35.8069 34.0808 35.895 34 36.0001C31.9726 38.7033 30.9173 42.0119 31.0051 45.3898C31.0929 48.7677 32.3186 52.017 34.4837 54.6113C36.6488 57.2056 39.6265 58.9928 42.9342 59.6835C46.2419 60.3741 49.6859 59.9277 52.7082 58.4165C55.7305 56.9054 58.1541 54.418 59.5862 51.3575C61.0183 48.2969 61.3751 44.8425 60.5987 41.5538C59.8224 38.2652 57.9584 35.335 55.3088 33.238C52.6591 31.141 49.379 30.0001 46 30.0001Z" fill="#26BDE2" style="fill:#26BDE2;fill:color(display-p3 0.1490 0.7412 0.8863);fill-opacity:1;"/>
<path d="M50.0982 35.1293C50.0224 35.0212 49.9259 34.9291 49.8144 34.8584C49.7028 34.7877 49.5783 34.7399 49.4482 34.7176C49.318 34.6952 49.1847 34.6989 49.056 34.7284C48.9273 34.7579 48.8056 34.8126 48.6982 34.8893L45.4282 37.1793C45.211 37.3307 45.0627 37.5621 45.0158 37.8226C44.969 38.0832 45.0273 38.3517 45.1782 38.5693L47.4682 41.8493C47.5601 41.9818 47.6826 42.0901 47.8254 42.1649C47.9682 42.2398 48.1269 42.279 48.2882 42.2793C48.4955 42.2809 48.6982 42.218 48.8682 42.0993C48.9763 42.0235 49.0684 41.9271 49.1391 41.8155C49.2097 41.7039 49.2576 41.5795 49.2799 41.4493C49.3022 41.3192 49.2985 41.1859 49.2691 41.0571C49.2396 40.9284 49.1849 40.8068 49.1082 40.6993L48.2182 39.4293C49.333 39.8733 50.289 40.6414 50.9629 41.6343C51.6367 42.6272 51.9973 43.7993 51.9982 44.9993C51.9982 45.2645 52.1035 45.5189 52.2911 45.7064C52.4786 45.8939 52.7329 45.9993 52.9982 45.9993C53.2634 45.9993 53.5177 45.8939 53.7053 45.7064C53.8928 45.5189 53.9982 45.2645 53.9982 44.9993C53.9962 43.3273 53.4704 41.6979 52.4947 40.3401C51.5189 38.9823 50.1423 37.9644 48.5582 37.4293L49.8482 36.5193C50.0653 36.3679 50.2136 36.1366 50.2605 35.876C50.3074 35.6154 50.249 35.3469 50.0982 35.1293Z" fill="#26BDE2" style="fill:#26BDE2;fill:color(display-p3 0.1490 0.7412 0.8863);fill-opacity:1;"/>
<path d="M35.4073 46.3899C35.2946 46.6299 35.2819 46.9049 35.3719 47.1543C35.4619 47.4037 35.6473 47.6072 35.8873 47.7199L39.5073 49.4099C39.6429 49.4693 39.7893 49.5 39.9373 49.4999C40.1269 49.4985 40.3121 49.4432 40.4715 49.3405C40.6308 49.2378 40.7577 49.0919 40.8373 48.9199L42.5273 45.2999C42.6307 45.0632 42.6385 44.7956 42.549 44.5533C42.4595 44.3109 42.2797 44.1126 42.0473 43.9999C41.8073 43.8872 41.5323 43.8745 41.2829 43.9645C41.0335 44.0545 40.8301 44.2399 40.7173 44.4799L40.0673 45.8899C40.0227 45.5953 39.9993 45.2979 39.9973 44.9999C39.9984 43.9477 40.2761 42.9143 40.8027 42.0034C41.3293 41.0924 42.0861 40.336 42.9973 39.8099C43.1168 39.7474 43.2224 39.6613 43.3078 39.557C43.3932 39.4526 43.4566 39.332 43.4942 39.2024C43.5318 39.0729 43.5428 38.9371 43.5265 38.8032C43.5102 38.6694 43.4671 38.5401 43.3996 38.4234C43.3321 38.3066 43.2416 38.2047 43.1337 38.1238C43.0258 38.0429 42.9027 37.9846 42.7717 37.9525C42.6407 37.9204 42.5046 37.9152 42.3715 37.9371C42.2384 37.959 42.1111 38.0076 41.9973 38.0799C40.7824 38.7814 39.7732 39.79 39.0712 41.0046C38.3691 42.2191 37.9988 43.597 37.9973 44.9999C38.0017 45.5281 38.062 46.0544 38.1773 46.5699L36.7373 45.8999C36.6179 45.8444 36.4886 45.8131 36.357 45.8077C36.2254 45.8024 36.0941 45.823 35.9705 45.8686C35.8469 45.9141 35.7336 45.9836 35.6369 46.0731C35.5403 46.1625 35.4622 46.2702 35.4073 46.3899Z" fill="#26BDE2" style="fill:#26BDE2;fill:color(display-p3 0.1490 0.7412 0.8863);fill-opacity:1;"/>
<path d="M41.6407 50.5607C41.5095 50.7891 41.4737 51.0601 41.5411 51.3147C41.6085 51.5694 41.7736 51.7871 42.0007 51.9207C43.4464 52.7673 45.123 53.1342 46.7902 52.969C48.4574 52.8037 50.0293 52.1147 51.2807 51.0007L51.4207 52.5907C51.4432 52.84 51.5584 53.0718 51.7436 53.2403C51.9287 53.4088 52.1703 53.5017 52.4207 53.5007H52.5107C52.7744 53.4778 53.0183 53.3513 53.1889 53.1488C53.3595 52.9463 53.4428 52.6845 53.4207 52.4207L53.0707 48.4207C53.0502 48.157 52.9262 47.9122 52.7256 47.7398C52.5251 47.5674 52.2644 47.4814 52.0007 47.5007L48.0007 47.8507C47.8692 47.862 47.7412 47.8992 47.6241 47.9602C47.5071 48.0212 47.4032 48.1048 47.3186 48.2062C47.234 48.3075 47.1703 48.4246 47.1312 48.5506C47.0921 48.6767 47.0783 48.8093 47.0907 48.9407C47.116 49.2026 47.2437 49.444 47.4458 49.6125C47.648 49.781 47.9084 49.863 48.1707 49.8407L49.7107 49.7107C48.7692 50.4499 47.6281 50.8906 46.4341 50.9762C45.2402 51.0617 44.0479 50.7882 43.0107 50.1907C42.8965 50.1246 42.7705 50.0817 42.6397 50.0645C42.5089 50.0473 42.376 50.0562 42.2487 50.0906C42.1213 50.125 42.002 50.1842 41.8977 50.2649C41.7934 50.3456 41.706 50.4461 41.6407 50.5607Z" fill="#26BDE2" style="fill:#26BDE2;fill:color(display-p3 0.1490 0.7412 0.8863);fill-opacity:1;"/>
</svg>
