<svg width="28" height="28" viewBox="0 0 28 28" fill="none" xmlns="http://www.w3.org/2000/svg">
<path d="M1 22L3.6 17.8C5.1 15.5 7.6 14 10.4 14H17C17 16.2 15.2 18 13 18H11" stroke="#26BDE2" style="stroke:#26BDE2;stroke:color(display-p3 0.1490 0.7412 0.8863);stroke-opacity:1;" stroke-width="2" stroke-miterlimit="10" stroke-linecap="round" stroke-linejoin="round"/>
<path d="M14 18H21L22.2 16.4C23.3 14.9 25.1 14 27 14L24.3 18.8C22.9 21.4 20.1 23 17.2 23C12.5 23 7.9 24.4 4 27" stroke="#26BDE2" style="stroke:#26BDE2;stroke:color(display-p3 0.1490 0.7412 0.8863);stroke-opacity:1;" stroke-width="2" stroke-miterlimit="10" stroke-linecap="round" stroke-linejoin="round"/>
<path d="M22.1031 10.9C22.2031 10.3 22.3031 9.6 22.3031 9C22.3031 8.3 22.2031 7.7 22.1031 7.1C21.1031 7.2 20.1031 6.8 19.6031 5.8C19.1031 4.9 19.2031 3.8 19.8031 3C18.9031 2.1 17.7031 1.4 16.4031 1C16.0031 1.9 15.1031 2.6 14.0031 2.6C12.9031 2.6 12.0031 1.9 11.6031 1C10.3031 1.4 9.20312 2.1 8.20312 3C8.80313 3.8 8.90312 4.9 8.40312 5.8C7.90312 6.7 6.90313 7.2 5.90313 7.1C5.70313 7.7 5.70312 8.3 5.70312 9C5.70312 9.7 5.80313 10.3 5.90313 10.9" stroke="#26BDE2" style="stroke:#26BDE2;stroke:color(display-p3 0.1490 0.7412 0.8863);stroke-opacity:1;" stroke-width="2" stroke-miterlimit="10" stroke-linecap="round" stroke-linejoin="round"/>
<path d="M16.2 11C16.7 10.5 17 9.8 17 9C17 7.3 15.7 6 14 6C12.3 6 11 7.3 11 9C11 9.8 11.3 10.5 11.8 11" stroke="#26BDE2" style="stroke:#26BDE2;stroke:color(display-p3 0.1490 0.7412 0.8863);stroke-opacity:1;" stroke-width="2" stroke-miterlimit="10" stroke-linecap="round" stroke-linejoin="round"/>
</svg>
