<svg width="100" height="100" viewBox="0 0 100 100" fill="none" xmlns="http://www.w3.org/2000/svg">
<path d="M15 71.5385L22 60.2308C26.0385 54.0385 32.7692 50 40.3077 50H58.0769C58.0769 55.9231 53.2308 60.7692 47.3077 60.7692H41.9231" stroke="#26BDE2" stroke-width="5.38462" stroke-miterlimit="10" stroke-linecap="round" stroke-linejoin="round"/>
<path d="M50.0012 60.7692H68.8474L72.0781 56.4615C75.0397 52.4231 79.8858 50 85.0012 50L77.732 62.9231C73.9627 69.9231 66.4243 74.2308 58.6166 74.2308C45.9627 74.2308 33.5781 78 23.0781 85" stroke="#26BDE2" stroke-width="5.38462" stroke-miterlimit="10" stroke-linecap="round" stroke-linejoin="round"/>
<path d="M71.8159 41.6538C72.0851 40.0385 72.3544 38.1538 72.3544 36.5385C72.3544 34.6538 72.0851 33.0385 71.8159 31.4231C69.1236 31.6923 66.4313 30.6154 65.0851 27.9231C63.739 25.5 64.0082 22.5385 65.6236 20.3846C63.2005 17.9615 59.9697 16.0769 56.4697 15C55.3928 17.4231 52.9697 19.3077 50.0082 19.3077C47.0467 19.3077 44.6236 17.4231 43.5467 15C40.0467 16.0769 37.0852 17.9615 34.3929 20.3846C36.0083 22.5385 36.2775 25.5 34.9313 27.9231C33.5852 30.3462 30.8929 31.6923 28.2006 31.4231C27.6621 33.0385 27.6621 34.6538 27.6621 36.5385C27.6621 38.4231 27.9314 40.0385 28.2006 41.6538" stroke="#26BDE2" stroke-width="5.38462" stroke-miterlimit="10" stroke-linecap="round" stroke-linejoin="round"/>
<path d="M55.9219 41.9225C57.268 40.5763 58.0757 38.6917 58.0757 36.5379C58.0757 31.9609 54.5757 28.4609 49.9988 28.4609C45.4219 28.4609 41.9219 31.9609 41.9219 36.5379C41.9219 38.6917 42.7296 40.5763 44.0757 41.9225" stroke="#26BDE2" stroke-width="5.38462" stroke-miterlimit="10" stroke-linecap="round" stroke-linejoin="round"/>
</svg>
