<svg width="100" height="100" viewBox="0 0 100 100" fill="none" xmlns="http://www.w3.org/2000/svg">
<path d="M52.2716 56.4336C51.5061 56.4336 50.8848 57.0548 50.8848 57.8204C50.8848 58.5859 51.5061 59.2072 52.2716 59.2072C53.0371 59.2072 53.6584 58.5859 53.6584 57.8204C53.6584 57.0548 53.0371 56.4336 52.2716 56.4336Z" fill="#26BDE2"/>
<path d="M49.4982 39.791C48.7327 39.791 48.1113 40.4123 48.1113 41.1779C48.1113 41.9434 48.7327 42.5646 49.4982 42.5646C50.2637 42.5646 50.8849 41.9434 50.8849 41.1779C50.8849 40.4123 50.2637 39.791 49.4982 39.791Z" fill="#26BDE2"/>
<path d="M49.4984 34.2441C45.675 34.2441 42.5645 37.3547 42.5645 41.1781C42.5645 45.0016 45.675 48.1121 49.4984 48.1121C53.3219 48.1121 56.4324 45.0017 56.4324 41.1781C56.4324 37.3547 53.3219 34.2441 49.4984 34.2441ZM49.4984 45.3385C47.2043 45.3385 45.3381 43.4721 45.3381 41.1781C45.3381 38.884 47.2043 37.0178 49.4984 37.0178C51.7924 37.0178 53.6588 38.884 53.6588 41.1781C53.6588 43.4721 51.7924 45.3385 49.4984 45.3385Z" fill="#26BDE2"/>
<path d="M76.2672 68.3602C72.5951 68.3602 69.2206 70.7164 68.0163 73.9256C67.215 73.869 66.4106 73.9512 65.6389 74.17C64.0682 72.2511 61.7385 71.1338 59.2094 71.1338C58.25 71.1338 57.3163 71.294 56.4358 71.6049V63.695L57.9943 60.578L62.216 66.9105C62.5208 67.3676 63.0714 67.6066 63.6222 67.5048C64.1677 67.4039 64.6004 66.9877 64.7226 66.4467L66.6481 57.9192C68.0128 53.7297 66.603 49.2343 63.2044 46.9659C62.5074 46.5012 61.7631 46.1346 60.9821 45.8664L61.5107 42.2723C61.5122 42.2623 61.5136 42.2523 61.5147 42.2425C62.3106 35.8703 61.2135 28.6599 58.0209 23.1746C54.6718 17.4286 50.354 14.289 50.3109 14.2581C49.7924 13.8858 49.0809 13.9205 48.5957 14.3346C48.5718 14.3549 48.5325 14.3863 48.4796 14.4292C43.2681 18.6448 39.211 24.661 37.6935 31.4431C36.9582 34.7301 37.0629 38.8311 37.406 41.573C37.4071 41.5825 37.4085 41.5919 37.4097 41.6014L38.0325 45.8637C37.2473 46.1323 36.4994 46.4998 35.7989 46.9664C32.4008 49.2344 30.9909 53.7299 32.3557 57.9193L34.2812 66.4469C34.4033 66.9878 34.8361 67.4042 35.3815 67.505C35.9268 67.6063 36.48 67.3721 36.7878 66.9106L41.0094 60.5782L42.5679 63.6951V71.6078C41.6881 71.2959 40.7549 71.134 39.7943 71.134C37.2652 71.134 34.9355 72.2513 33.3648 74.1703C32.5929 73.9513 31.7886 73.8692 30.9876 73.9256C29.7833 70.7165 26.4088 68.3604 22.7368 68.3604C18.0011 68.3604 14 72.1708 14 76.6811C14 81.1914 18.0011 85.002 22.7368 85.002H76.2673C81.0031 85.002 85.0042 81.1914 85.0042 76.6811C85.0042 72.1708 81.0029 68.3602 76.2672 68.3602ZM60.5686 48.6786C60.9489 48.8428 61.3157 49.0402 61.6653 49.2734C64.0072 50.8364 64.9867 54.1325 63.9943 57.1105C63.9797 57.1542 63.9673 57.1985 63.9573 57.2433L62.7295 62.6808L59.2723 57.4949L60.5686 48.6786ZM49.5178 17.1767C52.1011 19.3937 54.5448 22.4819 56.0431 25.328C54.2635 26.9494 51.9281 27.8656 49.502 27.8656C47.0697 27.8656 44.7298 26.9453 42.9475 25.3161C44.5948 22.2947 46.8849 19.4552 49.5178 17.1767ZM36.2742 62.6808L35.0465 57.2433C35.0364 57.1984 35.0241 57.154 35.0095 57.1105C34.0172 54.1325 34.9967 50.8364 37.3375 49.2743C37.69 49.0395 38.0599 48.8408 38.4433 48.6758L39.7318 57.4945L36.2742 62.6808ZM42.38 56.4338L40.1563 41.2147C39.7635 38.0635 39.8592 34.4673 40.4001 32.0487C40.7145 30.6435 41.1558 29.2574 41.7116 27.9075C43.9094 29.661 46.6566 30.6394 49.502 30.6394C52.3136 30.6394 55.0314 29.6831 57.2158 27.968C58.7678 32.1521 59.3454 37.2119 58.7645 41.8841L56.4831 57.399L54.1921 61.9811H44.8118L43.425 59.2074H46.7284C47.4943 59.2074 48.1151 58.5864 48.1151 57.8205C48.1151 57.0546 47.4943 56.4338 46.7284 56.4338H42.38ZM76.2672 82.2282H22.7367C19.56 82.2282 16.7735 79.6361 16.7735 76.681C16.7735 73.7258 19.56 71.1338 22.7367 71.1338C25.1424 71.1338 27.4227 72.6487 28.3008 74.6774C27.6653 75.005 27.0793 75.4295 26.5701 75.9399C26.0291 76.482 26.0299 77.3601 26.572 77.9012C27.1141 78.4421 27.9921 78.4413 28.5332 77.8992C29.0398 77.3916 29.6699 77.023 30.3563 76.833C30.3562 76.833 30.3565 76.833 30.3563 76.833C30.3574 76.8327 30.3588 76.8323 30.3598 76.832C31.334 76.5626 32.3687 76.6541 33.2756 77.091C33.6984 77.2938 34.0811 77.5655 34.4133 77.8986C34.9522 78.4392 35.8303 78.4442 36.3745 77.9016C36.9168 77.361 36.9183 76.4829 36.3776 75.9405C36.2244 75.7868 36.0641 75.6417 35.8984 75.5041C36.9234 74.4886 38.3067 73.9074 39.7943 73.9074C40.7852 73.9074 41.7322 74.1634 42.5679 74.6526V78.0678C42.5679 78.8338 43.1888 79.4546 43.9548 79.4546C44.7207 79.4546 45.3415 78.8338 45.3415 78.0678C45.3415 76.2995 45.3415 66.7741 45.3415 64.7545H53.6624C53.6624 66.3652 53.6624 76.4601 53.6624 78.0678C53.6624 78.8338 54.2832 79.4546 55.0491 79.4546C55.8151 79.4546 56.436 78.8338 56.436 78.0678V74.6488C57.2738 74.1622 58.2207 73.9074 59.2096 73.9074C60.6972 73.9074 62.0805 74.4886 63.1054 75.5041C62.9398 75.6417 62.7795 75.7868 62.6263 75.9405C62.0856 76.4829 62.0871 77.361 62.6294 77.9016C63.17 78.4407 64.0482 78.4428 64.5906 77.8986C64.9228 77.5655 65.3053 77.2938 65.7303 77.0898C66.6362 76.6536 67.6721 76.5623 68.6482 76.8332C69.3339 77.023 69.9639 77.3914 70.4705 77.8992C71.0115 78.4413 71.8895 78.4422 72.4317 77.9012C72.9738 77.3601 72.9748 76.482 72.4337 75.9399C71.9243 75.4295 71.3383 75.005 70.7029 74.6774C71.5811 72.6487 73.8615 71.1338 76.2671 71.1338C79.4438 71.1338 82.2303 73.7258 82.2303 76.681C82.2303 79.6361 79.444 82.2282 76.2672 82.2282Z" fill="#26BDE2"/>
</svg>
