<svg width="75" height="75" viewBox="0 0 75 75" fill="none" xmlns="http://www.w3.org/2000/svg">
<path d="M40.4258 44.8223C39.6172 44.8223 38.9609 45.4785 38.9609 46.2871C38.9609 47.0957 39.6172 47.752 40.4258 47.752C41.2344 47.752 41.8906 47.0957 41.8906 46.2871C41.8906 45.4785 41.2344 44.8223 40.4258 44.8223Z" fill="#26BDE2" style="fill:#26BDE2;fill:color(display-p3 0.1490 0.7412 0.8863);fill-opacity:1;"/>
<path d="M37.4961 27.2441C36.6875 27.2441 36.0312 27.9004 36.0312 28.709C36.0312 29.5176 36.6875 30.1738 37.4961 30.1738C38.3047 30.1738 38.9609 29.5176 38.9609 28.709C38.9609 27.9004 38.3047 27.2441 37.4961 27.2441Z" fill="#26BDE2" style="fill:#26BDE2;fill:color(display-p3 0.1490 0.7412 0.8863);fill-opacity:1;"/>
<path d="M37.4961 21.3848C33.4575 21.3848 30.1719 24.6704 30.1719 28.709C30.1719 32.7476 33.4575 36.0332 37.4961 36.0332C41.5347 36.0332 44.8203 32.7477 44.8203 28.709C44.8203 24.6704 41.5347 21.3848 37.4961 21.3848ZM37.4961 33.1035C35.0729 33.1035 33.1016 31.1321 33.1016 28.709C33.1016 26.2858 35.0729 24.3145 37.4961 24.3145C39.9192 24.3145 41.8906 26.2858 41.8906 28.709C41.8906 31.1321 39.9192 33.1035 37.4961 33.1035Z" fill="#26BDE2" style="fill:#26BDE2;fill:color(display-p3 0.1490 0.7412 0.8863);fill-opacity:1;"/>
<path d="M65.7713 57.4213C61.8926 57.4213 58.3282 59.9101 57.0561 63.2999C56.2097 63.2401 55.3601 63.327 54.5449 63.5581C52.8858 61.5312 50.425 60.351 47.7536 60.351C46.7402 60.351 45.754 60.5202 44.8239 60.8486V52.4936L46.4701 49.2012L50.9294 55.89C51.2514 56.3729 51.8329 56.6253 52.4147 56.5178C52.9909 56.4112 53.448 55.9716 53.5771 55.4001L55.6109 46.3927C57.0524 41.9675 55.5633 37.2191 51.9734 34.823C51.2372 34.3322 50.451 33.945 49.6261 33.6617L50.1844 29.8653C50.186 29.8547 50.1875 29.8442 50.1886 29.8338C51.0293 23.103 49.8705 15.4868 46.4982 9.6929C42.9606 3.62347 38.3999 0.307208 38.3543 0.274542C37.8067 -0.118622 37.0551 -0.0820005 36.5426 0.355402C36.5174 0.376789 36.4759 0.41004 36.42 0.455304C30.9152 4.90814 26.6298 11.2629 25.0269 18.4267C24.2502 21.8987 24.3608 26.2304 24.7232 29.1267C24.7244 29.1367 24.7258 29.1466 24.7271 29.1566L25.385 33.6588C24.5556 33.9425 23.7656 34.3307 23.0256 34.8236C19.4363 37.2192 17.9471 41.9677 19.3887 46.3928L21.4225 55.4003C21.5515 55.9717 22.0087 56.4115 22.5848 56.518C23.1608 56.625 23.7451 56.3776 24.0702 55.8901L28.5294 49.2014L30.1756 52.4937V60.8517C29.2463 60.5222 28.2606 60.3512 27.2459 60.3512C24.5745 60.3512 22.1137 61.5314 20.4546 63.5584C19.6392 63.3271 18.7897 63.2403 17.9436 63.2999C16.6715 59.9102 13.1071 57.4215 9.22852 57.4215C4.22622 57.4215 0 61.4464 0 66.2105C0 70.9746 4.22622 74.9996 9.22852 74.9996H65.7715C70.7738 74.9996 75 70.9746 75 66.2105C75 61.4464 70.7736 57.4213 65.7713 57.4213ZM49.1893 36.6321C49.591 36.8056 49.9784 37.0141 50.3477 37.2604C52.8214 38.9114 53.856 42.3929 52.8078 45.5385C52.7924 45.5847 52.7793 45.6315 52.7687 45.6788L51.4718 51.4223L47.82 45.9446L49.1893 36.6321ZM37.5166 3.35745C40.2453 5.69915 42.8265 8.96121 44.4091 11.9674C42.5294 13.6801 40.0625 14.6479 37.4999 14.6479C34.9307 14.6479 32.4592 13.6758 30.5766 11.9549C32.3166 8.76346 34.7355 5.76419 37.5166 3.35745ZM23.5277 51.4223L22.2309 45.6788C22.2202 45.6314 22.2072 45.5845 22.1918 45.5385C21.1437 42.3929 22.1783 38.9114 24.6508 37.2613C25.0232 37.0133 25.4139 36.8034 25.8189 36.6292L27.1799 45.9441L23.5277 51.4223ZM29.9771 44.8237L27.6283 28.7482C27.2134 25.4196 27.3144 21.6211 27.8858 19.0664C28.2179 17.5821 28.684 16.118 29.2711 14.6921C31.5926 16.5443 34.4944 17.5777 37.4999 17.5777C40.4697 17.5777 43.3405 16.5676 45.6478 14.756C47.2871 19.1756 47.8973 24.5201 47.2837 29.4553L44.8739 45.8433L42.454 50.6832H32.5458V50.683L31.0809 47.7534H34.5702C35.3792 47.7534 36.035 47.0975 36.035 46.2885C36.035 45.4795 35.3792 44.8237 34.5702 44.8237H29.9771ZM65.7713 72.0698H9.22837C5.87285 72.0698 2.92954 69.3318 2.92954 66.2104C2.92954 63.0889 5.87285 60.351 9.22837 60.351C11.7694 60.351 14.1781 61.9512 15.1056 64.094C14.4343 64.4401 13.8154 64.8885 13.2775 65.4276C12.7061 66.0002 12.7069 66.9277 13.2795 67.4992C13.8521 68.0706 14.7795 68.0697 15.3511 67.4971C15.8862 66.961 16.5517 66.5716 17.2768 66.3709C17.277 66.3709 17.2771 66.3708 17.2772 66.3708C17.2783 66.3705 17.2794 66.3702 17.2805 66.3699C18.3095 66.0853 19.4024 66.182 20.3603 66.6434C20.8069 66.8577 21.2112 67.1447 21.5621 67.4965C22.1313 68.0675 23.0588 68.0728 23.6336 67.4997C24.2065 66.9286 24.208 66.0011 23.6369 65.4282C23.4751 65.2659 23.3058 65.1126 23.1308 64.9672C24.2134 63.8946 25.6746 63.2807 27.2459 63.2807C28.2926 63.2807 29.2929 63.5511 30.1756 64.0678V67.6752C30.1756 68.4843 30.8314 69.1401 31.6405 69.1401C32.4495 69.1401 33.1053 68.4843 33.1053 67.6752C33.1053 65.8074 33.1053 55.746 33.1053 53.6127H41.8944C41.8944 55.3141 41.8944 65.977 41.8944 67.6752C41.8944 68.4843 42.5502 69.1401 43.3592 69.1401C44.1683 69.1401 44.8241 68.4843 44.8241 67.6752V64.0638C45.7091 63.5498 46.7093 63.2807 47.7538 63.2807C49.3251 63.2807 50.7863 63.8946 51.8689 64.9672C51.6939 65.1126 51.5246 65.2659 51.3628 65.4282C50.7917 66.0011 50.7932 66.9286 51.3661 67.4997C51.9371 68.0691 52.8647 68.0713 53.4376 67.4965C53.7885 67.1447 54.1926 66.8577 54.6415 66.6422C55.5983 66.1814 56.6925 66.085 57.7236 66.3711C58.4479 66.5716 59.1133 66.9608 59.6484 67.4971C60.2199 68.0697 61.1473 68.0707 61.72 67.4992C62.2926 66.9277 62.2937 66.0002 61.7221 65.4276C61.184 64.8885 60.5651 64.4401 59.8939 64.094C60.8215 61.9512 63.2303 60.351 65.7712 60.351C69.1267 60.351 72.07 63.0889 72.07 66.2104C72.07 69.3318 69.1269 72.0698 65.7713 72.0698Z" fill="#26BDE2" style="fill:#26BDE2;fill:color(display-p3 0.1490 0.7412 0.8863);fill-opacity:1;"/>
</svg>
