<svg width="453" height="378" viewBox="0 0 453 378" fill="none" xmlns="http://www.w3.org/2000/svg">
<path d="M333.519 65.3741C330.878 53.8741 318.028 45.4531 305.933 45.4531C291.691 45.4531 279.714 55.1281 276.202 68.2621C270.552 65.9001 263.183 67.3921 260.657 71.1141C257.381 75.9411 258.851 82.1531 264.685 82.1531H275.73H287.705H318.047H336.137H338.878C352.171 82.1541 349.878 62.5411 333.519 65.3741Z" fill="#C3EDEF"/>
<path d="M155.363 83.8429C152.722 72.3429 139.872 63.9219 127.777 63.9219C113.535 63.9219 101.558 73.5969 98.0461 86.7309C92.3961 84.3689 85.0271 85.8609 82.5011 89.5829C79.2251 94.4099 80.6951 100.622 86.5291 100.622H97.5741H109.549H139.891H157.981H160.723C174.016 100.622 171.723 81.0099 155.363 83.8429Z" fill="#C3EDEF"/>
<path d="M403.694 196.365C402.249 190.07 395.215 185.461 388.595 185.461C380.8 185.461 374.244 190.757 372.321 197.946C369.228 196.653 365.195 197.47 363.812 199.507C362.019 202.149 362.824 205.549 366.017 205.549H372.062H378.617H395.225H405.127H406.628C413.904 205.55 412.648 194.815 403.694 196.365Z" fill="#C3EDEF"/>
<path d="M86.3657 149.322C84.4067 140.793 74.8757 134.547 65.9057 134.547C55.3427 134.547 46.4597 141.723 43.8547 151.464C39.6637 149.712 34.1987 150.819 32.3247 153.579C29.8947 157.159 30.9847 161.767 35.3117 161.767H43.5037H52.3857H74.8897H88.3067H90.3397C100.2 161.767 98.4987 147.221 86.3657 149.322Z" fill="#C3EDEF"/>
<path d="M241.077 304.674C241.47 304.563 241.866 304.457 242.256 304.343C242.256 304.343 198.194 269.006 174.609 259.346C154.219 250.994 113.03 293.108 102.242 304.674H241.077Z" fill="#A8AAE0"/>
<path d="M152.268 272.82C155.318 272.025 158.032 270.211 160.585 268.44C161.025 268.135 161.702 268.355 161.953 268.799C166.156 276.238 176.096 270.475 181.251 267.107C181.629 266.86 182.151 266.972 182.463 267.263C186.218 270.762 191.743 272.142 196.196 271.122C188.371 266.167 180.79 261.875 174.614 259.345C166.051 255.838 153.819 261.232 141.711 269.526C143.538 272.569 148.89 273.7 152.268 272.82Z" fill="#BCBFF5"/>
<path d="M153.124 304.674C153.517 304.563 153.913 304.457 154.303 304.343C154.303 304.343 110.241 269.006 86.6561 259.346C66.2661 250.994 25.0771 293.108 14.2891 304.674H153.124Z" fill="#BFC1FF"/>
<path d="M69.2226 270.799C69.5076 270.13 70.5676 270.113 70.9496 270.799C76.1036 280.058 89.2366 279.199 95.8786 272.097C96.3616 271.58 97.0796 271.81 97.4496 272.299C101.136 277.172 108.075 276.877 112.451 273.837C103.167 267.757 93.9356 262.328 86.6556 259.346C76.1946 255.061 60.2606 264.06 45.7656 275.4C46.3896 278.384 65.0856 280.498 69.2226 270.799Z" fill="#DEDFFF"/>
<path d="M162.686 314.107C162.686 314.107 165.214 298.162 148.963 307.417C148.963 307.417 148.782 292.484 134.337 306.023C134.337 306.023 130.135 282.396 122.058 304.755C122.058 304.755 114.317 277.127 107.082 298.254C107.082 298.254 99.0912 285.08 91.8442 285.993C88.5612 286.406 83.3552 292.957 82.4882 300.351C82.4882 300.351 73.6642 278.932 62.4692 281.099C51.2742 283.266 51.0932 296.448 51.0932 296.448C51.0932 296.448 44.2312 278.847 39.7172 294.961C39.7172 294.961 30.5412 282.003 22.8502 304.213C22.8502 304.213 4.86716 285.434 6.85316 304.574C6.85316 304.574 -1.27284 302.821 0.172164 314.106H162.686V314.107Z" fill="#2ED99E"/>
<path d="M279.922 314.107C279.922 314.107 282.45 298.162 266.198 307.417C266.198 307.417 266.017 292.484 251.572 306.023C251.572 306.023 247.37 282.396 239.293 304.755C239.293 304.755 231.552 277.127 224.317 298.254C224.317 298.254 216.326 285.08 209.079 285.993C205.796 286.406 200.59 292.957 199.723 300.351C199.723 300.351 190.899 278.932 179.704 281.099C168.508 283.266 168.328 296.448 168.328 296.448C168.328 296.448 161.466 278.847 156.952 294.961C156.952 294.961 147.776 282.003 140.085 304.213C140.085 304.213 122.102 285.434 124.088 304.574C124.088 304.574 115.962 302.821 117.407 314.106H279.922V314.107Z" fill="#2ED99E"/>
<path d="M208.734 304.674C208.341 304.563 207.945 304.457 207.555 304.343C207.555 304.343 251.617 269.006 275.202 259.346C295.592 250.994 336.781 293.108 347.569 304.674H208.734Z" fill="#A8AAE0"/>
<path d="M297.545 272.82C294.495 272.025 291.781 270.211 289.228 268.44C288.788 268.135 288.111 268.355 287.86 268.799C283.657 276.238 273.717 270.475 268.562 267.107C268.184 266.86 267.662 266.972 267.35 267.263C263.595 270.762 258.07 272.142 253.617 271.122C261.442 266.167 269.023 261.875 275.199 259.345C283.762 255.838 295.994 261.232 308.102 269.526C306.274 272.569 300.922 273.7 297.545 272.82Z" fill="#BCBFF5"/>
<path d="M296.687 304.674C296.294 304.563 295.898 304.457 295.508 304.343C295.508 304.343 339.569 269.006 363.155 259.346C383.545 250.994 424.734 293.108 435.522 304.674H296.687Z" fill="#BFC1FF"/>
<path d="M380.587 270.799C380.302 270.13 379.242 270.113 378.86 270.799C373.706 280.058 360.573 279.199 353.93 272.097C353.447 271.58 352.729 271.81 352.36 272.299C348.674 277.172 341.735 276.877 337.359 273.837C346.643 267.757 355.873 262.328 363.154 259.346C373.615 255.061 389.549 264.06 404.044 275.4C403.421 278.384 384.724 280.498 380.587 270.799Z" fill="#DEDFFF"/>
<path d="M289.416 314.107C289.416 314.107 286.888 298.162 303.139 307.417C303.139 307.417 303.32 292.484 317.765 306.023C317.765 306.023 321.967 282.396 330.044 304.755C330.044 304.755 337.785 277.127 345.02 298.254C345.02 298.254 353.011 285.08 360.258 285.993C363.541 286.406 368.747 292.957 369.614 300.351C369.614 300.351 378.438 278.932 389.633 281.099C400.828 283.266 401.009 296.448 401.009 296.448C401.009 296.448 407.871 278.847 412.385 294.961C412.385 294.961 421.561 282.003 429.252 304.213C429.252 304.213 447.235 285.434 445.249 304.574C445.249 304.574 453.375 302.821 451.93 314.106H289.416V314.107Z" fill="#2ED99E"/>
<path d="M172.181 314.107C172.181 314.107 169.653 298.162 185.905 307.417C185.905 307.417 186.086 292.484 200.531 306.023C200.531 306.023 204.733 282.396 212.81 304.755C212.81 304.755 220.551 277.127 227.786 298.254C227.786 298.254 235.777 285.08 243.024 285.993C246.307 286.406 251.513 292.957 252.38 300.351C252.38 300.351 261.204 278.932 272.399 281.099C283.594 283.266 283.775 296.448 283.775 296.448C283.775 296.448 290.637 278.847 295.151 294.961C295.151 294.961 304.327 282.003 312.018 304.213C312.018 304.213 330.001 285.434 328.015 304.574C328.015 304.574 336.141 302.821 334.696 314.106H172.181V314.107Z" fill="#2ED99E"/>
<path d="M183.627 157.594C185.551 145.819 177.566 134.713 165.79 132.788C154.015 130.863 142.909 138.849 140.985 150.624C139.06 162.4 147.046 173.505 158.821 175.43C170.596 177.355 181.702 169.369 183.627 157.594Z" fill="#C4C9F6"/>
<path d="M167.461 166.899C174.522 164.05 177.938 156.017 175.089 148.955C172.241 141.893 164.207 138.478 157.145 141.327C150.084 144.175 146.669 152.209 149.517 159.27C152.366 166.332 160.399 169.747 167.461 166.899Z" fill="white"/>
<path d="M169.861 135.363H154.758L155.992 126.57H168.626L169.861 135.363Z" fill="#C4C9F6"/>
<path d="M181.917 148.801L172.797 136.763L180.551 132.438L188.18 142.507L181.917 148.801Z" fill="#C4C9F6"/>
<path d="M178.906 165.772L182.392 151.078L190.662 154.309L187.746 166.601L178.906 165.772Z" fill="#C4C9F6"/>
<path d="M163.898 174.252L177.454 167.594L180.223 176.03L168.883 181.6L163.898 174.252Z" fill="#C4C9F6"/>
<path d="M147.819 168.062L161.58 174.286L156.832 181.788L145.32 176.583L147.819 168.062Z" fill="#C4C9F6"/>
<path d="M142.359 151.719L146.31 166.295L137.501 167.405L134.195 155.211L142.359 151.719Z" fill="#C4C9F6"/>
<path d="M151.498 137.108L142.765 149.43L136.305 143.339L143.61 133.031L151.498 137.108Z" fill="#C4C9F6"/>
<path d="M342.792 149.482C350.58 136.196 346.123 119.113 332.837 111.325C319.551 103.537 302.468 107.994 294.68 121.28C286.892 134.566 291.349 151.649 304.635 159.437C317.92 167.225 335.004 162.768 342.792 149.482Z" fill="#C4C9F6"/>
<path d="M337.261 140.926C340.342 130.689 334.54 119.892 324.303 116.811C314.066 113.73 303.269 119.531 300.188 129.768C297.107 140.006 302.908 150.802 313.146 153.883C323.383 156.964 334.18 151.163 337.261 140.926Z" fill="white"/>
<path d="M313.391 160.888L332.58 157.461L333.008 168.913L316.954 171.781L313.391 160.888Z" fill="#C4C9F6"/>
<path d="M295.191 146.898L309.71 159.906L300.951 167.296L288.805 156.415L295.191 146.898Z" fill="#C4C9F6"/>
<path d="M294.824 124.664L294.024 144.141L282.75 142.084L283.419 125.79L294.824 124.664Z" fill="#C4C9F6"/>
<path d="M311.746 110.231L296.209 122.005L290.625 111.997L303.622 102.148L311.746 110.231Z" fill="#C4C9F6"/>
<path d="M334.67 114.863L315.945 109.442L320.632 98.9844L336.296 103.519L334.67 114.863Z" fill="#C4C9F6"/>
<path d="M344.651 134.745L336.922 116.85L347.973 113.812L354.439 128.783L344.651 134.745Z" fill="#C4C9F6"/>
<path d="M335.664 155.09L344.555 137.742L353.929 144.337L346.491 158.849L335.664 155.09Z" fill="#C4C9F6"/>
<path d="M225.518 113.689H218.706C216.599 113.689 214.891 111.981 214.891 109.874V102.867H229.333V109.874C229.333 111.981 227.625 113.689 225.518 113.689Z" fill="#5452C3"/>
<path d="M229.333 102.867H214.891V108.137H229.333V102.867Z" fill="#424099"/>
<path d="M259.528 37.475C259.528 16.778 242.75 0 222.053 0C201.356 0 184.578 16.778 184.578 37.475C184.578 47.624 189.667 56.421 194.818 64.809C196.341 67.289 206.633 88.234 208.593 91.435H235.513C238.589 84.525 241.693 77.464 245.383 70.87C251.69 59.602 259.528 50.536 259.528 37.475Z" fill="#FCF57B"/>
<path d="M233.012 104.799H211.209L208.594 91.4375H235.626L233.012 104.799Z" fill="#5452C3"/>
<path d="M218.842 95.6931L208.595 49.0531C208.595 49.0531 205.99 37.7731 200.409 40.0861C193.105 43.1141 201.009 66.2651 222.112 66.2651C243.215 66.2651 249.236 46.9721 246.655 42.4261C244.075 37.8801 237.641 39.8911 235.628 49.0531C233.615 58.2151 225.381 95.6921 225.381 95.6921" stroke="#5452C3" stroke-width="1.6223" stroke-miterlimit="10"/>
<path d="M234.969 94.7985L235.626 91.4375H208.594L209.252 94.7985H234.969Z" fill="#424099"/>
<path d="M233.703 101.245L234.292 98.2344H209.922L210.511 101.245H233.703Z" fill="#424099"/>
<path d="M211.151 23.0445C208.627 27.4155 203.663 29.2745 200.063 27.1965C196.463 25.1185 195.591 19.8895 198.115 15.5185C200.639 11.1475 205.603 9.28849 209.203 11.3665C212.802 13.4445 213.674 18.6725 211.151 23.0445Z" fill="#FEFEFE"/>
<path d="M78.0697 377.45C105.14 377.45 127.085 374.065 127.085 369.889C127.085 365.713 105.14 362.328 78.0697 362.328C50.9995 362.328 29.0547 365.713 29.0547 369.889C29.0547 374.065 50.9995 377.45 78.0697 377.45Z" fill="#E4E7E4"/>
<path d="M352.57 377.45C379.64 377.45 401.585 374.065 401.585 369.889C401.585 365.713 379.64 362.328 352.57 362.328C325.499 362.328 303.555 365.713 303.555 369.889C303.555 374.065 325.499 377.45 352.57 377.45Z" fill="#E4E7E4"/>
<path d="M263.093 355.474C290.163 355.474 312.108 352.088 312.108 347.913C312.108 343.737 290.163 340.352 263.093 340.352C236.023 340.352 214.078 343.737 214.078 347.913C214.078 352.088 236.023 355.474 263.093 355.474Z" fill="#E4E7E4"/>
<path d="M273.251 241.314C272.232 258.194 270.75 275.1 269.127 291.984C268.307 300.428 267.503 308.872 266.499 317.313C265.504 325.754 264.459 334.192 263.088 342.635L257.052 342.552C255.927 334.041 255.247 325.528 254.667 317.018C254.086 308.508 253.773 300.004 253.472 291.5C252.907 274.489 252.613 257.505 252.922 240.5L273.251 241.314Z" fill="#883C79"/>
<path d="M282.528 234.617C282.495 234.639 282.475 234.969 282.448 235.161L282.383 235.893L282.273 237.435C282.207 238.483 282.167 239.557 282.135 240.641C282.074 242.809 282.041 245.012 282.058 247.231C282.07 251.669 282.255 256.149 282.521 260.65C283.007 269.659 283.99 278.708 285.197 287.759L286.152 294.548C286.48 296.736 286.841 298.933 287.295 301.135C288.163 305.542 289.198 309.982 290.298 314.438C292.556 323.334 295.09 332.272 297.636 341.208L290.816 343.549C287.369 334.995 283.585 326.557 279.923 317.937C278.068 313.634 276.253 309.278 274.569 304.8C273.723 302.566 272.916 300.291 272.114 297.997L269.865 291.295C266.921 282.331 264.243 273.248 261.792 264.002C260.554 259.382 259.471 254.704 258.409 249.96C257.878 247.59 257.393 245.192 256.937 242.755C256.705 241.537 256.5 240.305 256.286 239.047L255.984 237.128L255.842 236.128C255.798 235.742 255.752 235.495 255.711 234.939L282.528 234.617Z" fill="#A64993"/>
<path d="M247.45 347.71L263.262 347.912C264.008 347.924 264.623 347.329 264.635 346.583L264.685 343.755C264.665 342.564 263.872 341.386 262.732 341.148C262.732 341.148 254.72 342.021 251.551 342.784C248.155 343.602 246.232 344.299 246.064 344.776C245.495 346.385 246.421 347.507 247.45 347.71Z" fill="#00619F"/>
<path d="M281.513 347.71L297.325 347.912C298.071 347.924 298.686 347.329 298.698 346.583L298.748 343.755C298.728 342.564 297.935 341.386 296.795 341.148C296.795 341.148 288.783 342.021 285.614 342.784C282.218 343.602 280.295 344.299 280.127 344.776C279.557 346.385 280.484 347.507 281.513 347.71Z" fill="#00619F"/>
<path d="M253.756 208.817L232.376 232.875L232.174 233.102C230.633 234.836 227.979 234.992 226.246 233.451C226.151 233.366 226.056 233.273 225.97 233.182L207.747 213.723L207.741 213.717C206.279 212.156 206.36 209.706 207.921 208.244C209.453 206.809 211.847 206.864 213.317 208.343L232.107 227.283L225.702 227.591L244.206 201.257C246.143 198.501 249.947 197.836 252.704 199.773C255.46 201.71 256.125 205.514 254.188 208.271C254.054 208.463 253.907 208.647 253.756 208.817Z" fill="#E3A5A2"/>
<path d="M245.737 198.899L234.688 214.011L243.114 221.752L258.769 203.407L257.374 192.945L251.888 193.771C249.885 194.397 247.141 197.076 245.737 198.899Z" fill="#45C4BC"/>
<path d="M205.515 206.754C205.565 206.882 205.569 206.878 205.578 206.893C205.59 206.912 205.598 206.919 205.598 206.919C205.598 206.919 205.616 206.928 205.608 206.91C205.603 206.887 205.599 206.859 205.577 206.816C205.549 206.742 205.488 206.64 205.425 206.542C205.299 206.342 205.126 206.124 204.94 205.91C204.563 205.479 204.117 205.051 203.639 204.639C202.681 203.813 201.599 203.051 200.484 202.327L200.469 202.317C199.913 201.956 199.755 201.212 200.115 200.656C200.427 200.175 201.025 199.992 201.541 200.184C202.86 200.674 204.174 201.215 205.475 201.907C206.126 202.255 206.773 202.64 207.419 203.106C207.742 203.342 208.064 203.593 208.388 203.903C208.551 204.059 208.712 204.217 208.88 204.42C208.961 204.512 209.049 204.627 209.135 204.748C209.175 204.8 209.228 204.889 209.273 204.959C209.294 204.991 209.322 205.04 209.351 205.098C209.378 205.151 209.401 205.185 209.466 205.353C209.853 206.444 209.282 207.642 208.191 208.029C207.1 208.416 205.902 207.845 205.515 206.754Z" fill="#E3A5A2"/>
<path d="M208.392 206.132C208.444 206.307 208.444 206.281 208.457 206.314C208.473 206.346 208.479 206.35 208.479 206.35C208.488 206.359 208.5 206.368 208.495 206.352C208.5 206.339 208.49 206.305 208.473 206.265C208.442 206.187 208.396 206.088 208.329 205.982C208.209 205.772 208.035 205.54 207.856 205.311C207.486 204.85 207.042 204.39 206.58 203.938C205.638 203.04 204.588 202.189 203.504 201.37L203.493 201.362C202.964 200.963 202.859 200.21 203.258 199.68C203.604 199.221 204.216 199.082 204.717 199.312C206.012 199.906 207.298 200.547 208.568 201.315C209.201 201.708 209.833 202.123 210.459 202.622C210.773 202.878 211.085 203.141 211.4 203.469C211.557 203.627 211.715 203.807 211.878 204.016C211.958 204.119 212.04 204.232 212.127 204.371C212.167 204.43 212.215 204.517 212.261 204.604C212.283 204.646 212.305 204.686 212.336 204.759C212.365 204.833 212.382 204.846 212.446 205.063C212.741 206.183 212.073 207.329 210.953 207.624C209.833 207.92 208.687 207.251 208.392 206.132Z" fill="#E3A5A2"/>
<path d="M205.508 209.999C205.532 210 205.406 209.807 205.336 209.699C205.246 209.57 205.154 209.436 205.049 209.304C204.846 209.037 204.613 208.772 204.374 208.511C203.889 207.989 203.345 207.494 202.772 207.02C202.198 206.546 201.583 206.107 200.949 205.685C200.313 205.265 199.647 204.879 198.969 204.505L198.941 204.489C198.361 204.17 198.15 203.441 198.47 202.862C198.752 202.35 199.355 202.126 199.891 202.301C200.687 202.561 201.483 202.841 202.268 203.169C203.052 203.499 203.831 203.859 204.592 204.277C205.353 204.695 206.104 205.155 206.83 205.687C207.193 205.956 207.552 206.235 207.904 206.548C208.081 206.7 208.255 206.867 208.431 207.039C208.62 207.237 208.752 207.353 209.005 207.684C209.644 208.649 209.379 209.95 208.414 210.589C207.448 211.229 206.147 210.964 205.508 209.999Z" fill="#E3A5A2"/>
<path d="M205.684 212.778C205.159 212.232 204.527 211.639 203.92 211.084C203.303 210.524 202.674 209.971 202.03 209.433C200.745 208.355 199.413 207.324 198.04 206.343L198.033 206.338C197.494 205.953 197.37 205.205 197.755 204.666C198.098 204.185 198.731 204.035 199.247 204.281C200.829 205.036 202.385 205.853 203.912 206.733C204.676 207.172 205.431 207.63 206.181 208.102C206.938 208.583 207.655 209.048 208.435 209.613C209.377 210.294 209.588 211.61 208.907 212.552C208.226 213.494 206.91 213.705 205.968 213.024C205.867 212.952 205.767 212.863 205.684 212.778Z" fill="#E3A5A2"/>
<path d="M208.559 215.015C210.899 216.001 215.232 213.427 215.232 213.427C215.787 208.901 214.497 206.524 213.361 205.182L207.661 203.656C207.661 203.656 205.882 205.682 205.879 205.686C205.105 206.568 204.362 207.593 204.188 208.784C203.951 210.404 206.351 214.085 208.559 215.015Z" fill="#E3A5A2"/>
<path d="M210.724 200.675C211.578 201.085 212.187 201.522 212.825 202.115C213.438 202.698 213.976 203.416 214.361 204.239C214.744 205.056 214.994 205.981 215.024 206.89C215.092 207.812 214.953 208.69 214.768 209.546C214.523 210.685 213.4 211.409 212.262 211.163C211.123 210.918 210.399 209.795 210.645 208.657C210.675 208.519 210.717 208.387 210.771 208.263L210.796 208.208C210.999 207.746 211.198 207.276 211.262 206.816C211.363 206.349 211.338 205.893 211.245 205.425C211.149 204.96 210.95 204.487 210.649 204.041C210.369 203.61 209.912 203.148 209.574 202.87L209.411 202.737C208.885 202.306 208.809 201.53 209.24 201.004C209.607 200.557 210.224 200.435 210.724 200.675Z" fill="#E3A5A2"/>
<path d="M251.982 251.13C253.788 233.576 247.606 199.058 247.606 199.058C247.301 195.963 250.39 192.826 258.039 192.892L272.54 192.442C276.002 192.346 278.098 193.843 280.012 199.113C280.012 199.113 284.302 218.633 282.492 252.858C272.996 253.862 263.981 253.565 251.982 251.13Z" fill="#70EAE2"/>
<path d="M268.382 193.75C268.382 193.75 267.889 196.754 264.192 196.857C260.495 196.96 259.835 193.988 259.835 193.988C259.835 193.988 260.908 189.138 259.203 184.167C260.142 181.886 266.261 181.21 268.115 184.169C267.449 188.572 268.382 193.75 268.382 193.75Z" fill="#E3A5A2"/>
<path d="M252.523 167.43C252.523 167.43 248.392 176.783 253.567 181.921L255.27 181.431L252.523 167.43Z" fill="#00619F"/>
<path d="M250.361 178.494C251.322 181.286 253.364 183.116 254.921 182.58C256.478 182.044 256.961 179.346 255.999 176.554C255.038 173.762 252.996 171.932 251.439 172.468C249.883 173.003 249.4 175.701 250.361 178.494Z" fill="#FFB9B6"/>
<path d="M274.111 164.169C271.478 161.005 267.664 159.096 263.513 159.304C263.375 159.311 263.231 159.327 263.089 159.34C262.946 159.341 262.801 159.34 262.663 159.347C258.512 159.555 256.915 159.392 254.495 162.722C251.374 167.016 253.055 174.964 253.183 177.524C253.546 184.78 254.548 189.942 261.289 189.571C268.346 189.182 275.23 184.004 275.274 176.447C275.289 173.883 275.753 166.142 274.111 164.169Z" fill="#FFB9B6"/>
<path d="M252.596 170.632C245.122 167.829 251.469 158.505 257.735 156.409C267.902 153.008 275.246 154.108 276.411 160.363C276.411 160.363 281.54 164.598 278.437 171.121C278.437 171.121 280.806 183.911 271.629 184.37C271.629 184.37 273.712 182.814 275.334 177.644C275.334 177.644 269.625 174.33 272.789 166.358C272.789 166.358 260.07 173.435 252.596 170.632Z" fill="#00619F"/>
<path d="M279.584 177.036C278.906 179.91 277.058 181.934 275.455 181.556C273.853 181.178 273.103 178.542 273.781 175.667C274.459 172.793 276.307 170.769 277.91 171.147C279.512 171.525 280.261 174.161 279.584 177.036Z" fill="#FFB9B6"/>
<path d="M92.2257 219.202C96.9377 218.056 98.7147 217.817 101.638 214.653C102.311 212.489 101.034 208.164 99.3807 206.304C90.9707 196.843 99.3807 185.523 99.3807 185.523L75.0857 191.746C75.0857 191.746 76.0107 202.175 71.3047 208.767C69.5057 211.287 70.9127 215.252 73.6487 216.702C79.8067 219.966 89.4337 219.881 92.2257 219.202Z" fill="#946CFF"/>
<path d="M88.6008 279.412C87.4648 288.175 94.4308 317.819 96.8658 327.61C94.2578 336.184 94.1448 341.549 94.2578 347.408C94.2578 347.408 96.0858 360.768 96.0818 363.061L104.109 363.959C104.3 361.686 107.458 332.378 109.713 321.605C111.765 311.799 107.86 287.857 104.398 270.785C96.4138 269.339 89.3978 273.26 88.6008 279.412Z" fill="#4E6BC4"/>
<path d="M100.878 362.906L106.147 364.628C108.975 365.263 111.121 365.904 112.682 366.42C113.691 366.754 114.336 367.6 113.815 368.373C113.623 368.658 113.334 368.845 112.96 368.901L97.0958 368.879C96.4308 368.88 95.8918 368.437 95.8908 367.89L95.8878 367.034L95.8828 367.035V362.907L100.878 362.906Z" fill="#8C3878"/>
<path d="M76.1601 267.398C73.9231 270.463 74.9401 278.475 77.3581 285.347C80.2911 293.683 80.6241 308.16 79.8751 317.217C71.7261 318.738 66.8771 324.691 63.3321 329.357C63.3321 329.357 53.7531 341.864 52.3281 343.661L57.4521 348.924C59.0121 347.259 83.3901 331.4 90.1431 322.707C97.0751 313.783 99.3781 286.36 101.267 270.483C93.2831 269.038 84.1821 268.632 76.1601 267.398Z" fill="#6389FA"/>
<path d="M56.6167 346.323L59.4837 350.784C61.3087 353.036 62.5947 354.869 63.4987 356.242C64.0827 357.129 64.0637 358.194 63.1767 358.477C62.8497 358.581 62.5067 358.549 62.1787 358.361L49.7477 348.506C49.2257 348.095 49.0777 347.413 49.4157 346.983L49.9437 346.31L49.9397 346.308L52.4997 343.07L56.6167 346.323Z" fill="#8C3878"/>
<path d="M108.814 220.742L128.183 238.27L122.247 239.038L122.251 239.034C123.514 237.516 124.818 235.859 126.075 234.234C127.339 232.597 128.587 230.941 129.818 229.271C132.278 225.929 134.674 222.531 137.004 219.085L137.008 219.079C137.915 217.738 139.737 217.385 141.078 218.292C142.333 219.14 142.716 220.803 142.017 222.111C140.006 225.845 137.92 229.54 135.756 233.199C134.673 235.027 133.569 236.845 132.442 238.655C131.305 240.474 130.185 242.241 128.941 244.087L128.936 244.093C127.601 245.881 125.103 246.287 123.275 245.048L123 244.861L101.398 230.172C98.6517 228.305 97.9398 224.565 99.8068 221.819C101.674 219.073 105.414 218.36 108.16 220.228C108.384 220.38 108.618 220.567 108.814 220.742Z" fill="#E3A5A2"/>
<path d="M117.281 227.283L107.976 218.299C106.307 216.767 102.594 213.494 98.9837 213.524L95.6797 214.479L96.0867 224.867L109.949 236.371C112.334 233.311 114.903 230.379 117.281 227.283Z" fill="#55A6CF"/>
<path d="M139.846 214.972C139.908 214.625 139.947 214.583 139.998 214.431C140.046 214.311 140.097 214.196 140.148 214.098C140.25 213.887 140.358 213.711 140.469 213.535C140.69 213.187 140.925 212.884 141.166 212.593C141.649 212.016 142.158 211.504 142.682 211.024C143.73 210.066 144.836 209.236 145.96 208.451C146.348 208.18 146.882 208.275 147.153 208.663C147.397 209.013 147.344 209.482 147.047 209.769L147.04 209.776C146.095 210.692 145.187 211.639 144.399 212.635C144.006 213.132 143.645 213.642 143.343 214.151C143.194 214.405 143.057 214.661 142.957 214.901C142.907 215.019 142.859 215.141 142.834 215.239C142.816 215.294 142.809 215.335 142.802 215.374C142.8 215.38 142.791 215.499 142.825 215.318C142.729 216.141 141.985 216.731 141.162 216.635C140.34 216.539 139.75 215.795 139.846 214.972Z" fill="#E3A5A2"/>
<path d="M136.923 215.308C136.934 215.141 136.944 215.123 136.954 215.061L136.985 214.924C137.006 214.845 137.028 214.765 137.05 214.706C137.094 214.573 137.141 214.459 137.189 214.352C137.286 214.137 137.386 213.943 137.492 213.766C137.7 213.403 137.925 213.09 138.153 212.783C138.612 212.179 139.101 211.641 139.599 211.122C140.603 210.099 141.659 209.18 142.737 208.302C143.104 208.003 143.644 208.058 143.943 208.425C144.213 208.756 144.194 209.229 143.918 209.538L143.912 209.544C143.016 210.545 142.158 211.573 141.404 212.634C141.035 213.167 140.684 213.705 140.398 214.242C140.259 214.509 140.126 214.778 140.035 215.027C139.984 215.153 139.949 215.273 139.924 215.375C139.911 215.428 139.901 215.475 139.9 215.506C139.895 215.529 139.902 215.536 139.902 215.536C139.902 215.536 139.903 215.544 139.909 215.524C139.912 215.504 139.915 215.529 139.923 215.404C139.896 216.232 139.203 216.881 138.375 216.855C137.546 216.829 136.896 216.136 136.923 215.308Z" fill="#E3A5A2"/>
<path d="M140.77 217.242C141.03 216.683 141.246 216.374 141.506 215.987C141.757 215.619 142.024 215.279 142.297 214.945C142.846 214.283 143.438 213.678 144.05 213.108C144.663 212.537 145.308 212.015 145.965 211.518C146.624 211.023 147.306 210.569 147.995 210.133C148.394 209.88 148.923 209.999 149.176 210.398C149.408 210.764 149.328 211.239 149.005 211.51L148.989 211.523C148.401 212.02 147.826 212.527 147.286 213.062C146.747 213.599 146.229 214.15 145.756 214.73C145.284 215.309 144.842 215.906 144.46 216.522C144.272 216.83 144.09 217.141 143.936 217.453C143.788 217.741 143.62 218.127 143.577 218.299C143.377 219.108 142.558 219.602 141.749 219.401C140.94 219.201 140.446 218.382 140.646 217.573C140.669 217.48 140.701 217.39 140.739 217.306L140.77 217.242Z" fill="#E3A5A2"/>
<path d="M141.673 219.106C142.265 218.403 142.836 217.785 143.435 217.151C144.031 216.525 144.636 215.911 145.254 215.312C146.489 214.113 147.768 212.965 149.086 211.869C149.45 211.567 149.99 211.617 150.292 211.98C150.571 212.315 150.547 212.804 150.257 213.115C149.12 214.335 148.032 215.596 146.997 216.895C146.479 217.543 145.977 218.204 145.487 218.87C145.004 219.531 144.513 220.225 144.096 220.875L144.089 220.887C143.64 221.586 142.71 221.788 142.012 221.34C141.313 220.891 141.111 219.961 141.559 219.262C141.593 219.209 141.635 219.153 141.673 219.106Z" fill="#E3A5A2"/>
<path d="M142.31 223.987C140.28 225.448 135.555 223.929 135.555 223.929C134.027 219.705 134.743 217.14 135.539 215.601L140.676 212.883C140.676 212.883 142.829 214.437 142.833 214.44C143.77 215.117 144.708 215.938 145.137 217.043C145.721 218.548 144.226 222.609 142.31 223.987Z" fill="#E3A5A2"/>
<path d="M138.421 212.297C138.093 212.671 137.736 213.216 137.519 213.724C137.292 214.245 137.167 214.786 137.15 215.309C137.136 215.833 137.197 216.344 137.392 216.833C137.551 217.325 137.85 217.788 138.156 218.24L138.198 218.302C138.665 218.99 138.485 219.927 137.797 220.394C137.109 220.861 136.172 220.681 135.705 219.993C135.666 219.936 135.628 219.869 135.598 219.809C135.242 219.08 134.92 218.323 134.779 217.487C134.604 216.669 134.625 215.795 134.786 214.981C134.948 214.162 135.269 213.397 135.693 212.729C136.133 212.052 136.601 211.499 137.267 210.951C137.644 210.641 138.201 210.695 138.511 211.072C138.79 211.411 138.774 211.896 138.493 212.216L138.421 212.297Z" fill="#E3A5A2"/>
<path d="M79.1 222.613C80.626 216.042 84.365 213.487 90.542 213.476C93.085 213.471 95.628 213.456 98.171 213.445C98.399 213.444 98.63 213.457 98.854 213.499C102.134 214.106 104.223 216.679 104.2 219.515C104.198 219.769 104.209 220.019 104.252 220.269C104.432 221.307 105.097 224.288 107.446 230.199C108.155 231.983 109.327 236.759 105.546 240.121C104.714 240.861 104.194 241.884 104.169 242.997C103.983 251.284 104.174 260.772 105.513 267.966C105.901 270.051 104.504 272.045 102.424 272.457C93.53 274.216 84.75 274.659 77.007 273.273C74.929 272.901 73.034 270.832 73.837 268.88C80.625 252.372 78.029 227.222 79.1 222.613Z" fill="#64C1F2"/>
<path d="M88.3795 214.643C88.3795 214.643 94.2695 220.136 95.6865 219.255C96.4885 218.756 96.8015 214.583 96.8015 214.583C96.8015 214.583 95.5785 209.846 97.0845 204.894C96.0815 202.681 90.0355 202.226 88.3125 205.203C89.1185 209.514 88.3795 214.643 88.3795 214.643Z" fill="#E3A5A2"/>
<path d="M83.1474 205.69C83.1474 205.69 83.7114 206.357 82.9844 207.684C82.9844 207.684 84.6184 206.875 84.2584 205.539L83.1474 205.69Z" fill="#946CFF"/>
<path d="M80.1471 201.528C80.1471 201.528 79.2971 204.482 84.9381 206.447L80.8251 198.477L80.1471 201.528Z" fill="#946CFF"/>
<path d="M82.1336 204.484C82.1336 204.484 82.2716 205.985 79.9766 206.132C79.9766 206.132 81.7006 206.781 82.8576 205.528L82.1336 204.484Z" fill="#946CFF"/>
<path d="M101.9 187.797C101.9 187.797 106.796 196.598 102.184 202.105L100.469 201.778L101.9 187.797Z" fill="#946CFF"/>
<path d="M104.466 197.405C104.023 199.216 102.846 200.484 101.836 200.238C100.826 199.991 100.367 198.323 100.809 196.512C101.252 194.701 102.429 193.433 103.439 193.679C104.449 193.926 104.909 195.594 104.466 197.405Z" fill="#E3A5A2"/>
<path d="M102.96 191.75C102.96 191.75 104.678 194.465 103.212 198.103C101.746 201.741 103.983 202.374 103.983 202.374C103.983 202.374 101.116 202.645 100.458 198.64C99.7986 194.635 102.96 191.75 102.96 191.75Z" fill="#946CFF"/>
<path d="M80.4237 186.55C82.7207 183.209 86.2897 180.992 90.3787 180.821C90.5147 180.815 90.6567 180.818 90.7977 180.819C90.9377 180.807 91.0797 180.792 91.2157 180.786C95.3057 180.615 96.8577 180.312 99.5317 183.36C102.981 187.289 102.05 195.237 102.155 197.759C102.454 204.909 101.938 210.062 95.2917 210.306C88.3347 210.562 81.1157 206.105 80.3907 198.697C80.1457 196.184 78.9907 188.633 80.4237 186.55Z" fill="#FFB9B6"/>
<path d="M95.8347 177.299C94.5087 176.854 92.9957 176.709 91.8827 176.639C87.9727 176.393 83.6777 176.487 80.4307 178.842C74.0477 183.47 73.0037 192.728 78.5237 199.453C80.0167 200.713 97.9997 196.971 102.64 187.331C104.01 184.484 98.9177 183.956 98.7847 180.526C98.7167 178.778 97.4077 177.827 95.8347 177.299Z" fill="#946CFF"/>
<path d="M95.7513 182.275C95.7513 182.275 95.4493 192.42 103.92 193.64C103.92 193.64 107.728 182.248 96.1393 177.406L95.7513 182.275Z" fill="#946CFF"/>
<path d="M78.5234 199.453C79.2224 201.538 80.7314 202.913 81.8934 202.523C83.0554 202.134 83.4314 200.127 82.7324 198.042C82.0334 195.957 80.5244 194.582 79.3624 194.972C78.2004 195.361 77.8244 197.368 78.5234 199.453Z" fill="#FFB9B6"/>
<path d="M85.196 196.18C85.122 196.377 86.583 197.489 85.495 200.339C84.407 203.189 86.95 204.166 86.95 204.166C86.95 204.166 81.506 205.091 82.259 196.578L85.196 196.18Z" fill="#946CFF"/>
<path d="M91.9639 221.964L118.129 231.758L113.797 232.898L125.945 221.381L132.045 215.64C134.11 213.714 136.072 211.856 138.301 209.874C139.638 208.685 141.686 208.805 142.875 210.142C144.012 211.421 143.952 213.349 142.775 214.555L142.681 214.651C140.867 216.502 138.913 218.609 137.035 220.618L131.359 226.738L120.043 239.029C119.035 240.124 117.568 240.546 116.209 240.272L115.711 240.169L88.3389 234.569C84.7799 233.841 82.4849 230.365 83.2129 226.806C83.9409 223.247 87.4169 220.952 90.9759 221.68C91.3059 221.748 91.6579 221.852 91.9639 221.964Z" fill="#FFB9B6"/>
<path d="M148.994 206.437C148.847 207.608 148.648 208.728 148.27 209.916C148.062 210.512 147.86 211.11 147.418 211.773C147.183 212.104 146.922 212.455 146.436 212.801C146.257 212.969 145.846 213.127 145.528 213.241C145.183 213.353 144.714 213.362 144.307 213.336C143.195 213.114 142.474 212.033 142.696 210.921C142.918 209.809 143.999 209.088 145.111 209.31C144.975 209.271 144.788 209.339 144.705 209.38C144.637 209.386 144.519 209.525 144.553 209.512C144.544 209.584 144.677 209.548 144.811 209.477C145.101 209.322 145.441 208.957 145.755 208.594C146.387 207.839 146.976 206.906 147.483 205.99L147.505 205.951C147.718 205.566 148.203 205.426 148.588 205.639C148.882 205.802 149.033 206.123 148.994 206.437Z" fill="#FFB9B6"/>
<path d="M145.693 213.3C144.853 213.866 143.895 214.466 142.551 214.601C141.566 214.7 139.041 213.159 138.653 212.103C137.715 209.552 138.413 207.168 139.209 205.481C139.937 203.937 141.507 202.681 143.213 203.501C143.727 203.748 145.721 204.766 146.145 205.128C146.9 205.773 147.174 206.806 146.869 207.752C146.157 209.962 145.693 213.3 145.693 213.3Z" fill="#FFB9B6"/>
<path d="M144.275 207.02C144.265 206.464 144.317 206.12 144.375 205.697C144.433 205.294 144.517 204.905 144.61 204.521C144.799 203.754 145.05 203.018 145.335 202.302C145.624 201.588 145.956 200.9 146.318 200.232C146.679 199.564 147.081 198.925 147.495 198.299C147.763 197.895 148.307 197.785 148.71 198.053C149.087 198.303 149.208 198.795 149.004 199.187L148.991 199.211C148.667 199.829 148.358 200.452 148.093 201.09C147.827 201.727 147.594 202.372 147.404 203.025C147.219 203.677 147.068 204.335 146.976 204.988C146.932 205.314 146.896 205.64 146.884 205.957C146.868 206.253 146.873 206.634 146.899 206.801C147.013 207.521 146.521 208.197 145.8 208.311C145.08 208.425 144.403 207.933 144.29 207.212C144.281 207.153 144.276 207.095 144.274 207.037L144.275 207.02Z" fill="#FFB9B6"/>
<path d="M143.135 206.127C143.244 205.243 143.402 204.469 143.594 203.656C143.788 202.854 144.022 202.06 144.301 201.278C144.872 199.721 145.631 198.181 146.809 196.876C147.133 196.516 147.687 196.488 148.047 196.812C148.385 197.117 148.43 197.625 148.165 197.983L148.144 198.011C147.311 199.13 146.767 200.506 146.395 201.933C146.214 202.65 146.071 203.38 145.964 204.117C145.86 204.843 145.782 205.622 145.764 206.301L145.763 206.324C145.743 207.052 145.137 207.627 144.409 207.607C143.681 207.587 143.106 206.981 143.126 206.253C143.126 206.211 143.13 206.168 143.135 206.127Z" fill="#FFB9B6"/>
<path d="M141.558 204.206C141.805 203.266 142.1 202.576 142.43 201.809C142.76 201.067 143.125 200.351 143.51 199.65C144.285 198.253 145.148 196.921 146.078 195.649C146.364 195.258 146.913 195.172 147.304 195.458C147.672 195.726 147.766 196.232 147.54 196.616C146.768 197.916 146.074 199.255 145.478 200.62C145.184 201.304 144.911 201.994 144.679 202.688C144.456 203.359 144.235 204.13 144.147 204.696L144.139 204.744C144.027 205.464 143.352 205.957 142.632 205.845C141.912 205.733 141.419 205.058 141.531 204.338C141.538 204.294 141.547 204.249 141.558 204.206Z" fill="#FFB9B6"/>
<path d="M139.319 205.611C139.38 204.978 139.487 204.597 139.612 204.128C139.734 203.681 139.885 203.254 140.04 202.832C140.36 201.993 140.742 201.197 141.157 200.425C141.566 199.65 142.033 198.918 142.509 198.196C142.992 197.48 143.506 196.791 144.035 196.117C144.334 195.736 144.885 195.669 145.266 195.967C145.626 196.249 145.706 196.755 145.463 197.132L145.452 197.149C145.008 197.832 144.582 198.522 144.191 199.228C143.809 199.938 143.437 200.651 143.13 201.384C142.817 202.114 142.54 202.854 142.33 203.598C142.23 203.97 142.134 204.342 142.069 204.708C142.001 205.05 141.948 205.492 141.952 205.691V205.708C141.968 206.437 141.39 207.04 140.661 207.056C139.932 207.072 139.329 206.494 139.313 205.765C139.312 205.716 139.314 205.659 139.319 205.611Z" fill="#FFB9B6"/>
<path d="M100.669 238.922L107.138 227.108L91.4285 220.438L79.7205 221.46C79.7205 221.46 75.8975 235.496 100.669 238.922Z" fill="#64C1F2"/>
<path d="M92.6875 220.977C95.2645 221.601 97.7165 222.522 100.134 223.522C101.34 224.029 102.533 224.568 103.703 225.158C104.875 225.745 106.03 226.374 107.138 227.113C105.837 226.829 104.583 226.436 103.347 226C102.109 225.567 100.893 225.084 99.6905 224.568C97.2915 223.523 94.9265 222.398 92.6875 220.977Z" fill="#258FB8"/>
<path d="M100.672 238.927C96.7528 238.898 92.8508 237.884 89.2868 236.183C87.5048 235.324 85.8368 234.217 84.3358 232.929C82.8248 231.642 81.6048 230.045 80.6328 228.359C81.9348 229.823 83.2978 231.171 84.8418 232.304C86.3938 233.416 88.0118 234.43 89.7438 235.242C91.4678 236.064 93.2528 236.766 95.0768 237.374C96.9078 237.961 98.7638 238.508 100.672 238.927Z" fill="#258FB8"/>
<path d="M257.89 256.039H144.984V368.945H257.89V256.039Z" fill="#FF8F5C"/>
<path d="M257.889 256.04H144.984L172.234 238.922H285.14L257.889 256.04Z" fill="#FFB28F"/>
<path d="M285.142 238.922V351.828L257.891 368.946V256.04L285.142 238.922Z" fill="#DE7C50"/>
<path d="M201.33 315.754C204.114 315.754 206.371 313.497 206.371 310.713C206.371 307.929 204.114 305.672 201.33 305.672C198.546 305.672 196.289 307.929 196.289 310.713C196.289 313.497 198.546 315.754 201.33 315.754Z" fill="#FFC9B0"/>
<path d="M219.257 313.653C220.874 303.746 214.154 294.404 204.247 292.787C194.34 291.17 184.998 297.89 183.381 307.796C181.764 317.703 188.484 327.045 198.391 328.663C208.298 330.28 217.64 323.56 219.257 313.653Z" stroke="#FFC9B0" stroke-width="6.9794" stroke-miterlimit="10"/>
<path d="M201.334 343.121C219.23 343.121 233.738 328.613 233.738 310.716C233.738 292.82 219.23 278.312 201.334 278.312C183.437 278.312 168.93 292.82 168.93 310.716C168.93 328.613 183.437 343.121 201.334 343.121Z" stroke="#FFC9B0" stroke-width="6.9794" stroke-miterlimit="10"/>
<path d="M212.195 307.904L203.25 309.786L205.604 301.312L212.195 307.904Z" fill="#FFC9B0"/>
<path d="M240.291 273.227L207.727 305.682" stroke="#FFC9B0" stroke-width="1.7449" stroke-miterlimit="10"/>
<path d="M246.669 270.409L250.749 270.466L253.584 267.631L246.847 266.71V259.586L243.548 262.885L243.212 267.292L242.025 264.408L239.141 267.292V274.367H246.847L249.386 271.828L246.669 270.409Z" fill="#FFC9B0"/>
<path d="M342.243 267.897C342.399 267.882 342.283 267.883 342.269 267.886C342.226 267.891 342.18 267.896 342.121 267.911C342.014 267.931 341.886 267.971 341.761 268.013C341.507 268.097 341.237 268.216 340.969 268.347C340.431 268.613 339.891 268.937 339.362 269.291C338.302 270.003 337.285 270.836 336.297 271.708L336.291 271.714C335.973 271.995 335.488 271.964 335.208 271.647C334.952 271.357 334.955 270.928 335.198 270.642C336.084 269.6 337.012 268.581 338.057 267.634C338.581 267.161 339.134 266.706 339.747 266.284C340.055 266.074 340.374 265.87 340.734 265.687C340.915 265.595 341.097 265.505 341.31 265.425C341.41 265.384 341.525 265.345 341.644 265.309C341.792 265.273 341.841 265.24 342.165 265.211C342.907 265.19 343.525 265.774 343.547 266.515C343.569 267.257 342.985 267.875 342.243 267.897Z" fill="#E09399"/>
<path d="M342.591 265.005C342.701 265.007 342.677 265.003 342.693 265.002C342.708 264.998 342.702 264.998 342.697 264.998C342.689 264.996 342.682 264.993 342.657 264.996C342.621 264.996 342.569 265.003 342.513 265.013C342.402 265.033 342.276 265.06 342.143 265.103C341.88 265.178 341.598 265.292 341.318 265.411C340.754 265.659 340.186 265.969 339.624 266.297C338.502 266.969 337.408 267.746 336.339 268.561L336.334 268.565C335.997 268.822 335.516 268.757 335.259 268.42C335.024 268.112 335.058 267.684 335.323 267.416C336.297 266.428 337.309 265.466 338.416 264.568C338.977 264.124 339.554 263.691 340.191 263.294C340.514 263.098 340.842 262.906 341.216 262.735C341.398 262.647 341.596 262.568 341.813 262.493C341.92 262.456 342.034 262.421 342.165 262.39C342.223 262.374 342.301 262.36 342.377 262.347L342.508 262.329C342.566 262.325 342.585 262.317 342.737 262.321C343.478 262.361 344.046 262.995 344.006 263.736C343.965 264.477 343.332 265.045 342.591 265.005Z" fill="#E09399"/>
<path d="M345.107 268.91C344.911 268.947 344.516 269.084 344.21 269.212C343.883 269.343 343.556 269.502 343.23 269.667C342.58 270.003 341.946 270.399 341.328 270.826C340.709 271.254 340.116 271.729 339.536 272.226C338.957 272.725 338.405 273.259 337.862 273.807L337.85 273.819C337.552 274.12 337.067 274.122 336.766 273.824C336.488 273.548 336.465 273.112 336.699 272.81C337.196 272.167 337.71 271.533 338.262 270.926C338.816 270.321 339.393 269.73 340.014 269.176C340.635 268.623 341.288 268.094 341.992 267.612C342.346 267.373 342.707 267.14 343.091 266.927C343.494 266.707 343.824 266.522 344.383 266.32L344.399 266.314C345.1 266.062 345.873 266.425 346.125 267.125C346.378 267.826 346.014 268.598 345.314 268.851C345.248 268.878 345.174 268.897 345.107 268.91Z" fill="#E09399"/>
<path d="M347.59 269.657C346.903 270.025 346.172 270.459 345.473 270.889C344.769 271.324 344.069 271.773 343.38 272.238C342.001 273.167 340.654 274.152 339.346 275.189C339.015 275.454 338.533 275.4 338.268 275.07C338.022 274.763 338.054 274.321 338.325 274.048C339.537 272.839 340.796 271.676 342.102 270.56C342.754 270.001 343.42 269.458 344.097 268.924C344.781 268.388 345.45 267.877 346.198 267.358C346.809 266.934 347.648 267.086 348.072 267.696C348.496 268.307 348.344 269.146 347.734 269.57C347.692 269.599 347.648 269.626 347.603 269.65L347.59 269.657Z" fill="#E09399"/>
<path d="M350.929 268.249C352.56 266.353 351.457 261.514 351.457 261.514C347.382 259.626 344.764 260.117 343.162 260.775L340.008 265.657C340.008 265.657 341.369 267.937 341.372 267.941C341.965 268.933 342.702 269.939 343.766 270.462C345.214 271.175 349.39 270.038 350.929 268.249Z" fill="#E09399"/>
<path d="M338.232 261.982C338.86 261.328 339.452 260.898 340.187 260.494C340.907 260.109 341.726 259.835 342.591 259.731C343.451 259.628 344.366 259.676 345.204 259.923C346.064 260.137 346.824 260.53 347.551 260.956C348.435 261.475 348.732 262.612 348.213 263.496C347.694 264.38 346.557 264.677 345.673 264.158C345.579 264.103 345.492 264.041 345.412 263.973L345.355 263.924C344.964 263.589 344.562 263.256 344.125 263.057C343.693 262.821 343.232 262.71 342.743 262.665C342.255 262.623 341.734 262.68 341.214 262.84C340.712 262.987 340.139 263.284 339.762 263.541L339.627 263.633C339.131 263.97 338.456 263.842 338.118 263.346C337.824 262.914 337.884 262.345 338.232 261.982Z" fill="#E09399"/>
<path d="M339.991 264.398H268V336.389H339.991V264.398Z" fill="#FFC15C"/>
<path d="M303.969 304.677L322.043 284.917C321.632 284.746 321.182 284.648 320.709 284.648H287.274C286.566 284.648 285.942 284.911 285.391 285.275L303.969 304.677Z" fill="#FFE1B0"/>
<path d="M323.974 286.992L312.984 299.002L324.206 310.355V288.144C324.207 287.735 324.104 287.357 323.974 286.992Z" fill="#FFE1B0"/>
<path d="M294.675 299.046L283.86 287.75C283.844 287.884 283.781 288.003 283.781 288.141V310.666L294.675 299.046Z" fill="#FFE1B0"/>
<path d="M311.079 301.086L304.016 308.805L296.631 301.091L284.25 314.295C284.843 315.38 285.955 316.144 287.277 316.144H320.712C322.139 316.144 323.357 315.283 323.901 314.056L311.079 301.086Z" fill="#FFE1B0"/>
<path d="M339.991 264.399H268L285.375 253.484H357.366L339.991 264.399Z" fill="#FFD48F"/>
<path d="M357.367 253.484V325.475L339.992 336.39V264.399L357.367 253.484Z" fill="#DEA850"/>
<path d="M384.335 283.516C378.847 285.594 372.159 287.038 365.883 286.8C366.414 298.905 366.381 310.877 368.401 323.26C370.677 337.211 377.17 349.9 379.613 363.824L385.904 363.58C381.653 345.484 385.953 327.953 379.02 315.885C381.527 307.93 383.397 296.109 384.335 283.516Z" fill="#FFA7AE"/>
<path d="M379.333 362.328L374.921 364.214C371.823 364.91 369.473 365.611 367.763 366.177C366.658 366.543 365.952 367.47 366.522 368.316C366.732 368.628 367.048 368.833 367.459 368.894L384.834 368.87C385.562 368.871 386.152 368.386 386.154 367.787L386.158 366.85L386.163 366.851V362.33H379.333V362.328Z" fill="#00619F"/>
<path d="M375.928 268.971C371.842 290.405 361.885 308.285 353.257 314.543C355.415 327.953 349.521 336.173 341.657 362.738L335.781 363.265C336.121 359.059 336.704 350.94 337.157 346.799C340.152 319.426 345.277 292.551 353.545 266.268C354.202 264.236 354.837 262.275 355.567 260.164L375.928 268.971Z" fill="#FFA7AE"/>
<path d="M335.783 362.328L331.625 364.214C328.527 364.91 326.177 365.611 324.467 366.177C323.362 366.543 322.656 367.47 323.226 368.316C323.436 368.628 323.752 368.833 324.163 368.894L341.538 368.87C342.266 368.871 342.857 368.386 342.858 367.787L342.861 366.85L342.865 366.851V362.33H335.783V362.328Z" fill="#00619F"/>
<path d="M350.703 265.039C350.703 265.039 342.089 275.273 342.861 300.91C350.041 307.103 369.414 309.463 381.984 304.445C385.794 294.835 391.506 277.308 381.604 266.548L350.703 265.039Z" fill="#3B81E3"/>
<path d="M364.821 219.602L382.796 243.571L382.924 243.742C384.478 245.814 384.058 248.753 381.986 250.307C381.845 250.413 381.696 250.512 381.548 250.599L355.281 266.019C353.046 267.331 350.169 266.583 348.857 264.348C347.545 262.113 348.293 259.237 350.528 257.925L376.795 242.505L375.546 249.533L355.505 227.263C353.275 224.785 353.475 220.968 355.953 218.737C358.431 216.507 362.248 216.708 364.479 219.186C364.597 219.318 364.715 219.463 364.821 219.602Z" fill="#E09399"/>
<path d="M357.359 216.766C357.359 216.766 367.678 214.613 378.813 232.829L366.475 241.73L357.359 216.766Z" fill="#E03264"/>
<path d="M344.577 220.582C337.457 223.531 336.268 225.754 338.269 232.07C338.269 232.07 339.657 239.893 342.811 247.521C344.069 250.564 349.726 253.748 349.391 256.129C348.394 263.213 346.057 269.664 346.545 273.214C346.545 273.214 370.812 288.442 386.243 274.091C382.227 261.744 379.642 247.445 375.924 237.719C371.056 224.986 365.608 221.052 365.608 221.052C361.036 211.672 344.577 220.582 344.577 220.582Z" fill="#FF3972"/>
<path d="M307.155 286.303L303.183 281.161C302.824 280.697 302.91 280.03 303.374 279.671L308.472 275.733C308.936 275.374 312.136 273.907 312.494 274.371L315.4 279.218L308.644 286.494C308.181 286.853 307.514 286.767 307.155 286.303Z" fill="#FFA7AE"/>
<path d="M344.948 240.364C345.003 240.244 344.969 240.306 344.96 240.317C344.95 240.328 344.931 240.364 344.91 240.405L344.785 240.65C344.696 240.83 344.605 241.025 344.512 241.236C344.328 241.646 344.141 242.088 343.96 242.539C343.593 243.436 343.243 244.385 342.9 245.338C342.217 247.253 341.571 249.221 340.953 251.211C340.337 253.203 339.748 255.215 339.178 257.24L338.338 260.287L337.474 263.536C337.365 263.929 337.217 264.354 337.092 264.597C336.96 264.88 336.81 265.18 336.685 265.371C336.411 265.834 336.158 266.161 335.897 266.503C335.396 267.11 334.904 267.629 334.429 268.075C333.473 268.982 332.54 269.725 331.602 270.431C329.728 271.829 327.843 273.043 325.93 274.2C322.084 276.482 318.216 278.531 313.943 280.218L311.422 274.533C314.932 272.692 318.425 270.346 321.682 267.894C323.305 266.657 324.887 265.369 326.306 264.046C327.01 263.388 327.677 262.712 328.204 262.081C328.477 261.764 328.68 261.47 328.832 261.233C328.877 261.137 328.937 261.032 328.918 261.025C328.938 260.991 328.888 261.043 328.868 261.084C328.868 261.084 328.78 261.253 328.748 261.391L329.19 258.369L329.696 255.153C330.045 253.007 330.419 250.859 330.826 248.704C331.236 246.548 331.682 244.387 332.193 242.202C332.452 241.107 332.72 240.011 333.036 238.885C333.191 238.323 333.356 237.757 333.543 237.165C333.633 236.875 333.733 236.572 333.843 236.256L334.023 235.761L334.132 235.481C334.178 235.371 334.197 235.311 334.311 235.07L344.948 240.364Z" fill="#FFA7AE"/>
<path d="M345.871 241.017C346.897 250.025 343.36 258.142 343.36 258.142L328.359 246.135C331.677 233.761 334.798 223.401 344.079 221.438C344.027 221.44 345.824 240.609 345.871 241.017Z" fill="#FF3972"/>
<path d="M303.013 272.938C303.814 272.783 304.455 272.765 305.213 272.84C305.947 272.927 306.724 273.141 307.446 273.583C308.133 273.992 308.636 274.406 309.134 274.839C309.622 275.266 310.075 275.712 310.492 276.113C311.231 276.823 311.254 277.998 310.544 278.737C309.834 279.476 308.659 279.499 307.92 278.789C307.83 278.702 307.744 278.6 307.675 278.5C307.336 278.006 307.033 277.555 306.714 277.132C306.403 276.72 306.063 276.307 305.779 276.057C305.529 275.836 305.174 275.661 304.755 275.549C304.357 275.438 303.812 275.397 303.453 275.41L303.298 275.416C302.608 275.442 302.027 274.903 302.001 274.213C301.977 273.588 302.417 273.053 303.013 272.938Z" fill="#FFA7AE"/>
<path d="M297.323 281.891C297.73 281.964 298.397 281.954 298.944 281.854C299.519 281.756 300.088 281.576 300.639 281.351C301.193 281.135 301.724 280.835 302.243 280.529C302.76 280.21 303.255 279.85 303.738 279.474L303.751 279.464C304.338 279.007 305.185 279.112 305.643 279.7C306.1 280.287 305.995 281.134 305.407 281.592C305.356 281.632 305.296 281.671 305.242 281.702C304.621 282.053 303.988 282.381 303.327 282.663C302.659 282.933 301.985 283.188 301.272 283.352C300.565 283.523 299.838 283.639 299.095 283.652C298.331 283.649 297.65 283.617 296.789 283.304C296.401 283.163 296.201 282.734 296.342 282.346C296.468 281.999 296.825 281.802 297.176 281.866L297.323 281.891Z" fill="#FFA7AE"/>
<path d="M299.406 282.837C299.711 282.991 300.255 283.145 300.713 283.162C301.194 283.192 301.682 283.129 302.158 283.007C302.636 282.894 303.102 282.678 303.554 282.454C303.779 282.333 303.999 282.191 304.219 282.064L304.859 281.611L304.92 281.568C305.529 281.137 306.373 281.282 306.803 281.891C307.234 282.5 307.089 283.344 306.48 283.774C306.419 283.817 306.348 283.858 306.283 283.89L305.395 284.315C305.083 284.434 304.779 284.561 304.463 284.667C303.821 284.862 303.168 285.034 302.48 285.08C301.797 285.134 301.098 285.103 300.418 284.941C299.724 284.762 299.122 284.539 298.463 284.017C298.14 283.761 298.085 283.292 298.341 282.968C298.565 282.685 298.952 282.608 299.262 282.765L299.406 282.837Z" fill="#FFA7AE"/>
<path d="M299.726 283.61C300.176 283.786 300.741 283.942 301.26 284.026C301.79 284.113 302.319 284.14 302.827 284.107C303.337 284.082 303.821 283.965 304.267 283.802C304.721 283.655 305.109 283.383 305.482 283.121L305.549 283.074C306.159 282.645 307.001 282.793 307.429 283.403C307.857 284.013 307.71 284.855 307.1 285.284C307.046 285.322 306.984 285.358 306.927 285.387C306.269 285.715 305.587 286.004 304.871 286.118C304.164 286.247 303.451 286.283 302.769 286.205C302.086 286.135 301.429 285.985 300.804 285.772C300.171 285.55 299.606 285.301 298.996 284.931C298.64 284.715 298.526 284.252 298.742 283.896C298.935 283.577 299.326 283.453 299.661 283.585L299.726 283.61Z" fill="#FFA7AE"/>
<path d="M300.932 284.824C301.466 285.057 302.114 285.254 302.715 285.373C303.326 285.493 303.937 285.541 304.513 285.504C305.087 285.453 305.613 285.303 306.066 285.074C306.525 284.85 306.874 284.48 307.201 284.101L307.262 284.03C307.749 283.466 308.6 283.404 309.164 283.891C309.727 284.378 309.79 285.229 309.303 285.792C309.269 285.832 309.227 285.874 309.189 285.909C308.544 286.495 307.81 287.017 306.973 287.288C306.148 287.564 305.298 287.652 304.496 287.602C303.695 287.538 302.94 287.359 302.227 287.109C301.507 286.85 300.861 286.555 300.184 286.134C299.83 285.914 299.722 285.449 299.941 285.095C300.141 284.773 300.545 284.654 300.883 284.801L300.932 284.824Z" fill="#FFA7AE"/>
<path d="M332.004 202.438L330.654 207.859C330.47 208.599 330.988 209.33 331.748 209.4L334.246 209.633L332.004 202.438Z" fill="#FFA7AE"/>
<path d="M349.69 213.32L350.871 219.512C350.871 219.512 350.653 221.307 347.455 221.917C345.446 222.3 343.677 221.859 343.41 220.936L342.211 214.747L349.69 213.32Z" fill="#FFA7AE"/>
<path d="M343.005 218.642L342.602 216.529L350.08 215.102L350.483 217.215C350.483 217.215 349.518 218.139 346.879 218.643C344.241 219.146 343.005 218.642 343.005 218.642Z" fill="#D68C92"/>
<path d="M350.582 188.295L354.055 205.711C350.815 210.329 346.597 213.575 342.039 217.119C341.709 217.376 339.678 217.692 339.15 217.688C337.957 217.678 336.414 217.788 335.647 216.991C332.642 213.869 332.551 208.221 331.707 204.149C330.893 200.22 330.081 196.29 329.219 192.371C329.159 185.842 350.582 188.295 350.582 188.295Z" fill="#FFA7AE"/>
<path d="M333.803 200.296C333.803 200.296 339.178 205.093 334.812 206.688C335.143 211.674 338.43 216.166 342.603 216.524C346.947 216.541 349.534 215.78 353.346 213.806C358.515 211.129 360.084 206.548 359.53 199.917C359.173 195.636 357.416 191.369 355.445 187.683C351.342 180.01 342.586 178.816 334.536 183.733C327.513 188.023 327.625 194.908 327.625 194.908C327.625 194.908 328.556 201.381 333.803 200.296Z" fill="#4B0F03"/>
<path d="M333.109 203.602C332.762 201.782 333.337 200.144 334.393 199.942C335.449 199.741 336.587 201.052 336.934 202.872C337.281 204.692 336.706 206.33 335.65 206.532C334.594 206.733 333.456 205.422 333.109 203.602Z" fill="#FFA7AE"/>
<path d="M349.035 187.797C354.227 187.797 358.437 184.174 358.437 179.703C358.437 175.233 354.227 171.609 349.035 171.609C343.842 171.609 339.633 175.233 339.633 179.703C339.633 184.174 343.842 187.797 349.035 187.797Z" fill="#4B0F03"/>
<path d="M210.259 175.617H134.664V251.212H210.259V175.617Z" fill="#5CB4FF"/>
<path d="M210.259 175.618H134.664L152.909 164.156H228.504L210.259 175.618Z" fill="#8FCCFF"/>
<path d="M228.503 164.156V239.752L210.258 251.213V175.618L228.503 164.156Z" fill="#509EDE"/>
<path d="M154.812 223.069L186.63 191.149L196.79 188.492L194.29 198.476L162.312 230.554L154.812 223.069Z" fill="#5CB4FF"/>
<path d="M196.097 189.191L193.835 198.222L162.309 229.848L155.516 223.069L186.885 191.6L196.097 189.191ZM197.477 187.797L186.369 190.702L154.102 223.072L162.31 231.264L194.737 198.734L197.477 187.797Z" fill="#B0DBFF"/>
<path d="M186.366 190.703L153.461 223.712L161.669 231.904L194.575 198.894C193.943 198.355 191.358 198.853 190.708 198.27C189.918 197.564 190.737 195.443 189.992 194.716C189.277 194.019 187.112 195.005 186.461 194.285C185.756 193.506 186.848 191.393 186.366 190.703Z" fill="#B0DBFF"/>
<path d="M191.898 189.28L197.472 187.797L196.136 193.232L191.898 189.28Z" fill="#B0DBFF"/>
<path d="M153.678 237.151C152.032 235.508 149.11 232.592 147.937 231.421C146.764 230.25 148.091 229.091 148.091 229.091L150.264 226.914L158.472 235.106L156.139 237.443C156.139 237.443 155.324 238.794 153.678 237.151Z" fill="#B0DBFF"/>
<path d="M153.772 223.408L149.922 227.266L158.13 235.458L161.98 231.6L153.772 223.408Z" fill="#B0DBFF"/>
<path d="M153.113 224.081L152.414 224.781L160.622 232.975L161.321 232.275L153.113 224.081Z" fill="#5CB4FF"/>
<path d="M151.464 225.722L150.727 226.461L158.935 234.653L159.672 233.914L151.464 225.722Z" fill="#5CB4FF"/>
<path d="M274.715 213.421L257.527 235.985L257.285 236.303C256.355 237.524 254.877 238.115 253.453 238.007L236.559 236.603L228.119 235.933L223.911 235.618L221.825 235.475L219.84 235.362L219.667 235.352C217.372 235.221 215.618 233.254 215.749 230.96C215.878 228.701 217.791 226.967 220.039 227.038L221.204 227.076L222.291 227.127L224.44 227.239L228.698 227.487L237.183 228.02L254.132 229.148L250.058 231.17L263.523 206.205C265.274 202.959 269.325 201.746 272.572 203.497C275.819 205.248 277.031 209.299 275.28 212.546C275.119 212.844 274.914 213.157 274.715 213.421Z" fill="#FFB9B6"/>
<path d="M211.847 223.239C212.535 223.187 213.094 223.237 213.723 223.395C214.334 223.552 214.95 223.821 215.503 224.217C216.05 224.61 216.571 225.105 216.954 225.673C217.365 226.236 217.653 226.846 217.905 227.47L217.967 227.624C218.411 228.728 217.877 229.983 216.773 230.427C215.669 230.871 214.414 230.337 213.97 229.233C213.847 228.927 213.8 228.599 213.819 228.29C213.841 227.941 213.858 227.58 213.803 227.254C213.768 226.909 213.655 226.607 213.501 226.292C213.344 225.981 213.107 225.694 212.806 225.44C212.523 225.187 212.101 224.97 211.791 224.837L211.595 224.752C211.194 224.579 211.009 224.115 211.182 223.714C211.301 223.436 211.564 223.261 211.847 223.239Z" fill="#FFB9B6"/>
<path d="M216.666 225.781C217.666 226.018 218.773 226.322 219.799 227.232C220.55 227.899 221.136 230.845 220.615 231.861C219.356 234.316 217.094 235.435 215.288 236.001C213.833 236.457 211.8 236.596 210.936 236.766C210.528 236.846 210.424 236.288 210.432 235.872L210.188 229.255C212.113 228.938 216.666 225.781 216.666 225.781Z" fill="#FFB9B6"/>
<path d="M212.161 231.387C211.955 231.432 211.93 231.426 211.843 231.436L211.642 231.447C211.515 231.452 211.403 231.449 211.292 231.445C211.072 231.436 210.863 231.421 210.662 231.396C210.257 231.353 209.876 231.285 209.497 231.214C208.745 231.066 208.022 230.879 207.306 230.681C205.881 230.273 204.5 229.796 203.135 229.288C202.674 229.116 202.439 228.604 202.611 228.143C202.771 227.712 203.229 227.479 203.664 227.59L203.673 227.592C205.049 227.947 206.43 228.268 207.805 228.511C208.491 228.626 209.177 228.729 209.847 228.789C210.18 228.816 210.512 228.839 210.824 228.839C210.982 228.842 211.132 228.836 211.271 228.827C211.339 228.822 211.407 228.816 211.459 228.807C211.491 228.804 211.511 228.799 211.527 228.794C211.527 228.794 211.593 228.775 211.476 228.801C212.19 228.612 212.922 229.038 213.11 229.752C213.301 230.467 212.875 231.198 212.161 231.387Z" fill="#FFB9B6"/>
<path d="M213.042 232.654C212.722 232.868 212.644 232.873 212.474 232.947C212.332 232.998 212.19 233.044 212.062 233.072C211.794 233.142 211.551 233.175 211.309 233.2C210.824 233.253 210.376 233.237 209.935 233.208C209.058 233.14 208.236 232.971 207.437 232.766C205.847 232.339 204.363 231.74 202.92 231.083C202.473 230.879 202.275 230.351 202.479 229.904C202.67 229.484 203.147 229.284 203.575 229.43L203.59 229.435C205.021 229.927 206.472 230.351 207.909 230.59C208.625 230.702 209.339 230.773 210.01 230.758C210.342 230.748 210.671 230.725 210.953 230.662C211.093 230.633 211.233 230.599 211.336 230.556C211.397 230.537 211.435 230.515 211.474 230.496C211.483 230.496 211.581 230.419 211.423 230.526C212.01 230.078 212.849 230.192 213.297 230.779C213.743 231.367 213.629 232.206 213.042 232.654Z" fill="#FFB9B6"/>
<path d="M212.57 235.212C212.38 235.291 212.375 235.28 212.296 235.305C212.223 235.325 212.193 235.327 212.141 235.338C212.042 235.357 211.959 235.366 211.885 235.372C211.722 235.39 211.592 235.387 211.453 235.388C211.188 235.382 210.941 235.362 210.709 235.33C210.237 235.27 209.808 235.17 209.382 235.064C208.54 234.843 207.753 234.555 206.976 234.256C205.435 233.64 203.969 232.924 202.532 232.171C202.096 231.943 201.929 231.404 202.157 230.969C202.372 230.559 202.861 230.387 203.28 230.558L203.29 230.562C204.749 231.162 206.222 231.715 207.7 232.151C208.438 232.358 209.178 232.551 209.899 232.669C210.256 232.722 210.613 232.77 210.938 232.778C211.103 232.786 211.256 232.781 211.39 232.771C211.45 232.763 211.521 232.758 211.555 232.746C211.581 232.742 211.595 232.734 211.595 232.734C211.595 232.734 211.612 232.73 211.586 232.734C211.555 232.744 211.598 232.722 211.455 232.781C212.126 232.474 212.92 232.769 213.227 233.44C213.536 234.111 213.241 234.905 212.57 235.212Z" fill="#FFB9B6"/>
<path d="M215.31 235.841C215.082 236.019 214.981 236.068 214.83 236.158C214.688 236.241 214.554 236.298 214.415 236.367C214.141 236.485 213.867 236.59 213.594 236.667C213.046 236.835 212.499 236.919 211.958 236.971C210.875 237.062 209.823 236.954 208.825 236.74C207.817 236.543 206.874 236.202 205.95 235.841L204.609 235.223L203.32 234.531C202.888 234.299 202.725 233.76 202.958 233.328C203.179 232.918 203.675 232.751 204.095 232.933L204.15 232.957L205.391 233.501L206.65 233.964C207.498 234.218 208.349 234.452 209.199 234.545C210.045 234.659 210.889 234.67 211.672 234.538C212.06 234.467 212.44 234.378 212.78 234.238C212.954 234.174 213.113 234.095 213.264 234.015C213.331 233.971 213.412 233.932 213.467 233.889C213.516 233.858 213.613 233.78 213.569 233.811C214.129 233.33 214.974 233.394 215.454 233.955C215.935 234.516 215.87 235.361 215.31 235.841Z" fill="#FFB9B6"/>
<path d="M268.189 224.989L255.352 220.276L262.909 204.683L277.57 195.969C277.57 195.969 284.842 205.823 268.189 224.989Z" fill="#70EAE2"/>
<path d="M262.304 205.93C261.541 208.512 260.484 210.952 259.347 213.353C258.772 214.551 258.166 215.732 257.508 216.89C256.853 218.049 256.157 219.187 255.352 220.273C255.706 218.969 256.168 217.717 256.672 216.485C257.173 215.252 257.725 214.043 258.309 212.85C259.491 210.47 260.751 208.129 262.304 205.93Z" fill="#45C4BC"/>
<path d="M268.188 224.985C270.537 221.608 272.777 218.228 274.743 214.69C275.711 212.915 276.58 211.094 277.358 209.229C278.087 207.345 278.679 205.416 279.116 203.398C279.147 205.46 278.781 207.529 278.195 209.523C277.572 211.506 276.73 213.413 275.758 215.243C274.758 217.059 273.627 218.796 272.366 220.432C271.106 222.065 269.738 223.622 268.188 224.985Z" fill="#45C4BC"/>
<path d="M174.898 323.008H120.453V377.453H174.898V323.008Z" fill="#965CFF"/>
<path d="M174.899 323.005H120.453L133.594 314.75H188.039L174.899 323.005Z" fill="#B78FFF"/>
<path d="M188.038 314.75V369.195L174.898 377.45V323.005L188.038 314.75Z" fill="#8250DE"/>
<path d="M167.909 341.738L167.938 341.726C167.912 341.649 167.863 341.582 167.833 341.507C167.803 341.432 167.792 341.35 167.758 341.276L167.729 341.288C167.205 340.165 166.221 339.272 164.999 339.003C163.396 338.651 161.908 339.236 160.97 340.314C160.485 340.871 159.34 341.534 158.522 341.965C158.037 342.221 157.441 341.996 157.237 341.487L154.992 335.884C154.504 334.665 153.12 334.073 151.901 334.562L145.995 336.929C145.419 337.16 145.138 337.814 145.367 338.391C145.814 339.514 146.422 340.601 147.334 341.395C148.412 342.333 148.997 343.821 148.645 345.424C148.377 346.646 147.483 347.63 146.36 348.154L146.372 348.183C146.298 348.218 146.217 348.228 146.141 348.258C146.066 348.288 145.999 348.337 145.922 348.363L145.91 348.334C144.735 348.728 143.409 348.631 142.373 347.93C141.062 347.044 140.456 345.635 140.535 344.26C140.586 343.384 139.94 341.4 139.56 340.317C139.416 339.909 138.964 339.713 138.563 339.876L132.678 342.267C131.466 342.759 130.88 344.139 131.366 345.353L139.065 364.565C139.553 365.784 140.937 366.376 142.156 365.887L161.368 358.188C162.587 357.7 163.179 356.316 162.69 355.097L160.176 348.823C159.972 348.313 160.248 347.738 160.777 347.589C161.666 347.339 162.948 347.031 163.682 347.101C165.105 347.236 166.586 346.635 167.505 345.275C168.206 344.239 168.303 342.913 167.909 341.738Z" fill="#CCB0FF"/>
</svg>
