<svg width="383" height="462" viewBox="0 0 383 462" fill="none" xmlns="http://www.w3.org/2000/svg">
<path opacity="0.3149" d="M286.819 286.817C339.621 234.015 339.621 148.407 286.819 95.6046C234.017 42.8027 148.408 42.8028 95.6063 95.6047C42.8044 148.407 42.8044 234.015 95.6063 286.817C148.408 339.619 234.017 339.619 286.819 286.817Z" fill="#DBC0A7"/>
<path opacity="0.3149" d="M191.218 461.865C285.715 461.865 362.319 457.368 362.319 451.819C362.319 446.271 285.715 441.773 191.218 441.773C96.7217 441.773 20.1172 446.271 20.1172 451.819C20.1172 457.368 96.7217 461.865 191.218 461.865Z" fill="#DBC0A7"/>
<path d="M32.8015 399.33H360.255C364.736 399.33 368.37 395.697 368.37 391.216V167.973C368.37 163.492 364.736 159.859 360.255 159.859H32.8015C28.3205 159.859 24.6875 163.492 24.6875 167.973V391.216C24.6875 395.698 28.3205 399.33 32.8015 399.33Z" fill="#D9E2E1"/>
<path d="M32.8015 388.682H360.255C364.736 388.682 368.37 385.049 368.37 380.568V157.325C368.37 152.844 364.736 149.211 360.255 149.211H32.8015C28.3205 149.211 24.6875 152.844 24.6875 157.325V380.568C24.6875 385.049 28.3205 388.682 32.8015 388.682Z" fill="white"/>
<path d="M24.6875 177.475H368.368V157.325C368.368 152.844 364.735 149.211 360.254 149.211H32.8015C28.3205 149.211 24.6875 152.844 24.6875 157.325V177.475Z" fill="#4F7E95"/>
<g opacity="0.2627">
<path d="M347.507 196.031H291.641V248.875H347.507V196.031Z" stroke="#6BBCB6" stroke-miterlimit="10"/>
<path d="M285.983 196.031H230.117V248.875H285.983V196.031Z" fill="#6BBCB6"/>
<path d="M224.46 196.031H168.594V248.875H224.46V196.031Z" stroke="#6BBCB6" stroke-miterlimit="10"/>
<path d="M162.936 196.031H107.07V248.875H162.936V196.031Z" stroke="#6BBCB6" stroke-miterlimit="10"/>
<path d="M101.413 196.031H45.5469V248.875H101.413V196.031Z" stroke="#6BBCB6" stroke-miterlimit="10"/>
<path d="M258.052 228.159C269.662 228.159 279.073 219.256 279.073 208.275C279.073 197.293 269.662 188.391 258.052 188.391C246.443 188.391 237.031 197.293 237.031 208.275C237.031 219.256 246.443 228.159 258.052 228.159Z" fill="white"/>
<path d="M347.507 255.234H291.641V308.078H347.507V255.234Z" stroke="#6BBCB6" stroke-miterlimit="10"/>
<path d="M285.983 255.234H230.117V308.078H285.983V255.234Z" stroke="#6BBCB6" stroke-miterlimit="10"/>
<path d="M224.46 255.234H168.594V308.078H224.46V255.234Z" stroke="#6BBCB6" stroke-miterlimit="10"/>
<path d="M162.936 255.234H107.07V308.078H162.936V255.234Z" stroke="#6BBCB6" stroke-miterlimit="10"/>
<path d="M101.413 255.234H45.5469V308.078H101.413V255.234Z" stroke="#6BBCB6" stroke-miterlimit="10"/>
<path d="M347.507 314.43H291.641V367.274H347.507V314.43Z" stroke="#6BBCB6" stroke-miterlimit="10"/>
<path d="M285.983 314.43H230.117V367.274H285.983V314.43Z" stroke="#6BBCB6" stroke-miterlimit="10"/>
<path d="M224.46 314.43H168.594V367.274H224.46V314.43Z" stroke="#6BBCB6" stroke-miterlimit="10"/>
<path d="M162.936 314.43H107.07V367.274H162.936V314.43Z" stroke="#6BBCB6" stroke-miterlimit="10"/>
<path d="M101.413 314.43H45.5469V367.274H101.413V314.43Z" stroke="#6BBCB6" stroke-miterlimit="10"/>
</g>
<path d="M272.782 161.891H262.992C262.63 161.891 262.336 161.597 262.336 161.235V153.406C262.336 153.044 262.63 152.75 262.992 152.75H272.782C273.144 152.75 273.438 153.044 273.438 153.406V161.235C273.437 161.598 273.144 161.891 272.782 161.891Z" fill="#3B525B"/>
<path d="M286.18 161.891H276.39C276.028 161.891 275.734 161.597 275.734 161.235V153.406C275.734 153.044 276.028 152.75 276.39 152.75H286.18C286.542 152.75 286.836 153.044 286.836 153.406V161.235C286.836 161.598 286.542 161.891 286.18 161.891Z" fill="#3B525B"/>
<path d="M299.446 161.891H289.656C289.294 161.891 289 161.597 289 161.235V153.406C289 153.044 289.294 152.75 289.656 152.75H299.446C299.808 152.75 300.102 153.044 300.102 153.406V161.235C300.101 161.598 299.808 161.891 299.446 161.891Z" fill="#3B525B"/>
<path d="M265.085 157.685H266.146C266.507 157.685 266.8 157.392 266.8 157.03V145.396C266.8 145.035 266.507 144.742 266.146 144.742H265.085C264.723 144.742 264.43 145.035 264.43 145.396V157.03C264.43 157.392 264.723 157.685 265.085 157.685Z" fill="white"/>
<path d="M269.545 157.685H270.606C270.967 157.685 271.26 157.392 271.26 157.03V145.396C271.26 145.035 270.967 144.742 270.606 144.742H269.545C269.184 144.742 268.891 145.035 268.891 145.396V157.03C268.89 157.392 269.183 157.685 269.545 157.685Z" fill="white"/>
<path d="M278.225 157.685H279.286C279.647 157.685 279.94 157.392 279.94 157.03V145.396C279.94 145.035 279.647 144.742 279.286 144.742H278.225C277.863 144.742 277.57 145.035 277.57 145.396V157.03C277.571 157.392 277.864 157.685 278.225 157.685Z" fill="white"/>
<path d="M282.685 157.685H283.746C284.107 157.685 284.4 157.392 284.4 157.03V145.396C284.4 145.035 284.107 144.742 283.746 144.742H282.685C282.324 144.742 282.031 145.035 282.031 145.396V157.03C282.031 157.392 282.324 157.685 282.685 157.685Z" fill="white"/>
<path d="M291.357 157.685H292.418C292.779 157.685 293.072 157.392 293.072 157.03V145.396C293.072 145.035 292.779 144.742 292.418 144.742H291.357C290.996 144.742 290.703 145.035 290.703 145.396V157.03C290.702 157.392 290.995 157.685 291.357 157.685Z" fill="white"/>
<path d="M295.818 157.685H296.879C297.241 157.685 297.534 157.392 297.534 157.03V145.396C297.534 145.035 297.241 144.742 296.879 144.742H295.818C295.457 144.742 295.164 145.035 295.164 145.396V157.03C295.163 157.392 295.456 157.685 295.818 157.685Z" fill="white"/>
<path d="M103.391 161.891H93.6013C93.2393 161.891 92.9453 161.597 92.9453 161.235V153.406C92.9453 153.044 93.2393 152.75 93.6013 152.75H103.391C103.753 152.75 104.047 153.044 104.047 153.406V161.235C104.047 161.598 103.753 161.891 103.391 161.891Z" fill="#3B525B"/>
<path d="M116.79 161.891H107C106.638 161.891 106.344 161.597 106.344 161.235V153.406C106.344 153.044 106.638 152.75 107 152.75H116.79C117.152 152.75 117.446 153.044 117.446 153.406V161.235C117.446 161.598 117.152 161.891 116.79 161.891Z" fill="#3B525B"/>
<path d="M130.055 161.891H120.265C119.903 161.891 119.609 161.597 119.609 161.235V153.406C119.609 153.044 119.902 152.75 120.265 152.75H130.055C130.417 152.75 130.711 153.044 130.711 153.406V161.235C130.711 161.598 130.417 161.891 130.055 161.891Z" fill="#3B525B"/>
<path d="M95.6931 157.685H96.7541C97.1151 157.685 97.4081 157.392 97.4081 157.03V145.396C97.4081 145.035 97.1151 144.742 96.7541 144.742H95.6931C95.3321 144.742 95.0391 145.035 95.0391 145.396V157.03C95.0391 157.392 95.3321 157.685 95.6931 157.685Z" fill="white"/>
<path d="M100.154 157.685H101.215C101.576 157.685 101.869 157.392 101.869 157.03V145.396C101.869 145.035 101.576 144.742 101.215 144.742H100.154C99.793 144.742 99.5 145.035 99.5 145.396V157.03C99.5 157.392 99.793 157.685 100.154 157.685Z" fill="white"/>
<path d="M108.834 157.685H109.895C110.256 157.685 110.549 157.392 110.549 157.03V145.396C110.549 145.035 110.256 144.742 109.895 144.742H108.834C108.473 144.742 108.18 145.035 108.18 145.396V157.03C108.179 157.392 108.472 157.685 108.834 157.685Z" fill="white"/>
<path d="M113.295 157.685H114.356C114.718 157.685 115.011 157.392 115.011 157.03V145.396C115.011 145.035 114.718 144.742 114.356 144.742H113.295C112.934 144.742 112.641 145.035 112.641 145.396V157.03C112.64 157.392 112.933 157.685 113.295 157.685Z" fill="white"/>
<path d="M121.966 157.685H123.027C123.388 157.685 123.682 157.392 123.682 157.03V145.396C123.682 145.035 123.388 144.742 123.027 144.742H121.966C121.605 144.742 121.312 145.035 121.312 145.396V157.03C121.312 157.392 121.605 157.685 121.966 157.685Z" fill="white"/>
<path d="M126.427 157.685H127.488C127.849 157.685 128.142 157.392 128.142 157.03V145.396C128.142 145.035 127.849 144.742 127.488 144.742H126.427C126.066 144.742 125.773 145.035 125.773 145.396V157.03C125.773 157.392 126.066 157.685 126.427 157.685Z" fill="white"/>
<path d="M252.555 229.187C253.643 229.373 254.763 229.47 255.908 229.47C266.259 229.47 274.65 221.533 274.65 211.742" stroke="#6BBCB6" stroke-width="2" stroke-miterlimit="10" stroke-linecap="round" stroke-linejoin="round"/>
<path d="M242.359 223.992C243.63 225.249 245.094 226.33 246.707 227.192" stroke="#6BBCB6" stroke-width="2" stroke-miterlimit="10" stroke-linecap="round" stroke-linejoin="round"/>
<path d="M245.824 196.797C240.617 199.946 237.164 205.464 237.164 211.744C237.164 214.625 237.89 217.345 239.179 219.749" stroke="#6BBCB6" stroke-width="2" stroke-miterlimit="10" stroke-linecap="round" stroke-linejoin="round"/>
<path d="M257.412 220.615C257.407 220.615 257.403 220.615 257.398 220.615C256.846 220.611 256.321 220.38 255.946 219.976L244.885 208.059C244.134 207.25 244.181 205.984 244.99 205.232C245.798 204.481 247.063 204.526 247.816 205.337L257.431 215.696L281.467 190.494C282.23 189.695 283.496 189.666 284.294 190.427C285.094 191.189 285.124 192.455 284.361 193.255L258.858 219.995C258.481 220.391 257.959 220.615 257.412 220.615Z" fill="#4F7E95"/>
<g opacity="0.4745">
<path d="M324.018 171.354H69.0454C68.0454 171.354 67.2344 171.074 67.2344 170.728C67.2344 170.383 68.0454 170.102 69.0454 170.102H324.017C325.018 170.102 325.828 170.382 325.828 170.728C325.828 171.074 325.019 171.354 324.018 171.354Z" fill="#3B525B"/>
</g>
<g opacity="0.2238">
<path d="M320.55 279.248H303.178C301.988 279.248 301.023 278.335 301.023 277.21C301.023 276.085 301.988 275.172 303.178 275.172H320.55C321.74 275.172 322.705 276.085 322.705 277.21C322.705 278.335 321.74 279.248 320.55 279.248Z" fill="#6BBCB6"/>
</g>
<g opacity="0.2238">
<path d="M338.724 291.131H303.178C301.988 291.131 301.023 290.218 301.023 289.093C301.023 287.968 301.988 287.055 303.178 287.055H338.724C339.914 287.055 340.879 287.968 340.879 289.093C340.879 290.218 339.914 291.131 338.724 291.131Z" fill="#6BBCB6"/>
</g>
<g opacity="0.2238">
<path d="M73.3317 221.014H55.9597C54.7697 221.014 53.8047 220.101 53.8047 218.976C53.8047 217.851 54.7687 216.938 55.9597 216.938H73.3317C74.5217 216.938 75.4867 217.851 75.4867 218.976C75.4867 220.101 74.5217 221.014 73.3317 221.014Z" fill="#6BBCB6"/>
</g>
<g opacity="0.2238">
<path d="M92.3354 237.717H70.4364C69.7034 237.717 69.1094 236.804 69.1094 235.679C69.1094 234.554 69.7034 233.641 70.4364 233.641H92.3354C93.0684 233.641 93.6624 234.554 93.6624 235.679C93.6634 236.804 93.0684 237.717 92.3354 237.717Z" fill="#6BBCB6"/>
</g>
<g opacity="0.2238">
<path d="M92.3354 244.826H70.4364C69.7034 244.826 69.1094 243.913 69.1094 242.788C69.1094 241.663 69.7034 240.75 70.4364 240.75H92.3354C93.0684 240.75 93.6624 241.663 93.6624 242.788C93.6634 243.912 93.0684 244.826 92.3354 244.826Z" fill="#6BBCB6"/>
</g>
<g opacity="0.2238">
<path d="M196.54 331.478H182.715C181.768 331.478 181 330.751 181 329.856C181 328.961 181.768 328.234 182.715 328.234H196.54C197.487 328.234 198.255 328.961 198.255 329.856C198.255 330.751 197.487 331.478 196.54 331.478Z" fill="#6BBCB6"/>
</g>
<g opacity="0.2238">
<path d="M211.004 340.932H182.715C181.768 340.932 181 340.205 181 339.31C181 338.414 181.768 337.688 182.715 337.688H211.004C211.951 337.688 212.719 338.415 212.719 339.31C212.719 340.206 211.951 340.932 211.004 340.932Z" fill="#6BBCB6"/>
</g>
<path d="M124.311 212.189H114.682C114.232 212.189 113.867 211.824 113.867 211.374V202.354C113.867 201.904 114.232 201.539 114.682 201.539H124.311C124.761 201.539 125.126 201.904 125.126 202.354V211.374C125.126 211.824 124.762 212.189 124.311 212.189Z" fill="#6BBCB6"/>
<path d="M186.592 212.189H176.963C176.513 212.189 176.148 211.824 176.148 211.374V202.354C176.148 201.904 176.513 201.539 176.963 201.539H186.592C187.042 201.539 187.407 201.904 187.407 202.354V211.374C187.407 211.824 187.042 212.189 186.592 212.189Z" fill="#6BBCB6"/>
<path d="M62.0299 273.041H52.4009C51.9509 273.041 51.5859 272.676 51.5859 272.226V263.206C51.5859 262.756 51.9509 262.391 52.4009 262.391H62.0299C62.4799 262.391 62.8449 262.756 62.8449 263.206V272.226C62.8449 272.676 62.4799 273.041 62.0299 273.041Z" fill="#6BBCB6"/>
<path d="M124.311 273.041H114.682C114.232 273.041 113.867 272.676 113.867 272.226V263.206C113.867 262.756 114.232 262.391 114.682 262.391H124.311C124.761 262.391 125.126 262.756 125.126 263.206V272.226C125.126 272.676 124.762 273.041 124.311 273.041Z" fill="#CB7252"/>
<path d="M249.366 333.9H239.737C239.287 333.9 238.922 333.535 238.922 333.085V324.065C238.922 323.615 239.287 323.25 239.737 323.25H249.366C249.816 323.25 250.181 323.615 250.181 324.065V333.085C250.181 333.535 249.816 333.9 249.366 333.9Z" fill="#CB7252"/>
<path d="M311.155 333.9H301.526C301.076 333.9 300.711 333.535 300.711 333.085V324.065C300.711 323.615 301.076 323.25 301.526 323.25H311.155C311.605 323.25 311.97 323.615 311.97 324.065V333.085C311.97 333.535 311.605 333.9 311.155 333.9Z" fill="#6BBCB6"/>
<path d="M186.592 273.041H176.963C176.513 273.041 176.148 272.676 176.148 272.226V263.206C176.148 262.756 176.513 262.391 176.963 262.391H186.592C187.042 262.391 187.407 262.756 187.407 263.206V272.226C187.407 272.676 187.042 273.041 186.592 273.041Z" fill="#CB7252"/>
<path d="M62.0299 333.9H52.4009C51.9509 333.9 51.5859 333.535 51.5859 333.085V324.065C51.5859 323.615 51.9509 323.25 52.4009 323.25H62.0299C62.4799 323.25 62.8449 323.615 62.8449 324.065V333.085C62.8449 333.535 62.4799 333.9 62.0299 333.9Z" fill="#F9D953"/>
<path d="M124.311 333.9H114.682C114.232 333.9 113.867 333.535 113.867 333.085V324.065C113.867 323.615 114.232 323.25 114.682 323.25H124.311C124.761 323.25 125.126 323.615 125.126 324.065V333.085C125.126 333.535 124.762 333.9 124.311 333.9Z" fill="#6BBCB6"/>
<path d="M311.155 212.189H301.526C301.076 212.189 300.711 211.824 300.711 211.374V202.354C300.711 201.904 301.076 201.539 301.526 201.539H311.155C311.605 201.539 311.97 201.904 311.97 202.354V211.374C311.97 211.824 311.605 212.189 311.155 212.189Z" fill="#6BBCB6"/>
<path d="M166.41 230.548C166.247 229.734 167.164 228.602 167.567 227.982C168.436 226.644 169.407 225.37 170.369 224.098C172.914 220.731 175.356 217.256 178.741 214.66C179.164 214.336 180.063 213.622 180.591 213.547C181.231 213.457 181.438 214.143 181.925 214.568C182.411 214.993 182.762 215.549 183.099 216.1C184.059 217.672 217.463 258.759 226.336 267.489C229.278 270.383 232.415 273.485 233.253 277.526C233.41 278.285 233.743 280.59 233.443 281.305C232.7 283.079 230.838 285.119 226.094 283.724C223.808 283.052 221.77 281.748 219.776 280.443C207.72 272.557 197.523 262.441 186.084 253.767C181.297 250.137 176.926 245.856 173.073 241.251C170.997 238.771 166.41 234.102 166.41 230.548Z" fill="#EDB984"/>
<g opacity="0.2023">
<path d="M169.856 232.023C170.054 233.012 170.402 233.886 170.716 234.766C170.743 233.108 170.764 231.484 170.689 229.969C170.614 228.516 170.102 227.315 169.652 226.039C169.44 228.284 169.536 230.426 169.856 232.023Z" fill="#F0C692"/>
</g>
<g opacity="0.2023">
<path d="M171.446 245.205C171.453 242.667 171.562 240.129 171.446 237.843C171.391 236.71 171.071 235.735 170.716 234.766C170.662 238.314 170.593 242.026 171.446 245.205Z" fill="#F0C692"/>
</g>
<path d="M146.378 280.184C140.038 333.543 140.638 386.87 139.68 437.3C145.783 437.924 154.742 438.466 160.845 439.09C162.407 439.25 164.17 439.349 165.347 438.31C166.387 437.391 166.616 435.883 166.773 434.505C168.854 416.316 184.303 317.312 203.652 277.312" fill="#3B525B"/>
<path d="M165.883 286.058C181.511 348.197 185.79 377.779 197.831 438.104C203.951 437.669 210.07 437.233 216.189 436.798C217.755 436.687 219.509 436.481 220.49 435.255C221.356 434.171 221.322 432.646 221.24 431.261C220.16 412.985 214.727 292.275 211.703 274.219" fill="#3B525B"/>
<path d="M165.329 176.657C166.194 177.191 167.058 177.747 167.927 178.313C168.24 178.512 168.548 178.724 168.861 178.923C171.714 180.795 174.577 182.64 177.615 183.854C178.146 184.055 178.673 184.247 179.213 184.422C180.642 184.863 182.116 185.149 183.658 185.212C183.702 185.212 183.737 185.217 183.784 185.227C183.806 185.227 183.815 185.223 183.815 185.223C186.304 185.313 190.119 184.274 192.151 182.823C194.546 181.114 195.395 178.961 196.412 176.702C199.373 170.119 196.836 162.015 196.306 154.959C196.259 154.337 195.906 153.783 195.653 153.21C194.964 151.657 193.967 150.257 192.86 148.99C188.912 144.469 183.208 141.434 177.281 141.338C171.341 141.238 165.315 144.297 162.285 149.502C161.127 151.51 160.408 153.754 159.937 156.041C158.455 163.234 159.177 172.846 165.329 176.657Z" fill="#F7C894"/>
<path d="M170.915 194.549C173.703 195.382 177.38 195.228 180.053 194.005C182.343 192.957 183.23 190.712 183.477 188.3C183.506 188.019 183.53 187.73 183.546 187.423C183.579 186.697 183.62 185.966 183.653 185.24C183.649 185.231 183.658 185.227 183.653 185.218C183.845 181.351 184.028 177.488 184.22 173.621C184.216 173.612 184.216 173.612 184.211 173.603C184.221 173.51 184.23 173.416 184.231 173.327C184.236 173.202 184.237 173.091 184.234 172.97C184.208 172.007 183.862 171.17 183.209 170.42C182.491 169.58 181.505 168.996 180.469 168.603C178.771 167.941 176.903 167.785 175.109 168.08C173.438 168.358 171.842 169.021 170.491 170.06C170.438 170.086 170.394 170.13 170.346 170.166C169.33 170.972 168.481 169.587 168.391 170.897C168.299 172.385 168.203 173.864 168.111 175.351C168.05 176.336 167.984 177.333 167.923 178.318C167.816 180.069 167.704 181.81 167.596 183.561C167.581 183.757 167.571 183.94 167.556 184.136C167.452 185.804 166.966 188.384 167.08 190.233C167.193 192.082 167.906 193.199 169.75 194.098C170.121 194.279 170.511 194.428 170.915 194.549Z" fill="#F7C894"/>
<path d="M189.072 166.422C189.074 165.675 188.867 164.865 188.37 164.361C188.044 164.03 187.584 163.824 187.125 163.864C186.909 163.883 186.699 163.955 186.506 164.058C186.07 164.292 185.722 164.692 185.547 165.162C185.069 166.445 185.714 168.216 187.157 168.422C188.049 168.549 188.87 167.941 189.021 167.041C189.054 166.845 189.071 166.636 189.072 166.422Z" fill="#38302A"/>
<path d="M187.28 165.621C187.269 165.376 187.233 165.127 187.054 164.946C186.947 164.838 186.797 164.77 186.646 164.783C186.575 164.789 186.506 164.813 186.443 164.846C186.3 164.923 186.186 165.054 186.129 165.207C185.973 165.627 186.184 166.207 186.656 166.275C186.876 166.306 187.115 166.194 187.216 165.993C187.274 165.88 187.286 165.748 187.28 165.621Z" fill="white"/>
<path d="M195.023 162.742C195.376 164.565 196.245 166.224 197.188 167.813C197.338 168.067 197.447 168.43 197.41 168.724C197.343 169.26 196.619 169.615 196.362 170.087" stroke="#664238" stroke-width="0.5" stroke-miterlimit="10" stroke-linecap="round" stroke-linejoin="round"/>
<path d="M188.622 172.299C188.845 173.563 187.446 174.878 185.497 175.237C183.547 175.596 181.786 174.863 181.562 173.599C181.339 172.335 182.738 171.02 184.687 170.661C186.637 170.302 188.398 171.035 188.622 172.299Z" fill="#F2AF6B"/>
<path d="M186.512 162.425C186.099 162.623 185.639 162.769 185.187 162.708C185.101 162.697 185.013 162.675 184.946 162.62C184.793 162.493 184.81 162.253 184.844 162.054C184.927 161.573 185.028 161.096 185.146 160.623C185.207 160.381 185.574 159.555 185.434 159.366C185.048 159.971 184.778 160.674 184.423 161.303C184.061 161.944 183.664 162.567 183.207 163.143C182.676 163.812 181.315 165.145 178.761 165.866C178.629 165.903 178.468 165.83 178.4 165.708C178.359 165.635 178.362 165.546 178.369 165.463C178.424 164.837 178.696 164.233 178.66 163.605C178.583 163.552 178.495 163.66 178.467 163.75C177.845 165.738 176.322 166.59 175.939 166.647C175.873 166.657 175.801 166.665 175.744 166.63C175.644 166.568 175.65 166.421 175.666 166.303C175.775 165.494 175.816 164.437 175.529 163.663C174.958 164.221 174.801 165.15 174.636 165.901C174.439 166.797 173.191 173.174 171.827 172.483C171.671 172.404 171.568 172.247 171.475 172.096C170.241 170.095 169.967 167.24 167.267 166.814C166.459 166.686 165.568 166.902 165.014 167.516C164.207 168.411 164.036 170.375 164.374 171.541C164.835 173.129 165.969 174.141 167.383 174.954C167.878 175.239 168.447 175.437 168.808 175.885C170.054 177.434 168.821 182.512 167.178 183.529C164.45 185.217 160.429 182.641 160.199 179.955C156.186 179.583 152.816 175.648 152.992 171.54C153.015 171.001 153.09 170.452 152.963 169.928C152.841 169.427 152.057 169.023 151.707 168.651C145.365 161.924 150.562 157.041 152.567 156.25C152.111 154.948 152.17 152.284 152.567 151.1C154.061 146.64 156.989 141.948 163.349 142.227C163.076 140.378 165.29 137.364 166.745 136.157C170.345 133.171 175.315 134.715 176.875 135.567C178.141 134.25 179.696 133.289 181.426 132.78C185.12 131.693 189.32 132.602 192.263 135.126C195.521 137.92 196.943 142.186 197.653 146.334C198.464 151.069 196.512 157.645 186.512 162.425Z" fill="#89514E"/>
<path d="M191.773 174.391C191.902 174.983 192.385 175.455 192.943 175.664C193.501 175.873 194.124 175.846 194.7 175.699" stroke="#664238" stroke-width="0.5" stroke-miterlimit="10" stroke-linecap="round" stroke-linejoin="round"/>
<path opacity="0.2023" d="M177.32 183.359C177.32 183.359 177.41 183.547 177.613 183.857C178.268 184.862 180.061 187.129 183.479 188.298C183.508 188.017 183.532 187.728 183.548 187.421C183.581 186.695 183.622 185.964 183.655 185.238C183.139 185.296 181.391 185.368 179.211 184.425C179.211 184.425 179.207 184.416 179.194 184.411C178.598 184.142 177.967 183.802 177.32 183.359Z" fill="#F7C894"/>
<path d="M169.143 173.183C169.014 173.183 168.904 173.083 168.894 172.952C168.627 169.508 166.481 169.318 166.39 169.312C166.253 169.302 166.148 169.184 166.157 169.046C166.166 168.909 166.28 168.809 166.421 168.813C166.447 168.814 169.09 169.018 169.392 172.914C169.403 173.051 169.3 173.172 169.162 173.182C169.157 173.183 169.15 173.183 169.143 173.183Z" fill="#F2AF6B"/>
<path d="M168.592 171.073C168.54 171.073 168.487 171.057 168.442 171.023C167.485 170.307 166.495 170.694 166.454 170.712C166.326 170.761 166.181 170.703 166.128 170.575C166.076 170.448 166.136 170.303 166.263 170.25C166.316 170.229 167.553 169.733 168.742 170.624C168.852 170.707 168.875 170.864 168.792 170.974C168.743 171.039 168.667 171.073 168.592 171.073Z" fill="#F2AF6B"/>
<path d="M142.279 286.511C142.351 287.941 142.452 289.035 142.557 290.466C142.871 294.738 213.035 291.79 213.821 289.674C215.018 286.453 209.445 249.58 207.502 242.265C205.449 234.535 203.396 226.804 201.188 219.118C199.587 213.544 197.875 207.923 194.881 202.983C192.657 199.314 191.468 197.774 188.412 194.79C185.666 192.11 169.75 185.517 163.795 187.348C156.082 189.72 147.103 204.031 145.392 210.744C142.073 223.768 141.572 272.412 142.279 286.511Z" fill="#CB7252"/>
<path d="M217.788 225.09C217.858 226.5 217.528 227.93 216.988 229.23C213.698 237.19 203.778 255.71 201.158 259.26C199.028 262.14 196.558 266.74 192.618 266.42C185.638 265.85 175.328 257.36 168.148 249.3L184.068 234.4C185.828 236.82 187.708 239.15 189.058 240.14C191.468 241.91 196.588 234.88 197.648 233.45C198.598 232.16 199.618 230.93 200.648 229.71C203.238 226.62 205.808 223.54 208.238 220.32C209.828 218.22 213.578 220.26 215.868 221.53C217.088 222.21 217.728 223.67 217.788 225.09Z" fill="#EDB984"/>
<path d="M211.298 230.165C210.693 225.524 205.844 223.836 207.838 220.848C209.677 218.092 212.234 215.154 214.172 213.39C216.329 211.31 224.606 203.4 227.251 203.573C227.809 203.61 228.4 203.79 228.736 204.247C229.021 204.635 229.07 205.162 228.975 205.637C228.699 207.023 224.402 211.12 223.306 212.075C224.553 212.196 225.793 213.359 225.357 214.814C226.046 214.77 227.552 216.089 226.841 217.685C228.57 218.285 228.882 220.764 226.864 222.875C225.571 224.228 223.36 225.986 221.829 227.069C221.829 227.069 217.781 230.408 213.988 227.593" fill="#EDB984"/>
<path d="M214.866 214.664C215.173 212.503 215.101 210.286 214.656 208.15C214.539 207.587 214.388 207.012 214.043 206.555C213.699 206.099 213.116 205.786 212.567 205.923C211.696 206.141 211.417 207.243 211.316 208.152C210.943 211.509 209.559 215.595 209.662 218.972" fill="#EDB984"/>
<path d="M164.649 429.828C165.026 429.61 165.395 429.376 165.755 429.125C166.653 428.497 167.678 427.726 168.714 428.055C169.291 428.238 169.719 428.731 170.115 429.202C173.147 432.806 176.154 435.76 179.744 438.773C182.564 441.14 185.701 444.599 184.398 448.108C183.121 451.547 178.683 452.013 175.127 451.903C168.866 451.709 162.605 451.494 156.346 451.259C153.216 451.141 150.087 451.002 146.957 450.891C145.148 450.827 143.346 451.081 141.572 450.533C140.313 450.144 139.119 449.311 138.585 448.068C138.221 447.22 138.191 446.263 138.168 445.335C138.03 439.859 139.12 435.442 139.669 429.073C151.817 434.604 161.793 431.475 164.649 429.828Z" fill="#4F7E95"/>
<path d="M219.947 426.48C220.475 426.101 221.099 425.679 221.722 425.866C221.977 425.943 222.191 426.114 222.398 426.282C227.307 430.26 232.215 434.237 237.124 438.215C240.045 440.582 243.293 444.041 241.944 447.55C240.622 450.989 236.026 451.455 232.343 451.345C225.858 451.151 219.374 450.936 212.891 450.701C209.649 450.583 206.408 450.444 203.167 450.333C200.631 450.246 198.323 450.489 197.018 447.81C196.307 446.349 196.214 444.675 196.134 443.052C195.934 439.001 195.734 434.95 195.534 430.9C195.42 428.592 198.514 430.5 199.887 430.769C202.185 431.219 204.546 431.347 206.88 431.168C211.548 430.808 216.136 429.215 219.947 426.48Z" fill="#4F7E95"/>
<path d="M145.001 194.147C143.718 194.816 142.452 195.513 141.299 196.263C140.602 196.716 139.931 197.24 139.463 197.928C138.68 199.079 138.555 200.572 138.779 201.945C139.004 203.319 139.545 204.616 140.01 205.928C140.598 207.588 141.068 209.289 141.415 211.016C141.703 212.448 141.525 214.522 142.098 215.831C142.731 217.279 144.364 218.458 145.922 217.921C148.677 216.971 149.901 212.054 150.747 209.645C151.968 206.167 153.734 202.764 156.554 200.391C159.373 198.019 163.031 196.521 166.716 196.479C173.579 196.401 189.857 198.643 190.207 196.89C190.277 196.541 184.805 193.388 183.365 192.737C180.912 191.629 178.369 190.721 175.771 190.017C170.039 188.464 164.338 188.656 158.51 189.634C155.386 190.158 151.527 190.766 148.704 192.246C147.516 192.868 146.251 193.494 145.001 194.147Z" fill="#89514E"/>
<path d="M144.422 217.886C144.422 217.886 147.352 219.002 149.654 212.793C149.654 212.793 152.584 194.305 170.514 196.746C170.514 196.746 187.793 198.931 189.793 196.908" stroke="#664238" stroke-width="0.5" stroke-miterlimit="10" stroke-linecap="round" stroke-linejoin="round"/>
<path d="M189.792 196.909C189.792 196.909 179.112 186.996 160.414 189.578" stroke="#664238" stroke-width="0.5" stroke-miterlimit="10" stroke-linecap="round" stroke-linejoin="round"/>
<path d="M153.977 229.75C153.977 229.75 159.698 240.285 168.138 249.308" stroke="#C16248" stroke-width="0.5" stroke-miterlimit="10" stroke-linecap="round"/>
<path d="M171.094 213.539C171.094 213.539 176.144 225.025 184.062 234.404" stroke="#C16248" stroke-width="0.5" stroke-miterlimit="10" stroke-linecap="round"/>
<path d="M222.164 277.491C226.289 275.861 226.708 270.926 229.921 272.112C232.885 273.206 236.183 274.931 238.258 276.345C240.674 277.892 243.318 279.394 243.777 281.914C243.874 282.446 243.846 283.042 243.505 283.461C243.215 283.817 242.729 284.411 241.602 284.612C241.782 285.81 241.003 287.239 239.563 287.163C239.764 287.799 238.903 289.514 237.27 289.213C237.123 290.972 234.917 291.833 232.504 290.424C230.957 289.521 228.825 287.849 227.471 286.661C227.471 286.661 223.455 283.628 225.157 279.425" fill="#EDB984"/>
<path d="M227.358 293.924L217.736 286.217C216.853 285.51 216.711 284.221 217.418 283.339L231.642 265.58C232.349 264.697 233.638 264.555 234.52 265.262L244.142 272.969C245.025 273.676 245.167 274.965 244.46 275.847L230.236 293.606C229.529 294.489 228.241 294.631 227.358 293.924Z" fill="#4F7E95"/>
<path d="M227.32 292.598L219.041 285.967C218.158 285.26 218.016 283.971 218.723 283.089L231.683 266.908C232.39 266.025 233.679 265.883 234.561 266.59L242.84 273.221C243.723 273.928 243.865 275.217 243.158 276.099L230.198 292.28C229.492 293.163 228.203 293.305 227.32 292.598Z" fill="#3B525B"/>
<path d="M238.916 286.616L234.411 283.186C234.411 283.186 233.522 282.377 234.311 281.235C234.311 281.235 234.979 279.952 236.444 280.832L240.656 283.776" fill="#EDB984"/>
<path d="M238.916 286.616L234.411 283.186C234.411 283.186 233.522 282.377 234.311 281.235C234.311 281.235 234.979 279.952 236.444 280.832L240.656 283.776" stroke="#DBA76E" stroke-width="0.75" stroke-miterlimit="10" stroke-linecap="round"/>
<path d="M240.767 283.96L236.262 280.53C236.262 280.53 235.373 279.721 236.162 278.579C236.162 278.579 236.83 277.296 238.295 278.176L242.507 281.121" fill="#EDB984"/>
<path d="M240.767 283.96L236.262 280.53C236.262 280.53 235.373 279.721 236.162 278.579C236.162 278.579 236.83 277.296 238.295 278.176L242.507 281.121" stroke="#DBA76E" stroke-width="0.75" stroke-miterlimit="10" stroke-linecap="round"/>
<path d="M236.681 289.123L232.176 285.693C232.176 285.693 231.287 284.884 232.077 283.742C232.077 283.742 232.745 282.459 234.21 283.34L238.422 286.285" fill="#EDB984"/>
<path d="M236.681 289.123L232.176 285.693C232.176 285.693 231.287 284.884 232.077 283.742C232.077 283.742 232.745 282.459 234.21 283.34L238.422 286.285" stroke="#DBA76E" stroke-width="0.75" stroke-miterlimit="10" stroke-linecap="round"/>
<path d="M233.715 290.077L230.705 287.785C230.705 287.785 230.033 287.173 230.63 286.311C230.63 286.311 231.135 285.341 232.242 286.007L235.425 288.232" fill="#EDB984"/>
<path d="M233.715 290.077L230.705 287.785C230.705 287.785 230.033 287.173 230.63 286.311C230.63 286.311 231.135 285.341 232.242 286.007L235.425 288.232" stroke="#DBA76E" stroke-width="0.75" stroke-miterlimit="10" stroke-linecap="round"/>
<path d="M141.906 432.975C141.906 432.975 157.394 440.51 169.255 430.742" stroke="#39687A" stroke-miterlimit="10" stroke-linecap="round"/>
<path d="M197.047 432.981C197.047 432.981 208.79 438.109 222.466 429.586" stroke="#39687A" stroke-miterlimit="10" stroke-linecap="round"/>
<path d="M181.148 352.62L189.35 318.141" stroke="#2A3A3F" stroke-width="0.5" stroke-miterlimit="10" stroke-linecap="round" stroke-linejoin="round"/>
<path d="M194.696 141.344C194.696 141.344 199.399 153.634 187.281 159.859" stroke="#664238" stroke-width="0.5" stroke-miterlimit="10" stroke-linecap="round" stroke-linejoin="round"/>
<path d="M183.647 158.93C183.647 158.93 182.73 162.935 179.234 164.783" stroke="#664238" stroke-width="0.5" stroke-miterlimit="10" stroke-linecap="round" stroke-linejoin="round"/>
<path d="M177.987 161.375C177.987 161.375 177.987 163.494 176.32 165.613" stroke="#664238" stroke-width="0.5" stroke-miterlimit="10" stroke-linecap="round" stroke-linejoin="round"/>
<path d="M173.722 163.867C173.722 163.867 173.815 167.167 172.094 171.539" stroke="#664238" stroke-width="0.5" stroke-miterlimit="10" stroke-linecap="round" stroke-linejoin="round"/>
<path d="M154.197 170.102C154.197 170.102 153.569 176.937 159.918 178.612" stroke="#664238" stroke-width="0.5" stroke-miterlimit="10" stroke-linecap="round" stroke-linejoin="round"/>
<path d="M141.211 205.899C141.211 205.899 144.48 201.487 151.242 199.836" stroke="#664238" stroke-width="0.5" stroke-miterlimit="10" stroke-linecap="round" stroke-linejoin="round"/>
<path d="M142.609 210.779C142.609 210.779 150.4 198.421 158.19 194.328" stroke="#664238" stroke-width="0.5" stroke-miterlimit="10" stroke-linecap="round" stroke-linejoin="round"/>
<path d="M138.632 231.531C138.632 231.531 137.702 253.205 137.516 275.903" stroke="#C16248" stroke-width="0.5" stroke-miterlimit="10" stroke-linecap="round"/>
<path d="M161.605 138.789C161.605 138.789 160.117 134.51 162.256 131.812" stroke="#89514E" stroke-width="0.5" stroke-miterlimit="10" stroke-linecap="round" stroke-linejoin="round"/>
<path d="M157.234 135.906C157.234 135.906 157.513 137.953 160.118 139.162" stroke="#89514E" stroke-width="0.5" stroke-miterlimit="10" stroke-linecap="round" stroke-linejoin="round"/>
<path d="M148.682 303.07C143.659 353.768 143.845 426.605 143.845 426.605" stroke="#2A3A3F" stroke-width="0.5" stroke-miterlimit="10" stroke-linecap="round" stroke-linejoin="round"/>
<path d="M185.516 355.438L200.028 426.879" stroke="#2A3A3F" stroke-width="0.5" stroke-miterlimit="10" stroke-linecap="round" stroke-linejoin="round"/>
<path d="M164.078 120.136C164.078 122.118 165.685 123.725 167.667 123.725C169.649 123.725 171.256 122.118 171.256 120.136C171.256 118.154 169.649 116.547 167.667 116.547C165.685 116.547 164.078 118.153 164.078 120.136Z" stroke="#6FA875" stroke-miterlimit="10" stroke-linecap="round" stroke-linejoin="round"/>
<path d="M117.508 187.542C117.508 189.524 119.115 191.131 121.097 191.131C123.079 191.131 124.686 189.524 124.686 187.542C124.686 185.56 123.079 183.953 121.097 183.953C119.115 183.953 117.508 185.56 117.508 187.542Z" stroke="#6FA875" stroke-miterlimit="10" stroke-linecap="round" stroke-linejoin="round"/>
<path d="M273.289 133.722C273.289 135.704 274.896 137.311 276.878 137.311C278.86 137.311 280.467 135.704 280.467 133.722C280.467 131.74 278.86 130.133 276.878 130.133C274.896 130.133 273.289 131.74 273.289 133.722Z" stroke="#6FA875" stroke-miterlimit="10" stroke-linecap="round" stroke-linejoin="round"/>
<path d="M179.033 101.998H181.623V99.4079C181.623 98.7469 182.159 98.2109 182.821 98.2109C183.483 98.2109 184.018 98.7469 184.018 99.4079V101.998H186.607C187.269 101.998 187.804 102.534 187.804 103.196C187.804 103.858 187.268 104.394 186.607 104.394H184.018V106.984C184.018 107.645 183.482 108.182 182.821 108.182C182.159 108.182 181.623 107.646 181.623 106.984V104.394H179.033C178.371 104.394 177.836 103.858 177.836 103.196C177.836 102.534 178.371 101.998 179.033 101.998Z" stroke="#6FA875" stroke-miterlimit="10" stroke-linecap="round" stroke-linejoin="round"/>
<path d="M132.728 226.607H135.318V224.017C135.318 223.356 135.854 222.82 136.515 222.82C137.176 222.82 137.713 223.356 137.713 224.017V226.607H140.302C140.964 226.607 141.5 227.143 141.5 227.804C141.5 228.465 140.964 229.002 140.302 229.002H137.713V231.592C137.713 232.253 137.177 232.79 136.515 232.79C135.853 232.79 135.318 232.254 135.318 231.592V229.002H132.728C132.066 229.002 131.531 228.466 131.531 227.804C131.53 227.143 132.066 226.607 132.728 226.607Z" stroke="#6FA875" stroke-miterlimit="10" stroke-linecap="round" stroke-linejoin="round"/>
<path d="M226.495 185.663H229.085V183.073C229.085 182.412 229.621 181.875 230.283 181.875C230.945 181.875 231.48 182.411 231.48 183.073V185.663H234.069C234.731 185.663 235.267 186.199 235.267 186.861C235.267 187.522 234.731 188.058 234.069 188.058H231.48V190.648C231.48 191.309 230.944 191.845 230.283 191.845C229.621 191.845 229.085 191.309 229.085 190.648V188.058H226.495C225.833 188.058 225.297 187.522 225.297 186.861C225.298 186.199 225.833 185.663 226.495 185.663Z" stroke="#6FA875" stroke-miterlimit="10" stroke-linecap="round" stroke-linejoin="round"/>
<path d="M80.4246 135.077H83.0146V132.487C83.0146 131.826 83.5506 131.289 84.2116 131.289C84.8736 131.289 85.4086 131.825 85.4086 132.487V135.077H87.9976C88.6596 135.077 89.1956 135.613 89.1956 136.275C89.1956 136.936 88.6596 137.473 87.9976 137.473H85.4086V140.063C85.4086 140.724 84.8726 141.26 84.2116 141.26C83.5496 141.26 83.0146 140.724 83.0146 140.063V137.473H80.4246C79.7626 137.473 79.2266 136.937 79.2266 136.275C79.2276 135.613 79.7626 135.077 80.4246 135.077Z" stroke="#6FA875" stroke-miterlimit="10" stroke-linecap="round" stroke-linejoin="round"/>
<path d="M326.401 223.014H328.991V220.424C328.991 219.763 329.527 219.227 330.189 219.227C330.851 219.227 331.387 219.763 331.387 220.424V223.014H333.976C334.638 223.014 335.173 223.55 335.173 224.212C335.173 224.874 334.637 225.41 333.976 225.41H331.387V228C331.387 228.661 330.851 229.198 330.189 229.198C329.527 229.198 328.991 228.662 328.991 228V225.41H326.401C325.739 225.41 325.203 224.874 325.203 224.212C325.203 223.55 325.739 223.014 326.401 223.014Z" stroke="#6FA875" stroke-miterlimit="10" stroke-linecap="round" stroke-linejoin="round"/>
<path d="M70.1761 229.734H30.0321C28.5861 229.734 27.4141 230.906 27.4141 232.352V247.517C27.4141 248.963 28.5861 250.135 30.0321 250.135H70.1761C71.6221 250.135 72.7941 248.963 72.7941 247.517V232.352C72.7941 230.906 71.6221 229.734 70.1761 229.734Z" fill="#81CDC9"/>
<path d="M64.7049 248.26H71.4339C72.8799 248.26 74.0519 247.088 74.0519 245.642V230.477C74.0519 229.031 72.8799 227.859 71.4339 227.859H31.2899C29.8439 227.859 28.6719 229.031 28.6719 230.477V245.642C28.6719 247.088 29.8439 248.26 31.2899 248.26H52.6129" stroke="#71B5B0" stroke-miterlimit="10" stroke-linecap="round"/>
<path d="M56.7031 248.266H60.3311" stroke="#71B5B0" stroke-miterlimit="10" stroke-linecap="round"/>
<path d="M16.6805 225.724H109.375C110.821 225.724 111.993 224.552 111.993 223.106V194.509C111.993 193.063 110.821 191.891 109.375 191.891H16.6805C15.2345 191.891 14.0625 193.063 14.0625 194.509V223.106C14.0625 224.552 15.2345 225.724 16.6805 225.724Z" fill="#F9D953"/>
<path d="M71.214 189.922H19.118C17.672 189.922 16.5 191.094 16.5 192.54V221.137C16.5 222.583 17.672 223.755 19.118 223.755H30.725H34.033" stroke="#6FA875" stroke-miterlimit="10" stroke-linecap="round" stroke-linejoin="round"/>
<path d="M83.0275 189.922H78.5625" stroke="#6FA875" stroke-miterlimit="10" stroke-linecap="round" stroke-linejoin="round"/>
<path d="M46.0078 223.755H111.812C113.258 223.755 114.43 222.583 114.43 221.137V192.54C114.43 191.094 113.258 189.922 111.812 189.922H89.8168" stroke="#6FA875" stroke-miterlimit="10" stroke-linecap="round" stroke-linejoin="round"/>
<path d="M37.7734 223.758H40.9834" stroke="#6FA875" stroke-miterlimit="10" stroke-linecap="round" stroke-linejoin="round"/>
<g opacity="0.4114">
<path d="M44.8162 240.406H35.2212C34.5632 240.406 34.0312 240.939 34.0312 241.596C34.0312 242.253 34.5642 242.786 35.2212 242.786H44.8162C45.4732 242.786 46.0062 242.253 46.0062 241.596C46.0062 240.939 45.4732 240.406 44.8162 240.406Z" fill="white"/>
</g>
<g opacity="0.4114">
<path d="M54.8542 235.68H35.2212C34.5632 235.68 34.0312 236.213 34.0312 236.87C34.0312 237.527 34.5642 238.06 35.2212 238.06H54.8542C55.5112 238.06 56.0443 237.527 56.0443 236.87C56.0443 236.213 55.5112 235.68 54.8542 235.68Z" fill="white"/>
</g>
<g opacity="0.4114">
<path d="M26.1041 206.841H99.9491C100.607 206.841 101.139 206.308 101.139 205.651C101.139 204.994 100.606 204.461 99.9491 204.461H26.1041C25.4471 204.461 24.9141 204.994 24.9141 205.651C24.9141 206.308 25.4471 206.841 26.1041 206.841Z" fill="white"/>
</g>
<g opacity="0.4114">
<path d="M26.8228 213.169H99.9488C100.607 213.169 101.139 212.636 101.139 211.979C101.139 211.322 100.606 210.789 99.9488 210.789H26.8228C26.1658 210.789 25.6328 211.322 25.6328 211.979C25.6328 212.635 26.1658 213.169 26.8228 213.169Z" fill="white"/>
</g>
<path d="M301.207 366.747H300.722V353.147C300.722 343.28 292.723 335.281 282.856 335.281C272.989 335.281 264.99 343.28 264.99 353.147V366.747H264.505C263.078 366.747 261.922 367.904 261.922 369.33C261.922 370.757 263.079 371.913 264.505 371.913H301.207C302.634 371.913 303.79 370.756 303.79 369.33C303.791 367.904 302.634 366.747 301.207 366.747Z" fill="#F9D953"/>
<path d="M282.86 378.368C285.566 378.368 287.759 376.175 287.759 373.469C287.759 370.764 285.566 368.57 282.86 368.57C280.154 368.57 277.961 370.764 277.961 373.469C277.961 376.175 280.154 378.368 282.86 378.368Z" fill="#F9D953"/>
<path d="M270.703 365.023H299.994" stroke="#6FA875" stroke-miterlimit="10" stroke-linecap="round" stroke-linejoin="round"/>
<path d="M303.393 365.292H302.908V351.692C302.908 342.246 295.572 334.532 286.29 333.889V332.317C286.29 331.628 285.731 331.07 285.042 331.07C284.353 331.07 283.795 331.629 283.795 332.317V333.889C274.512 334.532 267.177 342.246 267.177 351.692V365.292H266.692C265.265 365.292 264.109 366.448 264.109 367.875C264.109 369.302 265.266 370.458 266.692 370.458H280.418C280.253 370.949 280.143 371.465 280.143 372.011C280.143 374.717 282.337 376.91 285.042 376.91C287.748 376.91 289.942 374.716 289.942 372.011C289.942 371.465 289.832 370.949 289.667 370.458H303.393C304.82 370.458 305.976 369.301 305.976 367.875C305.977 366.449 304.82 365.292 303.393 365.292Z" stroke="#6FA875" stroke-miterlimit="10" stroke-linecap="round" stroke-linejoin="round"/>
<path d="M285.352 381.344V386.08" stroke="#6FA875" stroke-miterlimit="10" stroke-linecap="round" stroke-linejoin="round"/>
<path d="M278.359 385.788L280.108 381.344" stroke="#6FA875" stroke-miterlimit="10" stroke-linecap="round" stroke-linejoin="round"/>
<path d="M290.398 381.344L292.147 385.788" stroke="#6FA875" stroke-miterlimit="10" stroke-linecap="round" stroke-linejoin="round"/>
<path d="M244.646 140.096C259.241 140.096 271.073 128.264 271.073 113.669C271.073 99.074 259.241 87.2422 244.646 87.2422C230.051 87.2422 218.219 99.074 218.219 113.669C218.219 128.264 230.051 140.096 244.646 140.096Z" fill="#6BBCB6"/>
<path d="M244.649 135.735C256.834 135.735 266.712 125.857 266.712 113.672C266.712 101.487 256.834 91.6094 244.649 91.6094C232.464 91.6094 222.586 101.487 222.586 113.672C222.586 125.857 232.464 135.735 244.649 135.735Z" fill="white"/>
<path opacity="0.2747" d="M266.709 113.667C266.709 125.856 256.833 135.732 244.644 135.732C236.363 135.732 229.138 131.169 225.367 124.409C229.338 128.264 234.747 130.63 240.714 130.63C252.903 130.63 262.779 120.744 262.779 108.565C262.779 104.668 261.776 101.013 260.001 97.8438C264.142 101.847 266.709 107.456 266.709 113.667Z" fill="#6BBCB6"/>
<path d="M229.569 131.819C228.319 130.786 227.166 129.641 226.125 128.398" stroke="#62A09A" stroke-miterlimit="10" stroke-linecap="round"/>
<path d="M265.071 92.75C269.853 97.532 272.811 104.139 272.811 111.437C272.811 126.032 260.979 137.864 246.384 137.864C242.218 137.864 238.278 136.9 234.773 135.183" stroke="#62A09A" stroke-miterlimit="10" stroke-linecap="round"/>
<path d="M254.383 86.2422C255.914 86.7282 257.386 87.3492 258.782 88.0922" stroke="#62A09A" stroke-miterlimit="10" stroke-linecap="round"/>
<path d="M222.762 123.289C220.97 119.724 219.961 115.698 219.961 111.435C219.961 96.8398 231.793 85.0078 246.388 85.0078" stroke="#62A09A" stroke-miterlimit="10" stroke-linecap="round"/>
<path d="M244.305 101.773V114.308H256.512" stroke="#62A09A" stroke-miterlimit="10" stroke-linecap="round"/>
<path d="M347.043 263.641H306.899C305.453 263.641 304.281 264.813 304.281 266.259V281.424C304.281 282.87 305.453 284.042 306.899 284.042H347.043C348.489 284.042 349.661 282.87 349.661 281.424V266.259C349.66 264.813 348.488 263.641 347.043 263.641Z" fill="#CB7252"/>
<path d="M341.572 282.167H348.301C349.747 282.167 350.919 280.995 350.919 279.549V264.384C350.919 262.938 349.747 261.766 348.301 261.766H308.157C306.711 261.766 305.539 262.938 305.539 264.384V279.549C305.539 280.995 306.711 282.167 308.157 282.167H329.48" stroke="#C16248" stroke-miterlimit="10" stroke-linecap="round"/>
<path d="M333.57 282.164H337.198" stroke="#C16248" stroke-miterlimit="10" stroke-linecap="round"/>
<g opacity="0.4114">
<path d="M321.683 274.312H312.088C311.43 274.312 310.898 274.846 310.898 275.503C310.898 276.16 311.431 276.693 312.088 276.693H321.683C322.34 276.693 322.873 276.16 322.873 275.503C322.873 274.846 322.34 274.312 321.683 274.312Z" fill="white"/>
</g>
<g opacity="0.4114">
<path d="M331.722 269.586H312.088C311.43 269.586 310.898 270.119 310.898 270.776C310.898 271.433 311.431 271.966 312.088 271.966H331.722C332.379 271.966 332.912 271.433 332.912 270.776C332.912 270.119 332.38 269.586 331.722 269.586Z" fill="white"/>
</g>
</svg>
