<svg width="382" height="342" viewBox="0 0 382 342" fill="none" xmlns="http://www.w3.org/2000/svg">
<path d="M370.938 246.769C364.69 232.559 352.692 220.701 338.28 214.864C323.268 208.785 306.03 210.998 290.218 208.962C276.485 207.193 266.577 201.062 258.377 190.162C250.52 179.718 243.475 168.152 230.629 163.321C220.478 159.504 208.938 160.561 198.85 164.539C180.26 171.869 166.219 187.454 154.394 202.98C143.598 217.156 134.792 232.678 114.822 233.184C94.8399 233.691 75.8163 222.293 55.6965 225.313C29.1051 229.305 6.96008 251.441 2.31934 277.795C-2.02978 302.493 8.88371 326.448 27.6325 340.523H349.895C373.52 315.461 385.917 280.84 370.938 246.769Z" fill="#F7F0E3"/>
<path d="M79.6218 340.524H80.5083C86.6649 333.757 91.4876 325.546 94.5534 316.431C99.5156 301.679 99.3064 286.197 93.9645 272.836C91.2647 266.085 87.3664 259.792 83.5963 253.707C79.7726 247.535 75.8193 241.153 73.1359 234.315C72.0265 231.487 71.2069 228.451 70.7138 225.353C70.4917 225.324 70.2693 225.3 70.0469 225.273C70.5422 228.481 71.385 231.626 72.5328 234.551C75.2372 241.445 79.2065 247.852 83.0453 254.048C86.8005 260.11 90.6838 266.378 93.3623 273.077C98.6472 286.294 98.852 301.618 93.9388 316.224C90.8355 325.452 85.9117 333.74 79.6218 340.524Z" fill="white"/>
<path d="M348.339 312.42C354.979 313.835 361.378 315.104 367.566 315.902C367.672 315.698 367.775 315.492 367.88 315.287C361.64 314.494 355.182 313.215 348.475 311.786C338.262 309.61 327.208 307.255 316.244 307.255C309.456 307.255 302.703 308.158 296.207 310.565C293.745 311.477 291.373 312.634 289.115 314.012C283.25 311.512 277.353 308.783 271.511 305.787C275.75 302.594 280.033 299.467 284.363 296.444C316.5 274.003 346.159 261.281 374.813 257.67C374.755 257.46 374.695 257.25 374.636 257.04C345.905 260.681 316.181 273.435 283.992 295.912C279.571 299 275.197 302.195 270.872 305.457C264.302 302.064 257.812 298.333 251.529 294.217C240.136 286.752 226.582 276.095 214.746 261.936C260.614 256.79 307.313 250.306 345.448 224.819C346.896 223.851 348.5 222.71 350.162 221.415C349.978 221.285 349.792 221.156 349.607 221.028C348.014 222.261 346.478 223.351 345.088 224.28C306.962 249.761 260.177 256.195 214.25 261.34C205.886 251.223 198.413 239.34 193.22 225.583C185.13 204.154 185.557 183.125 194.392 167.888C194.775 167.226 195.181 166.575 195.598 165.93C195.229 166.099 194.864 166.275 194.498 166.45C194.271 166.819 194.048 167.189 193.831 167.562C184.898 182.969 184.454 204.2 192.613 225.812C197.779 239.494 205.185 251.33 213.481 261.425C210.822 261.722 208.163 262.016 205.512 262.308C195.948 263.364 186.058 264.456 176.456 265.692C172.95 266.143 169.386 266.669 165.839 267.329C158.235 251.282 149.883 235.626 139.087 222.2C138.933 222.354 138.775 222.504 138.619 222.655C149.323 235.979 157.624 251.518 165.18 267.453C149.71 270.403 134.688 275.949 126.668 288.859C119.177 300.915 119.184 317.58 126.688 338.391C126.947 339.11 127.215 339.82 127.486 340.525H128.18C127.883 339.754 127.587 338.975 127.298 338.171C119.864 317.556 119.838 301.08 127.219 289.201C135.144 276.445 150.083 270.973 165.467 268.058C168.152 273.736 170.745 279.46 173.322 285.15L173.602 285.769C182.552 305.526 191.808 324.593 203.929 340.525H204.738C192.507 324.563 183.198 305.382 174.193 285.502L173.912 284.883C171.357 279.242 168.786 273.566 166.126 267.935C169.605 267.292 173.1 266.777 176.539 266.335C186.136 265.099 196.022 264.008 205.583 262.953C208.375 262.645 211.174 262.336 213.975 262.023C225.924 276.404 239.65 287.208 251.174 294.759C257.388 298.831 263.805 302.526 270.299 305.891C259.275 314.229 248.552 323.001 238.083 331.567C234.457 334.533 230.791 337.53 227.095 340.525H228.122C231.608 337.697 235.07 334.869 238.493 332.069C249.036 323.443 259.835 314.608 270.937 306.221C276.746 309.209 282.61 311.935 288.445 314.431C280.463 319.507 273.958 327.367 270.025 336.913C269.532 338.108 269.102 339.314 268.704 340.525H269.386C269.762 339.397 270.165 338.273 270.624 337.159C274.568 327.588 281.127 319.735 289.17 314.74C305.479 321.669 321.508 326.812 335.281 330.887L335.8 331.04C341.604 332.756 347.54 334.515 352.791 337.34C352.938 337.173 353.085 337.006 353.231 336.838C347.895 333.942 341.871 332.16 335.983 330.419L335.465 330.265C321.832 326.232 305.988 321.151 289.853 314.325C291.955 313.074 294.155 312.017 296.433 311.173C313.245 304.942 331.89 308.915 348.339 312.42Z" fill="white"/>
<path d="M29.2594 270.442C32.1217 282.158 30.8448 294.811 25.7556 305.157C22.4224 311.933 17.6087 318.068 11.6797 323.337C11.7976 323.52 11.9182 323.702 12.0379 323.884C18.0631 318.546 22.9535 312.322 26.3373 305.443C31.4926 294.963 32.7871 282.15 29.8888 270.289C27.6246 261.021 23.0727 253.172 16.7839 247.492C16.6437 247.657 16.5045 247.823 16.3661 247.989C22.5502 253.581 27.0286 261.312 29.2594 270.442Z" fill="white"/>
<path d="M175.93 122.034C181.575 127.803 184.105 137.521 180.993 146.481C177.979 155.157 171.372 162.344 163.434 166.964C157.047 170.681 148.716 172.732 142.434 168.839C137.74 165.93 135.306 160.223 135.171 154.703C135.036 149.182 136.892 143.802 139.187 138.779C142.421 131.699 146.774 124.833 153.259 120.528C162.198 114.593 170.503 116.489 175.93 122.034Z" fill="#F7F0E3"/>
<path d="M101.091 20.8835H54.3438V0H101.091V20.8835ZM55.3158 19.9114H100.119V0.972059H55.3158V19.9114Z" fill="#E9DDCA"/>
<path d="M70.6845 40.86H23.9375V19.9766H70.6845V40.86ZM24.9096 39.888H69.7124V20.9486H24.9096V39.888Z" fill="#E9DDCA"/>
<path d="M367.077 63.1072C364.05 53.0421 358.726 43.8013 351.105 35.3529C343.468 26.9046 333.053 19.9304 319.859 14.4145C306.665 8.89842 289.901 6.14062 269.567 6.14062C253.347 6.14062 236.816 8.32789 219.975 12.7027C203.118 17.0933 188.496 23.3383 176.094 31.4538L192.237 75.7743L183.585 82.7832L196.133 86.4708C208.519 79.9878 219.804 75.2805 229.986 72.3479C240.153 69.4315 250.957 67.9732 262.412 67.9732C273.852 67.9732 282.513 70.7312 288.396 76.2471C294.279 81.779 297.212 88.4201 297.212 96.2186C297.212 105.634 294.185 113.987 288.163 121.294C282.109 128.601 275.435 135.987 268.124 143.453C263.048 148.636 258.112 153.994 253.347 159.51C248.582 165.041 244.36 170.954 240.712 177.294C237.049 183.618 234.115 190.434 231.895 197.741C229.66 205.048 228.558 213.243 228.558 222.325C228.558 225.257 228.62 228.745 228.791 232.802C228.82 233.551 228.859 234.281 228.904 235.001H217.041L229.986 243.755H292.928C292.602 241.806 292.447 239.539 292.447 236.939C292.447 234.34 292.447 232.39 292.447 231.091C292.447 225.575 293.565 220.138 295.785 214.78C298.004 209.423 300.798 204.319 304.135 199.437C307.473 194.571 311.198 189.943 315.342 185.568C319.471 181.178 323.445 177.04 327.263 173.141C332.339 167.958 337.586 162.442 342.987 156.594C348.389 150.745 353.17 144.595 357.299 138.096C361.427 131.598 364.842 124.544 367.543 116.904C370.244 109.28 371.61 100.927 371.61 91.8285C371.609 82.7459 370.088 73.1723 367.077 63.1072Z" fill="#E49B31"/>
<path d="M249.087 64.8801C237.766 64.8801 227.089 66.2912 217.042 69.1138C206.979 71.9517 195.827 76.5077 183.585 82.7818L163.781 29.537C176.038 21.6831 190.488 15.6392 207.147 11.3898C223.791 7.15608 240.128 5.03906 256.158 5.03906C276.253 5.03906 292.821 7.70821 305.859 13.0465C318.899 18.3848 329.191 25.1342 336.739 33.3104C344.271 41.4866 349.532 50.4298 352.523 60.1706C355.499 69.9114 357.003 79.1768 357.003 87.9666C357.003 96.7716 355.653 104.856 352.984 112.234C350.314 119.628 346.94 126.454 342.859 132.744C338.779 139.033 334.054 144.985 328.716 150.645C323.378 156.306 318.193 161.644 313.177 166.66C309.403 170.434 305.476 174.438 301.396 178.687C297.3 182.921 293.618 187.4 290.32 192.109C287.022 196.834 284.261 201.773 282.067 206.958C279.874 212.143 278.769 217.405 278.769 222.743C278.769 224.001 278.769 225.888 278.769 228.403C278.769 230.919 278.923 233.113 279.245 235H217.042C216.397 231.855 216.014 228.327 215.86 224.4C215.692 220.473 215.63 217.098 215.63 214.26C215.63 205.47 216.719 197.54 218.928 190.468C221.122 183.396 224.021 176.8 227.641 170.679C231.246 164.544 235.418 158.822 240.128 153.468C244.837 148.13 249.715 142.945 254.732 137.929C261.957 130.704 268.553 123.555 274.535 116.484C280.487 109.412 283.479 101.328 283.479 92.2159C283.479 84.6686 280.579 78.2413 274.766 72.8878C268.952 67.5492 260.392 64.8801 249.087 64.8801Z" fill="#FBC343"/>
<path d="M297.238 304.851C297.238 316.199 293.565 324.955 286.217 331.132C278.87 337.322 270.567 340.404 261.295 340.404C252.01 340.404 243.707 337.322 236.36 331.132C229.025 324.955 225.352 316.199 225.352 304.851C225.352 293.515 229.025 284.759 236.36 278.569C247.67 269.025 264.401 266.898 277.642 273.597C289.392 279.541 297.238 291.612 297.238 304.851Z" fill="#E49B31"/>
<path d="M284.926 304.858C284.926 316.206 281.252 324.962 273.905 331.14C266.558 337.329 258.255 340.412 248.982 340.412C239.698 340.412 231.394 337.329 224.047 331.14C216.713 324.962 213.039 316.206 213.039 304.858C213.039 293.523 216.713 284.767 224.047 278.577C231.394 272.4 239.698 269.305 248.982 269.305C258.255 269.305 266.558 272.399 273.905 278.577C281.252 284.767 284.926 293.523 284.926 304.858Z" fill="#FBC343"/>
<path d="M98.5894 143.96C99.279 140.28 96.855 136.738 93.1754 136.048C89.4958 135.359 85.9538 137.783 85.2642 141.462C84.5746 145.142 86.9986 148.684 90.6782 149.374C94.3579 150.063 97.8998 147.639 98.5894 143.96Z" fill="#D3DFFF"/>
<path d="M101.828 156.706C102.216 154.637 100.841 152.642 98.7565 152.252C96.6723 151.861 94.6682 153.222 94.2804 155.292C93.8925 157.361 95.2677 159.356 97.352 159.746C99.4362 160.137 101.44 158.776 101.828 156.706Z" fill="#D3DFFF"/>
<path d="M94.0687 127.458C104.491 117.035 104.491 100.137 94.0687 89.7141C83.6461 79.2914 66.7476 79.2914 56.325 89.7141C45.9023 100.137 45.9023 117.035 56.325 127.458C66.7476 137.88 83.6461 137.88 94.0687 127.458Z" fill="#D3DFFF"/>
<path d="M64.9485 111.952C66.8056 111.952 68.311 110.446 68.311 108.589C68.311 106.732 66.8056 105.227 64.9485 105.227C63.0914 105.227 61.5859 106.732 61.5859 108.589C61.5859 110.446 63.0914 111.952 64.9485 111.952Z" fill="white"/>
<path d="M75.1985 111.952C77.0556 111.952 78.561 110.446 78.561 108.589C78.561 106.732 77.0556 105.227 75.1985 105.227C73.3414 105.227 71.8359 106.732 71.8359 108.589C71.8359 110.446 73.3414 111.952 75.1985 111.952Z" fill="white"/>
<path d="M85.4485 111.952C87.3056 111.952 88.811 110.446 88.811 108.589C88.811 106.732 87.3056 105.227 85.4485 105.227C83.5914 105.227 82.0859 106.732 82.0859 108.589C82.0859 110.446 83.5914 111.952 85.4485 111.952Z" fill="white"/>
<path d="M56.0788 327.048L58.5724 336.661C59.2228 339.168 61.6467 340.862 64.3286 340.68C72.505 340.124 89.4935 338.121 99.2439 330.935L96.4721 317.079C83.066 316.322 70.5285 317.068 59.6725 320.722C56.9544 321.638 55.3822 324.362 56.0788 327.048Z" fill="#102048"/>
<path d="M71.7037 334.691C71.5619 334.691 71.4318 334.598 71.3916 334.454L68.0433 322.466C67.9951 322.293 68.0959 322.115 68.2683 322.067C68.4417 322.019 68.6195 322.119 68.6677 322.292L72.016 334.28C72.064 334.453 71.9634 334.631 71.791 334.679C71.7617 334.688 71.7322 334.691 71.7037 334.691Z" fill="white"/>
<path d="M78.938 333.074C78.7962 333.074 78.666 332.981 78.6259 332.838L75.2776 320.849C75.2296 320.676 75.3302 320.498 75.5026 320.45C75.6763 320.401 75.8538 320.502 75.902 320.675L79.2503 332.663C79.2985 332.836 79.1977 333.014 79.0253 333.063C78.996 333.071 78.9667 333.074 78.938 333.074Z" fill="white"/>
<path d="M87.3463 275.075L56.1875 284.323L79.3274 316.028L112.548 318.671L158.369 299.295L140.957 273.094L87.3463 275.075Z" fill="#FBC343"/>
<path d="M125.752 279.486C194.179 259.229 205.176 319.705 98.4123 330.714C94.6413 326.47 90.2343 319.107 88.4844 312.953L144.865 286.898L125.752 279.486Z" fill="#FBC343"/>
<path d="M128.662 322.823C125.462 321.798 122.396 319.773 122.396 319.773L111.398 323.223L113.919 335.186L125.343 337.507C128.823 331.142 129.026 325.915 128.662 322.823Z" fill="#F9B384"/>
<path d="M88.7306 313.363L88.2422 312.523C100.004 305.687 130.132 289.265 155.801 284.422L155.981 285.377C130.46 290.193 100.449 306.553 88.7306 313.363Z" fill="#E49B31"/>
<path d="M87.3452 275.078C23.6533 262.968 7.15755 324.178 113.922 335.187C117.693 330.943 120.648 325.929 122.398 319.774C105.999 308.801 87.6619 298.371 67.5655 288.436L87.3452 275.078Z" fill="#FBC343"/>
<path d="M122.137 320.184C119.108 318.256 115.951 316.217 112.608 314.059C95.83 303.226 76.8132 290.948 60.6562 283.947L61.0427 283.055C77.2733 290.088 96.3256 302.389 113.135 313.243C116.476 315.4 119.632 317.438 122.659 319.364L122.137 320.184Z" fill="#E49B31"/>
<path d="M40.6164 305.428L39.7656 304.958C42.1564 300.63 45.9858 297.711 51.1473 296.281L51.4067 297.218C46.4373 298.594 42.9078 301.28 40.6164 305.428Z" fill="#E49B31"/>
<path d="M173.548 301.74C171.257 297.592 167.727 294.907 162.758 293.53L163.017 292.594C168.179 294.023 172.008 296.943 174.399 301.271L173.548 301.74Z" fill="#E49B31"/>
<path d="M107.961 334.641L107.25 333.978C112.345 328.521 115.474 322.761 116.816 316.367L117.768 316.567C116.388 323.139 113.18 329.051 107.961 334.641Z" fill="#E49B31"/>
<path d="M160.428 319.261C152.268 314.219 136.449 322.93 132.477 323.371C131.32 323.499 129.98 323.246 128.663 322.824C129.027 325.916 128.824 331.143 125.344 337.508L127.284 337.902C127.284 337.902 140.699 342.82 154.93 339.957C168.065 337.315 166.843 323.224 160.428 319.261Z" fill="#102048"/>
<path d="M149.306 335.751C149.273 335.751 149.241 335.746 149.208 335.736C149.037 335.682 148.943 335.5 148.997 335.33C149.966 332.26 150.389 326.221 147.581 322.165C147.479 322.018 147.516 321.816 147.663 321.714C147.81 321.612 148.012 321.649 148.114 321.796C151.054 326.043 150.622 332.333 149.614 335.525C149.571 335.663 149.443 335.751 149.306 335.751Z" fill="white"/>
<path d="M142.907 336.97C142.875 336.97 142.842 336.965 142.809 336.955C142.639 336.901 142.544 336.719 142.598 336.548C143.568 333.479 143.991 327.439 141.183 323.384C141.081 323.236 141.118 323.034 141.265 322.933C141.411 322.831 141.613 322.867 141.715 323.015C144.656 327.262 144.224 333.552 143.216 336.743C143.172 336.882 143.045 336.97 142.907 336.97Z" fill="white"/>
<path d="M76.082 196.155C76.082 196.155 92.1226 182.515 91.5287 179.923C91.1041 178.07 86.5603 180.786 86.5603 180.786C86.5603 180.786 92.9326 173.226 92.6086 172.308C92.0295 170.668 87.6223 173.725 87.6223 173.725C87.6223 173.725 90.6012 169.438 89.1771 168.739C87.753 168.041 84.6481 170.683 84.6481 170.683C84.6481 170.683 86.4621 168.302 85.6098 167.678C84.7575 167.053 81.0808 169.621 81.0808 169.621C81.0808 169.621 82.4002 166.62 79.5973 167.758C76.7944 168.896 57.1406 186.932 57.1406 186.932L76.082 196.155Z" fill="#F9B384"/>
<path d="M82.6399 179.975C82.5618 179.975 82.4836 179.947 82.4213 179.89C79.6679 177.374 78.454 176.764 75.4163 175.829C75.2452 175.777 75.1493 175.595 75.2019 175.424C75.2545 175.253 75.4357 175.157 75.6071 175.21C78.7545 176.178 80.0114 176.81 82.8589 179.412C82.9911 179.532 83.0002 179.737 82.8796 179.869C82.8153 179.939 82.7277 179.975 82.6399 179.975Z" fill="#E28B6D"/>
<path d="M77.8087 187.381C77.7937 187.381 77.7787 187.38 77.7636 187.378C77.5863 187.353 77.4627 187.189 77.4876 187.012C77.8028 184.756 78.5127 183.347 79.6582 182.703C80.6373 182.152 81.9113 182.209 83.4451 182.871C83.6095 182.942 83.6852 183.132 83.6141 183.297C83.5434 183.461 83.3526 183.537 83.1882 183.466C81.8504 182.888 80.7697 182.821 79.9758 183.268C79.032 183.798 78.4106 185.088 78.1294 187.101C78.1066 187.263 77.9679 187.381 77.8087 187.381Z" fill="#E28B6D"/>
<path d="M77.0507 173.747C76.9647 173.747 76.8786 173.712 76.8148 173.645C76.692 173.514 76.6982 173.309 76.8283 173.187L80.8534 169.393C80.9835 169.27 81.1886 169.277 81.3115 169.407C81.4343 169.537 81.4281 169.742 81.298 169.865L77.2729 173.658C77.2104 173.718 77.1306 173.747 77.0507 173.747Z" fill="#E28B6D"/>
<path d="M80.785 175.036C80.7041 175.036 80.6235 175.006 80.5605 174.946C80.4314 174.822 80.4273 174.617 80.5512 174.488L84.4174 170.459C84.5413 170.33 84.7464 170.326 84.8757 170.45C85.0048 170.574 85.0089 170.779 84.885 170.908L81.0188 174.936C80.9551 175.003 80.87 175.036 80.785 175.036Z" fill="#E28B6D"/>
<path d="M84.5896 177.308C84.5105 177.308 84.4312 177.279 84.3687 177.221C84.2378 177.099 84.2306 176.894 84.3527 176.763L87.386 173.509C87.5083 173.379 87.7129 173.371 87.844 173.493C87.9749 173.615 87.9822 173.82 87.8601 173.951L84.8268 177.205C84.7627 177.273 84.6764 177.308 84.5896 177.308Z" fill="#E28B6D"/>
<path d="M136.675 287.384L78.0273 289.652L71.5469 236.189C71.5469 236.189 91.1806 217.567 98.7345 210.709L111.487 210.055C151.051 228.039 144.572 250.5 136.675 287.384Z" fill="#3A6BEA"/>
<path d="M111.484 210.055C111.484 210.055 156.749 213.926 171.019 244.938C184.982 275.283 127.6 286.088 127.6 286.088L111.484 210.055Z" fill="#3A6BEA"/>
<path d="M59.7405 216.699L78.4453 193.936L60.9539 183.336C53.6575 188.409 39.5479 199.9 27.5905 212.913C24.9512 215.785 22.8896 219.14 21.8512 222.834C20.9652 225.987 20.8042 229.1 21.3022 232.149C22.6001 240.095 28.8508 246.227 37.1947 247.204C44.3208 248.039 71.5408 245.908 93.5741 239.428L100.055 214.416C96.7246 212.526 71.9755 212.198 59.7405 216.699Z" fill="#3A6BEA"/>
<g opacity="0.8">
<path d="M149.255 222.368C149.353 222.345 149.451 222.323 149.548 222.301C149.344 222.18 149.138 222.062 148.933 221.943C145.616 222.707 142.193 223.487 138.82 223.894C136.792 224.138 130.018 224.586 128.038 220.072C127.053 217.827 127.798 215.329 128.912 213.576C128.75 213.529 128.589 213.484 128.427 213.438C127.286 215.294 126.554 217.899 127.593 220.267C129.707 225.088 136.766 224.631 138.878 224.376C142.349 223.958 145.86 223.15 149.255 222.368Z" fill="white"/>
<path d="M170.381 257.341C168.219 256.506 165.985 255.642 163.636 255.863C159.516 256.253 155.991 260.326 155.778 264.944C155.632 268.093 156.834 271.393 159.128 274.295C159.266 274.209 159.403 274.122 159.541 274.035C157.299 271.214 156.122 268.012 156.263 264.967C156.466 260.581 159.794 256.715 163.682 256.347C165.915 256.14 167.999 256.942 170.205 257.794C170.993 258.098 171.794 258.405 172.608 258.666C172.65 258.509 172.69 258.352 172.728 258.194C171.935 257.939 171.152 257.639 170.381 257.341Z" fill="white"/>
<path d="M56.1303 241.883C53.3043 239.546 48.9132 238.921 44.0853 240.169C39.7826 241.282 36.0909 243.486 33.5547 246.404C33.7214 246.458 33.8842 246.518 34.0532 246.568C36.5206 243.8 40.0747 241.708 44.2066 240.64C48.8816 239.43 53.1156 240.021 55.8208 242.257C57.1065 243.32 58.0156 244.701 58.6763 246.19C58.8433 246.171 59.0107 246.152 59.1787 246.132C58.4871 244.53 57.5231 243.034 56.1303 241.883Z" fill="white"/>
<path d="M30.5781 209.737C35.8734 208.421 41.0406 206.573 45.8065 203.828C47.6073 202.791 49.6408 201.468 51.0709 199.527C52.5923 197.46 53.0977 195 52.4233 192.947C52.1586 192.142 51.6902 191.434 51.1046 190.867C50.9807 190.969 50.8555 191.071 50.7309 191.174C51.2775 191.694 51.7156 192.35 51.9613 193.099C52.5868 195.003 52.1078 197.298 50.6798 199.238C49.3031 201.108 47.3214 202.395 45.5642 203.407C41.0688 205.996 36.2065 207.787 31.2119 209.081C31.0001 209.299 30.7891 209.518 30.5781 209.737Z" fill="white"/>
</g>
<path d="M115.624 198.174L115.615 199.003L115.484 211.894L115.468 213.291C115.443 215.476 114.547 217.456 113.101 218.894C111.664 220.324 109.684 221.219 107.49 221.235C103.07 221.26 99.4548 217.711 99.4139 213.282L99.2578 197.352L115.624 198.174Z" fill="#F9B384"/>
<path d="M115.62 199L115.489 211.891C108.324 208.974 105.375 201.218 105.375 201.218L115.62 199Z" fill="#102048"/>
<path d="M118.45 176.505C121.017 179.586 128.514 197.045 120.914 203.001C112.362 209.704 99.3474 198.688 99.3474 198.688L97.6016 178.353L108.898 175.375L118.45 176.505Z" fill="#F9B384"/>
<path d="M91.8483 175.383C91.8483 175.383 66.7907 188.452 87.2221 226.124C89.8462 230.962 95.6586 233.074 100.631 230.713C105.965 228.181 107.984 221.665 105.088 216.519C101.746 210.582 98.5203 202.937 99.8972 197.248L91.8483 175.383Z" fill="#102048"/>
<path d="M99.0037 186.363C101.651 183.716 101.651 179.424 99.0037 176.777C96.3566 174.13 92.0649 174.13 89.4179 176.777C86.7708 179.424 86.7709 183.716 89.4179 186.363C92.0649 189.01 96.3566 189.01 99.0037 186.363Z" fill="#FBC343"/>
<path d="M102.548 189.718C101.815 185.49 101.369 182.59 105.643 180.41C105.643 180.41 120.705 183.149 123.581 177.466C126.457 171.783 122.075 162.814 112.9 169.045C89.4164 164.457 86.2669 186.435 93.3873 193.761L100.415 192.682C101.829 192.466 102.791 191.128 102.548 189.718Z" fill="#102048"/>
<path d="M114.212 190.737C114.765 190.737 115.214 190.289 115.214 189.736C115.214 189.183 114.765 188.734 114.212 188.734C113.659 188.734 113.211 189.183 113.211 189.736C113.211 190.289 113.659 190.737 114.212 190.737Z" fill="#102048"/>
<path d="M120.994 187.393C121.547 187.393 121.995 186.945 121.995 186.392C121.995 185.839 121.547 185.391 120.994 185.391C120.441 185.391 119.992 185.839 119.992 186.392C119.992 186.945 120.441 187.393 120.994 187.393Z" fill="#102048"/>
<path d="M120.301 192.811C120.23 192.811 120.16 192.786 120.105 192.733C119.992 192.626 119.987 192.446 120.095 192.333C120.497 191.91 120.937 191.315 120.752 190.885C120.56 190.437 119.748 190.244 119.376 190.244C118.578 190.244 118.194 188.823 118.125 188.538C118.088 188.386 118.182 188.232 118.334 188.196C118.486 188.158 118.639 188.252 118.676 188.405C118.822 189.005 119.152 189.677 119.376 189.677C119.759 189.677 120.928 189.858 121.273 190.661C121.519 191.235 121.261 191.929 120.506 192.723C120.45 192.782 120.375 192.811 120.301 192.811Z" fill="#102048"/>
<path d="M120.353 196.613C120.298 196.613 120.243 196.597 120.194 196.564C118.309 195.292 116.405 196.359 116.386 196.37C116.251 196.448 116.077 196.402 115.999 196.265C115.921 196.13 115.967 195.956 116.103 195.878C116.193 195.827 118.336 194.626 120.511 196.095C120.641 196.182 120.675 196.358 120.588 196.488C120.533 196.569 120.444 196.613 120.353 196.613Z" fill="#102048"/>
<path d="M113.777 185.398C114.346 186.47 113.354 186.686 112.191 187.304C111.027 187.921 109.837 188.148 109.565 187.636C109.293 187.125 110.016 186.209 111.179 185.591C112.342 184.973 113.336 184.568 113.777 185.398Z" fill="#102048"/>
<path d="M118.013 183.461C118.263 184.418 118.977 183.999 120.015 183.728C121.053 183.456 121.892 182.934 121.772 182.478C121.653 182.021 120.714 181.872 119.676 182.143C118.638 182.415 117.819 182.721 118.013 183.461Z" fill="#102048"/>
<path opacity="0.4" d="M111.612 196.566C112.811 195.46 112.886 193.592 111.781 192.393C110.675 191.194 108.807 191.119 107.608 192.225C106.409 193.33 106.334 195.198 107.439 196.397C108.545 197.596 110.413 197.671 111.612 196.566Z" fill="#EB5D60"/>
<path d="M101.982 197.175C103.331 195.427 102.814 192.766 100.827 191.233C98.8403 189.7 96.1359 189.875 94.7867 191.623C93.4375 193.372 93.9544 196.032 95.9413 197.565C97.9281 199.098 100.633 198.924 101.982 197.175Z" fill="#F9B384"/>
<path d="M100.137 195.9C99.9801 195.9 99.8531 195.773 99.8531 195.616C99.8531 194.779 99.445 194.005 98.7618 193.546C98.1775 193.153 97.4807 193.061 96.8985 193.298C96.7534 193.356 96.588 193.288 96.5289 193.143C96.4698 192.997 96.5392 192.832 96.6844 192.773C97.4416 192.464 98.3366 192.577 99.0783 193.076C99.9186 193.64 100.42 194.59 100.42 195.616C100.42 195.773 100.293 195.9 100.137 195.9Z" fill="#102048"/>
<path d="M59.5044 216.472L49.2734 227.539L49.7493 227.979L59.9802 216.912L59.5044 216.472Z" fill="#102048"/>
<path d="M131.587 264.039L131.398 263.419C138.846 261.149 146.075 258.434 152.625 250.242L153.131 250.647C146.465 258.983 139.137 261.739 131.587 264.039Z" fill="#102048"/>
<path d="M136.108 238.953H72.7507C70.4722 238.953 68.625 240.951 68.625 243.416V288.651C68.625 291.116 70.4722 293.114 72.7507 293.114H136.108C138.386 293.114 140.234 291.116 140.234 288.651V243.416C140.233 240.951 138.386 238.953 136.108 238.953Z" fill="#D3DFFF"/>
<path d="M107.772 263.179C108.013 263.179 108.208 263.39 108.208 263.65V268.426C108.208 268.686 108.013 268.897 107.772 268.897H101.083C100.843 268.897 100.648 268.686 100.648 268.426V263.65C100.648 263.39 100.843 263.179 101.083 263.179H107.772ZM107.772 261.883H101.083C100.128 261.883 99.3516 262.675 99.3516 263.65V268.426C99.3516 269.401 100.128 270.193 101.083 270.193H107.772C108.727 270.193 109.504 269.401 109.504 268.426V263.65C109.504 262.675 108.727 261.883 107.772 261.883Z" fill="#1F3C88"/>
<path d="M382 339.875H0V341.171H382V339.875Z" fill="#102048"/>
</svg>
