<svg width="412" height="410" viewBox="0 0 412 410" fill="none" xmlns="http://www.w3.org/2000/svg">
<path d="M233.282 366.382C188.447 373.646 151.732 372.508 110.347 363.036C62.7519 352.143 11.7919 314.109 14.0739 257.853C16.3559 201.597 45.7299 186.428 67.6199 184.724C83.9529 183.453 99.9189 189.122 115.507 194.162C155.883 207.215 184.283 213.152 226.544 209.329C291.757 203.429 327.791 169.366 362.808 187.404C393.145 203.032 408.631 249.399 377.21 291.663C342.857 337.869 293.476 356.63 233.282 366.382Z" fill="#DDEDEE"/>
<path d="M238.128 364.663C193.755 374.36 157.032 375.225 115.192 368.023C67.0745 359.741 14.1175 324.541 13.3285 268.244C12.5405 211.947 41.0445 195.2 62.8085 192.305C79.0485 190.145 95.2995 194.936 111.139 199.118C152.167 209.951 180.848 214.331 222.839 208.209C287.633 198.763 321.757 162.786 357.704 178.889C388.848 192.84 406.838 238.294 377.767 282.208C345.984 330.219 297.7 351.644 238.128 364.663Z" stroke="#DDEDEE" stroke-width="3" stroke-miterlimit="10"/>
<path d="M331.586 152.516H407.57C407.57 152.516 404.164 139.677 393.421 146.228C388.443 128.673 370.102 132.603 365.909 143.346C363.289 135.748 355.241 140.464 355.765 144.918C347.905 136.795 334.562 142.753 331.586 152.516Z" fill="#DDEDEE"/>
<path d="M146.02 77.693H108.945C108.945 77.693 110.607 71.429 115.849 74.625C118.278 66.059 127.227 67.977 129.273 73.219C130.551 69.511 134.478 71.813 134.223 73.986C138.058 70.022 144.568 72.929 146.02 77.693Z" fill="#DDEDEE"/>
<path d="M16.7109 131.484C16.7109 131.484 76.1089 131.484 88.2529 131.484C88.2529 123.036 73.9969 114.852 61.3259 124.356C60.7979 105.877 33.8709 107.724 32.0229 126.468C19.3509 121.716 16.7109 131.484 16.7109 131.484Z" fill="#DDEDEE"/>
<path d="M301.314 162.031C297.387 164.121 296.944 170.835 298.21 175.839C299.477 180.843 308.691 198.704 303.687 209.725C316.026 209.534 320.856 202.025 320.856 202.025C320.856 202.025 323.293 187.113 320.062 180.779C316.832 174.446 301.314 162.031 301.314 162.031Z" fill="#412308"/>
<path d="M316.384 213.11C313.897 212.755 312.367 212.434 307.427 219.001C302.317 225.794 300.285 229.972 295.885 236.014C291.5 242.035 292.962 244.965 296.606 246.414C302.797 248.875 310.281 248.918 310.281 248.918L306.104 239.14L316.384 213.11Z" fill="#E5AC2F"/>
<path opacity="0.23" d="M365.363 399.467C365.363 403.134 345.724 406.106 321.498 406.106C297.272 406.106 277.633 403.134 277.633 399.467C277.633 395.8 297.272 392.828 321.498 392.828C345.724 392.828 365.363 395.801 365.363 399.467Z" fill="#76B6BA"/>
<path d="M315.335 389.625L316.707 398.089H296.805C296.805 398.089 296.805 396.793 298.483 396.183C300.16 395.573 308.701 394.124 310.683 392.98C312.666 391.836 312.513 389.854 312.513 389.854L315.335 389.625Z" fill="#0E1920"/>
<path d="M348.42 393.195L349.792 401.659H329.891C329.891 401.659 329.891 400.363 331.569 399.753C333.246 399.143 341.787 397.694 343.769 396.55C345.751 395.406 345.599 393.424 345.599 393.424L348.42 393.195Z" fill="#0E1920"/>
<path d="M301.543 271.297C300.55 278.109 305.233 320.258 307.362 343.39C309.491 366.522 311.903 391.109 311.903 391.109L315.877 390.399C315.877 390.399 323.54 338.565 323.399 326.218C323.257 313.871 312.897 273.851 312.897 273.851L301.543 271.297Z" fill="#345C68"/>
<path d="M304.523 273.284C304.949 277.967 317.579 317.136 327.088 343.39C336.596 369.644 344.464 394.29 344.464 394.29H350.425C350.425 394.29 341.848 327.496 339.577 312.879C337.306 298.262 338.442 282.225 332.907 269.595C326.52 264.486 304.523 273.284 304.523 273.284Z" fill="#3E6E7D"/>
<path d="M317.405 210.545C315.757 211.002 314.082 213.609 309.675 218.885C306.402 222.803 300.185 228.31 300.525 231.441C300.865 234.572 303.452 237.363 305.698 237.771C304.745 244.101 301.002 263.772 299.164 271.531C303.497 278.498 328.026 276.796 334.139 268.981C332.097 264.625 330.065 247.096 330.678 238.86C331.291 230.624 330.605 221.004 328.999 215.809C327.423 210.711 321.288 209.468 317.405 210.545Z" fill="#F1CC30"/>
<path d="M325.369 215.346C326.46 213.576 328.12 213.048 329.617 213.461C331.562 213.997 333.373 216.747 333.171 224.057C333.064 227.935 329.647 251.033 327.211 253.336C323.936 256.433 317.046 251.244 318.686 247.322C320.326 243.4 321.896 239.323 322.841 233.748C323.979 227.05 324.077 217.441 325.369 215.346Z" fill="#E5AC2F"/>
<path d="M304.101 238.344C300.327 237.647 297.605 239.536 299.108 241.08C301.239 240.742 304.101 238.344 304.101 238.344Z" fill="#EBC280"/>
<path d="M323.632 243.036C321.131 241.785 315.87 239.957 304.398 238.188C301.156 238.249 298.836 241.052 298.836 241.052C298.836 241.052 312.377 250.539 317.2 253.16C322.024 255.78 325.954 256.139 327.8 252.565C329.647 248.992 323.632 243.036 323.632 243.036Z" fill="#E5AC2F"/>
<path d="M318.156 241.205C322.437 239.173 328.612 240.214 330.854 245.196C332.813 249.55 330.741 253.053 328.46 249.985C326.356 247.155 325.63 244.543 322.365 243.164C321.058 242.294 318.156 241.205 318.156 241.205Z" fill="#EBC280"/>
<path d="M314.135 214.406C312.654 216.211 311.245 218.678 313.315 219.402C315.385 220.127 321.079 216.814 322.736 212.88C324.392 208.946 321.494 197.352 321.494 197.352L316.421 197.456C316.421 197.456 316.692 206.273 316.692 208.996C316.692 210.541 316.038 212.087 314.135 214.406Z" fill="#DAA05E"/>
<path d="M326.027 201.581C326.027 201.581 306.122 209.601 302.034 205C301.294 204.166 300.893 203.274 300.123 200.839C299.901 200.131 299.136 197.24 298.965 196.481C297.408 189.518 296.593 180.433 298.388 174.453C301.352 164.578 310.327 156.995 319.754 160.628C329.178 164.261 350.537 172.022 326.027 201.581Z" fill="#EBC280"/>
<path d="M302.281 183.437C302.301 183.426 302.306 183.422 302.329 183.413L301.859 182.141C299.186 185.009 296.059 187.015 293.188 189.165C298.844 194.995 304.885 190.06 303.704 183.129C303.133 183.126 302.585 183.311 302.281 183.437C301.992 183.558 301.939 183.619 302.281 183.437Z" fill="#EBC280"/>
<path d="M300.317 179.352C298.345 182.306 297.67 185.214 301.933 186.177C306.196 187.14 305.455 181.338 305.455 181.338C305.455 181.338 302.259 179.828 300.317 179.352Z" fill="url(#paint0_linear_93_851)"/>
<path d="M299.269 183.851C299.307 184.177 299.602 184.411 299.928 184.373C300.254 184.335 300.488 184.04 300.45 183.714C300.412 183.388 300.117 183.154 299.791 183.192C299.465 183.23 299.232 183.525 299.269 183.851Z" fill="#643619"/>
<path d="M301.511 179.495C306.15 180.872 306.332 181.924 304.096 181.273C301.049 180.386 298.346 178.556 301.511 179.495Z" fill="#994D1D"/>
<path d="M304.195 198.152C305.193 198.018 306.004 197.542 306.755 196.97C307.133 196.687 307.481 196.364 307.823 196.029C308.158 195.687 308.47 195.325 308.735 194.898C308.68 195.406 308.43 195.876 308.142 196.293C307.854 196.717 307.486 197.08 307.082 197.397C306.671 197.703 306.217 197.968 305.716 198.111C305.223 198.26 304.681 198.309 304.195 198.152Z" fill="#994D1D"/>
<path opacity="0.23" d="M118.098 409.026C138.229 409.026 154.548 406.556 154.548 403.509C154.548 400.462 138.229 397.992 118.098 397.992C97.9677 397.992 81.6484 400.462 81.6484 403.509C81.6484 406.556 97.9677 409.026 118.098 409.026Z" fill="#76B6BA"/>
<path d="M102.711 397.812C102.711 397.812 99.6855 403.919 101.257 404.547C102.828 405.176 109.961 405.17 109.2 403.383C108.439 401.596 105.426 397.974 105.426 397.974L102.711 397.812Z" fill="#254148"/>
<path d="M124.994 397.18C123.021 399.986 120.434 404.107 123.196 404.326C125.958 404.545 142.081 404.326 143.969 404.326C144.086 402.821 142.843 402.872 131.105 401.097C129.462 400.849 129.992 397.794 129.992 397.794L124.994 397.18Z" fill="#254148"/>
<path d="M150.598 339.332C148.978 331.017 143.093 300.346 140.055 284.508C135.222 294.445 123.066 297.484 116.016 300.556C121.93 316.248 130.127 337.643 132.018 343.314C132.644 345.191 132.903 347.001 132.018 349.95C131.133 352.899 122.433 397.875 122.433 397.875L132.166 399.939C132.166 399.939 148.829 355.848 150.303 351.277C151.778 346.705 151.232 342.585 150.598 339.332Z" fill="#345C68"/>
<path d="M140.393 276.344C139.828 276.45 105.595 280.226 99.9912 280.669C98.8902 280.566 97.9922 280.454 97.3672 280.347L100.021 399.643L108.426 398.611C108.426 398.611 116.673 314.847 118.288 299.857C118.399 299.81 137.588 296.003 140.057 284.508C140.603 281.966 140.758 279.243 140.393 276.344Z" fill="#3E6E7D"/>
<path d="M168.088 227.949C168.378 227.494 167.641 219.382 167.641 219.382L169.998 213.532L173.558 209.246L174.648 209.477L172.216 213.827L170.971 217.083L174.58 211.942L178.963 205.062L180.162 205.74L175.921 214.337L181.454 206.757L181.912 207.277L177.853 215.191L182.542 210.281L182.971 211.286L179.3 216.554L181.688 213.769L181.881 214.613L176.712 221.187L169.695 228.985L168.088 227.949Z" fill="#ECC78E"/>
<path d="M121.188 211.023C129.785 212.358 136.733 215.697 140.661 223.456C144.134 230.316 149.017 241.415 149.66 242.702C150.303 243.988 151.509 243.747 152.715 242.38C153.921 241.013 167.107 223.164 167.107 223.164C167.107 223.164 170.162 224.129 171.69 226.943C166.464 239.084 158.504 255.165 157.057 257.255C155.61 259.345 151.911 259.506 149.981 258.381C148.051 257.255 134.544 247.848 134.544 247.848C134.544 247.848 122.314 216.007 121.188 211.023Z" fill="#91B242"/>
<path d="M110.895 210.713C102.614 212.029 95.3438 215.757 95.3438 227.833C95.3438 234.066 96.2907 283.868 96.2907 283.868C96.2907 283.868 128.204 288.466 140.374 278.189C139.157 260.88 135.224 233.347 133.728 226.016C131.59 215.543 125.364 208.414 110.895 210.713Z" fill="#BFCD3C"/>
<path d="M92.2164 289.883C92.2804 290.485 98.5894 297.097 98.5894 297.097L100.603 303.883L100.468 310.135L99.3504 310.693L98.4494 305.172L97.2704 301.443L97.6884 308.479L98.6404 317.584L97.1134 317.825L94.8374 307.311L95.2674 317.834L94.5024 317.697L92.5434 307.909L91.8524 315.498L90.7734 314.913L90.3204 307.721L90.1664 311.835L89.4084 311.229L89.3594 301.843L90.0804 290.092L92.2164 289.883Z" fill="#ECC78E"/>
<path d="M119.859 209.595C119.859 209.595 119.933 213.311 119.99 214.03C120.048 214.749 111.28 216.295 110.713 212.27C110.507 210.807 110.532 208.5 110.532 208.5C114.427 209.884 118.276 209.752 119.859 209.595Z" fill="#DBBDA6"/>
<path d="M110.529 208.497L110.398 204.052L119.685 203.812L119.856 209.591C118.273 209.749 114.424 209.881 110.529 208.497Z" fill="#BF9C80"/>
<path d="M129.127 203.583C129.127 203.583 138.466 193.301 138.677 179.174C138.907 163.847 129.633 157.416 117.982 157.241C105.179 157.049 99.2552 161.26 95.2312 169.482C91.6112 176.877 92.8422 184.432 95.7542 191.343C100.269 202.054 110.195 204.037 129.127 203.583Z" fill="#381C14"/>
<path d="M136.477 180.438C136.477 193.647 137.762 198.038 135.645 201.875C133.652 205.487 127.739 210.464 113.925 207.008C104.03 204.533 101.541 196.928 101.541 196.928C101.541 196.928 100.226 197.707 98.5096 197.479C97.0866 197.29 95.1966 195.884 95.3706 193.379C95.6136 189.888 97.2246 188.835 98.5656 188.464C100.959 187.802 102.572 190.073 102.572 190.073C102.572 190.073 102.575 185.05 103.14 181.355C103.705 177.66 104.328 173.784 121.79 172.714C126.104 172.45 131.945 172.343 134.258 173.447C136.397 174.467 136.477 176.886 136.477 180.438Z" fill="#DBBDA6"/>
<path d="M125.695 190.538C126.281 190.215 126.927 189.98 127.611 189.899C128.285 189.825 129.039 189.902 129.628 190.394C129.901 190.644 130.089 191.07 129.988 191.448C129.978 191.644 129.864 191.797 129.803 191.971C129.699 192.115 129.596 192.262 129.478 192.391C128.992 192.899 128.378 193.207 127.767 193.472C128.304 193.074 128.865 192.707 129.265 192.204C129.682 191.734 129.853 191.033 129.376 190.662C128.95 190.262 128.262 190.16 127.629 190.18C126.982 190.2 126.34 190.355 125.695 190.538Z" fill="#926053"/>
<path d="M117.439 199.352C117.357 200.122 117.819 200.806 118.325 201.297C118.85 201.795 119.531 202.111 120.254 202.211C120.974 202.34 121.721 202.292 122.464 202.187C122.836 202.137 123.203 202.039 123.577 201.968C123.946 201.872 124.311 201.761 124.691 201.677C124.352 201.86 123.999 202.017 123.648 202.189C123.28 202.307 122.914 202.448 122.535 202.544C121.773 202.729 120.972 202.782 120.173 202.677C119.386 202.53 118.598 202.17 118.065 201.549C117.551 200.956 117.155 200.112 117.439 199.352Z" fill="#926053"/>
<path d="M123.86 182.664C124.268 184.219 125.732 188.749 121.328 189.673C116.924 190.597 117.313 185.086 117.313 185.086C117.313 185.086 121.853 183.124 123.86 182.664Z" fill="url(#paint1_linear_93_851)"/>
<path d="M122.863 182.503C117.805 183.492 115.258 185.868 118.497 185.439C121.736 185.01 126.198 181.85 122.863 182.503Z" fill="#5E443D"/>
<path d="M123.631 189.549C122.842 187.783 120.927 188.074 120.344 189.907" stroke="#452F20" stroke-width="0.6145" stroke-miterlimit="10"/>
<path d="M129.263 182.5C128.839 183.697 127.408 188.031 130.812 189.051C134.217 190.07 134.343 184.483 134.343 184.483C134.343 184.483 130.812 182.995 129.263 182.5Z" fill="url(#paint2_linear_93_851)"/>
<path d="M130.126 182.383C133.888 183.065 136.192 185.475 132.775 184.628C129.358 183.781 128.162 182.026 130.126 182.383Z" fill="#5E443D"/>
<path d="M131.998 188.89C131.407 186.706 129.077 187.011 128.797 188.714" stroke="#452F20" stroke-width="0.6145" stroke-miterlimit="10"/>
<path d="M102.664 174.223C104.576 176.108 106.335 176.928 114.877 177.251C127.09 177.713 135.299 174.815 135.888 174.222L133.121 167.371C130.911 166.58 124.466 164.598 116.702 166.838C108.184 169.297 103.963 172.395 102.664 174.223Z" fill="#381C14"/>
<path opacity="0.23" d="M262.908 402.314C262.908 405.361 246.589 407.831 226.458 407.831C206.327 407.831 190.008 405.361 190.008 402.314C190.008 399.267 206.327 396.797 226.458 396.797C246.589 396.797 262.908 399.267 262.908 402.314Z" fill="#76B6BA"/>
<path d="M209.877 395.164C208.657 397.299 204.258 402.068 209.062 402.373C213.866 402.678 217.731 402.637 216.206 399.968C214.681 397.299 213.537 395.24 213.537 395.24L209.877 395.164Z" fill="#0E1920"/>
<path d="M229.748 392.117L228.375 400.581H248.276C248.276 400.581 248.276 399.285 246.599 398.675C244.921 398.065 236.381 396.616 234.399 395.472C232.416 394.328 232.569 392.346 232.569 392.346L229.748 392.117Z" fill="#0E1920"/>
<path d="M246.277 281.469C246.833 289.393 245.165 319.14 242.663 338.741C240.161 358.341 233.349 393.094 233.349 393.094L228.901 392.399C228.901 392.399 227.372 334.571 226.677 321.643C225.982 308.715 229.179 292.173 229.179 292.173L246.277 281.469Z" fill="#1F3649"/>
<path d="M246.924 278.781C246.831 281.87 245.981 296.644 232.373 299.094C213.228 302.541 205.595 290.168 206.978 280.865C227.848 284.636 246.924 278.781 246.924 278.781Z" fill="#274658"/>
<path d="M234.413 295.845C233.357 300.068 225.791 333.499 221.744 352.853C217.697 372.208 215.417 394.851 215.417 394.851C215.417 394.851 212.776 397.77 207.772 394.851C207.633 382.618 206.104 298.424 207.494 284.523C216.807 296.2 234.413 295.845 234.413 295.845Z" fill="#274658"/>
<path d="M233.188 214.875C238.722 215.369 242.608 218.297 245.245 223.012C248.561 228.941 250.746 235.451 251.941 238.843C253.93 244.486 251.688 254.571 245.663 250.512C243.476 249.038 233.908 219.51 233.188 214.875Z" fill="#5699B4"/>
<path d="M222.554 213.417C212.826 214.679 207.437 221.094 205.665 230.188C203.893 239.282 205.021 273.687 206.154 281.757C216.952 285.368 238.071 285.368 247.458 280.44C247.175 267.981 245.656 241.264 244.665 231.354C243.673 221.444 236.406 211.621 222.554 213.417Z" fill="#79BDD2"/>
<path d="M201.293 249.741C204.639 250.282 205.856 257.467 206.566 261.221L207.188 290.006L201.79 289.743C201.79 289.743 197.369 267.436 197.138 261.467C196.907 255.499 198.593 249.305 201.293 249.741Z" fill="#F1CA8E"/>
<path d="M200.717 238.906C200.717 238.906 198.235 251.688 197.605 255.17C196.975 258.653 199.791 261.95 202.532 262.654C205.274 263.358 206.125 263.233 206.57 261.221C207.015 259.209 211.127 241.722 211.127 241.722L200.717 238.906Z" fill="#F1CA8E"/>
<path d="M205.181 285.172C205.17 285.652 209.071 293.064 209.071 293.064L210.686 300.166L209.833 301.12L206.672 294.851L206.374 300.21L205.51 307.942L204.1 307.979L203.926 298.994L203.125 307.329L202.45 307.144L201.779 299.232L202.257 306.403L201.347 305.831L200.024 298.967L200.574 304.905L199.631 304.228L198.336 297.675L202.074 285.253L205.181 285.172Z" fill="#F1CA8E"/>
<path d="M215.571 218.608C210.724 214.931 203.564 218.674 198.031 238.527C205.235 242.621 213.513 242.681 213.513 242.681C213.513 242.681 221.319 222.969 215.571 218.608Z" fill="#5699B4"/>
<path d="M251.574 252.688C247.14 253.392 244.667 246.99 246.766 241.612C248.865 236.233 251.071 226.339 251.373 217.891C251.439 215.989 255.261 215.97 255.196 218.79C255.13 221.61 255.295 230.16 255.647 241.173C255.832 246.966 254.742 252.185 251.574 252.688Z" fill="#F1CA8E"/>
<path d="M231.559 205.401C231.484 211.251 231.409 213.576 231.634 215.451C231.966 218.215 234.559 222.726 232.084 224.076C229.609 225.426 223.574 219.84 221.959 216.351C221.148 214.599 221.245 214.224 221.202 212.943C221.12 210.492 220.984 204.5 220.984 204.5L231.559 205.401Z" fill="#E5B381"/>
<path d="M206.423 184.159C206.017 184.699 205.949 192.74 210.098 199.251C214.247 205.762 222.975 206.928 223.443 206.263C223.913 205.598 219.048 167.341 206.423 184.159Z" fill="#994D1D"/>
<path d="M244.762 194.065C243.705 206.695 236.383 212.416 228.03 212.416C216.715 212.416 209.708 197.951 209.638 186.136C209.567 174.32 206.315 165.837 224.815 165.52C245.209 165.171 246.561 172.559 244.762 194.065Z" fill="#F1CA8E"/>
<path d="M240.061 188.387C240.346 191.47 241.448 193.402 243.737 193.189C246.027 192.977 249.565 189.975 249.279 186.892C248.992 183.809 246.905 181.482 244.614 181.693C242.323 181.906 239.775 185.303 240.061 188.387Z" fill="#F1CA8E"/>
<path d="M245.691 187.93C247.554 182.584 247.04 175.158 246.929 171.002C246.675 161.442 240.957 159.738 236.604 158.638C237.36 158.619 236.85 158.16 237.603 158.166C234.68 155.628 226.453 154.252 223.293 156.204C217.993 157.131 214.714 158.348 211.489 161.103C204.69 166.906 204.571 174.993 207.203 188.181C207.839 188.427 210.749 190.643 211.444 190.605C209.73 185.323 210.011 174.427 215.553 171.535C218.232 170.138 221.577 171.015 224.359 171.314C226.496 171.544 232.783 171.339 237.056 170.682C239.438 170.259 241.203 170.681 241.741 171.3C244.448 174.419 245.832 178.419 245.186 185.848C245.181 186.754 245.292 187.53 245.691 187.93Z" fill="#994D1D"/>
<path d="M213.309 187.996C214.484 190.861 214.49 193.047 212.578 193.829C210.67 194.612 206.503 193.443 205.327 190.578C204.154 187.713 204.751 184.757 206.663 183.971C208.572 183.189 212.135 185.129 213.309 187.996Z" fill="#F1CA8E"/>
<path d="M227.423 189.52C230.262 188.952 232.655 189.418 233.187 191.524C233.719 193.63 230.846 194.915 228.489 195.192C226.132 195.469 225.213 189.962 227.423 189.52Z" fill="url(#paint3_linear_93_851)"/>
<path d="M226.172 189.919C227.249 189.474 228.42 189.197 229.621 189.22C230.799 189.246 232.098 189.515 233.008 190.505C233.445 191.001 233.641 191.779 233.417 192.419C233.211 193.06 232.785 193.554 232.315 193.934C231.368 194.706 230.244 195.128 229.123 195.431C230.156 194.898 231.175 194.325 231.982 193.561C232.806 192.829 233.239 191.679 232.518 190.918C231.848 190.154 230.691 189.828 229.594 189.718C228.472 189.614 227.32 189.712 226.172 189.919Z" fill="#A56052"/>
<path d="M231.857 201.419C227.964 202.172 225.309 202.008 224.148 200.969C223.841 208.883 228.218 209.238 231.857 201.419Z" fill="#643619"/>
<path d="M226.18 181.844C226.44 183.791 227.532 189.504 222.054 189.961C216.575 190.418 217.877 183.795 217.877 183.795C217.877 183.795 223.677 182.099 226.18 181.844Z" fill="url(#paint4_linear_93_851)"/>
<path d="M224.363 189.397C224.259 189.797 223.851 190.036 223.451 189.933C223.051 189.829 222.812 189.421 222.915 189.021C223.019 188.621 223.427 188.381 223.827 188.485C224.227 188.589 224.467 188.997 224.363 189.397Z" fill="#643619"/>
<path d="M225 181.495C218.718 181.932 215.272 184.429 219.264 184.397C223.256 184.365 229.142 181.206 225 181.495Z" fill="#994D1D"/>
<path d="M232.341 181.844C232.081 183.791 230.989 189.504 236.467 189.961C241.945 190.418 240.644 183.795 240.644 183.795C240.644 183.795 234.844 182.099 232.341 181.844Z" fill="url(#paint5_linear_93_851)"/>
<path d="M234.157 189.397C234.261 189.797 234.669 190.036 235.069 189.933C235.469 189.829 235.709 189.421 235.605 189.021C235.501 188.621 235.093 188.381 234.693 188.485C234.293 188.589 234.054 188.997 234.157 189.397Z" fill="#643619"/>
<path d="M233.524 181.495C239.806 181.932 243.252 184.429 239.26 184.397C235.267 184.365 229.381 181.206 233.524 181.495Z" fill="#994D1D"/>
<path d="M218.878 191.42C218.878 191.842 217.784 192.184 216.435 192.184C215.086 192.184 213.992 191.842 213.992 191.42C213.992 190.998 215.086 190.656 216.435 190.656C217.784 190.657 218.878 190.998 218.878 191.42Z" fill="#E9A29D"/>
<path d="M244.636 191.42C244.636 191.842 243.542 192.184 242.193 192.184C240.844 192.184 239.75 191.842 239.75 191.42C239.75 190.998 240.844 190.656 242.193 190.656C243.542 190.657 244.636 190.998 244.636 191.42Z" fill="#E9A29D"/>
<path d="M219.375 169.739C220.276 171.489 226.056 177.798 233.055 177.162C230.351 176.685 229.078 175.624 229.078 175.624C229.078 175.624 234.38 177.268 240.159 174.193C238.25 174.352 235.228 174.087 235.228 174.087C235.228 174.087 240.265 172.708 241.113 170.057C229.184 168.095 219.375 169.739 219.375 169.739Z" fill="#994D1D"/>
<path d="M252.209 211.147C252.474 208.125 252.383 202.355 252.535 200.325C252.686 198.295 251.305 198.032 250.467 198.53C249.63 199.028 249.596 201.59 249.539 204.544C249.49 207.078 249.679 211.798 249.679 211.798L252.209 211.147Z" fill="#EBC086"/>
<path d="M255.195 218.79C256.291 216.149 256.999 212.704 256.744 210.824C256.298 207.53 253.318 206.846 251.325 207.093C249.333 207.339 248.159 211.063 248.367 212.455C248.926 216.181 251.383 217.378 251.452 218.941C251.885 219.892 254.827 219.952 255.195 218.79Z" fill="#F1CA8E"/>
<path d="M254.506 206.431C251.341 206.102 250.97 207.497 250.351 209.705C249.854 211.478 251.823 212.423 254.156 212.778C255.812 213.03 256.789 212.072 256.789 212.072C256.789 212.072 257.303 206.723 254.506 206.431Z" fill="#F1CA8E"/>
<path d="M255.645 210.532C255.594 211.027 255.494 211.533 255.223 211.98C254.951 212.431 254.445 212.723 253.927 212.801C253.407 212.874 252.893 212.815 252.395 212.729C251.899 212.627 251.381 212.5 250.947 212.191C250.021 211.616 249.682 210.404 249.931 209.412C250.031 208.901 250.31 208.439 250.615 208.049C250.92 207.652 251.269 207.262 251.717 207.031C251.296 207.307 251.007 207.723 250.743 208.138C250.462 208.554 250.233 208.975 250.159 209.459C249.975 210.399 250.277 211.45 251.109 211.947C251.503 212.213 251.974 212.343 252.447 212.449C252.927 212.543 253.418 212.607 253.891 212.55C254.363 212.505 254.811 212.287 255.09 211.891C255.375 211.501 255.543 211.02 255.645 210.532Z" fill="#C48D54"/>
<path d="M251.005 213.544C249.408 214.971 247.9 213.727 247.163 212.126C246.427 210.525 246.297 209.301 247.117 208.672C247.937 208.043 251.938 209.169 251.899 210.436C251.86 211.703 250.777 211.788 249.843 211.359C251.406 212.607 251.005 213.544 251.005 213.544Z" fill="#EBC086"/>
<path d="M255.957 209.773C256.049 210.005 255.995 210.235 255.886 210.453C255.813 210.548 255.722 210.665 255.565 210.696C255.398 210.73 255.277 210.613 255.234 210.509C255.354 210.532 255.452 210.518 255.493 210.475C255.538 210.434 255.592 210.377 255.63 210.294C255.687 210.224 255.723 210.133 255.777 210.047C255.826 209.959 255.888 209.87 255.957 209.773Z" fill="#C48D54"/>
<path d="M250.593 213.938C250.826 213.64 250.879 213.26 250.83 212.913C250.774 212.563 250.615 212.234 250.392 211.955C249.963 211.372 249.313 210.991 248.672 210.617C249.383 210.834 250.077 211.218 250.557 211.829C250.783 212.139 250.962 212.503 250.988 212.896C251.017 213.284 250.885 213.693 250.593 213.938Z" fill="#C48D54"/>
<path d="M251.698 209.984C251.846 210.175 251.928 210.427 251.907 210.685C251.894 210.943 251.754 211.191 251.556 211.362C251.348 211.524 251.093 211.606 250.845 211.619C250.594 211.64 250.353 211.576 250.125 211.504C250.599 211.503 251.091 211.488 251.423 211.202C251.773 210.94 251.85 210.435 251.698 209.984Z" fill="#C48D54"/>
<path d="M208.221 183.757C208.787 188.631 210.139 191.933 211.806 194.512C212.243 194.811 213.127 195.455 213.127 195.455C213.127 195.455 208.512 185.398 213.6 176.239C212.388 179.157 213.521 181.654 213.521 181.654C213.521 181.654 214.284 176.567 217.128 173.769C218.446 175.873 224.994 176.13 224.994 176.13C224.994 176.13 220.961 173.246 220.305 170.339C216.53 167.785 211.552 170.346 209.951 174.198C208.63 177.374 207.795 180.09 208.221 183.757Z" fill="#994D1D"/>
<path d="M239.82 169.539C242.748 171.947 243.312 177.396 243.173 180.187C243.545 179.861 244.165 177.732 244.165 177.732C244.165 177.732 244.929 190.688 244.185 193.061C244.968 192.394 245.204 191.945 245.204 191.945C245.204 191.945 246.418 185.385 245.999 180.733C245.58 176.081 244.231 171.847 242.975 170.824C241.719 169.801 239.82 169.539 239.82 169.539Z" fill="#994D1D"/>
<path d="M136.613 173.713C136.34 175.313 129.549 179.567 116.047 180.308C120.379 179.879 128.028 178.318 133.374 174.259C134.258 173.449 136.613 173.713 136.613 173.713Z" fill="#381C14"/>
<path d="M94.761 188.361C93.798 186.489 92.3 181.62 92.461 179.641C91.177 181.674 91.659 187.024 91.659 187.024C91.659 187.024 86.951 176.057 95.297 166.588C93.746 166.641 91.766 168.674 91.766 168.674C91.766 168.674 93.264 164.448 99.255 162.094C99.095 160.596 100.165 157.226 101.983 156.156C100.86 158.296 100.539 161.399 100.539 161.399C100.539 161.399 108.563 152.84 126.431 156.424C121.884 156.156 119.477 156.638 119.477 156.638C119.477 156.638 133.707 157.012 139.859 167.016C136.863 165.679 133.814 162.683 133.814 162.683C133.814 162.683 138.468 167.444 137.826 171.938C132.797 167.605 113.057 168.782 108.243 170.333C103.428 171.884 96.313 187.024 96.313 187.024L94.761 188.361Z" fill="#381C14"/>
<path d="M123.593 174.754C122.259 176.699 115.368 178.866 110.867 178.644C115.757 180.256 132.763 177.588 131.762 174.365C130.707 172.587 123.593 174.754 123.593 174.754Z" fill="#381C14"/>
<path d="M102.942 181.648C102.832 186.173 103.163 194.452 104.598 197.321C101.471 196.144 99.4844 187.203 99.4844 187.093C99.4844 186.983 102.942 181.648 102.942 181.648Z" fill="#381C14"/>
<path d="M102.821 212.621C97.8294 212.474 93.3034 216.206 90.3984 226.527C86.9584 238.749 85.0384 248.265 85.1704 251.169C85.3024 254.074 94.6214 261.065 98.0204 251.433C102.245 239.463 104.713 230.717 106.029 225.292C108.229 216.227 107.024 212.745 102.821 212.621Z" fill="#91B242"/>
<path d="M85.1719 251.17C86.0879 257.664 88.4699 290.912 88.8849 294.744C91.4739 297.333 96.3369 294.353 96.3369 294.353C96.3369 294.353 96.1239 273.534 97.6679 252.343C98.0359 247.28 85.1719 251.17 85.1719 251.17Z" fill="#91B242"/>
<path d="M317.831 207.546C320.175 194.699 315.835 183.154 315.835 183.154C315.835 183.154 316.877 191.4 315.661 193.31C316.963 185.324 310.453 177.946 310.453 177.946C310.453 177.946 310.366 179.769 312.363 183.328C308.457 179.509 303.683 173.085 303.683 173.085C303.683 173.085 306.634 178.38 309.499 181.071C301.773 176.47 297.349 169.606 299.951 162.842C300.819 160.585 302.382 157.721 307.676 156.939C312.029 156.297 326.773 156.765 335.54 163.276C344.307 169.786 347.485 180.003 340.454 191.113C335.006 199.241 333.141 199.911 333.141 199.911C333.141 199.911 334.277 198.425 334.656 197.318C332.572 199.669 325.465 204.516 325.465 204.516C325.465 204.516 326.053 203.875 326.747 202.539C323.326 205.159 317.831 207.546 317.831 207.546Z" fill="#412308"/>
<path d="M228.859 136.539C248.586 126.678 264.406 109.01 271.632 88.1368C273.21 83.5778 273.061 76.6628 268.281 76.0158C265.992 75.7068 263.848 77.2708 262.421 79.0868C257.639 85.1748 258.436 94.4158 262.878 100.757C267.32 107.097 274.678 110.862 282.183 112.764C288.683 114.412 295.408 114.836 302.096 115.435" stroke="#345A6E" stroke-width="1.5" stroke-miterlimit="10" stroke-dasharray="5.14 5.14"/>
<path d="M83.0589 171.885C72.0709 172.683 61.4149 167.186 53.3409 159.691C41.8899 149.061 34.4029 132.642 38.7679 117.639C42.5849 104.517 55.0579 94.944 68.5099 92.54C81.9619 90.135 96.017 94.1649 107.557 101.485C116.887 107.404 124.733 115.322 133.123 122.53" stroke="#345A6E" stroke-width="1.5" stroke-miterlimit="10" stroke-dasharray="5.14 5.14"/>
<path d="M159.98 130.795V123.797L153.87 123.12C153.458 121.486 152.81 119.947 151.966 118.538L155.812 113.734L152.36 108.786H150.864L146.055 112.636C144.648 111.795 143.111 111.151 141.48 110.741L140.802 104.617H133.804L133.126 110.741C131.495 111.151 129.958 111.795 128.551 112.636L125.238 108.786H123.741L118.793 113.734L122.639 118.538C121.794 119.946 121.147 121.486 120.735 123.12L114.625 123.797V130.795L120.726 131.471C121.136 133.11 121.782 134.656 122.627 136.069L118.793 140.858L123.741 145.806H125.238L128.526 141.976C129.941 142.825 131.488 143.474 133.13 143.887L133.804 149.974H140.802L141.476 143.887C143.118 143.475 144.666 142.825 146.081 141.976L150.865 145.806H152.361L155.813 140.858L151.979 136.069C152.824 134.656 153.47 133.11 153.88 131.471L159.98 130.795ZM137.303 134.932C133.095 134.932 129.685 131.521 129.685 127.314C129.685 123.107 133.096 119.696 137.303 119.696C141.51 119.696 144.921 123.107 144.921 127.314C144.921 131.521 141.51 134.932 137.303 134.932Z" fill="#365E6B"/>
<path d="M161.479 130.795V123.797L155.369 123.12C154.957 121.486 154.309 119.947 153.465 118.538L157.311 113.734L152.363 108.786L147.554 112.636C146.147 111.795 144.61 111.151 142.979 110.741L142.301 104.617H135.303L134.625 110.741C132.994 111.151 131.456 111.795 130.05 112.636L125.241 108.786L120.293 113.734L124.139 118.538C123.295 119.946 122.647 121.486 122.235 123.12L116.125 123.797V130.795L122.226 131.471C122.636 133.11 123.282 134.656 124.127 136.069L120.293 140.858L125.241 145.806L130.025 141.976C131.44 142.825 132.987 143.474 134.63 143.887L135.304 149.974H142.302L142.976 143.887C144.618 143.475 146.166 142.825 147.58 141.976L152.364 145.806L157.312 140.858L153.478 136.069C154.323 134.656 154.969 133.11 155.379 131.471L161.479 130.795ZM138.801 134.932C134.594 134.932 131.183 131.521 131.183 127.314C131.183 123.107 134.594 119.696 138.801 119.696C143.008 119.696 146.419 123.107 146.419 127.314C146.419 131.521 143.008 134.932 138.801 134.932Z" fill="#5DA1BA"/>
<path d="M327.908 119.664V113.369L322.412 112.76C322.041 111.29 321.459 109.905 320.699 108.638L324.159 104.316L320.985 99.8652H319.708L315.382 103.329C314.117 102.573 312.734 101.993 311.266 101.625L310.656 96.1172H304.361L303.751 101.625C302.284 101.994 300.901 102.573 299.635 103.329L296.586 99.8652H295.309L290.858 104.316L294.318 108.638C293.558 109.905 292.976 111.29 292.605 112.76L287.109 113.369V119.664L292.597 120.272C292.966 121.747 293.547 123.137 294.307 124.408L290.858 128.716L295.309 133.167H296.586L299.612 129.722C300.885 130.486 302.277 131.07 303.754 131.441L304.36 136.917H310.655L311.262 131.441C312.739 131.07 314.131 130.486 315.404 129.722L319.707 133.167H320.984L324.158 128.716L320.709 124.408C321.469 123.137 322.05 121.747 322.419 120.272L327.908 119.664ZM307.508 123.385C303.723 123.385 300.655 120.317 300.655 116.532C300.655 112.747 303.723 109.679 307.508 109.679C311.293 109.679 314.361 112.747 314.361 116.532C314.361 120.317 311.293 123.385 307.508 123.385Z" fill="#365E6B"/>
<path d="M329.182 119.664V113.369L323.686 112.76C323.315 111.29 322.733 109.905 321.973 108.638L325.433 104.316L320.982 99.8652L316.656 103.329C315.391 102.573 314.008 101.993 312.54 101.625L311.93 96.1172H305.635L305.025 101.625C303.558 101.994 302.175 102.573 300.909 103.329L296.583 99.8652L292.132 104.316L295.592 108.638C294.832 109.905 294.25 111.29 293.879 112.76L288.383 113.369V119.664L293.871 120.272C294.24 121.747 294.821 123.137 295.581 124.408L292.132 128.716L296.583 133.167L300.886 129.722C302.159 130.486 303.551 131.07 305.028 131.441L305.634 136.917H311.929L312.536 131.441C314.013 131.07 315.405 130.486 316.678 129.722L320.981 133.167L325.432 128.716L321.983 124.408C322.743 123.137 323.324 121.747 323.693 120.272L329.182 119.664ZM308.783 123.385C304.998 123.385 301.93 120.317 301.93 116.532C301.93 112.747 304.998 109.679 308.783 109.679C312.568 109.679 315.636 112.747 315.636 116.532C315.636 120.317 312.567 123.385 308.783 123.385Z" fill="#5DA1BA"/>
<path d="M302.094 115.438C303.127 115.53 304.16 115.626 305.19 115.732C315.897 116.832 335.379 120.991 344.856 126.094C360.058 134.28 363.099 156.966 345.09 167.257" stroke="#345A6E" stroke-width="1.5" stroke-miterlimit="10" stroke-dasharray="5.14 5.14"/>
<path d="M237.266 139.238V135.722L234.196 135.382C233.989 134.561 233.664 133.788 233.239 133.08L235.171 130.666L232.685 128.18H232.007L230.269 130.114C229.562 129.692 228.79 129.368 227.971 129.162L227.63 126.086H224.114L223.773 129.162C222.954 129.368 222.181 129.691 221.474 130.114L219.058 128.18H218.38L216.572 130.666L218.504 133.08C218.08 133.788 217.754 134.561 217.547 135.382L214.477 135.722V139.238L217.542 139.577C217.748 140.401 218.073 141.177 218.497 141.887L216.571 144.293L218.379 146.779H219.057L221.461 144.855C222.172 145.281 222.949 145.608 223.774 145.815L224.113 148.873H227.629L227.968 145.815C228.793 145.608 229.571 145.282 230.281 144.855L232.006 146.779H232.684L235.17 144.293L233.244 141.887C233.668 141.177 233.993 140.401 234.199 139.577L237.266 139.238ZM225.873 141.317C223.759 141.317 222.046 139.603 222.046 137.49C222.046 135.377 223.76 133.663 225.873 133.663C227.986 133.663 229.7 135.377 229.7 137.49C229.7 139.603 227.987 141.317 225.873 141.317Z" fill="#365E6B"/>
<path d="M236.587 139.238V135.722L233.517 135.382C233.31 134.561 232.985 133.788 232.56 133.08L234.492 130.666L232.006 128.18L229.59 130.114C228.883 129.692 228.111 129.368 227.291 129.162L226.95 126.086H223.434L223.093 129.162C222.274 129.368 221.501 129.691 220.794 130.114L218.378 128.18L215.892 130.666L217.824 133.08C217.4 133.788 217.074 134.561 216.867 135.382L213.797 135.722V139.238L216.862 139.577C217.068 140.401 217.393 141.177 217.817 141.887L215.891 144.293L218.377 146.779L220.781 144.855C221.492 145.281 222.269 145.608 223.094 145.815L223.433 148.873H226.949L227.288 145.815C228.113 145.608 228.891 145.282 229.601 144.855L232.005 146.779L234.491 144.293L232.565 141.887C232.989 141.177 233.314 140.401 233.52 139.577L236.587 139.238ZM225.194 141.317C223.08 141.317 221.367 139.603 221.367 137.49C221.367 135.377 223.081 133.663 225.194 133.663C227.308 133.663 229.021 135.377 229.021 137.49C229.021 139.603 227.307 141.317 225.194 141.317Z" fill="#5DA1BA"/>
<path d="M133.125 122.531C136.244 125.21 139.438 127.792 142.811 130.136C164.273 145.048 192.811 149.246 217.658 141.146C221.505 139.892 225.249 138.348 228.863 136.541" stroke="#345A6E" stroke-width="1.5" stroke-miterlimit="10" stroke-dasharray="5.14 5.14"/>
<path d="M366.878 122.553C370.038 122.553 372.6 119.992 372.6 116.831C372.6 113.671 370.038 111.109 366.878 111.109C363.718 111.109 361.156 113.671 361.156 116.831C361.156 119.992 363.718 122.553 366.878 122.553Z" stroke="#345A6E" stroke-width="1.0274" stroke-miterlimit="10"/>
<path d="M333.133 69.3203C333.133 70.5843 332.108 71.6093 330.844 71.6093C329.58 71.6093 328.555 70.5843 328.555 69.3203C328.555 68.0563 329.58 67.0312 330.844 67.0312C332.109 67.0312 333.133 68.0553 333.133 69.3203Z" stroke="#345A6E" stroke-width="1.0274" stroke-miterlimit="10"/>
<path d="M408.356 169.174C408.356 170.556 407.236 171.676 405.854 171.676C404.472 171.676 403.352 170.556 403.352 169.174C403.352 167.792 404.472 166.672 405.854 166.672C407.236 166.672 408.356 167.793 408.356 169.174Z" stroke="#345A6E" stroke-width="1.0274" stroke-miterlimit="10"/>
<path d="M274.862 167.927C276.369 167.927 277.591 166.705 277.591 165.198C277.591 163.691 276.369 162.469 274.862 162.469C273.355 162.469 272.133 163.691 272.133 165.198C272.133 166.705 273.355 167.927 274.862 167.927Z" stroke="#345A6E" stroke-width="1.0274" stroke-miterlimit="10"/>
<path d="M383.829 90.9182C383.829 91.5462 383.32 92.0553 382.692 92.0553C382.064 92.0553 381.555 91.5462 381.555 90.9182C381.555 90.2902 382.064 89.7812 382.692 89.7812C383.32 89.7812 383.829 90.2902 383.829 90.9182Z" stroke="#345A6E" stroke-width="1.0274" stroke-miterlimit="10"/>
<path d="M380.134 323.262C380.134 325.275 378.502 326.907 376.489 326.907C374.476 326.907 372.844 325.275 372.844 323.262C372.844 321.249 374.476 319.617 376.489 319.617C378.502 319.617 380.134 321.249 380.134 323.262Z" stroke="#345A6E" stroke-width="1.0274" stroke-miterlimit="10"/>
<path d="M358.35 234.3C358.35 236.787 356.334 238.803 353.847 238.803C351.36 238.803 349.344 236.787 349.344 234.3C349.344 231.813 351.36 229.797 353.847 229.797C356.334 229.797 358.35 231.813 358.35 234.3Z" stroke="#345A6E" stroke-width="1.0274" stroke-miterlimit="10"/>
<path d="M411.446 231.277C411.446 232.224 410.678 232.992 409.731 232.992C408.784 232.992 408.016 232.224 408.016 231.277C408.016 230.33 408.784 229.562 409.731 229.562C410.678 229.562 411.446 230.329 411.446 231.277Z" stroke="#345A6E" stroke-width="1.0274" stroke-miterlimit="10"/>
<path d="M172.007 183.038C173.31 183.038 174.366 181.982 174.366 180.679C174.366 179.376 173.31 178.32 172.007 178.32C170.705 178.32 169.648 179.376 169.648 180.679C169.648 181.982 170.705 183.038 172.007 183.038Z" stroke="#345A6E" stroke-width="1.0274" stroke-miterlimit="10"/>
<path d="M189.687 108.625C189.687 109.928 188.631 110.984 187.328 110.984C186.025 110.984 184.969 109.928 184.969 108.625C184.969 107.322 186.025 106.266 187.328 106.266C188.631 106.266 189.687 107.322 189.687 108.625Z" stroke="#345A6E" stroke-width="1.0274" stroke-miterlimit="10"/>
<path d="M111.748 50.753C111.748 53.24 109.732 55.256 107.245 55.256C104.758 55.256 102.742 53.24 102.742 50.753C102.742 48.266 104.758 46.25 107.245 46.25C109.732 46.25 111.748 48.266 111.748 50.753Z" stroke="#345A6E" stroke-width="1.0274" stroke-miterlimit="10"/>
<path d="M84.5465 155.031C85.8493 155.031 86.9055 153.974 86.9055 152.672C86.9055 151.369 85.8493 150.312 84.5465 150.312C83.2437 150.312 82.1875 151.369 82.1875 152.672C82.1875 153.974 83.2437 155.031 84.5465 155.031Z" stroke="#345A6E" stroke-width="1.0274" stroke-miterlimit="10"/>
<path d="M23.1926 187.752C24.9687 187.752 26.4086 186.312 26.4086 184.536C26.4086 182.76 24.9687 181.32 23.1926 181.32C21.4164 181.32 19.9766 182.76 19.9766 184.536C19.9766 186.312 21.4164 187.752 23.1926 187.752Z" stroke="#345A6E" stroke-width="1.0274" stroke-miterlimit="10"/>
<path d="M74.1803 217.891C74.1803 218.957 73.3163 219.821 72.2503 219.821C71.1843 219.821 70.3203 218.957 70.3203 217.891C70.3203 216.825 71.1843 215.961 72.2503 215.961C73.3163 215.961 74.1803 216.825 74.1803 217.891Z" stroke="#345A6E" stroke-width="1.0274" stroke-miterlimit="10"/>
<path d="M72.8834 261.938C72.8834 263.004 72.0194 263.868 70.9534 263.868C69.8874 263.868 69.0234 263.004 69.0234 261.938C69.0234 260.872 69.8874 260.008 70.9534 260.008C72.0194 260.009 72.8834 260.873 72.8834 261.938Z" stroke="#345A6E" stroke-width="1.0274" stroke-miterlimit="10"/>
<path d="M4.216 321.494C5.99215 321.494 7.432 320.055 7.432 318.279C7.432 316.502 5.99215 315.062 4.216 315.062C2.43985 315.062 1 316.502 1 318.279C1 320.055 2.43985 321.494 4.216 321.494Z" stroke="#345A6E" stroke-width="1.0274" stroke-miterlimit="10"/>
<path d="M75.4706 347.883C75.4706 351.081 72.8786 353.673 69.6806 353.673C66.4836 353.673 63.8906 351.081 63.8906 347.883C63.8906 344.686 66.4826 342.094 69.6806 342.094C72.8786 342.094 75.4706 344.686 75.4706 347.883Z" stroke="#345A6E" stroke-width="1.0274" stroke-miterlimit="10"/>
<path d="M171.793 301.399C172.74 301.399 173.508 300.631 173.508 299.684C173.508 298.737 172.74 297.969 171.793 297.969C170.846 297.969 170.078 298.737 170.078 299.684C170.078 300.631 170.846 301.399 171.793 301.399Z" stroke="#345A6E" stroke-width="1.0274" stroke-miterlimit="10"/>
<path d="M271.715 262.375C272.662 262.375 273.43 261.607 273.43 260.66C273.43 259.713 272.662 258.945 271.715 258.945C270.768 258.945 270 259.713 270 260.66C270 261.607 270.768 262.375 271.715 262.375Z" stroke="#345A6E" stroke-width="1.0274" stroke-miterlimit="10"/>
<path d="M266.995 347.716C268.416 347.716 269.568 346.564 269.568 345.143C269.568 343.722 268.416 342.57 266.995 342.57C265.574 342.57 264.422 343.722 264.422 345.143C264.422 346.564 265.574 347.716 266.995 347.716Z" stroke="#345A6E" stroke-width="1.0274" stroke-miterlimit="10"/>
<path d="M50.8556 75.8049C51.7552 75.8049 52.4846 75.0755 52.4846 74.1759C52.4846 73.2762 51.7552 72.5469 50.8556 72.5469C49.9559 72.5469 49.2266 73.2762 49.2266 74.1759C49.2266 75.0755 49.9559 75.8049 50.8556 75.8049Z" stroke="#345A6E" stroke-width="1.0274" stroke-miterlimit="10"/>
<path d="M244.652 59.6938C244.652 45.2968 232.485 33.7408 217.872 34.7488C205.567 35.5978 195.588 45.5498 194.707 57.8518C194.209 64.8088 196.56 71.2128 200.711 76.0208C204.834 80.7958 206.917 87.0018 206.917 93.3108V94.4168H231.942V93.3798C231.942 86.9588 234.421 80.8558 238.61 75.9888C242.374 71.6128 244.652 65.9198 244.652 59.6938Z" fill="#F1DA3D"/>
<path d="M219.805 38.667C222.616 38.271 225.563 38.885 228.202 40.053C230.864 41.211 233.268 42.967 235.249 45.11C237.226 47.255 238.783 49.819 239.661 52.599C240.561 55.363 240.786 58.34 240.177 61.102C239.703 58.314 238.935 55.727 237.785 53.34C236.623 50.963 235.126 48.791 233.349 46.861C231.574 44.929 229.526 43.245 227.274 41.835C225.005 40.446 222.546 39.348 219.805 38.667Z" fill="white"/>
<path d="M215.494 95.7742C215.494 95.7742 215.46 86.6372 215.301 81.5672C215.099 75.1002 215.156 71.0772 213.767 67.8042C212.525 64.8772 210.844 64.2152 209.542 65.7932C208.194 67.4252 209.488 71.5302 212.802 72.6702C215.663 73.6542 219.964 73.9212 223.712 73.0452C226.221 72.4592 227.939 71.5392 229.355 70.1682C231.167 68.4122 230.823 65.5002 229.722 64.8332C228.259 63.9472 226.397 64.9662 225.285 67.8352C224.813 69.0532 223.558 71.8742 223.471 80.5282C223.428 84.8002 223.195 95.4932 223.195 95.4932" stroke="#919CA2" stroke-width="0.8566" stroke-miterlimit="10" stroke-linecap="round"/>
<path d="M205.556 39.0625C199.45 43.2565 195.264 50.0835 194.707 57.8515C194.209 64.8085 196.56 71.2125 200.711 76.0205C204.834 80.7955 206.917 87.0015 206.917 93.3105V94.4165H231.942V93.3795C231.942 86.9585 234.42 80.8555 238.61 75.9885C239.88 74.5125 240.976 72.8845 241.877 71.1395C211.433 83.3535 199.464 57.6255 205.556 39.0625Z" fill="url(#paint6_linear_93_851)"/>
<path d="M219.34 112.525C225.805 112.525 231.047 109.695 231.047 106.204C231.047 102.713 225.805 99.8828 219.34 99.8828C212.874 99.8828 207.633 102.713 207.633 106.204C207.633 109.695 212.874 112.525 219.34 112.525Z" fill="#8F8F8F"/>
<path d="M206.719 98.3682H232.162C233.301 98.3682 234.225 97.4442 234.225 96.3052C234.225 95.1662 233.301 94.2422 232.162 94.2422H206.719C205.58 94.2422 204.656 95.1662 204.656 96.3052C204.656 97.4442 205.58 98.3682 206.719 98.3682Z" fill="#BEBEBE"/>
<path d="M232.162 102.375H206.719C205.58 102.375 204.656 103.299 204.656 104.438C204.656 105.577 205.58 106.501 206.719 106.501H232.162C233.301 106.501 234.225 105.577 234.225 104.438C234.225 103.299 233.301 102.375 232.162 102.375Z" fill="#BEBEBE"/>
<path d="M232.162 98.2812H206.719C205.58 98.2812 204.656 99.2053 204.656 100.344C204.656 101.483 205.58 102.407 206.719 102.407H232.162C233.301 102.407 234.225 101.484 234.225 100.344C234.225 99.2043 233.301 98.2812 232.162 98.2812Z" fill="#8F8F8F"/>
<path d="M215.424 27.909L210.555 0L218.18 0.703999L215.424 27.909Z" fill="#345A6E"/>
<path d="M227.93 28.3927L234.014 9.96875L236.946 13.1357L227.93 28.3927Z" fill="#345A6E"/>
<path d="M246.266 37.8264L271.715 17.3594L272.605 25.9014L246.266 37.8264Z" fill="#345A6E"/>
<path d="M195.949 37.2217L181.704 18.3047L176.75 23.5067L195.949 37.2217Z" fill="#345A6E"/>
<path d="M187.239 56.6587L155.667 45.4297L154.781 55.6707L187.239 56.6587Z" fill="#345A6E"/>
<path d="M255.484 58.0412L273.149 56.1172L272.975 59.7902L255.484 58.0412Z" fill="#345A6E"/>
<defs>
<linearGradient id="paint0_linear_93_851" x1="302.664" y1="179.931" x2="301.744" y2="185.245" gradientUnits="userSpaceOnUse">
<stop stop-color="#DA9C68"/>
<stop offset="1" stop-color="#DA9C68" stop-opacity="0"/>
</linearGradient>
<linearGradient id="paint1_linear_93_851" x1="120.261" y1="183.443" x2="121.756" y2="188.712" gradientUnits="userSpaceOnUse">
<stop stop-color="#B88F6C"/>
<stop offset="1" stop-color="#B88F6C" stop-opacity="0"/>
</linearGradient>
<linearGradient id="paint2_linear_93_851" x1="131.886" y1="183.693" x2="130.4" y2="188.735" gradientUnits="userSpaceOnUse">
<stop stop-color="#B88F6C"/>
<stop offset="1" stop-color="#B88F6C" stop-opacity="0"/>
</linearGradient>
<linearGradient id="paint3_linear_93_851" x1="232.987" y1="190.868" x2="227.876" y2="192.461" gradientUnits="userSpaceOnUse">
<stop stop-color="#D38278"/>
<stop offset="1" stop-color="#EEB9AD" stop-opacity="0"/>
</linearGradient>
<linearGradient id="paint4_linear_93_851" x1="222" y1="182.191" x2="222.218" y2="188.86" gradientUnits="userSpaceOnUse">
<stop stop-color="#DA9C68"/>
<stop offset="1" stop-color="#DA9C68" stop-opacity="0"/>
</linearGradient>
<linearGradient id="paint5_linear_93_851" x1="236.522" y1="182.191" x2="236.304" y2="188.86" gradientUnits="userSpaceOnUse">
<stop stop-color="#DA9C68"/>
<stop offset="1" stop-color="#DA9C68" stop-opacity="0"/>
</linearGradient>
<linearGradient id="paint6_linear_93_851" x1="204.183" y1="90.1725" x2="224.409" y2="53.8609" gradientUnits="userSpaceOnUse">
<stop stop-color="#E7C13C"/>
<stop offset="1" stop-color="#E7C13C" stop-opacity="0"/>
</linearGradient>
</defs>
</svg>
